<?xml version="1.0" standalone="no"?>
 <!DOCTYPE svg PUBLIC "-//W3C//DTD SVG 1.1//EN" 
 "http://www.w3.org/Graphics/SVG/1.1/DTD/svg11.dtd"> 
<svg
  xmlns:svg="http://www.w3.org/2000/svg"
  xmlns="http://www.w3.org/2000/svg"
  xmlns:xlink="http://www.w3.org/1999/xlink"
  version="1.1"
  width="29.700220cm" height="21.000720cm" viewBox="0 0 116930 82680">
<title>SVG Picture created as 8x8_Kick_Drum-B_Fab.svg date 2021/09/05 10:29:43 </title>
  <desc>Picture generated by PCBNEW </desc>
<g style="fill:#000000; fill-opacity:1;stroke:#000000; stroke-opacity:1;
stroke-linecap:round; stroke-linejoin:round;"
 transform="translate(0 0) scale(1 1)">
</g>
<g style="fill:#000000; fill-opacity:0.0; 
stroke:#000000; stroke-width:-0.000393701; stroke-opacity:1; 
stroke-linecap:round; stroke-linejoin:round;">
</g>
<g style="fill:#000000; fill-opacity:0.0; 
stroke:#000000; stroke-width:39.3701; stroke-opacity:1; 
stroke-linecap:round; stroke-linejoin:round;">
<path d="M50328 61844
L50328 65938
" />
<path d="M53871 61844
L53871 65938
" />
<path d="M53871 61844
L50328 61844
" />
<path d="M53871 65958
L50328 65958
" />
<circle cx="52100" cy="64206.7" r="708.661" /> 
<path d="M52100 64198
L52100 63399
" />
<path d="M57328 61845
L57328 65940
" />
<path d="M60871 61845
L60871 65940
" />
<path d="M60871 61845
L57328 61845
" />
<path d="M60871 65959
L57328 65959
" />
<circle cx="59100" cy="64207.9" r="708.661" /> 
<path d="M59100 64200
L59100 63400
" />
<path d="M61378 61832
L61378 65927
" />
<path d="M64921 61832
L64921 65927
" />
<path d="M64921 61832
L61378 61832
" />
<path d="M64921 65946
L61378 65946
" />
<circle cx="63150" cy="64194.9" r="708.661" /> 
<path d="M63150 64187
L63150 63387
" />
<path d="M55840 42459
L55840 37990
" />
<path d="M59580 42459
L59580 37990
" />
<path d="M55840 37990
L59580 37990
" />
<path d="M55840 42459
L59580 42459
" />
<circle cx="57710.2" cy="39900" r="1377.95" /> 
<path d="M55795 48606
L55795 44137
" />
<path d="M59535 48606
L59535 44137
" />
<path d="M55795 44137
L59535 44137
" />
<path d="M55795 48606
L59535 48606
" />
<circle cx="57665.7" cy="46047.2" r="1377.95" /> 
<path d="M55840 36359
L55840 31890
" />
<path d="M59580 36359
L59580 31890
" />
<path d="M55840 31890
L59580 31890
" />
<path d="M55840 36359
L59580 36359
" />
<circle cx="57710.2" cy="33800" r="1377.95" /> 
<path d="M50869 30206
L50869 25737
" />
<path d="M54609 30206
L54609 25737
" />
<path d="M50869 25737
L54609 25737
" />
<path d="M50869 30206
L54609 30206
" />
<circle cx="52739.8" cy="27647.2" r="1377.95" /> 
<path d="M60690 30206
L60690 25737
" />
<path d="M64430 30206
L64430 25737
" />
<path d="M60690 25737
L64430 25737
" />
<path d="M60690 30206
L64430 30206
" />
<circle cx="62560.2" cy="27647.2" r="1377.95" /> 
<g >
</g>
<g >
</g>
<g >
</g>
<g >
</g>
<g >
</g>
<g >
</g>
<g >
</g>
<g >
</g>
<g >
</g>
<g >
</g>
<g >
</g>
<g >
</g>
<g >
</g>
<g >
</g>
<g >
</g>
<g >
</g>
<g >
</g>
<g >
</g>
<g >
</g>
<g >
</g>
<g >
</g>
<g >
</g>
<g >
</g>
<g >
</g>
<g >
</g>
<g >
</g>
<g >
</g>
<g >
</g>
<g >
</g>
<g >
</g>
<g >
</g>
<g >
</g>
<g >
</g>
<g >
</g>
<g >
</g>
<g >
</g>
<g >
</g>
<g >
</g>
<g >
</g>
<g >
</g>
<g >
</g>
<g >
</g>
<g >
</g>
<g >
</g>
<g >
</g>
<g >
</g>
<g >
</g>
<g >
</g>
<g >
</g>
<g >
</g>
<g >
</g>
<g >
</g>
<g >
</g>
<g >
</g>
<g >
</g>
<g >
</g>
<g >
</g>
<g >
</g>
<g >
</g>
<g >
</g>
<g >
</g>
<g >
</g>
<g >
</g>
<g >
</g>
<g >
</g>
</g>
<g style="fill:#000000; fill-opacity:0.0; 
stroke:#000000; stroke-width:39.3701; stroke-opacity:1; 
stroke-linecap:round; stroke-linejoin:round;">
</g>
<g style="fill:#000000; fill-opacity:0.0; 
stroke:#000000; stroke-width:59.0551; stroke-opacity:1; 
stroke-linecap:round; stroke-linejoin:round;">
<text x="52100" y="62427.2"
transform="scale(-1 1) translate(-104200.000000 0)"
textLength="2019.57" font-size="524.934" lengthAdjust="spacingAndGlyphs"
text-anchor="middle" opacity="0">BD_Out</text>
<path d="M52915 62202
L52859 62220
L52840 62239
L52821 62277
L52821 62333
L52840 62370
L52859 62389
L52896 62408
L53046 62408
L53046 62014
L52915 62014
L52878 62033
L52859 62052
L52840 62089
L52840 62127
L52859 62164
L52878 62183
L52915 62202
L53046 62202
" />
<path d="M52653 62408
L52653 62014
L52559 62014
L52503 62033
L52465 62070
L52446 62108
L52428 62183
L52428 62239
L52446 62314
L52465 62352
L52503 62389
L52559 62408
L52653 62408
" />
<path d="M52353 62445
L52053 62445
" />
<path d="M51884 62014
L51809 62014
L51771 62033
L51734 62070
L51715 62145
L51715 62277
L51734 62352
L51771 62389
L51809 62408
L51884 62408
L51921 62389
L51959 62352
L51978 62277
L51978 62145
L51959 62070
L51921 62033
L51884 62014
" />
<path d="M51378 62145
L51378 62408
" />
<path d="M51546 62145
L51546 62352
L51528 62389
L51490 62408
L51434 62408
L51396 62389
L51378 62370
" />
<path d="M51246 62145
L51097 62145
" />
<path d="M51190 62014
L51190 62352
L51171 62389
L51134 62408
L51097 62408
" />
<text x="50328.3" y="60655.5"
transform="scale(-1 1) translate(-100656.692913 0)"
textLength="598.144" font-size="524.934" lengthAdjust="spacingAndGlyphs"
text-anchor="middle" opacity="0">J4</text>
<path d="M50459 60243
L50459 60524
L50478 60580
L50515 60618
L50572 60636
L50609 60636
" />
<path d="M50103 60374
L50103 60636
" />
<path d="M50197 60224
L50290 60505
L50047 60505
" />
<text x="59100" y="62428.3"
transform="scale(-1 1) translate(-118200.000000 0)"
textLength="2697.88" font-size="524.934" lengthAdjust="spacingAndGlyphs"
text-anchor="middle" opacity="0">Accent_In</text>
<path d="M60412 62297
L60224 62297
" />
<path d="M60449 62409
L60318 62015
L60187 62409
" />
<path d="M59887 62390
L59924 62409
L59999 62409
L60037 62390
L60056 62372
L60074 62334
L60074 62222
L60056 62184
L60037 62165
L59999 62147
L59924 62147
L59887 62165
" />
<path d="M59549 62390
L59587 62409
L59662 62409
L59699 62390
L59718 62372
L59737 62334
L59737 62222
L59718 62184
L59699 62165
L59662 62147
L59587 62147
L59549 62165
" />
<path d="M59231 62390
L59268 62409
L59343 62409
L59381 62390
L59399 62353
L59399 62203
L59381 62165
L59343 62147
L59268 62147
L59231 62165
L59212 62203
L59212 62240
L59399 62278
" />
<path d="M59043 62147
L59043 62409
" />
<path d="M59043 62184
L59025 62165
L58987 62147
L58931 62147
L58893 62165
L58875 62203
L58875 62409
" />
<path d="M58743 62147
L58593 62147
" />
<path d="M58687 62015
L58687 62353
L58668 62390
L58631 62409
L58593 62409
" />
<path d="M58556 62447
L58256 62447
" />
<path d="M58162 62409
L58162 62015
" />
<path d="M57975 62147
L57975 62409
" />
<path d="M57975 62184
L57956 62165
L57918 62147
L57862 62147
L57825 62165
L57806 62203
L57806 62409
" />
<text x="57328.3" y="60656.7"
transform="scale(-1 1) translate(-114656.692913 0)"
textLength="598.144" font-size="524.934" lengthAdjust="spacingAndGlyphs"
text-anchor="middle" opacity="0">J3</text>
<path d="M57459 60244
L57459 60525
L57478 60581
L57515 60619
L57572 60637
L57609 60637
" />
<path d="M57309 60244
L57065 60244
L57197 60394
L57140 60394
L57103 60412
L57084 60431
L57065 60469
L57065 60562
L57084 60600
L57103 60619
L57140 60637
L57253 60637
L57290 60619
L57309 60600
" />
<text x="63150" y="62415.4"
transform="scale(-1 1) translate(-126300.000000 0)"
textLength="2097.96" font-size="524.934" lengthAdjust="spacingAndGlyphs"
text-anchor="middle" opacity="0">BD_Trig</text>
<path d="M64012 62190
L63956 62209
L63937 62227
L63918 62265
L63918 62321
L63937 62359
L63956 62377
L63993 62396
L64143 62396
L64143 62002
L64012 62002
L63974 62021
L63956 62040
L63937 62077
L63937 62115
L63956 62152
L63974 62171
L64012 62190
L64143 62190
" />
<path d="M63749 62396
L63749 62002
L63656 62002
L63599 62021
L63562 62059
L63543 62096
L63524 62171
L63524 62227
L63543 62302
L63562 62340
L63599 62377
L63656 62396
L63749 62396
" />
<path d="M63449 62434
L63150 62434
" />
<path d="M63112 62002
L62887 62002
" />
<path d="M63000 62396
L63000 62002
" />
<path d="M62756 62396
L62756 62134
" />
<path d="M62756 62209
L62737 62171
L62718 62152
L62681 62134
L62643 62134
" />
<path d="M62512 62396
L62512 62134
" />
<path d="M62512 62002
L62531 62021
L62512 62040
L62493 62021
L62512 62002
L62512 62040
" />
<path d="M62156 62134
L62156 62452
L62175 62490
L62193 62509
L62231 62527
L62287 62527
L62325 62509
" />
<path d="M62156 62377
L62193 62396
L62268 62396
L62306 62377
L62325 62359
L62343 62321
L62343 62209
L62325 62171
L62306 62152
L62268 62134
L62193 62134
L62156 62152
" />
<text x="61378.3" y="60643.7"
transform="scale(-1 1) translate(-122756.692913 0)"
textLength="598.144" font-size="524.934" lengthAdjust="spacingAndGlyphs"
text-anchor="middle" opacity="0">J2</text>
<path d="M61509 60231
L61509 60512
L61528 60568
L61565 60606
L61622 60624
L61659 60624
" />
<path d="M61340 60268
L61322 60250
L61284 60231
L61190 60231
L61153 60250
L61134 60268
L61115 60306
L61115 60343
L61134 60399
L61359 60624
L61115 60624
" />
<g transform="rotate(90 54812.6 42852.8)">
<text x="54812.6" y="43049.6"
transform="scale(-1 1) translate(-109625.196850 0)"
textLength="3297.81" font-size="524.934" lengthAdjust="spacingAndGlyphs"
text-anchor="middle" opacity="0">Accent 10K</text>
</g>
<path d="M54746 44465
L54746 44277
" />
<path d="M54634 44502
L55028 44371
L54634 44240
" />
<path d="M54653 43940
L54634 43977
L54634 44052
L54653 44090
L54671 44108
L54709 44127
L54821 44127
L54859 44108
L54878 44090
L54896 44052
L54896 43977
L54878 43940
" />
<path d="M54653 43602
L54634 43640
L54634 43715
L54653 43752
L54671 43771
L54709 43790
L54821 43790
L54859 43771
L54878 43752
L54896 43715
L54896 43640
L54878 43602
" />
<path d="M54653 43283
L54634 43321
L54634 43396
L54653 43433
L54690 43452
L54840 43452
L54878 43433
L54896 43396
L54896 43321
L54878 43283
L54840 43265
L54803 43265
L54765 43452
" />
<path d="M54896 43096
L54634 43096
" />
<path d="M54859 43096
L54878 43077
L54896 43040
L54896 42983
L54878 42946
L54840 42927
L54634 42927
" />
<path d="M54896 42796
L54896 42646
" />
<path d="M55028 42740
L54690 42740
L54653 42721
L54634 42684
L54634 42646
" />
<path d="M54634 42009
L54634 42234
" />
<path d="M54634 42121
L55028 42121
L54971 42159
L54934 42196
L54915 42234
" />
<path d="M55028 41765
L55028 41727
L55009 41690
L54990 41671
L54953 41652
L54878 41634
L54784 41634
L54709 41652
L54671 41671
L54653 41690
L54634 41727
L54634 41765
L54653 41802
L54671 41821
L54709 41840
L54784 41859
L54878 41859
L54953 41840
L54990 41821
L55009 41802
L55028 41765
" />
<path d="M54634 41465
L55028 41465
" />
<path d="M54634 41240
L54859 41409
" />
<path d="M55028 41240
L54803 41465
" />
<g transform="rotate(-90 57694.5 39852.8)">
<text x="57694.5" y="40049.6"
transform="scale(-1 1) translate(-115388.976378 0)"
textLength="1029.34" font-size="524.934" lengthAdjust="spacingAndGlyphs"
text-anchor="middle" opacity="0">RV5</text>
</g>
<path d="M57872 39618
L57685 39487
" />
<path d="M57872 39393
L57478 39393
L57478 39543
L57497 39580
L57516 39599
L57553 39618
L57610 39618
L57647 39599
L57666 39580
L57685 39543
L57685 39393
" />
<path d="M57478 39730
L57872 39862
L57478 39993
" />
<path d="M57478 40312
L57478 40124
L57666 40105
L57647 40124
L57628 40162
L57628 40255
L57647 40293
L57666 40312
L57703 40330
L57797 40330
L57835 40312
L57853 40293
L57872 40255
L57872 40162
L57853 40124
L57835 40105
" />
<g transform="rotate(90 54768.1 49000)">
<text x="54768.1" y="49196.9"
transform="scale(-1 1) translate(-109536.220472 0)"
textLength="3953.97" font-size="524.934" lengthAdjust="spacingAndGlyphs"
text-anchor="middle" opacity="0">BD Level 10K</text>
</g>
<path d="M54796 50790
L54777 50734
L54758 50715
L54721 50696
L54664 50696
L54627 50715
L54608 50734
L54590 50771
L54590 50921
L54983 50921
L54983 50790
L54964 50752
L54946 50734
L54908 50715
L54871 50715
L54833 50734
L54814 50752
L54796 50790
L54796 50921
" />
<path d="M54590 50527
L54983 50527
L54983 50434
L54964 50377
L54927 50340
L54889 50321
L54814 50302
L54758 50302
L54683 50321
L54646 50340
L54608 50377
L54590 50434
L54590 50527
" />
<path d="M54590 49646
L54590 49834
L54983 49834
" />
<path d="M54608 49365
L54590 49403
L54590 49478
L54608 49515
L54646 49534
L54796 49534
L54833 49515
L54852 49478
L54852 49403
L54833 49365
L54796 49346
L54758 49346
L54721 49534
" />
<path d="M54852 49215
L54590 49121
L54852 49028
" />
<path d="M54608 48728
L54590 48765
L54590 48840
L54608 48878
L54646 48896
L54796 48896
L54833 48878
L54852 48840
L54852 48765
L54833 48728
L54796 48709
L54758 48709
L54721 48896
" />
<path d="M54590 48484
L54608 48521
L54646 48540
L54983 48540
" />
<path d="M54590 47828
L54590 48053
" />
<path d="M54590 47940
L54983 47940
L54927 47978
L54889 48015
L54871 48053
" />
<path d="M54983 47584
L54983 47547
L54964 47509
L54946 47490
L54908 47472
L54833 47453
L54739 47453
L54664 47472
L54627 47490
L54608 47509
L54590 47547
L54590 47584
L54608 47622
L54627 47640
L54664 47659
L54739 47678
L54833 47678
L54908 47659
L54946 47640
L54964 47622
L54983 47584
" />
<path d="M54590 47284
L54983 47284
" />
<path d="M54590 47059
L54814 47228
" />
<path d="M54983 47059
L54758 47284
" />
<g transform="rotate(-90 57650 46000)">
<text x="57650" y="46196.9"
transform="scale(-1 1) translate(-115300.000000 0)"
textLength="1029.34" font-size="524.934" lengthAdjust="spacingAndGlyphs"
text-anchor="middle" opacity="0">RV3</text>
</g>
<path d="M57828 45765
L57640 45634
" />
<path d="M57828 45540
L57434 45540
L57434 45690
L57453 45728
L57471 45746
L57509 45765
L57565 45765
L57603 45746
L57621 45728
L57640 45690
L57640 45540
" />
<path d="M57434 45878
L57828 46009
L57434 46140
" />
<path d="M57434 46234
L57434 46478
L57584 46346
L57584 46403
L57603 46440
L57621 46459
L57659 46478
L57753 46478
L57790 46459
L57809 46440
L57828 46403
L57828 46290
L57809 46253
L57790 46234
" />
<g transform="rotate(90 54812.6 36752.8)">
<text x="54812.6" y="36949.6"
transform="scale(-1 1) translate(-109625.196850 0)"
textLength="4853.86" font-size="524.934" lengthAdjust="spacingAndGlyphs"
text-anchor="middle" opacity="0">BD Decay 500K </text>
</g>
<path d="M54840 38993
L54821 38936
L54803 38918
L54765 38899
L54709 38899
L54671 38918
L54653 38936
L54634 38974
L54634 39124
L55028 39124
L55028 38993
L55009 38955
L54990 38936
L54953 38918
L54915 38918
L54878 38936
L54859 38955
L54840 38993
L54840 39124
" />
<path d="M54634 38730
L55028 38730
L55028 38636
L55009 38580
L54971 38543
L54934 38524
L54859 38505
L54803 38505
L54728 38524
L54690 38543
L54653 38580
L54634 38636
L54634 38730
" />
<path d="M54634 38036
L55028 38036
L55028 37943
L55009 37886
L54971 37849
L54934 37830
L54859 37811
L54803 37811
L54728 37830
L54690 37849
L54653 37886
L54634 37943
L54634 38036
" />
<path d="M54653 37493
L54634 37530
L54634 37605
L54653 37643
L54690 37662
L54840 37662
L54878 37643
L54896 37605
L54896 37530
L54878 37493
L54840 37474
L54803 37474
L54765 37662
" />
<path d="M54653 37137
L54634 37174
L54634 37249
L54653 37287
L54671 37305
L54709 37324
L54821 37324
L54859 37305
L54878 37287
L54896 37249
L54896 37174
L54878 37137
" />
<path d="M54634 36799
L54840 36799
L54878 36818
L54896 36855
L54896 36930
L54878 36968
" />
<path d="M54653 36799
L54634 36837
L54634 36930
L54653 36968
L54690 36987
L54728 36987
L54765 36968
L54784 36930
L54784 36837
L54803 36799
" />
<path d="M54896 36649
L54634 36555
" />
<path d="M54896 36462
L54634 36555
L54540 36593
L54522 36612
L54503 36649
" />
<path d="M55028 35824
L55028 36012
L54840 36030
L54859 36012
L54878 35974
L54878 35880
L54859 35843
L54840 35824
L54803 35805
L54709 35805
L54671 35824
L54653 35843
L54634 35880
L54634 35974
L54653 36012
L54671 36030
" />
<path d="M55028 35562
L55028 35524
L55009 35487
L54990 35468
L54953 35449
L54878 35431
L54784 35431
L54709 35449
L54671 35468
L54653 35487
L54634 35524
L54634 35562
L54653 35599
L54671 35618
L54709 35637
L54784 35656
L54878 35656
L54953 35637
L54990 35618
L55009 35599
L55028 35562
" />
<path d="M55028 35187
L55028 35149
L55009 35112
L54990 35093
L54953 35074
L54878 35056
L54784 35056
L54709 35074
L54671 35093
L54653 35112
L54634 35149
L54634 35187
L54653 35224
L54671 35243
L54709 35262
L54784 35281
L54878 35281
L54953 35262
L54990 35243
L55009 35224
L55028 35187
" />
<path d="M54634 34887
L55028 34887
" />
<path d="M54634 34662
L54859 34831
" />
<path d="M55028 34662
L54803 34887
" />
<g transform="rotate(-90 57694.5 33752.8)">
<text x="57694.5" y="33949.6"
transform="scale(-1 1) translate(-115388.976378 0)"
textLength="1029.34" font-size="524.934" lengthAdjust="spacingAndGlyphs"
text-anchor="middle" opacity="0">RV4</text>
</g>
<path d="M57872 33518
L57685 33387
" />
<path d="M57872 33293
L57478 33293
L57478 33443
L57497 33480
L57516 33499
L57553 33518
L57610 33518
L57647 33499
L57666 33480
L57685 33443
L57685 33293
" />
<path d="M57478 33630
L57872 33762
L57478 33893
" />
<path d="M57610 34193
L57872 34193
" />
<path d="M57460 34099
L57741 34005
L57741 34249
" />
<g transform="rotate(90 49842.1 30600)">
<text x="49842.1" y="30796.9"
transform="scale(-1 1) translate(-99684.251969 0)"
textLength="3803.99" font-size="524.934" lengthAdjust="spacingAndGlyphs"
text-anchor="middle" opacity="0">BD Tone 10K</text>
</g>
<path d="M49870 32315
L49851 32259
L49832 32240
L49795 32221
L49739 32221
L49701 32240
L49682 32259
L49664 32296
L49664 32446
L50057 32446
L50057 32315
L50038 32277
L50020 32259
L49982 32240
L49945 32240
L49907 32259
L49888 32277
L49870 32315
L49870 32446
" />
<path d="M49664 32052
L50057 32052
L50057 31959
L50038 31902
L50001 31865
L49963 31846
L49888 31827
L49832 31827
L49757 31846
L49720 31865
L49682 31902
L49664 31959
L49664 32052
" />
<path d="M50057 31415
L50057 31190
" />
<path d="M49664 31303
L50057 31303
" />
<path d="M49664 31003
L49682 31040
L49701 31059
L49739 31078
L49851 31078
L49888 31059
L49907 31040
L49926 31003
L49926 30946
L49907 30909
L49888 30890
L49851 30871
L49739 30871
L49701 30890
L49682 30909
L49664 30946
L49664 31003
" />
<path d="M49926 30703
L49664 30703
" />
<path d="M49888 30703
L49907 30684
L49926 30646
L49926 30590
L49907 30553
L49870 30534
L49664 30534
" />
<path d="M49682 30196
L49664 30234
L49664 30309
L49682 30346
L49720 30365
L49870 30365
L49907 30346
L49926 30309
L49926 30234
L49907 30196
L49870 30178
L49832 30178
L49795 30365
" />
<path d="M49664 29503
L49664 29728
" />
<path d="M49664 29615
L50057 29615
L50001 29653
L49963 29690
L49945 29728
" />
<path d="M50057 29259
L50057 29222
L50038 29184
L50020 29165
L49982 29147
L49907 29128
L49814 29128
L49739 29147
L49701 29165
L49682 29184
L49664 29222
L49664 29259
L49682 29297
L49701 29315
L49739 29334
L49814 29353
L49907 29353
L49982 29334
L50020 29315
L50038 29297
L50057 29259
" />
<path d="M49664 28959
L50057 28959
" />
<path d="M49664 28734
L49888 28903
" />
<path d="M50057 28734
L49832 28959
" />
<g transform="rotate(-90 52724 27600)">
<text x="52724" y="27796.9"
transform="scale(-1 1) translate(-105448.031496 0)"
textLength="1029.34" font-size="524.934" lengthAdjust="spacingAndGlyphs"
text-anchor="middle" opacity="0">RV2</text>
</g>
<path d="M52902 27365
L52714 27234
" />
<path d="M52902 27140
L52508 27140
L52508 27290
L52527 27328
L52545 27346
L52583 27365
L52639 27365
L52677 27346
L52695 27328
L52714 27290
L52714 27140
" />
<path d="M52508 27478
L52902 27609
L52508 27740
" />
<path d="M52545 27853
L52527 27871
L52508 27909
L52508 28003
L52527 28040
L52545 28059
L52583 28078
L52620 28078
L52677 28059
L52902 27834
L52902 28078
" />
<g transform="rotate(90 59662.6 30600)">
<text x="59662.6" y="30796.9"
transform="scale(-1 1) translate(-119325.196850 0)"
textLength="5116.33" font-size="524.934" lengthAdjust="spacingAndGlyphs"
text-anchor="middle" opacity="0">BD Tune Env 10K</text>
</g>
<path d="M59690 32971
L59671 32915
L59653 32896
L59615 32877
L59559 32877
L59521 32896
L59503 32915
L59484 32952
L59484 33102
L59878 33102
L59878 32971
L59859 32934
L59840 32915
L59803 32896
L59765 32896
L59728 32915
L59709 32934
L59690 32971
L59690 33102
" />
<path d="M59484 32709
L59878 32709
L59878 32615
L59859 32559
L59821 32521
L59784 32502
L59709 32484
L59653 32484
L59578 32502
L59540 32521
L59503 32559
L59484 32615
L59484 32709
" />
<path d="M59878 32071
L59878 31846
" />
<path d="M59484 31959
L59878 31959
" />
<path d="M59746 31546
L59484 31546
" />
<path d="M59746 31715
L59540 31715
L59503 31696
L59484 31659
L59484 31602
L59503 31565
L59521 31546
" />
<path d="M59746 31359
L59484 31359
" />
<path d="M59709 31359
L59728 31340
L59746 31303
L59746 31246
L59728 31209
L59690 31190
L59484 31190
" />
<path d="M59503 30853
L59484 30890
L59484 30965
L59503 31003
L59540 31021
L59690 31021
L59728 31003
L59746 30965
L59746 30890
L59728 30853
L59690 30834
L59653 30834
L59615 31021
" />
<path d="M59690 30365
L59690 30234
" />
<path d="M59484 30178
L59484 30365
L59878 30365
L59878 30178
" />
<path d="M59746 30009
L59484 30009
" />
<path d="M59709 30009
L59728 29990
L59746 29953
L59746 29896
L59728 29859
L59690 29840
L59484 29840
" />
<path d="M59746 29690
L59484 29597
L59746 29503
" />
<path d="M59484 28847
L59484 29072
" />
<path d="M59484 28959
L59878 28959
L59821 28997
L59784 29034
L59765 29072
" />
<path d="M59878 28603
L59878 28565
L59859 28528
L59840 28509
L59803 28490
L59728 28472
L59634 28472
L59559 28490
L59521 28509
L59503 28528
L59484 28565
L59484 28603
L59503 28640
L59521 28659
L59559 28678
L59634 28697
L59728 28697
L59803 28678
L59840 28659
L59859 28640
L59878 28603
" />
<path d="M59484 28303
L59878 28303
" />
<path d="M59484 28078
L59709 28247
" />
<path d="M59878 28078
L59653 28303
" />
<g transform="rotate(-90 62544.5 27600)">
<text x="62544.5" y="27796.9"
transform="scale(-1 1) translate(-125088.976378 0)"
textLength="1029.34" font-size="524.934" lengthAdjust="spacingAndGlyphs"
text-anchor="middle" opacity="0">RV1</text>
</g>
<path d="M62722 27365
L62535 27234
" />
<path d="M62722 27140
L62328 27140
L62328 27290
L62347 27328
L62366 27346
L62403 27365
L62460 27365
L62497 27346
L62516 27328
L62535 27290
L62535 27140
" />
<path d="M62328 27478
L62722 27609
L62328 27740
" />
<path d="M62722 28078
L62722 27853
" />
<path d="M62722 27965
L62328 27965
L62385 27928
L62422 27890
L62441 27853
" />
<g >
</g>
</g> 
</svg>
