<?xml version="1.0" standalone="no"?>
 <!DOCTYPE svg PUBLIC "-//W3C//DTD SVG 1.1//EN" 
 "http://www.w3.org/Graphics/SVG/1.1/DTD/svg11.dtd"> 
<svg
  xmlns:svg="http://www.w3.org/2000/svg"
  xmlns="http://www.w3.org/2000/svg"
  xmlns:xlink="http://www.w3.org/1999/xlink"
  version="1.1"
  width="29.700220cm" height="21.000720cm" viewBox="0 0 116930 82680">
<title>SVG Picture created as 8x8_Kick_Drum-F_Fab.svg date 2021/09/05 10:29:43 </title>
  <desc>Picture generated by PCBNEW </desc>
<g style="fill:#000000; fill-opacity:1;stroke:#000000; stroke-opacity:1;
stroke-linecap:round; stroke-linejoin:round;"
 transform="translate(0 0) scale(1 1)">
</g>
<g style="fill:#000000; fill-opacity:0.0; 
stroke:#000000; stroke-width:-0.000393701; stroke-opacity:1; 
stroke-linecap:round; stroke-linejoin:round;">
</g>
<g style="fill:#000000; fill-opacity:0.0; 
stroke:#000000; stroke-width:39.3701; stroke-opacity:1; 
stroke-linecap:round; stroke-linejoin:round;">
<path d="M53135 63209
L53764 63209
" />
<path d="M53764 63209
L53764 64469
" />
<path d="M53764 64469
L53135 64469
" />
<path d="M53135 64469
L53135 63209
" />
<path d="M56985 61909
L57614 61909
" />
<path d="M57614 61909
L57614 63169
" />
<path d="M57614 63169
L56985 63169
" />
<path d="M56985 63169
L56985 61909
" />
<path d="M50535 63230
L51164 63230
" />
<path d="M51164 63230
L51164 64490
" />
<path d="M51164 64490
L50535 64490
" />
<path d="M50535 64490
L50535 63230
" />
<path d="M55840 61335
L55840 61964
" />
<path d="M55840 61964
L54580 61964
" />
<path d="M54580 61964
L54580 61335
" />
<path d="M54580 61335
L55840 61335
" />
<path d="M51059 58064
L51059 57435
" />
<path d="M51059 57435
L52319 57435
" />
<path d="M52319 57435
L52319 58064
" />
<path d="M52319 58064
L51059 58064
" />
<path d="M56114 51490
L55485 51490
" />
<path d="M55485 51490
L55485 50230
" />
<path d="M55485 50230
L56114 50230
" />
<path d="M56114 50230
L56114 51490
" />
<path d="M54540 53735
L54540 54364
" />
<path d="M54540 54364
L53280 54364
" />
<path d="M53280 54364
L53280 53735
" />
<path d="M53280 53735
L54540 53735
" />
<path d="M53669 28835
L53669 29464
" />
<path d="M53669 29464
L52409 29464
" />
<path d="M52409 29464
L52409 28835
" />
<path d="M52409 28835
L53669 28835
" />
<path d="M58379 34835
L58379 35464
" />
<path d="M58379 35464
L57120 35464
" />
<path d="M57120 35464
L57120 34835
" />
<path d="M57120 34835
L58379 34835
" />
<path d="M61959 29114
L61959 28485
" />
<path d="M61959 28485
L63219 28485
" />
<path d="M63219 28485
L63219 29114
" />
<path d="M63219 29114
L61959 29114
" />
<path d="M56529 31035
L56529 31664
" />
<path d="M56529 31664
L55270 31664
" />
<path d="M55270 31664
L55270 31035
" />
<path d="M55270 31035
L56529 31035
" />
<path d="M58319 32985
L58319 33614
" />
<path d="M58319 33614
L57059 33614
" />
<path d="M57059 33614
L57059 32985
" />
<path d="M57059 32985
L58319 32985
" />
<path d="M61030 32314
L61030 31685
" />
<path d="M61030 31685
L62290 31685
" />
<path d="M62290 31685
L62290 32314
" />
<path d="M62290 32314
L61030 32314
" />
<path d="M51940 44435
L51940 45064
" />
<path d="M51940 45064
L50680 45064
" />
<path d="M50680 45064
L50680 44435
" />
<path d="M50680 44435
L51940 44435
" />
<path d="M61109 40714
L61109 40085
" />
<path d="M61109 40085
L62369 40085
" />
<path d="M62369 40085
L62369 40714
" />
<path d="M62369 40714
L61109 40714
" />
<path d="M62290 33585
L62290 34214
" />
<path d="M62290 34214
L61030 34214
" />
<path d="M61030 34214
L61030 33585
" />
<path d="M61030 33585
L62290 33585
" />
<path d="M62269 36785
L62269 37414
" />
<path d="M62269 37414
L61009 37414
" />
<path d="M61009 37414
L61009 36785
" />
<path d="M61009 36785
L62269 36785
" />
<path d="M50659 41614
L50659 40985
" />
<path d="M50659 40985
L51919 40985
" />
<path d="M51919 40985
L51919 41614
" />
<path d="M51919 41614
L50659 41614
" />
<path d="M61130 44014
L61130 43385
" />
<path d="M61130 43385
L62390 43385
" />
<path d="M62390 43385
L62390 44014
" />
<path d="M62390 44014
L61130 44014
" />
<path d="M62390 41735
L62390 42364
" />
<path d="M62390 42364
L61130 42364
" />
<path d="M61130 42364
L61130 41735
" />
<path d="M61130 41735
L62390 41735
" />
<path d="M50630 39864
L50630 39235
" />
<path d="M50630 39235
L51890 39235
" />
<path d="M51890 39235
L51890 39864
" />
<path d="M51890 39864
L50630 39864
" />
<path d="M61220 49064
L61220 48435
" />
<path d="M61220 48435
L62479 48435
" />
<path d="M62479 48435
L62479 49064
" />
<path d="M62479 49064
L61220 49064
" />
<path d="M61130 45714
L61130 45085
" />
<path d="M61130 45085
L62390 45085
" />
<path d="M62390 45085
L62390 45714
" />
<path d="M62390 45714
L61130 45714
" />
<path d="M55330 29814
L55330 29185
" />
<path d="M55330 29185
L56590 29185
" />
<path d="M56590 29185
L56590 29814
" />
<path d="M56590 29814
L55330 29814
" />
<path d="M58720 32314
L58720 31685
" />
<path d="M58720 31685
L59979 31685
" />
<path d="M59979 31685
L59979 32314
" />
<path d="M59979 32314
L58720 32314
" />
<path d="M58319 47135
L58319 47764
" />
<path d="M58319 47764
L57059 47764
" />
<path d="M57059 47764
L57059 47135
" />
<path d="M57059 47135
L58319 47135
" />
<path d="M63132 35385
L63132 36014
" />
<path d="M63132 36014
L61833 36014
" />
<path d="M61833 36014
L61833 35385
" />
<path d="M61833 35385
L63132 35385
" />
<path d="M62581 35700
L62777 35700
" />
<path d="M62581 35857
L62344 35700
" />
<path d="M62581 35542
L62581 35857
" />
<path d="M62344 35700
L62581 35542
" />
<path d="M62344 35700
L62344 35916
" />
<path d="M62344 35700
L62344 35483
" />
<path d="M62187 35700
L62344 35700
" />
<path d="M51467 46614
L51467 45985
" />
<path d="M51467 45985
L52766 45985
" />
<path d="M52766 45985
L52766 46614
" />
<path d="M52766 46614
L51467 46614
" />
<path d="M52018 46300
L51822 46300
" />
<path d="M52018 46142
L52255 46300
" />
<path d="M52018 46457
L52018 46142
" />
<path d="M52255 46300
L52018 46457
" />
<path d="M52255 46300
L52255 46083
" />
<path d="M52255 46300
L52255 46516
" />
<path d="M52412 46300
L52255 46300
" />
<path d="M60914 58799
L60285 58799
" />
<path d="M60285 58799
L60285 57500
" />
<path d="M60285 57500
L60914 57500
" />
<path d="M60914 57500
L60914 58799
" />
<path d="M60600 58248
L60600 58445
" />
<path d="M60442 58248
L60600 58012
" />
<path d="M60757 58248
L60442 58248
" />
<path d="M60600 58012
L60757 58248
" />
<path d="M60600 58012
L60383 58012
" />
<path d="M60600 58012
L60816 58012
" />
<path d="M60600 57854
L60600 58012
" />
<path d="M60285 52700
L60914 52700
" />
<path d="M60914 52700
L60914 53999
" />
<path d="M60914 53999
L60285 53999
" />
<path d="M60285 53999
L60285 52700
" />
<path d="M60600 53251
L60600 53054
" />
<path d="M60757 53251
L60600 53487
" />
<path d="M60442 53251
L60757 53251
" />
<path d="M60600 53487
L60442 53251
" />
<path d="M60600 53487
L60816 53487
" />
<path d="M60600 53487
L60383 53487
" />
<path d="M60600 53645
L60600 53487
" />
<path d="M63866 63485
L63866 64114
" />
<path d="M63866 64114
L62567 64114
" />
<path d="M62567 64114
L62567 63485
" />
<path d="M62567 63485
L63866 63485
" />
<path d="M63315 63800
L63512 63800
" />
<path d="M63315 63957
L63079 63800
" />
<path d="M63315 63642
L63315 63957
" />
<path d="M63079 63800
L63315 63642
" />
<path d="M63079 63800
L63079 64016
" />
<path d="M63079 63800
L63079 63583
" />
<path d="M62922 63800
L63079 63800
" />
<path d="M56297 66626
L56297 66429
" />
<path d="M56396 66528
L56199 66528
" />
<circle cx="55556.3" cy="66100" r="984.252" /> 
<path d="M58947 51376
L58947 51179
" />
<path d="M59046 51278
L58849 51278
" />
<circle cx="58206.3" cy="50850" r="984.252" /> 
<path d="M57247 26876
L57247 26679
" />
<path d="M57346 26778
L57149 26778
" />
<circle cx="56506.3" cy="26350" r="984.252" /> 
<path d="M57464 56905
L57216 56905
" />
<path d="M57340 56781
L57340 57029
" />
<circle cx="56800" cy="57842.1" r="1240.16" /> 
<path d="M57264 53405
L57016 53405
" />
<path d="M57140 53281
L57140 53529
" />
<circle cx="56600" cy="54342.1" r="1240.16" /> 
<path d="M51500 49193
L51893 48800
" />
<path d="M51500 52800
L51500 49193
" />
<path d="M54000 52800
L51500 52800
" />
<path d="M54000 48800
L54000 52800
" />
<path d="M51893 48800
L54000 48800
" />
<path d="M50805 60529
L52282 60529
" />
<path d="M51550 58923.6 A976.378 976.378 0.0 0 0 50804.8 60530.9" />
<path d="M52298.5 60527 A976.378 976.378 0.0 0 0 51550 58923.6" />
<path d="M63270 32405
L63270 33882
" />
<path d="M64876.4 33150 A976.378 976.378 0.0 0 0 63269.1 32404.8" />
<path d="M63273 33898.5 A976.378 976.378 0.0 0 0 64876.4 33150" />
<path d="M50905 37929
L52382 37929
" />
<path d="M51650 36323.6 A976.378 976.378 0.0 0 0 50904.8 37930.9" />
<path d="M52398.5 37927 A976.378 976.378 0.0 0 0 51650 36323.6" />
<path d="M64729 41944
L64729 40467
" />
<path d="M63123.6 41200 A976.378 976.378 0.0 0 0 64730.9 41945.2" />
<path d="M64727 40451.5 A976.378 976.378 0.0 0 0 63123.6 41200" />
<path d="M65029 47144
L65029 45667
" />
<path d="M63423.6 46400 A976.378 976.378 0.0 0 0 65030.9 47145.2" />
<path d="M65027 45651.5 A976.378 976.378 0.0 0 0 63423.6 46400" />
<path d="M50370 32105
L50370 33582
" />
<path d="M51976.4 32850 A976.378 976.378 0.0 0 0 50369.1 32104.8" />
<path d="M50373 33598.5 A976.378 976.378 0.0 0 0 51976.4 32850" />
<path d="M50804 53735
L52064 53735
" />
<path d="M50804 54364
L50804 53735
" />
<path d="M52064 54364
L50804 54364
" />
<path d="M52064 53735
L52064 54364
" />
<path d="M53255 47535
L54514 47535
" />
<path d="M53255 48164
L53255 47535
" />
<path d="M54514 48164
L53255 48164
" />
<path d="M54514 47535
L54514 48164
" />
<path d="M64429 54892
L64901 54892
" />
</g>
<g style="fill:#000000; fill-opacity:1.0; 
stroke:#000000; stroke-width:0; stroke-opacity:1; 
stroke-linecap:round; stroke-linejoin:round;">
<circle cx="64429.5" cy="54892.9" r="19.685" /> 
</g>
<g style="fill:#000000; fill-opacity:1.0; 
stroke:#000000; stroke-width:39.3701; stroke-opacity:1; 
stroke-linecap:round; stroke-linejoin:round;">
</g>
<g style="fill:#000000; fill-opacity:0.0; 
stroke:#000000; stroke-width:39.3701; stroke-opacity:1; 
stroke-linecap:round; stroke-linejoin:round;">
<path d="M64429 52160
L64429 54892
" />
<path d="M61870 52160
L64429 52160
" />
<path d="M61870 59239
L61870 52160
" />
<path d="M64429 59239
L61870 59239
" />
<path d="M64429 56507
L64429 59239
" />
<path d="M64901 56507
L64429 56507
" />
<path d="M64901 51692
L64901 59314
" />
<path d="M61398 51692
L64901 51692
" />
<path d="M61398 59707
L61398 51692
" />
<path d="M64508 59707
L61398 59707
" />
<path d="M64901 59314
L64508 59707
" />
<path d="M56276 63257
L54307 63257
" />
<path d="M56276 64242
L56276 63257
" />
<path d="M54307 64242
L56276 64242
" />
<path d="M54307 63257
L54307 64242
" />
<path d="M52204 25835
L53464 25835
" />
<path d="M52204 26464
L52204 25835
" />
<path d="M53464 26464
L52204 26464
" />
<path d="M53464 25835
L53464 26464
" />
<path d="M54744 35614
L54744 35366
" />
<path d="M54868 35490
L54620 35490
" />
<circle cx="53807.9" cy="34950" r="1240.16" /> 
<path d="M59792 30126
L59792 28157
" />
<path d="M58807 30126
L59792 30126
" />
<path d="M58807 28157
L58807 30126
" />
<path d="M59792 28157
L58807 28157
" />
<path d="M59842 27426
L59842 25457
" />
<path d="M58857 27426
L59842 27426
" />
<path d="M58857 25457
L58857 27426
" />
<path d="M59842 25457
L58857 25457
" />
<path d="M52326 42657
L50357 42657
" />
<path d="M52326 43642
L52326 42657
" />
<path d="M50357 43642
L52326 43642
" />
<path d="M50357 42657
L50357 43642
" />
<path d="M60773 39192
L62742 39192
" />
<path d="M60773 38207
L60773 39192
" />
<path d="M62742 38207
L60773 38207
" />
<path d="M62742 39192
L62742 38207
" />
<path d="M58864 59104
L58864 60364
" />
<path d="M58235 59104
L58864 59104
" />
<path d="M58235 60364
L58235 59104
" />
<path d="M58864 60364
L58235 60364
" />
<path d="M59164 55285
L59164 56544
" />
<path d="M58535 55285
L59164 55285
" />
<path d="M58535 56544
L58535 55285
" />
<path d="M59164 56544
L58535 56544
" />
<path d="M51879 35514
L50620 35514
" />
<path d="M51879 34885
L51879 35514
" />
<path d="M50620 34885
L51879 34885
" />
<path d="M50620 35514
L50620 34885
" />
<path d="M61135 46685
L62395 46685
" />
<path d="M61135 47314
L61135 46685
" />
<path d="M62395 47314
L61135 47314
" />
<path d="M62395 46685
L62395 47314
" />
<g >
</g>
<g >
</g>
<g >
</g>
<g >
</g>
<g >
</g>
<g >
</g>
<g >
</g>
<g >
</g>
<g >
</g>
<g >
</g>
<g >
</g>
<g >
</g>
<g >
</g>
<g >
</g>
<g >
</g>
<g >
</g>
<g >
</g>
<g >
</g>
<g >
</g>
<g >
</g>
<g >
</g>
<g >
</g>
<g >
</g>
<g >
</g>
<g >
</g>
<g >
</g>
<g >
</g>
<g >
</g>
<g >
</g>
<g >
</g>
<g >
</g>
<g >
</g>
<g >
</g>
<g >
</g>
<g >
</g>
<g >
</g>
<g >
</g>
<g >
</g>
<g >
</g>
<g >
</g>
<g >
</g>
<g >
</g>
<g >
</g>
<g >
</g>
<g >
</g>
<g >
</g>
<g >
</g>
<g >
</g>
<g >
</g>
<g >
</g>
<g >
</g>
<g >
</g>
<g >
</g>
<g >
</g>
<g >
</g>
<g >
</g>
<g >
</g>
<g >
</g>
<g >
</g>
<g >
</g>
<g >
</g>
<g >
</g>
<g >
</g>
<g >
</g>
<g >
</g>
</g>
<g style="fill:#000000; fill-opacity:0.0; 
stroke:#000000; stroke-width:39.3701; stroke-opacity:1; 
stroke-linecap:round; stroke-linejoin:round;">
</g>
<g style="fill:#000000; fill-opacity:0.0; 
stroke:#000000; stroke-width:47.2441; stroke-opacity:1; 
stroke-linecap:round; stroke-linejoin:round;">
<g transform="rotate(-90 53450 63839.8)">
<text x="53450" y="63997.2"
textLength="940.988" font-size="419.947" lengthAdjust="spacingAndGlyphs"
text-anchor="middle" opacity="0">R26</text>
</g>
<path d="M53592 64042
L53442 64147
" />
<path d="M53592 64222
L53277 64222
L53277 64102
L53292 64072
L53307 64057
L53337 64042
L53382 64042
L53412 64057
L53427 64072
L53442 64102
L53442 64222
" />
<path d="M53307 63922
L53292 63907
L53277 63877
L53277 63802
L53292 63772
L53307 63757
L53337 63742
L53367 63742
L53412 63757
L53592 63937
L53592 63742
" />
<path d="M53277 63472
L53277 63532
L53292 63562
L53307 63577
L53352 63607
L53412 63622
L53532 63622
L53562 63607
L53577 63592
L53592 63562
L53592 63502
L53577 63472
L53562 63457
L53532 63442
L53457 63442
L53427 63457
L53412 63472
L53397 63502
L53397 63562
L53412 63592
L53427 63607
L53457 63622
" />
<g transform="rotate(-90 57300 62539.8)">
<text x="57300" y="62697.2"
textLength="976.303" font-size="419.947" lengthAdjust="spacingAndGlyphs"
text-anchor="middle" opacity="0">R25</text>
</g>
<path d="M57442 62742
L57292 62847
" />
<path d="M57442 62922
L57127 62922
L57127 62802
L57142 62772
L57157 62757
L57187 62742
L57232 62742
L57262 62757
L57277 62772
L57292 62802
L57292 62922
" />
<path d="M57157 62622
L57142 62607
L57127 62577
L57127 62502
L57142 62472
L57157 62457
L57187 62442
L57217 62442
L57262 62457
L57442 62637
L57442 62442
" />
<path d="M57127 62157
L57127 62307
L57277 62322
L57262 62307
L57247 62277
L57247 62202
L57262 62172
L57277 62157
L57307 62142
L57382 62142
L57412 62157
L57427 62172
L57442 62202
L57442 62277
L57427 62307
L57412 62322
" />
<g transform="rotate(-90 50850 63860.2)">
<text x="50850" y="64017.7"
textLength="976.303" font-size="419.947" lengthAdjust="spacingAndGlyphs"
text-anchor="middle" opacity="0">R24</text>
</g>
<path d="M50992 64062
L50842 64167
" />
<path d="M50992 64242
L50677 64242
L50677 64122
L50692 64092
L50707 64077
L50737 64062
L50782 64062
L50812 64077
L50827 64092
L50842 64122
L50842 64242
" />
<path d="M50707 63942
L50692 63927
L50677 63897
L50677 63822
L50692 63792
L50707 63777
L50737 63762
L50767 63762
L50812 63777
L50992 63957
L50992 63762
" />
<path d="M50782 63492
L50992 63492
" />
<path d="M50662 63567
L50887 63642
L50887 63447
" />
<text x="55210.2" y="61807.5"
textLength="976.303" font-size="419.947" lengthAdjust="spacingAndGlyphs"
text-anchor="middle" opacity="0">R23</text>
<path d="M55007 61792
L54902 61642
" />
<path d="M54827 61792
L54827 61477
L54947 61477
L54977 61492
L54992 61507
L55007 61537
L55007 61582
L54992 61612
L54977 61627
L54947 61642
L54827 61642
" />
<path d="M55127 61507
L55142 61492
L55172 61477
L55247 61477
L55277 61492
L55292 61507
L55307 61537
L55307 61567
L55292 61612
L55112 61792
L55307 61792
" />
<path d="M55412 61477
L55607 61477
L55502 61597
L55547 61597
L55577 61612
L55592 61627
L55607 61657
L55607 61732
L55592 61762
L55577 61777
L55547 61792
L55457 61792
L55427 61777
L55412 61762
" />
<text x="51689.8" y="57907.5"
textLength="976.303" font-size="419.947" lengthAdjust="spacingAndGlyphs"
text-anchor="middle" opacity="0">R22</text>
<path d="M51487 57892
L51382 57742
" />
<path d="M51307 57892
L51307 57577
L51427 57577
L51457 57592
L51472 57607
L51487 57637
L51487 57682
L51472 57712
L51457 57727
L51427 57742
L51307 57742
" />
<path d="M51607 57607
L51622 57592
L51652 57577
L51727 57577
L51757 57592
L51772 57607
L51787 57637
L51787 57667
L51772 57712
L51592 57892
L51787 57892
" />
<path d="M51907 57607
L51922 57592
L51952 57577
L52027 57577
L52057 57592
L52072 57607
L52087 57637
L52087 57667
L52072 57712
L51892 57892
L52087 57892
" />
<g transform="rotate(-90 55800 50860.2)">
<text x="55800" y="51017.7"
textLength="976.303" font-size="419.947" lengthAdjust="spacingAndGlyphs"
text-anchor="middle" opacity="0">R21</text>
</g>
<path d="M55942 51062
L55792 51167
" />
<path d="M55942 51242
L55627 51242
L55627 51122
L55642 51092
L55657 51077
L55687 51062
L55732 51062
L55762 51077
L55777 51092
L55792 51122
L55792 51242
" />
<path d="M55657 50942
L55642 50927
L55627 50897
L55627 50822
L55642 50792
L55657 50777
L55687 50762
L55717 50762
L55762 50777
L55942 50957
L55942 50762
" />
<path d="M55942 50462
L55942 50642
" />
<path d="M55942 50552
L55627 50552
L55672 50582
L55702 50612
L55717 50642
" />
<text x="53910.2" y="54207.5"
textLength="976.303" font-size="419.947" lengthAdjust="spacingAndGlyphs"
text-anchor="middle" opacity="0">R20</text>
<path d="M53707 54192
L53602 54042
" />
<path d="M53527 54192
L53527 53877
L53647 53877
L53677 53892
L53692 53907
L53707 53937
L53707 53982
L53692 54012
L53677 54027
L53647 54042
L53527 54042
" />
<path d="M53827 53907
L53842 53892
L53872 53877
L53947 53877
L53977 53892
L53992 53907
L54007 53937
L54007 53967
L53992 54012
L53812 54192
L54007 54192
" />
<path d="M54202 53877
L54232 53877
L54262 53892
L54277 53907
L54292 53937
L54307 53997
L54307 54072
L54292 54132
L54277 54162
L54262 54177
L54232 54192
L54202 54192
L54172 54177
L54157 54162
L54142 54132
L54127 54072
L54127 53997
L54142 53937
L54157 53907
L54172 53892
L54202 53877
" />
<text x="53039.8" y="29307.5"
textLength="976.303" font-size="419.947" lengthAdjust="spacingAndGlyphs"
text-anchor="middle" opacity="0">R19</text>
<path d="M52837 29292
L52732 29142
" />
<path d="M52657 29292
L52657 28977
L52777 28977
L52807 28992
L52822 29007
L52837 29037
L52837 29082
L52822 29112
L52807 29127
L52777 29142
L52657 29142
" />
<path d="M53137 29292
L52957 29292
" />
<path d="M53047 29292
L53047 28977
L53017 29022
L52987 29052
L52957 29067
" />
<path d="M53287 29292
L53347 29292
L53377 29277
L53392 29262
L53422 29217
L53437 29157
L53437 29037
L53422 29007
L53407 28992
L53377 28977
L53317 28977
L53287 28992
L53272 29007
L53257 29037
L53257 29112
L53272 29142
L53287 29157
L53317 29172
L53377 29172
L53407 29157
L53422 29142
L53437 29112
" />
<text x="57750" y="35307.5"
textLength="976.303" font-size="419.947" lengthAdjust="spacingAndGlyphs"
text-anchor="middle" opacity="0">R18</text>
<path d="M57547 35292
L57442 35142
" />
<path d="M57367 35292
L57367 34977
L57487 34977
L57517 34992
L57532 35007
L57547 35037
L57547 35082
L57532 35112
L57517 35127
L57487 35142
L57367 35142
" />
<path d="M57847 35292
L57667 35292
" />
<path d="M57757 35292
L57757 34977
L57727 35022
L57697 35052
L57667 35067
" />
<path d="M58027 35112
L57997 35097
L57982 35082
L57967 35052
L57967 35037
L57982 35007
L57997 34992
L58027 34977
L58087 34977
L58117 34992
L58132 35007
L58147 35037
L58147 35052
L58132 35082
L58117 35097
L58087 35112
L58027 35112
L57997 35127
L57982 35142
L57967 35172
L57967 35232
L57982 35262
L57997 35277
L58027 35292
L58087 35292
L58117 35277
L58132 35262
L58147 35232
L58147 35172
L58132 35142
L58117 35127
L58087 35112
" />
<text x="62589.8" y="28957.5"
textLength="976.303" font-size="419.947" lengthAdjust="spacingAndGlyphs"
text-anchor="middle" opacity="0">R17</text>
<path d="M62387 28942
L62282 28792
" />
<path d="M62207 28942
L62207 28627
L62327 28627
L62357 28642
L62372 28657
L62387 28687
L62387 28732
L62372 28762
L62357 28777
L62327 28792
L62207 28792
" />
<path d="M62687 28942
L62507 28942
" />
<path d="M62597 28942
L62597 28627
L62567 28672
L62537 28702
L62507 28717
" />
<path d="M62792 28627
L63002 28627
L62867 28942
" />
<text x="55900" y="31507.5"
textLength="976.303" font-size="419.947" lengthAdjust="spacingAndGlyphs"
text-anchor="middle" opacity="0">R16</text>
<path d="M55697 31492
L55592 31342
" />
<path d="M55517 31492
L55517 31177
L55637 31177
L55667 31192
L55682 31207
L55697 31237
L55697 31282
L55682 31312
L55667 31327
L55637 31342
L55517 31342
" />
<path d="M55997 31492
L55817 31492
" />
<path d="M55907 31492
L55907 31177
L55877 31222
L55847 31252
L55817 31267
" />
<path d="M56267 31177
L56207 31177
L56177 31192
L56162 31207
L56132 31252
L56117 31312
L56117 31432
L56132 31462
L56147 31477
L56177 31492
L56237 31492
L56267 31477
L56282 31462
L56297 31432
L56297 31357
L56282 31327
L56267 31312
L56237 31297
L56177 31297
L56147 31312
L56132 31327
L56117 31357
" />
<text x="57689.8" y="33457.5"
textLength="976.303" font-size="419.947" lengthAdjust="spacingAndGlyphs"
text-anchor="middle" opacity="0">R15</text>
<path d="M57487 33442
L57382 33292
" />
<path d="M57307 33442
L57307 33127
L57427 33127
L57457 33142
L57472 33157
L57487 33187
L57487 33232
L57472 33262
L57457 33277
L57427 33292
L57307 33292
" />
<path d="M57787 33442
L57607 33442
" />
<path d="M57697 33442
L57697 33127
L57667 33172
L57637 33202
L57607 33217
" />
<path d="M58072 33127
L57922 33127
L57907 33277
L57922 33262
L57952 33247
L58027 33247
L58057 33262
L58072 33277
L58087 33307
L58087 33382
L58072 33412
L58057 33427
L58027 33442
L57952 33442
L57922 33427
L57907 33412
" />
<text x="61660.2" y="32157.5"
textLength="976.303" font-size="419.947" lengthAdjust="spacingAndGlyphs"
text-anchor="middle" opacity="0">R14</text>
<path d="M61457 32142
L61352 31992
" />
<path d="M61277 32142
L61277 31827
L61397 31827
L61427 31842
L61442 31857
L61457 31887
L61457 31932
L61442 31962
L61427 31977
L61397 31992
L61277 31992
" />
<path d="M61757 32142
L61577 32142
" />
<path d="M61667 32142
L61667 31827
L61637 31872
L61607 31902
L61577 31917
" />
<path d="M62027 31932
L62027 32142
" />
<path d="M61952 31812
L61877 32037
L62072 32037
" />
<text x="51310.2" y="44907.5"
textLength="976.303" font-size="419.947" lengthAdjust="spacingAndGlyphs"
text-anchor="middle" opacity="0">R13</text>
<path d="M51107 44892
L51002 44742
" />
<path d="M50927 44892
L50927 44577
L51047 44577
L51077 44592
L51092 44607
L51107 44637
L51107 44682
L51092 44712
L51077 44727
L51047 44742
L50927 44742
" />
<path d="M51407 44892
L51227 44892
" />
<path d="M51317 44892
L51317 44577
L51287 44622
L51257 44652
L51227 44667
" />
<path d="M51512 44577
L51707 44577
L51602 44697
L51647 44697
L51677 44712
L51692 44727
L51707 44757
L51707 44832
L51692 44862
L51677 44877
L51647 44892
L51557 44892
L51527 44877
L51512 44862
" />
<text x="61739.8" y="40557.5"
textLength="976.303" font-size="419.947" lengthAdjust="spacingAndGlyphs"
text-anchor="middle" opacity="0">R12</text>
<path d="M61537 40542
L61432 40392
" />
<path d="M61357 40542
L61357 40227
L61477 40227
L61507 40242
L61522 40257
L61537 40287
L61537 40332
L61522 40362
L61507 40377
L61477 40392
L61357 40392
" />
<path d="M61837 40542
L61657 40542
" />
<path d="M61747 40542
L61747 40227
L61717 40272
L61687 40302
L61657 40317
" />
<path d="M61957 40257
L61972 40242
L62002 40227
L62077 40227
L62107 40242
L62122 40257
L62137 40287
L62137 40317
L62122 40362
L61942 40542
L62137 40542
" />
<text x="61660.2" y="34057.5"
textLength="976.303" font-size="419.947" lengthAdjust="spacingAndGlyphs"
text-anchor="middle" opacity="0">R11</text>
<path d="M61457 34042
L61352 33892
" />
<path d="M61277 34042
L61277 33727
L61397 33727
L61427 33742
L61442 33757
L61457 33787
L61457 33832
L61442 33862
L61427 33877
L61397 33892
L61277 33892
" />
<path d="M61757 34042
L61577 34042
" />
<path d="M61667 34042
L61667 33727
L61637 33772
L61607 33802
L61577 33817
" />
<path d="M62057 34042
L61877 34042
" />
<path d="M61967 34042
L61967 33727
L61937 33772
L61907 33802
L61877 33817
" />
<text x="61639.8" y="37257.5"
textLength="976.303" font-size="419.947" lengthAdjust="spacingAndGlyphs"
text-anchor="middle" opacity="0">R10</text>
<path d="M61437 37242
L61332 37092
" />
<path d="M61257 37242
L61257 36927
L61377 36927
L61407 36942
L61422 36957
L61437 36987
L61437 37032
L61422 37062
L61407 37077
L61377 37092
L61257 37092
" />
<path d="M61737 37242
L61557 37242
" />
<path d="M61647 37242
L61647 36927
L61617 36972
L61587 37002
L61557 37017
" />
<path d="M61932 36927
L61962 36927
L61992 36942
L62007 36957
L62022 36987
L62037 37047
L62037 37122
L62022 37182
L62007 37212
L61992 37227
L61962 37242
L61932 37242
L61902 37227
L61887 37212
L61872 37182
L61857 37122
L61857 37047
L61872 36987
L61887 36957
L61902 36942
L61932 36927
" />
<text x="51289.8" y="41457.5"
textLength="676.341" font-size="419.947" lengthAdjust="spacingAndGlyphs"
text-anchor="middle" opacity="0">R9</text>
<path d="M51237 41442
L51132 41292
" />
<path d="M51057 41442
L51057 41127
L51177 41127
L51207 41142
L51222 41157
L51237 41187
L51237 41232
L51222 41262
L51207 41277
L51177 41292
L51057 41292
" />
<path d="M51387 41442
L51447 41442
L51477 41427
L51492 41412
L51522 41367
L51537 41307
L51537 41187
L51522 41157
L51507 41142
L51477 41127
L51417 41127
L51387 41142
L51372 41157
L51357 41187
L51357 41262
L51372 41292
L51387 41307
L51417 41322
L51477 41322
L51507 41307
L51522 41292
L51537 41262
" />
<text x="61760.2" y="43857.5"
textLength="676.341" font-size="419.947" lengthAdjust="spacingAndGlyphs"
text-anchor="middle" opacity="0">R8</text>
<path d="M61707 43842
L61602 43692
" />
<path d="M61527 43842
L61527 43527
L61647 43527
L61677 43542
L61692 43557
L61707 43587
L61707 43632
L61692 43662
L61677 43677
L61647 43692
L61527 43692
" />
<path d="M61887 43662
L61857 43647
L61842 43632
L61827 43602
L61827 43587
L61842 43557
L61857 43542
L61887 43527
L61947 43527
L61977 43542
L61992 43557
L62007 43587
L62007 43602
L61992 43632
L61977 43647
L61947 43662
L61887 43662
L61857 43677
L61842 43692
L61827 43722
L61827 43782
L61842 43812
L61857 43827
L61887 43842
L61947 43842
L61977 43827
L61992 43812
L62007 43782
L62007 43722
L61992 43692
L61977 43677
L61947 43662
" />
<text x="61760.2" y="42207.5"
textLength="676.341" font-size="419.947" lengthAdjust="spacingAndGlyphs"
text-anchor="middle" opacity="0">R7</text>
<path d="M61707 42192
L61602 42042
" />
<path d="M61527 42192
L61527 41877
L61647 41877
L61677 41892
L61692 41907
L61707 41937
L61707 41982
L61692 42012
L61677 42027
L61647 42042
L61527 42042
" />
<path d="M61812 41877
L62022 41877
L61887 42192
" />
<text x="51260.2" y="39707.5"
textLength="676.341" font-size="419.947" lengthAdjust="spacingAndGlyphs"
text-anchor="middle" opacity="0">R6</text>
<path d="M51207 39692
L51102 39542
" />
<path d="M51027 39692
L51027 39377
L51147 39377
L51177 39392
L51192 39407
L51207 39437
L51207 39482
L51192 39512
L51177 39527
L51147 39542
L51027 39542
" />
<path d="M51477 39377
L51417 39377
L51387 39392
L51372 39407
L51342 39452
L51327 39512
L51327 39632
L51342 39662
L51357 39677
L51387 39692
L51447 39692
L51477 39677
L51492 39662
L51507 39632
L51507 39557
L51492 39527
L51477 39512
L51447 39497
L51387 39497
L51357 39512
L51342 39527
L51327 39557
" />
<text x="61850" y="48907.5"
textLength="676.341" font-size="419.947" lengthAdjust="spacingAndGlyphs"
text-anchor="middle" opacity="0">R5</text>
<path d="M61797 48892
L61692 48742
" />
<path d="M61617 48892
L61617 48577
L61737 48577
L61767 48592
L61782 48607
L61797 48637
L61797 48682
L61782 48712
L61767 48727
L61737 48742
L61617 48742
" />
<path d="M62082 48577
L61932 48577
L61917 48727
L61932 48712
L61962 48697
L62037 48697
L62067 48712
L62082 48727
L62097 48757
L62097 48832
L62082 48862
L62067 48877
L62037 48892
L61962 48892
L61932 48877
L61917 48862
" />
<text x="61760.2" y="45557.5"
textLength="676.341" font-size="419.947" lengthAdjust="spacingAndGlyphs"
text-anchor="middle" opacity="0">R4</text>
<path d="M61707 45542
L61602 45392
" />
<path d="M61527 45542
L61527 45227
L61647 45227
L61677 45242
L61692 45257
L61707 45287
L61707 45332
L61692 45362
L61677 45377
L61647 45392
L61527 45392
" />
<path d="M61977 45332
L61977 45542
" />
<path d="M61902 45212
L61827 45437
L62022 45437
" />
<text x="55960.2" y="29657.5"
textLength="676.341" font-size="419.947" lengthAdjust="spacingAndGlyphs"
text-anchor="middle" opacity="0">R3</text>
<path d="M55907 29642
L55802 29492
" />
<path d="M55727 29642
L55727 29327
L55847 29327
L55877 29342
L55892 29357
L55907 29387
L55907 29432
L55892 29462
L55877 29477
L55847 29492
L55727 29492
" />
<path d="M56012 29327
L56207 29327
L56102 29447
L56147 29447
L56177 29462
L56192 29477
L56207 29507
L56207 29582
L56192 29612
L56177 29627
L56147 29642
L56057 29642
L56027 29627
L56012 29612
" />
<text x="59350" y="32157.5"
textLength="676.341" font-size="419.947" lengthAdjust="spacingAndGlyphs"
text-anchor="middle" opacity="0">R2</text>
<path d="M59297 32142
L59192 31992
" />
<path d="M59117 32142
L59117 31827
L59237 31827
L59267 31842
L59282 31857
L59297 31887
L59297 31932
L59282 31962
L59267 31977
L59237 31992
L59117 31992
" />
<path d="M59417 31857
L59432 31842
L59462 31827
L59537 31827
L59567 31842
L59582 31857
L59597 31887
L59597 31917
L59582 31962
L59402 32142
L59597 32142
" />
<text x="57689.8" y="47607.5"
textLength="676.341" font-size="419.947" lengthAdjust="spacingAndGlyphs"
text-anchor="middle" opacity="0">R1</text>
<path d="M57637 47592
L57532 47442
" />
<path d="M57457 47592
L57457 47277
L57577 47277
L57607 47292
L57622 47307
L57637 47337
L57637 47382
L57622 47412
L57607 47427
L57577 47442
L57457 47442
" />
<path d="M57937 47592
L57757 47592
" />
<path d="M57847 47592
L57847 47277
L57817 47322
L57787 47352
L57757 47367
" />
</g>
<g style="fill:#000000; fill-opacity:0.0; 
stroke:#000000; stroke-width:59.0551; stroke-opacity:1; 
stroke-linecap:round; stroke-linejoin:round;">
<text x="63800" y="35896.9"
textLength="830.071" font-size="524.934" lengthAdjust="spacingAndGlyphs"
text-anchor="middle" opacity="0">D5</text>
<path d="M63509 35878
L63509 35484
L63603 35484
L63659 35503
L63696 35540
L63715 35578
L63734 35653
L63734 35709
L63715 35784
L63696 35821
L63659 35859
L63603 35878
L63509 35878
" />
<path d="M64090 35484
L63903 35484
L63884 35671
L63903 35653
L63940 35634
L64034 35634
L64071 35653
L64090 35671
L64109 35709
L64109 35803
L64090 35840
L64071 35859
L64034 35878
L63940 35878
L63903 35859
L63884 35840
" />
<text x="51034.6" y="46496.9"
textLength="845.426" font-size="524.934" lengthAdjust="spacingAndGlyphs"
text-anchor="middle" opacity="0">D4</text>
<path d="M50744 46478
L50744 46084
L50837 46084
L50894 46103
L50931 46140
L50950 46178
L50969 46253
L50969 46309
L50950 46384
L50931 46421
L50894 46459
L50837 46478
L50744 46478
" />
<path d="M51306 46215
L51306 46478
" />
<path d="M51212 46065
L51119 46346
L51362 46346
" />
<g transform="rotate(-90 61289 58150)">
<text x="61289" y="58346.9"
textLength="845.426" font-size="524.934" lengthAdjust="spacingAndGlyphs"
text-anchor="middle" opacity="0">D3</text>
</g>
<path d="M61467 58440
L61073 58440
L61073 58346
L61092 58290
L61129 58253
L61167 58234
L61242 58215
L61298 58215
L61373 58234
L61410 58253
L61448 58290
L61467 58346
L61467 58440
" />
<path d="M61073 58084
L61073 57840
L61223 57971
L61223 57915
L61242 57878
L61260 57859
L61298 57840
L61392 57840
L61429 57859
L61448 57878
L61467 57915
L61467 58028
L61448 58065
L61429 58084
" />
<g transform="rotate(-90 60650 51950)">
<text x="60650" y="52146.9"
textLength="845.426" font-size="524.934" lengthAdjust="spacingAndGlyphs"
text-anchor="middle" opacity="0">D2</text>
</g>
<path d="M60828 52240
L60434 52240
L60434 52146
L60453 52090
L60490 52053
L60528 52034
L60603 52015
L60659 52015
L60734 52034
L60771 52053
L60809 52090
L60828 52146
L60828 52240
" />
<path d="M60471 51865
L60453 51846
L60434 51809
L60434 51715
L60453 51678
L60471 51659
L60509 51640
L60546 51640
L60603 51659
L60828 51884
L60828 51640
" />
<text x="63217.3" y="63307.9"
textLength="845.426" font-size="524.934" lengthAdjust="spacingAndGlyphs"
text-anchor="middle" opacity="0">D1</text>
<path d="M62926 63289
L62926 62895
L63020 62895
L63076 62914
L63114 62951
L63132 62989
L63151 63064
L63151 63120
L63132 63195
L63114 63232
L63076 63270
L63020 63289
L62926 63289
" />
<path d="M63526 63289
L63301 63289
" />
<path d="M63414 63289
L63414 62895
L63376 62951
L63339 62989
L63301 63007
" />
<text x="55556.3" y="66296.9"
textLength="1220.38" font-size="524.934" lengthAdjust="spacingAndGlyphs"
text-anchor="middle" opacity="0">C17</text>
<path d="M55303 66240
L55284 66259
L55228 66278
L55190 66278
L55134 66259
L55096 66221
L55078 66184
L55059 66109
L55059 66053
L55078 65978
L55096 65940
L55134 65903
L55190 65884
L55228 65884
L55284 65903
L55303 65921
" />
<path d="M55678 66278
L55453 66278
" />
<path d="M55565 66278
L55565 65884
L55528 65940
L55490 65978
L55453 65996
" />
<path d="M55809 65884
L56071 65884
L55903 66278
" />
<text x="58206.3" y="51046.9"
textLength="1220.38" font-size="524.934" lengthAdjust="spacingAndGlyphs"
text-anchor="middle" opacity="0">C13</text>
<path d="M57953 50990
L57934 51009
L57878 51028
L57840 51028
L57784 51009
L57746 50971
L57728 50934
L57709 50859
L57709 50803
L57728 50728
L57746 50690
L57784 50653
L57840 50634
L57878 50634
L57934 50653
L57953 50671
" />
<path d="M58328 51028
L58103 51028
" />
<path d="M58215 51028
L58215 50634
L58178 50690
L58140 50728
L58103 50746
" />
<path d="M58459 50634
L58703 50634
L58571 50784
L58628 50784
L58665 50803
L58684 50821
L58703 50859
L58703 50953
L58684 50990
L58665 51009
L58628 51028
L58515 51028
L58478 51009
L58459 50990
" />
<text x="56506.3" y="26546.9"
textLength="1220.38" font-size="524.934" lengthAdjust="spacingAndGlyphs"
text-anchor="middle" opacity="0">C12</text>
<path d="M56253 26490
L56234 26509
L56178 26528
L56140 26528
L56084 26509
L56046 26471
L56028 26434
L56009 26359
L56009 26303
L56028 26228
L56046 26190
L56084 26153
L56140 26134
L56178 26134
L56234 26153
L56253 26171
" />
<path d="M56628 26528
L56403 26528
" />
<path d="M56515 26528
L56515 26134
L56478 26190
L56440 26228
L56403 26246
" />
<path d="M56778 26171
L56796 26153
L56834 26134
L56928 26134
L56965 26153
L56984 26171
L57003 26209
L57003 26246
L56984 26303
L56759 26528
L57003 26528
" />
<g transform="rotate(-90 56800 57842.1)">
<text x="56800" y="58039"
textLength="845.426" font-size="524.934" lengthAdjust="spacingAndGlyphs"
text-anchor="middle" opacity="0">C3</text>
</g>
<path d="M56940 57907
L56959 57926
L56978 57982
L56978 58020
L56959 58076
L56921 58113
L56884 58132
L56809 58151
L56753 58151
L56678 58132
L56640 58113
L56603 58076
L56584 58020
L56584 57982
L56603 57926
L56621 57907
" />
<path d="M56584 57776
L56584 57532
L56734 57664
L56734 57607
L56753 57570
L56771 57551
L56809 57532
L56903 57532
L56940 57551
L56959 57570
L56978 57607
L56978 57720
L56959 57757
L56940 57776
" />
<g transform="rotate(-90 56600 54342.1)">
<text x="56600" y="54539"
textLength="845.426" font-size="524.934" lengthAdjust="spacingAndGlyphs"
text-anchor="middle" opacity="0">C2</text>
</g>
<path d="M56740 54407
L56759 54426
L56778 54482
L56778 54520
L56759 54576
L56721 54613
L56684 54632
L56609 54651
L56553 54651
L56478 54632
L56440 54613
L56403 54576
L56384 54520
L56384 54482
L56403 54426
L56421 54407
" />
<path d="M56421 54257
L56403 54239
L56384 54201
L56384 54107
L56403 54070
L56421 54051
L56459 54032
L56496 54032
L56553 54051
L56778 54276
L56778 54032
" />
<text x="52750" y="50996.9"
textLength="864.173" font-size="524.934" lengthAdjust="spacingAndGlyphs"
text-anchor="middle" opacity="0">U1</text>
<path d="M52450 50584
L52450 50903
L52468 50940
L52487 50959
L52525 50978
L52600 50978
L52637 50959
L52656 50940
L52675 50903
L52675 50584
" />
<path d="M53068 50978
L52843 50978
" />
<path d="M52956 50978
L52956 50584
L52918 50640
L52881 50678
L52843 50696
" />
<text x="51550" y="60096.9"
textLength="864.173" font-size="524.934" lengthAdjust="spacingAndGlyphs"
text-anchor="middle" opacity="0">Q6</text>
<path d="M51512 60115
L51475 60096
L51437 60059
L51381 60003
L51343 59984
L51306 59984
" />
<path d="M51325 60078
L51287 60059
L51250 60021
L51231 59946
L51231 59815
L51250 59740
L51287 59703
L51325 59684
L51400 59684
L51437 59703
L51475 59740
L51493 59815
L51493 59946
L51475 60021
L51437 60059
L51400 60078
L51325 60078
" />
<path d="M51831 59684
L51756 59684
L51718 59703
L51699 59721
L51662 59778
L51643 59853
L51643 60003
L51662 60040
L51681 60059
L51718 60078
L51793 60078
L51831 60059
L51849 60040
L51868 60003
L51868 59909
L51849 59871
L51831 59853
L51793 59834
L51718 59834
L51681 59853
L51662 59871
L51643 59909
" />
<g transform="rotate(-90 63900 33150)">
<text x="63900" y="33346.9"
textLength="864.173" font-size="524.934" lengthAdjust="spacingAndGlyphs"
text-anchor="middle" opacity="0">Q5</text>
</g>
<path d="M64115 33187
L64096 33224
L64059 33262
L64003 33318
L63984 33356
L63984 33393
" />
<path d="M64078 33374
L64059 33412
L64021 33449
L63946 33468
L63815 33468
L63740 33449
L63703 33412
L63684 33374
L63684 33299
L63703 33262
L63740 33224
L63815 33206
L63946 33206
L64021 33224
L64059 33262
L64078 33299
L64078 33374
" />
<path d="M63684 32850
L63684 33037
L63871 33056
L63853 33037
L63834 33000
L63834 32906
L63853 32868
L63871 32850
L63909 32831
L64003 32831
L64040 32850
L64059 32868
L64078 32906
L64078 33000
L64059 33037
L64040 33056
" />
<text x="51650" y="37496.9"
textLength="864.173" font-size="524.934" lengthAdjust="spacingAndGlyphs"
text-anchor="middle" opacity="0">Q4</text>
<path d="M51612 37515
L51575 37496
L51537 37459
L51481 37403
L51443 37384
L51406 37384
" />
<path d="M51425 37478
L51387 37459
L51350 37421
L51331 37346
L51331 37215
L51350 37140
L51387 37103
L51425 37084
L51500 37084
L51537 37103
L51575 37140
L51593 37215
L51593 37346
L51575 37421
L51537 37459
L51500 37478
L51425 37478
" />
<path d="M51931 37215
L51931 37478
" />
<path d="M51837 37065
L51743 37346
L51987 37346
" />
<g transform="rotate(-90 64100 41200)">
<text x="64100" y="41396.9"
textLength="864.173" font-size="524.934" lengthAdjust="spacingAndGlyphs"
text-anchor="middle" opacity="0">Q3</text>
</g>
<path d="M64315 41237
L64296 41274
L64259 41312
L64203 41368
L64184 41406
L64184 41443
" />
<path d="M64278 41424
L64259 41462
L64221 41499
L64146 41518
L64015 41518
L63940 41499
L63903 41462
L63884 41424
L63884 41349
L63903 41312
L63940 41274
L64015 41256
L64146 41256
L64221 41274
L64259 41312
L64278 41349
L64278 41424
" />
<path d="M63884 41125
L63884 40881
L64034 41012
L64034 40956
L64053 40918
L64071 40900
L64109 40881
L64203 40881
L64240 40900
L64259 40918
L64278 40956
L64278 41068
L64259 41106
L64240 41125
" />
<g transform="rotate(-90 64400 46400)">
<text x="64400" y="46596.9"
textLength="864.173" font-size="524.934" lengthAdjust="spacingAndGlyphs"
text-anchor="middle" opacity="0">Q2</text>
</g>
<path d="M64615 46437
L64596 46474
L64559 46512
L64503 46568
L64484 46606
L64484 46643
" />
<path d="M64578 46624
L64559 46662
L64521 46699
L64446 46718
L64315 46718
L64240 46699
L64203 46662
L64184 46624
L64184 46549
L64203 46512
L64240 46474
L64315 46456
L64446 46456
L64521 46474
L64559 46512
L64578 46549
L64578 46624
" />
<path d="M64221 46306
L64203 46287
L64184 46250
L64184 46156
L64203 46118
L64221 46100
L64259 46081
L64296 46081
L64353 46100
L64578 46325
L64578 46081
" />
<g transform="rotate(-90 51000 32850)">
<text x="51000" y="33046.9"
textLength="864.173" font-size="524.934" lengthAdjust="spacingAndGlyphs"
text-anchor="middle" opacity="0">Q1</text>
</g>
<path d="M51215 32887
L51196 32924
L51159 32962
L51103 33018
L51084 33056
L51084 33093
" />
<path d="M51178 33074
L51159 33112
L51121 33149
L51046 33168
L50915 33168
L50840 33149
L50803 33112
L50784 33074
L50784 32999
L50803 32962
L50840 32924
L50915 32906
L51046 32906
L51121 32924
L51159 32962
L51178 32999
L51178 33074
" />
<path d="M51178 32531
L51178 32756
" />
<path d="M51178 32643
L50784 32643
L50840 32681
L50878 32718
L50896 32756
" />
</g>
<g style="fill:#000000; fill-opacity:0.0; 
stroke:#000000; stroke-width:47.2441; stroke-opacity:1; 
stroke-linecap:round; stroke-linejoin:round;">
<text x="51434.6" y="54207.5"
textLength="991.657" font-size="419.947" lengthAdjust="spacingAndGlyphs"
text-anchor="middle" opacity="0">C16</text>
<path d="M51232 54162
L51217 54177
L51172 54192
L51142 54192
L51097 54177
L51067 54147
L51052 54117
L51037 54057
L51037 54012
L51052 53952
L51067 53922
L51097 53892
L51142 53877
L51172 53877
L51217 53892
L51232 53907
" />
<path d="M51532 54192
L51352 54192
" />
<path d="M51442 54192
L51442 53877
L51412 53922
L51382 53952
L51352 53967
" />
<path d="M51802 53877
L51742 53877
L51712 53892
L51697 53907
L51667 53952
L51652 54012
L51652 54132
L51667 54162
L51682 54177
L51712 54192
L51772 54192
L51802 54177
L51817 54162
L51832 54132
L51832 54057
L51817 54027
L51802 54012
L51772 53997
L51712 53997
L51682 54012
L51667 54027
L51652 54057
" />
<text x="53885" y="48007.5"
textLength="976.303" font-size="419.947" lengthAdjust="spacingAndGlyphs"
text-anchor="middle" opacity="0">C15</text>
<path d="M53682 47962
L53667 47977
L53622 47992
L53592 47992
L53547 47977
L53517 47947
L53502 47917
L53487 47857
L53487 47812
L53502 47752
L53517 47722
L53547 47692
L53592 47677
L53622 47677
L53667 47692
L53682 47707
" />
<path d="M53982 47992
L53802 47992
" />
<path d="M53892 47992
L53892 47677
L53862 47722
L53832 47752
L53802 47767
" />
<path d="M54267 47677
L54117 47677
L54102 47827
L54117 47812
L54147 47797
L54222 47797
L54252 47812
L54267 47827
L54282 47857
L54282 47932
L54267 47962
L54252 47977
L54222 47992
L54147 47992
L54117 47977
L54102 47962
" />
</g>
<g style="fill:#000000; fill-opacity:0.0; 
stroke:#000000; stroke-width:59.0551; stroke-opacity:1; 
stroke-linecap:round; stroke-linejoin:round;">
<g transform="rotate(-90 63150 55700)">
<text x="63150" y="55896.9"
textLength="736.333" font-size="524.934" lengthAdjust="spacingAndGlyphs"
text-anchor="middle" opacity="0">J1</text>
</g>
<path d="M62934 55831
L63215 55831
L63271 55849
L63309 55887
L63328 55943
L63328 55981
" />
<path d="M63328 55437
L63328 55662
" />
<path d="M63328 55550
L62934 55550
L62990 55587
L63028 55625
L63046 55662
" />
<text x="55292.1" y="63946.9"
textLength="1220.38" font-size="524.934" lengthAdjust="spacingAndGlyphs"
text-anchor="middle" opacity="0">C18</text>
<path d="M55039 63890
L55020 63909
L54964 63928
L54926 63928
L54870 63909
L54832 63871
L54814 63834
L54795 63759
L54795 63703
L54814 63628
L54832 63590
L54870 63553
L54926 63534
L54964 63534
L55020 63553
L55039 63571
" />
<path d="M55413 63928
L55189 63928
" />
<path d="M55301 63928
L55301 63534
L55264 63590
L55226 63628
L55189 63646
" />
<path d="M55638 63703
L55601 63684
L55582 63665
L55563 63628
L55563 63609
L55582 63571
L55601 63553
L55638 63534
L55713 63534
L55751 63553
L55770 63571
L55788 63609
L55788 63628
L55770 63665
L55751 63684
L55713 63703
L55638 63703
L55601 63721
L55582 63740
L55563 63778
L55563 63853
L55582 63890
L55601 63909
L55638 63928
L55713 63928
L55751 63909
L55770 63890
L55788 63853
L55788 63778
L55770 63740
L55751 63721
L55713 63703
" />
</g>
<g style="fill:#000000; fill-opacity:0.0; 
stroke:#000000; stroke-width:47.2441; stroke-opacity:1; 
stroke-linecap:round; stroke-linejoin:round;">
<text x="52834.6" y="26307.5"
textLength="991.657" font-size="419.947" lengthAdjust="spacingAndGlyphs"
text-anchor="middle" opacity="0">C11</text>
<path d="M52632 26262
L52617 26277
L52572 26292
L52542 26292
L52497 26277
L52467 26247
L52452 26217
L52437 26157
L52437 26112
L52452 26052
L52467 26022
L52497 25992
L52542 25977
L52572 25977
L52617 25992
L52632 26007
" />
<path d="M52932 26292
L52752 26292
" />
<path d="M52842 26292
L52842 25977
L52812 26022
L52782 26052
L52752 26067
" />
<path d="M53232 26292
L53052 26292
" />
<path d="M53142 26292
L53142 25977
L53112 26022
L53082 26052
L53052 26067
" />
</g>
<g style="fill:#000000; fill-opacity:0.0; 
stroke:#000000; stroke-width:59.0551; stroke-opacity:1; 
stroke-linecap:round; stroke-linejoin:round;">
<text x="53807.9" y="35146.9"
textLength="1205.02" font-size="524.934" lengthAdjust="spacingAndGlyphs"
text-anchor="middle" opacity="0">C14</text>
<path d="M53554 35090
L53536 35109
L53479 35128
L53442 35128
L53386 35109
L53348 35071
L53329 35034
L53311 34959
L53311 34903
L53329 34828
L53348 34790
L53386 34753
L53442 34734
L53479 34734
L53536 34753
L53554 34771
" />
<path d="M53929 35128
L53704 35128
" />
<path d="M53817 35128
L53817 34734
L53779 34790
L53742 34828
L53704 34846
" />
<path d="M54267 34865
L54267 35128
" />
<path d="M54173 34715
L54079 34996
L54323 34996
" />
<g transform="rotate(-90 59300 29142.1)">
<text x="59300" y="29339"
textLength="1220.38" font-size="524.934" lengthAdjust="spacingAndGlyphs"
text-anchor="middle" opacity="0">C10</text>
</g>
<path d="M59440 29395
L59459 29413
L59478 29470
L59478 29507
L59459 29563
L59421 29601
L59384 29620
L59309 29638
L59253 29638
L59178 29620
L59140 29601
L59103 29563
L59084 29507
L59084 29470
L59103 29413
L59121 29395
" />
<path d="M59478 29020
L59478 29245
" />
<path d="M59478 29132
L59084 29132
L59140 29170
L59178 29207
L59196 29245
" />
<path d="M59084 28776
L59084 28739
L59103 28701
L59121 28682
L59159 28664
L59234 28645
L59328 28645
L59403 28664
L59440 28682
L59459 28701
L59478 28739
L59478 28776
L59459 28814
L59440 28832
L59403 28851
L59328 28870
L59234 28870
L59159 28851
L59121 28832
L59103 28814
L59084 28776
" />
<g transform="rotate(-90 59350 26442.1)">
<text x="59350" y="26639"
textLength="845.426" font-size="524.934" lengthAdjust="spacingAndGlyphs"
text-anchor="middle" opacity="0">C9</text>
</g>
<path d="M59490 26507
L59509 26526
L59528 26582
L59528 26620
L59509 26676
L59471 26713
L59434 26732
L59359 26751
L59303 26751
L59228 26732
L59190 26713
L59153 26676
L59134 26620
L59134 26582
L59153 26526
L59171 26507
" />
<path d="M59528 26320
L59528 26245
L59509 26207
L59490 26189
L59434 26151
L59359 26132
L59209 26132
L59171 26151
L59153 26170
L59134 26207
L59134 26282
L59153 26320
L59171 26339
L59209 26357
L59303 26357
L59340 26339
L59359 26320
L59378 26282
L59378 26207
L59359 26170
L59340 26151
L59303 26132
" />
<text x="51342.1" y="43346.9"
textLength="845.426" font-size="524.934" lengthAdjust="spacingAndGlyphs"
text-anchor="middle" opacity="0">C8</text>
<path d="M51276 43290
L51257 43309
L51201 43328
L51164 43328
L51107 43309
L51070 43271
L51051 43234
L51032 43159
L51032 43103
L51051 43028
L51070 42990
L51107 42953
L51164 42934
L51201 42934
L51257 42953
L51276 42971
" />
<path d="M51501 43103
L51463 43084
L51445 43065
L51426 43028
L51426 43009
L51445 42971
L51463 42953
L51501 42934
L51576 42934
L51613 42953
L51632 42971
L51651 43009
L51651 43028
L51632 43065
L51613 43084
L51576 43103
L51501 43103
L51463 43121
L51445 43140
L51426 43178
L51426 43253
L51445 43290
L51463 43309
L51501 43328
L51576 43328
L51613 43309
L51632 43290
L51651 43253
L51651 43178
L51632 43140
L51613 43121
L51576 43103
" />
<text x="61757.9" y="38896.9"
textLength="845.426" font-size="524.934" lengthAdjust="spacingAndGlyphs"
text-anchor="middle" opacity="0">C7</text>
<path d="M61692 38840
L61673 38859
L61617 38878
L61579 38878
L61523 38859
L61486 38821
L61467 38784
L61448 38709
L61448 38653
L61467 38578
L61486 38540
L61523 38503
L61579 38484
L61617 38484
L61673 38503
L61692 38521
" />
<path d="M61823 38484
L62085 38484
L61917 38878
" />
</g>
<g style="fill:#000000; fill-opacity:0.0; 
stroke:#000000; stroke-width:47.2441; stroke-opacity:1; 
stroke-linecap:round; stroke-linejoin:round;">
<g transform="rotate(-90 58550 59734.6)">
<text x="58550" y="59892.1"
textLength="691.695" font-size="419.947" lengthAdjust="spacingAndGlyphs"
text-anchor="middle" opacity="0">C6</text>
</g>
<path d="M58662 59787
L58677 59802
L58692 59847
L58692 59877
L58677 59922
L58647 59952
L58617 59967
L58557 59982
L58512 59982
L58452 59967
L58422 59952
L58392 59922
L58377 59877
L58377 59847
L58392 59802
L58407 59787
" />
<path d="M58377 59517
L58377 59577
L58392 59607
L58407 59622
L58452 59652
L58512 59667
L58632 59667
L58662 59652
L58677 59637
L58692 59607
L58692 59547
L58677 59517
L58662 59502
L58632 59487
L58557 59487
L58527 59502
L58512 59517
L58497 59547
L58497 59607
L58512 59637
L58527 59652
L58557 59667
" />
<g transform="rotate(-90 58850 55915)">
<text x="58850" y="56072.4"
textLength="676.341" font-size="419.947" lengthAdjust="spacingAndGlyphs"
text-anchor="middle" opacity="0">C5</text>
</g>
<path d="M58962 55967
L58977 55982
L58992 56027
L58992 56057
L58977 56102
L58947 56132
L58917 56147
L58857 56162
L58812 56162
L58752 56147
L58722 56132
L58692 56102
L58677 56057
L58677 56027
L58692 55982
L58707 55967
" />
<path d="M58677 55682
L58677 55832
L58827 55847
L58812 55832
L58797 55802
L58797 55727
L58812 55697
L58827 55682
L58857 55667
L58932 55667
L58962 55682
L58977 55697
L58992 55727
L58992 55802
L58977 55832
L58962 55847
" />
<text x="51250" y="35357.5"
textLength="676.341" font-size="419.947" lengthAdjust="spacingAndGlyphs"
text-anchor="middle" opacity="0">C4</text>
<path d="M51197 35312
L51182 35327
L51137 35342
L51107 35342
L51062 35327
L51032 35297
L51017 35267
L51002 35207
L51002 35162
L51017 35102
L51032 35072
L51062 35042
L51107 35027
L51137 35027
L51182 35042
L51197 35057
" />
<path d="M51467 35132
L51467 35342
" />
<path d="M51392 35012
L51317 35237
L51512 35237
" />
<text x="61765.4" y="47157.5"
textLength="676.341" font-size="419.947" lengthAdjust="spacingAndGlyphs"
text-anchor="middle" opacity="0">C1</text>
<path d="M61712 47112
L61697 47127
L61652 47142
L61622 47142
L61577 47127
L61547 47097
L61532 47067
L61517 47007
L61517 46962
L61532 46902
L61547 46872
L61577 46842
L61622 46827
L61652 46827
L61697 46842
L61712 46857
" />
<path d="M62012 47142
L61832 47142
" />
<path d="M61922 47142
L61922 46827
L61892 46872
L61862 46902
L61832 46917
" />
<g >
</g>
</g> 
</svg>
