<?xml version="1.0" standalone="no"?>
 <!DOCTYPE svg PUBLIC "-//W3C//DTD SVG 1.1//EN" 
 "http://www.w3.org/Graphics/SVG/1.1/DTD/svg11.dtd"> 
<svg
  xmlns:svg="http://www.w3.org/2000/svg"
  xmlns="http://www.w3.org/2000/svg"
  xmlns:xlink="http://www.w3.org/1999/xlink"
  version="1.1"
  width="29.700220cm" height="21.000720cm" viewBox="0 0 116930 82680">
<title>SVG Picture created as 8x8_Kick_Drum-B_SilkS.svg date 2021/09/05 10:29:43 </title>
  <desc>Picture generated by PCBNEW </desc>
<g style="fill:#000000; fill-opacity:1;stroke:#000000; stroke-opacity:1;
stroke-linecap:round; stroke-linejoin:round;"
 transform="translate(0 0) scale(1 1)">
</g>
<g style="fill:#000000; fill-opacity:0.0; 
stroke:#000000; stroke-width:-0.000393701; stroke-opacity:1; 
stroke-linecap:round; stroke-linejoin:round;">
</g>
<g style="fill:#000000; fill-opacity:0.0; 
stroke:#000000; stroke-width:78.7402; stroke-opacity:1; 
stroke-linecap:round; stroke-linejoin:round;">
<path d="M50328 65970
L50328 61836
" />
<path d="M53871 65970
L53871 61836
" />
<path d="M53871 61836
L52729 61836
" />
<path d="M51470 61836
L50328 61836
" />
<path d="M53871 65970
L52690 65970
" />
<path d="M51509 65970
L50328 65970
" />
</g>
<g style="fill:#000000; fill-opacity:0.0; 
stroke:#000000; stroke-width:47.2441; stroke-opacity:1; 
stroke-linecap:round; stroke-linejoin:round;">
<circle cx="52100" cy="64198.8" r="708.661" /> 
<path d="M52100 63059.1 A1139.76 1139.76 0.0 0 0 51589.7 65217.9" />
<path d="M52610.3 65217.9 A1139.76 1139.76 0.0 0 0 52100 63059.1" />
</g>
<g style="fill:#000000; fill-opacity:0.0; 
stroke:#000000; stroke-width:78.7402; stroke-opacity:1; 
stroke-linecap:round; stroke-linejoin:round;">
<path d="M57328 65971
L57328 61837
" />
<path d="M60871 65971
L60871 61837
" />
<path d="M60871 61837
L59729 61837
" />
<path d="M58470 61837
L57328 61837
" />
<path d="M60871 65971
L59690 65971
" />
<path d="M58509 65971
L57328 65971
" />
</g>
<g style="fill:#000000; fill-opacity:0.0; 
stroke:#000000; stroke-width:47.2441; stroke-opacity:1; 
stroke-linecap:round; stroke-linejoin:round;">
<circle cx="59100" cy="64200" r="708.661" /> 
<path d="M59100 63060.2 A1139.76 1139.76 0.0 0 0 58589.7 65219.1" />
<path d="M59610.3 65219.1 A1139.76 1139.76 0.0 0 0 59100 63060.2" />
</g>
<g style="fill:#000000; fill-opacity:0.0; 
stroke:#000000; stroke-width:78.7402; stroke-opacity:1; 
stroke-linecap:round; stroke-linejoin:round;">
<path d="M61378 65958
L61378 61824
" />
<path d="M64921 65958
L64921 61824
" />
<path d="M64921 61824
L63779 61824
" />
<path d="M62520 61824
L61378 61824
" />
<path d="M64921 65958
L63740 65958
" />
<path d="M62559 65958
L61378 65958
" />
</g>
<g style="fill:#000000; fill-opacity:0.0; 
stroke:#000000; stroke-width:47.2441; stroke-opacity:1; 
stroke-linecap:round; stroke-linejoin:round;">
<circle cx="63150" cy="64187" r="708.661" /> 
<path d="M63150 63047.2 A1139.76 1139.76 0.0 0 0 62639.7 65206.1" />
<path d="M63660.3 65206.1 A1139.76 1139.76 0.0 0 0 63150 63047.2" />
<path d="M57056 42506
L57383 42506
" />
<path d="M58021 42506
L58229 42506
" />
<path d="M59162 42506
L59627 42506
" />
<path d="M55792 42506
L55792 40648
" />
<path d="M59627 39148
L59627 37943
" />
<path d="M59631 42506
L59631 40648
" />
<path d="M55792 39148
L55792 37943
" />
<path d="M55792 42506
L56379 42506
" />
<path d="M55792 37943
L59627 37943
" />
<path d="M57012 48653
L57338 48653
" />
<path d="M57976 48653
L58185 48653
" />
<path d="M59118 48653
L59583 48653
" />
<path d="M55748 48653
L55748 46795
" />
<path d="M59583 45295
L59583 44090
" />
<path d="M59587 48653
L59587 46795
" />
<path d="M55748 45295
L55748 44090
" />
<path d="M55748 48653
L56335 48653
" />
<path d="M55748 44090
L59583 44090
" />
<path d="M57056 36406
L57383 36406
" />
<path d="M58021 36406
L58229 36406
" />
<path d="M59162 36406
L59627 36406
" />
<path d="M55792 36406
L55792 34548
" />
<path d="M59627 33048
L59627 31843
" />
<path d="M59631 36406
L59631 34548
" />
<path d="M55792 33048
L55792 31843
" />
<path d="M55792 36406
L56379 36406
" />
<path d="M55792 31843
L59627 31843
" />
<path d="M52086 30253
L52412 30253
" />
<path d="M53050 30253
L53259 30253
" />
<path d="M54192 30253
L54657 30253
" />
<path d="M50822 30253
L50822 28395
" />
<path d="M54657 26895
L54657 25690
" />
<path d="M54661 30253
L54661 28395
" />
<path d="M50822 26895
L50822 25690
" />
<path d="M50822 30253
L51409 30253
" />
<path d="M50822 25690
L54657 25690
" />
<path d="M61906 30253
L62233 30253
" />
<path d="M62871 30253
L63079 30253
" />
<path d="M64012 30253
L64477 30253
" />
<path d="M60642 30253
L60642 28395
" />
<path d="M64477 26895
L64477 25690
" />
<path d="M64481 30253
L64481 28395
" />
<path d="M60642 26895
L60642 25690
" />
<path d="M60642 30253
L61229 30253
" />
<path d="M60642 25690
L64477 25690
" />
</g>
<g style="fill:#000000; fill-opacity:0.0; 
stroke:#000000; stroke-width:59.0551; stroke-opacity:1; 
stroke-linecap:round; stroke-linejoin:round;">
<text x="53084.3" y="61718.5"
transform="scale(-1 1) translate(-106168.503937 0)"
textLength="598.144" font-size="524.934" lengthAdjust="spacingAndGlyphs"
text-anchor="middle" opacity="0">J4</text>
<path d="M53215 61306
L53215 61587
L53234 61643
L53271 61681
L53327 61699
L53365 61699
" />
<path d="M52859 61437
L52859 61699
" />
<path d="M52953 61287
L53046 61568
L52803 61568
" />
<text x="60084.3" y="61719.7"
transform="scale(-1 1) translate(-120168.503937 0)"
textLength="598.144" font-size="524.934" lengthAdjust="spacingAndGlyphs"
text-anchor="middle" opacity="0">J3</text>
<path d="M60215 61307
L60215 61588
L60234 61644
L60271 61682
L60327 61700
L60365 61700
" />
<path d="M60065 61307
L59821 61307
L59953 61457
L59896 61457
L59859 61475
L59840 61494
L59821 61532
L59821 61625
L59840 61663
L59859 61682
L59896 61700
L60009 61700
L60046 61682
L60065 61663
" />
<text x="64134.3" y="61706.7"
transform="scale(-1 1) translate(-128268.503937 0)"
textLength="598.144" font-size="524.934" lengthAdjust="spacingAndGlyphs"
text-anchor="middle" opacity="0">J2</text>
<path d="M64265 61294
L64265 61575
L64284 61631
L64321 61669
L64377 61687
L64415 61687
" />
<path d="M64096 61331
L64078 61312
L64040 61294
L63946 61294
L63909 61312
L63890 61331
L63871 61369
L63871 61406
L63890 61462
L64115 61687
L63871 61687
" />
<g transform="rotate(90 60521.3 40211)">
<text x="60521.3" y="40407.9"
transform="scale(-1 1) translate(-121042.519685 0)"
textLength="1029.34" font-size="524.934" lengthAdjust="spacingAndGlyphs"
text-anchor="middle" opacity="0">RV5</text>
</g>
<path d="M60343 40445
L60530 40576
" />
<path d="M60343 40670
L60736 40670
L60736 40520
L60718 40482
L60699 40464
L60661 40445
L60605 40445
L60568 40464
L60549 40482
L60530 40520
L60530 40670
" />
<path d="M60736 40332
L60343 40201
L60736 40070
" />
<path d="M60736 39751
L60736 39939
L60549 39957
L60568 39939
L60586 39901
L60586 39807
L60568 39770
L60549 39751
L60511 39732
L60418 39732
L60380 39751
L60361 39770
L60343 39807
L60343 39901
L60361 39939
L60380 39957
" />
<g transform="rotate(90 60476.8 46358.3)">
<text x="60476.8" y="46555.1"
transform="scale(-1 1) translate(-120953.543307 0)"
textLength="1029.34" font-size="524.934" lengthAdjust="spacingAndGlyphs"
text-anchor="middle" opacity="0">RV3</text>
</g>
<path d="M60298 46592
L60486 46723
" />
<path d="M60298 46817
L60692 46817
L60692 46667
L60673 46630
L60654 46611
L60617 46592
L60561 46592
L60523 46611
L60504 46630
L60486 46667
L60486 46817
" />
<path d="M60692 46480
L60298 46348
L60692 46217
" />
<path d="M60692 46123
L60692 45880
L60542 46011
L60542 45955
L60523 45917
L60504 45898
L60467 45880
L60373 45880
L60336 45898
L60317 45917
L60298 45955
L60298 46067
L60317 46105
L60336 46123
" />
<g transform="rotate(90 60521.3 34111)">
<text x="60521.3" y="34307.9"
transform="scale(-1 1) translate(-121042.519685 0)"
textLength="1029.34" font-size="524.934" lengthAdjust="spacingAndGlyphs"
text-anchor="middle" opacity="0">RV4</text>
</g>
<path d="M60343 34345
L60530 34476
" />
<path d="M60343 34570
L60736 34570
L60736 34420
L60718 34382
L60699 34364
L60661 34345
L60605 34345
L60568 34364
L60549 34382
L60530 34420
L60530 34570
" />
<path d="M60736 34232
L60343 34101
L60736 33970
" />
<path d="M60605 33670
L60343 33670
" />
<path d="M60755 33764
L60474 33857
L60474 33614
" />
<g transform="rotate(90 55550.8 27958.3)">
<text x="55550.8" y="28155.1"
transform="scale(-1 1) translate(-111101.574803 0)"
textLength="1029.34" font-size="524.934" lengthAdjust="spacingAndGlyphs"
text-anchor="middle" opacity="0">RV2</text>
</g>
<path d="M55372 28192
L55560 28323
" />
<path d="M55372 28417
L55766 28417
L55766 28267
L55747 28230
L55728 28211
L55691 28192
L55635 28192
L55597 28211
L55578 28230
L55560 28267
L55560 28417
" />
<path d="M55766 28080
L55372 27948
L55766 27817
" />
<path d="M55728 27705
L55747 27686
L55766 27648
L55766 27555
L55747 27517
L55728 27498
L55691 27480
L55653 27480
L55597 27498
L55372 27723
L55372 27480
" />
<g transform="rotate(90 65371.3 27958.3)">
<text x="65371.3" y="28155.1"
transform="scale(-1 1) translate(-130742.519685 0)"
textLength="1029.34" font-size="524.934" lengthAdjust="spacingAndGlyphs"
text-anchor="middle" opacity="0">RV1</text>
</g>
<path d="M65193 28192
L65380 28323
" />
<path d="M65193 28417
L65586 28417
L65586 28267
L65568 28230
L65549 28211
L65511 28192
L65455 28192
L65418 28211
L65399 28230
L65380 28267
L65380 28417
" />
<path d="M65586 28080
L65193 27948
L65586 27817
" />
<path d="M65193 27480
L65193 27705
" />
<path d="M65193 27592
L65586 27592
L65530 27630
L65493 27667
L65474 27705
" />
<g >
</g>
</g> 
</svg>
