<?xml version="1.0" standalone="no"?>
 <!DOCTYPE svg PUBLIC "-//W3C//DTD SVG 1.1//EN" 
 "http://www.w3.org/Graphics/SVG/1.1/DTD/svg11.dtd"> 
<svg
  xmlns:svg="http://www.w3.org/2000/svg"
  xmlns="http://www.w3.org/2000/svg"
  xmlns:xlink="http://www.w3.org/1999/xlink"
  version="1.1"
  width="29.700220cm" height="21.000720cm" viewBox="0 0 116930 82680">
<title>SVG Picture created as 8x8_Kick_Drum-Edge_Cuts.svg date 2021/09/05 10:29:43 </title>
  <desc>Picture generated by PCBNEW </desc>
<g style="fill:#000000; fill-opacity:1;stroke:#000000; stroke-opacity:1;
stroke-linecap:round; stroke-linejoin:round;"
 transform="translate(0 0) scale(1 1)">
</g>
<g style="fill:#000000; fill-opacity:0.0; 
stroke:#000000; stroke-width:-0.000393701; stroke-opacity:1; 
stroke-linecap:round; stroke-linejoin:round;">
</g>
<g style="fill:#000000; fill-opacity:0.0; 
stroke:#000000; stroke-width:78.7402; stroke-opacity:1; 
stroke-linecap:round; stroke-linejoin:round;">
<path d="M50048 67459
L50087 67554
" />
<path d="M50150 67635
L50231 67698
" />
<path d="M50087 67554
L50150 67635
" />
<path d="M50034 67357
L50048 67459
" />
<path d="M50231 67698
L50326 67737
" />
<path d="M50428 25034
L50326 25048
" />
<path d="M65247 25428
L65233 25326
" />
<path d="M65233 67459
L65247 67357
" />
<path d="M65131 67635
L65194 67554
" />
<path d="M65050 67698
L65131 67635
" />
<path d="M64955 67737
L65050 67698
" />
<path d="M64853 25034
L50428 25034
" />
<path d="M65194 67554
L65233 67459
" />
<path d="M64955 25048
L64853 25034
" />
<path d="M65247 67357
L65247 25428
" />
<path d="M50231 25087
L50150 25150
" />
<path d="M50326 67737
L50428 67751
" />
<path d="M65194 25231
L65131 25150
" />
<path d="M64853 67751
L64955 67737
" />
<path d="M65050 25087
L64955 25048
" />
<path d="M50048 25326
L50034 25428
" />
<path d="M50428 67751
L64853 67751
" />
<path d="M50087 25231
L50048 25326
" />
<path d="M65233 25326
L65194 25231
" />
<path d="M50326 25048
L50231 25087
" />
<path d="M65131 25150
L65050 25087
" />
<path d="M50034 25428
L50034 67357
" />
<path d="M50150 25150
L50087 25231
" />
<g >
</g>
<g >
</g>
<g >
</g>
<g >
</g>
<g >
</g>
<g >
</g>
<g >
</g>
<g >
</g>
<g >
</g>
<g >
</g>
<g >
</g>
<g >
</g>
<g >
</g>
<g >
</g>
<g >
</g>
<g >
</g>
<g >
</g>
<g >
</g>
<g >
</g>
<g >
</g>
<g >
</g>
<g >
</g>
<g >
</g>
<g >
</g>
<g >
</g>
<g >
</g>
<g >
</g>
<g >
</g>
<g >
</g>
<g >
</g>
<g >
</g>
<g >
</g>
<g >
</g>
<g >
</g>
<g >
</g>
<g >
</g>
<g >
</g>
<g >
</g>
<g >
</g>
<g >
</g>
<g >
</g>
<g >
</g>
<g >
</g>
<g >
</g>
<g >
</g>
<g >
</g>
<g >
</g>
<g >
</g>
<g >
</g>
<g >
</g>
<g >
</g>
<g >
</g>
<g >
</g>
<g >
</g>
<g >
</g>
<g >
</g>
<g >
</g>
<g >
</g>
<g >
</g>
<g >
</g>
<g >
</g>
<g >
</g>
<g >
</g>
<g >
</g>
<g >
</g>
<g >
</g>
</g> 
</svg>
