M48
; DRILL file {KiCad (5.1.9)-1} date 09/05/21 10:29:45
; FORMAT={-:-/ absolute / metric / decimal}
; #@! TF.CreationDate,2021-09-05T10:29:45+01:00
; #@! TF.GenerationSoftware,Kicad,Pcbnew,(5.1.9)-1
; #@! TF.FileFunction,Plated,1,2,PTH
FMAT,2
METRIC
T1C0.400
T2C0.600
T3C0.800
T4C1.000
T5C1.100
%
G90
G05
T1
X128.651Y-168.91
X129.159Y-141.732
X129.286Y-121.539
X132.588Y-141.478
X133.731Y-135.763
X133.947Y-113.373
X134.239Y-84.582
X135.255Y-131.191
X135.669Y-115.777
X135.89Y-81.026
X136.196Y-144.502
X137.033Y-93.345
X137.795Y-147.193
X137.922Y-151.765
X139.474Y-85.57
X140.335Y-141.859
X140.951Y-94.737
X141.635Y-92.803
X141.705Y-111.225
X141.986Y-77.089
X142.715Y-98.331
X143.51Y-91.059
X143.689Y-77.269
X144.014Y-101.433
X144.602Y-78.128
X144.653Y-153.162
X144.78Y-97.409
X144.907Y-163.957
X145.814Y-105.809
X146.177Y-142.494
X147.066Y-72.009
X147.066Y-76.708
X147.193Y-64.643
X147.203Y-151.94
X148.12Y-144.945
X149.323Y-86.063
X149.733Y-106.045
X149.987Y-133.096
X150.114Y-78.359
X150.241Y-137.922
X151.003Y-89.281
X151.384Y-145.034
X152.527Y-110.871
X153.416Y-166.37
X153.924Y-159.766
X154.686Y-74.93
X155.067Y-84.212
X155.702Y-66.929
X157.099Y-165.989
X160.401Y-142.748
X160.528Y-140.208
X162.179Y-93.726
X162.179Y-99.441
X162.306Y-66.929
X163.195Y-74.295
X163.576Y-111.379
X163.576Y-158.623
X163.576Y-166.116
T3
X128.397Y-152.146
X128.651Y-94.742
X129.159Y-109.601
X129.54Y-80.899
X129.54Y-83.439
X129.54Y-85.979
X130.175Y-125.222
X130.175Y-127.762
X130.175Y-130.302
X130.175Y-132.842
X130.937Y-152.146
X131.191Y-94.742
X131.659Y-109.601
X133.477Y-152.146
X133.731Y-94.742
X135.422Y-88.773
X137.795Y-125.222
X137.795Y-127.762
X137.795Y-130.302
X137.795Y-132.842
X137.922Y-88.773
X139.192Y-161.925
X140.113Y-167.894
X141.692Y-161.925
X142.113Y-167.894
X142.526Y-66.929
X143.764Y-136.779
X143.764Y-139.279
X144.272Y-145.669
X144.272Y-148.169
X144.526Y-66.929
X146.844Y-129.159
X148.844Y-129.159
X150.622Y-72.771
X150.622Y-75.271
X150.749Y-65.913
X150.749Y-68.413
X155.615Y-98.298
X158.115Y-98.298
X162.306Y-81.661
X162.306Y-84.201
X162.306Y-86.741
X162.814Y-102.108
X162.814Y-104.648
X162.814Y-107.188
X163.576Y-115.316
X163.576Y-117.856
X163.576Y-120.396
T4
X131.459Y-77.724
X133.959Y-77.724
X136.459Y-77.724
X143.971Y-124.46
X144.084Y-93.352
X144.084Y-108.846
X146.471Y-124.46
X146.584Y-93.352
X146.584Y-108.846
X148.971Y-124.46
X149.084Y-93.352
X149.084Y-108.846
X156.403Y-77.724
X158.903Y-77.724
X159.131Y-136.398
X159.131Y-138.938
X159.131Y-141.478
X159.131Y-144.018
X159.131Y-146.558
X161.403Y-77.724
X161.671Y-136.398
X161.671Y-138.938
X161.671Y-141.478
X161.671Y-144.018
X161.671Y-146.558
T2
G00X132.834Y-158.145
M15
G01X131.834Y-158.145
M16
G05
G00X132.834Y-166.445
M15
G01X131.834Y-166.445
M16
G05
G00X132.834Y-169.545
M15
G01X131.834Y-169.545
M16
G05
G00X150.614Y-158.148
M15
G01X149.614Y-158.148
M16
G05
G00X150.614Y-166.448
M15
G01X149.614Y-166.448
M16
G05
G00X150.614Y-169.548
M15
G01X149.614Y-169.548
M16
G05
G00X160.901Y-158.115
M15
G01X159.901Y-158.115
M16
G05
G00X160.901Y-166.415
M15
G01X159.901Y-166.415
M16
G05
G00X160.901Y-169.515
M15
G01X159.901Y-169.515
M16
G05
T5
G00X129.159Y-69.874
M15
G01X129.159Y-70.574
M16
G05
G00X138.759Y-69.874
M15
G01X138.759Y-70.574
M16
G05
G00X141.671Y-116.61
M15
G01X141.671Y-117.31
M16
G05
G00X141.784Y-85.502
M15
G01X141.784Y-86.202
M16
G05
G00X141.784Y-100.996
M15
G01X141.784Y-101.696
M16
G05
G00X151.271Y-116.61
M15
G01X151.271Y-117.31
M16
G05
G00X151.384Y-85.502
M15
G01X151.384Y-86.202
M16
G05
G00X151.384Y-100.996
M15
G01X151.384Y-101.696
M16
G05
G00X154.103Y-69.874
M15
G01X154.103Y-70.574
M16
G05
G00X163.703Y-69.874
M15
G01X163.703Y-70.574
M16
G05
T0
M30
