<?xml version="1.0" standalone="no"?>
 <!DOCTYPE svg PUBLIC "-//W3C//DTD SVG 1.1//EN" 
 "http://www.w3.org/Graphics/SVG/1.1/DTD/svg11.dtd"> 
<svg
  xmlns:svg="http://www.w3.org/2000/svg"
  xmlns="http://www.w3.org/2000/svg"
  xmlns:xlink="http://www.w3.org/1999/xlink"
  version="1.1"
  width="29.700220cm" height="21.000720cm" viewBox="0 0 116930 82680">
<title>SVG Picture created as 8x8_Kick_Drum-F_Paste.svg date 2021/09/05 10:29:43 </title>
  <desc>Picture generated by PCBNEW </desc>
<g style="fill:#000000; fill-opacity:1;stroke:#000000; stroke-opacity:1;
stroke-linecap:round; stroke-linejoin:round;"
 transform="translate(0 0) scale(1 1)">
</g>
<g style="fill:#000000; fill-opacity:0.0; 
stroke:#000000; stroke-width:-0.000393701; stroke-opacity:1; 
stroke-linecap:round; stroke-linejoin:round;">
<g >
</g>
<g style="fill:#000000; fill-opacity:0.0; 
stroke:#000000; stroke-width:0; stroke-opacity:1; 
stroke-linecap:round; stroke-linejoin:round;">
</g>
<g style="fill:#000000; fill-opacity:1.0; 
stroke:#000000; stroke-width:0; stroke-opacity:1; 
stroke-linecap:round; stroke-linejoin:round;">
<path style="fill:#000000; fill-opacity:1.0; 
stroke:#000000; stroke-width:0; stroke-opacity:1; 
stroke-linecap:round; stroke-linejoin:round;fill-rule:evenodd;"
d="M 53705.7,64194.6
53715.3,64196
53724.6,64198.3
53733.7,64201.6
53742.5,64205.7
53750.7,64210.7
53758.5,64216.4
53765.7,64222.9
53772.1,64230.1
53777.9,64237.8
53782.9,64246.1
53787,64254.9
53790.2,64263.9
53792.6,64273.3
53794,64282.9
53794.5,64292.5
53794.5,64607.5
53794,64617.1
53792.6,64626.7
53790.2,64636.1
53787,64645.1
53782.9,64653.9
53777.9,64662.2
53772.1,64669.9
53765.7,64677.1
53758.5,64683.6
53750.7,64689.3
53742.5,64694.3
53733.7,64698.4
53724.6,64701.7
53715.3,64704
53705.7,64705.4
53696.1,64705.9
53203.9,64705.9
53194.3,64705.4
53184.7,64704
53175.4,64701.7
53166.3,64698.4
53157.5,64694.3
53149.3,64689.3
53141.5,64683.6
53134.3,64677.1
53127.9,64669.9
53122.1,64662.2
53117.1,64653.9
53113,64645.1
53109.8,64636.1
53107.4,64626.7
53106,64617.1
53105.5,64607.5
53105.5,64292.5
53106,64282.9
53107.4,64273.3
53109.8,64263.9
53113,64254.9
53117.1,64246.1
53122.1,64237.8
53127.9,64230.1
53134.3,64222.9
53141.5,64216.4
53149.3,64210.7
53157.5,64205.7
53166.3,64201.6
53175.4,64198.3
53184.7,64196
53194.3,64194.6
53203.9,64194.1
53696.1,64194.1
Z" /> 
<path style="fill:#000000; fill-opacity:1.0; 
stroke:#000000; stroke-width:0; stroke-opacity:1; 
stroke-linecap:round; stroke-linejoin:round;fill-rule:evenodd;"
d="M 53705.7,62974.1
53715.3,62975.5
53724.6,62977.9
53733.7,62981.1
53742.5,62985.2
53750.7,62990.2
53758.5,62996
53765.7,63002.4
53772.1,63009.6
53777.9,63017.4
53782.9,63025.6
53787,63034.4
53790.2,63043.5
53792.6,63052.8
53794,63062.4
53794.5,63072
53794.5,63387
53794,63396.7
53792.6,63406.2
53790.2,63415.6
53787,63424.7
53782.9,63433.4
53777.9,63441.7
53772.1,63449.4
53765.7,63456.6
53758.5,63463.1
53750.7,63468.8
53742.5,63473.8
53733.7,63477.9
53724.6,63481.2
53715.3,63483.5
53705.7,63485
53696.1,63485.4
53203.9,63485.4
53194.3,63485
53184.7,63483.5
53175.4,63481.2
53166.3,63477.9
53157.5,63473.8
53149.3,63468.8
53141.5,63463.1
53134.3,63456.6
53127.9,63449.4
53122.1,63441.7
53117.1,63433.4
53113,63424.7
53109.8,63415.6
53107.4,63406.2
53106,63396.7
53105.5,63387
53105.5,63072
53106,63062.4
53107.4,63052.8
53109.8,63043.5
53113,63034.4
53117.1,63025.6
53122.1,63017.4
53127.9,63009.6
53134.3,63002.4
53141.5,62996
53149.3,62990.2
53157.5,62985.2
53166.3,62981.1
53175.4,62977.9
53184.7,62975.5
53194.3,62974.1
53203.9,62973.6
53696.1,62973.6
Z" /> 
</g>
<g >
</g>
<g style="fill:#000000; fill-opacity:1.0; 
stroke:#000000; stroke-width:0; stroke-opacity:1; 
stroke-linecap:round; stroke-linejoin:round;">
<path style="fill:#000000; fill-opacity:1.0; 
stroke:#000000; stroke-width:0; stroke-opacity:1; 
stroke-linecap:round; stroke-linejoin:round;fill-rule:evenodd;"
d="M 57555.7,62894.6
57565.3,62896
57574.6,62898.3
57583.7,62901.6
57592.5,62905.7
57600.7,62910.7
57608.5,62916.4
57615.7,62922.9
57622.1,62930.1
57627.9,62937.8
57632.9,62946.1
57637,62954.9
57640.2,62963.9
57642.6,62973.3
57644,62982.9
57644.5,62992.5
57644.5,63307.5
57644,63317.1
57642.6,63326.7
57640.2,63336.1
57637,63345.1
57632.9,63353.9
57627.9,63362.2
57622.1,63369.9
57615.7,63377.1
57608.5,63383.6
57600.7,63389.3
57592.5,63394.3
57583.7,63398.4
57574.6,63401.7
57565.3,63404
57555.7,63405.4
57546.1,63405.9
57053.9,63405.9
57044.3,63405.4
57034.7,63404
57025.4,63401.7
57016.3,63398.4
57007.5,63394.3
56999.3,63389.3
56991.5,63383.6
56984.3,63377.1
56977.9,63369.9
56972.1,63362.2
56967.1,63353.9
56963,63345.1
56959.8,63336.1
56957.4,63326.7
56956,63317.1
56955.5,63307.5
56955.5,62992.5
56956,62982.9
56957.4,62973.3
56959.8,62963.9
56963,62954.9
56967.1,62946.1
56972.1,62937.8
56977.9,62930.1
56984.3,62922.9
56991.5,62916.4
56999.3,62910.7
57007.5,62905.7
57016.3,62901.6
57025.4,62898.3
57034.7,62896
57044.3,62894.6
57053.9,62894.1
57546.1,62894.1
Z" /> 
<path style="fill:#000000; fill-opacity:1.0; 
stroke:#000000; stroke-width:0; stroke-opacity:1; 
stroke-linecap:round; stroke-linejoin:round;fill-rule:evenodd;"
d="M 57555.7,61674.1
57565.3,61675.5
57574.6,61677.9
57583.7,61681.1
57592.5,61685.2
57600.7,61690.2
57608.5,61696
57615.7,61702.4
57622.1,61709.6
57627.9,61717.4
57632.9,61725.6
57637,61734.4
57640.2,61743.5
57642.6,61752.8
57644,61762.4
57644.5,61772
57644.5,62087
57644,62096.7
57642.6,62106.2
57640.2,62115.6
57637,62124.7
57632.9,62133.4
57627.9,62141.7
57622.1,62149.4
57615.7,62156.6
57608.5,62163.1
57600.7,62168.8
57592.5,62173.8
57583.7,62177.9
57574.6,62181.2
57565.3,62183.5
57555.7,62185
57546.1,62185.4
57053.9,62185.4
57044.3,62185
57034.7,62183.5
57025.4,62181.2
57016.3,62177.9
57007.5,62173.8
56999.3,62168.8
56991.5,62163.1
56984.3,62156.6
56977.9,62149.4
56972.1,62141.7
56967.1,62133.4
56963,62124.7
56959.8,62115.6
56957.4,62106.2
56956,62096.7
56955.5,62087
56955.5,61772
56956,61762.4
56957.4,61752.8
56959.8,61743.5
56963,61734.4
56967.1,61725.6
56972.1,61717.4
56977.9,61709.6
56984.3,61702.4
56991.5,61696
56999.3,61690.2
57007.5,61685.2
57016.3,61681.1
57025.4,61677.9
57034.7,61675.5
57044.3,61674.1
57053.9,61673.6
57546.1,61673.6
Z" /> 
</g>
<g >
</g>
<g style="fill:#000000; fill-opacity:1.0; 
stroke:#000000; stroke-width:0; stroke-opacity:1; 
stroke-linecap:round; stroke-linejoin:round;">
<path style="fill:#000000; fill-opacity:1.0; 
stroke:#000000; stroke-width:0; stroke-opacity:1; 
stroke-linecap:round; stroke-linejoin:round;fill-rule:evenodd;"
d="M 51105.7,64215
51115.3,64216.5
51124.6,64218.8
51133.7,64222.1
51142.5,64226.2
51150.7,64231.2
51158.5,64236.9
51165.7,64243.4
51172.1,64250.6
51177.9,64258.3
51182.9,64266.6
51187,64275.3
51190.2,64284.4
51192.6,64293.8
51194,64303.3
51194.5,64313
51194.5,64628
51194,64637.6
51192.6,64647.2
51190.2,64656.5
51187,64665.6
51182.9,64674.4
51177.9,64682.6
51172.1,64690.4
51165.7,64697.5
51158.5,64704
51150.7,64709.8
51142.5,64714.8
51133.7,64718.9
51124.6,64722.1
51115.3,64724.5
51105.7,64725.9
51096.1,64726.4
50603.9,64726.4
50594.3,64725.9
50584.7,64724.5
50575.4,64722.1
50566.3,64718.9
50557.5,64714.8
50549.3,64709.8
50541.5,64704
50534.3,64697.5
50527.9,64690.4
50522.1,64682.6
50517.1,64674.4
50513,64665.6
50509.8,64656.5
50507.4,64647.2
50506,64637.6
50505.5,64628
50505.5,64313
50506,64303.3
50507.4,64293.8
50509.8,64284.4
50513,64275.3
50517.1,64266.6
50522.1,64258.3
50527.9,64250.6
50534.3,64243.4
50541.5,64236.9
50549.3,64231.2
50557.5,64226.2
50566.3,64222.1
50575.4,64218.8
50584.7,64216.5
50594.3,64215
50603.9,64214.6
51096.1,64214.6
Z" /> 
<path style="fill:#000000; fill-opacity:1.0; 
stroke:#000000; stroke-width:0; stroke-opacity:1; 
stroke-linecap:round; stroke-linejoin:round;fill-rule:evenodd;"
d="M 51105.7,62994.6
51115.3,62996
51124.6,62998.3
51133.7,63001.6
51142.5,63005.7
51150.7,63010.7
51158.5,63016.4
51165.7,63022.9
51172.1,63030.1
51177.9,63037.8
51182.9,63046.1
51187,63054.9
51190.2,63063.9
51192.6,63073.3
51194,63082.9
51194.5,63092.5
51194.5,63407.5
51194,63417.1
51192.6,63426.7
51190.2,63436.1
51187,63445.1
51182.9,63453.9
51177.9,63462.2
51172.1,63469.9
51165.7,63477.1
51158.5,63483.6
51150.7,63489.3
51142.5,63494.3
51133.7,63498.4
51124.6,63501.7
51115.3,63504
51105.7,63505.4
51096.1,63505.9
50603.9,63505.9
50594.3,63505.4
50584.7,63504
50575.4,63501.7
50566.3,63498.4
50557.5,63494.3
50549.3,63489.3
50541.5,63483.6
50534.3,63477.1
50527.9,63469.9
50522.1,63462.2
50517.1,63453.9
50513,63445.1
50509.8,63436.1
50507.4,63426.7
50506,63417.1
50505.5,63407.5
50505.5,63092.5
50506,63082.9
50507.4,63073.3
50509.8,63063.9
50513,63054.9
50517.1,63046.1
50522.1,63037.8
50527.9,63030.1
50534.3,63022.9
50541.5,63016.4
50549.3,63010.7
50557.5,63005.7
50566.3,63001.6
50575.4,62998.3
50584.7,62996
50594.3,62994.6
50603.9,62994.1
51096.1,62994.1
Z" /> 
</g>
<g >
</g>
<g style="fill:#000000; fill-opacity:1.0; 
stroke:#000000; stroke-width:0; stroke-opacity:1; 
stroke-linecap:round; stroke-linejoin:round;">
<path style="fill:#000000; fill-opacity:1.0; 
stroke:#000000; stroke-width:0; stroke-opacity:1; 
stroke-linecap:round; stroke-linejoin:round;fill-rule:evenodd;"
d="M 54767.1,61306
54776.7,61307.4
54786.1,61309.8
54795.1,61313
54803.9,61317.1
54812.2,61322.1
54819.9,61327.9
54827.1,61334.3
54833.6,61341.5
54839.3,61349.3
54844.3,61357.5
54848.4,61366.3
54851.7,61375.4
54854,61384.7
54855.4,61394.3
54855.9,61403.9
54855.9,61896.1
54855.4,61905.7
54854,61915.3
54851.7,61924.6
54848.4,61933.7
54844.3,61942.5
54839.3,61950.7
54833.6,61958.5
54827.1,61965.7
54819.9,61972.1
54812.2,61977.9
54803.9,61982.9
54795.1,61987
54786.1,61990.2
54776.7,61992.6
54767.1,61994
54757.5,61994.5
54442.5,61994.5
54432.9,61994
54423.3,61992.6
54413.9,61990.2
54404.9,61987
54396.1,61982.9
54387.8,61977.9
54380.1,61972.1
54372.9,61965.7
54366.4,61958.5
54360.7,61950.7
54355.7,61942.5
54351.6,61933.7
54348.3,61924.6
54346,61915.3
54344.6,61905.7
54344.1,61896.1
54344.1,61403.9
54344.6,61394.3
54346,61384.7
54348.3,61375.4
54351.6,61366.3
54355.7,61357.5
54360.7,61349.3
54366.4,61341.5
54372.9,61334.3
54380.1,61327.9
54387.8,61322.1
54396.1,61317.1
54404.9,61313
54413.9,61309.8
54423.3,61307.4
54432.9,61306
54442.5,61305.5
54757.5,61305.5
Z" /> 
<path style="fill:#000000; fill-opacity:1.0; 
stroke:#000000; stroke-width:0; stroke-opacity:1; 
stroke-linecap:round; stroke-linejoin:round;fill-rule:evenodd;"
d="M 55987.6,61306
55997.2,61307.4
56006.5,61309.8
56015.6,61313
56024.4,61317.1
56032.6,61322.1
56040.4,61327.9
56047.5,61334.3
56054,61341.5
56059.8,61349.3
56064.8,61357.5
56068.9,61366.3
56072.1,61375.4
56074.5,61384.7
56075.9,61394.3
56076.4,61403.9
56076.4,61896.1
56075.9,61905.7
56074.5,61915.3
56072.1,61924.6
56068.9,61933.7
56064.8,61942.5
56059.8,61950.7
56054,61958.5
56047.5,61965.7
56040.4,61972.1
56032.6,61977.9
56024.4,61982.9
56015.6,61987
56006.5,61990.2
55997.2,61992.6
55987.6,61994
55978,61994.5
55663,61994.5
55653.3,61994
55643.8,61992.6
55634.4,61990.2
55625.3,61987
55616.6,61982.9
55608.3,61977.9
55600.6,61972.1
55593.4,61965.7
55586.9,61958.5
55581.2,61950.7
55576.2,61942.5
55572.1,61933.7
55568.8,61924.6
55566.5,61915.3
55565,61905.7
55564.6,61896.1
55564.6,61403.9
55565,61394.3
55566.5,61384.7
55568.8,61375.4
55572.1,61366.3
55576.2,61357.5
55581.2,61349.3
55586.9,61341.5
55593.4,61334.3
55600.6,61327.9
55608.3,61322.1
55616.6,61317.1
55625.3,61313
55634.4,61309.8
55643.8,61307.4
55653.3,61306
55663,61305.5
55978,61305.5
Z" /> 
</g>
<g >
</g>
<g style="fill:#000000; fill-opacity:1.0; 
stroke:#000000; stroke-width:0; stroke-opacity:1; 
stroke-linecap:round; stroke-linejoin:round;">
<path style="fill:#000000; fill-opacity:1.0; 
stroke:#000000; stroke-width:0; stroke-opacity:1; 
stroke-linecap:round; stroke-linejoin:round;fill-rule:evenodd;"
d="M 52467.1,57406
52476.7,57407.4
52486.1,57409.8
52495.1,57413
52503.9,57417.1
52512.2,57422.1
52519.9,57427.9
52527.1,57434.3
52533.6,57441.5
52539.3,57449.3
52544.3,57457.5
52548.4,57466.3
52551.7,57475.4
52554,57484.7
52555.4,57494.3
52555.9,57503.9
52555.9,57996.1
52555.4,58005.7
52554,58015.3
52551.7,58024.6
52548.4,58033.7
52544.3,58042.5
52539.3,58050.7
52533.6,58058.5
52527.1,58065.7
52519.9,58072.1
52512.2,58077.9
52503.9,58082.9
52495.1,58087
52486.1,58090.2
52476.7,58092.6
52467.1,58094
52457.5,58094.5
52142.5,58094.5
52132.9,58094
52123.3,58092.6
52113.9,58090.2
52104.9,58087
52096.1,58082.9
52087.8,58077.9
52080.1,58072.1
52072.9,58065.7
52066.4,58058.5
52060.7,58050.7
52055.7,58042.5
52051.6,58033.7
52048.3,58024.6
52046,58015.3
52044.6,58005.7
52044.1,57996.1
52044.1,57503.9
52044.6,57494.3
52046,57484.7
52048.3,57475.4
52051.6,57466.3
52055.7,57457.5
52060.7,57449.3
52066.4,57441.5
52072.9,57434.3
52080.1,57427.9
52087.8,57422.1
52096.1,57417.1
52104.9,57413
52113.9,57409.8
52123.3,57407.4
52132.9,57406
52142.5,57405.5
52457.5,57405.5
Z" /> 
<path style="fill:#000000; fill-opacity:1.0; 
stroke:#000000; stroke-width:0; stroke-opacity:1; 
stroke-linecap:round; stroke-linejoin:round;fill-rule:evenodd;"
d="M 51246.7,57406
51256.2,57407.4
51265.6,57409.8
51274.7,57413
51283.4,57417.1
51291.7,57422.1
51299.4,57427.9
51306.6,57434.3
51313.1,57441.5
51318.8,57449.3
51323.8,57457.5
51327.9,57466.3
51331.2,57475.4
51333.5,57484.7
51335,57494.3
51335.4,57503.9
51335.4,57996.1
51335,58005.7
51333.5,58015.3
51331.2,58024.6
51327.9,58033.7
51323.8,58042.5
51318.8,58050.7
51313.1,58058.5
51306.6,58065.7
51299.4,58072.1
51291.7,58077.9
51283.4,58082.9
51274.7,58087
51265.6,58090.2
51256.2,58092.6
51246.7,58094
51237,58094.5
50922,58094.5
50912.4,58094
50902.8,58092.6
50893.5,58090.2
50884.4,58087
50875.6,58082.9
50867.4,58077.9
50859.6,58072.1
50852.4,58065.7
50846,58058.5
50840.2,58050.7
50835.2,58042.5
50831.1,58033.7
50827.9,58024.6
50825.5,58015.3
50824.1,58005.7
50823.6,57996.1
50823.6,57503.9
50824.1,57494.3
50825.5,57484.7
50827.9,57475.4
50831.1,57466.3
50835.2,57457.5
50840.2,57449.3
50846,57441.5
50852.4,57434.3
50859.6,57427.9
50867.4,57422.1
50875.6,57417.1
50884.4,57413
50893.5,57409.8
50902.8,57407.4
50912.4,57406
50922,57405.5
51237,57405.5
Z" /> 
</g>
<g >
</g>
<g style="fill:#000000; fill-opacity:1.0; 
stroke:#000000; stroke-width:0; stroke-opacity:1; 
stroke-linecap:round; stroke-linejoin:round;">
<path style="fill:#000000; fill-opacity:1.0; 
stroke:#000000; stroke-width:0; stroke-opacity:1; 
stroke-linecap:round; stroke-linejoin:round;fill-rule:evenodd;"
d="M 56055.7,49994.6
56065.3,49996
56074.6,49998.3
56083.7,50001.6
56092.5,50005.7
56100.7,50010.7
56108.5,50016.4
56115.7,50022.9
56122.1,50030.1
56127.9,50037.8
56132.9,50046.1
56137,50054.9
56140.2,50063.9
56142.6,50073.3
56144,50082.9
56144.5,50092.5
56144.5,50407.5
56144,50417.1
56142.6,50426.7
56140.2,50436.1
56137,50445.1
56132.9,50453.9
56127.9,50462.2
56122.1,50469.9
56115.7,50477.1
56108.5,50483.6
56100.7,50489.3
56092.5,50494.3
56083.7,50498.4
56074.6,50501.7
56065.3,50504
56055.7,50505.4
56046.1,50505.9
55553.9,50505.9
55544.3,50505.4
55534.7,50504
55525.4,50501.7
55516.3,50498.4
55507.5,50494.3
55499.3,50489.3
55491.5,50483.6
55484.3,50477.1
55477.9,50469.9
55472.1,50462.2
55467.1,50453.9
55463,50445.1
55459.8,50436.1
55457.4,50426.7
55456,50417.1
55455.5,50407.5
55455.5,50092.5
55456,50082.9
55457.4,50073.3
55459.8,50063.9
55463,50054.9
55467.1,50046.1
55472.1,50037.8
55477.9,50030.1
55484.3,50022.9
55491.5,50016.4
55499.3,50010.7
55507.5,50005.7
55516.3,50001.6
55525.4,49998.3
55534.7,49996
55544.3,49994.6
55553.9,49994.1
56046.1,49994.1
Z" /> 
<path style="fill:#000000; fill-opacity:1.0; 
stroke:#000000; stroke-width:0; stroke-opacity:1; 
stroke-linecap:round; stroke-linejoin:round;fill-rule:evenodd;"
d="M 56055.7,51215
56065.3,51216.5
56074.6,51218.8
56083.7,51222.1
56092.5,51226.2
56100.7,51231.2
56108.5,51236.9
56115.7,51243.4
56122.1,51250.6
56127.9,51258.3
56132.9,51266.6
56137,51275.3
56140.2,51284.4
56142.6,51293.8
56144,51303.3
56144.5,51313
56144.5,51628
56144,51637.6
56142.6,51647.2
56140.2,51656.5
56137,51665.6
56132.9,51674.4
56127.9,51682.6
56122.1,51690.4
56115.7,51697.6
56108.5,51704
56100.7,51709.8
56092.5,51714.8
56083.7,51718.9
56074.6,51722.1
56065.3,51724.5
56055.7,51725.9
56046.1,51726.4
55553.9,51726.4
55544.3,51725.9
55534.7,51724.5
55525.4,51722.1
55516.3,51718.9
55507.5,51714.8
55499.3,51709.8
55491.5,51704
55484.3,51697.6
55477.9,51690.4
55472.1,51682.6
55467.1,51674.4
55463,51665.6
55459.8,51656.5
55457.4,51647.2
55456,51637.6
55455.5,51628
55455.5,51313
55456,51303.3
55457.4,51293.8
55459.8,51284.4
55463,51275.3
55467.1,51266.6
55472.1,51258.3
55477.9,51250.6
55484.3,51243.4
55491.5,51236.9
55499.3,51231.2
55507.5,51226.2
55516.3,51222.1
55525.4,51218.8
55534.7,51216.5
55544.3,51215
55553.9,51214.6
56046.1,51214.6
Z" /> 
</g>
<g >
</g>
<g style="fill:#000000; fill-opacity:1.0; 
stroke:#000000; stroke-width:0; stroke-opacity:1; 
stroke-linecap:round; stroke-linejoin:round;">
<path style="fill:#000000; fill-opacity:1.0; 
stroke:#000000; stroke-width:0; stroke-opacity:1; 
stroke-linecap:round; stroke-linejoin:round;fill-rule:evenodd;"
d="M 53467.1,53706
53476.7,53707.4
53486.1,53709.8
53495.1,53713
53503.9,53717.1
53512.2,53722.1
53519.9,53727.9
53527.1,53734.3
53533.6,53741.5
53539.3,53749.3
53544.3,53757.5
53548.4,53766.3
53551.7,53775.4
53554,53784.7
53555.4,53794.3
53555.9,53803.9
53555.9,54296.1
53555.4,54305.7
53554,54315.3
53551.7,54324.6
53548.4,54333.7
53544.3,54342.5
53539.3,54350.7
53533.6,54358.5
53527.1,54365.7
53519.9,54372.1
53512.2,54377.9
53503.9,54382.9
53495.1,54387
53486.1,54390.2
53476.7,54392.6
53467.1,54394
53457.5,54394.5
53142.5,54394.5
53132.9,54394
53123.3,54392.6
53113.9,54390.2
53104.9,54387
53096.1,54382.9
53087.8,54377.9
53080.1,54372.1
53072.9,54365.7
53066.4,54358.5
53060.7,54350.7
53055.7,54342.5
53051.6,54333.7
53048.3,54324.6
53046,54315.3
53044.6,54305.7
53044.1,54296.1
53044.1,53803.9
53044.6,53794.3
53046,53784.7
53048.3,53775.4
53051.6,53766.3
53055.7,53757.5
53060.7,53749.3
53066.4,53741.5
53072.9,53734.3
53080.1,53727.9
53087.8,53722.1
53096.1,53717.1
53104.9,53713
53113.9,53709.8
53123.3,53707.4
53132.9,53706
53142.5,53705.5
53457.5,53705.5
Z" /> 
<path style="fill:#000000; fill-opacity:1.0; 
stroke:#000000; stroke-width:0; stroke-opacity:1; 
stroke-linecap:round; stroke-linejoin:round;fill-rule:evenodd;"
d="M 54687.6,53706
54697.2,53707.4
54706.5,53709.8
54715.6,53713
54724.4,53717.1
54732.6,53722.1
54740.4,53727.9
54747.5,53734.3
54754,53741.5
54759.8,53749.3
54764.8,53757.5
54768.9,53766.3
54772.1,53775.4
54774.5,53784.7
54775.9,53794.3
54776.4,53803.9
54776.4,54296.1
54775.9,54305.7
54774.5,54315.3
54772.1,54324.6
54768.9,54333.7
54764.8,54342.5
54759.8,54350.7
54754,54358.5
54747.5,54365.7
54740.4,54372.1
54732.6,54377.9
54724.4,54382.9
54715.6,54387
54706.5,54390.2
54697.2,54392.6
54687.6,54394
54678,54394.5
54363,54394.5
54353.3,54394
54343.8,54392.6
54334.4,54390.2
54325.3,54387
54316.6,54382.9
54308.3,54377.9
54300.6,54372.1
54293.4,54365.7
54286.9,54358.5
54281.2,54350.7
54276.2,54342.5
54272.1,54333.7
54268.8,54324.6
54266.5,54315.3
54265,54305.7
54264.6,54296.1
54264.6,53803.9
54265,53794.3
54266.5,53784.7
54268.8,53775.4
54272.1,53766.3
54276.2,53757.5
54281.2,53749.3
54286.9,53741.5
54293.4,53734.3
54300.6,53727.9
54308.3,53722.1
54316.6,53717.1
54325.3,53713
54334.4,53709.8
54343.8,53707.4
54353.3,53706
54363,53705.5
54678,53705.5
Z" /> 
</g>
<g >
</g>
<g style="fill:#000000; fill-opacity:1.0; 
stroke:#000000; stroke-width:0; stroke-opacity:1; 
stroke-linecap:round; stroke-linejoin:round;">
<path style="fill:#000000; fill-opacity:1.0; 
stroke:#000000; stroke-width:0; stroke-opacity:1; 
stroke-linecap:round; stroke-linejoin:round;fill-rule:evenodd;"
d="M 52596.7,28806
52606.2,28807.4
52615.6,28809.8
52624.7,28813
52633.4,28817.1
52641.7,28822.1
52649.4,28827.9
52656.6,28834.3
52663.1,28841.5
52668.8,28849.3
52673.8,28857.5
52677.9,28866.3
52681.2,28875.4
52683.5,28884.7
52685,28894.3
52685.4,28903.9
52685.4,29396.1
52685,29405.7
52683.5,29415.3
52681.2,29424.6
52677.9,29433.7
52673.8,29442.5
52668.8,29450.7
52663.1,29458.5
52656.6,29465.7
52649.4,29472.1
52641.7,29477.9
52633.4,29482.9
52624.7,29487
52615.6,29490.2
52606.2,29492.6
52596.7,29494
52587,29494.5
52272,29494.5
52262.4,29494
52252.8,29492.6
52243.5,29490.2
52234.4,29487
52225.6,29482.9
52217.4,29477.9
52209.6,29472.1
52202.4,29465.7
52196,29458.5
52190.2,29450.7
52185.2,29442.5
52181.1,29433.7
52177.9,29424.6
52175.5,29415.3
52174.1,29405.7
52173.6,29396.1
52173.6,28903.9
52174.1,28894.3
52175.5,28884.7
52177.9,28875.4
52181.1,28866.3
52185.2,28857.5
52190.2,28849.3
52196,28841.5
52202.4,28834.3
52209.6,28827.9
52217.4,28822.1
52225.6,28817.1
52234.4,28813
52243.5,28809.8
52252.8,28807.4
52262.4,28806
52272,28805.5
52587,28805.5
Z" /> 
<path style="fill:#000000; fill-opacity:1.0; 
stroke:#000000; stroke-width:0; stroke-opacity:1; 
stroke-linecap:round; stroke-linejoin:round;fill-rule:evenodd;"
d="M 53817.1,28806
53826.7,28807.4
53836.1,28809.8
53845.1,28813
53853.9,28817.1
53862.2,28822.1
53869.9,28827.9
53877.1,28834.3
53883.6,28841.5
53889.3,28849.3
53894.3,28857.5
53898.4,28866.3
53901.7,28875.4
53904,28884.7
53905.4,28894.3
53905.9,28903.9
53905.9,29396.1
53905.4,29405.7
53904,29415.3
53901.7,29424.6
53898.4,29433.7
53894.3,29442.5
53889.3,29450.7
53883.6,29458.5
53877.1,29465.7
53869.9,29472.1
53862.2,29477.9
53853.9,29482.9
53845.1,29487
53836.1,29490.2
53826.7,29492.6
53817.1,29494
53807.5,29494.5
53492.5,29494.5
53482.9,29494
53473.3,29492.6
53463.9,29490.2
53454.9,29487
53446.1,29482.9
53437.8,29477.9
53430.1,29472.1
53422.9,29465.7
53416.4,29458.5
53410.7,29450.7
53405.7,29442.5
53401.6,29433.7
53398.3,29424.6
53396,29415.3
53394.6,29405.7
53394.1,29396.1
53394.1,28903.9
53394.6,28894.3
53396,28884.7
53398.3,28875.4
53401.6,28866.3
53405.7,28857.5
53410.7,28849.3
53416.4,28841.5
53422.9,28834.3
53430.1,28827.9
53437.8,28822.1
53446.1,28817.1
53454.9,28813
53463.9,28809.8
53473.3,28807.4
53482.9,28806
53492.5,28805.5
53807.5,28805.5
Z" /> 
</g>
<g >
</g>
<g style="fill:#000000; fill-opacity:1.0; 
stroke:#000000; stroke-width:0; stroke-opacity:1; 
stroke-linecap:round; stroke-linejoin:round;">
<path style="fill:#000000; fill-opacity:1.0; 
stroke:#000000; stroke-width:0; stroke-opacity:1; 
stroke-linecap:round; stroke-linejoin:round;fill-rule:evenodd;"
d="M 57306.9,34806
57316.4,34807.4
57325.8,34809.8
57334.9,34813
57343.6,34817.1
57351.9,34822.1
57359.7,34827.9
57366.8,34834.3
57373.3,34841.5
57379.1,34849.3
57384,34857.5
57388.2,34866.3
57391.4,34875.4
57393.8,34884.7
57395.2,34894.3
57395.7,34903.9
57395.7,35396.1
57395.2,35405.7
57393.8,35415.3
57391.4,35424.6
57388.2,35433.7
57384,35442.5
57379.1,35450.7
57373.3,35458.5
57366.8,35465.7
57359.7,35472.1
57351.9,35477.9
57343.6,35482.9
57334.9,35487
57325.8,35490.2
57316.4,35492.6
57306.9,35494
57297.2,35494.5
56982.3,35494.5
56972.6,35494
56963.1,35492.6
56953.7,35490.2
56944.6,35487
56935.9,35482.9
56927.6,35477.9
56919.8,35472.1
56912.7,35465.7
56906.2,35458.5
56900.4,35450.7
56895.5,35442.5
56891.4,35433.7
56888.1,35424.6
56885.7,35415.3
56884.3,35405.7
56883.9,35396.1
56883.9,34903.9
56884.3,34894.3
56885.7,34884.7
56888.1,34875.4
56891.4,34866.3
56895.5,34857.5
56900.4,34849.3
56906.2,34841.5
56912.7,34834.3
56919.8,34827.9
56927.6,34822.1
56935.9,34817.1
56944.6,34813
56953.7,34809.8
56963.1,34807.4
56972.6,34806
56982.3,34805.5
57297.2,34805.5
Z" /> 
<path style="fill:#000000; fill-opacity:1.0; 
stroke:#000000; stroke-width:0; stroke-opacity:1; 
stroke-linecap:round; stroke-linejoin:round;fill-rule:evenodd;"
d="M 58527.4,34806
58536.9,34807.4
58546.3,34809.8
58555.4,34813
58564.1,34817.1
58572.4,34822.1
58580.2,34827.9
58587.3,34834.3
58593.8,34841.5
58599.6,34849.3
58604.5,34857.5
58608.6,34866.3
58611.9,34875.4
58614.3,34884.7
58615.7,34894.3
58616.1,34903.9
58616.1,35396.1
58615.7,35405.7
58614.3,35415.3
58611.9,35424.6
58608.6,35433.7
58604.5,35442.5
58599.6,35450.7
58593.8,35458.5
58587.3,35465.7
58580.2,35472.1
58572.4,35477.9
58564.1,35482.9
58555.4,35487
58546.3,35490.2
58536.9,35492.6
58527.4,35494
58517.7,35494.5
58202.8,35494.5
58193.1,35494
58183.6,35492.6
58174.2,35490.2
58165.1,35487
58156.4,35482.9
58148.1,35477.9
58140.3,35472.1
58133.2,35465.7
58126.7,35458.5
58120.9,35450.7
58116,35442.5
58111.8,35433.7
58108.6,35424.6
58106.2,35415.3
58104.8,35405.7
58104.3,35396.1
58104.3,34903.9
58104.8,34894.3
58106.2,34884.7
58108.6,34875.4
58111.8,34866.3
58116,34857.5
58120.9,34849.3
58126.7,34841.5
58133.2,34834.3
58140.3,34827.9
58148.1,34822.1
58156.4,34817.1
58165.1,34813
58174.2,34809.8
58183.6,34807.4
58193.1,34806
58202.8,34805.5
58517.7,34805.5
Z" /> 
</g>
<g >
</g>
<g style="fill:#000000; fill-opacity:1.0; 
stroke:#000000; stroke-width:0; stroke-opacity:1; 
stroke-linecap:round; stroke-linejoin:round;">
<path style="fill:#000000; fill-opacity:1.0; 
stroke:#000000; stroke-width:0; stroke-opacity:1; 
stroke-linecap:round; stroke-linejoin:round;fill-rule:evenodd;"
d="M 63367.1,28456
63376.7,28457.4
63386.1,28459.8
63395.1,28463
63403.9,28467.1
63412.2,28472.1
63419.9,28477.9
63427.1,28484.3
63433.6,28491.5
63439.3,28499.3
63444.3,28507.5
63448.4,28516.3
63451.7,28525.4
63454,28534.7
63455.4,28544.3
63455.9,28553.9
63455.9,29046.1
63455.4,29055.7
63454,29065.3
63451.7,29074.6
63448.4,29083.7
63444.3,29092.5
63439.3,29100.7
63433.6,29108.5
63427.1,29115.7
63419.9,29122.1
63412.2,29127.9
63403.9,29132.9
63395.1,29137
63386.1,29140.2
63376.7,29142.6
63367.1,29144
63357.5,29144.5
63042.5,29144.5
63032.9,29144
63023.3,29142.6
63013.9,29140.2
63004.9,29137
62996.1,29132.9
62987.8,29127.9
62980.1,29122.1
62972.9,29115.7
62966.4,29108.5
62960.7,29100.7
62955.7,29092.5
62951.6,29083.7
62948.3,29074.6
62946,29065.3
62944.6,29055.7
62944.1,29046.1
62944.1,28553.9
62944.6,28544.3
62946,28534.7
62948.3,28525.4
62951.6,28516.3
62955.7,28507.5
62960.7,28499.3
62966.4,28491.5
62972.9,28484.3
62980.1,28477.9
62987.8,28472.1
62996.1,28467.1
63004.9,28463
63013.9,28459.8
63023.3,28457.4
63032.9,28456
63042.5,28455.5
63357.5,28455.5
Z" /> 
<path style="fill:#000000; fill-opacity:1.0; 
stroke:#000000; stroke-width:0; stroke-opacity:1; 
stroke-linecap:round; stroke-linejoin:round;fill-rule:evenodd;"
d="M 62146.7,28456
62156.2,28457.4
62165.6,28459.8
62174.7,28463
62183.4,28467.1
62191.7,28472.1
62199.4,28477.9
62206.6,28484.3
62213.1,28491.5
62218.8,28499.3
62223.8,28507.5
62227.9,28516.3
62231.2,28525.4
62233.5,28534.7
62235,28544.3
62235.4,28553.9
62235.4,29046.1
62235,29055.7
62233.5,29065.3
62231.2,29074.6
62227.9,29083.7
62223.8,29092.5
62218.8,29100.7
62213.1,29108.5
62206.6,29115.7
62199.4,29122.1
62191.7,29127.9
62183.4,29132.9
62174.7,29137
62165.6,29140.2
62156.2,29142.6
62146.7,29144
62137,29144.5
61822,29144.5
61812.4,29144
61802.8,29142.6
61793.5,29140.2
61784.4,29137
61775.6,29132.9
61767.4,29127.9
61759.6,29122.1
61752.4,29115.7
61746,29108.5
61740.2,29100.7
61735.2,29092.5
61731.1,29083.7
61727.9,29074.6
61725.5,29065.3
61724.1,29055.7
61723.6,29046.1
61723.6,28553.9
61724.1,28544.3
61725.5,28534.7
61727.9,28525.4
61731.1,28516.3
61735.2,28507.5
61740.2,28499.3
61746,28491.5
61752.4,28484.3
61759.6,28477.9
61767.4,28472.1
61775.6,28467.1
61784.4,28463
61793.5,28459.8
61802.8,28457.4
61812.4,28456
61822,28455.5
62137,28455.5
Z" /> 
</g>
<g >
</g>
<g style="fill:#000000; fill-opacity:1.0; 
stroke:#000000; stroke-width:0; stroke-opacity:1; 
stroke-linecap:round; stroke-linejoin:round;">
<path style="fill:#000000; fill-opacity:1.0; 
stroke:#000000; stroke-width:0; stroke-opacity:1; 
stroke-linecap:round; stroke-linejoin:round;fill-rule:evenodd;"
d="M 55456.9,31006
55466.4,31007.4
55475.8,31009.8
55484.9,31013
55493.6,31017.1
55501.9,31022.1
55509.7,31027.9
55516.8,31034.3
55523.3,31041.5
55529.1,31049.3
55534,31057.5
55538.2,31066.3
55541.4,31075.4
55543.8,31084.7
55545.2,31094.3
55545.7,31103.9
55545.7,31596.1
55545.2,31605.7
55543.8,31615.3
55541.4,31624.6
55538.2,31633.7
55534,31642.5
55529.1,31650.7
55523.3,31658.5
55516.8,31665.7
55509.7,31672.1
55501.9,31677.9
55493.6,31682.9
55484.9,31687
55475.8,31690.2
55466.4,31692.6
55456.9,31694
55447.2,31694.5
55132.3,31694.5
55122.6,31694
55113.1,31692.6
55103.7,31690.2
55094.6,31687
55085.9,31682.9
55077.6,31677.9
55069.8,31672.1
55062.7,31665.7
55056.2,31658.5
55050.4,31650.7
55045.5,31642.5
55041.4,31633.7
55038.1,31624.6
55035.7,31615.3
55034.3,31605.7
55033.9,31596.1
55033.9,31103.9
55034.3,31094.3
55035.7,31084.7
55038.1,31075.4
55041.4,31066.3
55045.5,31057.5
55050.4,31049.3
55056.2,31041.5
55062.7,31034.3
55069.8,31027.9
55077.6,31022.1
55085.9,31017.1
55094.6,31013
55103.7,31009.8
55113.1,31007.4
55122.6,31006
55132.3,31005.5
55447.2,31005.5
Z" /> 
<path style="fill:#000000; fill-opacity:1.0; 
stroke:#000000; stroke-width:0; stroke-opacity:1; 
stroke-linecap:round; stroke-linejoin:round;fill-rule:evenodd;"
d="M 56677.4,31006
56686.9,31007.4
56696.3,31009.8
56705.4,31013
56714.1,31017.1
56722.4,31022.1
56730.2,31027.9
56737.3,31034.3
56743.8,31041.5
56749.6,31049.3
56754.5,31057.5
56758.6,31066.3
56761.9,31075.4
56764.3,31084.7
56765.7,31094.3
56766.1,31103.9
56766.1,31596.1
56765.7,31605.7
56764.3,31615.3
56761.9,31624.6
56758.6,31633.7
56754.5,31642.5
56749.6,31650.7
56743.8,31658.5
56737.3,31665.7
56730.2,31672.1
56722.4,31677.9
56714.1,31682.9
56705.4,31687
56696.3,31690.2
56686.9,31692.6
56677.4,31694
56667.7,31694.5
56352.8,31694.5
56343.1,31694
56333.6,31692.6
56324.2,31690.2
56315.1,31687
56306.4,31682.9
56298.1,31677.9
56290.3,31672.1
56283.2,31665.7
56276.7,31658.5
56270.9,31650.7
56266,31642.5
56261.8,31633.7
56258.6,31624.6
56256.2,31615.3
56254.8,31605.7
56254.3,31596.1
56254.3,31103.9
56254.8,31094.3
56256.2,31084.7
56258.6,31075.4
56261.8,31066.3
56266,31057.5
56270.9,31049.3
56276.7,31041.5
56283.2,31034.3
56290.3,31027.9
56298.1,31022.1
56306.4,31017.1
56315.1,31013
56324.2,31009.8
56333.6,31007.4
56343.1,31006
56352.8,31005.5
56667.7,31005.5
Z" /> 
</g>
<g >
</g>
<g style="fill:#000000; fill-opacity:1.0; 
stroke:#000000; stroke-width:0; stroke-opacity:1; 
stroke-linecap:round; stroke-linejoin:round;">
<path style="fill:#000000; fill-opacity:1.0; 
stroke:#000000; stroke-width:0; stroke-opacity:1; 
stroke-linecap:round; stroke-linejoin:round;fill-rule:evenodd;"
d="M 57246.7,32956
57256.2,32957.4
57265.6,32959.8
57274.7,32963
57283.4,32967.1
57291.7,32972.1
57299.4,32977.9
57306.6,32984.3
57313.1,32991.5
57318.8,32999.3
57323.8,33007.5
57327.9,33016.3
57331.2,33025.4
57333.5,33034.7
57335,33044.3
57335.4,33053.9
57335.4,33546.1
57335,33555.7
57333.5,33565.3
57331.2,33574.6
57327.9,33583.7
57323.8,33592.5
57318.8,33600.7
57313.1,33608.5
57306.6,33615.7
57299.4,33622.1
57291.7,33627.9
57283.4,33632.9
57274.7,33637
57265.6,33640.2
57256.2,33642.6
57246.7,33644
57237,33644.5
56922,33644.5
56912.4,33644
56902.8,33642.6
56893.5,33640.2
56884.4,33637
56875.6,33632.9
56867.4,33627.9
56859.6,33622.1
56852.4,33615.7
56846,33608.5
56840.2,33600.7
56835.2,33592.5
56831.1,33583.7
56827.9,33574.6
56825.5,33565.3
56824.1,33555.7
56823.6,33546.1
56823.6,33053.9
56824.1,33044.3
56825.5,33034.7
56827.9,33025.4
56831.1,33016.3
56835.2,33007.5
56840.2,32999.3
56846,32991.5
56852.4,32984.3
56859.6,32977.9
56867.4,32972.1
56875.6,32967.1
56884.4,32963
56893.5,32959.8
56902.8,32957.4
56912.4,32956
56922,32955.5
57237,32955.5
Z" /> 
<path style="fill:#000000; fill-opacity:1.0; 
stroke:#000000; stroke-width:0; stroke-opacity:1; 
stroke-linecap:round; stroke-linejoin:round;fill-rule:evenodd;"
d="M 58467.1,32956
58476.7,32957.4
58486.1,32959.8
58495.1,32963
58503.9,32967.1
58512.2,32972.1
58519.9,32977.9
58527.1,32984.3
58533.6,32991.5
58539.3,32999.3
58544.3,33007.5
58548.4,33016.3
58551.7,33025.4
58554,33034.7
58555.4,33044.3
58555.9,33053.9
58555.9,33546.1
58555.4,33555.7
58554,33565.3
58551.7,33574.6
58548.4,33583.7
58544.3,33592.5
58539.3,33600.7
58533.6,33608.5
58527.1,33615.7
58519.9,33622.1
58512.2,33627.9
58503.9,33632.9
58495.1,33637
58486.1,33640.2
58476.7,33642.6
58467.1,33644
58457.5,33644.5
58142.5,33644.5
58132.9,33644
58123.3,33642.6
58113.9,33640.2
58104.9,33637
58096.1,33632.9
58087.8,33627.9
58080.1,33622.1
58072.9,33615.7
58066.4,33608.5
58060.7,33600.7
58055.7,33592.5
58051.6,33583.7
58048.3,33574.6
58046,33565.3
58044.6,33555.7
58044.1,33546.1
58044.1,33053.9
58044.6,33044.3
58046,33034.7
58048.3,33025.4
58051.6,33016.3
58055.7,33007.5
58060.7,32999.3
58066.4,32991.5
58072.9,32984.3
58080.1,32977.9
58087.8,32972.1
58096.1,32967.1
58104.9,32963
58113.9,32959.8
58123.3,32957.4
58132.9,32956
58142.5,32955.5
58457.5,32955.5
Z" /> 
</g>
<g >
</g>
<g style="fill:#000000; fill-opacity:1.0; 
stroke:#000000; stroke-width:0; stroke-opacity:1; 
stroke-linecap:round; stroke-linejoin:round;">
<path style="fill:#000000; fill-opacity:1.0; 
stroke:#000000; stroke-width:0; stroke-opacity:1; 
stroke-linecap:round; stroke-linejoin:round;fill-rule:evenodd;"
d="M 62437.6,31656
62447.2,31657.4
62456.5,31659.8
62465.6,31663
62474.4,31667.1
62482.6,31672.1
62490.4,31677.9
62497.5,31684.3
62504,31691.5
62509.8,31699.3
62514.8,31707.5
62518.9,31716.3
62522.1,31725.4
62524.5,31734.7
62525.9,31744.3
62526.4,31753.9
62526.4,32246.1
62525.9,32255.7
62524.5,32265.3
62522.1,32274.6
62518.9,32283.7
62514.8,32292.5
62509.8,32300.7
62504,32308.5
62497.5,32315.7
62490.4,32322.1
62482.6,32327.9
62474.4,32332.9
62465.6,32337
62456.5,32340.2
62447.2,32342.6
62437.6,32344
62428,32344.5
62113,32344.5
62103.3,32344
62093.8,32342.6
62084.4,32340.2
62075.3,32337
62066.6,32332.9
62058.3,32327.9
62050.6,32322.1
62043.4,32315.7
62036.9,32308.5
62031.2,32300.7
62026.2,32292.5
62022.1,32283.7
62018.8,32274.6
62016.5,32265.3
62015,32255.7
62014.6,32246.1
62014.6,31753.9
62015,31744.3
62016.5,31734.7
62018.8,31725.4
62022.1,31716.3
62026.2,31707.5
62031.2,31699.3
62036.9,31691.5
62043.4,31684.3
62050.6,31677.9
62058.3,31672.1
62066.6,31667.1
62075.3,31663
62084.4,31659.8
62093.8,31657.4
62103.3,31656
62113,31655.5
62428,31655.5
Z" /> 
<path style="fill:#000000; fill-opacity:1.0; 
stroke:#000000; stroke-width:0; stroke-opacity:1; 
stroke-linecap:round; stroke-linejoin:round;fill-rule:evenodd;"
d="M 61217.1,31656
61226.7,31657.4
61236.1,31659.8
61245.1,31663
61253.9,31667.1
61262.2,31672.1
61269.9,31677.9
61277.1,31684.3
61283.6,31691.5
61289.3,31699.3
61294.3,31707.5
61298.4,31716.3
61301.7,31725.4
61304,31734.7
61305.4,31744.3
61305.9,31753.9
61305.9,32246.1
61305.4,32255.7
61304,32265.3
61301.7,32274.6
61298.4,32283.7
61294.3,32292.5
61289.3,32300.7
61283.6,32308.5
61277.1,32315.7
61269.9,32322.1
61262.2,32327.9
61253.9,32332.9
61245.1,32337
61236.1,32340.2
61226.7,32342.6
61217.1,32344
61207.5,32344.5
60892.5,32344.5
60882.9,32344
60873.3,32342.6
60863.9,32340.2
60854.9,32337
60846.1,32332.9
60837.8,32327.9
60830.1,32322.1
60822.9,32315.7
60816.4,32308.5
60810.7,32300.7
60805.7,32292.5
60801.6,32283.7
60798.3,32274.6
60796,32265.3
60794.6,32255.7
60794.1,32246.1
60794.1,31753.9
60794.6,31744.3
60796,31734.7
60798.3,31725.4
60801.6,31716.3
60805.7,31707.5
60810.7,31699.3
60816.4,31691.5
60822.9,31684.3
60830.1,31677.9
60837.8,31672.1
60846.1,31667.1
60854.9,31663
60863.9,31659.8
60873.3,31657.4
60882.9,31656
60892.5,31655.5
61207.5,31655.5
Z" /> 
</g>
<g >
</g>
<g style="fill:#000000; fill-opacity:1.0; 
stroke:#000000; stroke-width:0; stroke-opacity:1; 
stroke-linecap:round; stroke-linejoin:round;">
<path style="fill:#000000; fill-opacity:1.0; 
stroke:#000000; stroke-width:0; stroke-opacity:1; 
stroke-linecap:round; stroke-linejoin:round;fill-rule:evenodd;"
d="M 50867.1,44406
50876.7,44407.4
50886.1,44409.8
50895.1,44413
50903.9,44417.1
50912.2,44422.1
50919.9,44427.9
50927.1,44434.3
50933.6,44441.5
50939.3,44449.3
50944.3,44457.5
50948.4,44466.3
50951.7,44475.4
50954,44484.7
50955.4,44494.3
50955.9,44503.9
50955.9,44996.1
50955.4,45005.7
50954,45015.3
50951.7,45024.6
50948.4,45033.7
50944.3,45042.5
50939.3,45050.7
50933.6,45058.5
50927.1,45065.7
50919.9,45072.1
50912.2,45077.9
50903.9,45082.9
50895.1,45087
50886.1,45090.2
50876.7,45092.6
50867.1,45094
50857.5,45094.5
50542.5,45094.5
50532.9,45094
50523.3,45092.6
50513.9,45090.2
50504.9,45087
50496.1,45082.9
50487.8,45077.9
50480.1,45072.1
50472.9,45065.7
50466.4,45058.5
50460.7,45050.7
50455.7,45042.5
50451.6,45033.7
50448.3,45024.6
50446,45015.3
50444.6,45005.7
50444.1,44996.1
50444.1,44503.9
50444.6,44494.3
50446,44484.7
50448.3,44475.4
50451.6,44466.3
50455.7,44457.5
50460.7,44449.3
50466.4,44441.5
50472.9,44434.3
50480.1,44427.9
50487.8,44422.1
50496.1,44417.1
50504.9,44413
50513.9,44409.8
50523.3,44407.4
50532.9,44406
50542.5,44405.5
50857.5,44405.5
Z" /> 
<path style="fill:#000000; fill-opacity:1.0; 
stroke:#000000; stroke-width:0; stroke-opacity:1; 
stroke-linecap:round; stroke-linejoin:round;fill-rule:evenodd;"
d="M 52087.6,44406
52097.2,44407.4
52106.5,44409.8
52115.6,44413
52124.4,44417.1
52132.6,44422.1
52140.4,44427.9
52147.6,44434.3
52154,44441.5
52159.8,44449.3
52164.8,44457.5
52168.9,44466.3
52172.1,44475.4
52174.5,44484.7
52175.9,44494.3
52176.4,44503.9
52176.4,44996.1
52175.9,45005.7
52174.5,45015.3
52172.1,45024.6
52168.9,45033.7
52164.8,45042.5
52159.8,45050.7
52154,45058.5
52147.6,45065.7
52140.4,45072.1
52132.6,45077.9
52124.4,45082.9
52115.6,45087
52106.5,45090.2
52097.2,45092.6
52087.6,45094
52078,45094.5
51763,45094.5
51753.3,45094
51743.8,45092.6
51734.4,45090.2
51725.3,45087
51716.6,45082.9
51708.3,45077.9
51700.6,45072.1
51693.4,45065.7
51686.9,45058.5
51681.2,45050.7
51676.2,45042.5
51672.1,45033.7
51668.8,45024.6
51666.5,45015.3
51665,45005.7
51664.6,44996.1
51664.6,44503.9
51665,44494.3
51666.5,44484.7
51668.8,44475.4
51672.1,44466.3
51676.2,44457.5
51681.2,44449.3
51686.9,44441.5
51693.4,44434.3
51700.6,44427.9
51708.3,44422.1
51716.6,44417.1
51725.3,44413
51734.4,44409.8
51743.8,44407.4
51753.3,44406
51763,44405.5
52078,44405.5
Z" /> 
</g>
<g >
</g>
<g style="fill:#000000; fill-opacity:1.0; 
stroke:#000000; stroke-width:0; stroke-opacity:1; 
stroke-linecap:round; stroke-linejoin:round;">
<path style="fill:#000000; fill-opacity:1.0; 
stroke:#000000; stroke-width:0; stroke-opacity:1; 
stroke-linecap:round; stroke-linejoin:round;fill-rule:evenodd;"
d="M 62517.1,40056
62526.7,40057.4
62536.1,40059.8
62545.1,40063
62553.9,40067.1
62562.2,40072.1
62569.9,40077.9
62577.1,40084.3
62583.6,40091.5
62589.3,40099.3
62594.3,40107.5
62598.4,40116.3
62601.7,40125.4
62604,40134.7
62605.4,40144.3
62605.9,40153.9
62605.9,40646.1
62605.4,40655.7
62604,40665.3
62601.7,40674.6
62598.4,40683.7
62594.3,40692.5
62589.3,40700.7
62583.6,40708.5
62577.1,40715.7
62569.9,40722.1
62562.2,40727.9
62553.9,40732.9
62545.1,40737
62536.1,40740.2
62526.7,40742.6
62517.1,40744
62507.5,40744.5
62192.5,40744.5
62182.9,40744
62173.3,40742.6
62163.9,40740.2
62154.9,40737
62146.1,40732.9
62137.8,40727.9
62130.1,40722.1
62122.9,40715.7
62116.4,40708.5
62110.7,40700.7
62105.7,40692.5
62101.6,40683.7
62098.3,40674.6
62096,40665.3
62094.6,40655.7
62094.1,40646.1
62094.1,40153.9
62094.6,40144.3
62096,40134.7
62098.3,40125.4
62101.6,40116.3
62105.7,40107.5
62110.7,40099.3
62116.4,40091.5
62122.9,40084.3
62130.1,40077.9
62137.8,40072.1
62146.1,40067.1
62154.9,40063
62163.9,40059.8
62173.3,40057.4
62182.9,40056
62192.5,40055.5
62507.5,40055.5
Z" /> 
<path style="fill:#000000; fill-opacity:1.0; 
stroke:#000000; stroke-width:0; stroke-opacity:1; 
stroke-linecap:round; stroke-linejoin:round;fill-rule:evenodd;"
d="M 61296.7,40056
61306.2,40057.4
61315.6,40059.8
61324.7,40063
61333.4,40067.1
61341.7,40072.1
61349.4,40077.9
61356.6,40084.3
61363.1,40091.5
61368.8,40099.3
61373.8,40107.5
61377.9,40116.3
61381.2,40125.4
61383.5,40134.7
61385,40144.3
61385.4,40153.9
61385.4,40646.1
61385,40655.7
61383.5,40665.3
61381.2,40674.6
61377.9,40683.7
61373.8,40692.5
61368.8,40700.7
61363.1,40708.5
61356.6,40715.7
61349.4,40722.1
61341.7,40727.9
61333.4,40732.9
61324.7,40737
61315.6,40740.2
61306.2,40742.6
61296.7,40744
61287,40744.5
60972,40744.5
60962.4,40744
60952.8,40742.6
60943.5,40740.2
60934.4,40737
60925.6,40732.9
60917.4,40727.9
60909.6,40722.1
60902.4,40715.7
60896,40708.5
60890.2,40700.7
60885.2,40692.5
60881.1,40683.7
60877.9,40674.6
60875.5,40665.3
60874.1,40655.7
60873.6,40646.1
60873.6,40153.9
60874.1,40144.3
60875.5,40134.7
60877.9,40125.4
60881.1,40116.3
60885.2,40107.5
60890.2,40099.3
60896,40091.5
60902.4,40084.3
60909.6,40077.9
60917.4,40072.1
60925.6,40067.1
60934.4,40063
60943.5,40059.8
60952.8,40057.4
60962.4,40056
60972,40055.5
61287,40055.5
Z" /> 
</g>
<g >
</g>
<g style="fill:#000000; fill-opacity:1.0; 
stroke:#000000; stroke-width:0; stroke-opacity:1; 
stroke-linecap:round; stroke-linejoin:round;">
<path style="fill:#000000; fill-opacity:1.0; 
stroke:#000000; stroke-width:0; stroke-opacity:1; 
stroke-linecap:round; stroke-linejoin:round;fill-rule:evenodd;"
d="M 61217.1,33556
61226.7,33557.4
61236.1,33559.8
61245.1,33563
61253.9,33567.1
61262.2,33572.1
61269.9,33577.9
61277.1,33584.3
61283.6,33591.5
61289.3,33599.3
61294.3,33607.5
61298.4,33616.3
61301.7,33625.4
61304,33634.7
61305.4,33644.3
61305.9,33653.9
61305.9,34146.1
61305.4,34155.7
61304,34165.3
61301.7,34174.6
61298.4,34183.7
61294.3,34192.5
61289.3,34200.7
61283.6,34208.5
61277.1,34215.7
61269.9,34222.1
61262.2,34227.9
61253.9,34232.9
61245.1,34237
61236.1,34240.2
61226.7,34242.6
61217.1,34244
61207.5,34244.5
60892.5,34244.5
60882.9,34244
60873.3,34242.6
60863.9,34240.2
60854.9,34237
60846.1,34232.9
60837.8,34227.9
60830.1,34222.1
60822.9,34215.7
60816.4,34208.5
60810.7,34200.7
60805.7,34192.5
60801.6,34183.7
60798.3,34174.6
60796,34165.3
60794.6,34155.7
60794.1,34146.1
60794.1,33653.9
60794.6,33644.3
60796,33634.7
60798.3,33625.4
60801.6,33616.3
60805.7,33607.5
60810.7,33599.3
60816.4,33591.5
60822.9,33584.3
60830.1,33577.9
60837.8,33572.1
60846.1,33567.1
60854.9,33563
60863.9,33559.8
60873.3,33557.4
60882.9,33556
60892.5,33555.5
61207.5,33555.5
Z" /> 
<path style="fill:#000000; fill-opacity:1.0; 
stroke:#000000; stroke-width:0; stroke-opacity:1; 
stroke-linecap:round; stroke-linejoin:round;fill-rule:evenodd;"
d="M 62437.6,33556
62447.2,33557.4
62456.5,33559.8
62465.6,33563
62474.4,33567.1
62482.6,33572.1
62490.4,33577.9
62497.5,33584.3
62504,33591.5
62509.8,33599.3
62514.8,33607.5
62518.9,33616.3
62522.1,33625.4
62524.5,33634.7
62525.9,33644.3
62526.4,33653.9
62526.4,34146.1
62525.9,34155.7
62524.5,34165.3
62522.1,34174.6
62518.9,34183.7
62514.8,34192.5
62509.8,34200.7
62504,34208.5
62497.5,34215.7
62490.4,34222.1
62482.6,34227.9
62474.4,34232.9
62465.6,34237
62456.5,34240.2
62447.2,34242.6
62437.6,34244
62428,34244.5
62113,34244.5
62103.3,34244
62093.8,34242.6
62084.4,34240.2
62075.3,34237
62066.6,34232.9
62058.3,34227.9
62050.6,34222.1
62043.4,34215.7
62036.9,34208.5
62031.2,34200.7
62026.2,34192.5
62022.1,34183.7
62018.8,34174.6
62016.5,34165.3
62015,34155.7
62014.6,34146.1
62014.6,33653.9
62015,33644.3
62016.5,33634.7
62018.8,33625.4
62022.1,33616.3
62026.2,33607.5
62031.2,33599.3
62036.9,33591.5
62043.4,33584.3
62050.6,33577.9
62058.3,33572.1
62066.6,33567.1
62075.3,33563
62084.4,33559.8
62093.8,33557.4
62103.3,33556
62113,33555.5
62428,33555.5
Z" /> 
</g>
<g >
</g>
<g style="fill:#000000; fill-opacity:1.0; 
stroke:#000000; stroke-width:0; stroke-opacity:1; 
stroke-linecap:round; stroke-linejoin:round;">
<path style="fill:#000000; fill-opacity:1.0; 
stroke:#000000; stroke-width:0; stroke-opacity:1; 
stroke-linecap:round; stroke-linejoin:round;fill-rule:evenodd;"
d="M 61196.7,36756
61206.2,36757.4
61215.6,36759.8
61224.7,36763
61233.4,36767.1
61241.7,36772.1
61249.4,36777.9
61256.6,36784.3
61263.1,36791.5
61268.8,36799.3
61273.8,36807.5
61277.9,36816.3
61281.2,36825.4
61283.5,36834.7
61285,36844.3
61285.4,36853.9
61285.4,37346.1
61285,37355.7
61283.5,37365.3
61281.2,37374.6
61277.9,37383.7
61273.8,37392.5
61268.8,37400.7
61263.1,37408.5
61256.6,37415.7
61249.4,37422.1
61241.7,37427.9
61233.4,37432.9
61224.7,37437
61215.6,37440.2
61206.2,37442.6
61196.7,37444
61187,37444.5
60872,37444.5
60862.4,37444
60852.8,37442.6
60843.5,37440.2
60834.4,37437
60825.6,37432.9
60817.4,37427.9
60809.6,37422.1
60802.4,37415.7
60796,37408.5
60790.2,37400.7
60785.2,37392.5
60781.1,37383.7
60777.9,37374.6
60775.5,37365.3
60774.1,37355.7
60773.6,37346.1
60773.6,36853.9
60774.1,36844.3
60775.5,36834.7
60777.9,36825.4
60781.1,36816.3
60785.2,36807.5
60790.2,36799.3
60796,36791.5
60802.4,36784.3
60809.6,36777.9
60817.4,36772.1
60825.6,36767.1
60834.4,36763
60843.5,36759.8
60852.8,36757.4
60862.4,36756
60872,36755.5
61187,36755.5
Z" /> 
<path style="fill:#000000; fill-opacity:1.0; 
stroke:#000000; stroke-width:0; stroke-opacity:1; 
stroke-linecap:round; stroke-linejoin:round;fill-rule:evenodd;"
d="M 62417.1,36756
62426.7,36757.4
62436.1,36759.8
62445.1,36763
62453.9,36767.1
62462.2,36772.1
62469.9,36777.9
62477.1,36784.3
62483.6,36791.5
62489.3,36799.3
62494.3,36807.5
62498.4,36816.3
62501.7,36825.4
62504,36834.7
62505.4,36844.3
62505.9,36853.9
62505.9,37346.1
62505.4,37355.7
62504,37365.3
62501.7,37374.6
62498.4,37383.7
62494.3,37392.5
62489.3,37400.7
62483.6,37408.5
62477.1,37415.7
62469.9,37422.1
62462.2,37427.9
62453.9,37432.9
62445.1,37437
62436.1,37440.2
62426.7,37442.6
62417.1,37444
62407.5,37444.5
62092.5,37444.5
62082.9,37444
62073.3,37442.6
62063.9,37440.2
62054.9,37437
62046.1,37432.9
62037.8,37427.9
62030.1,37422.1
62022.9,37415.7
62016.4,37408.5
62010.7,37400.7
62005.7,37392.5
62001.6,37383.7
61998.3,37374.6
61996,37365.3
61994.6,37355.7
61994.1,37346.1
61994.1,36853.9
61994.6,36844.3
61996,36834.7
61998.3,36825.4
62001.6,36816.3
62005.7,36807.5
62010.7,36799.3
62016.4,36791.5
62022.9,36784.3
62030.1,36777.9
62037.8,36772.1
62046.1,36767.1
62054.9,36763
62063.9,36759.8
62073.3,36757.4
62082.9,36756
62092.5,36755.5
62407.5,36755.5
Z" /> 
</g>
<g >
</g>
<g style="fill:#000000; fill-opacity:1.0; 
stroke:#000000; stroke-width:0; stroke-opacity:1; 
stroke-linecap:round; stroke-linejoin:round;">
<path style="fill:#000000; fill-opacity:1.0; 
stroke:#000000; stroke-width:0; stroke-opacity:1; 
stroke-linecap:round; stroke-linejoin:round;fill-rule:evenodd;"
d="M 52067.1,40956
52076.7,40957.4
52086.1,40959.8
52095.1,40963
52103.9,40967.1
52112.2,40972.1
52119.9,40977.9
52127.1,40984.3
52133.6,40991.5
52139.3,40999.3
52144.3,41007.5
52148.4,41016.3
52151.7,41025.4
52154,41034.7
52155.4,41044.3
52155.9,41053.9
52155.9,41546.1
52155.4,41555.7
52154,41565.3
52151.7,41574.6
52148.4,41583.7
52144.3,41592.5
52139.3,41600.7
52133.6,41608.5
52127.1,41615.7
52119.9,41622.1
52112.2,41627.9
52103.9,41632.9
52095.1,41637
52086.1,41640.2
52076.7,41642.6
52067.1,41644
52057.5,41644.5
51742.5,41644.5
51732.9,41644
51723.3,41642.6
51713.9,41640.2
51704.9,41637
51696.1,41632.9
51687.8,41627.9
51680.1,41622.1
51672.9,41615.7
51666.4,41608.5
51660.7,41600.7
51655.7,41592.5
51651.6,41583.7
51648.3,41574.6
51646,41565.3
51644.6,41555.7
51644.1,41546.1
51644.1,41053.9
51644.6,41044.3
51646,41034.7
51648.3,41025.4
51651.6,41016.3
51655.7,41007.5
51660.7,40999.3
51666.4,40991.5
51672.9,40984.3
51680.1,40977.9
51687.8,40972.1
51696.1,40967.1
51704.9,40963
51713.9,40959.8
51723.3,40957.4
51732.9,40956
51742.5,40955.5
52057.5,40955.5
Z" /> 
<path style="fill:#000000; fill-opacity:1.0; 
stroke:#000000; stroke-width:0; stroke-opacity:1; 
stroke-linecap:round; stroke-linejoin:round;fill-rule:evenodd;"
d="M 50846.7,40956
50856.2,40957.4
50865.6,40959.8
50874.7,40963
50883.4,40967.1
50891.7,40972.1
50899.4,40977.9
50906.6,40984.3
50913.1,40991.5
50918.8,40999.3
50923.8,41007.5
50927.9,41016.3
50931.2,41025.4
50933.5,41034.7
50935,41044.3
50935.4,41053.9
50935.4,41546.1
50935,41555.7
50933.5,41565.3
50931.2,41574.6
50927.9,41583.7
50923.8,41592.5
50918.8,41600.7
50913.1,41608.5
50906.6,41615.7
50899.4,41622.1
50891.7,41627.9
50883.4,41632.9
50874.7,41637
50865.6,41640.2
50856.2,41642.6
50846.7,41644
50837,41644.5
50522,41644.5
50512.4,41644
50502.8,41642.6
50493.5,41640.2
50484.4,41637
50475.6,41632.9
50467.4,41627.9
50459.6,41622.1
50452.4,41615.7
50446,41608.5
50440.2,41600.7
50435.2,41592.5
50431.1,41583.7
50427.9,41574.6
50425.5,41565.3
50424.1,41555.7
50423.6,41546.1
50423.6,41053.9
50424.1,41044.3
50425.5,41034.7
50427.9,41025.4
50431.1,41016.3
50435.2,41007.5
50440.2,40999.3
50446,40991.5
50452.4,40984.3
50459.6,40977.9
50467.4,40972.1
50475.6,40967.1
50484.4,40963
50493.5,40959.8
50502.8,40957.4
50512.4,40956
50522,40955.5
50837,40955.5
Z" /> 
</g>
<g >
</g>
<g style="fill:#000000; fill-opacity:1.0; 
stroke:#000000; stroke-width:0; stroke-opacity:1; 
stroke-linecap:round; stroke-linejoin:round;">
<path style="fill:#000000; fill-opacity:1.0; 
stroke:#000000; stroke-width:0; stroke-opacity:1; 
stroke-linecap:round; stroke-linejoin:round;fill-rule:evenodd;"
d="M 62537.6,43356
62547.2,43357.4
62556.5,43359.8
62565.6,43363
62574.4,43367.1
62582.6,43372.1
62590.4,43377.9
62597.5,43384.3
62604,43391.5
62609.8,43399.3
62614.8,43407.5
62618.9,43416.3
62622.1,43425.4
62624.5,43434.7
62625.9,43444.3
62626.4,43453.9
62626.4,43946.1
62625.9,43955.7
62624.5,43965.3
62622.1,43974.6
62618.9,43983.7
62614.8,43992.5
62609.8,44000.7
62604,44008.5
62597.5,44015.7
62590.4,44022.1
62582.6,44027.9
62574.4,44032.9
62565.6,44037
62556.5,44040.2
62547.2,44042.6
62537.6,44044
62528,44044.5
62213,44044.5
62203.3,44044
62193.8,44042.6
62184.4,44040.2
62175.3,44037
62166.6,44032.9
62158.3,44027.9
62150.6,44022.1
62143.4,44015.7
62136.9,44008.5
62131.2,44000.7
62126.2,43992.5
62122.1,43983.7
62118.8,43974.6
62116.5,43965.3
62115,43955.7
62114.6,43946.1
62114.6,43453.9
62115,43444.3
62116.5,43434.7
62118.8,43425.4
62122.1,43416.3
62126.2,43407.5
62131.2,43399.3
62136.9,43391.5
62143.4,43384.3
62150.6,43377.9
62158.3,43372.1
62166.6,43367.1
62175.3,43363
62184.4,43359.8
62193.8,43357.4
62203.3,43356
62213,43355.5
62528,43355.5
Z" /> 
<path style="fill:#000000; fill-opacity:1.0; 
stroke:#000000; stroke-width:0; stroke-opacity:1; 
stroke-linecap:round; stroke-linejoin:round;fill-rule:evenodd;"
d="M 61317.1,43356
61326.7,43357.4
61336.1,43359.8
61345.1,43363
61353.9,43367.1
61362.2,43372.1
61369.9,43377.9
61377.1,43384.3
61383.6,43391.5
61389.3,43399.3
61394.3,43407.5
61398.4,43416.3
61401.7,43425.4
61404,43434.7
61405.4,43444.3
61405.9,43453.9
61405.9,43946.1
61405.4,43955.7
61404,43965.3
61401.7,43974.6
61398.4,43983.7
61394.3,43992.5
61389.3,44000.7
61383.6,44008.5
61377.1,44015.7
61369.9,44022.1
61362.2,44027.9
61353.9,44032.9
61345.1,44037
61336.1,44040.2
61326.7,44042.6
61317.1,44044
61307.5,44044.5
60992.5,44044.5
60982.9,44044
60973.3,44042.6
60963.9,44040.2
60954.9,44037
60946.1,44032.9
60937.8,44027.9
60930.1,44022.1
60922.9,44015.7
60916.4,44008.5
60910.7,44000.7
60905.7,43992.5
60901.6,43983.7
60898.3,43974.6
60896,43965.3
60894.6,43955.7
60894.1,43946.1
60894.1,43453.9
60894.6,43444.3
60896,43434.7
60898.3,43425.4
60901.6,43416.3
60905.7,43407.5
60910.7,43399.3
60916.4,43391.5
60922.9,43384.3
60930.1,43377.9
60937.8,43372.1
60946.1,43367.1
60954.9,43363
60963.9,43359.8
60973.3,43357.4
60982.9,43356
60992.5,43355.5
61307.5,43355.5
Z" /> 
</g>
<g >
</g>
<g style="fill:#000000; fill-opacity:1.0; 
stroke:#000000; stroke-width:0; stroke-opacity:1; 
stroke-linecap:round; stroke-linejoin:round;">
<path style="fill:#000000; fill-opacity:1.0; 
stroke:#000000; stroke-width:0; stroke-opacity:1; 
stroke-linecap:round; stroke-linejoin:round;fill-rule:evenodd;"
d="M 61317.1,41706
61326.7,41707.4
61336.1,41709.8
61345.1,41713
61353.9,41717.1
61362.2,41722.1
61369.9,41727.9
61377.1,41734.3
61383.6,41741.5
61389.3,41749.3
61394.3,41757.5
61398.4,41766.3
61401.7,41775.4
61404,41784.7
61405.4,41794.3
61405.9,41803.9
61405.9,42296.1
61405.4,42305.7
61404,42315.3
61401.7,42324.6
61398.4,42333.7
61394.3,42342.5
61389.3,42350.7
61383.6,42358.5
61377.1,42365.7
61369.9,42372.1
61362.2,42377.9
61353.9,42382.9
61345.1,42387
61336.1,42390.2
61326.7,42392.6
61317.1,42394
61307.5,42394.5
60992.5,42394.5
60982.9,42394
60973.3,42392.6
60963.9,42390.2
60954.9,42387
60946.1,42382.9
60937.8,42377.9
60930.1,42372.1
60922.9,42365.7
60916.4,42358.5
60910.7,42350.7
60905.7,42342.5
60901.6,42333.7
60898.3,42324.6
60896,42315.3
60894.6,42305.7
60894.1,42296.1
60894.1,41803.9
60894.6,41794.3
60896,41784.7
60898.3,41775.4
60901.6,41766.3
60905.7,41757.5
60910.7,41749.3
60916.4,41741.5
60922.9,41734.3
60930.1,41727.9
60937.8,41722.1
60946.1,41717.1
60954.9,41713
60963.9,41709.8
60973.3,41707.4
60982.9,41706
60992.5,41705.5
61307.5,41705.5
Z" /> 
<path style="fill:#000000; fill-opacity:1.0; 
stroke:#000000; stroke-width:0; stroke-opacity:1; 
stroke-linecap:round; stroke-linejoin:round;fill-rule:evenodd;"
d="M 62537.6,41706
62547.2,41707.4
62556.5,41709.8
62565.6,41713
62574.4,41717.1
62582.6,41722.1
62590.4,41727.9
62597.5,41734.3
62604,41741.5
62609.8,41749.3
62614.8,41757.5
62618.9,41766.3
62622.1,41775.4
62624.5,41784.7
62625.9,41794.3
62626.4,41803.9
62626.4,42296.1
62625.9,42305.7
62624.5,42315.3
62622.1,42324.6
62618.9,42333.7
62614.8,42342.5
62609.8,42350.7
62604,42358.5
62597.5,42365.7
62590.4,42372.1
62582.6,42377.9
62574.4,42382.9
62565.6,42387
62556.5,42390.2
62547.2,42392.6
62537.6,42394
62528,42394.5
62213,42394.5
62203.3,42394
62193.8,42392.6
62184.4,42390.2
62175.3,42387
62166.6,42382.9
62158.3,42377.9
62150.6,42372.1
62143.4,42365.7
62136.9,42358.5
62131.2,42350.7
62126.2,42342.5
62122.1,42333.7
62118.8,42324.6
62116.5,42315.3
62115,42305.7
62114.6,42296.1
62114.6,41803.9
62115,41794.3
62116.5,41784.7
62118.8,41775.4
62122.1,41766.3
62126.2,41757.5
62131.2,41749.3
62136.9,41741.5
62143.4,41734.3
62150.6,41727.9
62158.3,41722.1
62166.6,41717.1
62175.3,41713
62184.4,41709.8
62193.8,41707.4
62203.3,41706
62213,41705.5
62528,41705.5
Z" /> 
</g>
<g >
</g>
<g style="fill:#000000; fill-opacity:1.0; 
stroke:#000000; stroke-width:0; stroke-opacity:1; 
stroke-linecap:round; stroke-linejoin:round;">
<path style="fill:#000000; fill-opacity:1.0; 
stroke:#000000; stroke-width:0; stroke-opacity:1; 
stroke-linecap:round; stroke-linejoin:round;fill-rule:evenodd;"
d="M 52037.6,39206
52047.2,39207.4
52056.5,39209.8
52065.6,39213
52074.4,39217.1
52082.6,39222.1
52090.4,39227.9
52097.6,39234.3
52104,39241.5
52109.8,39249.3
52114.8,39257.5
52118.9,39266.3
52122.1,39275.4
52124.5,39284.7
52125.9,39294.3
52126.4,39303.9
52126.4,39796.1
52125.9,39805.7
52124.5,39815.3
52122.1,39824.6
52118.9,39833.7
52114.8,39842.5
52109.8,39850.7
52104,39858.5
52097.6,39865.7
52090.4,39872.1
52082.6,39877.9
52074.4,39882.9
52065.6,39887
52056.5,39890.2
52047.2,39892.6
52037.6,39894
52028,39894.5
51713,39894.5
51703.3,39894
51693.8,39892.6
51684.4,39890.2
51675.3,39887
51666.6,39882.9
51658.3,39877.9
51650.6,39872.1
51643.4,39865.7
51636.9,39858.5
51631.2,39850.7
51626.2,39842.5
51622.1,39833.7
51618.8,39824.6
51616.5,39815.3
51615,39805.7
51614.6,39796.1
51614.6,39303.9
51615,39294.3
51616.5,39284.7
51618.8,39275.4
51622.1,39266.3
51626.2,39257.5
51631.2,39249.3
51636.9,39241.5
51643.4,39234.3
51650.6,39227.9
51658.3,39222.1
51666.6,39217.1
51675.3,39213
51684.4,39209.8
51693.8,39207.4
51703.3,39206
51713,39205.5
52028,39205.5
Z" /> 
<path style="fill:#000000; fill-opacity:1.0; 
stroke:#000000; stroke-width:0; stroke-opacity:1; 
stroke-linecap:round; stroke-linejoin:round;fill-rule:evenodd;"
d="M 50817.1,39206
50826.7,39207.4
50836.1,39209.8
50845.1,39213
50853.9,39217.1
50862.2,39222.1
50869.9,39227.9
50877.1,39234.3
50883.6,39241.5
50889.3,39249.3
50894.3,39257.5
50898.4,39266.3
50901.7,39275.4
50904,39284.7
50905.4,39294.3
50905.9,39303.9
50905.9,39796.1
50905.4,39805.7
50904,39815.3
50901.7,39824.6
50898.4,39833.7
50894.3,39842.5
50889.3,39850.7
50883.6,39858.5
50877.1,39865.7
50869.9,39872.1
50862.2,39877.9
50853.9,39882.9
50845.1,39887
50836.1,39890.2
50826.7,39892.6
50817.1,39894
50807.5,39894.5
50492.5,39894.5
50482.9,39894
50473.3,39892.6
50463.9,39890.2
50454.9,39887
50446.1,39882.9
50437.8,39877.9
50430.1,39872.1
50422.9,39865.7
50416.4,39858.5
50410.7,39850.7
50405.7,39842.5
50401.6,39833.7
50398.3,39824.6
50396,39815.3
50394.6,39805.7
50394.1,39796.1
50394.1,39303.9
50394.6,39294.3
50396,39284.7
50398.3,39275.4
50401.6,39266.3
50405.7,39257.5
50410.7,39249.3
50416.4,39241.5
50422.9,39234.3
50430.1,39227.9
50437.8,39222.1
50446.1,39217.1
50454.9,39213
50463.9,39209.8
50473.3,39207.4
50482.9,39206
50492.5,39205.5
50807.5,39205.5
Z" /> 
</g>
<g >
</g>
<g style="fill:#000000; fill-opacity:1.0; 
stroke:#000000; stroke-width:0; stroke-opacity:1; 
stroke-linecap:round; stroke-linejoin:round;">
<path style="fill:#000000; fill-opacity:1.0; 
stroke:#000000; stroke-width:0; stroke-opacity:1; 
stroke-linecap:round; stroke-linejoin:round;fill-rule:evenodd;"
d="M 62627.4,48406
62636.9,48407.4
62646.3,48409.8
62655.4,48413
62664.1,48417.1
62672.4,48422.1
62680.2,48427.9
62687.3,48434.3
62693.8,48441.5
62699.6,48449.3
62704.5,48457.5
62708.6,48466.3
62711.9,48475.4
62714.3,48484.7
62715.7,48494.3
62716.1,48503.9
62716.1,48996.1
62715.7,49005.7
62714.3,49015.3
62711.9,49024.6
62708.6,49033.7
62704.5,49042.5
62699.6,49050.7
62693.8,49058.5
62687.3,49065.7
62680.2,49072.1
62672.4,49077.9
62664.1,49082.9
62655.4,49087
62646.3,49090.2
62636.9,49092.6
62627.4,49094
62617.7,49094.5
62302.8,49094.5
62293.1,49094
62283.6,49092.6
62274.2,49090.2
62265.1,49087
62256.4,49082.9
62248.1,49077.9
62240.3,49072.1
62233.2,49065.7
62226.7,49058.5
62220.9,49050.7
62216,49042.5
62211.8,49033.7
62208.6,49024.6
62206.2,49015.3
62204.8,49005.7
62204.3,48996.1
62204.3,48503.9
62204.8,48494.3
62206.2,48484.7
62208.6,48475.4
62211.8,48466.3
62216,48457.5
62220.9,48449.3
62226.7,48441.5
62233.2,48434.3
62240.3,48427.9
62248.1,48422.1
62256.4,48417.1
62265.1,48413
62274.2,48409.8
62283.6,48407.4
62293.1,48406
62302.8,48405.5
62617.7,48405.5
Z" /> 
<path style="fill:#000000; fill-opacity:1.0; 
stroke:#000000; stroke-width:0; stroke-opacity:1; 
stroke-linecap:round; stroke-linejoin:round;fill-rule:evenodd;"
d="M 61406.9,48406
61416.4,48407.4
61425.8,48409.8
61434.9,48413
61443.6,48417.1
61451.9,48422.1
61459.7,48427.9
61466.8,48434.3
61473.3,48441.5
61479.1,48449.3
61484,48457.5
61488.2,48466.3
61491.4,48475.4
61493.8,48484.7
61495.2,48494.3
61495.7,48503.9
61495.7,48996.1
61495.2,49005.7
61493.8,49015.3
61491.4,49024.6
61488.2,49033.7
61484,49042.5
61479.1,49050.7
61473.3,49058.5
61466.8,49065.7
61459.7,49072.1
61451.9,49077.9
61443.6,49082.9
61434.9,49087
61425.8,49090.2
61416.4,49092.6
61406.9,49094
61397.2,49094.5
61082.3,49094.5
61072.6,49094
61063.1,49092.6
61053.7,49090.2
61044.6,49087
61035.9,49082.9
61027.6,49077.9
61019.8,49072.1
61012.7,49065.7
61006.2,49058.5
61000.4,49050.7
60995.5,49042.5
60991.4,49033.7
60988.1,49024.6
60985.7,49015.3
60984.3,49005.7
60983.9,48996.1
60983.9,48503.9
60984.3,48494.3
60985.7,48484.7
60988.1,48475.4
60991.4,48466.3
60995.5,48457.5
61000.4,48449.3
61006.2,48441.5
61012.7,48434.3
61019.8,48427.9
61027.6,48422.1
61035.9,48417.1
61044.6,48413
61053.7,48409.8
61063.1,48407.4
61072.6,48406
61082.3,48405.5
61397.2,48405.5
Z" /> 
</g>
<g >
</g>
<g style="fill:#000000; fill-opacity:1.0; 
stroke:#000000; stroke-width:0; stroke-opacity:1; 
stroke-linecap:round; stroke-linejoin:round;">
<path style="fill:#000000; fill-opacity:1.0; 
stroke:#000000; stroke-width:0; stroke-opacity:1; 
stroke-linecap:round; stroke-linejoin:round;fill-rule:evenodd;"
d="M 62537.6,45056
62547.2,45057.4
62556.5,45059.8
62565.6,45063
62574.4,45067.1
62582.6,45072.1
62590.4,45077.9
62597.5,45084.3
62604,45091.5
62609.8,45099.3
62614.8,45107.5
62618.9,45116.3
62622.1,45125.4
62624.5,45134.7
62625.9,45144.3
62626.4,45153.9
62626.4,45646.1
62625.9,45655.7
62624.5,45665.3
62622.1,45674.6
62618.9,45683.7
62614.8,45692.5
62609.8,45700.7
62604,45708.5
62597.5,45715.7
62590.4,45722.1
62582.6,45727.9
62574.4,45732.9
62565.6,45737
62556.5,45740.2
62547.2,45742.6
62537.6,45744
62528,45744.5
62213,45744.5
62203.3,45744
62193.8,45742.6
62184.4,45740.2
62175.3,45737
62166.6,45732.9
62158.3,45727.9
62150.6,45722.1
62143.4,45715.7
62136.9,45708.5
62131.2,45700.7
62126.2,45692.5
62122.1,45683.7
62118.8,45674.6
62116.5,45665.3
62115,45655.7
62114.6,45646.1
62114.6,45153.9
62115,45144.3
62116.5,45134.7
62118.8,45125.4
62122.1,45116.3
62126.2,45107.5
62131.2,45099.3
62136.9,45091.5
62143.4,45084.3
62150.6,45077.9
62158.3,45072.1
62166.6,45067.1
62175.3,45063
62184.4,45059.8
62193.8,45057.4
62203.3,45056
62213,45055.5
62528,45055.5
Z" /> 
<path style="fill:#000000; fill-opacity:1.0; 
stroke:#000000; stroke-width:0; stroke-opacity:1; 
stroke-linecap:round; stroke-linejoin:round;fill-rule:evenodd;"
d="M 61317.1,45056
61326.7,45057.4
61336.1,45059.8
61345.1,45063
61353.9,45067.1
61362.2,45072.1
61369.9,45077.9
61377.1,45084.3
61383.6,45091.5
61389.3,45099.3
61394.3,45107.5
61398.4,45116.3
61401.7,45125.4
61404,45134.7
61405.4,45144.3
61405.9,45153.9
61405.9,45646.1
61405.4,45655.7
61404,45665.3
61401.7,45674.6
61398.4,45683.7
61394.3,45692.5
61389.3,45700.7
61383.6,45708.5
61377.1,45715.7
61369.9,45722.1
61362.2,45727.9
61353.9,45732.9
61345.1,45737
61336.1,45740.2
61326.7,45742.6
61317.1,45744
61307.5,45744.5
60992.5,45744.5
60982.9,45744
60973.3,45742.6
60963.9,45740.2
60954.9,45737
60946.1,45732.9
60937.8,45727.9
60930.1,45722.1
60922.9,45715.7
60916.4,45708.5
60910.7,45700.7
60905.7,45692.5
60901.6,45683.7
60898.3,45674.6
60896,45665.3
60894.6,45655.7
60894.1,45646.1
60894.1,45153.9
60894.6,45144.3
60896,45134.7
60898.3,45125.4
60901.6,45116.3
60905.7,45107.5
60910.7,45099.3
60916.4,45091.5
60922.9,45084.3
60930.1,45077.9
60937.8,45072.1
60946.1,45067.1
60954.9,45063
60963.9,45059.8
60973.3,45057.4
60982.9,45056
60992.5,45055.5
61307.5,45055.5
Z" /> 
</g>
<g >
</g>
<g style="fill:#000000; fill-opacity:1.0; 
stroke:#000000; stroke-width:0; stroke-opacity:1; 
stroke-linecap:round; stroke-linejoin:round;">
<path style="fill:#000000; fill-opacity:1.0; 
stroke:#000000; stroke-width:0; stroke-opacity:1; 
stroke-linecap:round; stroke-linejoin:round;fill-rule:evenodd;"
d="M 56737.6,29156
56747.2,29157.4
56756.5,29159.8
56765.6,29163
56774.4,29167.1
56782.6,29172.1
56790.4,29177.9
56797.5,29184.3
56804,29191.5
56809.8,29199.3
56814.8,29207.5
56818.9,29216.3
56822.1,29225.4
56824.5,29234.7
56825.9,29244.3
56826.4,29253.9
56826.4,29746.1
56825.9,29755.7
56824.5,29765.3
56822.1,29774.6
56818.9,29783.7
56814.8,29792.5
56809.8,29800.7
56804,29808.5
56797.5,29815.7
56790.4,29822.1
56782.6,29827.9
56774.4,29832.9
56765.6,29837
56756.5,29840.2
56747.2,29842.6
56737.6,29844
56728,29844.5
56413,29844.5
56403.3,29844
56393.8,29842.6
56384.4,29840.2
56375.3,29837
56366.6,29832.9
56358.3,29827.9
56350.6,29822.1
56343.4,29815.7
56336.9,29808.5
56331.2,29800.7
56326.2,29792.5
56322.1,29783.7
56318.8,29774.6
56316.5,29765.3
56315,29755.7
56314.6,29746.1
56314.6,29253.9
56315,29244.3
56316.5,29234.7
56318.8,29225.4
56322.1,29216.3
56326.2,29207.5
56331.2,29199.3
56336.9,29191.5
56343.4,29184.3
56350.6,29177.9
56358.3,29172.1
56366.6,29167.1
56375.3,29163
56384.4,29159.8
56393.8,29157.4
56403.3,29156
56413,29155.5
56728,29155.5
Z" /> 
<path style="fill:#000000; fill-opacity:1.0; 
stroke:#000000; stroke-width:0; stroke-opacity:1; 
stroke-linecap:round; stroke-linejoin:round;fill-rule:evenodd;"
d="M 55517.1,29156
55526.7,29157.4
55536.1,29159.8
55545.1,29163
55553.9,29167.1
55562.2,29172.1
55569.9,29177.9
55577.1,29184.3
55583.6,29191.5
55589.3,29199.3
55594.3,29207.5
55598.4,29216.3
55601.7,29225.4
55604,29234.7
55605.4,29244.3
55605.9,29253.9
55605.9,29746.1
55605.4,29755.7
55604,29765.3
55601.7,29774.6
55598.4,29783.7
55594.3,29792.5
55589.3,29800.7
55583.6,29808.5
55577.1,29815.7
55569.9,29822.1
55562.2,29827.9
55553.9,29832.9
55545.1,29837
55536.1,29840.2
55526.7,29842.6
55517.1,29844
55507.5,29844.5
55192.5,29844.5
55182.9,29844
55173.3,29842.6
55163.9,29840.2
55154.9,29837
55146.1,29832.9
55137.8,29827.9
55130.1,29822.1
55122.9,29815.7
55116.4,29808.5
55110.7,29800.7
55105.7,29792.5
55101.6,29783.7
55098.3,29774.6
55096,29765.3
55094.6,29755.7
55094.1,29746.1
55094.1,29253.9
55094.6,29244.3
55096,29234.7
55098.3,29225.4
55101.6,29216.3
55105.7,29207.5
55110.7,29199.3
55116.4,29191.5
55122.9,29184.3
55130.1,29177.9
55137.8,29172.1
55146.1,29167.1
55154.9,29163
55163.9,29159.8
55173.3,29157.4
55182.9,29156
55192.5,29155.5
55507.5,29155.5
Z" /> 
</g>
<g >
</g>
<g style="fill:#000000; fill-opacity:1.0; 
stroke:#000000; stroke-width:0; stroke-opacity:1; 
stroke-linecap:round; stroke-linejoin:round;">
<path style="fill:#000000; fill-opacity:1.0; 
stroke:#000000; stroke-width:0; stroke-opacity:1; 
stroke-linecap:round; stroke-linejoin:round;fill-rule:evenodd;"
d="M 60127.4,31656
60136.9,31657.4
60146.3,31659.8
60155.4,31663
60164.1,31667.1
60172.4,31672.1
60180.2,31677.9
60187.3,31684.3
60193.8,31691.5
60199.6,31699.3
60204.5,31707.5
60208.6,31716.3
60211.9,31725.4
60214.3,31734.7
60215.7,31744.3
60216.1,31753.9
60216.1,32246.1
60215.7,32255.7
60214.3,32265.3
60211.9,32274.6
60208.6,32283.7
60204.5,32292.5
60199.6,32300.7
60193.8,32308.5
60187.3,32315.7
60180.2,32322.1
60172.4,32327.9
60164.1,32332.9
60155.4,32337
60146.3,32340.2
60136.9,32342.6
60127.4,32344
60117.7,32344.5
59802.8,32344.5
59793.1,32344
59783.6,32342.6
59774.2,32340.2
59765.1,32337
59756.4,32332.9
59748.1,32327.9
59740.3,32322.1
59733.2,32315.7
59726.7,32308.5
59720.9,32300.7
59716,32292.5
59711.8,32283.7
59708.6,32274.6
59706.2,32265.3
59704.8,32255.7
59704.3,32246.1
59704.3,31753.9
59704.8,31744.3
59706.2,31734.7
59708.6,31725.4
59711.8,31716.3
59716,31707.5
59720.9,31699.3
59726.7,31691.5
59733.2,31684.3
59740.3,31677.9
59748.1,31672.1
59756.4,31667.1
59765.1,31663
59774.2,31659.8
59783.6,31657.4
59793.1,31656
59802.8,31655.5
60117.7,31655.5
Z" /> 
<path style="fill:#000000; fill-opacity:1.0; 
stroke:#000000; stroke-width:0; stroke-opacity:1; 
stroke-linecap:round; stroke-linejoin:round;fill-rule:evenodd;"
d="M 58906.9,31656
58916.4,31657.4
58925.8,31659.8
58934.9,31663
58943.6,31667.1
58951.9,31672.1
58959.7,31677.9
58966.8,31684.3
58973.3,31691.5
58979.1,31699.3
58984,31707.5
58988.2,31716.3
58991.4,31725.4
58993.8,31734.7
58995.2,31744.3
58995.7,31753.9
58995.7,32246.1
58995.2,32255.7
58993.8,32265.3
58991.4,32274.6
58988.2,32283.7
58984,32292.5
58979.1,32300.7
58973.3,32308.5
58966.8,32315.7
58959.7,32322.1
58951.9,32327.9
58943.6,32332.9
58934.9,32337
58925.8,32340.2
58916.4,32342.6
58906.9,32344
58897.2,32344.5
58582.3,32344.5
58572.6,32344
58563.1,32342.6
58553.7,32340.2
58544.6,32337
58535.9,32332.9
58527.6,32327.9
58519.8,32322.1
58512.7,32315.7
58506.2,32308.5
58500.4,32300.7
58495.5,32292.5
58491.4,32283.7
58488.1,32274.6
58485.7,32265.3
58484.3,32255.7
58483.9,32246.1
58483.9,31753.9
58484.3,31744.3
58485.7,31734.7
58488.1,31725.4
58491.4,31716.3
58495.5,31707.5
58500.4,31699.3
58506.2,31691.5
58512.7,31684.3
58519.8,31677.9
58527.6,31672.1
58535.9,31667.1
58544.6,31663
58553.7,31659.8
58563.1,31657.4
58572.6,31656
58582.3,31655.5
58897.2,31655.5
Z" /> 
</g>
<g >
</g>
<g style="fill:#000000; fill-opacity:1.0; 
stroke:#000000; stroke-width:0; stroke-opacity:1; 
stroke-linecap:round; stroke-linejoin:round;">
<path style="fill:#000000; fill-opacity:1.0; 
stroke:#000000; stroke-width:0; stroke-opacity:1; 
stroke-linecap:round; stroke-linejoin:round;fill-rule:evenodd;"
d="M 57246.7,47106
57256.2,47107.4
57265.6,47109.8
57274.7,47113
57283.4,47117.1
57291.7,47122.1
57299.4,47127.9
57306.6,47134.3
57313.1,47141.5
57318.8,47149.3
57323.8,47157.5
57327.9,47166.3
57331.2,47175.4
57333.5,47184.7
57335,47194.3
57335.4,47203.9
57335.4,47696.1
57335,47705.7
57333.5,47715.3
57331.2,47724.6
57327.9,47733.7
57323.8,47742.5
57318.8,47750.7
57313.1,47758.5
57306.6,47765.7
57299.4,47772.1
57291.7,47777.9
57283.4,47782.9
57274.7,47787
57265.6,47790.2
57256.2,47792.6
57246.7,47794
57237,47794.5
56922,47794.5
56912.4,47794
56902.8,47792.6
56893.5,47790.2
56884.4,47787
56875.6,47782.9
56867.4,47777.9
56859.6,47772.1
56852.4,47765.7
56846,47758.5
56840.2,47750.7
56835.2,47742.5
56831.1,47733.7
56827.9,47724.6
56825.5,47715.3
56824.1,47705.7
56823.6,47696.1
56823.6,47203.9
56824.1,47194.3
56825.5,47184.7
56827.9,47175.4
56831.1,47166.3
56835.2,47157.5
56840.2,47149.3
56846,47141.5
56852.4,47134.3
56859.6,47127.9
56867.4,47122.1
56875.6,47117.1
56884.4,47113
56893.5,47109.8
56902.8,47107.4
56912.4,47106
56922,47105.5
57237,47105.5
Z" /> 
<path style="fill:#000000; fill-opacity:1.0; 
stroke:#000000; stroke-width:0; stroke-opacity:1; 
stroke-linecap:round; stroke-linejoin:round;fill-rule:evenodd;"
d="M 58467.1,47106
58476.7,47107.4
58486.1,47109.8
58495.1,47113
58503.9,47117.1
58512.2,47122.1
58519.9,47127.9
58527.1,47134.3
58533.6,47141.5
58539.3,47149.3
58544.3,47157.5
58548.4,47166.3
58551.7,47175.4
58554,47184.7
58555.4,47194.3
58555.9,47203.9
58555.9,47696.1
58555.4,47705.7
58554,47715.3
58551.7,47724.6
58548.4,47733.7
58544.3,47742.5
58539.3,47750.7
58533.6,47758.5
58527.1,47765.7
58519.9,47772.1
58512.2,47777.9
58503.9,47782.9
58495.1,47787
58486.1,47790.2
58476.7,47792.6
58467.1,47794
58457.5,47794.5
58142.5,47794.5
58132.9,47794
58123.3,47792.6
58113.9,47790.2
58104.9,47787
58096.1,47782.9
58087.8,47777.9
58080.1,47772.1
58072.9,47765.7
58066.4,47758.5
58060.7,47750.7
58055.7,47742.5
58051.6,47733.7
58048.3,47724.6
58046,47715.3
58044.6,47705.7
58044.1,47696.1
58044.1,47203.9
58044.6,47194.3
58046,47184.7
58048.3,47175.4
58051.6,47166.3
58055.7,47157.5
58060.7,47149.3
58066.4,47141.5
58072.9,47134.3
58080.1,47127.9
58087.8,47122.1
58096.1,47117.1
58104.9,47113
58113.9,47109.8
58123.3,47107.4
58132.9,47106
58142.5,47105.5
58457.5,47105.5
Z" /> 
</g>
<g >
</g>
<g style="fill:#000000; fill-opacity:1.0; 
stroke:#000000; stroke-width:0; stroke-opacity:1; 
stroke-linecap:round; stroke-linejoin:round;">
<path style="fill:#000000; fill-opacity:1.0; 
stroke:#000000; stroke-width:0; stroke-opacity:1; 
stroke-linecap:round; stroke-linejoin:round;fill-rule:evenodd;"
d="M 62915.7,36034.6
62915.7,35365.4
64215,35365.4
64215,36034.6
Z" /> 
<path style="fill:#000000; fill-opacity:1.0; 
stroke:#000000; stroke-width:0; stroke-opacity:1; 
stroke-linecap:round; stroke-linejoin:round;fill-rule:evenodd;"
d="M 60750.4,36034.6
60750.4,35365.4
62049.6,35365.4
62049.6,36034.6
Z" /> 
</g>
<g >
</g>
<g style="fill:#000000; fill-opacity:1.0; 
stroke:#000000; stroke-width:0; stroke-opacity:1; 
stroke-linecap:round; stroke-linejoin:round;">
<path style="fill:#000000; fill-opacity:1.0; 
stroke:#000000; stroke-width:0; stroke-opacity:1; 
stroke-linecap:round; stroke-linejoin:round;fill-rule:evenodd;"
d="M 51684.3,45965.4
51684.3,46634.6
50385,46634.6
50385,45965.4
Z" /> 
<path style="fill:#000000; fill-opacity:1.0; 
stroke:#000000; stroke-width:0; stroke-opacity:1; 
stroke-linecap:round; stroke-linejoin:round;fill-rule:evenodd;"
d="M 53849.6,45965.4
53849.6,46634.6
52550.4,46634.6
52550.4,45965.4
Z" /> 
</g>
<g >
</g>
<g style="fill:#000000; fill-opacity:1.0; 
stroke:#000000; stroke-width:0; stroke-opacity:1; 
stroke-linecap:round; stroke-linejoin:round;">
<path style="fill:#000000; fill-opacity:1.0; 
stroke:#000000; stroke-width:0; stroke-opacity:1; 
stroke-linecap:round; stroke-linejoin:round;fill-rule:evenodd;"
d="M 60265.4,58583.1
60934.6,58583.1
60934.6,59882.3
60265.4,59882.3
Z" /> 
<path style="fill:#000000; fill-opacity:1.0; 
stroke:#000000; stroke-width:0; stroke-opacity:1; 
stroke-linecap:round; stroke-linejoin:round;fill-rule:evenodd;"
d="M 60265.4,56417.7
60934.6,56417.7
60934.6,57716.9
60265.4,57716.9
Z" /> 
</g>
<g >
</g>
<g style="fill:#000000; fill-opacity:1.0; 
stroke:#000000; stroke-width:0; stroke-opacity:1; 
stroke-linecap:round; stroke-linejoin:round;">
<path style="fill:#000000; fill-opacity:1.0; 
stroke:#000000; stroke-width:0; stroke-opacity:1; 
stroke-linecap:round; stroke-linejoin:round;fill-rule:evenodd;"
d="M 60934.6,52916.9
60265.4,52916.9
60265.4,51617.7
60934.6,51617.7
Z" /> 
<path style="fill:#000000; fill-opacity:1.0; 
stroke:#000000; stroke-width:0; stroke-opacity:1; 
stroke-linecap:round; stroke-linejoin:round;fill-rule:evenodd;"
d="M 60934.6,55082.3
60265.4,55082.3
60265.4,53783.1
60934.6,53783.1
Z" /> 
</g>
<g >
</g>
<g style="fill:#000000; fill-opacity:1.0; 
stroke:#000000; stroke-width:0; stroke-opacity:1; 
stroke-linecap:round; stroke-linejoin:round;">
<path style="fill:#000000; fill-opacity:1.0; 
stroke:#000000; stroke-width:0; stroke-opacity:1; 
stroke-linecap:round; stroke-linejoin:round;fill-rule:evenodd;"
d="M 63650.4,64134.6
63650.4,63465.4
64949.6,63465.4
64949.6,64134.6
Z" /> 
<path style="fill:#000000; fill-opacity:1.0; 
stroke:#000000; stroke-width:0; stroke-opacity:1; 
stroke-linecap:round; stroke-linejoin:round;fill-rule:evenodd;"
d="M 61485,64134.6
61485,63465.4
62784.3,63465.4
62784.3,64134.6
Z" /> 
</g>
<g >
</g>
<g >
</g>
<g >
</g>
<g >
</g>
<g >
</g>
<g >
</g>
<g >
</g>
<g >
</g>
<g >
</g>
<g >
</g>
<g >
</g>
<g >
</g>
<g >
</g>
<g >
</g>
<g >
</g>
<g >
</g>
<g >
</g>
<g >
</g>
<g >
</g>
<g >
</g>
<g >
</g>
<g style="fill:#000000; fill-opacity:1.0; 
stroke:#000000; stroke-width:0; stroke-opacity:1; 
stroke-linecap:round; stroke-linejoin:round;">
<path style="fill:#000000; fill-opacity:1.0; 
stroke:#000000; stroke-width:0; stroke-opacity:1; 
stroke-linecap:round; stroke-linejoin:round;fill-rule:evenodd;"
d="M 50991.5,53696.1
51001.1,53697.6
51010.5,53699.9
51019.6,53703.2
51028.3,53707.3
51036.6,53712.3
51044.3,53718
51051.5,53724.5
51058,53731.7
51063.7,53739.4
51068.7,53747.7
51072.8,53756.4
51076.1,53765.5
51078.4,53774.9
51079.8,53784.4
51080.3,53794.1
51080.3,54305.9
51079.8,54315.6
51078.4,54325.1
51076.1,54334.5
51072.8,54343.6
51068.7,54352.3
51063.7,54360.6
51058,54368.3
51051.5,54375.5
51044.3,54382
51036.6,54387.7
51028.3,54392.7
51019.6,54396.8
51010.5,54400.1
51001.1,54402.4
50991.5,54403.9
50981.9,54404.3
50657.1,54404.3
50647.4,54403.9
50637.9,54402.4
50628.5,54400.1
50619.4,54396.8
50610.7,54392.7
50602.4,54387.7
50594.6,54382
50587.5,54375.5
50581,54368.3
50575.2,54360.6
50570.3,54352.3
50566.2,54343.6
50562.9,54334.5
50560.6,54325.1
50559.1,54315.6
50558.7,54305.9
50558.7,53794.1
50559.1,53784.4
50560.6,53774.9
50562.9,53765.5
50566.2,53756.4
50570.3,53747.7
50575.2,53739.4
50581,53731.7
50587.5,53724.5
50594.6,53718
50602.4,53712.3
50610.7,53707.3
50619.4,53703.2
50628.5,53699.9
50637.9,53697.6
50647.4,53696.1
50657.1,53695.7
50981.9,53695.7
Z" /> 
<path style="fill:#000000; fill-opacity:1.0; 
stroke:#000000; stroke-width:0; stroke-opacity:1; 
stroke-linecap:round; stroke-linejoin:round;fill-rule:evenodd;"
d="M 52221.9,53696.1
52231.4,53697.6
52240.8,53699.9
52249.9,53703.2
52258.6,53707.3
52266.9,53712.3
52274.6,53718
52281.8,53724.5
52288.3,53731.7
52294,53739.4
52299,53747.7
52303.1,53756.4
52306.4,53765.5
52308.7,53774.9
52310.2,53784.4
52310.6,53794.1
52310.6,54305.9
52310.2,54315.6
52308.7,54325.1
52306.4,54334.5
52303.1,54343.6
52299,54352.3
52294,54360.6
52288.3,54368.3
52281.8,54375.5
52274.6,54382
52266.9,54387.7
52258.6,54392.7
52249.9,54396.8
52240.8,54400.1
52231.4,54402.4
52221.9,54403.9
52212.2,54404.3
51887.4,54404.3
51877.8,54403.9
51868.2,54402.4
51858.8,54400.1
51849.7,54396.8
51841,54392.7
51832.7,54387.7
51825,54382
51817.8,54375.5
51811.3,54368.3
51805.6,54360.6
51800.6,54352.3
51796.5,54343.6
51793.2,54334.5
51790.9,54325.1
51789.5,54315.6
51789,54305.9
51789,53794.1
51789.5,53784.4
51790.9,53774.9
51793.2,53765.5
51796.5,53756.4
51800.6,53747.7
51805.6,53739.4
51811.3,53731.7
51817.8,53724.5
51825,53718
51832.7,53712.3
51841,53707.3
51849.7,53703.2
51858.8,53699.9
51868.2,53697.6
51877.8,53696.1
51887.4,53695.7
52212.2,53695.7
Z" /> 
</g>
<g >
</g>
<g style="fill:#000000; fill-opacity:1.0; 
stroke:#000000; stroke-width:0; stroke-opacity:1; 
stroke-linecap:round; stroke-linejoin:round;">
<path style="fill:#000000; fill-opacity:1.0; 
stroke:#000000; stroke-width:0; stroke-opacity:1; 
stroke-linecap:round; stroke-linejoin:round;fill-rule:evenodd;"
d="M 53441.9,47496.1
53451.5,47497.6
53460.9,47499.9
53469.9,47503.2
53478.7,47507.3
53487,47512.3
53494.7,47518
53501.9,47524.5
53508.4,47531.7
53514.1,47539.4
53519.1,47547.7
53523.2,47556.4
53526.5,47565.5
53528.8,47574.9
53530.2,47584.4
53530.7,47594.1
53530.7,48105.9
53530.2,48115.6
53528.8,48125.1
53526.5,48134.5
53523.2,48143.6
53519.1,48152.3
53514.1,48160.6
53508.4,48168.3
53501.9,48175.5
53494.7,48182
53487,48187.7
53478.7,48192.7
53469.9,48196.8
53460.9,48200.1
53451.5,48202.4
53441.9,48203.9
53432.3,48204.3
53107.5,48204.3
53097.8,48203.9
53088.3,48202.4
53078.9,48200.1
53069.8,48196.8
53061.1,48192.7
53052.8,48187.7
53045,48182
53037.9,48175.5
53031.4,48168.3
53025.6,48160.6
53020.7,48152.3
53016.5,48143.6
53013.3,48134.5
53010.9,48125.1
53009.5,48115.6
53009.1,48105.9
53009.1,47594.1
53009.5,47584.4
53010.9,47574.9
53013.3,47565.5
53016.5,47556.4
53020.7,47547.7
53025.6,47539.4
53031.4,47531.7
53037.9,47524.5
53045,47518
53052.8,47512.3
53061.1,47507.3
53069.8,47503.2
53078.9,47499.9
53088.3,47497.6
53097.8,47496.1
53107.5,47495.7
53432.3,47495.7
Z" /> 
<path style="fill:#000000; fill-opacity:1.0; 
stroke:#000000; stroke-width:0; stroke-opacity:1; 
stroke-linecap:round; stroke-linejoin:round;fill-rule:evenodd;"
d="M 54672.2,47496.1
54681.8,47497.6
54691.2,47499.9
54700.3,47503.2
54709,47507.3
54717.3,47512.3
54725,47518
54732.2,47524.5
54738.7,47531.7
54744.4,47539.4
54749.4,47547.7
54753.5,47556.4
54756.8,47565.5
54759.1,47574.9
54760.5,47584.4
54761,47594.1
54761,48105.9
54760.5,48115.6
54759.1,48125.1
54756.8,48134.5
54753.5,48143.6
54749.4,48152.3
54744.4,48160.6
54738.7,48168.3
54732.2,48175.5
54725,48182
54717.3,48187.7
54709,48192.7
54700.3,48196.8
54691.2,48200.1
54681.8,48202.4
54672.2,48203.9
54662.6,48204.3
54337.8,48204.3
54328.1,48203.9
54318.6,48202.4
54309.2,48200.1
54300.1,48196.8
54291.4,48192.7
54283.1,48187.7
54275.4,48182
54268.2,48175.5
54261.7,48168.3
54256,48160.6
54251,48152.3
54246.9,48143.6
54243.6,48134.5
54241.3,48125.1
54239.8,48115.6
54239.4,48105.9
54239.4,47594.1
54239.8,47584.4
54241.3,47574.9
54243.6,47565.5
54246.9,47556.4
54251,47547.7
54256,47539.4
54261.7,47531.7
54268.2,47524.5
54275.4,47518
54283.1,47512.3
54291.4,47507.3
54300.1,47503.2
54309.2,47499.9
54318.6,47497.6
54328.1,47496.1
54337.8,47495.7
54662.6,47495.7
Z" /> 
</g>
<g >
</g>
<g >
</g>
<g >
</g>
<g style="fill:#000000; fill-opacity:1.0; 
stroke:#000000; stroke-width:0; stroke-opacity:1; 
stroke-linecap:round; stroke-linejoin:round;">
<path style="fill:#000000; fill-opacity:1.0; 
stroke:#000000; stroke-width:0; stroke-opacity:1; 
stroke-linecap:round; stroke-linejoin:round;fill-rule:evenodd;"
d="M 52391.5,25796.1
52401.1,25797.6
52410.5,25799.9
52419.6,25803.2
52428.3,25807.3
52436.6,25812.3
52444.3,25818
52451.5,25824.5
52458,25831.7
52463.7,25839.4
52468.7,25847.7
52472.8,25856.4
52476.1,25865.5
52478.4,25874.9
52479.8,25884.4
52480.3,25894.1
52480.3,26405.9
52479.8,26415.6
52478.4,26425.1
52476.1,26434.5
52472.8,26443.6
52468.7,26452.3
52463.7,26460.6
52458,26468.3
52451.5,26475.5
52444.3,26482
52436.6,26487.7
52428.3,26492.7
52419.6,26496.8
52410.5,26500.1
52401.1,26502.4
52391.5,26503.9
52381.9,26504.3
52057.1,26504.3
52047.4,26503.9
52037.9,26502.4
52028.5,26500.1
52019.4,26496.8
52010.7,26492.7
52002.4,26487.7
51994.6,26482
51987.5,26475.5
51981,26468.3
51975.2,26460.6
51970.3,26452.3
51966.2,26443.6
51962.9,26434.5
51960.6,26425.1
51959.1,26415.6
51958.7,26405.9
51958.7,25894.1
51959.1,25884.4
51960.6,25874.9
51962.9,25865.5
51966.2,25856.4
51970.3,25847.7
51975.2,25839.4
51981,25831.7
51987.5,25824.5
51994.6,25818
52002.4,25812.3
52010.7,25807.3
52019.4,25803.2
52028.5,25799.9
52037.9,25797.6
52047.4,25796.1
52057.1,25795.7
52381.9,25795.7
Z" /> 
<path style="fill:#000000; fill-opacity:1.0; 
stroke:#000000; stroke-width:0; stroke-opacity:1; 
stroke-linecap:round; stroke-linejoin:round;fill-rule:evenodd;"
d="M 53621.9,25796.1
53631.4,25797.6
53640.8,25799.9
53649.9,25803.2
53658.6,25807.3
53666.9,25812.3
53674.6,25818
53681.8,25824.5
53688.3,25831.7
53694,25839.4
53699,25847.7
53703.1,25856.4
53706.4,25865.5
53708.7,25874.9
53710.2,25884.4
53710.6,25894.1
53710.6,26405.9
53710.2,26415.6
53708.7,26425.1
53706.4,26434.5
53703.1,26443.6
53699,26452.3
53694,26460.6
53688.3,26468.3
53681.8,26475.5
53674.6,26482
53666.9,26487.7
53658.6,26492.7
53649.9,26496.8
53640.8,26500.1
53631.4,26502.4
53621.9,26503.9
53612.2,26504.3
53287.4,26504.3
53277.8,26503.9
53268.2,26502.4
53258.8,26500.1
53249.7,26496.8
53241,26492.7
53232.7,26487.7
53225,26482
53217.8,26475.5
53211.3,26468.3
53205.6,26460.6
53200.6,26452.3
53196.5,26443.6
53193.2,26434.5
53190.9,26425.1
53189.5,26415.6
53189,26405.9
53189,25894.1
53189.5,25884.4
53190.9,25874.9
53193.2,25865.5
53196.5,25856.4
53200.6,25847.7
53205.6,25839.4
53211.3,25831.7
53217.8,25824.5
53225,25818
53232.7,25812.3
53241,25807.3
53249.7,25803.2
53258.8,25799.9
53268.2,25797.6
53277.8,25796.1
53287.4,25795.7
53612.2,25795.7
Z" /> 
</g>
<g >
</g>
<g >
</g>
<g >
</g>
<g >
</g>
<g >
</g>
<g >
</g>
<g style="fill:#000000; fill-opacity:1.0; 
stroke:#000000; stroke-width:0; stroke-opacity:1; 
stroke-linecap:round; stroke-linejoin:round;">
<path style="fill:#000000; fill-opacity:1.0; 
stroke:#000000; stroke-width:0; stroke-opacity:1; 
stroke-linecap:round; stroke-linejoin:round;fill-rule:evenodd;"
d="M 58815.6,58859.1
58825.1,58860.6
58834.5,58862.9
58843.6,58866.2
58852.3,58870.3
58860.6,58875.2
58868.3,58881
58875.5,58887.5
58882,58894.6
58887.7,58902.4
58892.7,58910.7
58896.8,58919.4
58900.1,58928.5
58902.4,58937.9
58903.9,58947.4
58904.3,58957.1
58904.3,59281.9
58903.9,59291.5
58902.4,59301.1
58900.1,59310.5
58896.8,59319.6
58892.7,59328.3
58887.7,59336.6
58882,59344.3
58875.5,59351.5
58868.3,59358
58860.6,59363.7
58852.3,59368.7
58843.6,59372.8
58834.5,59376.1
58825.1,59378.4
58815.6,59379.8
58805.9,59380.3
58294.1,59380.3
58284.4,59379.8
58274.9,59378.4
58265.5,59376.1
58256.4,59372.8
58247.7,59368.7
58239.4,59363.7
58231.7,59358
58224.5,59351.5
58218,59344.3
58212.3,59336.6
58207.3,59328.3
58203.2,59319.6
58199.9,59310.5
58197.6,59301.1
58196.1,59291.5
58195.7,59281.9
58195.7,58957.1
58196.1,58947.4
58197.6,58937.9
58199.9,58928.5
58203.2,58919.4
58207.3,58910.7
58212.3,58902.4
58218,58894.6
58224.5,58887.5
58231.7,58881
58239.4,58875.2
58247.7,58870.3
58256.4,58866.2
58265.5,58862.9
58274.9,58860.6
58284.4,58859.1
58294.1,58858.7
58805.9,58858.7
Z" /> 
<path style="fill:#000000; fill-opacity:1.0; 
stroke:#000000; stroke-width:0; stroke-opacity:1; 
stroke-linecap:round; stroke-linejoin:round;fill-rule:evenodd;"
d="M 58815.6,60089.5
58825.1,60090.9
58834.5,60093.2
58843.6,60096.5
58852.3,60100.6
58860.6,60105.6
58868.3,60111.3
58875.5,60117.8
58882,60125
58887.7,60132.7
58892.7,60141
58896.8,60149.7
58900.1,60158.8
58902.4,60168.2
58903.9,60177.8
58904.3,60187.4
58904.3,60512.2
58903.9,60521.9
58902.4,60531.4
58900.1,60540.8
58896.8,60549.9
58892.7,60558.6
58887.7,60566.9
58882,60574.6
58875.5,60581.8
58868.3,60588.3
58860.6,60594
58852.3,60599
58843.6,60603.1
58834.5,60606.4
58825.1,60608.7
58815.6,60610.2
58805.9,60610.6
58294.1,60610.6
58284.4,60610.2
58274.9,60608.7
58265.5,60606.4
58256.4,60603.1
58247.7,60599
58239.4,60594
58231.7,60588.3
58224.5,60581.8
58218,60574.6
58212.3,60566.9
58207.3,60558.6
58203.2,60549.9
58199.9,60540.8
58197.6,60531.4
58196.1,60521.9
58195.7,60512.2
58195.7,60187.4
58196.1,60177.8
58197.6,60168.2
58199.9,60158.8
58203.2,60149.7
58207.3,60141
58212.3,60132.7
58218,60125
58224.5,60117.8
58231.7,60111.3
58239.4,60105.6
58247.7,60100.6
58256.4,60096.5
58265.5,60093.2
58274.9,60090.9
58284.4,60089.5
58294.1,60089
58805.9,60089
Z" /> 
</g>
<g >
</g>
<g style="fill:#000000; fill-opacity:1.0; 
stroke:#000000; stroke-width:0; stroke-opacity:1; 
stroke-linecap:round; stroke-linejoin:round;">
<path style="fill:#000000; fill-opacity:1.0; 
stroke:#000000; stroke-width:0; stroke-opacity:1; 
stroke-linecap:round; stroke-linejoin:round;fill-rule:evenodd;"
d="M 59115.6,55039.5
59125.1,55040.9
59134.5,55043.2
59143.6,55046.5
59152.3,55050.6
59160.6,55055.6
59168.3,55061.3
59175.5,55067.8
59182,55075
59187.7,55082.7
59192.7,55091
59196.8,55099.7
59200.1,55108.8
59202.4,55118.2
59203.9,55127.8
59204.3,55137.4
59204.3,55462.2
59203.9,55471.9
59202.4,55481.4
59200.1,55490.8
59196.8,55499.9
59192.7,55508.6
59187.7,55516.9
59182,55524.6
59175.5,55531.8
59168.3,55538.3
59160.6,55544
59152.3,55549
59143.6,55553.1
59134.5,55556.4
59125.1,55558.7
59115.6,55560.2
59105.9,55560.6
58594.1,55560.6
58584.4,55560.2
58574.9,55558.7
58565.5,55556.4
58556.4,55553.1
58547.7,55549
58539.4,55544
58531.7,55538.3
58524.5,55531.8
58518,55524.6
58512.3,55516.9
58507.3,55508.6
58503.2,55499.9
58499.9,55490.8
58497.6,55481.4
58496.1,55471.9
58495.7,55462.2
58495.7,55137.4
58496.1,55127.8
58497.6,55118.2
58499.9,55108.8
58503.2,55099.7
58507.3,55091
58512.3,55082.7
58518,55075
58524.5,55067.8
58531.7,55061.3
58539.4,55055.6
58547.7,55050.6
58556.4,55046.5
58565.5,55043.2
58574.9,55040.9
58584.4,55039.5
58594.1,55039
59105.9,55039
Z" /> 
<path style="fill:#000000; fill-opacity:1.0; 
stroke:#000000; stroke-width:0; stroke-opacity:1; 
stroke-linecap:round; stroke-linejoin:round;fill-rule:evenodd;"
d="M 59115.6,56269.8
59125.1,56271.2
59134.5,56273.5
59143.6,56276.8
59152.3,56280.9
59160.6,56285.9
59168.3,56291.6
59175.5,56298.1
59182,56305.3
59187.7,56313
59192.7,56321.3
59196.8,56330.1
59200.1,56339.1
59202.4,56348.5
59203.9,56358.1
59204.3,56367.7
59204.3,56692.5
59203.9,56702.2
59202.4,56711.7
59200.1,56721.1
59196.8,56730.2
59192.7,56738.9
59187.7,56747.2
59182,56755
59175.5,56762.1
59168.3,56768.6
59160.6,56774.4
59152.3,56779.3
59143.6,56783.5
59134.5,56786.7
59125.1,56789.1
59115.6,56790.5
59105.9,56790.9
58594.1,56790.9
58584.4,56790.5
58574.9,56789.1
58565.5,56786.7
58556.4,56783.5
58547.7,56779.3
58539.4,56774.4
58531.7,56768.6
58524.5,56762.1
58518,56755
58512.3,56747.2
58507.3,56738.9
58503.2,56730.2
58499.9,56721.1
58497.6,56711.7
58496.1,56702.2
58495.7,56692.5
58495.7,56367.7
58496.1,56358.1
58497.6,56348.5
58499.9,56339.1
58503.2,56330.1
58507.3,56321.3
58512.3,56313
58518,56305.3
58524.5,56298.1
58531.7,56291.6
58539.4,56285.9
58547.7,56280.9
58556.4,56276.8
58565.5,56273.5
58574.9,56271.2
58584.4,56269.8
58594.1,56269.3
59105.9,56269.3
Z" /> 
</g>
<g >
</g>
<g style="fill:#000000; fill-opacity:1.0; 
stroke:#000000; stroke-width:0; stroke-opacity:1; 
stroke-linecap:round; stroke-linejoin:round;">
<path style="fill:#000000; fill-opacity:1.0; 
stroke:#000000; stroke-width:0; stroke-opacity:1; 
stroke-linecap:round; stroke-linejoin:round;fill-rule:evenodd;"
d="M 52037.2,34846.1
52046.8,34847.6
52056.1,34849.9
52065.2,34853.2
52074,34857.3
52082.2,34862.3
52090,34868
52097.2,34874.5
52103.6,34881.7
52109.4,34889.4
52114.4,34897.7
52118.5,34906.4
52121.7,34915.5
52124.1,34924.9
52125.5,34934.4
52126,34944.1
52126,35455.9
52125.5,35465.6
52124.1,35475.1
52121.7,35484.5
52118.5,35493.6
52114.4,35502.3
52109.4,35510.6
52103.6,35518.3
52097.2,35525.5
52090,35532
52082.2,35537.7
52074,35542.7
52065.2,35546.8
52056.1,35550.1
52046.8,35552.4
52037.2,35553.9
52027.6,35554.3
51702.8,35554.3
51693.1,35553.9
51683.6,35552.4
51674.2,35550.1
51665.1,35546.8
51656.4,35542.7
51648.1,35537.7
51640.3,35532
51633.2,35525.5
51626.7,35518.3
51620.9,35510.6
51616,35502.3
51611.8,35493.6
51608.6,35484.5
51606.2,35475.1
51604.8,35465.6
51604.3,35455.9
51604.3,34944.1
51604.8,34934.4
51606.2,34924.9
51608.6,34915.5
51611.8,34906.4
51616,34897.7
51620.9,34889.4
51626.7,34881.7
51633.2,34874.5
51640.3,34868
51648.1,34862.3
51656.4,34857.3
51665.1,34853.2
51674.2,34849.9
51683.6,34847.6
51693.1,34846.1
51702.8,34845.7
52027.6,34845.7
Z" /> 
<path style="fill:#000000; fill-opacity:1.0; 
stroke:#000000; stroke-width:0; stroke-opacity:1; 
stroke-linecap:round; stroke-linejoin:round;fill-rule:evenodd;"
d="M 50806.9,34846.1
50816.4,34847.6
50825.8,34849.9
50834.9,34853.2
50843.6,34857.3
50851.9,34862.3
50859.7,34868
50866.8,34874.5
50873.3,34881.7
50879.1,34889.4
50884,34897.7
50888.2,34906.4
50891.4,34915.5
50893.8,34924.9
50895.2,34934.4
50895.7,34944.1
50895.7,35455.9
50895.2,35465.6
50893.8,35475.1
50891.4,35484.5
50888.2,35493.6
50884,35502.3
50879.1,35510.6
50873.3,35518.3
50866.8,35525.5
50859.7,35532
50851.9,35537.7
50843.6,35542.7
50834.9,35546.8
50825.8,35550.1
50816.4,35552.4
50806.9,35553.9
50797.2,35554.3
50472.4,35554.3
50462.8,35553.9
50453.2,35552.4
50443.9,35550.1
50434.8,35546.8
50426,35542.7
50417.8,35537.7
50410,35532
50402.8,35525.5
50396.4,35518.3
50390.6,35510.6
50385.6,35502.3
50381.5,35493.6
50378.3,35484.5
50375.9,35475.1
50374.5,35465.6
50374,35455.9
50374,34944.1
50374.5,34934.4
50375.9,34924.9
50378.3,34915.5
50381.5,34906.4
50385.6,34897.7
50390.6,34889.4
50396.4,34881.7
50402.8,34874.5
50410,34868
50417.8,34862.3
50426,34857.3
50434.8,34853.2
50443.9,34849.9
50453.2,34847.6
50462.8,34846.1
50472.4,34845.7
50797.2,34845.7
Z" /> 
</g>
<g >
</g>
<g style="fill:#000000; fill-opacity:1.0; 
stroke:#000000; stroke-width:0; stroke-opacity:1; 
stroke-linecap:round; stroke-linejoin:round;">
<path style="fill:#000000; fill-opacity:1.0; 
stroke:#000000; stroke-width:0; stroke-opacity:1; 
stroke-linecap:round; stroke-linejoin:round;fill-rule:evenodd;"
d="M 61322.2,46646.1
61331.8,46647.6
61341.2,46649.9
61350.3,46653.2
61359,46657.3
61367.3,46662.3
61375,46668
61382.2,46674.5
61388.7,46681.7
61394.4,46689.4
61399.4,46697.7
61403.5,46706.4
61406.8,46715.5
61409.1,46724.9
61410.5,46734.4
61411,46744.1
61411,47255.9
61410.5,47265.6
61409.1,47275.1
61406.8,47284.5
61403.5,47293.6
61399.4,47302.3
61394.4,47310.6
61388.7,47318.3
61382.2,47325.5
61375,47332
61367.3,47337.7
61359,47342.7
61350.3,47346.8
61341.2,47350.1
61331.8,47352.4
61322.2,47353.9
61312.6,47354.3
60987.8,47354.3
60978.1,47353.9
60968.6,47352.4
60959.2,47350.1
60950.1,47346.8
60941.4,47342.7
60933.1,47337.7
60925.4,47332
60918.2,47325.5
60911.7,47318.3
60906,47310.6
60901,47302.3
60896.9,47293.6
60893.6,47284.5
60891.3,47275.1
60889.8,47265.6
60889.4,47255.9
60889.4,46744.1
60889.8,46734.4
60891.3,46724.9
60893.6,46715.5
60896.9,46706.4
60901,46697.7
60906,46689.4
60911.7,46681.7
60918.2,46674.5
60925.4,46668
60933.1,46662.3
60941.4,46657.3
60950.1,46653.2
60959.2,46649.9
60968.6,46647.6
60978.1,46646.1
60987.8,46645.7
61312.6,46645.7
Z" /> 
<path style="fill:#000000; fill-opacity:1.0; 
stroke:#000000; stroke-width:0; stroke-opacity:1; 
stroke-linecap:round; stroke-linejoin:round;fill-rule:evenodd;"
d="M 62552.6,46646.1
62562.1,46647.6
62571.5,46649.9
62580.6,46653.2
62589.3,46657.3
62597.6,46662.3
62605.4,46668
62612.5,46674.5
62619,46681.7
62624.8,46689.4
62629.7,46697.7
62633.8,46706.4
62637.1,46715.5
62639.4,46724.9
62640.9,46734.4
62641.3,46744.1
62641.3,47255.9
62640.9,47265.6
62639.4,47275.1
62637.1,47284.5
62633.8,47293.6
62629.7,47302.3
62624.8,47310.6
62619,47318.3
62612.5,47325.5
62605.4,47332
62597.6,47337.7
62589.3,47342.7
62580.6,47346.8
62571.5,47350.1
62562.1,47352.4
62552.6,47353.9
62542.9,47354.3
62218.1,47354.3
62208.5,47353.9
62198.9,47352.4
62189.5,47350.1
62180.4,47346.8
62171.7,47342.7
62163.4,47337.7
62155.7,47332
62148.5,47325.5
62142,47318.3
62136.3,47310.6
62131.3,47302.3
62127.2,47293.6
62123.9,47284.5
62121.6,47275.1
62120.2,47265.6
62119.7,47255.9
62119.7,46744.1
62120.2,46734.4
62121.6,46724.9
62123.9,46715.5
62127.2,46706.4
62131.3,46697.7
62136.3,46689.4
62142,46681.7
62148.5,46674.5
62155.7,46668
62163.4,46662.3
62171.7,46657.3
62180.4,46653.2
62189.5,46649.9
62198.9,46647.6
62208.5,46646.1
62218.1,46645.7
62542.9,46645.7
Z" /> 
</g>
<g >
</g>
<g >
</g>
<g >
</g>
</g> 
</svg>
