<?xml version="1.0" standalone="no"?>
 <!DOCTYPE svg PUBLIC "-//W3C//DTD SVG 1.1//EN" 
 "http://www.w3.org/Graphics/SVG/1.1/DTD/svg11.dtd"> 
<svg
  xmlns:svg="http://www.w3.org/2000/svg"
  xmlns="http://www.w3.org/2000/svg"
  xmlns:xlink="http://www.w3.org/1999/xlink"
  version="1.1"
  width="29.700220cm" height="21.000720cm" viewBox="0 0 116930 82680">
<title>SVG Picture created as 8x8_Kick_Drum-F_CrtYd.svg date 2021/09/05 10:29:43 </title>
  <desc>Picture generated by PCBNEW </desc>
<g style="fill:#000000; fill-opacity:1;stroke:#000000; stroke-opacity:1;
stroke-linecap:round; stroke-linejoin:round;"
 transform="translate(0 0) scale(1 1)">
</g>
<g style="fill:#000000; fill-opacity:0.0; 
stroke:#000000; stroke-width:-0.000393701; stroke-opacity:1; 
stroke-linecap:round; stroke-linejoin:round;">
</g>
<g style="fill:#000000; fill-opacity:0.0; 
stroke:#000000; stroke-width:19.685; stroke-opacity:1; 
stroke-linecap:round; stroke-linejoin:round;">
<path d="M53009 62875
L53890 62875
" />
<path d="M53890 62875
L53890 64804
" />
<path d="M53890 64804
L53009 64804
" />
<path d="M53009 64804
L53009 62875
" />
<path d="M56859 61575
L57740 61575
" />
<path d="M57740 61575
L57740 63504
" />
<path d="M57740 63504
L56859 63504
" />
<path d="M56859 63504
L56859 61575
" />
<path d="M50409 62895
L51290 62895
" />
<path d="M51290 62895
L51290 64824
" />
<path d="M51290 64824
L50409 64824
" />
<path d="M50409 64824
L50409 62895
" />
<path d="M56174 61209
L56174 62090
" />
<path d="M56174 62090
L54245 62090
" />
<path d="M54245 62090
L54245 61209
" />
<path d="M54245 61209
L56174 61209
" />
<path d="M50725 58190
L50725 57309
" />
<path d="M50725 57309
L52654 57309
" />
<path d="M52654 57309
L52654 58190
" />
<path d="M52654 58190
L50725 58190
" />
<path d="M56240 51824
L55359 51824
" />
<path d="M55359 51824
L55359 49895
" />
<path d="M55359 49895
L56240 49895
" />
<path d="M56240 49895
L56240 51824
" />
<path d="M54874 53609
L54874 54490
" />
<path d="M54874 54490
L52945 54490
" />
<path d="M52945 54490
L52945 53609
" />
<path d="M52945 53609
L54874 53609
" />
<path d="M54004 28709
L54004 29590
" />
<path d="M54004 29590
L52075 29590
" />
<path d="M52075 29590
L52075 28709
" />
<path d="M52075 28709
L54004 28709
" />
<path d="M58714 34709
L58714 35590
" />
<path d="M58714 35590
L56785 35590
" />
<path d="M56785 35590
L56785 34709
" />
<path d="M56785 34709
L58714 34709
" />
<path d="M61625 29240
L61625 28359
" />
<path d="M61625 28359
L63554 28359
" />
<path d="M63554 28359
L63554 29240
" />
<path d="M63554 29240
L61625 29240
" />
<path d="M56864 30909
L56864 31790
" />
<path d="M56864 31790
L54935 31790
" />
<path d="M54935 31790
L54935 30909
" />
<path d="M54935 30909
L56864 30909
" />
<path d="M58654 32859
L58654 33740
" />
<path d="M58654 33740
L56725 33740
" />
<path d="M56725 33740
L56725 32859
" />
<path d="M56725 32859
L58654 32859
" />
<path d="M60695 32440
L60695 31559
" />
<path d="M60695 31559
L62624 31559
" />
<path d="M62624 31559
L62624 32440
" />
<path d="M62624 32440
L60695 32440
" />
<path d="M52274 44309
L52274 45190
" />
<path d="M52274 45190
L50345 45190
" />
<path d="M50345 45190
L50345 44309
" />
<path d="M50345 44309
L52274 44309
" />
<path d="M60775 40840
L60775 39959
" />
<path d="M60775 39959
L62704 39959
" />
<path d="M62704 39959
L62704 40840
" />
<path d="M62704 40840
L60775 40840
" />
<path d="M62624 33459
L62624 34340
" />
<path d="M62624 34340
L60695 34340
" />
<path d="M60695 34340
L60695 33459
" />
<path d="M60695 33459
L62624 33459
" />
<path d="M62604 36659
L62604 37540
" />
<path d="M62604 37540
L60675 37540
" />
<path d="M60675 37540
L60675 36659
" />
<path d="M60675 36659
L62604 36659
" />
<path d="M50325 41740
L50325 40859
" />
<path d="M50325 40859
L52254 40859
" />
<path d="M52254 40859
L52254 41740
" />
<path d="M52254 41740
L50325 41740
" />
<path d="M60795 44140
L60795 43259
" />
<path d="M60795 43259
L62724 43259
" />
<path d="M62724 43259
L62724 44140
" />
<path d="M62724 44140
L60795 44140
" />
<path d="M62724 41609
L62724 42490
" />
<path d="M62724 42490
L60795 42490
" />
<path d="M60795 42490
L60795 41609
" />
<path d="M60795 41609
L62724 41609
" />
<path d="M50295 39990
L50295 39109
" />
<path d="M50295 39109
L52224 39109
" />
<path d="M52224 39109
L52224 39990
" />
<path d="M52224 39990
L50295 39990
" />
<path d="M60885 49190
L60885 48309
" />
<path d="M60885 48309
L62814 48309
" />
<path d="M62814 48309
L62814 49190
" />
<path d="M62814 49190
L60885 49190
" />
<path d="M60795 45840
L60795 44959
" />
<path d="M60795 44959
L62724 44959
" />
<path d="M62724 44959
L62724 45840
" />
<path d="M62724 45840
L60795 45840
" />
<path d="M54995 29940
L54995 29059
" />
<path d="M54995 29059
L56924 29059
" />
<path d="M56924 29059
L56924 29940
" />
<path d="M56924 29940
L54995 29940
" />
<path d="M58385 32440
L58385 31559
" />
<path d="M58385 31559
L60314 31559
" />
<path d="M60314 31559
L60314 32440
" />
<path d="M60314 32440
L58385 32440
" />
<path d="M58654 47009
L58654 47890
" />
<path d="M58654 47890
L56725 47890
" />
<path d="M56725 47890
L56725 47009
" />
<path d="M56725 47009
L58654 47009
" />
<path d="M60651 35266
L64313 35266
" />
<path d="M64313 35266
L64313 36133
" />
<path d="M64313 36133
L60651 36133
" />
<path d="M60651 36133
L60651 35266
" />
<path d="M53948 46733
L50286 46733
" />
<path d="M50286 46733
L50286 45866
" />
<path d="M50286 45866
L53948 45866
" />
<path d="M53948 45866
L53948 46733
" />
<path d="M61033 56319
L61033 59980
" />
<path d="M61033 59980
L60166 59980
" />
<path d="M60166 59980
L60166 56319
" />
<path d="M60166 56319
L61033 56319
" />
<path d="M60166 55180
L60166 51519
" />
<path d="M60166 51519
L61033 51519
" />
<path d="M61033 51519
L61033 55180
" />
<path d="M61033 55180
L60166 55180
" />
<path d="M61386 63366
L65048 63366
" />
<path d="M65048 63366
L65048 64233
" />
<path d="M65048 64233
L61386 64233
" />
<path d="M61386 64233
L61386 63366
" />
<circle cx="55556.3" cy="66100" r="1082.68" /> 
<circle cx="58206.3" cy="50850" r="1082.68" /> 
<circle cx="56506.3" cy="26350" r="1082.68" /> 
<circle cx="56800" cy="57842.1" r="1338.58" /> 
<circle cx="56600" cy="54342.1" r="1338.58" /> 
<path d="M54832 48689
L50679 48689
" />
<path d="M54832 52902
L54832 48689
" />
<path d="M50679 52902
L54832 52902
" />
<path d="M50679 48689
L50679 52902
" />
<path d="M52951 60628
L50156 60628
" />
<path d="M52951 60628
L52951 58817
" />
<path d="M50156 58817
L50156 60628
" />
<path d="M50156 58817
L52951 58817
" />
<path d="M63171 34551
L63171 31756
" />
<path d="M63171 34551
L64982 34551
" />
<path d="M64982 31756
L63171 31756
" />
<path d="M64982 31756
L64982 34551
" />
<path d="M53051 38028
L50256 38028
" />
<path d="M53051 38028
L53051 36217
" />
<path d="M50256 36217
L50256 38028
" />
<path d="M50256 36217
L53051 36217
" />
<path d="M64828 39798
L64828 42593
" />
<path d="M64828 39798
L63017 39798
" />
<path d="M63017 42593
L64828 42593
" />
<path d="M63017 42593
L63017 39798
" />
<path d="M65128 44998
L65128 47793
" />
<path d="M65128 44998
L63317 44998
" />
<path d="M63317 47793
L65128 47793
" />
<path d="M63317 47793
L63317 44998
" />
<path d="M50271 34251
L50271 31456
" />
<path d="M50271 34251
L52082 34251
" />
<path d="M52082 31456
L50271 31456
" />
<path d="M52082 31456
L52082 34251
" />
<path d="M50458 53597
L52411 53597
" />
<path d="M50458 54502
L50458 53597
" />
<path d="M52411 54502
L50458 54502
" />
<path d="M52411 53597
L52411 54502
" />
<path d="M52908 47397
L54861 47397
" />
<path d="M52908 48302
L52908 47397
" />
<path d="M54861 48302
L52908 48302
" />
<path d="M54861 47397
L54861 48302
" />
<path d="M61201 59904
L65098 59904
" />
<path d="M61201 51495
L61201 59904
" />
<path d="M65098 51495
L61201 51495
" />
<path d="M65098 59904
L65098 51495
" />
<path d="M56374 63159
L54209 63159
" />
<path d="M56374 64340
L56374 63159
" />
<path d="M54209 64340
L56374 64340
" />
<path d="M54209 63159
L54209 64340
" />
<path d="M51858 25697
L53811 25697
" />
<path d="M51858 26602
L51858 25697
" />
<path d="M53811 26602
L51858 26602
" />
<path d="M53811 25697
L53811 26602
" />
<circle cx="53807.9" cy="34950" r="1338.58" /> 
<path d="M59890 30224
L59890 28059
" />
<path d="M58709 30224
L59890 30224
" />
<path d="M58709 28059
L58709 30224
" />
<path d="M59890 28059
L58709 28059
" />
<path d="M59940 27524
L59940 25359
" />
<path d="M58759 27524
L59940 27524
" />
<path d="M58759 25359
L58759 27524
" />
<path d="M59940 25359
L58759 25359
" />
<path d="M52424 42559
L50259 42559
" />
<path d="M52424 43740
L52424 42559
" />
<path d="M50259 43740
L52424 43740
" />
<path d="M50259 42559
L50259 43740
" />
<path d="M60675 39290
L62840 39290
" />
<path d="M60675 38109
L60675 39290
" />
<path d="M62840 38109
L60675 38109
" />
<path d="M62840 39290
L62840 38109
" />
<path d="M59002 58758
L59002 60711
" />
<path d="M58097 58758
L59002 58758
" />
<path d="M58097 60711
L58097 58758
" />
<path d="M59002 60711
L58097 60711
" />
<path d="M59302 54938
L59302 56891
" />
<path d="M58397 54938
L59302 54938
" />
<path d="M58397 56891
L58397 54938
" />
<path d="M59302 56891
L58397 56891
" />
<path d="M52226 35652
L50273 35652
" />
<path d="M52226 34747
L52226 35652
" />
<path d="M50273 34747
L52226 34747
" />
<path d="M50273 35652
L50273 34747
" />
<path d="M60788 46547
L62741 46547
" />
<path d="M60788 47452
L60788 46547
" />
<path d="M62741 47452
L60788 47452
" />
<path d="M62741 46547
L62741 47452
" />
<g >
</g>
<g >
</g>
<g >
</g>
<g >
</g>
<g >
</g>
<g >
</g>
<g >
</g>
<g >
</g>
<g >
</g>
<g >
</g>
<g >
</g>
<g >
</g>
<g >
</g>
<g >
</g>
<g >
</g>
<g >
</g>
<g >
</g>
<g >
</g>
<g >
</g>
<g >
</g>
<g >
</g>
<g >
</g>
<g >
</g>
<g >
</g>
<g >
</g>
<g >
</g>
<g >
</g>
<g >
</g>
<g >
</g>
<g >
</g>
<g >
</g>
<g >
</g>
<g >
</g>
<g >
</g>
<g >
</g>
<g >
</g>
<g >
</g>
<g >
</g>
<g >
</g>
<g >
</g>
<g >
</g>
<g >
</g>
<g >
</g>
<g >
</g>
<g >
</g>
<g >
</g>
<g >
</g>
<g >
</g>
<g >
</g>
<g >
</g>
<g >
</g>
<g >
</g>
<g >
</g>
<g >
</g>
<g >
</g>
<g >
</g>
<g >
</g>
<g >
</g>
<g >
</g>
<g >
</g>
<g >
</g>
<g >
</g>
<g >
</g>
<g >
</g>
<g >
</g>
<g >
</g>
</g> 
</svg>
