<?xml version="1.0" standalone="no"?>
 <!DOCTYPE svg PUBLIC "-//W3C//DTD SVG 1.1//EN" 
 "http://www.w3.org/Graphics/SVG/1.1/DTD/svg11.dtd"> 
<svg
  xmlns:svg="http://www.w3.org/2000/svg"
  xmlns="http://www.w3.org/2000/svg"
  xmlns:xlink="http://www.w3.org/1999/xlink"
  version="1.1"
  width="29.700220cm" height="21.000720cm" viewBox="0 0 116930 82680">
<title>SVG Picture created as 8x8_Kick_Drum-Cmts_User.svg date 2021/09/05 10:29:43 </title>
  <desc>Picture generated by PCBNEW </desc>
<g style="fill:#000000; fill-opacity:1;stroke:#000000; stroke-opacity:1;
stroke-linecap:round; stroke-linejoin:round;"
 transform="translate(0 0) scale(1 1)">
</g>
<g style="fill:#000000; fill-opacity:0.0; 
stroke:#000000; stroke-width:-0.000393701; stroke-opacity:1; 
stroke-linecap:round; stroke-linejoin:round;">
<g >
</g>
<g >
</g>
<g >
</g>
<g >
</g>
<g >
</g>
<g >
</g>
<g >
</g>
<g >
</g>
<g >
</g>
<g >
</g>
<g >
</g>
<g >
</g>
<g >
</g>
<g >
</g>
<g >
</g>
<g >
</g>
<g >
</g>
<g >
</g>
<g >
</g>
<g >
</g>
<g >
</g>
<g >
</g>
<g >
</g>
<g >
</g>
<g >
</g>
<g >
</g>
<g >
</g>
<g >
</g>
<g >
</g>
<g >
</g>
<g >
</g>
<g >
</g>
<g >
</g>
<g >
</g>
<g >
</g>
<g >
</g>
<g >
</g>
<g >
</g>
<g >
</g>
<g >
</g>
<g >
</g>
<g >
</g>
<g >
</g>
<g >
</g>
<g >
</g>
<g >
</g>
<g >
</g>
<g >
</g>
<g >
</g>
<g >
</g>
<g >
</g>
<g >
</g>
<g >
</g>
<g >
</g>
<g >
</g>
<g >
</g>
<g >
</g>
<g >
</g>
<g >
</g>
<g >
</g>
<g >
</g>
<g >
</g>
<g >
</g>
<g >
</g>
<g >
</g>
</g>
<g style="fill:#000000; fill-opacity:0.0; 
stroke:#000000; stroke-width:-0.000393701; stroke-opacity:1; 
stroke-linecap:round; stroke-linejoin:round;">
</g>
<g style="fill:#000000; fill-opacity:0.0; 
stroke:#000000; stroke-width:20.0787; stroke-opacity:1; 
stroke-linecap:round; stroke-linejoin:round;">
<text x="52100" y="64277.6"
textLength="1126.64" font-size="209.974" lengthAdjust="spacingAndGlyphs"
text-anchor="middle" opacity="0">KEEPOUT</text>
<path d="M51612 64270
L51612 64112
" />
<path d="M51702 64270
L51635 64180
" />
<path d="M51702 64112
L51612 64202
" />
<path d="M51770 64187
L51822 64187
" />
<path d="M51845 64270
L51770 64270
L51770 64112
L51845 64112
" />
<path d="M51912 64187
L51965 64187
" />
<path d="M51987 64270
L51912 64270
L51912 64112
L51987 64112
" />
<path d="M52055 64270
L52055 64112
L52114 64112
L52129 64120
L52137 64127
L52144 64142
L52144 64165
L52137 64180
L52129 64187
L52114 64195
L52055 64195
" />
<path d="M52242 64112
L52272 64112
L52287 64120
L52302 64135
L52309 64165
L52309 64217
L52302 64247
L52287 64262
L52272 64270
L52242 64270
L52227 64262
L52212 64247
L52204 64217
L52204 64165
L52212 64135
L52227 64120
L52242 64112
" />
<path d="M52377 64112
L52377 64240
L52384 64255
L52392 64262
L52407 64270
L52437 64270
L52452 64262
L52459 64255
L52467 64240
L52467 64112
" />
<path d="M52519 64112
L52609 64112
" />
<path d="M52564 64270
L52564 64112
" />
<text x="59100" y="64278.7"
textLength="1075.97" font-size="209.974" lengthAdjust="spacingAndGlyphs"
text-anchor="middle" opacity="0">KEEPOUT</text>
<path d="M58612 64271
L58612 64113
" />
<path d="M58702 64271
L58635 64181
" />
<path d="M58702 64113
L58612 64203
" />
<path d="M58770 64188
L58822 64188
" />
<path d="M58845 64271
L58770 64271
L58770 64113
L58845 64113
" />
<path d="M58912 64188
L58965 64188
" />
<path d="M58987 64271
L58912 64271
L58912 64113
L58987 64113
" />
<path d="M59055 64271
L59055 64113
L59114 64113
L59129 64121
L59137 64128
L59144 64143
L59144 64166
L59137 64181
L59129 64188
L59114 64196
L59055 64196
" />
<path d="M59242 64113
L59272 64113
L59287 64121
L59302 64136
L59309 64166
L59309 64218
L59302 64248
L59287 64263
L59272 64271
L59242 64271
L59227 64263
L59212 64248
L59204 64218
L59204 64166
L59212 64136
L59227 64121
L59242 64113
" />
<path d="M59377 64113
L59377 64241
L59384 64256
L59392 64263
L59407 64271
L59437 64271
L59452 64263
L59459 64256
L59467 64241
L59467 64113
" />
<path d="M59519 64113
L59609 64113
" />
<path d="M59564 64271
L59564 64113
" />
<text x="63150" y="64265.7"
textLength="1075.97" font-size="209.974" lengthAdjust="spacingAndGlyphs"
text-anchor="middle" opacity="0">KEEPOUT</text>
<path d="M62662 64258
L62662 64100
" />
<path d="M62752 64258
L62685 64168
" />
<path d="M62752 64100
L62662 64190
" />
<path d="M62820 64175
L62872 64175
" />
<path d="M62895 64258
L62820 64258
L62820 64100
L62895 64100
" />
<path d="M62962 64175
L63015 64175
" />
<path d="M63037 64258
L62962 64258
L62962 64100
L63037 64100
" />
<path d="M63105 64258
L63105 64100
L63164 64100
L63179 64108
L63187 64115
L63194 64130
L63194 64153
L63187 64168
L63179 64175
L63164 64183
L63105 64183
" />
<path d="M63292 64100
L63322 64100
L63337 64108
L63352 64123
L63359 64153
L63359 64205
L63352 64235
L63337 64250
L63322 64258
L63292 64258
L63277 64250
L63262 64235
L63254 64205
L63254 64153
L63262 64123
L63277 64108
L63292 64100
" />
<path d="M63427 64100
L63427 64228
L63434 64243
L63442 64250
L63457 64258
L63487 64258
L63502 64250
L63509 64243
L63517 64228
L63517 64100
" />
<path d="M63569 64100
L63659 64100
" />
<path d="M63614 64258
L63614 64100
" />
<g >
</g>
</g> 
</svg>
