<?xml version="1.0" standalone="no"?>
 <!DOCTYPE svg PUBLIC "-//W3C//DTD SVG 1.1//EN" 
 "http://www.w3.org/Graphics/SVG/1.1/DTD/svg11.dtd"> 
<svg
  xmlns:svg="http://www.w3.org/2000/svg"
  xmlns="http://www.w3.org/2000/svg"
  xmlns:xlink="http://www.w3.org/1999/xlink"
  version="1.1"
  width="29.700220cm" height="21.000720cm" viewBox="0 0 116930 82680">
<title>SVG Picture created as 8x8_Kick_Drum-B_CrtYd.svg date 2021/09/05 10:29:43 </title>
  <desc>Picture generated by PCBNEW </desc>
<g style="fill:#000000; fill-opacity:1;stroke:#000000; stroke-opacity:1;
stroke-linecap:round; stroke-linejoin:round;"
 transform="translate(0 0) scale(1 1)">
</g>
<g style="fill:#000000; fill-opacity:0.0; 
stroke:#000000; stroke-width:-0.000393701; stroke-opacity:1; 
stroke-linecap:round; stroke-linejoin:round;">
</g>
<g style="fill:#000000; fill-opacity:0.0; 
stroke:#000000; stroke-width:19.685; stroke-opacity:1; 
stroke-linecap:round; stroke-linejoin:round;">
<path d="M50131 61344
L50131 67183
" />
<path d="M54068 61344
L54068 67183
" />
<path d="M54068 61344
L50131 61344
" />
<path d="M54068 67183
L50131 67183
" />
<path d="M57131 61345
L57131 67184
" />
<path d="M61068 61345
L61068 67184
" />
<path d="M61068 61345
L57131 61345
" />
<path d="M61068 67184
L57131 67184
" />
<path d="M61181 61332
L61181 67171
" />
<path d="M65118 61332
L65118 67171
" />
<path d="M65118 61332
L61181 61332
" />
<path d="M65118 67171
L61181 67171
" />
<path d="M55186 37892
L60233 37892
" />
<path d="M60233 37892
L60233 43305
" />
<path d="M60233 43305
L55186 43305
" />
<path d="M55186 43305
L55186 37892
" />
<path d="M55142 44039
L60189 44039
" />
<path d="M60189 44039
L60189 49452
" />
<path d="M60189 49452
L55142 49452
" />
<path d="M55142 49452
L55142 44039
" />
<path d="M55186 31792
L60233 31792
" />
<path d="M60233 31792
L60233 37205
" />
<path d="M60233 37205
L55186 37205
" />
<path d="M55186 37205
L55186 31792
" />
<path d="M50216 25639
L55263 25639
" />
<path d="M55263 25639
L55263 31052
" />
<path d="M55263 31052
L50216 31052
" />
<path d="M50216 31052
L50216 25639
" />
<path d="M60036 25639
L65083 25639
" />
<path d="M65083 25639
L65083 31052
" />
<path d="M65083 31052
L60036 31052
" />
<path d="M60036 31052
L60036 25639
" />
<g >
</g>
<g >
</g>
<g >
</g>
<g >
</g>
<g >
</g>
<g >
</g>
<g >
</g>
<g >
</g>
<g >
</g>
<g >
</g>
<g >
</g>
<g >
</g>
<g >
</g>
<g >
</g>
<g >
</g>
<g >
</g>
<g >
</g>
<g >
</g>
<g >
</g>
<g >
</g>
<g >
</g>
<g >
</g>
<g >
</g>
<g >
</g>
<g >
</g>
<g >
</g>
<g >
</g>
<g >
</g>
<g >
</g>
<g >
</g>
<g >
</g>
<g >
</g>
<g >
</g>
<g >
</g>
<g >
</g>
<g >
</g>
<g >
</g>
<g >
</g>
<g >
</g>
<g >
</g>
<g >
</g>
<g >
</g>
<g >
</g>
<g >
</g>
<g >
</g>
<g >
</g>
<g >
</g>
<g >
</g>
<g >
</g>
<g >
</g>
<g >
</g>
<g >
</g>
<g >
</g>
<g >
</g>
<g >
</g>
<g >
</g>
<g >
</g>
<g >
</g>
<g >
</g>
<g >
</g>
<g >
</g>
<g >
</g>
<g >
</g>
<g >
</g>
<g >
</g>
<g >
</g>
</g> 
</svg>
