%TF.GenerationSoftware,KiCad,Pcbnew,(5.1.9)-1*%
%TF.CreationDate,2021-08-15T07:19:13+01:00*%
%TF.ProjectId,8x8_Kick_Drum,3878385f-4b69-4636-9b5f-4472756d2e6b,rev?*%
%TF.SameCoordinates,Original*%
%TF.FileFunction,Other,Fab,Top*%
%FSLAX46Y46*%
G04 Gerber Fmt 4.6, Leading zero omitted, Abs format (unit mm)*
G04 Created by KiCad (PCBNEW (5.1.9)-1) date 2021-08-15 07:19:13*
%MOMM*%
%LPD*%
G01*
G04 APERTURE LIST*
%ADD10C,0.100000*%
%ADD11C,0.120000*%
%ADD12C,0.150000*%
G04 APERTURE END LIST*
D10*
%TO.C,R26*%
X134963000Y-163753000D02*
X134963000Y-160553000D01*
X136563000Y-163753000D02*
X134963000Y-163753000D01*
X136563000Y-160553000D02*
X136563000Y-163753000D01*
X134963000Y-160553000D02*
X136563000Y-160553000D01*
%TO.C,R25*%
X144742000Y-160451000D02*
X144742000Y-157251000D01*
X146342000Y-160451000D02*
X144742000Y-160451000D01*
X146342000Y-157251000D02*
X146342000Y-160451000D01*
X144742000Y-157251000D02*
X146342000Y-157251000D01*
%TO.C,R24*%
X128359000Y-163805000D02*
X128359000Y-160605000D01*
X129959000Y-163805000D02*
X128359000Y-163805000D01*
X129959000Y-160605000D02*
X129959000Y-163805000D01*
X128359000Y-160605000D02*
X129959000Y-160605000D01*
%TO.C,R23*%
X138634000Y-155791000D02*
X141834000Y-155791000D01*
X138634000Y-157391000D02*
X138634000Y-155791000D01*
X141834000Y-157391000D02*
X138634000Y-157391000D01*
X141834000Y-155791000D02*
X141834000Y-157391000D01*
%TO.C,R22*%
X132892000Y-147485000D02*
X129692000Y-147485000D01*
X132892000Y-145885000D02*
X132892000Y-147485000D01*
X129692000Y-145885000D02*
X132892000Y-145885000D01*
X129692000Y-147485000D02*
X129692000Y-145885000D01*
%TO.C,R21*%
X142532000Y-127585000D02*
X142532000Y-130785000D01*
X140932000Y-127585000D02*
X142532000Y-127585000D01*
X140932000Y-130785000D02*
X140932000Y-127585000D01*
X142532000Y-130785000D02*
X140932000Y-130785000D01*
%TO.C,R20*%
X135332000Y-136487000D02*
X138532000Y-136487000D01*
X135332000Y-138087000D02*
X135332000Y-136487000D01*
X138532000Y-138087000D02*
X135332000Y-138087000D01*
X138532000Y-136487000D02*
X138532000Y-138087000D01*
%TO.C,R19*%
X133121000Y-73241000D02*
X136321000Y-73241000D01*
X133121000Y-74841000D02*
X133121000Y-73241000D01*
X136321000Y-74841000D02*
X133121000Y-74841000D01*
X136321000Y-73241000D02*
X136321000Y-74841000D01*
%TO.C,R18*%
X145085000Y-88481000D02*
X148285000Y-88481000D01*
X145085000Y-90081000D02*
X145085000Y-88481000D01*
X148285000Y-90081000D02*
X145085000Y-90081000D01*
X148285000Y-88481000D02*
X148285000Y-90081000D01*
%TO.C,R17*%
X160578000Y-73952000D02*
X157378000Y-73952000D01*
X160578000Y-72352000D02*
X160578000Y-73952000D01*
X157378000Y-72352000D02*
X160578000Y-72352000D01*
X157378000Y-73952000D02*
X157378000Y-72352000D01*
%TO.C,R16*%
X140386000Y-78829000D02*
X143586000Y-78829000D01*
X140386000Y-80429000D02*
X140386000Y-78829000D01*
X143586000Y-80429000D02*
X140386000Y-80429000D01*
X143586000Y-78829000D02*
X143586000Y-80429000D01*
%TO.C,R15*%
X144932000Y-83782000D02*
X148132000Y-83782000D01*
X144932000Y-85382000D02*
X144932000Y-83782000D01*
X148132000Y-85382000D02*
X144932000Y-85382000D01*
X148132000Y-83782000D02*
X148132000Y-85382000D01*
%TO.C,R14*%
X158217000Y-82080000D02*
X155017000Y-82080000D01*
X158217000Y-80480000D02*
X158217000Y-82080000D01*
X155017000Y-80480000D02*
X158217000Y-80480000D01*
X155017000Y-82080000D02*
X155017000Y-80480000D01*
%TO.C,R13*%
X128728000Y-112865000D02*
X131928000Y-112865000D01*
X128728000Y-114465000D02*
X128728000Y-112865000D01*
X131928000Y-114465000D02*
X128728000Y-114465000D01*
X131928000Y-112865000D02*
X131928000Y-114465000D01*
%TO.C,R12*%
X158419000Y-103416000D02*
X155219000Y-103416000D01*
X158419000Y-101816000D02*
X158419000Y-103416000D01*
X155219000Y-101816000D02*
X158419000Y-101816000D01*
X155219000Y-103416000D02*
X155219000Y-101816000D01*
%TO.C,R11*%
X155017000Y-85306000D02*
X158217000Y-85306000D01*
X155017000Y-86906000D02*
X155017000Y-85306000D01*
X158217000Y-86906000D02*
X155017000Y-86906000D01*
X158217000Y-85306000D02*
X158217000Y-86906000D01*
%TO.C,R10*%
X154965000Y-93434000D02*
X158165000Y-93434000D01*
X154965000Y-95034000D02*
X154965000Y-93434000D01*
X158165000Y-95034000D02*
X154965000Y-95034000D01*
X158165000Y-93434000D02*
X158165000Y-95034000D01*
%TO.C,R9*%
X131876000Y-105702000D02*
X128676000Y-105702000D01*
X131876000Y-104102000D02*
X131876000Y-105702000D01*
X128676000Y-104102000D02*
X131876000Y-104102000D01*
X128676000Y-105702000D02*
X128676000Y-104102000D01*
%TO.C,R8*%
X158471000Y-111798000D02*
X155271000Y-111798000D01*
X158471000Y-110198000D02*
X158471000Y-111798000D01*
X155271000Y-110198000D02*
X158471000Y-110198000D01*
X155271000Y-111798000D02*
X155271000Y-110198000D01*
%TO.C,R7*%
X155271000Y-106007000D02*
X158471000Y-106007000D01*
X155271000Y-107607000D02*
X155271000Y-106007000D01*
X158471000Y-107607000D02*
X155271000Y-107607000D01*
X158471000Y-106007000D02*
X158471000Y-107607000D01*
%TO.C,R6*%
X131801000Y-101257000D02*
X128601000Y-101257000D01*
X131801000Y-99657000D02*
X131801000Y-101257000D01*
X128601000Y-99657000D02*
X131801000Y-99657000D01*
X128601000Y-101257000D02*
X128601000Y-99657000D01*
%TO.C,R5*%
X158699000Y-124625000D02*
X155499000Y-124625000D01*
X158699000Y-123025000D02*
X158699000Y-124625000D01*
X155499000Y-123025000D02*
X158699000Y-123025000D01*
X155499000Y-124625000D02*
X155499000Y-123025000D01*
%TO.C,R4*%
X158471000Y-116116000D02*
X155271000Y-116116000D01*
X158471000Y-114516000D02*
X158471000Y-116116000D01*
X155271000Y-114516000D02*
X158471000Y-114516000D01*
X155271000Y-116116000D02*
X155271000Y-114516000D01*
%TO.C,R3*%
X143739000Y-75730000D02*
X140539000Y-75730000D01*
X143739000Y-74130000D02*
X143739000Y-75730000D01*
X140539000Y-74130000D02*
X143739000Y-74130000D01*
X140539000Y-75730000D02*
X140539000Y-74130000D01*
%TO.C,R2*%
X152349000Y-82080000D02*
X149149000Y-82080000D01*
X152349000Y-80480000D02*
X152349000Y-82080000D01*
X149149000Y-80480000D02*
X152349000Y-80480000D01*
X149149000Y-82080000D02*
X149149000Y-80480000D01*
%TO.C,R1*%
X144932000Y-119723000D02*
X148132000Y-119723000D01*
X144932000Y-121323000D02*
X144932000Y-119723000D01*
X148132000Y-121323000D02*
X144932000Y-121323000D01*
X148132000Y-119723000D02*
X148132000Y-121323000D01*
%TO.C,D5*%
X157956000Y-90678000D02*
X158356000Y-90678000D01*
X158356000Y-90678000D02*
X158356000Y-90128000D01*
X158356000Y-90678000D02*
X158356000Y-91228000D01*
X158356000Y-90678000D02*
X158956000Y-90278000D01*
X158956000Y-90278000D02*
X158956000Y-91078000D01*
X158956000Y-91078000D02*
X158356000Y-90678000D01*
X158956000Y-90678000D02*
X159456000Y-90678000D01*
X157056000Y-89878000D02*
X160356000Y-89878000D01*
X157056000Y-91478000D02*
X157056000Y-89878000D01*
X160356000Y-91478000D02*
X157056000Y-91478000D01*
X160356000Y-89878000D02*
X160356000Y-91478000D01*
%TO.C,D4*%
X133128000Y-117602000D02*
X132728000Y-117602000D01*
X132728000Y-117602000D02*
X132728000Y-118152000D01*
X132728000Y-117602000D02*
X132728000Y-117052000D01*
X132728000Y-117602000D02*
X132128000Y-118002000D01*
X132128000Y-118002000D02*
X132128000Y-117202000D01*
X132128000Y-117202000D02*
X132728000Y-117602000D01*
X132128000Y-117602000D02*
X131628000Y-117602000D01*
X134028000Y-118402000D02*
X130728000Y-118402000D01*
X134028000Y-116802000D02*
X134028000Y-118402000D01*
X130728000Y-116802000D02*
X134028000Y-116802000D01*
X130728000Y-118402000D02*
X130728000Y-116802000D01*
%TO.C,D3*%
X153924000Y-146951000D02*
X153924000Y-147351000D01*
X153924000Y-147351000D02*
X154474000Y-147351000D01*
X153924000Y-147351000D02*
X153374000Y-147351000D01*
X153924000Y-147351000D02*
X154324000Y-147951000D01*
X154324000Y-147951000D02*
X153524000Y-147951000D01*
X153524000Y-147951000D02*
X153924000Y-147351000D01*
X153924000Y-147951000D02*
X153924000Y-148451000D01*
X154724000Y-146051000D02*
X154724000Y-149351000D01*
X153124000Y-146051000D02*
X154724000Y-146051000D01*
X153124000Y-149351000D02*
X153124000Y-146051000D01*
X154724000Y-149351000D02*
X153124000Y-149351000D01*
%TO.C,D2*%
X153924000Y-136259000D02*
X153924000Y-135859000D01*
X153924000Y-135859000D02*
X153374000Y-135859000D01*
X153924000Y-135859000D02*
X154474000Y-135859000D01*
X153924000Y-135859000D02*
X153524000Y-135259000D01*
X153524000Y-135259000D02*
X154324000Y-135259000D01*
X154324000Y-135259000D02*
X153924000Y-135859000D01*
X153924000Y-135259000D02*
X153924000Y-134759000D01*
X153124000Y-137159000D02*
X153124000Y-133859000D01*
X154724000Y-137159000D02*
X153124000Y-137159000D01*
X154724000Y-133859000D02*
X154724000Y-137159000D01*
X153124000Y-133859000D02*
X154724000Y-133859000D01*
%TO.C,D1*%
X159822000Y-162052000D02*
X160222000Y-162052000D01*
X160222000Y-162052000D02*
X160222000Y-161502000D01*
X160222000Y-162052000D02*
X160222000Y-162602000D01*
X160222000Y-162052000D02*
X160822000Y-161652000D01*
X160822000Y-161652000D02*
X160822000Y-162452000D01*
X160822000Y-162452000D02*
X160222000Y-162052000D01*
X160822000Y-162052000D02*
X161322000Y-162052000D01*
X158922000Y-161252000D02*
X162222000Y-161252000D01*
X158922000Y-162852000D02*
X158922000Y-161252000D01*
X162222000Y-162852000D02*
X158922000Y-162852000D01*
X162222000Y-161252000D02*
X162222000Y-162852000D01*
%TO.C,C17*%
X143613000Y-167894000D02*
G75*
G03*
X143613000Y-167894000I-2500000J0D01*
G01*
X143246605Y-168981500D02*
X142746605Y-168981500D01*
X142996605Y-169231500D02*
X142996605Y-168731500D01*
%TO.C,C13*%
X150344000Y-129159000D02*
G75*
G03*
X150344000Y-129159000I-2500000J0D01*
G01*
X149977605Y-130246500D02*
X149477605Y-130246500D01*
X149727605Y-130496500D02*
X149727605Y-129996500D01*
%TO.C,C12*%
X146026000Y-66929000D02*
G75*
G03*
X146026000Y-66929000I-2500000J0D01*
G01*
X145659605Y-68016500D02*
X145159605Y-68016500D01*
X145409605Y-68266500D02*
X145409605Y-67766500D01*
%TO.C,C3*%
X147422000Y-146919000D02*
G75*
G03*
X147422000Y-146919000I-3150000J0D01*
G01*
X145645500Y-144225028D02*
X145645500Y-144855028D01*
X145960500Y-144540028D02*
X145330500Y-144540028D01*
%TO.C,C2*%
X146914000Y-138029000D02*
G75*
G03*
X146914000Y-138029000I-3150000J0D01*
G01*
X145137500Y-135335028D02*
X145137500Y-135965028D01*
X145452500Y-135650028D02*
X144822500Y-135650028D01*
%TO.C,U1*%
X131810000Y-123952000D02*
X137160000Y-123952000D01*
X137160000Y-123952000D02*
X137160000Y-134112000D01*
X137160000Y-134112000D02*
X130810000Y-134112000D01*
X130810000Y-134112000D02*
X130810000Y-124952000D01*
X130810000Y-124952000D02*
X131810000Y-123952000D01*
%TO.C,Q6*%
X129047000Y-153746000D02*
X132797000Y-153746000D01*
X129044182Y-153748385D02*
G75*
G02*
X130937000Y-149666000I1892818J1602385D01*
G01*
X132838103Y-153738547D02*
G75*
G03*
X130937000Y-149666000I-1901103J1592547D01*
G01*
%TO.C,Q5*%
X160706000Y-82311000D02*
X160706000Y-86061000D01*
X160703615Y-82308182D02*
G75*
G02*
X164786000Y-84201000I1602385J-1892818D01*
G01*
X160713453Y-86102103D02*
G75*
G03*
X164786000Y-84201000I1592547J1901103D01*
G01*
%TO.C,Q4*%
X129301000Y-96342000D02*
X133051000Y-96342000D01*
X129298182Y-96344385D02*
G75*
G02*
X131191000Y-92262000I1892818J1602385D01*
G01*
X133092103Y-96334547D02*
G75*
G03*
X131191000Y-92262000I-1901103J1592547D01*
G01*
%TO.C,Q3*%
X164414000Y-106538000D02*
X164414000Y-102788000D01*
X164416385Y-106540818D02*
G75*
G02*
X160334000Y-104648000I-1602385J1892818D01*
G01*
X164406547Y-102746897D02*
G75*
G03*
X160334000Y-104648000I-1592547J-1901103D01*
G01*
%TO.C,Q2*%
X165176000Y-119746000D02*
X165176000Y-115996000D01*
X165178385Y-119748818D02*
G75*
G02*
X161096000Y-117856000I-1602385J1892818D01*
G01*
X165168547Y-115954897D02*
G75*
G03*
X161096000Y-117856000I-1592547J-1901103D01*
G01*
%TO.C,Q1*%
X127940000Y-81549000D02*
X127940000Y-85299000D01*
X127937615Y-81546182D02*
G75*
G02*
X132020000Y-83439000I1602385J-1892818D01*
G01*
X127947453Y-85340103D02*
G75*
G03*
X132020000Y-83439000I1592547J1901103D01*
G01*
%TO.C,C16*%
X132244000Y-136487000D02*
X132244000Y-138087000D01*
X132244000Y-138087000D02*
X129044000Y-138087000D01*
X129044000Y-138087000D02*
X129044000Y-136487000D01*
X129044000Y-136487000D02*
X132244000Y-136487000D01*
%TO.C,C15*%
X138468000Y-120739000D02*
X138468000Y-122339000D01*
X138468000Y-122339000D02*
X135268000Y-122339000D01*
X135268000Y-122339000D02*
X135268000Y-120739000D01*
X135268000Y-120739000D02*
X138468000Y-120739000D01*
%TO.C,J1*%
X164851000Y-150658000D02*
X163851000Y-151658000D01*
X163851000Y-151658000D02*
X155951000Y-151658000D01*
X155951000Y-151658000D02*
X155951000Y-131298000D01*
X155951000Y-131298000D02*
X164851000Y-131298000D01*
X164851000Y-131298000D02*
X164851000Y-150658000D01*
X164851000Y-143528000D02*
X163651000Y-143528000D01*
X163651000Y-143528000D02*
X163651000Y-150468000D01*
X163651000Y-150468000D02*
X157151000Y-150468000D01*
X157151000Y-150468000D02*
X157151000Y-132488000D01*
X157151000Y-132488000D02*
X163651000Y-132488000D01*
X163651000Y-132488000D02*
X163651000Y-139428000D01*
X163651000Y-139428000D02*
X163651000Y-139428000D01*
X163651000Y-139428000D02*
X164851000Y-139428000D01*
%TO.C,C18*%
X137942000Y-160675000D02*
X137942000Y-163175000D01*
X137942000Y-163175000D02*
X142942000Y-163175000D01*
X142942000Y-163175000D02*
X142942000Y-160675000D01*
X142942000Y-160675000D02*
X137942000Y-160675000D01*
%TO.C,C11*%
X135800000Y-65621000D02*
X135800000Y-67221000D01*
X135800000Y-67221000D02*
X132600000Y-67221000D01*
X132600000Y-67221000D02*
X132600000Y-65621000D01*
X132600000Y-65621000D02*
X135800000Y-65621000D01*
%TO.C,C14*%
X139822000Y-88773000D02*
G75*
G03*
X139822000Y-88773000I-3150000J0D01*
G01*
X139365972Y-90146500D02*
X138735972Y-90146500D01*
X139050972Y-90461500D02*
X139050972Y-89831500D01*
%TO.C,C10*%
X151872000Y-71521000D02*
X149372000Y-71521000D01*
X149372000Y-71521000D02*
X149372000Y-76521000D01*
X149372000Y-76521000D02*
X151872000Y-76521000D01*
X151872000Y-76521000D02*
X151872000Y-71521000D01*
%TO.C,C9*%
X151999000Y-64663000D02*
X149499000Y-64663000D01*
X149499000Y-64663000D02*
X149499000Y-69663000D01*
X149499000Y-69663000D02*
X151999000Y-69663000D01*
X151999000Y-69663000D02*
X151999000Y-64663000D01*
%TO.C,C8*%
X127909000Y-108351000D02*
X127909000Y-110851000D01*
X127909000Y-110851000D02*
X132909000Y-110851000D01*
X132909000Y-110851000D02*
X132909000Y-108351000D01*
X132909000Y-108351000D02*
X127909000Y-108351000D01*
%TO.C,C7*%
X159365000Y-99548000D02*
X159365000Y-97048000D01*
X159365000Y-97048000D02*
X154365000Y-97048000D01*
X154365000Y-97048000D02*
X154365000Y-99548000D01*
X154365000Y-99548000D02*
X159365000Y-99548000D01*
%TO.C,C6*%
X149517000Y-153326000D02*
X147917000Y-153326000D01*
X147917000Y-153326000D02*
X147917000Y-150126000D01*
X147917000Y-150126000D02*
X149517000Y-150126000D01*
X149517000Y-150126000D02*
X149517000Y-153326000D01*
%TO.C,C5*%
X150279000Y-143624000D02*
X148679000Y-143624000D01*
X148679000Y-143624000D02*
X148679000Y-140424000D01*
X148679000Y-140424000D02*
X150279000Y-140424000D01*
X150279000Y-140424000D02*
X150279000Y-143624000D01*
%TO.C,C4*%
X128575000Y-90208000D02*
X128575000Y-88608000D01*
X128575000Y-88608000D02*
X131775000Y-88608000D01*
X131775000Y-88608000D02*
X131775000Y-90208000D01*
X131775000Y-90208000D02*
X128575000Y-90208000D01*
%TO.C,C1*%
X158484000Y-118580000D02*
X158484000Y-120180000D01*
X158484000Y-120180000D02*
X155284000Y-120180000D01*
X155284000Y-120180000D02*
X155284000Y-118580000D01*
X155284000Y-118580000D02*
X158484000Y-118580000D01*
%TD*%
%TO.C,R26*%
D11*
X136124904Y-162667285D02*
X135743952Y-162933952D01*
X136124904Y-163124428D02*
X135324904Y-163124428D01*
X135324904Y-162819666D01*
X135363000Y-162743476D01*
X135401095Y-162705380D01*
X135477285Y-162667285D01*
X135591571Y-162667285D01*
X135667761Y-162705380D01*
X135705857Y-162743476D01*
X135743952Y-162819666D01*
X135743952Y-163124428D01*
X135401095Y-162362523D02*
X135363000Y-162324428D01*
X135324904Y-162248238D01*
X135324904Y-162057761D01*
X135363000Y-161981571D01*
X135401095Y-161943476D01*
X135477285Y-161905380D01*
X135553476Y-161905380D01*
X135667761Y-161943476D01*
X136124904Y-162400619D01*
X136124904Y-161905380D01*
X135324904Y-161219666D02*
X135324904Y-161372047D01*
X135363000Y-161448238D01*
X135401095Y-161486333D01*
X135515380Y-161562523D01*
X135667761Y-161600619D01*
X135972523Y-161600619D01*
X136048714Y-161562523D01*
X136086809Y-161524428D01*
X136124904Y-161448238D01*
X136124904Y-161295857D01*
X136086809Y-161219666D01*
X136048714Y-161181571D01*
X135972523Y-161143476D01*
X135782047Y-161143476D01*
X135705857Y-161181571D01*
X135667761Y-161219666D01*
X135629666Y-161295857D01*
X135629666Y-161448238D01*
X135667761Y-161524428D01*
X135705857Y-161562523D01*
X135782047Y-161600619D01*
%TO.C,R25*%
X145903904Y-159365285D02*
X145522952Y-159631952D01*
X145903904Y-159822428D02*
X145103904Y-159822428D01*
X145103904Y-159517666D01*
X145142000Y-159441476D01*
X145180095Y-159403380D01*
X145256285Y-159365285D01*
X145370571Y-159365285D01*
X145446761Y-159403380D01*
X145484857Y-159441476D01*
X145522952Y-159517666D01*
X145522952Y-159822428D01*
X145180095Y-159060523D02*
X145142000Y-159022428D01*
X145103904Y-158946238D01*
X145103904Y-158755761D01*
X145142000Y-158679571D01*
X145180095Y-158641476D01*
X145256285Y-158603380D01*
X145332476Y-158603380D01*
X145446761Y-158641476D01*
X145903904Y-159098619D01*
X145903904Y-158603380D01*
X145103904Y-157879571D02*
X145103904Y-158260523D01*
X145484857Y-158298619D01*
X145446761Y-158260523D01*
X145408666Y-158184333D01*
X145408666Y-157993857D01*
X145446761Y-157917666D01*
X145484857Y-157879571D01*
X145561047Y-157841476D01*
X145751523Y-157841476D01*
X145827714Y-157879571D01*
X145865809Y-157917666D01*
X145903904Y-157993857D01*
X145903904Y-158184333D01*
X145865809Y-158260523D01*
X145827714Y-158298619D01*
%TO.C,R24*%
X129520904Y-162719285D02*
X129139952Y-162985952D01*
X129520904Y-163176428D02*
X128720904Y-163176428D01*
X128720904Y-162871666D01*
X128759000Y-162795476D01*
X128797095Y-162757380D01*
X128873285Y-162719285D01*
X128987571Y-162719285D01*
X129063761Y-162757380D01*
X129101857Y-162795476D01*
X129139952Y-162871666D01*
X129139952Y-163176428D01*
X128797095Y-162414523D02*
X128759000Y-162376428D01*
X128720904Y-162300238D01*
X128720904Y-162109761D01*
X128759000Y-162033571D01*
X128797095Y-161995476D01*
X128873285Y-161957380D01*
X128949476Y-161957380D01*
X129063761Y-161995476D01*
X129520904Y-162452619D01*
X129520904Y-161957380D01*
X128987571Y-161271666D02*
X129520904Y-161271666D01*
X128682809Y-161462142D02*
X129254238Y-161652619D01*
X129254238Y-161157380D01*
%TO.C,R23*%
X139719714Y-156952904D02*
X139453047Y-156571952D01*
X139262571Y-156952904D02*
X139262571Y-156152904D01*
X139567333Y-156152904D01*
X139643523Y-156191000D01*
X139681619Y-156229095D01*
X139719714Y-156305285D01*
X139719714Y-156419571D01*
X139681619Y-156495761D01*
X139643523Y-156533857D01*
X139567333Y-156571952D01*
X139262571Y-156571952D01*
X140024476Y-156229095D02*
X140062571Y-156191000D01*
X140138761Y-156152904D01*
X140329238Y-156152904D01*
X140405428Y-156191000D01*
X140443523Y-156229095D01*
X140481619Y-156305285D01*
X140481619Y-156381476D01*
X140443523Y-156495761D01*
X139986380Y-156952904D01*
X140481619Y-156952904D01*
X140748285Y-156152904D02*
X141243523Y-156152904D01*
X140976857Y-156457666D01*
X141091142Y-156457666D01*
X141167333Y-156495761D01*
X141205428Y-156533857D01*
X141243523Y-156610047D01*
X141243523Y-156800523D01*
X141205428Y-156876714D01*
X141167333Y-156914809D01*
X141091142Y-156952904D01*
X140862571Y-156952904D01*
X140786380Y-156914809D01*
X140748285Y-156876714D01*
%TO.C,R22*%
X130777714Y-147046904D02*
X130511047Y-146665952D01*
X130320571Y-147046904D02*
X130320571Y-146246904D01*
X130625333Y-146246904D01*
X130701523Y-146285000D01*
X130739619Y-146323095D01*
X130777714Y-146399285D01*
X130777714Y-146513571D01*
X130739619Y-146589761D01*
X130701523Y-146627857D01*
X130625333Y-146665952D01*
X130320571Y-146665952D01*
X131082476Y-146323095D02*
X131120571Y-146285000D01*
X131196761Y-146246904D01*
X131387238Y-146246904D01*
X131463428Y-146285000D01*
X131501523Y-146323095D01*
X131539619Y-146399285D01*
X131539619Y-146475476D01*
X131501523Y-146589761D01*
X131044380Y-147046904D01*
X131539619Y-147046904D01*
X131844380Y-146323095D02*
X131882476Y-146285000D01*
X131958666Y-146246904D01*
X132149142Y-146246904D01*
X132225333Y-146285000D01*
X132263428Y-146323095D01*
X132301523Y-146399285D01*
X132301523Y-146475476D01*
X132263428Y-146589761D01*
X131806285Y-147046904D01*
X132301523Y-147046904D01*
%TO.C,R21*%
X142093904Y-129699285D02*
X141712952Y-129965952D01*
X142093904Y-130156428D02*
X141293904Y-130156428D01*
X141293904Y-129851666D01*
X141332000Y-129775476D01*
X141370095Y-129737380D01*
X141446285Y-129699285D01*
X141560571Y-129699285D01*
X141636761Y-129737380D01*
X141674857Y-129775476D01*
X141712952Y-129851666D01*
X141712952Y-130156428D01*
X141370095Y-129394523D02*
X141332000Y-129356428D01*
X141293904Y-129280238D01*
X141293904Y-129089761D01*
X141332000Y-129013571D01*
X141370095Y-128975476D01*
X141446285Y-128937380D01*
X141522476Y-128937380D01*
X141636761Y-128975476D01*
X142093904Y-129432619D01*
X142093904Y-128937380D01*
X142093904Y-128175476D02*
X142093904Y-128632619D01*
X142093904Y-128404047D02*
X141293904Y-128404047D01*
X141408190Y-128480238D01*
X141484380Y-128556428D01*
X141522476Y-128632619D01*
%TO.C,R20*%
X136417714Y-137648904D02*
X136151047Y-137267952D01*
X135960571Y-137648904D02*
X135960571Y-136848904D01*
X136265333Y-136848904D01*
X136341523Y-136887000D01*
X136379619Y-136925095D01*
X136417714Y-137001285D01*
X136417714Y-137115571D01*
X136379619Y-137191761D01*
X136341523Y-137229857D01*
X136265333Y-137267952D01*
X135960571Y-137267952D01*
X136722476Y-136925095D02*
X136760571Y-136887000D01*
X136836761Y-136848904D01*
X137027238Y-136848904D01*
X137103428Y-136887000D01*
X137141523Y-136925095D01*
X137179619Y-137001285D01*
X137179619Y-137077476D01*
X137141523Y-137191761D01*
X136684380Y-137648904D01*
X137179619Y-137648904D01*
X137674857Y-136848904D02*
X137751047Y-136848904D01*
X137827238Y-136887000D01*
X137865333Y-136925095D01*
X137903428Y-137001285D01*
X137941523Y-137153666D01*
X137941523Y-137344142D01*
X137903428Y-137496523D01*
X137865333Y-137572714D01*
X137827238Y-137610809D01*
X137751047Y-137648904D01*
X137674857Y-137648904D01*
X137598666Y-137610809D01*
X137560571Y-137572714D01*
X137522476Y-137496523D01*
X137484380Y-137344142D01*
X137484380Y-137153666D01*
X137522476Y-137001285D01*
X137560571Y-136925095D01*
X137598666Y-136887000D01*
X137674857Y-136848904D01*
%TO.C,R19*%
X134206714Y-74402904D02*
X133940047Y-74021952D01*
X133749571Y-74402904D02*
X133749571Y-73602904D01*
X134054333Y-73602904D01*
X134130523Y-73641000D01*
X134168619Y-73679095D01*
X134206714Y-73755285D01*
X134206714Y-73869571D01*
X134168619Y-73945761D01*
X134130523Y-73983857D01*
X134054333Y-74021952D01*
X133749571Y-74021952D01*
X134968619Y-74402904D02*
X134511476Y-74402904D01*
X134740047Y-74402904D02*
X134740047Y-73602904D01*
X134663857Y-73717190D01*
X134587666Y-73793380D01*
X134511476Y-73831476D01*
X135349571Y-74402904D02*
X135501952Y-74402904D01*
X135578142Y-74364809D01*
X135616238Y-74326714D01*
X135692428Y-74212428D01*
X135730523Y-74060047D01*
X135730523Y-73755285D01*
X135692428Y-73679095D01*
X135654333Y-73641000D01*
X135578142Y-73602904D01*
X135425761Y-73602904D01*
X135349571Y-73641000D01*
X135311476Y-73679095D01*
X135273380Y-73755285D01*
X135273380Y-73945761D01*
X135311476Y-74021952D01*
X135349571Y-74060047D01*
X135425761Y-74098142D01*
X135578142Y-74098142D01*
X135654333Y-74060047D01*
X135692428Y-74021952D01*
X135730523Y-73945761D01*
%TO.C,R18*%
X146170714Y-89642904D02*
X145904047Y-89261952D01*
X145713571Y-89642904D02*
X145713571Y-88842904D01*
X146018333Y-88842904D01*
X146094523Y-88881000D01*
X146132619Y-88919095D01*
X146170714Y-88995285D01*
X146170714Y-89109571D01*
X146132619Y-89185761D01*
X146094523Y-89223857D01*
X146018333Y-89261952D01*
X145713571Y-89261952D01*
X146932619Y-89642904D02*
X146475476Y-89642904D01*
X146704047Y-89642904D02*
X146704047Y-88842904D01*
X146627857Y-88957190D01*
X146551666Y-89033380D01*
X146475476Y-89071476D01*
X147389761Y-89185761D02*
X147313571Y-89147666D01*
X147275476Y-89109571D01*
X147237380Y-89033380D01*
X147237380Y-88995285D01*
X147275476Y-88919095D01*
X147313571Y-88881000D01*
X147389761Y-88842904D01*
X147542142Y-88842904D01*
X147618333Y-88881000D01*
X147656428Y-88919095D01*
X147694523Y-88995285D01*
X147694523Y-89033380D01*
X147656428Y-89109571D01*
X147618333Y-89147666D01*
X147542142Y-89185761D01*
X147389761Y-89185761D01*
X147313571Y-89223857D01*
X147275476Y-89261952D01*
X147237380Y-89338142D01*
X147237380Y-89490523D01*
X147275476Y-89566714D01*
X147313571Y-89604809D01*
X147389761Y-89642904D01*
X147542142Y-89642904D01*
X147618333Y-89604809D01*
X147656428Y-89566714D01*
X147694523Y-89490523D01*
X147694523Y-89338142D01*
X147656428Y-89261952D01*
X147618333Y-89223857D01*
X147542142Y-89185761D01*
%TO.C,R17*%
X158463714Y-73513904D02*
X158197047Y-73132952D01*
X158006571Y-73513904D02*
X158006571Y-72713904D01*
X158311333Y-72713904D01*
X158387523Y-72752000D01*
X158425619Y-72790095D01*
X158463714Y-72866285D01*
X158463714Y-72980571D01*
X158425619Y-73056761D01*
X158387523Y-73094857D01*
X158311333Y-73132952D01*
X158006571Y-73132952D01*
X159225619Y-73513904D02*
X158768476Y-73513904D01*
X158997047Y-73513904D02*
X158997047Y-72713904D01*
X158920857Y-72828190D01*
X158844666Y-72904380D01*
X158768476Y-72942476D01*
X159492285Y-72713904D02*
X160025619Y-72713904D01*
X159682761Y-73513904D01*
%TO.C,R16*%
X141471714Y-79990904D02*
X141205047Y-79609952D01*
X141014571Y-79990904D02*
X141014571Y-79190904D01*
X141319333Y-79190904D01*
X141395523Y-79229000D01*
X141433619Y-79267095D01*
X141471714Y-79343285D01*
X141471714Y-79457571D01*
X141433619Y-79533761D01*
X141395523Y-79571857D01*
X141319333Y-79609952D01*
X141014571Y-79609952D01*
X142233619Y-79990904D02*
X141776476Y-79990904D01*
X142005047Y-79990904D02*
X142005047Y-79190904D01*
X141928857Y-79305190D01*
X141852666Y-79381380D01*
X141776476Y-79419476D01*
X142919333Y-79190904D02*
X142766952Y-79190904D01*
X142690761Y-79229000D01*
X142652666Y-79267095D01*
X142576476Y-79381380D01*
X142538380Y-79533761D01*
X142538380Y-79838523D01*
X142576476Y-79914714D01*
X142614571Y-79952809D01*
X142690761Y-79990904D01*
X142843142Y-79990904D01*
X142919333Y-79952809D01*
X142957428Y-79914714D01*
X142995523Y-79838523D01*
X142995523Y-79648047D01*
X142957428Y-79571857D01*
X142919333Y-79533761D01*
X142843142Y-79495666D01*
X142690761Y-79495666D01*
X142614571Y-79533761D01*
X142576476Y-79571857D01*
X142538380Y-79648047D01*
%TO.C,R15*%
X146017714Y-84943904D02*
X145751047Y-84562952D01*
X145560571Y-84943904D02*
X145560571Y-84143904D01*
X145865333Y-84143904D01*
X145941523Y-84182000D01*
X145979619Y-84220095D01*
X146017714Y-84296285D01*
X146017714Y-84410571D01*
X145979619Y-84486761D01*
X145941523Y-84524857D01*
X145865333Y-84562952D01*
X145560571Y-84562952D01*
X146779619Y-84943904D02*
X146322476Y-84943904D01*
X146551047Y-84943904D02*
X146551047Y-84143904D01*
X146474857Y-84258190D01*
X146398666Y-84334380D01*
X146322476Y-84372476D01*
X147503428Y-84143904D02*
X147122476Y-84143904D01*
X147084380Y-84524857D01*
X147122476Y-84486761D01*
X147198666Y-84448666D01*
X147389142Y-84448666D01*
X147465333Y-84486761D01*
X147503428Y-84524857D01*
X147541523Y-84601047D01*
X147541523Y-84791523D01*
X147503428Y-84867714D01*
X147465333Y-84905809D01*
X147389142Y-84943904D01*
X147198666Y-84943904D01*
X147122476Y-84905809D01*
X147084380Y-84867714D01*
%TO.C,R14*%
X156102714Y-81641904D02*
X155836047Y-81260952D01*
X155645571Y-81641904D02*
X155645571Y-80841904D01*
X155950333Y-80841904D01*
X156026523Y-80880000D01*
X156064619Y-80918095D01*
X156102714Y-80994285D01*
X156102714Y-81108571D01*
X156064619Y-81184761D01*
X156026523Y-81222857D01*
X155950333Y-81260952D01*
X155645571Y-81260952D01*
X156864619Y-81641904D02*
X156407476Y-81641904D01*
X156636047Y-81641904D02*
X156636047Y-80841904D01*
X156559857Y-80956190D01*
X156483666Y-81032380D01*
X156407476Y-81070476D01*
X157550333Y-81108571D02*
X157550333Y-81641904D01*
X157359857Y-80803809D02*
X157169380Y-81375238D01*
X157664619Y-81375238D01*
%TO.C,R13*%
X129813714Y-114026904D02*
X129547047Y-113645952D01*
X129356571Y-114026904D02*
X129356571Y-113226904D01*
X129661333Y-113226904D01*
X129737523Y-113265000D01*
X129775619Y-113303095D01*
X129813714Y-113379285D01*
X129813714Y-113493571D01*
X129775619Y-113569761D01*
X129737523Y-113607857D01*
X129661333Y-113645952D01*
X129356571Y-113645952D01*
X130575619Y-114026904D02*
X130118476Y-114026904D01*
X130347047Y-114026904D02*
X130347047Y-113226904D01*
X130270857Y-113341190D01*
X130194666Y-113417380D01*
X130118476Y-113455476D01*
X130842285Y-113226904D02*
X131337523Y-113226904D01*
X131070857Y-113531666D01*
X131185142Y-113531666D01*
X131261333Y-113569761D01*
X131299428Y-113607857D01*
X131337523Y-113684047D01*
X131337523Y-113874523D01*
X131299428Y-113950714D01*
X131261333Y-113988809D01*
X131185142Y-114026904D01*
X130956571Y-114026904D01*
X130880380Y-113988809D01*
X130842285Y-113950714D01*
%TO.C,R12*%
X156304714Y-102977904D02*
X156038047Y-102596952D01*
X155847571Y-102977904D02*
X155847571Y-102177904D01*
X156152333Y-102177904D01*
X156228523Y-102216000D01*
X156266619Y-102254095D01*
X156304714Y-102330285D01*
X156304714Y-102444571D01*
X156266619Y-102520761D01*
X156228523Y-102558857D01*
X156152333Y-102596952D01*
X155847571Y-102596952D01*
X157066619Y-102977904D02*
X156609476Y-102977904D01*
X156838047Y-102977904D02*
X156838047Y-102177904D01*
X156761857Y-102292190D01*
X156685666Y-102368380D01*
X156609476Y-102406476D01*
X157371380Y-102254095D02*
X157409476Y-102216000D01*
X157485666Y-102177904D01*
X157676142Y-102177904D01*
X157752333Y-102216000D01*
X157790428Y-102254095D01*
X157828523Y-102330285D01*
X157828523Y-102406476D01*
X157790428Y-102520761D01*
X157333285Y-102977904D01*
X157828523Y-102977904D01*
%TO.C,R11*%
X156102714Y-86467904D02*
X155836047Y-86086952D01*
X155645571Y-86467904D02*
X155645571Y-85667904D01*
X155950333Y-85667904D01*
X156026523Y-85706000D01*
X156064619Y-85744095D01*
X156102714Y-85820285D01*
X156102714Y-85934571D01*
X156064619Y-86010761D01*
X156026523Y-86048857D01*
X155950333Y-86086952D01*
X155645571Y-86086952D01*
X156864619Y-86467904D02*
X156407476Y-86467904D01*
X156636047Y-86467904D02*
X156636047Y-85667904D01*
X156559857Y-85782190D01*
X156483666Y-85858380D01*
X156407476Y-85896476D01*
X157626523Y-86467904D02*
X157169380Y-86467904D01*
X157397952Y-86467904D02*
X157397952Y-85667904D01*
X157321761Y-85782190D01*
X157245571Y-85858380D01*
X157169380Y-85896476D01*
%TO.C,R10*%
X156050714Y-94595904D02*
X155784047Y-94214952D01*
X155593571Y-94595904D02*
X155593571Y-93795904D01*
X155898333Y-93795904D01*
X155974523Y-93834000D01*
X156012619Y-93872095D01*
X156050714Y-93948285D01*
X156050714Y-94062571D01*
X156012619Y-94138761D01*
X155974523Y-94176857D01*
X155898333Y-94214952D01*
X155593571Y-94214952D01*
X156812619Y-94595904D02*
X156355476Y-94595904D01*
X156584047Y-94595904D02*
X156584047Y-93795904D01*
X156507857Y-93910190D01*
X156431666Y-93986380D01*
X156355476Y-94024476D01*
X157307857Y-93795904D02*
X157384047Y-93795904D01*
X157460238Y-93834000D01*
X157498333Y-93872095D01*
X157536428Y-93948285D01*
X157574523Y-94100666D01*
X157574523Y-94291142D01*
X157536428Y-94443523D01*
X157498333Y-94519714D01*
X157460238Y-94557809D01*
X157384047Y-94595904D01*
X157307857Y-94595904D01*
X157231666Y-94557809D01*
X157193571Y-94519714D01*
X157155476Y-94443523D01*
X157117380Y-94291142D01*
X157117380Y-94100666D01*
X157155476Y-93948285D01*
X157193571Y-93872095D01*
X157231666Y-93834000D01*
X157307857Y-93795904D01*
%TO.C,R9*%
X130142666Y-105263904D02*
X129876000Y-104882952D01*
X129685523Y-105263904D02*
X129685523Y-104463904D01*
X129990285Y-104463904D01*
X130066476Y-104502000D01*
X130104571Y-104540095D01*
X130142666Y-104616285D01*
X130142666Y-104730571D01*
X130104571Y-104806761D01*
X130066476Y-104844857D01*
X129990285Y-104882952D01*
X129685523Y-104882952D01*
X130523619Y-105263904D02*
X130676000Y-105263904D01*
X130752190Y-105225809D01*
X130790285Y-105187714D01*
X130866476Y-105073428D01*
X130904571Y-104921047D01*
X130904571Y-104616285D01*
X130866476Y-104540095D01*
X130828380Y-104502000D01*
X130752190Y-104463904D01*
X130599809Y-104463904D01*
X130523619Y-104502000D01*
X130485523Y-104540095D01*
X130447428Y-104616285D01*
X130447428Y-104806761D01*
X130485523Y-104882952D01*
X130523619Y-104921047D01*
X130599809Y-104959142D01*
X130752190Y-104959142D01*
X130828380Y-104921047D01*
X130866476Y-104882952D01*
X130904571Y-104806761D01*
%TO.C,R8*%
X156737666Y-111359904D02*
X156471000Y-110978952D01*
X156280523Y-111359904D02*
X156280523Y-110559904D01*
X156585285Y-110559904D01*
X156661476Y-110598000D01*
X156699571Y-110636095D01*
X156737666Y-110712285D01*
X156737666Y-110826571D01*
X156699571Y-110902761D01*
X156661476Y-110940857D01*
X156585285Y-110978952D01*
X156280523Y-110978952D01*
X157194809Y-110902761D02*
X157118619Y-110864666D01*
X157080523Y-110826571D01*
X157042428Y-110750380D01*
X157042428Y-110712285D01*
X157080523Y-110636095D01*
X157118619Y-110598000D01*
X157194809Y-110559904D01*
X157347190Y-110559904D01*
X157423380Y-110598000D01*
X157461476Y-110636095D01*
X157499571Y-110712285D01*
X157499571Y-110750380D01*
X157461476Y-110826571D01*
X157423380Y-110864666D01*
X157347190Y-110902761D01*
X157194809Y-110902761D01*
X157118619Y-110940857D01*
X157080523Y-110978952D01*
X157042428Y-111055142D01*
X157042428Y-111207523D01*
X157080523Y-111283714D01*
X157118619Y-111321809D01*
X157194809Y-111359904D01*
X157347190Y-111359904D01*
X157423380Y-111321809D01*
X157461476Y-111283714D01*
X157499571Y-111207523D01*
X157499571Y-111055142D01*
X157461476Y-110978952D01*
X157423380Y-110940857D01*
X157347190Y-110902761D01*
%TO.C,R7*%
X156737666Y-107168904D02*
X156471000Y-106787952D01*
X156280523Y-107168904D02*
X156280523Y-106368904D01*
X156585285Y-106368904D01*
X156661476Y-106407000D01*
X156699571Y-106445095D01*
X156737666Y-106521285D01*
X156737666Y-106635571D01*
X156699571Y-106711761D01*
X156661476Y-106749857D01*
X156585285Y-106787952D01*
X156280523Y-106787952D01*
X157004333Y-106368904D02*
X157537666Y-106368904D01*
X157194809Y-107168904D01*
%TO.C,R6*%
X130067666Y-100818904D02*
X129801000Y-100437952D01*
X129610523Y-100818904D02*
X129610523Y-100018904D01*
X129915285Y-100018904D01*
X129991476Y-100057000D01*
X130029571Y-100095095D01*
X130067666Y-100171285D01*
X130067666Y-100285571D01*
X130029571Y-100361761D01*
X129991476Y-100399857D01*
X129915285Y-100437952D01*
X129610523Y-100437952D01*
X130753380Y-100018904D02*
X130601000Y-100018904D01*
X130524809Y-100057000D01*
X130486714Y-100095095D01*
X130410523Y-100209380D01*
X130372428Y-100361761D01*
X130372428Y-100666523D01*
X130410523Y-100742714D01*
X130448619Y-100780809D01*
X130524809Y-100818904D01*
X130677190Y-100818904D01*
X130753380Y-100780809D01*
X130791476Y-100742714D01*
X130829571Y-100666523D01*
X130829571Y-100476047D01*
X130791476Y-100399857D01*
X130753380Y-100361761D01*
X130677190Y-100323666D01*
X130524809Y-100323666D01*
X130448619Y-100361761D01*
X130410523Y-100399857D01*
X130372428Y-100476047D01*
%TO.C,R5*%
X156965666Y-124186904D02*
X156699000Y-123805952D01*
X156508523Y-124186904D02*
X156508523Y-123386904D01*
X156813285Y-123386904D01*
X156889476Y-123425000D01*
X156927571Y-123463095D01*
X156965666Y-123539285D01*
X156965666Y-123653571D01*
X156927571Y-123729761D01*
X156889476Y-123767857D01*
X156813285Y-123805952D01*
X156508523Y-123805952D01*
X157689476Y-123386904D02*
X157308523Y-123386904D01*
X157270428Y-123767857D01*
X157308523Y-123729761D01*
X157384714Y-123691666D01*
X157575190Y-123691666D01*
X157651380Y-123729761D01*
X157689476Y-123767857D01*
X157727571Y-123844047D01*
X157727571Y-124034523D01*
X157689476Y-124110714D01*
X157651380Y-124148809D01*
X157575190Y-124186904D01*
X157384714Y-124186904D01*
X157308523Y-124148809D01*
X157270428Y-124110714D01*
%TO.C,R4*%
X156737666Y-115677904D02*
X156471000Y-115296952D01*
X156280523Y-115677904D02*
X156280523Y-114877904D01*
X156585285Y-114877904D01*
X156661476Y-114916000D01*
X156699571Y-114954095D01*
X156737666Y-115030285D01*
X156737666Y-115144571D01*
X156699571Y-115220761D01*
X156661476Y-115258857D01*
X156585285Y-115296952D01*
X156280523Y-115296952D01*
X157423380Y-115144571D02*
X157423380Y-115677904D01*
X157232904Y-114839809D02*
X157042428Y-115411238D01*
X157537666Y-115411238D01*
%TO.C,R3*%
X142005666Y-75291904D02*
X141739000Y-74910952D01*
X141548523Y-75291904D02*
X141548523Y-74491904D01*
X141853285Y-74491904D01*
X141929476Y-74530000D01*
X141967571Y-74568095D01*
X142005666Y-74644285D01*
X142005666Y-74758571D01*
X141967571Y-74834761D01*
X141929476Y-74872857D01*
X141853285Y-74910952D01*
X141548523Y-74910952D01*
X142272333Y-74491904D02*
X142767571Y-74491904D01*
X142500904Y-74796666D01*
X142615190Y-74796666D01*
X142691380Y-74834761D01*
X142729476Y-74872857D01*
X142767571Y-74949047D01*
X142767571Y-75139523D01*
X142729476Y-75215714D01*
X142691380Y-75253809D01*
X142615190Y-75291904D01*
X142386619Y-75291904D01*
X142310428Y-75253809D01*
X142272333Y-75215714D01*
%TO.C,R2*%
X150615666Y-81641904D02*
X150349000Y-81260952D01*
X150158523Y-81641904D02*
X150158523Y-80841904D01*
X150463285Y-80841904D01*
X150539476Y-80880000D01*
X150577571Y-80918095D01*
X150615666Y-80994285D01*
X150615666Y-81108571D01*
X150577571Y-81184761D01*
X150539476Y-81222857D01*
X150463285Y-81260952D01*
X150158523Y-81260952D01*
X150920428Y-80918095D02*
X150958523Y-80880000D01*
X151034714Y-80841904D01*
X151225190Y-80841904D01*
X151301380Y-80880000D01*
X151339476Y-80918095D01*
X151377571Y-80994285D01*
X151377571Y-81070476D01*
X151339476Y-81184761D01*
X150882333Y-81641904D01*
X151377571Y-81641904D01*
%TO.C,R1*%
X146398666Y-120884904D02*
X146132000Y-120503952D01*
X145941523Y-120884904D02*
X145941523Y-120084904D01*
X146246285Y-120084904D01*
X146322476Y-120123000D01*
X146360571Y-120161095D01*
X146398666Y-120237285D01*
X146398666Y-120351571D01*
X146360571Y-120427761D01*
X146322476Y-120465857D01*
X146246285Y-120503952D01*
X145941523Y-120503952D01*
X147160571Y-120884904D02*
X146703428Y-120884904D01*
X146932000Y-120884904D02*
X146932000Y-120084904D01*
X146855809Y-120199190D01*
X146779619Y-120275380D01*
X146703428Y-120313476D01*
%TO.C,D5*%
D12*
X161313904Y-91130380D02*
X161313904Y-90130380D01*
X161552000Y-90130380D01*
X161694857Y-90178000D01*
X161790095Y-90273238D01*
X161837714Y-90368476D01*
X161885333Y-90558952D01*
X161885333Y-90701809D01*
X161837714Y-90892285D01*
X161790095Y-90987523D01*
X161694857Y-91082761D01*
X161552000Y-91130380D01*
X161313904Y-91130380D01*
X162790095Y-90130380D02*
X162313904Y-90130380D01*
X162266285Y-90606571D01*
X162313904Y-90558952D01*
X162409142Y-90511333D01*
X162647238Y-90511333D01*
X162742476Y-90558952D01*
X162790095Y-90606571D01*
X162837714Y-90701809D01*
X162837714Y-90939904D01*
X162790095Y-91035142D01*
X162742476Y-91082761D01*
X162647238Y-91130380D01*
X162409142Y-91130380D01*
X162313904Y-91082761D01*
X162266285Y-91035142D01*
%TO.C,D4*%
X128889904Y-118054380D02*
X128889904Y-117054380D01*
X129128000Y-117054380D01*
X129270857Y-117102000D01*
X129366095Y-117197238D01*
X129413714Y-117292476D01*
X129461333Y-117482952D01*
X129461333Y-117625809D01*
X129413714Y-117816285D01*
X129366095Y-117911523D01*
X129270857Y-118006761D01*
X129128000Y-118054380D01*
X128889904Y-118054380D01*
X130318476Y-117387714D02*
X130318476Y-118054380D01*
X130080380Y-117006761D02*
X129842285Y-117721047D01*
X130461333Y-117721047D01*
%TO.C,D3*%
X156126380Y-148439095D02*
X155126380Y-148439095D01*
X155126380Y-148201000D01*
X155174000Y-148058142D01*
X155269238Y-147962904D01*
X155364476Y-147915285D01*
X155554952Y-147867666D01*
X155697809Y-147867666D01*
X155888285Y-147915285D01*
X155983523Y-147962904D01*
X156078761Y-148058142D01*
X156126380Y-148201000D01*
X156126380Y-148439095D01*
X155126380Y-147534333D02*
X155126380Y-146915285D01*
X155507333Y-147248619D01*
X155507333Y-147105761D01*
X155554952Y-147010523D01*
X155602571Y-146962904D01*
X155697809Y-146915285D01*
X155935904Y-146915285D01*
X156031142Y-146962904D01*
X156078761Y-147010523D01*
X156126380Y-147105761D01*
X156126380Y-147391476D01*
X156078761Y-147486714D01*
X156031142Y-147534333D01*
%TO.C,D2*%
X154503380Y-132691095D02*
X153503380Y-132691095D01*
X153503380Y-132453000D01*
X153551000Y-132310142D01*
X153646238Y-132214904D01*
X153741476Y-132167285D01*
X153931952Y-132119666D01*
X154074809Y-132119666D01*
X154265285Y-132167285D01*
X154360523Y-132214904D01*
X154455761Y-132310142D01*
X154503380Y-132453000D01*
X154503380Y-132691095D01*
X153598619Y-131738714D02*
X153551000Y-131691095D01*
X153503380Y-131595857D01*
X153503380Y-131357761D01*
X153551000Y-131262523D01*
X153598619Y-131214904D01*
X153693857Y-131167285D01*
X153789095Y-131167285D01*
X153931952Y-131214904D01*
X154503380Y-131786333D01*
X154503380Y-131167285D01*
%TO.C,D1*%
X159833904Y-160754380D02*
X159833904Y-159754380D01*
X160072000Y-159754380D01*
X160214857Y-159802000D01*
X160310095Y-159897238D01*
X160357714Y-159992476D01*
X160405333Y-160182952D01*
X160405333Y-160325809D01*
X160357714Y-160516285D01*
X160310095Y-160611523D01*
X160214857Y-160706761D01*
X160072000Y-160754380D01*
X159833904Y-160754380D01*
X161357714Y-160754380D02*
X160786285Y-160754380D01*
X161072000Y-160754380D02*
X161072000Y-159754380D01*
X160976761Y-159897238D01*
X160881523Y-159992476D01*
X160786285Y-160040095D01*
%TO.C,C17*%
X140470142Y-168251142D02*
X140422523Y-168298761D01*
X140279666Y-168346380D01*
X140184428Y-168346380D01*
X140041571Y-168298761D01*
X139946333Y-168203523D01*
X139898714Y-168108285D01*
X139851095Y-167917809D01*
X139851095Y-167774952D01*
X139898714Y-167584476D01*
X139946333Y-167489238D01*
X140041571Y-167394000D01*
X140184428Y-167346380D01*
X140279666Y-167346380D01*
X140422523Y-167394000D01*
X140470142Y-167441619D01*
X141422523Y-168346380D02*
X140851095Y-168346380D01*
X141136809Y-168346380D02*
X141136809Y-167346380D01*
X141041571Y-167489238D01*
X140946333Y-167584476D01*
X140851095Y-167632095D01*
X141755857Y-167346380D02*
X142422523Y-167346380D01*
X141993952Y-168346380D01*
%TO.C,C13*%
X147201142Y-129516142D02*
X147153523Y-129563761D01*
X147010666Y-129611380D01*
X146915428Y-129611380D01*
X146772571Y-129563761D01*
X146677333Y-129468523D01*
X146629714Y-129373285D01*
X146582095Y-129182809D01*
X146582095Y-129039952D01*
X146629714Y-128849476D01*
X146677333Y-128754238D01*
X146772571Y-128659000D01*
X146915428Y-128611380D01*
X147010666Y-128611380D01*
X147153523Y-128659000D01*
X147201142Y-128706619D01*
X148153523Y-129611380D02*
X147582095Y-129611380D01*
X147867809Y-129611380D02*
X147867809Y-128611380D01*
X147772571Y-128754238D01*
X147677333Y-128849476D01*
X147582095Y-128897095D01*
X148486857Y-128611380D02*
X149105904Y-128611380D01*
X148772571Y-128992333D01*
X148915428Y-128992333D01*
X149010666Y-129039952D01*
X149058285Y-129087571D01*
X149105904Y-129182809D01*
X149105904Y-129420904D01*
X149058285Y-129516142D01*
X149010666Y-129563761D01*
X148915428Y-129611380D01*
X148629714Y-129611380D01*
X148534476Y-129563761D01*
X148486857Y-129516142D01*
%TO.C,C12*%
X142883142Y-67286142D02*
X142835523Y-67333761D01*
X142692666Y-67381380D01*
X142597428Y-67381380D01*
X142454571Y-67333761D01*
X142359333Y-67238523D01*
X142311714Y-67143285D01*
X142264095Y-66952809D01*
X142264095Y-66809952D01*
X142311714Y-66619476D01*
X142359333Y-66524238D01*
X142454571Y-66429000D01*
X142597428Y-66381380D01*
X142692666Y-66381380D01*
X142835523Y-66429000D01*
X142883142Y-66476619D01*
X143835523Y-67381380D02*
X143264095Y-67381380D01*
X143549809Y-67381380D02*
X143549809Y-66381380D01*
X143454571Y-66524238D01*
X143359333Y-66619476D01*
X143264095Y-66667095D01*
X144216476Y-66476619D02*
X144264095Y-66429000D01*
X144359333Y-66381380D01*
X144597428Y-66381380D01*
X144692666Y-66429000D01*
X144740285Y-66476619D01*
X144787904Y-66571857D01*
X144787904Y-66667095D01*
X144740285Y-66809952D01*
X144168857Y-67381380D01*
X144787904Y-67381380D01*
%TO.C,C3*%
X144629142Y-147085666D02*
X144676761Y-147133285D01*
X144724380Y-147276142D01*
X144724380Y-147371380D01*
X144676761Y-147514238D01*
X144581523Y-147609476D01*
X144486285Y-147657095D01*
X144295809Y-147704714D01*
X144152952Y-147704714D01*
X143962476Y-147657095D01*
X143867238Y-147609476D01*
X143772000Y-147514238D01*
X143724380Y-147371380D01*
X143724380Y-147276142D01*
X143772000Y-147133285D01*
X143819619Y-147085666D01*
X143724380Y-146752333D02*
X143724380Y-146133285D01*
X144105333Y-146466619D01*
X144105333Y-146323761D01*
X144152952Y-146228523D01*
X144200571Y-146180904D01*
X144295809Y-146133285D01*
X144533904Y-146133285D01*
X144629142Y-146180904D01*
X144676761Y-146228523D01*
X144724380Y-146323761D01*
X144724380Y-146609476D01*
X144676761Y-146704714D01*
X144629142Y-146752333D01*
%TO.C,C2*%
X144121142Y-138195666D02*
X144168761Y-138243285D01*
X144216380Y-138386142D01*
X144216380Y-138481380D01*
X144168761Y-138624238D01*
X144073523Y-138719476D01*
X143978285Y-138767095D01*
X143787809Y-138814714D01*
X143644952Y-138814714D01*
X143454476Y-138767095D01*
X143359238Y-138719476D01*
X143264000Y-138624238D01*
X143216380Y-138481380D01*
X143216380Y-138386142D01*
X143264000Y-138243285D01*
X143311619Y-138195666D01*
X143311619Y-137814714D02*
X143264000Y-137767095D01*
X143216380Y-137671857D01*
X143216380Y-137433761D01*
X143264000Y-137338523D01*
X143311619Y-137290904D01*
X143406857Y-137243285D01*
X143502095Y-137243285D01*
X143644952Y-137290904D01*
X144216380Y-137862333D01*
X144216380Y-137243285D01*
%TO.C,U1*%
X133223095Y-128484380D02*
X133223095Y-129293904D01*
X133270714Y-129389142D01*
X133318333Y-129436761D01*
X133413571Y-129484380D01*
X133604047Y-129484380D01*
X133699285Y-129436761D01*
X133746904Y-129389142D01*
X133794523Y-129293904D01*
X133794523Y-128484380D01*
X134794523Y-129484380D02*
X134223095Y-129484380D01*
X134508809Y-129484380D02*
X134508809Y-128484380D01*
X134413571Y-128627238D01*
X134318333Y-128722476D01*
X134223095Y-128770095D01*
%TO.C,Q6*%
X130841761Y-152693619D02*
X130746523Y-152646000D01*
X130651285Y-152550761D01*
X130508428Y-152407904D01*
X130413190Y-152360285D01*
X130317952Y-152360285D01*
X130365571Y-152598380D02*
X130270333Y-152550761D01*
X130175095Y-152455523D01*
X130127476Y-152265047D01*
X130127476Y-151931714D01*
X130175095Y-151741238D01*
X130270333Y-151646000D01*
X130365571Y-151598380D01*
X130556047Y-151598380D01*
X130651285Y-151646000D01*
X130746523Y-151741238D01*
X130794142Y-151931714D01*
X130794142Y-152265047D01*
X130746523Y-152455523D01*
X130651285Y-152550761D01*
X130556047Y-152598380D01*
X130365571Y-152598380D01*
X131651285Y-151598380D02*
X131460809Y-151598380D01*
X131365571Y-151646000D01*
X131317952Y-151693619D01*
X131222714Y-151836476D01*
X131175095Y-152026952D01*
X131175095Y-152407904D01*
X131222714Y-152503142D01*
X131270333Y-152550761D01*
X131365571Y-152598380D01*
X131556047Y-152598380D01*
X131651285Y-152550761D01*
X131698904Y-152503142D01*
X131746523Y-152407904D01*
X131746523Y-152169809D01*
X131698904Y-152074571D01*
X131651285Y-152026952D01*
X131556047Y-151979333D01*
X131365571Y-151979333D01*
X131270333Y-152026952D01*
X131222714Y-152074571D01*
X131175095Y-152169809D01*
%TO.C,Q5*%
X162853619Y-84296238D02*
X162806000Y-84391476D01*
X162710761Y-84486714D01*
X162567904Y-84629571D01*
X162520285Y-84724809D01*
X162520285Y-84820047D01*
X162758380Y-84772428D02*
X162710761Y-84867666D01*
X162615523Y-84962904D01*
X162425047Y-85010523D01*
X162091714Y-85010523D01*
X161901238Y-84962904D01*
X161806000Y-84867666D01*
X161758380Y-84772428D01*
X161758380Y-84581952D01*
X161806000Y-84486714D01*
X161901238Y-84391476D01*
X162091714Y-84343857D01*
X162425047Y-84343857D01*
X162615523Y-84391476D01*
X162710761Y-84486714D01*
X162758380Y-84581952D01*
X162758380Y-84772428D01*
X161758380Y-83439095D02*
X161758380Y-83915285D01*
X162234571Y-83962904D01*
X162186952Y-83915285D01*
X162139333Y-83820047D01*
X162139333Y-83581952D01*
X162186952Y-83486714D01*
X162234571Y-83439095D01*
X162329809Y-83391476D01*
X162567904Y-83391476D01*
X162663142Y-83439095D01*
X162710761Y-83486714D01*
X162758380Y-83581952D01*
X162758380Y-83820047D01*
X162710761Y-83915285D01*
X162663142Y-83962904D01*
%TO.C,Q4*%
X131095761Y-95289619D02*
X131000523Y-95242000D01*
X130905285Y-95146761D01*
X130762428Y-95003904D01*
X130667190Y-94956285D01*
X130571952Y-94956285D01*
X130619571Y-95194380D02*
X130524333Y-95146761D01*
X130429095Y-95051523D01*
X130381476Y-94861047D01*
X130381476Y-94527714D01*
X130429095Y-94337238D01*
X130524333Y-94242000D01*
X130619571Y-94194380D01*
X130810047Y-94194380D01*
X130905285Y-94242000D01*
X131000523Y-94337238D01*
X131048142Y-94527714D01*
X131048142Y-94861047D01*
X131000523Y-95051523D01*
X130905285Y-95146761D01*
X130810047Y-95194380D01*
X130619571Y-95194380D01*
X131905285Y-94527714D02*
X131905285Y-95194380D01*
X131667190Y-94146761D02*
X131429095Y-94861047D01*
X132048142Y-94861047D01*
%TO.C,Q3*%
X163361619Y-104743238D02*
X163314000Y-104838476D01*
X163218761Y-104933714D01*
X163075904Y-105076571D01*
X163028285Y-105171809D01*
X163028285Y-105267047D01*
X163266380Y-105219428D02*
X163218761Y-105314666D01*
X163123523Y-105409904D01*
X162933047Y-105457523D01*
X162599714Y-105457523D01*
X162409238Y-105409904D01*
X162314000Y-105314666D01*
X162266380Y-105219428D01*
X162266380Y-105028952D01*
X162314000Y-104933714D01*
X162409238Y-104838476D01*
X162599714Y-104790857D01*
X162933047Y-104790857D01*
X163123523Y-104838476D01*
X163218761Y-104933714D01*
X163266380Y-105028952D01*
X163266380Y-105219428D01*
X162266380Y-104457523D02*
X162266380Y-103838476D01*
X162647333Y-104171809D01*
X162647333Y-104028952D01*
X162694952Y-103933714D01*
X162742571Y-103886095D01*
X162837809Y-103838476D01*
X163075904Y-103838476D01*
X163171142Y-103886095D01*
X163218761Y-103933714D01*
X163266380Y-104028952D01*
X163266380Y-104314666D01*
X163218761Y-104409904D01*
X163171142Y-104457523D01*
%TO.C,Q2*%
X164123619Y-117951238D02*
X164076000Y-118046476D01*
X163980761Y-118141714D01*
X163837904Y-118284571D01*
X163790285Y-118379809D01*
X163790285Y-118475047D01*
X164028380Y-118427428D02*
X163980761Y-118522666D01*
X163885523Y-118617904D01*
X163695047Y-118665523D01*
X163361714Y-118665523D01*
X163171238Y-118617904D01*
X163076000Y-118522666D01*
X163028380Y-118427428D01*
X163028380Y-118236952D01*
X163076000Y-118141714D01*
X163171238Y-118046476D01*
X163361714Y-117998857D01*
X163695047Y-117998857D01*
X163885523Y-118046476D01*
X163980761Y-118141714D01*
X164028380Y-118236952D01*
X164028380Y-118427428D01*
X163123619Y-117617904D02*
X163076000Y-117570285D01*
X163028380Y-117475047D01*
X163028380Y-117236952D01*
X163076000Y-117141714D01*
X163123619Y-117094095D01*
X163218857Y-117046476D01*
X163314095Y-117046476D01*
X163456952Y-117094095D01*
X164028380Y-117665523D01*
X164028380Y-117046476D01*
%TO.C,Q1*%
X130087619Y-83534238D02*
X130040000Y-83629476D01*
X129944761Y-83724714D01*
X129801904Y-83867571D01*
X129754285Y-83962809D01*
X129754285Y-84058047D01*
X129992380Y-84010428D02*
X129944761Y-84105666D01*
X129849523Y-84200904D01*
X129659047Y-84248523D01*
X129325714Y-84248523D01*
X129135238Y-84200904D01*
X129040000Y-84105666D01*
X128992380Y-84010428D01*
X128992380Y-83819952D01*
X129040000Y-83724714D01*
X129135238Y-83629476D01*
X129325714Y-83581857D01*
X129659047Y-83581857D01*
X129849523Y-83629476D01*
X129944761Y-83724714D01*
X129992380Y-83819952D01*
X129992380Y-84010428D01*
X129992380Y-82629476D02*
X129992380Y-83200904D01*
X129992380Y-82915190D02*
X128992380Y-82915190D01*
X129135238Y-83010428D01*
X129230476Y-83105666D01*
X129278095Y-83200904D01*
%TO.C,C16*%
D11*
X130129714Y-137572714D02*
X130091619Y-137610809D01*
X129977333Y-137648904D01*
X129901142Y-137648904D01*
X129786857Y-137610809D01*
X129710666Y-137534619D01*
X129672571Y-137458428D01*
X129634476Y-137306047D01*
X129634476Y-137191761D01*
X129672571Y-137039380D01*
X129710666Y-136963190D01*
X129786857Y-136887000D01*
X129901142Y-136848904D01*
X129977333Y-136848904D01*
X130091619Y-136887000D01*
X130129714Y-136925095D01*
X130891619Y-137648904D02*
X130434476Y-137648904D01*
X130663047Y-137648904D02*
X130663047Y-136848904D01*
X130586857Y-136963190D01*
X130510666Y-137039380D01*
X130434476Y-137077476D01*
X131577333Y-136848904D02*
X131424952Y-136848904D01*
X131348761Y-136887000D01*
X131310666Y-136925095D01*
X131234476Y-137039380D01*
X131196380Y-137191761D01*
X131196380Y-137496523D01*
X131234476Y-137572714D01*
X131272571Y-137610809D01*
X131348761Y-137648904D01*
X131501142Y-137648904D01*
X131577333Y-137610809D01*
X131615428Y-137572714D01*
X131653523Y-137496523D01*
X131653523Y-137306047D01*
X131615428Y-137229857D01*
X131577333Y-137191761D01*
X131501142Y-137153666D01*
X131348761Y-137153666D01*
X131272571Y-137191761D01*
X131234476Y-137229857D01*
X131196380Y-137306047D01*
%TO.C,C15*%
X136353714Y-121824714D02*
X136315619Y-121862809D01*
X136201333Y-121900904D01*
X136125142Y-121900904D01*
X136010857Y-121862809D01*
X135934666Y-121786619D01*
X135896571Y-121710428D01*
X135858476Y-121558047D01*
X135858476Y-121443761D01*
X135896571Y-121291380D01*
X135934666Y-121215190D01*
X136010857Y-121139000D01*
X136125142Y-121100904D01*
X136201333Y-121100904D01*
X136315619Y-121139000D01*
X136353714Y-121177095D01*
X137115619Y-121900904D02*
X136658476Y-121900904D01*
X136887047Y-121900904D02*
X136887047Y-121100904D01*
X136810857Y-121215190D01*
X136734666Y-121291380D01*
X136658476Y-121329476D01*
X137839428Y-121100904D02*
X137458476Y-121100904D01*
X137420380Y-121481857D01*
X137458476Y-121443761D01*
X137534666Y-121405666D01*
X137725142Y-121405666D01*
X137801333Y-121443761D01*
X137839428Y-121481857D01*
X137877523Y-121558047D01*
X137877523Y-121748523D01*
X137839428Y-121824714D01*
X137801333Y-121862809D01*
X137725142Y-121900904D01*
X137534666Y-121900904D01*
X137458476Y-121862809D01*
X137420380Y-121824714D01*
%TO.C,J1*%
D12*
X159853380Y-141811333D02*
X160567666Y-141811333D01*
X160710523Y-141858952D01*
X160805761Y-141954190D01*
X160853380Y-142097047D01*
X160853380Y-142192285D01*
X160853380Y-140811333D02*
X160853380Y-141382761D01*
X160853380Y-141097047D02*
X159853380Y-141097047D01*
X159996238Y-141192285D01*
X160091476Y-141287523D01*
X160139095Y-141382761D01*
%TO.C,C18*%
X139799142Y-162282142D02*
X139751523Y-162329761D01*
X139608666Y-162377380D01*
X139513428Y-162377380D01*
X139370571Y-162329761D01*
X139275333Y-162234523D01*
X139227714Y-162139285D01*
X139180095Y-161948809D01*
X139180095Y-161805952D01*
X139227714Y-161615476D01*
X139275333Y-161520238D01*
X139370571Y-161425000D01*
X139513428Y-161377380D01*
X139608666Y-161377380D01*
X139751523Y-161425000D01*
X139799142Y-161472619D01*
X140751523Y-162377380D02*
X140180095Y-162377380D01*
X140465809Y-162377380D02*
X140465809Y-161377380D01*
X140370571Y-161520238D01*
X140275333Y-161615476D01*
X140180095Y-161663095D01*
X141322952Y-161805952D02*
X141227714Y-161758333D01*
X141180095Y-161710714D01*
X141132476Y-161615476D01*
X141132476Y-161567857D01*
X141180095Y-161472619D01*
X141227714Y-161425000D01*
X141322952Y-161377380D01*
X141513428Y-161377380D01*
X141608666Y-161425000D01*
X141656285Y-161472619D01*
X141703904Y-161567857D01*
X141703904Y-161615476D01*
X141656285Y-161710714D01*
X141608666Y-161758333D01*
X141513428Y-161805952D01*
X141322952Y-161805952D01*
X141227714Y-161853571D01*
X141180095Y-161901190D01*
X141132476Y-161996428D01*
X141132476Y-162186904D01*
X141180095Y-162282142D01*
X141227714Y-162329761D01*
X141322952Y-162377380D01*
X141513428Y-162377380D01*
X141608666Y-162329761D01*
X141656285Y-162282142D01*
X141703904Y-162186904D01*
X141703904Y-161996428D01*
X141656285Y-161901190D01*
X141608666Y-161853571D01*
X141513428Y-161805952D01*
%TO.C,C11*%
D11*
X133685714Y-66706714D02*
X133647619Y-66744809D01*
X133533333Y-66782904D01*
X133457142Y-66782904D01*
X133342857Y-66744809D01*
X133266666Y-66668619D01*
X133228571Y-66592428D01*
X133190476Y-66440047D01*
X133190476Y-66325761D01*
X133228571Y-66173380D01*
X133266666Y-66097190D01*
X133342857Y-66021000D01*
X133457142Y-65982904D01*
X133533333Y-65982904D01*
X133647619Y-66021000D01*
X133685714Y-66059095D01*
X134447619Y-66782904D02*
X133990476Y-66782904D01*
X134219047Y-66782904D02*
X134219047Y-65982904D01*
X134142857Y-66097190D01*
X134066666Y-66173380D01*
X133990476Y-66211476D01*
X135209523Y-66782904D02*
X134752380Y-66782904D01*
X134980952Y-66782904D02*
X134980952Y-65982904D01*
X134904761Y-66097190D01*
X134828571Y-66173380D01*
X134752380Y-66211476D01*
%TO.C,C14*%
D12*
X136029142Y-89130142D02*
X135981523Y-89177761D01*
X135838666Y-89225380D01*
X135743428Y-89225380D01*
X135600571Y-89177761D01*
X135505333Y-89082523D01*
X135457714Y-88987285D01*
X135410095Y-88796809D01*
X135410095Y-88653952D01*
X135457714Y-88463476D01*
X135505333Y-88368238D01*
X135600571Y-88273000D01*
X135743428Y-88225380D01*
X135838666Y-88225380D01*
X135981523Y-88273000D01*
X136029142Y-88320619D01*
X136981523Y-89225380D02*
X136410095Y-89225380D01*
X136695809Y-89225380D02*
X136695809Y-88225380D01*
X136600571Y-88368238D01*
X136505333Y-88463476D01*
X136410095Y-88511095D01*
X137838666Y-88558714D02*
X137838666Y-89225380D01*
X137600571Y-88177761D02*
X137362476Y-88892047D01*
X137981523Y-88892047D01*
%TO.C,C10*%
X150979142Y-74663857D02*
X151026761Y-74711476D01*
X151074380Y-74854333D01*
X151074380Y-74949571D01*
X151026761Y-75092428D01*
X150931523Y-75187666D01*
X150836285Y-75235285D01*
X150645809Y-75282904D01*
X150502952Y-75282904D01*
X150312476Y-75235285D01*
X150217238Y-75187666D01*
X150122000Y-75092428D01*
X150074380Y-74949571D01*
X150074380Y-74854333D01*
X150122000Y-74711476D01*
X150169619Y-74663857D01*
X151074380Y-73711476D02*
X151074380Y-74282904D01*
X151074380Y-73997190D02*
X150074380Y-73997190D01*
X150217238Y-74092428D01*
X150312476Y-74187666D01*
X150360095Y-74282904D01*
X150074380Y-73092428D02*
X150074380Y-72997190D01*
X150122000Y-72901952D01*
X150169619Y-72854333D01*
X150264857Y-72806714D01*
X150455333Y-72759095D01*
X150693428Y-72759095D01*
X150883904Y-72806714D01*
X150979142Y-72854333D01*
X151026761Y-72901952D01*
X151074380Y-72997190D01*
X151074380Y-73092428D01*
X151026761Y-73187666D01*
X150979142Y-73235285D01*
X150883904Y-73282904D01*
X150693428Y-73330523D01*
X150455333Y-73330523D01*
X150264857Y-73282904D01*
X150169619Y-73235285D01*
X150122000Y-73187666D01*
X150074380Y-73092428D01*
%TO.C,C9*%
X151106142Y-67329666D02*
X151153761Y-67377285D01*
X151201380Y-67520142D01*
X151201380Y-67615380D01*
X151153761Y-67758238D01*
X151058523Y-67853476D01*
X150963285Y-67901095D01*
X150772809Y-67948714D01*
X150629952Y-67948714D01*
X150439476Y-67901095D01*
X150344238Y-67853476D01*
X150249000Y-67758238D01*
X150201380Y-67615380D01*
X150201380Y-67520142D01*
X150249000Y-67377285D01*
X150296619Y-67329666D01*
X151201380Y-66853476D02*
X151201380Y-66663000D01*
X151153761Y-66567761D01*
X151106142Y-66520142D01*
X150963285Y-66424904D01*
X150772809Y-66377285D01*
X150391857Y-66377285D01*
X150296619Y-66424904D01*
X150249000Y-66472523D01*
X150201380Y-66567761D01*
X150201380Y-66758238D01*
X150249000Y-66853476D01*
X150296619Y-66901095D01*
X150391857Y-66948714D01*
X150629952Y-66948714D01*
X150725190Y-66901095D01*
X150772809Y-66853476D01*
X150820428Y-66758238D01*
X150820428Y-66567761D01*
X150772809Y-66472523D01*
X150725190Y-66424904D01*
X150629952Y-66377285D01*
%TO.C,C8*%
X130242333Y-109958142D02*
X130194714Y-110005761D01*
X130051857Y-110053380D01*
X129956619Y-110053380D01*
X129813761Y-110005761D01*
X129718523Y-109910523D01*
X129670904Y-109815285D01*
X129623285Y-109624809D01*
X129623285Y-109481952D01*
X129670904Y-109291476D01*
X129718523Y-109196238D01*
X129813761Y-109101000D01*
X129956619Y-109053380D01*
X130051857Y-109053380D01*
X130194714Y-109101000D01*
X130242333Y-109148619D01*
X130813761Y-109481952D02*
X130718523Y-109434333D01*
X130670904Y-109386714D01*
X130623285Y-109291476D01*
X130623285Y-109243857D01*
X130670904Y-109148619D01*
X130718523Y-109101000D01*
X130813761Y-109053380D01*
X131004238Y-109053380D01*
X131099476Y-109101000D01*
X131147095Y-109148619D01*
X131194714Y-109243857D01*
X131194714Y-109291476D01*
X131147095Y-109386714D01*
X131099476Y-109434333D01*
X131004238Y-109481952D01*
X130813761Y-109481952D01*
X130718523Y-109529571D01*
X130670904Y-109577190D01*
X130623285Y-109672428D01*
X130623285Y-109862904D01*
X130670904Y-109958142D01*
X130718523Y-110005761D01*
X130813761Y-110053380D01*
X131004238Y-110053380D01*
X131099476Y-110005761D01*
X131147095Y-109958142D01*
X131194714Y-109862904D01*
X131194714Y-109672428D01*
X131147095Y-109577190D01*
X131099476Y-109529571D01*
X131004238Y-109481952D01*
%TO.C,C7*%
X156698333Y-98655142D02*
X156650714Y-98702761D01*
X156507857Y-98750380D01*
X156412619Y-98750380D01*
X156269761Y-98702761D01*
X156174523Y-98607523D01*
X156126904Y-98512285D01*
X156079285Y-98321809D01*
X156079285Y-98178952D01*
X156126904Y-97988476D01*
X156174523Y-97893238D01*
X156269761Y-97798000D01*
X156412619Y-97750380D01*
X156507857Y-97750380D01*
X156650714Y-97798000D01*
X156698333Y-97845619D01*
X157031666Y-97750380D02*
X157698333Y-97750380D01*
X157269761Y-98750380D01*
%TO.C,C6*%
D11*
X149002714Y-151859333D02*
X149040809Y-151897428D01*
X149078904Y-152011714D01*
X149078904Y-152087904D01*
X149040809Y-152202190D01*
X148964619Y-152278380D01*
X148888428Y-152316476D01*
X148736047Y-152354571D01*
X148621761Y-152354571D01*
X148469380Y-152316476D01*
X148393190Y-152278380D01*
X148317000Y-152202190D01*
X148278904Y-152087904D01*
X148278904Y-152011714D01*
X148317000Y-151897428D01*
X148355095Y-151859333D01*
X148278904Y-151173619D02*
X148278904Y-151326000D01*
X148317000Y-151402190D01*
X148355095Y-151440285D01*
X148469380Y-151516476D01*
X148621761Y-151554571D01*
X148926523Y-151554571D01*
X149002714Y-151516476D01*
X149040809Y-151478380D01*
X149078904Y-151402190D01*
X149078904Y-151249809D01*
X149040809Y-151173619D01*
X149002714Y-151135523D01*
X148926523Y-151097428D01*
X148736047Y-151097428D01*
X148659857Y-151135523D01*
X148621761Y-151173619D01*
X148583666Y-151249809D01*
X148583666Y-151402190D01*
X148621761Y-151478380D01*
X148659857Y-151516476D01*
X148736047Y-151554571D01*
%TO.C,C5*%
X149764714Y-142157333D02*
X149802809Y-142195428D01*
X149840904Y-142309714D01*
X149840904Y-142385904D01*
X149802809Y-142500190D01*
X149726619Y-142576380D01*
X149650428Y-142614476D01*
X149498047Y-142652571D01*
X149383761Y-142652571D01*
X149231380Y-142614476D01*
X149155190Y-142576380D01*
X149079000Y-142500190D01*
X149040904Y-142385904D01*
X149040904Y-142309714D01*
X149079000Y-142195428D01*
X149117095Y-142157333D01*
X149040904Y-141433523D02*
X149040904Y-141814476D01*
X149421857Y-141852571D01*
X149383761Y-141814476D01*
X149345666Y-141738285D01*
X149345666Y-141547809D01*
X149383761Y-141471619D01*
X149421857Y-141433523D01*
X149498047Y-141395428D01*
X149688523Y-141395428D01*
X149764714Y-141433523D01*
X149802809Y-141471619D01*
X149840904Y-141547809D01*
X149840904Y-141738285D01*
X149802809Y-141814476D01*
X149764714Y-141852571D01*
%TO.C,C4*%
X130041666Y-89693714D02*
X130003571Y-89731809D01*
X129889285Y-89769904D01*
X129813095Y-89769904D01*
X129698809Y-89731809D01*
X129622619Y-89655619D01*
X129584523Y-89579428D01*
X129546428Y-89427047D01*
X129546428Y-89312761D01*
X129584523Y-89160380D01*
X129622619Y-89084190D01*
X129698809Y-89008000D01*
X129813095Y-88969904D01*
X129889285Y-88969904D01*
X130003571Y-89008000D01*
X130041666Y-89046095D01*
X130727380Y-89236571D02*
X130727380Y-89769904D01*
X130536904Y-88931809D02*
X130346428Y-89503238D01*
X130841666Y-89503238D01*
%TO.C,C1*%
X156750666Y-119665714D02*
X156712571Y-119703809D01*
X156598285Y-119741904D01*
X156522095Y-119741904D01*
X156407809Y-119703809D01*
X156331619Y-119627619D01*
X156293523Y-119551428D01*
X156255428Y-119399047D01*
X156255428Y-119284761D01*
X156293523Y-119132380D01*
X156331619Y-119056190D01*
X156407809Y-118980000D01*
X156522095Y-118941904D01*
X156598285Y-118941904D01*
X156712571Y-118980000D01*
X156750666Y-119018095D01*
X157512571Y-119741904D02*
X157055428Y-119741904D01*
X157284000Y-119741904D02*
X157284000Y-118941904D01*
X157207809Y-119056190D01*
X157131619Y-119132380D01*
X157055428Y-119170476D01*
%TD*%
M02*
