%TF.GenerationSoftware,KiCad,Pcbnew,(5.1.9)-1*%
%TF.CreationDate,2021-08-15T07:19:13+01:00*%
%TF.ProjectId,8x8_Kick_Drum,3878385f-4b69-4636-9b5f-4472756d2e6b,rev?*%
%TF.SameCoordinates,Original*%
%TF.FileFunction,Copper,L2,Bot*%
%TF.FilePolarity,Positive*%
%FSLAX46Y46*%
G04 Gerber Fmt 4.6, Leading zero omitted, Abs format (unit mm)*
G04 Created by KiCad (PCBNEW (5.1.9)-1) date 2021-08-15 07:19:13*
%MOMM*%
%LPD*%
G01*
G04 APERTURE LIST*
%TA.AperFunction,ComponentPad*%
%ADD10C,1.600000*%
%TD*%
%TA.AperFunction,ComponentPad*%
%ADD11R,1.600000X1.600000*%
%TD*%
%TA.AperFunction,ComponentPad*%
%ADD12O,3.100000X2.300000*%
%TD*%
%TA.AperFunction,ComponentPad*%
%ADD13O,2.400000X1.600000*%
%TD*%
%TA.AperFunction,ComponentPad*%
%ADD14R,2.400000X1.600000*%
%TD*%
%TA.AperFunction,ComponentPad*%
%ADD15O,2.720000X3.240000*%
%TD*%
%TA.AperFunction,ComponentPad*%
%ADD16C,1.800000*%
%TD*%
%TA.AperFunction,ComponentPad*%
%ADD17R,1.800000X1.800000*%
%TD*%
%TA.AperFunction,ComponentPad*%
%ADD18R,1.500000X1.500000*%
%TD*%
%TA.AperFunction,ComponentPad*%
%ADD19C,1.500000*%
%TD*%
%TA.AperFunction,ComponentPad*%
%ADD20C,1.700000*%
%TD*%
%TA.AperFunction,ViaPad*%
%ADD21C,0.800000*%
%TD*%
%TA.AperFunction,Conductor*%
%ADD22C,0.750000*%
%TD*%
%TA.AperFunction,Conductor*%
%ADD23C,0.300000*%
%TD*%
%TA.AperFunction,Conductor*%
%ADD24C,0.254000*%
%TD*%
%TA.AperFunction,Conductor*%
%ADD25C,0.100000*%
%TD*%
G04 APERTURE END LIST*
D10*
%TO.P,C17,2*%
%TO.N,Net-(C17-Pad2)*%
X140113000Y-167894000D03*
D11*
%TO.P,C17,1*%
%TO.N,Net-(C17-Pad1)*%
X142113000Y-167894000D03*
%TD*%
D10*
%TO.P,C13,2*%
%TO.N,Net-(C13-Pad2)*%
X146844000Y-129159000D03*
D11*
%TO.P,C13,1*%
%TO.N,Net-(C13-Pad1)*%
X148844000Y-129159000D03*
%TD*%
D10*
%TO.P,C12,2*%
%TO.N,Net-(C11-Pad1)*%
X142526000Y-66929000D03*
D11*
%TO.P,C12,1*%
%TO.N,Net-(C12-Pad1)*%
X144526000Y-66929000D03*
%TD*%
D10*
%TO.P,C3,2*%
%TO.N,-12V*%
X144272000Y-148169000D03*
D11*
%TO.P,C3,1*%
%TO.N,GND*%
X144272000Y-145669000D03*
%TD*%
D10*
%TO.P,C2,2*%
%TO.N,GND*%
X143764000Y-139279000D03*
D11*
%TO.P,C2,1*%
%TO.N,+12V*%
X143764000Y-136779000D03*
%TD*%
%TO.P,J4,TN*%
%TO.N,Net-(J4-PadTN)*%
%TA.AperFunction,ComponentPad*%
G36*
G01*
X133634000Y-165795000D02*
X133634000Y-167095000D01*
G75*
G02*
X132984000Y-167745000I-650000J0D01*
G01*
X131684000Y-167745000D01*
G75*
G02*
X131034000Y-167095000I0J650000D01*
G01*
X131034000Y-165795000D01*
G75*
G02*
X131684000Y-165145000I650000J0D01*
G01*
X132984000Y-165145000D01*
G75*
G02*
X133634000Y-165795000I0J-650000D01*
G01*
G37*
%TD.AperFunction*%
D12*
%TO.P,J4,S*%
%TO.N,GND*%
X132334000Y-169545000D03*
%TO.P,J4,T*%
%TO.N,KICK_OUT*%
%TA.AperFunction,ComponentPad*%
G36*
G01*
X133634000Y-157495000D02*
X133634000Y-158795000D01*
G75*
G02*
X132984000Y-159445000I-650000J0D01*
G01*
X131684000Y-159445000D01*
G75*
G02*
X131034000Y-158795000I0J650000D01*
G01*
X131034000Y-157495000D01*
G75*
G02*
X131684000Y-156845000I650000J0D01*
G01*
X132984000Y-156845000D01*
G75*
G02*
X133634000Y-157495000I0J-650000D01*
G01*
G37*
%TD.AperFunction*%
%TD*%
%TO.P,J3,TN*%
%TO.N,Net-(J3-PadTN)*%
%TA.AperFunction,ComponentPad*%
G36*
G01*
X151414000Y-165798000D02*
X151414000Y-167098000D01*
G75*
G02*
X150764000Y-167748000I-650000J0D01*
G01*
X149464000Y-167748000D01*
G75*
G02*
X148814000Y-167098000I0J650000D01*
G01*
X148814000Y-165798000D01*
G75*
G02*
X149464000Y-165148000I650000J0D01*
G01*
X150764000Y-165148000D01*
G75*
G02*
X151414000Y-165798000I0J-650000D01*
G01*
G37*
%TD.AperFunction*%
%TO.P,J3,S*%
%TO.N,GND*%
X150114000Y-169548000D03*
%TO.P,J3,T*%
%TO.N,ACCENT_IN*%
%TA.AperFunction,ComponentPad*%
G36*
G01*
X151414000Y-157498000D02*
X151414000Y-158798000D01*
G75*
G02*
X150764000Y-159448000I-650000J0D01*
G01*
X149464000Y-159448000D01*
G75*
G02*
X148814000Y-158798000I0J650000D01*
G01*
X148814000Y-157498000D01*
G75*
G02*
X149464000Y-156848000I650000J0D01*
G01*
X150764000Y-156848000D01*
G75*
G02*
X151414000Y-157498000I0J-650000D01*
G01*
G37*
%TD.AperFunction*%
%TD*%
%TO.P,J2,TN*%
%TO.N,Net-(J2-PadTN)*%
%TA.AperFunction,ComponentPad*%
G36*
G01*
X161701000Y-165765000D02*
X161701000Y-167065000D01*
G75*
G02*
X161051000Y-167715000I-650000J0D01*
G01*
X159751000Y-167715000D01*
G75*
G02*
X159101000Y-167065000I0J650000D01*
G01*
X159101000Y-165765000D01*
G75*
G02*
X159751000Y-165115000I650000J0D01*
G01*
X161051000Y-165115000D01*
G75*
G02*
X161701000Y-165765000I0J-650000D01*
G01*
G37*
%TD.AperFunction*%
%TO.P,J2,S*%
%TO.N,GND*%
X160401000Y-169515000D03*
%TO.P,J2,T*%
%TO.N,KICK_TRIGGER*%
%TA.AperFunction,ComponentPad*%
G36*
G01*
X161701000Y-157465000D02*
X161701000Y-158765000D01*
G75*
G02*
X161051000Y-159415000I-650000J0D01*
G01*
X159751000Y-159415000D01*
G75*
G02*
X159101000Y-158765000I0J650000D01*
G01*
X159101000Y-157465000D01*
G75*
G02*
X159751000Y-156815000I650000J0D01*
G01*
X161051000Y-156815000D01*
G75*
G02*
X161701000Y-157465000I0J-650000D01*
G01*
G37*
%TD.AperFunction*%
%TD*%
D13*
%TO.P,U1,8*%
%TO.N,+12V*%
X137795000Y-125222000D03*
%TO.P,U1,4*%
%TO.N,-12V*%
X130175000Y-132842000D03*
%TO.P,U1,7*%
%TO.N,Net-(C14-Pad2)*%
X137795000Y-127762000D03*
%TO.P,U1,3*%
%TO.N,Net-(C7-Pad1)*%
X130175000Y-130302000D03*
%TO.P,U1,6*%
%TO.N,Net-(R18-Pad2)*%
X137795000Y-130302000D03*
%TO.P,U1,2*%
%TO.N,Net-(C9-Pad1)*%
X130175000Y-127762000D03*
%TO.P,U1,5*%
%TO.N,Net-(R20-Pad1)*%
X137795000Y-132842000D03*
D14*
%TO.P,U1,1*%
%TO.N,Net-(C10-Pad2)*%
X130175000Y-125222000D03*
%TD*%
D15*
%TO.P,RV5,*%
%TO.N,*%
X151384000Y-101346000D03*
X141784000Y-101346000D03*
D16*
%TO.P,RV5,3*%
%TO.N,GND*%
X144084000Y-108846000D03*
%TO.P,RV5,2*%
%TO.N,Net-(J3-PadTN)*%
X146584000Y-108846000D03*
D17*
%TO.P,RV5,1*%
%TO.N,+12V*%
X149084000Y-108846000D03*
%TD*%
D15*
%TO.P,RV3,*%
%TO.N,*%
X151271000Y-116960000D03*
X141671000Y-116960000D03*
D16*
%TO.P,RV3,3*%
%TO.N,GND*%
X143971000Y-124460000D03*
%TO.P,RV3,2*%
%TO.N,Net-(C13-Pad1)*%
X146471000Y-124460000D03*
D17*
%TO.P,RV3,1*%
%TO.N,Net-(C12-Pad1)*%
X148971000Y-124460000D03*
%TD*%
D15*
%TO.P,RV4,*%
%TO.N,*%
X151384000Y-85852000D03*
X141784000Y-85852000D03*
D16*
%TO.P,RV4,3*%
%TO.N,Net-(C14-Pad1)*%
X144084000Y-93352000D03*
%TO.P,RV4,2*%
%TO.N,Net-(R18-Pad2)*%
X146584000Y-93352000D03*
D17*
%TO.P,RV4,1*%
X149084000Y-93352000D03*
%TD*%
D15*
%TO.P,RV2,*%
%TO.N,*%
X138759000Y-70224000D03*
X129159000Y-70224000D03*
D16*
%TO.P,RV2,3*%
%TO.N,Net-(C11-Pad1)*%
X131459000Y-77724000D03*
%TO.P,RV2,2*%
X133959000Y-77724000D03*
D17*
%TO.P,RV2,1*%
%TO.N,Net-(R16-Pad2)*%
X136459000Y-77724000D03*
%TD*%
D15*
%TO.P,RV1,*%
%TO.N,*%
X163703000Y-70224000D03*
X154103000Y-70224000D03*
D16*
%TO.P,RV1,3*%
%TO.N,Net-(Q5-Pad3)*%
X156403000Y-77724000D03*
%TO.P,RV1,2*%
X158903000Y-77724000D03*
D17*
%TO.P,RV1,1*%
%TO.N,Net-(C10-Pad1)*%
X161403000Y-77724000D03*
%TD*%
D18*
%TO.P,Q6,1*%
%TO.N,Net-(C17-Pad1)*%
X128397000Y-152146000D03*
D19*
%TO.P,Q6,3*%
%TO.N,+12V*%
X133477000Y-152146000D03*
%TO.P,Q6,2*%
%TO.N,Net-(Q6-Pad2)*%
X130937000Y-152146000D03*
%TD*%
D18*
%TO.P,Q5,1*%
%TO.N,GND*%
X162306000Y-81661000D03*
D19*
%TO.P,Q5,3*%
%TO.N,Net-(Q5-Pad3)*%
X162306000Y-86741000D03*
%TO.P,Q5,2*%
%TO.N,Net-(Q5-Pad2)*%
X162306000Y-84201000D03*
%TD*%
D18*
%TO.P,Q4,1*%
%TO.N,GND*%
X128651000Y-94742000D03*
D19*
%TO.P,Q4,3*%
%TO.N,Net-(C8-Pad1)*%
X133731000Y-94742000D03*
%TO.P,Q4,2*%
%TO.N,Net-(C4-Pad2)*%
X131191000Y-94742000D03*
%TD*%
D18*
%TO.P,Q3,1*%
%TO.N,ACCENT_IN*%
X162814000Y-107188000D03*
D19*
%TO.P,Q3,3*%
%TO.N,Net-(C7-Pad2)*%
X162814000Y-102108000D03*
%TO.P,Q3,2*%
%TO.N,Net-(Q3-Pad2)*%
X162814000Y-104648000D03*
%TD*%
D18*
%TO.P,Q2,1*%
%TO.N,GND*%
X163576000Y-120396000D03*
D19*
%TO.P,Q2,3*%
%TO.N,Net-(Q2-Pad3)*%
X163576000Y-115316000D03*
%TO.P,Q2,2*%
%TO.N,Net-(Q2-Pad2)*%
X163576000Y-117856000D03*
%TD*%
D18*
%TO.P,Q1,1*%
%TO.N,GND*%
X129540000Y-80899000D03*
D19*
%TO.P,Q1,3*%
%TO.N,Net-(C4-Pad2)*%
X129540000Y-85979000D03*
%TO.P,Q1,2*%
%TO.N,Net-(Q1-Pad2)*%
X129540000Y-83439000D03*
%TD*%
D20*
%TO.P,J1,10*%
%TO.N,Net-(D2-Pad2)*%
X159131000Y-136398000D03*
%TO.P,J1,8*%
%TO.N,GND*%
X159131000Y-138938000D03*
%TO.P,J1,6*%
X159131000Y-141478000D03*
%TO.P,J1,4*%
X159131000Y-144018000D03*
%TO.P,J1,2*%
%TO.N,Net-(D3-Pad1)*%
X159131000Y-146558000D03*
%TO.P,J1,9*%
%TO.N,Net-(D2-Pad2)*%
X161671000Y-136398000D03*
%TO.P,J1,7*%
%TO.N,GND*%
X161671000Y-138938000D03*
%TO.P,J1,5*%
X161671000Y-141478000D03*
%TO.P,J1,3*%
X161671000Y-144018000D03*
%TO.P,J1,1*%
%TO.N,Net-(D3-Pad1)*%
%TA.AperFunction,ComponentPad*%
G36*
G01*
X162521000Y-145958000D02*
X162521000Y-147158000D01*
G75*
G02*
X162271000Y-147408000I-250000J0D01*
G01*
X161071000Y-147408000D01*
G75*
G02*
X160821000Y-147158000I0J250000D01*
G01*
X160821000Y-145958000D01*
G75*
G02*
X161071000Y-145708000I250000J0D01*
G01*
X162271000Y-145708000D01*
G75*
G02*
X162521000Y-145958000I0J-250000D01*
G01*
G37*
%TD.AperFunction*%
%TD*%
D10*
%TO.P,C18,2*%
%TO.N,GND*%
X141692000Y-161925000D03*
%TO.P,C18,1*%
%TO.N,Net-(C17-Pad1)*%
X139192000Y-161925000D03*
%TD*%
%TO.P,C14,2*%
%TO.N,Net-(C14-Pad2)*%
X135422000Y-88773000D03*
D11*
%TO.P,C14,1*%
%TO.N,Net-(C14-Pad1)*%
X137922000Y-88773000D03*
%TD*%
D10*
%TO.P,C10,2*%
%TO.N,Net-(C10-Pad2)*%
X150622000Y-75271000D03*
%TO.P,C10,1*%
%TO.N,Net-(C10-Pad1)*%
X150622000Y-72771000D03*
%TD*%
%TO.P,C9,2*%
%TO.N,Net-(C10-Pad1)*%
X150749000Y-68413000D03*
%TO.P,C9,1*%
%TO.N,Net-(C9-Pad1)*%
X150749000Y-65913000D03*
%TD*%
%TO.P,C8,2*%
%TO.N,Net-(C8-Pad2)*%
X131659000Y-109601000D03*
%TO.P,C8,1*%
%TO.N,Net-(C8-Pad1)*%
X129159000Y-109601000D03*
%TD*%
%TO.P,C7,2*%
%TO.N,Net-(C7-Pad2)*%
X155615000Y-98298000D03*
%TO.P,C7,1*%
%TO.N,Net-(C7-Pad1)*%
X158115000Y-98298000D03*
%TD*%
D21*
%TO.N,-12V*%
X147202900Y-151939600D03*
%TO.N,Net-(C8-Pad1)*%
X155067000Y-84212100D03*
%TO.N,Net-(C10-Pad1)*%
X133947300Y-113372800D03*
%TO.N,Net-(C9-Pad1)*%
X140951300Y-94736900D03*
%TO.N,Net-(C10-Pad2)*%
X141634800Y-92803300D03*
X144602500Y-78128400D03*
%TO.N,Net-(Q1-Pad2)*%
X143689000Y-77268500D03*
%TO.N,Net-(R18-Pad2)*%
X144014000Y-101432600D03*
%TO.N,Net-(C13-Pad2)*%
X136196500Y-144502000D03*
%TO.N,Net-(C14-Pad2)*%
X149322800Y-86063100D03*
%TO.N,GND*%
X147066000Y-72009000D03*
X147066000Y-76708000D03*
X135669500Y-115776800D03*
X144780000Y-97409000D03*
X149733000Y-106045000D03*
X129286000Y-121539000D03*
X135255000Y-131191000D03*
X129159000Y-141732000D03*
X132588000Y-141478000D03*
X137795000Y-147193000D03*
X137922000Y-151765000D03*
X144653000Y-153162000D03*
X128651000Y-168910000D03*
X144907000Y-163957000D03*
X153416000Y-166370000D03*
X153924000Y-159766000D03*
X163576000Y-158623000D03*
X163576000Y-166116000D03*
X157099000Y-165989000D03*
X160401000Y-142748000D03*
X160528000Y-140208000D03*
X148120250Y-144945250D03*
X151384000Y-145034000D03*
X146177000Y-142494000D03*
X150241000Y-137922000D03*
X149987000Y-133096000D03*
X140335000Y-141859000D03*
X133731000Y-135763000D03*
X155702000Y-66929000D03*
X162306000Y-66929000D03*
X163195000Y-74295000D03*
X154686000Y-74930000D03*
X162179000Y-93726000D03*
X162179000Y-99441000D03*
X163576000Y-111379000D03*
X152527000Y-110871000D03*
X135890000Y-81026000D03*
X137033000Y-93345000D03*
X151003000Y-89281000D03*
X134239000Y-84582000D03*
X139473600Y-85570400D03*
X142715450Y-98330550D03*
X147193000Y-64643000D03*
X141986000Y-77089000D03*
X150114000Y-78359000D03*
X145813950Y-105808950D03*
X141705000Y-111225000D03*
X143510000Y-91059000D03*
%TD*%
D22*
%TO.N,+12V*%
X143764000Y-136779000D02*
X142088700Y-136779000D01*
X142088700Y-136779000D02*
X133477000Y-145390700D01*
X133477000Y-145390700D02*
X133477000Y-152146000D01*
X143764000Y-136779000D02*
X143764000Y-135103700D01*
X143764000Y-135103700D02*
X139870300Y-131210000D01*
X139870300Y-131210000D02*
X139870300Y-125222000D01*
X137795000Y-125222000D02*
X139870300Y-125222000D01*
X149084000Y-108846000D02*
X149084000Y-112479700D01*
X149084000Y-112479700D02*
X146368200Y-115195500D01*
X146368200Y-115195500D02*
X146368200Y-118724100D01*
X146368200Y-118724100D02*
X139870300Y-125222000D01*
%TO.N,-12V*%
X144272000Y-148169000D02*
X147202800Y-151099800D01*
X147202800Y-151099800D02*
X147202800Y-151939600D01*
X147202800Y-151939600D02*
X147202900Y-151939600D01*
D23*
%TO.N,Net-(C7-Pad2)*%
X162814000Y-102108000D02*
X159425000Y-102108000D01*
X159425000Y-102108000D02*
X155615000Y-98298000D01*
%TO.N,Net-(C7-Pad1)*%
X130175000Y-130302000D02*
X131825300Y-130302000D01*
X158115000Y-98298000D02*
X156856400Y-97039400D01*
X156856400Y-97039400D02*
X152846700Y-97039400D01*
X152846700Y-97039400D02*
X134197300Y-115688800D01*
X134197300Y-115688800D02*
X134197300Y-127930000D01*
X134197300Y-127930000D02*
X131825300Y-130302000D01*
%TO.N,Net-(C8-Pad1)*%
X155067000Y-84212100D02*
X154633100Y-83778200D01*
X154633100Y-83778200D02*
X138636100Y-83778200D01*
X138636100Y-83778200D02*
X133731000Y-88683300D01*
X133731000Y-88683300D02*
X133731000Y-94742000D01*
X129159000Y-109601000D02*
X129159000Y-99314000D01*
X129159000Y-99314000D02*
X133731000Y-94742000D01*
%TO.N,Net-(C10-Pad1)*%
X133947300Y-113372800D02*
X161849000Y-85471100D01*
X161849000Y-85471100D02*
X162776400Y-85471100D01*
X162776400Y-85471100D02*
X163735800Y-84511700D01*
X163735800Y-84511700D02*
X163735800Y-80647600D01*
X163735800Y-80647600D02*
X162162500Y-79074300D01*
X162162500Y-79074300D02*
X161403000Y-79074300D01*
X161403000Y-77724000D02*
X161403000Y-79074300D01*
X150622000Y-72771000D02*
X151222300Y-73371300D01*
X151222300Y-73371300D02*
X157050300Y-73371300D01*
X157050300Y-73371300D02*
X161403000Y-77724000D01*
%TO.N,Net-(C9-Pad1)*%
X131825300Y-127762000D02*
X133096900Y-126490400D01*
X133096900Y-126490400D02*
X133096900Y-112095100D01*
X133096900Y-112095100D02*
X139838500Y-105353500D01*
X139838500Y-105353500D02*
X139838500Y-95849700D01*
X139838500Y-95849700D02*
X140951300Y-94736900D01*
X130175000Y-127762000D02*
X131825300Y-127762000D01*
%TO.N,Net-(C10-Pad2)*%
X130175000Y-125222000D02*
X131825300Y-125222000D01*
X141634800Y-92803300D02*
X132920900Y-101517200D01*
X132920900Y-101517200D02*
X132920900Y-110997800D01*
X132920900Y-110997800D02*
X131825300Y-112093400D01*
X131825300Y-112093400D02*
X131825300Y-125222000D01*
X150622000Y-75271000D02*
X147764600Y-78128400D01*
X147764600Y-78128400D02*
X144602500Y-78128400D01*
%TO.N,Net-(C11-Pad1)*%
X133959000Y-77724000D02*
X131459000Y-77724000D01*
%TO.N,Net-(C12-Pad1)*%
X148971000Y-123109700D02*
X154400600Y-117680100D01*
X154400600Y-117680100D02*
X154400600Y-111363800D01*
X154400600Y-111363800D02*
X162386400Y-103378000D01*
X162386400Y-103378000D02*
X163272100Y-103378000D01*
X163272100Y-103378000D02*
X164371400Y-102278700D01*
X164371400Y-102278700D02*
X164371400Y-78241500D01*
X164371400Y-78241500D02*
X158600700Y-72470800D01*
X158600700Y-72470800D02*
X152476600Y-72470800D01*
X152476600Y-72470800D02*
X146934800Y-66929000D01*
X146934800Y-66929000D02*
X144526000Y-66929000D01*
X148971000Y-124460000D02*
X148971000Y-123109700D01*
%TO.N,Net-(C13-Pad1)*%
X148844000Y-129159000D02*
X148844000Y-127908700D01*
X146471000Y-124460000D02*
X146471000Y-125535700D01*
X146471000Y-125535700D02*
X148844000Y-127908700D01*
D22*
%TO.N,Net-(D2-Pad2)*%
X161671000Y-136398000D02*
X159131000Y-136398000D01*
%TO.N,Net-(D3-Pad1)*%
X161671000Y-146558000D02*
X159131000Y-146558000D01*
D23*
%TO.N,Net-(Q1-Pad2)*%
X129540000Y-83439000D02*
X128139700Y-82038700D01*
X128139700Y-82038700D02*
X128139700Y-79816000D01*
X128139700Y-79816000D02*
X128457100Y-79498600D01*
X128457100Y-79498600D02*
X141458900Y-79498600D01*
X141458900Y-79498600D02*
X143689000Y-77268500D01*
%TO.N,Net-(Q5-Pad3)*%
X158903000Y-77724000D02*
X156403000Y-77724000D01*
%TO.N,Net-(R18-Pad2)*%
X146584000Y-93352000D02*
X146584000Y-98862600D01*
X146584000Y-98862600D02*
X144014000Y-101432600D01*
X149084000Y-93352000D02*
X146584000Y-93352000D01*
%TO.N,Net-(C13-Pad2)*%
X146844000Y-129159000D02*
X146844000Y-138250100D01*
X146844000Y-138250100D02*
X140592100Y-144502000D01*
X140592100Y-144502000D02*
X136196500Y-144502000D01*
%TO.N,Net-(C17-Pad1)*%
X128397000Y-152146000D02*
X129597300Y-152146000D01*
X129597300Y-152146000D02*
X129597300Y-152584400D01*
X129597300Y-152584400D02*
X130359200Y-153346300D01*
X130359200Y-153346300D02*
X130613300Y-153346300D01*
X130613300Y-153346300D02*
X139192000Y-161925000D01*
%TO.N,Net-(C14-Pad2)*%
X135422000Y-88773000D02*
X136672400Y-87522600D01*
X136672400Y-87522600D02*
X139590500Y-87522600D01*
X139590500Y-87522600D02*
X140037100Y-87969200D01*
X140037100Y-87969200D02*
X147416700Y-87969200D01*
X147416700Y-87969200D02*
X149322800Y-86063100D01*
%TO.N,ACCENT_IN*%
X162814000Y-107188000D02*
X162814000Y-108388300D01*
X162814000Y-108388300D02*
X157630600Y-113571700D01*
X157630600Y-113571700D02*
X157630600Y-150631400D01*
X157630600Y-150631400D02*
X150114000Y-158148000D01*
%TO.N,Net-(C14-Pad1)*%
X137922000Y-88773000D02*
X139172300Y-88773000D01*
X144084000Y-93352000D02*
X143751300Y-93352000D01*
X143751300Y-93352000D02*
X139172300Y-88773000D01*
D22*
%TO.N,GND*%
X141692000Y-161925000D02*
X141692000Y-165109400D01*
X144084000Y-108846000D02*
X141705000Y-111225000D01*
X137153200Y-115776800D02*
X135669500Y-115776800D01*
X141692000Y-165109400D02*
X143250100Y-165109400D01*
X143250100Y-165109400D02*
X147688700Y-169548000D01*
X134759300Y-169545000D02*
X139194900Y-165109400D01*
X139194900Y-165109400D02*
X141692000Y-165109400D01*
X150114000Y-169548000D02*
X147688700Y-169548000D01*
X129540000Y-80899000D02*
X131165300Y-80899000D01*
X131169700Y-82213900D02*
X160127800Y-82213900D01*
X160127800Y-82213900D02*
X160680700Y-81661000D01*
X131165300Y-80899000D02*
X131165300Y-82209500D01*
X131165300Y-82209500D02*
X131169700Y-82213900D01*
X131169700Y-82213900D02*
X131169700Y-90598000D01*
X131169700Y-90598000D02*
X128651000Y-93116700D01*
X162306000Y-81661000D02*
X160680700Y-81661000D01*
X128651000Y-94742000D02*
X128651000Y-93116700D01*
X157975700Y-169515000D02*
X157942700Y-169548000D01*
X157942700Y-169548000D02*
X150114000Y-169548000D01*
X132334000Y-169545000D02*
X134759300Y-169545000D01*
X160401000Y-169515000D02*
X157975700Y-169515000D01*
X143764000Y-139279000D02*
X144104900Y-139279000D01*
X144104900Y-139279000D02*
X145453800Y-137930100D01*
X145453800Y-137930100D02*
X145453800Y-131114700D01*
X145453800Y-131114700D02*
X143971000Y-129631900D01*
X143971000Y-129631900D02*
X143971000Y-124460000D01*
X163576000Y-120396000D02*
X163576000Y-137033000D01*
X163576000Y-137033000D02*
X161671000Y-138938000D01*
X161671000Y-144018000D02*
X159131000Y-144018000D01*
X141705000Y-111225000D02*
X137153200Y-115776800D01*
%TD*%
D24*
%TO.N,GND*%
X164993107Y-171039793D02*
X164977940Y-171154912D01*
X164952078Y-171217350D01*
X164910979Y-171270917D01*
X164857439Y-171312001D01*
X164795044Y-171337844D01*
X164679930Y-171353000D01*
X128136277Y-171353000D01*
X128021161Y-171337845D01*
X127958779Y-171312005D01*
X127905207Y-171270898D01*
X127864103Y-171217330D01*
X127838262Y-171154945D01*
X127823107Y-171039829D01*
X127823107Y-169948964D01*
X130195312Y-169948964D01*
X130236274Y-170110757D01*
X130379269Y-170431096D01*
X130582011Y-170717383D01*
X130836710Y-170958616D01*
X131133577Y-171145524D01*
X131461204Y-171270925D01*
X131807000Y-171330000D01*
X132207000Y-171330000D01*
X132207000Y-169672000D01*
X132461000Y-169672000D01*
X132461000Y-171330000D01*
X132861000Y-171330000D01*
X133206796Y-171270925D01*
X133534423Y-171145524D01*
X133831290Y-170958616D01*
X134085989Y-170717383D01*
X134288731Y-170431096D01*
X134431726Y-170110757D01*
X134471928Y-169951964D01*
X147975312Y-169951964D01*
X148016274Y-170113757D01*
X148159269Y-170434096D01*
X148362011Y-170720383D01*
X148616710Y-170961616D01*
X148913577Y-171148524D01*
X149241204Y-171273925D01*
X149587000Y-171333000D01*
X149987000Y-171333000D01*
X149987000Y-169675000D01*
X150241000Y-169675000D01*
X150241000Y-171333000D01*
X150641000Y-171333000D01*
X150986796Y-171273925D01*
X151314423Y-171148524D01*
X151611290Y-170961616D01*
X151865989Y-170720383D01*
X152068731Y-170434096D01*
X152211726Y-170113757D01*
X152252688Y-169951964D01*
X152238700Y-169918964D01*
X158262312Y-169918964D01*
X158303274Y-170080757D01*
X158446269Y-170401096D01*
X158649011Y-170687383D01*
X158903710Y-170928616D01*
X159200577Y-171115524D01*
X159528204Y-171240925D01*
X159874000Y-171300000D01*
X160274000Y-171300000D01*
X160274000Y-169642000D01*
X160528000Y-169642000D01*
X160528000Y-171300000D01*
X160928000Y-171300000D01*
X161273796Y-171240925D01*
X161601423Y-171115524D01*
X161898290Y-170928616D01*
X162152989Y-170687383D01*
X162355731Y-170401096D01*
X162498726Y-170080757D01*
X162539688Y-169918964D01*
X162422283Y-169642000D01*
X160528000Y-169642000D01*
X160274000Y-169642000D01*
X158379717Y-169642000D01*
X158262312Y-169918964D01*
X152238700Y-169918964D01*
X152135283Y-169675000D01*
X150241000Y-169675000D01*
X149987000Y-169675000D01*
X148092717Y-169675000D01*
X147975312Y-169951964D01*
X134471928Y-169951964D01*
X134472688Y-169948964D01*
X134355283Y-169672000D01*
X132461000Y-169672000D01*
X132207000Y-169672000D01*
X130312717Y-169672000D01*
X130195312Y-169948964D01*
X127823107Y-169948964D01*
X127823107Y-169141036D01*
X130195312Y-169141036D01*
X130312717Y-169418000D01*
X132207000Y-169418000D01*
X132207000Y-169398000D01*
X132461000Y-169398000D01*
X132461000Y-169418000D01*
X134355283Y-169418000D01*
X134472688Y-169141036D01*
X134431726Y-168979243D01*
X134288731Y-168658904D01*
X134085989Y-168372617D01*
X133831290Y-168131384D01*
X133780641Y-168099495D01*
X133894804Y-168005804D01*
X134054993Y-167810614D01*
X134085967Y-167752665D01*
X138678000Y-167752665D01*
X138678000Y-168035335D01*
X138733147Y-168312574D01*
X138841320Y-168573727D01*
X138998363Y-168808759D01*
X139198241Y-169008637D01*
X139433273Y-169165680D01*
X139694426Y-169273853D01*
X139971665Y-169329000D01*
X140254335Y-169329000D01*
X140531574Y-169273853D01*
X140792727Y-169165680D01*
X140848210Y-169128607D01*
X140861815Y-169145185D01*
X140958506Y-169224537D01*
X141068820Y-169283502D01*
X141188518Y-169319812D01*
X141313000Y-169332072D01*
X142913000Y-169332072D01*
X143037482Y-169319812D01*
X143157180Y-169283502D01*
X143267494Y-169224537D01*
X143364185Y-169145185D01*
X143365127Y-169144036D01*
X147975312Y-169144036D01*
X148092717Y-169421000D01*
X149987000Y-169421000D01*
X149987000Y-169401000D01*
X150241000Y-169401000D01*
X150241000Y-169421000D01*
X152135283Y-169421000D01*
X152252688Y-169144036D01*
X152244334Y-169111036D01*
X158262312Y-169111036D01*
X158379717Y-169388000D01*
X160274000Y-169388000D01*
X160274000Y-169368000D01*
X160528000Y-169368000D01*
X160528000Y-169388000D01*
X162422283Y-169388000D01*
X162539688Y-169111036D01*
X162498726Y-168949243D01*
X162355731Y-168628904D01*
X162152989Y-168342617D01*
X161898290Y-168101384D01*
X161847641Y-168069495D01*
X161961804Y-167975804D01*
X162121993Y-167780614D01*
X162241023Y-167557924D01*
X162314322Y-167316290D01*
X162339072Y-167065000D01*
X162339072Y-165765000D01*
X162314322Y-165513710D01*
X162241023Y-165272076D01*
X162121993Y-165049386D01*
X161961804Y-164854196D01*
X161766614Y-164694007D01*
X161543924Y-164574977D01*
X161379287Y-164525035D01*
X161493200Y-164439600D01*
X161506803Y-164427803D01*
X161887803Y-164046803D01*
X161898329Y-164034866D01*
X161911592Y-164013796D01*
X162165592Y-163505796D01*
X162176560Y-163473776D01*
X162179000Y-163449000D01*
X162179000Y-162814000D01*
X162178003Y-162798116D01*
X162172483Y-162773839D01*
X161918483Y-162011839D01*
X161908333Y-161989106D01*
X161893943Y-161968789D01*
X161875866Y-161951671D01*
X161854796Y-161938408D01*
X161619232Y-161820626D01*
X161379803Y-161581197D01*
X161367866Y-161570671D01*
X161346796Y-161557408D01*
X160838796Y-161303408D01*
X160806776Y-161292440D01*
X160782000Y-161290000D01*
X160147000Y-161290000D01*
X160131116Y-161290997D01*
X160106839Y-161296517D01*
X159725839Y-161423517D01*
X159709204Y-161430408D01*
X159201204Y-161684408D01*
X159187332Y-161692477D01*
X159168104Y-161708291D01*
X159152330Y-161727553D01*
X158644330Y-162489553D01*
X158632667Y-162511399D01*
X158625440Y-162535224D01*
X158623000Y-162560000D01*
X158623000Y-163195000D01*
X158626792Y-163225802D01*
X158753792Y-163733802D01*
X158763408Y-163759796D01*
X158890408Y-164013796D01*
X158898477Y-164027668D01*
X158914291Y-164046896D01*
X158933553Y-164062670D01*
X159286491Y-164297962D01*
X159398408Y-164521796D01*
X159404017Y-164530706D01*
X159258076Y-164574977D01*
X159035386Y-164694007D01*
X158840196Y-164854196D01*
X158680007Y-165049386D01*
X158560977Y-165272076D01*
X158487678Y-165513710D01*
X158462928Y-165765000D01*
X158462928Y-167065000D01*
X158487678Y-167316290D01*
X158560977Y-167557924D01*
X158680007Y-167780614D01*
X158840196Y-167975804D01*
X158954359Y-168069495D01*
X158903710Y-168101384D01*
X158649011Y-168342617D01*
X158446269Y-168628904D01*
X158303274Y-168949243D01*
X158262312Y-169111036D01*
X152244334Y-169111036D01*
X152211726Y-168982243D01*
X152068731Y-168661904D01*
X151865989Y-168375617D01*
X151611290Y-168134384D01*
X151560641Y-168102495D01*
X151674804Y-168008804D01*
X151834993Y-167813614D01*
X151954023Y-167590924D01*
X152027322Y-167349290D01*
X152052072Y-167098000D01*
X152052072Y-165798000D01*
X152027322Y-165546710D01*
X151954023Y-165305076D01*
X151834993Y-165082386D01*
X151674804Y-164887196D01*
X151479614Y-164727007D01*
X151256924Y-164607977D01*
X151018610Y-164535685D01*
X151186796Y-164451592D01*
X151200447Y-164443670D01*
X151581447Y-164189670D01*
X151606943Y-164167211D01*
X151621333Y-164146894D01*
X151631483Y-164124161D01*
X151758483Y-163743161D01*
X151761208Y-163733802D01*
X151888208Y-163225802D01*
X151892000Y-163195000D01*
X151892000Y-162560000D01*
X151889586Y-162535354D01*
X151882383Y-162511522D01*
X151870670Y-162489553D01*
X151616670Y-162108553D01*
X151600803Y-162089197D01*
X151219803Y-161708197D01*
X151200447Y-161692330D01*
X150819447Y-161438330D01*
X150803247Y-161429168D01*
X150779802Y-161420792D01*
X150271802Y-161293792D01*
X150241000Y-161290000D01*
X149733000Y-161290000D01*
X149708354Y-161292414D01*
X149684522Y-161299617D01*
X149662553Y-161311330D01*
X149295706Y-161555895D01*
X148930839Y-161677517D01*
X148900443Y-161692403D01*
X148881197Y-161708197D01*
X148500197Y-162089197D01*
X148489671Y-162101134D01*
X148476408Y-162122204D01*
X148222408Y-162630204D01*
X148211414Y-162662354D01*
X148209000Y-162687133D01*
X148211466Y-162711907D01*
X148338466Y-163346907D01*
X148339792Y-163352802D01*
X148466792Y-163860802D01*
X148472617Y-163878478D01*
X148484330Y-163900447D01*
X148738330Y-164281447D01*
X148758669Y-164305062D01*
X148778659Y-164319902D01*
X149162171Y-164550009D01*
X148971076Y-164607977D01*
X148748386Y-164727007D01*
X148553196Y-164887196D01*
X148393007Y-165082386D01*
X148273977Y-165305076D01*
X148200678Y-165546710D01*
X148175928Y-165798000D01*
X148175928Y-167098000D01*
X148200678Y-167349290D01*
X148273977Y-167590924D01*
X148393007Y-167813614D01*
X148553196Y-168008804D01*
X148667359Y-168102495D01*
X148616710Y-168134384D01*
X148362011Y-168375617D01*
X148159269Y-168661904D01*
X148016274Y-168982243D01*
X147975312Y-169144036D01*
X143365127Y-169144036D01*
X143443537Y-169048494D01*
X143502502Y-168938180D01*
X143538812Y-168818482D01*
X143551072Y-168694000D01*
X143551072Y-167094000D01*
X143538812Y-166969518D01*
X143502502Y-166849820D01*
X143443537Y-166739506D01*
X143364185Y-166642815D01*
X143267494Y-166563463D01*
X143157180Y-166504498D01*
X143037482Y-166468188D01*
X142913000Y-166455928D01*
X141313000Y-166455928D01*
X141188518Y-166468188D01*
X141068820Y-166504498D01*
X140958506Y-166563463D01*
X140861815Y-166642815D01*
X140848210Y-166659393D01*
X140792727Y-166622320D01*
X140531574Y-166514147D01*
X140254335Y-166459000D01*
X139971665Y-166459000D01*
X139694426Y-166514147D01*
X139433273Y-166622320D01*
X139198241Y-166779363D01*
X138998363Y-166979241D01*
X138841320Y-167214273D01*
X138733147Y-167475426D01*
X138678000Y-167752665D01*
X134085967Y-167752665D01*
X134174023Y-167587924D01*
X134247322Y-167346290D01*
X134272072Y-167095000D01*
X134272072Y-165795000D01*
X134247322Y-165543710D01*
X134174023Y-165302076D01*
X134054993Y-165079386D01*
X133894804Y-164884196D01*
X133699614Y-164724007D01*
X133476924Y-164604977D01*
X133400433Y-164581774D01*
X133406796Y-164578592D01*
X133420557Y-164570597D01*
X133439803Y-164554803D01*
X133693803Y-164300803D01*
X133709670Y-164281447D01*
X134217670Y-163519447D01*
X134229333Y-163497601D01*
X134236560Y-163473776D01*
X134239000Y-163449000D01*
X134239000Y-162687000D01*
X134238003Y-162671116D01*
X134232483Y-162646839D01*
X134105483Y-162265839D01*
X134090597Y-162235443D01*
X134074803Y-162216197D01*
X133566803Y-161708197D01*
X133547447Y-161692330D01*
X133166447Y-161438330D01*
X133150247Y-161429168D01*
X133126802Y-161420792D01*
X132618802Y-161293792D01*
X132588000Y-161290000D01*
X132207000Y-161290000D01*
X132191116Y-161290997D01*
X132166839Y-161296517D01*
X131785839Y-161423517D01*
X131755553Y-161438330D01*
X131374553Y-161692330D01*
X131355197Y-161708197D01*
X130847197Y-162216197D01*
X130826667Y-162243106D01*
X130816517Y-162265839D01*
X130689517Y-162646839D01*
X130685440Y-162662224D01*
X130683000Y-162687000D01*
X130683000Y-163449000D01*
X130683997Y-163464884D01*
X130689517Y-163489161D01*
X130816517Y-163870161D01*
X130831403Y-163900557D01*
X130847197Y-163919803D01*
X131456708Y-164529314D01*
X131432710Y-164531678D01*
X131191076Y-164604977D01*
X130968386Y-164724007D01*
X130773196Y-164884196D01*
X130613007Y-165079386D01*
X130493977Y-165302076D01*
X130420678Y-165543710D01*
X130395928Y-165795000D01*
X130395928Y-167095000D01*
X130420678Y-167346290D01*
X130493977Y-167587924D01*
X130613007Y-167810614D01*
X130773196Y-168005804D01*
X130887359Y-168099495D01*
X130836710Y-168131384D01*
X130582011Y-168372617D01*
X130379269Y-168658904D01*
X130236274Y-168979243D01*
X130195312Y-169141036D01*
X127823107Y-169141036D01*
X127823107Y-153534072D01*
X129147000Y-153534072D01*
X129271482Y-153521812D01*
X129388928Y-153486185D01*
X129776857Y-153874115D01*
X129801436Y-153904064D01*
X129831384Y-153928642D01*
X129831387Y-153928645D01*
X129860759Y-153952750D01*
X129920967Y-154002162D01*
X130057340Y-154075054D01*
X130170872Y-154109494D01*
X130205312Y-154119941D01*
X130219690Y-154121357D01*
X130284593Y-154127750D01*
X132363771Y-156206928D01*
X131684000Y-156206928D01*
X131432710Y-156231678D01*
X131191076Y-156304977D01*
X130968386Y-156424007D01*
X130773196Y-156584196D01*
X130613007Y-156779386D01*
X130493977Y-157002076D01*
X130420678Y-157243710D01*
X130395928Y-157495000D01*
X130395928Y-158795000D01*
X130420678Y-159046290D01*
X130493977Y-159287924D01*
X130613007Y-159510614D01*
X130773196Y-159705804D01*
X130968386Y-159865993D01*
X131191076Y-159985023D01*
X131432710Y-160058322D01*
X131684000Y-160083072D01*
X132984000Y-160083072D01*
X133235290Y-160058322D01*
X133476924Y-159985023D01*
X133699614Y-159865993D01*
X133894804Y-159705804D01*
X134054993Y-159510614D01*
X134174023Y-159287924D01*
X134247322Y-159046290D01*
X134272072Y-158795000D01*
X134272072Y-158115229D01*
X137787446Y-161630603D01*
X137757000Y-161783665D01*
X137757000Y-162066335D01*
X137812147Y-162343574D01*
X137920320Y-162604727D01*
X138077363Y-162839759D01*
X138277241Y-163039637D01*
X138512273Y-163196680D01*
X138773426Y-163304853D01*
X139050665Y-163360000D01*
X139333335Y-163360000D01*
X139610574Y-163304853D01*
X139871727Y-163196680D01*
X140106759Y-163039637D01*
X140228694Y-162917702D01*
X140878903Y-162917702D01*
X140950486Y-163161671D01*
X141205996Y-163282571D01*
X141480184Y-163351300D01*
X141762512Y-163365217D01*
X142042130Y-163323787D01*
X142308292Y-163228603D01*
X142433514Y-163161671D01*
X142505097Y-162917702D01*
X141692000Y-162104605D01*
X140878903Y-162917702D01*
X140228694Y-162917702D01*
X140306637Y-162839759D01*
X140440692Y-162639131D01*
X140455329Y-162666514D01*
X140699298Y-162738097D01*
X141512395Y-161925000D01*
X141871605Y-161925000D01*
X142684702Y-162738097D01*
X142928671Y-162666514D01*
X143049571Y-162411004D01*
X143118300Y-162136816D01*
X143132217Y-161854488D01*
X143090787Y-161574870D01*
X142995603Y-161308708D01*
X142928671Y-161183486D01*
X142684702Y-161111903D01*
X141871605Y-161925000D01*
X141512395Y-161925000D01*
X140699298Y-161111903D01*
X140455329Y-161183486D01*
X140441676Y-161212341D01*
X140306637Y-161010241D01*
X140228694Y-160932298D01*
X140878903Y-160932298D01*
X141692000Y-161745395D01*
X142505097Y-160932298D01*
X142433514Y-160688329D01*
X142178004Y-160567429D01*
X141903816Y-160498700D01*
X141621488Y-160484783D01*
X141341870Y-160526213D01*
X141075708Y-160621397D01*
X140950486Y-160688329D01*
X140878903Y-160932298D01*
X140228694Y-160932298D01*
X140106759Y-160810363D01*
X139871727Y-160653320D01*
X139610574Y-160545147D01*
X139333335Y-160490000D01*
X139050665Y-160490000D01*
X138897603Y-160520446D01*
X131687448Y-153310291D01*
X131819886Y-153221799D01*
X132012799Y-153028886D01*
X132164371Y-152802043D01*
X132207000Y-152699127D01*
X132249629Y-152802043D01*
X132401201Y-153028886D01*
X132594114Y-153221799D01*
X132820957Y-153373371D01*
X133073011Y-153477775D01*
X133340589Y-153531000D01*
X133613411Y-153531000D01*
X133880989Y-153477775D01*
X134133043Y-153373371D01*
X134359886Y-153221799D01*
X134552799Y-153028886D01*
X134704371Y-152802043D01*
X134808775Y-152549989D01*
X134862000Y-152282411D01*
X134862000Y-152009589D01*
X134808775Y-151742011D01*
X134704371Y-151489957D01*
X134552799Y-151263114D01*
X134487000Y-151197315D01*
X134487000Y-146469000D01*
X142833928Y-146469000D01*
X142846188Y-146593482D01*
X142882498Y-146713180D01*
X142941463Y-146823494D01*
X143020815Y-146920185D01*
X143117506Y-146999537D01*
X143227820Y-147058502D01*
X143323943Y-147087661D01*
X143157363Y-147254241D01*
X143000320Y-147489273D01*
X142892147Y-147750426D01*
X142837000Y-148027665D01*
X142837000Y-148310335D01*
X142892147Y-148587574D01*
X143000320Y-148848727D01*
X143157363Y-149083759D01*
X143357241Y-149283637D01*
X143592273Y-149440680D01*
X143853426Y-149548853D01*
X144130665Y-149604000D01*
X144278645Y-149604000D01*
X146192800Y-151518155D01*
X146192800Y-151712479D01*
X146167900Y-151837661D01*
X146167900Y-152041539D01*
X146207674Y-152241498D01*
X146285695Y-152429856D01*
X146398963Y-152599374D01*
X146543126Y-152743537D01*
X146712644Y-152856805D01*
X146901002Y-152934826D01*
X147100961Y-152974600D01*
X147304839Y-152974600D01*
X147504798Y-152934826D01*
X147693156Y-152856805D01*
X147862674Y-152743537D01*
X148006837Y-152599374D01*
X148120105Y-152429856D01*
X148198126Y-152241498D01*
X148237900Y-152041539D01*
X148237900Y-151837661D01*
X148212800Y-151711474D01*
X148212800Y-151149404D01*
X148217686Y-151099799D01*
X148208050Y-151001968D01*
X148198185Y-150901806D01*
X148140432Y-150711420D01*
X148046647Y-150535960D01*
X147920433Y-150382167D01*
X147881894Y-150350539D01*
X145707000Y-148175645D01*
X145707000Y-148027665D01*
X145651853Y-147750426D01*
X145543680Y-147489273D01*
X145386637Y-147254241D01*
X145220057Y-147087661D01*
X145316180Y-147058502D01*
X145426494Y-146999537D01*
X145523185Y-146920185D01*
X145602537Y-146823494D01*
X145661502Y-146713180D01*
X145697812Y-146593482D01*
X145710072Y-146469000D01*
X145707000Y-145954750D01*
X145548250Y-145796000D01*
X144399000Y-145796000D01*
X144399000Y-145816000D01*
X144145000Y-145816000D01*
X144145000Y-145796000D01*
X142995750Y-145796000D01*
X142837000Y-145954750D01*
X142833928Y-146469000D01*
X134487000Y-146469000D01*
X134487000Y-145809055D01*
X135289110Y-145006945D01*
X135392563Y-145161774D01*
X135536726Y-145305937D01*
X135706244Y-145419205D01*
X135894602Y-145497226D01*
X136094561Y-145537000D01*
X136298439Y-145537000D01*
X136498398Y-145497226D01*
X136686756Y-145419205D01*
X136856274Y-145305937D01*
X136875211Y-145287000D01*
X140553547Y-145287000D01*
X140592100Y-145290797D01*
X140630653Y-145287000D01*
X140630661Y-145287000D01*
X140745987Y-145275641D01*
X140893960Y-145230754D01*
X141030333Y-145157862D01*
X141149864Y-145059764D01*
X141174447Y-145029810D01*
X141335257Y-144869000D01*
X142833928Y-144869000D01*
X142837000Y-145383250D01*
X142995750Y-145542000D01*
X144145000Y-145542000D01*
X144145000Y-144392750D01*
X144399000Y-144392750D01*
X144399000Y-145542000D01*
X145548250Y-145542000D01*
X145707000Y-145383250D01*
X145710072Y-144869000D01*
X145697812Y-144744518D01*
X145661502Y-144624820D01*
X145602537Y-144514506D01*
X145523185Y-144417815D01*
X145426494Y-144338463D01*
X145316180Y-144279498D01*
X145196482Y-144243188D01*
X145072000Y-144230928D01*
X144557750Y-144234000D01*
X144399000Y-144392750D01*
X144145000Y-144392750D01*
X143986250Y-144234000D01*
X143472000Y-144230928D01*
X143347518Y-144243188D01*
X143227820Y-144279498D01*
X143117506Y-144338463D01*
X143020815Y-144417815D01*
X142941463Y-144514506D01*
X142882498Y-144624820D01*
X142846188Y-144744518D01*
X142833928Y-144869000D01*
X141335257Y-144869000D01*
X147371810Y-138832447D01*
X147401764Y-138807864D01*
X147499862Y-138688333D01*
X147572754Y-138551960D01*
X147577145Y-138537486D01*
X147617642Y-138403987D01*
X147627464Y-138304253D01*
X147629000Y-138288661D01*
X147629000Y-138288656D01*
X147632797Y-138250100D01*
X147629000Y-138211544D01*
X147629000Y-130439881D01*
X147689506Y-130489537D01*
X147799820Y-130548502D01*
X147919518Y-130584812D01*
X148044000Y-130597072D01*
X149644000Y-130597072D01*
X149768482Y-130584812D01*
X149888180Y-130548502D01*
X149998494Y-130489537D01*
X150095185Y-130410185D01*
X150174537Y-130313494D01*
X150233502Y-130203180D01*
X150269812Y-130083482D01*
X150282072Y-129959000D01*
X150282072Y-128359000D01*
X150269812Y-128234518D01*
X150233502Y-128114820D01*
X150174537Y-128004506D01*
X150095185Y-127907815D01*
X149998494Y-127828463D01*
X149888180Y-127769498D01*
X149768482Y-127733188D01*
X149644000Y-127720928D01*
X149607363Y-127720928D01*
X149572754Y-127606840D01*
X149511247Y-127491768D01*
X149499862Y-127470467D01*
X149401764Y-127350936D01*
X149371810Y-127326353D01*
X148040528Y-125995071D01*
X148071000Y-125998072D01*
X149871000Y-125998072D01*
X149995482Y-125985812D01*
X150115180Y-125949502D01*
X150225494Y-125890537D01*
X150322185Y-125811185D01*
X150401537Y-125714494D01*
X150460502Y-125604180D01*
X150496812Y-125484482D01*
X150509072Y-125360000D01*
X150509072Y-123560000D01*
X150496812Y-123435518D01*
X150460502Y-123315820D01*
X150401537Y-123205506D01*
X150322185Y-123108815D01*
X150225494Y-123029463D01*
X150183722Y-123007135D01*
X154928417Y-118262441D01*
X154958364Y-118237864D01*
X155056462Y-118118333D01*
X155129354Y-117981960D01*
X155131512Y-117974845D01*
X155174242Y-117833987D01*
X155181620Y-117759074D01*
X155185600Y-117718661D01*
X155185600Y-117718656D01*
X155189397Y-117680100D01*
X155185600Y-117641545D01*
X155185600Y-111688957D01*
X161581909Y-105292648D01*
X161586629Y-105304043D01*
X161738201Y-105530886D01*
X161931114Y-105723799D01*
X162047483Y-105801555D01*
X161939518Y-105812188D01*
X161819820Y-105848498D01*
X161709506Y-105907463D01*
X161612815Y-105986815D01*
X161533463Y-106083506D01*
X161474498Y-106193820D01*
X161438188Y-106313518D01*
X161425928Y-106438000D01*
X161425928Y-107938000D01*
X161438188Y-108062482D01*
X161474498Y-108182180D01*
X161533463Y-108292494D01*
X161612815Y-108389185D01*
X161662326Y-108429817D01*
X157102790Y-112989353D01*
X157072836Y-113013936D01*
X156974738Y-113133468D01*
X156901846Y-113269841D01*
X156856959Y-113417814D01*
X156845600Y-113533140D01*
X156845600Y-113533147D01*
X156841803Y-113571700D01*
X156845600Y-113610253D01*
X156845601Y-150306242D01*
X150925963Y-156225880D01*
X150764000Y-156209928D01*
X149464000Y-156209928D01*
X149212710Y-156234678D01*
X148971076Y-156307977D01*
X148748386Y-156427007D01*
X148553196Y-156587196D01*
X148393007Y-156782386D01*
X148273977Y-157005076D01*
X148200678Y-157246710D01*
X148175928Y-157498000D01*
X148175928Y-158798000D01*
X148200678Y-159049290D01*
X148273977Y-159290924D01*
X148393007Y-159513614D01*
X148553196Y-159708804D01*
X148748386Y-159868993D01*
X148971076Y-159988023D01*
X149212710Y-160061322D01*
X149464000Y-160086072D01*
X150764000Y-160086072D01*
X151015290Y-160061322D01*
X151256924Y-159988023D01*
X151479614Y-159868993D01*
X151674804Y-159708804D01*
X151834993Y-159513614D01*
X151954023Y-159290924D01*
X152027322Y-159049290D01*
X152052072Y-158798000D01*
X152052072Y-157498000D01*
X152048822Y-157465000D01*
X158462928Y-157465000D01*
X158462928Y-158765000D01*
X158487678Y-159016290D01*
X158560977Y-159257924D01*
X158680007Y-159480614D01*
X158840196Y-159675804D01*
X159035386Y-159835993D01*
X159258076Y-159955023D01*
X159499710Y-160028322D01*
X159751000Y-160053072D01*
X161051000Y-160053072D01*
X161302290Y-160028322D01*
X161543924Y-159955023D01*
X161766614Y-159835993D01*
X161961804Y-159675804D01*
X162121993Y-159480614D01*
X162241023Y-159257924D01*
X162314322Y-159016290D01*
X162339072Y-158765000D01*
X162339072Y-157465000D01*
X162314322Y-157213710D01*
X162241023Y-156972076D01*
X162121993Y-156749386D01*
X161961804Y-156554196D01*
X161766614Y-156394007D01*
X161543924Y-156274977D01*
X161302290Y-156201678D01*
X161051000Y-156176928D01*
X159751000Y-156176928D01*
X159499710Y-156201678D01*
X159258076Y-156274977D01*
X159035386Y-156394007D01*
X158840196Y-156554196D01*
X158680007Y-156749386D01*
X158560977Y-156972076D01*
X158487678Y-157213710D01*
X158462928Y-157465000D01*
X152048822Y-157465000D01*
X152036120Y-157336037D01*
X158158410Y-151213747D01*
X158188364Y-151189164D01*
X158286462Y-151069633D01*
X158359354Y-150933260D01*
X158368895Y-150901807D01*
X158404242Y-150785287D01*
X158411620Y-150710374D01*
X158415600Y-150669961D01*
X158415600Y-150669956D01*
X158419397Y-150631400D01*
X158415600Y-150592844D01*
X158415600Y-147865979D01*
X158427589Y-147873990D01*
X158697842Y-147985932D01*
X158984740Y-148043000D01*
X159277260Y-148043000D01*
X159564158Y-147985932D01*
X159834411Y-147873990D01*
X160077632Y-147711475D01*
X160221107Y-147568000D01*
X160288024Y-147568000D01*
X160332595Y-147651386D01*
X160443038Y-147785962D01*
X160577614Y-147896405D01*
X160731150Y-147978472D01*
X160897746Y-148029008D01*
X161071000Y-148046072D01*
X162271000Y-148046072D01*
X162444254Y-148029008D01*
X162610850Y-147978472D01*
X162764386Y-147896405D01*
X162898962Y-147785962D01*
X163009405Y-147651386D01*
X163091472Y-147497850D01*
X163142008Y-147331254D01*
X163159072Y-147158000D01*
X163159072Y-145958000D01*
X163142008Y-145784746D01*
X163091472Y-145618150D01*
X163009405Y-145464614D01*
X162898962Y-145330038D01*
X162764386Y-145219595D01*
X162610850Y-145137528D01*
X162501707Y-145104420D01*
X162519792Y-145046397D01*
X161671000Y-144197605D01*
X160822208Y-145046397D01*
X160840293Y-145104420D01*
X160731150Y-145137528D01*
X160577614Y-145219595D01*
X160443038Y-145330038D01*
X160332595Y-145464614D01*
X160288024Y-145548000D01*
X160221107Y-145548000D01*
X160077632Y-145404525D01*
X159904271Y-145288689D01*
X159979792Y-145046397D01*
X159131000Y-144197605D01*
X159116858Y-144211748D01*
X158937253Y-144032143D01*
X158951395Y-144018000D01*
X159310605Y-144018000D01*
X160159397Y-144866792D01*
X160401000Y-144791486D01*
X160642603Y-144866792D01*
X161491395Y-144018000D01*
X161850605Y-144018000D01*
X162699397Y-144866792D01*
X162948472Y-144789157D01*
X163074371Y-144525117D01*
X163146339Y-144241589D01*
X163161611Y-143949469D01*
X163119599Y-143659981D01*
X163021919Y-143384253D01*
X162948472Y-143246843D01*
X162699397Y-143169208D01*
X161850605Y-144018000D01*
X161491395Y-144018000D01*
X160642603Y-143169208D01*
X160401000Y-143244514D01*
X160159397Y-143169208D01*
X159310605Y-144018000D01*
X158951395Y-144018000D01*
X158937253Y-144003858D01*
X159116858Y-143824253D01*
X159131000Y-143838395D01*
X159979792Y-142989603D01*
X159904486Y-142748000D01*
X159979792Y-142506397D01*
X160822208Y-142506397D01*
X160897514Y-142748000D01*
X160822208Y-142989603D01*
X161671000Y-143838395D01*
X162519792Y-142989603D01*
X162444486Y-142748000D01*
X162519792Y-142506397D01*
X161671000Y-141657605D01*
X160822208Y-142506397D01*
X159979792Y-142506397D01*
X159131000Y-141657605D01*
X159116858Y-141671748D01*
X158937253Y-141492143D01*
X158951395Y-141478000D01*
X159310605Y-141478000D01*
X160159397Y-142326792D01*
X160401000Y-142251486D01*
X160642603Y-142326792D01*
X161491395Y-141478000D01*
X161850605Y-141478000D01*
X162699397Y-142326792D01*
X162948472Y-142249157D01*
X163074371Y-141985117D01*
X163146339Y-141701589D01*
X163161611Y-141409469D01*
X163119599Y-141119981D01*
X163021919Y-140844253D01*
X162948472Y-140706843D01*
X162699397Y-140629208D01*
X161850605Y-141478000D01*
X161491395Y-141478000D01*
X160642603Y-140629208D01*
X160401000Y-140704514D01*
X160159397Y-140629208D01*
X159310605Y-141478000D01*
X158951395Y-141478000D01*
X158937253Y-141463858D01*
X159116858Y-141284253D01*
X159131000Y-141298395D01*
X159979792Y-140449603D01*
X159904486Y-140208000D01*
X159979792Y-139966397D01*
X160822208Y-139966397D01*
X160897514Y-140208000D01*
X160822208Y-140449603D01*
X161671000Y-141298395D01*
X162519792Y-140449603D01*
X162444486Y-140208000D01*
X162519792Y-139966397D01*
X161671000Y-139117605D01*
X160822208Y-139966397D01*
X159979792Y-139966397D01*
X159131000Y-139117605D01*
X159116858Y-139131748D01*
X158937253Y-138952143D01*
X158951395Y-138938000D01*
X159310605Y-138938000D01*
X160159397Y-139786792D01*
X160401000Y-139711486D01*
X160642603Y-139786792D01*
X161491395Y-138938000D01*
X161850605Y-138938000D01*
X162699397Y-139786792D01*
X162948472Y-139709157D01*
X163074371Y-139445117D01*
X163146339Y-139161589D01*
X163161611Y-138869469D01*
X163119599Y-138579981D01*
X163021919Y-138304253D01*
X162948472Y-138166843D01*
X162699397Y-138089208D01*
X161850605Y-138938000D01*
X161491395Y-138938000D01*
X160642603Y-138089208D01*
X160401000Y-138164514D01*
X160159397Y-138089208D01*
X159310605Y-138938000D01*
X158951395Y-138938000D01*
X158937253Y-138923858D01*
X159116858Y-138744253D01*
X159131000Y-138758395D01*
X159979792Y-137909603D01*
X159904271Y-137667311D01*
X160077632Y-137551475D01*
X160221107Y-137408000D01*
X160580893Y-137408000D01*
X160724368Y-137551475D01*
X160897729Y-137667311D01*
X160822208Y-137909603D01*
X161671000Y-138758395D01*
X162519792Y-137909603D01*
X162444271Y-137667311D01*
X162617632Y-137551475D01*
X162824475Y-137344632D01*
X162986990Y-137101411D01*
X163098932Y-136831158D01*
X163156000Y-136544260D01*
X163156000Y-136251740D01*
X163098932Y-135964842D01*
X162986990Y-135694589D01*
X162824475Y-135451368D01*
X162617632Y-135244525D01*
X162374411Y-135082010D01*
X162104158Y-134970068D01*
X161817260Y-134913000D01*
X161524740Y-134913000D01*
X161237842Y-134970068D01*
X160967589Y-135082010D01*
X160724368Y-135244525D01*
X160580893Y-135388000D01*
X160221107Y-135388000D01*
X160077632Y-135244525D01*
X159834411Y-135082010D01*
X159564158Y-134970068D01*
X159277260Y-134913000D01*
X158984740Y-134913000D01*
X158697842Y-134970068D01*
X158427589Y-135082010D01*
X158415600Y-135090021D01*
X158415600Y-121146000D01*
X162187928Y-121146000D01*
X162200188Y-121270482D01*
X162236498Y-121390180D01*
X162295463Y-121500494D01*
X162374815Y-121597185D01*
X162471506Y-121676537D01*
X162581820Y-121735502D01*
X162701518Y-121771812D01*
X162826000Y-121784072D01*
X163290250Y-121781000D01*
X163449000Y-121622250D01*
X163449000Y-120523000D01*
X163703000Y-120523000D01*
X163703000Y-121622250D01*
X163861750Y-121781000D01*
X164326000Y-121784072D01*
X164450482Y-121771812D01*
X164570180Y-121735502D01*
X164680494Y-121676537D01*
X164777185Y-121597185D01*
X164856537Y-121500494D01*
X164915502Y-121390180D01*
X164951812Y-121270482D01*
X164964072Y-121146000D01*
X164961000Y-120681750D01*
X164802250Y-120523000D01*
X163703000Y-120523000D01*
X163449000Y-120523000D01*
X162349750Y-120523000D01*
X162191000Y-120681750D01*
X162187928Y-121146000D01*
X158415600Y-121146000D01*
X158415600Y-119646000D01*
X162187928Y-119646000D01*
X162191000Y-120110250D01*
X162349750Y-120269000D01*
X163449000Y-120269000D01*
X163449000Y-120249000D01*
X163703000Y-120249000D01*
X163703000Y-120269000D01*
X164802250Y-120269000D01*
X164961000Y-120110250D01*
X164964072Y-119646000D01*
X164951812Y-119521518D01*
X164915502Y-119401820D01*
X164856537Y-119291506D01*
X164777185Y-119194815D01*
X164680494Y-119115463D01*
X164570180Y-119056498D01*
X164450482Y-119020188D01*
X164342517Y-119009555D01*
X164458886Y-118931799D01*
X164651799Y-118738886D01*
X164803371Y-118512043D01*
X164907775Y-118259989D01*
X164961000Y-117992411D01*
X164961000Y-117719589D01*
X164907775Y-117452011D01*
X164803371Y-117199957D01*
X164651799Y-116973114D01*
X164458886Y-116780201D01*
X164232043Y-116628629D01*
X164129127Y-116586000D01*
X164232043Y-116543371D01*
X164458886Y-116391799D01*
X164651799Y-116198886D01*
X164803371Y-115972043D01*
X164907775Y-115719989D01*
X164961000Y-115452411D01*
X164961000Y-115179589D01*
X164907775Y-114912011D01*
X164803371Y-114659957D01*
X164651799Y-114433114D01*
X164458886Y-114240201D01*
X164232043Y-114088629D01*
X163979989Y-113984225D01*
X163712411Y-113931000D01*
X163439589Y-113931000D01*
X163172011Y-113984225D01*
X162919957Y-114088629D01*
X162693114Y-114240201D01*
X162500201Y-114433114D01*
X162348629Y-114659957D01*
X162244225Y-114912011D01*
X162191000Y-115179589D01*
X162191000Y-115452411D01*
X162244225Y-115719989D01*
X162348629Y-115972043D01*
X162500201Y-116198886D01*
X162693114Y-116391799D01*
X162919957Y-116543371D01*
X163022873Y-116586000D01*
X162919957Y-116628629D01*
X162693114Y-116780201D01*
X162500201Y-116973114D01*
X162348629Y-117199957D01*
X162244225Y-117452011D01*
X162191000Y-117719589D01*
X162191000Y-117992411D01*
X162244225Y-118259989D01*
X162348629Y-118512043D01*
X162500201Y-118738886D01*
X162693114Y-118931799D01*
X162809483Y-119009555D01*
X162701518Y-119020188D01*
X162581820Y-119056498D01*
X162471506Y-119115463D01*
X162374815Y-119194815D01*
X162295463Y-119291506D01*
X162236498Y-119401820D01*
X162200188Y-119521518D01*
X162187928Y-119646000D01*
X158415600Y-119646000D01*
X158415600Y-113896857D01*
X163341810Y-108970647D01*
X163371764Y-108946064D01*
X163469862Y-108826533D01*
X163542754Y-108690160D01*
X163555541Y-108648007D01*
X163577774Y-108574715D01*
X163688482Y-108563812D01*
X163808180Y-108527502D01*
X163918494Y-108468537D01*
X164015185Y-108389185D01*
X164094537Y-108292494D01*
X164153502Y-108182180D01*
X164189812Y-108062482D01*
X164202072Y-107938000D01*
X164202072Y-106438000D01*
X164189812Y-106313518D01*
X164153502Y-106193820D01*
X164094537Y-106083506D01*
X164015185Y-105986815D01*
X163918494Y-105907463D01*
X163808180Y-105848498D01*
X163688482Y-105812188D01*
X163580517Y-105801555D01*
X163696886Y-105723799D01*
X163889799Y-105530886D01*
X164041371Y-105304043D01*
X164145775Y-105051989D01*
X164199000Y-104784411D01*
X164199000Y-104511589D01*
X164145775Y-104244011D01*
X164041371Y-103991957D01*
X163931994Y-103828263D01*
X164899217Y-102861041D01*
X164929164Y-102836464D01*
X164993108Y-102758550D01*
X164993107Y-171039793D01*
%TA.AperFunction,Conductor*%
D25*
G36*
X164993107Y-171039793D02*
G01*
X164977940Y-171154912D01*
X164952078Y-171217350D01*
X164910979Y-171270917D01*
X164857439Y-171312001D01*
X164795044Y-171337844D01*
X164679930Y-171353000D01*
X128136277Y-171353000D01*
X128021161Y-171337845D01*
X127958779Y-171312005D01*
X127905207Y-171270898D01*
X127864103Y-171217330D01*
X127838262Y-171154945D01*
X127823107Y-171039829D01*
X127823107Y-169948964D01*
X130195312Y-169948964D01*
X130236274Y-170110757D01*
X130379269Y-170431096D01*
X130582011Y-170717383D01*
X130836710Y-170958616D01*
X131133577Y-171145524D01*
X131461204Y-171270925D01*
X131807000Y-171330000D01*
X132207000Y-171330000D01*
X132207000Y-169672000D01*
X132461000Y-169672000D01*
X132461000Y-171330000D01*
X132861000Y-171330000D01*
X133206796Y-171270925D01*
X133534423Y-171145524D01*
X133831290Y-170958616D01*
X134085989Y-170717383D01*
X134288731Y-170431096D01*
X134431726Y-170110757D01*
X134471928Y-169951964D01*
X147975312Y-169951964D01*
X148016274Y-170113757D01*
X148159269Y-170434096D01*
X148362011Y-170720383D01*
X148616710Y-170961616D01*
X148913577Y-171148524D01*
X149241204Y-171273925D01*
X149587000Y-171333000D01*
X149987000Y-171333000D01*
X149987000Y-169675000D01*
X150241000Y-169675000D01*
X150241000Y-171333000D01*
X150641000Y-171333000D01*
X150986796Y-171273925D01*
X151314423Y-171148524D01*
X151611290Y-170961616D01*
X151865989Y-170720383D01*
X152068731Y-170434096D01*
X152211726Y-170113757D01*
X152252688Y-169951964D01*
X152238700Y-169918964D01*
X158262312Y-169918964D01*
X158303274Y-170080757D01*
X158446269Y-170401096D01*
X158649011Y-170687383D01*
X158903710Y-170928616D01*
X159200577Y-171115524D01*
X159528204Y-171240925D01*
X159874000Y-171300000D01*
X160274000Y-171300000D01*
X160274000Y-169642000D01*
X160528000Y-169642000D01*
X160528000Y-171300000D01*
X160928000Y-171300000D01*
X161273796Y-171240925D01*
X161601423Y-171115524D01*
X161898290Y-170928616D01*
X162152989Y-170687383D01*
X162355731Y-170401096D01*
X162498726Y-170080757D01*
X162539688Y-169918964D01*
X162422283Y-169642000D01*
X160528000Y-169642000D01*
X160274000Y-169642000D01*
X158379717Y-169642000D01*
X158262312Y-169918964D01*
X152238700Y-169918964D01*
X152135283Y-169675000D01*
X150241000Y-169675000D01*
X149987000Y-169675000D01*
X148092717Y-169675000D01*
X147975312Y-169951964D01*
X134471928Y-169951964D01*
X134472688Y-169948964D01*
X134355283Y-169672000D01*
X132461000Y-169672000D01*
X132207000Y-169672000D01*
X130312717Y-169672000D01*
X130195312Y-169948964D01*
X127823107Y-169948964D01*
X127823107Y-169141036D01*
X130195312Y-169141036D01*
X130312717Y-169418000D01*
X132207000Y-169418000D01*
X132207000Y-169398000D01*
X132461000Y-169398000D01*
X132461000Y-169418000D01*
X134355283Y-169418000D01*
X134472688Y-169141036D01*
X134431726Y-168979243D01*
X134288731Y-168658904D01*
X134085989Y-168372617D01*
X133831290Y-168131384D01*
X133780641Y-168099495D01*
X133894804Y-168005804D01*
X134054993Y-167810614D01*
X134085967Y-167752665D01*
X138678000Y-167752665D01*
X138678000Y-168035335D01*
X138733147Y-168312574D01*
X138841320Y-168573727D01*
X138998363Y-168808759D01*
X139198241Y-169008637D01*
X139433273Y-169165680D01*
X139694426Y-169273853D01*
X139971665Y-169329000D01*
X140254335Y-169329000D01*
X140531574Y-169273853D01*
X140792727Y-169165680D01*
X140848210Y-169128607D01*
X140861815Y-169145185D01*
X140958506Y-169224537D01*
X141068820Y-169283502D01*
X141188518Y-169319812D01*
X141313000Y-169332072D01*
X142913000Y-169332072D01*
X143037482Y-169319812D01*
X143157180Y-169283502D01*
X143267494Y-169224537D01*
X143364185Y-169145185D01*
X143365127Y-169144036D01*
X147975312Y-169144036D01*
X148092717Y-169421000D01*
X149987000Y-169421000D01*
X149987000Y-169401000D01*
X150241000Y-169401000D01*
X150241000Y-169421000D01*
X152135283Y-169421000D01*
X152252688Y-169144036D01*
X152244334Y-169111036D01*
X158262312Y-169111036D01*
X158379717Y-169388000D01*
X160274000Y-169388000D01*
X160274000Y-169368000D01*
X160528000Y-169368000D01*
X160528000Y-169388000D01*
X162422283Y-169388000D01*
X162539688Y-169111036D01*
X162498726Y-168949243D01*
X162355731Y-168628904D01*
X162152989Y-168342617D01*
X161898290Y-168101384D01*
X161847641Y-168069495D01*
X161961804Y-167975804D01*
X162121993Y-167780614D01*
X162241023Y-167557924D01*
X162314322Y-167316290D01*
X162339072Y-167065000D01*
X162339072Y-165765000D01*
X162314322Y-165513710D01*
X162241023Y-165272076D01*
X162121993Y-165049386D01*
X161961804Y-164854196D01*
X161766614Y-164694007D01*
X161543924Y-164574977D01*
X161379287Y-164525035D01*
X161493200Y-164439600D01*
X161506803Y-164427803D01*
X161887803Y-164046803D01*
X161898329Y-164034866D01*
X161911592Y-164013796D01*
X162165592Y-163505796D01*
X162176560Y-163473776D01*
X162179000Y-163449000D01*
X162179000Y-162814000D01*
X162178003Y-162798116D01*
X162172483Y-162773839D01*
X161918483Y-162011839D01*
X161908333Y-161989106D01*
X161893943Y-161968789D01*
X161875866Y-161951671D01*
X161854796Y-161938408D01*
X161619232Y-161820626D01*
X161379803Y-161581197D01*
X161367866Y-161570671D01*
X161346796Y-161557408D01*
X160838796Y-161303408D01*
X160806776Y-161292440D01*
X160782000Y-161290000D01*
X160147000Y-161290000D01*
X160131116Y-161290997D01*
X160106839Y-161296517D01*
X159725839Y-161423517D01*
X159709204Y-161430408D01*
X159201204Y-161684408D01*
X159187332Y-161692477D01*
X159168104Y-161708291D01*
X159152330Y-161727553D01*
X158644330Y-162489553D01*
X158632667Y-162511399D01*
X158625440Y-162535224D01*
X158623000Y-162560000D01*
X158623000Y-163195000D01*
X158626792Y-163225802D01*
X158753792Y-163733802D01*
X158763408Y-163759796D01*
X158890408Y-164013796D01*
X158898477Y-164027668D01*
X158914291Y-164046896D01*
X158933553Y-164062670D01*
X159286491Y-164297962D01*
X159398408Y-164521796D01*
X159404017Y-164530706D01*
X159258076Y-164574977D01*
X159035386Y-164694007D01*
X158840196Y-164854196D01*
X158680007Y-165049386D01*
X158560977Y-165272076D01*
X158487678Y-165513710D01*
X158462928Y-165765000D01*
X158462928Y-167065000D01*
X158487678Y-167316290D01*
X158560977Y-167557924D01*
X158680007Y-167780614D01*
X158840196Y-167975804D01*
X158954359Y-168069495D01*
X158903710Y-168101384D01*
X158649011Y-168342617D01*
X158446269Y-168628904D01*
X158303274Y-168949243D01*
X158262312Y-169111036D01*
X152244334Y-169111036D01*
X152211726Y-168982243D01*
X152068731Y-168661904D01*
X151865989Y-168375617D01*
X151611290Y-168134384D01*
X151560641Y-168102495D01*
X151674804Y-168008804D01*
X151834993Y-167813614D01*
X151954023Y-167590924D01*
X152027322Y-167349290D01*
X152052072Y-167098000D01*
X152052072Y-165798000D01*
X152027322Y-165546710D01*
X151954023Y-165305076D01*
X151834993Y-165082386D01*
X151674804Y-164887196D01*
X151479614Y-164727007D01*
X151256924Y-164607977D01*
X151018610Y-164535685D01*
X151186796Y-164451592D01*
X151200447Y-164443670D01*
X151581447Y-164189670D01*
X151606943Y-164167211D01*
X151621333Y-164146894D01*
X151631483Y-164124161D01*
X151758483Y-163743161D01*
X151761208Y-163733802D01*
X151888208Y-163225802D01*
X151892000Y-163195000D01*
X151892000Y-162560000D01*
X151889586Y-162535354D01*
X151882383Y-162511522D01*
X151870670Y-162489553D01*
X151616670Y-162108553D01*
X151600803Y-162089197D01*
X151219803Y-161708197D01*
X151200447Y-161692330D01*
X150819447Y-161438330D01*
X150803247Y-161429168D01*
X150779802Y-161420792D01*
X150271802Y-161293792D01*
X150241000Y-161290000D01*
X149733000Y-161290000D01*
X149708354Y-161292414D01*
X149684522Y-161299617D01*
X149662553Y-161311330D01*
X149295706Y-161555895D01*
X148930839Y-161677517D01*
X148900443Y-161692403D01*
X148881197Y-161708197D01*
X148500197Y-162089197D01*
X148489671Y-162101134D01*
X148476408Y-162122204D01*
X148222408Y-162630204D01*
X148211414Y-162662354D01*
X148209000Y-162687133D01*
X148211466Y-162711907D01*
X148338466Y-163346907D01*
X148339792Y-163352802D01*
X148466792Y-163860802D01*
X148472617Y-163878478D01*
X148484330Y-163900447D01*
X148738330Y-164281447D01*
X148758669Y-164305062D01*
X148778659Y-164319902D01*
X149162171Y-164550009D01*
X148971076Y-164607977D01*
X148748386Y-164727007D01*
X148553196Y-164887196D01*
X148393007Y-165082386D01*
X148273977Y-165305076D01*
X148200678Y-165546710D01*
X148175928Y-165798000D01*
X148175928Y-167098000D01*
X148200678Y-167349290D01*
X148273977Y-167590924D01*
X148393007Y-167813614D01*
X148553196Y-168008804D01*
X148667359Y-168102495D01*
X148616710Y-168134384D01*
X148362011Y-168375617D01*
X148159269Y-168661904D01*
X148016274Y-168982243D01*
X147975312Y-169144036D01*
X143365127Y-169144036D01*
X143443537Y-169048494D01*
X143502502Y-168938180D01*
X143538812Y-168818482D01*
X143551072Y-168694000D01*
X143551072Y-167094000D01*
X143538812Y-166969518D01*
X143502502Y-166849820D01*
X143443537Y-166739506D01*
X143364185Y-166642815D01*
X143267494Y-166563463D01*
X143157180Y-166504498D01*
X143037482Y-166468188D01*
X142913000Y-166455928D01*
X141313000Y-166455928D01*
X141188518Y-166468188D01*
X141068820Y-166504498D01*
X140958506Y-166563463D01*
X140861815Y-166642815D01*
X140848210Y-166659393D01*
X140792727Y-166622320D01*
X140531574Y-166514147D01*
X140254335Y-166459000D01*
X139971665Y-166459000D01*
X139694426Y-166514147D01*
X139433273Y-166622320D01*
X139198241Y-166779363D01*
X138998363Y-166979241D01*
X138841320Y-167214273D01*
X138733147Y-167475426D01*
X138678000Y-167752665D01*
X134085967Y-167752665D01*
X134174023Y-167587924D01*
X134247322Y-167346290D01*
X134272072Y-167095000D01*
X134272072Y-165795000D01*
X134247322Y-165543710D01*
X134174023Y-165302076D01*
X134054993Y-165079386D01*
X133894804Y-164884196D01*
X133699614Y-164724007D01*
X133476924Y-164604977D01*
X133400433Y-164581774D01*
X133406796Y-164578592D01*
X133420557Y-164570597D01*
X133439803Y-164554803D01*
X133693803Y-164300803D01*
X133709670Y-164281447D01*
X134217670Y-163519447D01*
X134229333Y-163497601D01*
X134236560Y-163473776D01*
X134239000Y-163449000D01*
X134239000Y-162687000D01*
X134238003Y-162671116D01*
X134232483Y-162646839D01*
X134105483Y-162265839D01*
X134090597Y-162235443D01*
X134074803Y-162216197D01*
X133566803Y-161708197D01*
X133547447Y-161692330D01*
X133166447Y-161438330D01*
X133150247Y-161429168D01*
X133126802Y-161420792D01*
X132618802Y-161293792D01*
X132588000Y-161290000D01*
X132207000Y-161290000D01*
X132191116Y-161290997D01*
X132166839Y-161296517D01*
X131785839Y-161423517D01*
X131755553Y-161438330D01*
X131374553Y-161692330D01*
X131355197Y-161708197D01*
X130847197Y-162216197D01*
X130826667Y-162243106D01*
X130816517Y-162265839D01*
X130689517Y-162646839D01*
X130685440Y-162662224D01*
X130683000Y-162687000D01*
X130683000Y-163449000D01*
X130683997Y-163464884D01*
X130689517Y-163489161D01*
X130816517Y-163870161D01*
X130831403Y-163900557D01*
X130847197Y-163919803D01*
X131456708Y-164529314D01*
X131432710Y-164531678D01*
X131191076Y-164604977D01*
X130968386Y-164724007D01*
X130773196Y-164884196D01*
X130613007Y-165079386D01*
X130493977Y-165302076D01*
X130420678Y-165543710D01*
X130395928Y-165795000D01*
X130395928Y-167095000D01*
X130420678Y-167346290D01*
X130493977Y-167587924D01*
X130613007Y-167810614D01*
X130773196Y-168005804D01*
X130887359Y-168099495D01*
X130836710Y-168131384D01*
X130582011Y-168372617D01*
X130379269Y-168658904D01*
X130236274Y-168979243D01*
X130195312Y-169141036D01*
X127823107Y-169141036D01*
X127823107Y-153534072D01*
X129147000Y-153534072D01*
X129271482Y-153521812D01*
X129388928Y-153486185D01*
X129776857Y-153874115D01*
X129801436Y-153904064D01*
X129831384Y-153928642D01*
X129831387Y-153928645D01*
X129860759Y-153952750D01*
X129920967Y-154002162D01*
X130057340Y-154075054D01*
X130170872Y-154109494D01*
X130205312Y-154119941D01*
X130219690Y-154121357D01*
X130284593Y-154127750D01*
X132363771Y-156206928D01*
X131684000Y-156206928D01*
X131432710Y-156231678D01*
X131191076Y-156304977D01*
X130968386Y-156424007D01*
X130773196Y-156584196D01*
X130613007Y-156779386D01*
X130493977Y-157002076D01*
X130420678Y-157243710D01*
X130395928Y-157495000D01*
X130395928Y-158795000D01*
X130420678Y-159046290D01*
X130493977Y-159287924D01*
X130613007Y-159510614D01*
X130773196Y-159705804D01*
X130968386Y-159865993D01*
X131191076Y-159985023D01*
X131432710Y-160058322D01*
X131684000Y-160083072D01*
X132984000Y-160083072D01*
X133235290Y-160058322D01*
X133476924Y-159985023D01*
X133699614Y-159865993D01*
X133894804Y-159705804D01*
X134054993Y-159510614D01*
X134174023Y-159287924D01*
X134247322Y-159046290D01*
X134272072Y-158795000D01*
X134272072Y-158115229D01*
X137787446Y-161630603D01*
X137757000Y-161783665D01*
X137757000Y-162066335D01*
X137812147Y-162343574D01*
X137920320Y-162604727D01*
X138077363Y-162839759D01*
X138277241Y-163039637D01*
X138512273Y-163196680D01*
X138773426Y-163304853D01*
X139050665Y-163360000D01*
X139333335Y-163360000D01*
X139610574Y-163304853D01*
X139871727Y-163196680D01*
X140106759Y-163039637D01*
X140228694Y-162917702D01*
X140878903Y-162917702D01*
X140950486Y-163161671D01*
X141205996Y-163282571D01*
X141480184Y-163351300D01*
X141762512Y-163365217D01*
X142042130Y-163323787D01*
X142308292Y-163228603D01*
X142433514Y-163161671D01*
X142505097Y-162917702D01*
X141692000Y-162104605D01*
X140878903Y-162917702D01*
X140228694Y-162917702D01*
X140306637Y-162839759D01*
X140440692Y-162639131D01*
X140455329Y-162666514D01*
X140699298Y-162738097D01*
X141512395Y-161925000D01*
X141871605Y-161925000D01*
X142684702Y-162738097D01*
X142928671Y-162666514D01*
X143049571Y-162411004D01*
X143118300Y-162136816D01*
X143132217Y-161854488D01*
X143090787Y-161574870D01*
X142995603Y-161308708D01*
X142928671Y-161183486D01*
X142684702Y-161111903D01*
X141871605Y-161925000D01*
X141512395Y-161925000D01*
X140699298Y-161111903D01*
X140455329Y-161183486D01*
X140441676Y-161212341D01*
X140306637Y-161010241D01*
X140228694Y-160932298D01*
X140878903Y-160932298D01*
X141692000Y-161745395D01*
X142505097Y-160932298D01*
X142433514Y-160688329D01*
X142178004Y-160567429D01*
X141903816Y-160498700D01*
X141621488Y-160484783D01*
X141341870Y-160526213D01*
X141075708Y-160621397D01*
X140950486Y-160688329D01*
X140878903Y-160932298D01*
X140228694Y-160932298D01*
X140106759Y-160810363D01*
X139871727Y-160653320D01*
X139610574Y-160545147D01*
X139333335Y-160490000D01*
X139050665Y-160490000D01*
X138897603Y-160520446D01*
X131687448Y-153310291D01*
X131819886Y-153221799D01*
X132012799Y-153028886D01*
X132164371Y-152802043D01*
X132207000Y-152699127D01*
X132249629Y-152802043D01*
X132401201Y-153028886D01*
X132594114Y-153221799D01*
X132820957Y-153373371D01*
X133073011Y-153477775D01*
X133340589Y-153531000D01*
X133613411Y-153531000D01*
X133880989Y-153477775D01*
X134133043Y-153373371D01*
X134359886Y-153221799D01*
X134552799Y-153028886D01*
X134704371Y-152802043D01*
X134808775Y-152549989D01*
X134862000Y-152282411D01*
X134862000Y-152009589D01*
X134808775Y-151742011D01*
X134704371Y-151489957D01*
X134552799Y-151263114D01*
X134487000Y-151197315D01*
X134487000Y-146469000D01*
X142833928Y-146469000D01*
X142846188Y-146593482D01*
X142882498Y-146713180D01*
X142941463Y-146823494D01*
X143020815Y-146920185D01*
X143117506Y-146999537D01*
X143227820Y-147058502D01*
X143323943Y-147087661D01*
X143157363Y-147254241D01*
X143000320Y-147489273D01*
X142892147Y-147750426D01*
X142837000Y-148027665D01*
X142837000Y-148310335D01*
X142892147Y-148587574D01*
X143000320Y-148848727D01*
X143157363Y-149083759D01*
X143357241Y-149283637D01*
X143592273Y-149440680D01*
X143853426Y-149548853D01*
X144130665Y-149604000D01*
X144278645Y-149604000D01*
X146192800Y-151518155D01*
X146192800Y-151712479D01*
X146167900Y-151837661D01*
X146167900Y-152041539D01*
X146207674Y-152241498D01*
X146285695Y-152429856D01*
X146398963Y-152599374D01*
X146543126Y-152743537D01*
X146712644Y-152856805D01*
X146901002Y-152934826D01*
X147100961Y-152974600D01*
X147304839Y-152974600D01*
X147504798Y-152934826D01*
X147693156Y-152856805D01*
X147862674Y-152743537D01*
X148006837Y-152599374D01*
X148120105Y-152429856D01*
X148198126Y-152241498D01*
X148237900Y-152041539D01*
X148237900Y-151837661D01*
X148212800Y-151711474D01*
X148212800Y-151149404D01*
X148217686Y-151099799D01*
X148208050Y-151001968D01*
X148198185Y-150901806D01*
X148140432Y-150711420D01*
X148046647Y-150535960D01*
X147920433Y-150382167D01*
X147881894Y-150350539D01*
X145707000Y-148175645D01*
X145707000Y-148027665D01*
X145651853Y-147750426D01*
X145543680Y-147489273D01*
X145386637Y-147254241D01*
X145220057Y-147087661D01*
X145316180Y-147058502D01*
X145426494Y-146999537D01*
X145523185Y-146920185D01*
X145602537Y-146823494D01*
X145661502Y-146713180D01*
X145697812Y-146593482D01*
X145710072Y-146469000D01*
X145707000Y-145954750D01*
X145548250Y-145796000D01*
X144399000Y-145796000D01*
X144399000Y-145816000D01*
X144145000Y-145816000D01*
X144145000Y-145796000D01*
X142995750Y-145796000D01*
X142837000Y-145954750D01*
X142833928Y-146469000D01*
X134487000Y-146469000D01*
X134487000Y-145809055D01*
X135289110Y-145006945D01*
X135392563Y-145161774D01*
X135536726Y-145305937D01*
X135706244Y-145419205D01*
X135894602Y-145497226D01*
X136094561Y-145537000D01*
X136298439Y-145537000D01*
X136498398Y-145497226D01*
X136686756Y-145419205D01*
X136856274Y-145305937D01*
X136875211Y-145287000D01*
X140553547Y-145287000D01*
X140592100Y-145290797D01*
X140630653Y-145287000D01*
X140630661Y-145287000D01*
X140745987Y-145275641D01*
X140893960Y-145230754D01*
X141030333Y-145157862D01*
X141149864Y-145059764D01*
X141174447Y-145029810D01*
X141335257Y-144869000D01*
X142833928Y-144869000D01*
X142837000Y-145383250D01*
X142995750Y-145542000D01*
X144145000Y-145542000D01*
X144145000Y-144392750D01*
X144399000Y-144392750D01*
X144399000Y-145542000D01*
X145548250Y-145542000D01*
X145707000Y-145383250D01*
X145710072Y-144869000D01*
X145697812Y-144744518D01*
X145661502Y-144624820D01*
X145602537Y-144514506D01*
X145523185Y-144417815D01*
X145426494Y-144338463D01*
X145316180Y-144279498D01*
X145196482Y-144243188D01*
X145072000Y-144230928D01*
X144557750Y-144234000D01*
X144399000Y-144392750D01*
X144145000Y-144392750D01*
X143986250Y-144234000D01*
X143472000Y-144230928D01*
X143347518Y-144243188D01*
X143227820Y-144279498D01*
X143117506Y-144338463D01*
X143020815Y-144417815D01*
X142941463Y-144514506D01*
X142882498Y-144624820D01*
X142846188Y-144744518D01*
X142833928Y-144869000D01*
X141335257Y-144869000D01*
X147371810Y-138832447D01*
X147401764Y-138807864D01*
X147499862Y-138688333D01*
X147572754Y-138551960D01*
X147577145Y-138537486D01*
X147617642Y-138403987D01*
X147627464Y-138304253D01*
X147629000Y-138288661D01*
X147629000Y-138288656D01*
X147632797Y-138250100D01*
X147629000Y-138211544D01*
X147629000Y-130439881D01*
X147689506Y-130489537D01*
X147799820Y-130548502D01*
X147919518Y-130584812D01*
X148044000Y-130597072D01*
X149644000Y-130597072D01*
X149768482Y-130584812D01*
X149888180Y-130548502D01*
X149998494Y-130489537D01*
X150095185Y-130410185D01*
X150174537Y-130313494D01*
X150233502Y-130203180D01*
X150269812Y-130083482D01*
X150282072Y-129959000D01*
X150282072Y-128359000D01*
X150269812Y-128234518D01*
X150233502Y-128114820D01*
X150174537Y-128004506D01*
X150095185Y-127907815D01*
X149998494Y-127828463D01*
X149888180Y-127769498D01*
X149768482Y-127733188D01*
X149644000Y-127720928D01*
X149607363Y-127720928D01*
X149572754Y-127606840D01*
X149511247Y-127491768D01*
X149499862Y-127470467D01*
X149401764Y-127350936D01*
X149371810Y-127326353D01*
X148040528Y-125995071D01*
X148071000Y-125998072D01*
X149871000Y-125998072D01*
X149995482Y-125985812D01*
X150115180Y-125949502D01*
X150225494Y-125890537D01*
X150322185Y-125811185D01*
X150401537Y-125714494D01*
X150460502Y-125604180D01*
X150496812Y-125484482D01*
X150509072Y-125360000D01*
X150509072Y-123560000D01*
X150496812Y-123435518D01*
X150460502Y-123315820D01*
X150401537Y-123205506D01*
X150322185Y-123108815D01*
X150225494Y-123029463D01*
X150183722Y-123007135D01*
X154928417Y-118262441D01*
X154958364Y-118237864D01*
X155056462Y-118118333D01*
X155129354Y-117981960D01*
X155131512Y-117974845D01*
X155174242Y-117833987D01*
X155181620Y-117759074D01*
X155185600Y-117718661D01*
X155185600Y-117718656D01*
X155189397Y-117680100D01*
X155185600Y-117641545D01*
X155185600Y-111688957D01*
X161581909Y-105292648D01*
X161586629Y-105304043D01*
X161738201Y-105530886D01*
X161931114Y-105723799D01*
X162047483Y-105801555D01*
X161939518Y-105812188D01*
X161819820Y-105848498D01*
X161709506Y-105907463D01*
X161612815Y-105986815D01*
X161533463Y-106083506D01*
X161474498Y-106193820D01*
X161438188Y-106313518D01*
X161425928Y-106438000D01*
X161425928Y-107938000D01*
X161438188Y-108062482D01*
X161474498Y-108182180D01*
X161533463Y-108292494D01*
X161612815Y-108389185D01*
X161662326Y-108429817D01*
X157102790Y-112989353D01*
X157072836Y-113013936D01*
X156974738Y-113133468D01*
X156901846Y-113269841D01*
X156856959Y-113417814D01*
X156845600Y-113533140D01*
X156845600Y-113533147D01*
X156841803Y-113571700D01*
X156845600Y-113610253D01*
X156845601Y-150306242D01*
X150925963Y-156225880D01*
X150764000Y-156209928D01*
X149464000Y-156209928D01*
X149212710Y-156234678D01*
X148971076Y-156307977D01*
X148748386Y-156427007D01*
X148553196Y-156587196D01*
X148393007Y-156782386D01*
X148273977Y-157005076D01*
X148200678Y-157246710D01*
X148175928Y-157498000D01*
X148175928Y-158798000D01*
X148200678Y-159049290D01*
X148273977Y-159290924D01*
X148393007Y-159513614D01*
X148553196Y-159708804D01*
X148748386Y-159868993D01*
X148971076Y-159988023D01*
X149212710Y-160061322D01*
X149464000Y-160086072D01*
X150764000Y-160086072D01*
X151015290Y-160061322D01*
X151256924Y-159988023D01*
X151479614Y-159868993D01*
X151674804Y-159708804D01*
X151834993Y-159513614D01*
X151954023Y-159290924D01*
X152027322Y-159049290D01*
X152052072Y-158798000D01*
X152052072Y-157498000D01*
X152048822Y-157465000D01*
X158462928Y-157465000D01*
X158462928Y-158765000D01*
X158487678Y-159016290D01*
X158560977Y-159257924D01*
X158680007Y-159480614D01*
X158840196Y-159675804D01*
X159035386Y-159835993D01*
X159258076Y-159955023D01*
X159499710Y-160028322D01*
X159751000Y-160053072D01*
X161051000Y-160053072D01*
X161302290Y-160028322D01*
X161543924Y-159955023D01*
X161766614Y-159835993D01*
X161961804Y-159675804D01*
X162121993Y-159480614D01*
X162241023Y-159257924D01*
X162314322Y-159016290D01*
X162339072Y-158765000D01*
X162339072Y-157465000D01*
X162314322Y-157213710D01*
X162241023Y-156972076D01*
X162121993Y-156749386D01*
X161961804Y-156554196D01*
X161766614Y-156394007D01*
X161543924Y-156274977D01*
X161302290Y-156201678D01*
X161051000Y-156176928D01*
X159751000Y-156176928D01*
X159499710Y-156201678D01*
X159258076Y-156274977D01*
X159035386Y-156394007D01*
X158840196Y-156554196D01*
X158680007Y-156749386D01*
X158560977Y-156972076D01*
X158487678Y-157213710D01*
X158462928Y-157465000D01*
X152048822Y-157465000D01*
X152036120Y-157336037D01*
X158158410Y-151213747D01*
X158188364Y-151189164D01*
X158286462Y-151069633D01*
X158359354Y-150933260D01*
X158368895Y-150901807D01*
X158404242Y-150785287D01*
X158411620Y-150710374D01*
X158415600Y-150669961D01*
X158415600Y-150669956D01*
X158419397Y-150631400D01*
X158415600Y-150592844D01*
X158415600Y-147865979D01*
X158427589Y-147873990D01*
X158697842Y-147985932D01*
X158984740Y-148043000D01*
X159277260Y-148043000D01*
X159564158Y-147985932D01*
X159834411Y-147873990D01*
X160077632Y-147711475D01*
X160221107Y-147568000D01*
X160288024Y-147568000D01*
X160332595Y-147651386D01*
X160443038Y-147785962D01*
X160577614Y-147896405D01*
X160731150Y-147978472D01*
X160897746Y-148029008D01*
X161071000Y-148046072D01*
X162271000Y-148046072D01*
X162444254Y-148029008D01*
X162610850Y-147978472D01*
X162764386Y-147896405D01*
X162898962Y-147785962D01*
X163009405Y-147651386D01*
X163091472Y-147497850D01*
X163142008Y-147331254D01*
X163159072Y-147158000D01*
X163159072Y-145958000D01*
X163142008Y-145784746D01*
X163091472Y-145618150D01*
X163009405Y-145464614D01*
X162898962Y-145330038D01*
X162764386Y-145219595D01*
X162610850Y-145137528D01*
X162501707Y-145104420D01*
X162519792Y-145046397D01*
X161671000Y-144197605D01*
X160822208Y-145046397D01*
X160840293Y-145104420D01*
X160731150Y-145137528D01*
X160577614Y-145219595D01*
X160443038Y-145330038D01*
X160332595Y-145464614D01*
X160288024Y-145548000D01*
X160221107Y-145548000D01*
X160077632Y-145404525D01*
X159904271Y-145288689D01*
X159979792Y-145046397D01*
X159131000Y-144197605D01*
X159116858Y-144211748D01*
X158937253Y-144032143D01*
X158951395Y-144018000D01*
X159310605Y-144018000D01*
X160159397Y-144866792D01*
X160401000Y-144791486D01*
X160642603Y-144866792D01*
X161491395Y-144018000D01*
X161850605Y-144018000D01*
X162699397Y-144866792D01*
X162948472Y-144789157D01*
X163074371Y-144525117D01*
X163146339Y-144241589D01*
X163161611Y-143949469D01*
X163119599Y-143659981D01*
X163021919Y-143384253D01*
X162948472Y-143246843D01*
X162699397Y-143169208D01*
X161850605Y-144018000D01*
X161491395Y-144018000D01*
X160642603Y-143169208D01*
X160401000Y-143244514D01*
X160159397Y-143169208D01*
X159310605Y-144018000D01*
X158951395Y-144018000D01*
X158937253Y-144003858D01*
X159116858Y-143824253D01*
X159131000Y-143838395D01*
X159979792Y-142989603D01*
X159904486Y-142748000D01*
X159979792Y-142506397D01*
X160822208Y-142506397D01*
X160897514Y-142748000D01*
X160822208Y-142989603D01*
X161671000Y-143838395D01*
X162519792Y-142989603D01*
X162444486Y-142748000D01*
X162519792Y-142506397D01*
X161671000Y-141657605D01*
X160822208Y-142506397D01*
X159979792Y-142506397D01*
X159131000Y-141657605D01*
X159116858Y-141671748D01*
X158937253Y-141492143D01*
X158951395Y-141478000D01*
X159310605Y-141478000D01*
X160159397Y-142326792D01*
X160401000Y-142251486D01*
X160642603Y-142326792D01*
X161491395Y-141478000D01*
X161850605Y-141478000D01*
X162699397Y-142326792D01*
X162948472Y-142249157D01*
X163074371Y-141985117D01*
X163146339Y-141701589D01*
X163161611Y-141409469D01*
X163119599Y-141119981D01*
X163021919Y-140844253D01*
X162948472Y-140706843D01*
X162699397Y-140629208D01*
X161850605Y-141478000D01*
X161491395Y-141478000D01*
X160642603Y-140629208D01*
X160401000Y-140704514D01*
X160159397Y-140629208D01*
X159310605Y-141478000D01*
X158951395Y-141478000D01*
X158937253Y-141463858D01*
X159116858Y-141284253D01*
X159131000Y-141298395D01*
X159979792Y-140449603D01*
X159904486Y-140208000D01*
X159979792Y-139966397D01*
X160822208Y-139966397D01*
X160897514Y-140208000D01*
X160822208Y-140449603D01*
X161671000Y-141298395D01*
X162519792Y-140449603D01*
X162444486Y-140208000D01*
X162519792Y-139966397D01*
X161671000Y-139117605D01*
X160822208Y-139966397D01*
X159979792Y-139966397D01*
X159131000Y-139117605D01*
X159116858Y-139131748D01*
X158937253Y-138952143D01*
X158951395Y-138938000D01*
X159310605Y-138938000D01*
X160159397Y-139786792D01*
X160401000Y-139711486D01*
X160642603Y-139786792D01*
X161491395Y-138938000D01*
X161850605Y-138938000D01*
X162699397Y-139786792D01*
X162948472Y-139709157D01*
X163074371Y-139445117D01*
X163146339Y-139161589D01*
X163161611Y-138869469D01*
X163119599Y-138579981D01*
X163021919Y-138304253D01*
X162948472Y-138166843D01*
X162699397Y-138089208D01*
X161850605Y-138938000D01*
X161491395Y-138938000D01*
X160642603Y-138089208D01*
X160401000Y-138164514D01*
X160159397Y-138089208D01*
X159310605Y-138938000D01*
X158951395Y-138938000D01*
X158937253Y-138923858D01*
X159116858Y-138744253D01*
X159131000Y-138758395D01*
X159979792Y-137909603D01*
X159904271Y-137667311D01*
X160077632Y-137551475D01*
X160221107Y-137408000D01*
X160580893Y-137408000D01*
X160724368Y-137551475D01*
X160897729Y-137667311D01*
X160822208Y-137909603D01*
X161671000Y-138758395D01*
X162519792Y-137909603D01*
X162444271Y-137667311D01*
X162617632Y-137551475D01*
X162824475Y-137344632D01*
X162986990Y-137101411D01*
X163098932Y-136831158D01*
X163156000Y-136544260D01*
X163156000Y-136251740D01*
X163098932Y-135964842D01*
X162986990Y-135694589D01*
X162824475Y-135451368D01*
X162617632Y-135244525D01*
X162374411Y-135082010D01*
X162104158Y-134970068D01*
X161817260Y-134913000D01*
X161524740Y-134913000D01*
X161237842Y-134970068D01*
X160967589Y-135082010D01*
X160724368Y-135244525D01*
X160580893Y-135388000D01*
X160221107Y-135388000D01*
X160077632Y-135244525D01*
X159834411Y-135082010D01*
X159564158Y-134970068D01*
X159277260Y-134913000D01*
X158984740Y-134913000D01*
X158697842Y-134970068D01*
X158427589Y-135082010D01*
X158415600Y-135090021D01*
X158415600Y-121146000D01*
X162187928Y-121146000D01*
X162200188Y-121270482D01*
X162236498Y-121390180D01*
X162295463Y-121500494D01*
X162374815Y-121597185D01*
X162471506Y-121676537D01*
X162581820Y-121735502D01*
X162701518Y-121771812D01*
X162826000Y-121784072D01*
X163290250Y-121781000D01*
X163449000Y-121622250D01*
X163449000Y-120523000D01*
X163703000Y-120523000D01*
X163703000Y-121622250D01*
X163861750Y-121781000D01*
X164326000Y-121784072D01*
X164450482Y-121771812D01*
X164570180Y-121735502D01*
X164680494Y-121676537D01*
X164777185Y-121597185D01*
X164856537Y-121500494D01*
X164915502Y-121390180D01*
X164951812Y-121270482D01*
X164964072Y-121146000D01*
X164961000Y-120681750D01*
X164802250Y-120523000D01*
X163703000Y-120523000D01*
X163449000Y-120523000D01*
X162349750Y-120523000D01*
X162191000Y-120681750D01*
X162187928Y-121146000D01*
X158415600Y-121146000D01*
X158415600Y-119646000D01*
X162187928Y-119646000D01*
X162191000Y-120110250D01*
X162349750Y-120269000D01*
X163449000Y-120269000D01*
X163449000Y-120249000D01*
X163703000Y-120249000D01*
X163703000Y-120269000D01*
X164802250Y-120269000D01*
X164961000Y-120110250D01*
X164964072Y-119646000D01*
X164951812Y-119521518D01*
X164915502Y-119401820D01*
X164856537Y-119291506D01*
X164777185Y-119194815D01*
X164680494Y-119115463D01*
X164570180Y-119056498D01*
X164450482Y-119020188D01*
X164342517Y-119009555D01*
X164458886Y-118931799D01*
X164651799Y-118738886D01*
X164803371Y-118512043D01*
X164907775Y-118259989D01*
X164961000Y-117992411D01*
X164961000Y-117719589D01*
X164907775Y-117452011D01*
X164803371Y-117199957D01*
X164651799Y-116973114D01*
X164458886Y-116780201D01*
X164232043Y-116628629D01*
X164129127Y-116586000D01*
X164232043Y-116543371D01*
X164458886Y-116391799D01*
X164651799Y-116198886D01*
X164803371Y-115972043D01*
X164907775Y-115719989D01*
X164961000Y-115452411D01*
X164961000Y-115179589D01*
X164907775Y-114912011D01*
X164803371Y-114659957D01*
X164651799Y-114433114D01*
X164458886Y-114240201D01*
X164232043Y-114088629D01*
X163979989Y-113984225D01*
X163712411Y-113931000D01*
X163439589Y-113931000D01*
X163172011Y-113984225D01*
X162919957Y-114088629D01*
X162693114Y-114240201D01*
X162500201Y-114433114D01*
X162348629Y-114659957D01*
X162244225Y-114912011D01*
X162191000Y-115179589D01*
X162191000Y-115452411D01*
X162244225Y-115719989D01*
X162348629Y-115972043D01*
X162500201Y-116198886D01*
X162693114Y-116391799D01*
X162919957Y-116543371D01*
X163022873Y-116586000D01*
X162919957Y-116628629D01*
X162693114Y-116780201D01*
X162500201Y-116973114D01*
X162348629Y-117199957D01*
X162244225Y-117452011D01*
X162191000Y-117719589D01*
X162191000Y-117992411D01*
X162244225Y-118259989D01*
X162348629Y-118512043D01*
X162500201Y-118738886D01*
X162693114Y-118931799D01*
X162809483Y-119009555D01*
X162701518Y-119020188D01*
X162581820Y-119056498D01*
X162471506Y-119115463D01*
X162374815Y-119194815D01*
X162295463Y-119291506D01*
X162236498Y-119401820D01*
X162200188Y-119521518D01*
X162187928Y-119646000D01*
X158415600Y-119646000D01*
X158415600Y-113896857D01*
X163341810Y-108970647D01*
X163371764Y-108946064D01*
X163469862Y-108826533D01*
X163542754Y-108690160D01*
X163555541Y-108648007D01*
X163577774Y-108574715D01*
X163688482Y-108563812D01*
X163808180Y-108527502D01*
X163918494Y-108468537D01*
X164015185Y-108389185D01*
X164094537Y-108292494D01*
X164153502Y-108182180D01*
X164189812Y-108062482D01*
X164202072Y-107938000D01*
X164202072Y-106438000D01*
X164189812Y-106313518D01*
X164153502Y-106193820D01*
X164094537Y-106083506D01*
X164015185Y-105986815D01*
X163918494Y-105907463D01*
X163808180Y-105848498D01*
X163688482Y-105812188D01*
X163580517Y-105801555D01*
X163696886Y-105723799D01*
X163889799Y-105530886D01*
X164041371Y-105304043D01*
X164145775Y-105051989D01*
X164199000Y-104784411D01*
X164199000Y-104511589D01*
X164145775Y-104244011D01*
X164041371Y-103991957D01*
X163931994Y-103828263D01*
X164899217Y-102861041D01*
X164929164Y-102836464D01*
X164993108Y-102758550D01*
X164993107Y-171039793D01*
G37*
%TD.AperFunction*%
D24*
X154235147Y-97879426D02*
X154180000Y-98156665D01*
X154180000Y-98439335D01*
X154235147Y-98716574D01*
X154343320Y-98977727D01*
X154500363Y-99212759D01*
X154700241Y-99412637D01*
X154935273Y-99569680D01*
X155196426Y-99677853D01*
X155473665Y-99733000D01*
X155756335Y-99733000D01*
X155909397Y-99702554D01*
X158842653Y-102635810D01*
X158867236Y-102665764D01*
X158986767Y-102763862D01*
X159092237Y-102820236D01*
X159123140Y-102836754D01*
X159271113Y-102881642D01*
X159346026Y-102889020D01*
X159386439Y-102893000D01*
X159386444Y-102893000D01*
X159425000Y-102896797D01*
X159463556Y-102893000D01*
X161672796Y-102893000D01*
X161708223Y-102946020D01*
X153872785Y-110781458D01*
X153842837Y-110806036D01*
X153818259Y-110835984D01*
X153818255Y-110835988D01*
X153788143Y-110872680D01*
X153744739Y-110925567D01*
X153706130Y-110997801D01*
X153671846Y-111061941D01*
X153626959Y-111209914D01*
X153611803Y-111363800D01*
X153615601Y-111402363D01*
X153615600Y-117354942D01*
X153183870Y-117786672D01*
X153237133Y-117611087D01*
X153266000Y-117317997D01*
X153266000Y-116602002D01*
X153237133Y-116308912D01*
X153123057Y-115932853D01*
X152937807Y-115586275D01*
X152688503Y-115282497D01*
X152384725Y-115033193D01*
X152038146Y-114847943D01*
X151662087Y-114733867D01*
X151271000Y-114695348D01*
X150879912Y-114733867D01*
X150503853Y-114847943D01*
X150157275Y-115033193D01*
X149853497Y-115282497D01*
X149604193Y-115586275D01*
X149418943Y-115932854D01*
X149304867Y-116308913D01*
X149276000Y-116602003D01*
X149276000Y-117317998D01*
X149304867Y-117611088D01*
X149418943Y-117987147D01*
X149604193Y-118333725D01*
X149853498Y-118637503D01*
X150157276Y-118886807D01*
X150503854Y-119072057D01*
X150879913Y-119186133D01*
X151271000Y-119224652D01*
X151662088Y-119186133D01*
X151837672Y-119132870D01*
X148443185Y-122527358D01*
X148413237Y-122551936D01*
X148388659Y-122581884D01*
X148388655Y-122581888D01*
X148355690Y-122622056D01*
X148315139Y-122671467D01*
X148276177Y-122744360D01*
X148242246Y-122807841D01*
X148207638Y-122921928D01*
X148071000Y-122921928D01*
X147946518Y-122934188D01*
X147826820Y-122970498D01*
X147716506Y-123029463D01*
X147619815Y-123108815D01*
X147540463Y-123205506D01*
X147487120Y-123305303D01*
X147449505Y-123267688D01*
X147198095Y-123099701D01*
X146918743Y-122983989D01*
X146622184Y-122925000D01*
X146319816Y-122925000D01*
X146023257Y-122983989D01*
X145743905Y-123099701D01*
X145492495Y-123267688D01*
X145278688Y-123481495D01*
X145183262Y-123624310D01*
X145035080Y-123575525D01*
X144150605Y-124460000D01*
X145035080Y-125344475D01*
X145183262Y-125295690D01*
X145278688Y-125438505D01*
X145492495Y-125652312D01*
X145735257Y-125814521D01*
X145742246Y-125837559D01*
X145770563Y-125890537D01*
X145815139Y-125973933D01*
X145842277Y-126007000D01*
X145888655Y-126063512D01*
X145888659Y-126063516D01*
X145913237Y-126093464D01*
X145943185Y-126118042D01*
X147669788Y-127844645D01*
X147592815Y-127907815D01*
X147579210Y-127924393D01*
X147523727Y-127887320D01*
X147262574Y-127779147D01*
X146985335Y-127724000D01*
X146702665Y-127724000D01*
X146425426Y-127779147D01*
X146164273Y-127887320D01*
X145929241Y-128044363D01*
X145729363Y-128244241D01*
X145572320Y-128479273D01*
X145464147Y-128740426D01*
X145409000Y-129017665D01*
X145409000Y-129300335D01*
X145464147Y-129577574D01*
X145572320Y-129838727D01*
X145729363Y-130073759D01*
X145929241Y-130273637D01*
X146059000Y-130360339D01*
X146059001Y-137924942D01*
X145134414Y-138849529D01*
X145067603Y-138662708D01*
X145000671Y-138537486D01*
X144756702Y-138465903D01*
X143943605Y-139279000D01*
X143957748Y-139293143D01*
X143778143Y-139472748D01*
X143764000Y-139458605D01*
X142950903Y-140271702D01*
X143022486Y-140515671D01*
X143277996Y-140636571D01*
X143333467Y-140650476D01*
X140266943Y-143717000D01*
X136875211Y-143717000D01*
X136856274Y-143698063D01*
X136701445Y-143594610D01*
X140946543Y-139349512D01*
X142323783Y-139349512D01*
X142365213Y-139629130D01*
X142460397Y-139895292D01*
X142527329Y-140020514D01*
X142771298Y-140092097D01*
X143584395Y-139279000D01*
X142771298Y-138465903D01*
X142527329Y-138537486D01*
X142406429Y-138792996D01*
X142337700Y-139067184D01*
X142323783Y-139349512D01*
X140946543Y-139349512D01*
X142408766Y-137887290D01*
X142433463Y-137933494D01*
X142512815Y-138030185D01*
X142609506Y-138109537D01*
X142719820Y-138168502D01*
X142839518Y-138204812D01*
X142964000Y-138217072D01*
X142971215Y-138217072D01*
X142950903Y-138286298D01*
X143764000Y-139099395D01*
X144577097Y-138286298D01*
X144556785Y-138217072D01*
X144564000Y-138217072D01*
X144688482Y-138204812D01*
X144808180Y-138168502D01*
X144918494Y-138109537D01*
X145015185Y-138030185D01*
X145094537Y-137933494D01*
X145153502Y-137823180D01*
X145189812Y-137703482D01*
X145202072Y-137579000D01*
X145202072Y-135979000D01*
X145189812Y-135854518D01*
X145153502Y-135734820D01*
X145094537Y-135624506D01*
X145015185Y-135527815D01*
X144918494Y-135448463D01*
X144808180Y-135389498D01*
X144774000Y-135379130D01*
X144774000Y-135153304D01*
X144778886Y-135103699D01*
X144760103Y-134913000D01*
X144759385Y-134905706D01*
X144701632Y-134715320D01*
X144607847Y-134539860D01*
X144481633Y-134386067D01*
X144443094Y-134354439D01*
X140880300Y-130791645D01*
X140880300Y-125640355D01*
X140996575Y-125524080D01*
X143086525Y-125524080D01*
X143170208Y-125778261D01*
X143442775Y-125909158D01*
X143735642Y-125984365D01*
X144037553Y-126000991D01*
X144336907Y-125958397D01*
X144622199Y-125858222D01*
X144771792Y-125778261D01*
X144855475Y-125524080D01*
X143971000Y-124639605D01*
X143086525Y-125524080D01*
X140996575Y-125524080D01*
X142498679Y-124021976D01*
X142446635Y-124224642D01*
X142430009Y-124526553D01*
X142472603Y-124825907D01*
X142572778Y-125111199D01*
X142652739Y-125260792D01*
X142906920Y-125344475D01*
X143791395Y-124460000D01*
X143777253Y-124445858D01*
X143956858Y-124266253D01*
X143971000Y-124280395D01*
X144855475Y-123395920D01*
X144771792Y-123141739D01*
X144499225Y-123010842D01*
X144206358Y-122935635D01*
X143904447Y-122919009D01*
X143605093Y-122961603D01*
X143534137Y-122986518D01*
X147047294Y-119473361D01*
X147085833Y-119441733D01*
X147212047Y-119287940D01*
X147305832Y-119112480D01*
X147363585Y-118922094D01*
X147378200Y-118773708D01*
X147378200Y-118773706D01*
X147383086Y-118724101D01*
X147378200Y-118674496D01*
X147378200Y-115613855D01*
X149763094Y-113228961D01*
X149801633Y-113197333D01*
X149927847Y-113043540D01*
X150021632Y-112868080D01*
X150079385Y-112677694D01*
X150094000Y-112529308D01*
X150094000Y-112529306D01*
X150098886Y-112479701D01*
X150094000Y-112430096D01*
X150094000Y-110373238D01*
X150108482Y-110371812D01*
X150228180Y-110335502D01*
X150338494Y-110276537D01*
X150435185Y-110197185D01*
X150514537Y-110100494D01*
X150573502Y-109990180D01*
X150609812Y-109870482D01*
X150622072Y-109746000D01*
X150622072Y-107946000D01*
X150609812Y-107821518D01*
X150573502Y-107701820D01*
X150514537Y-107591506D01*
X150435185Y-107494815D01*
X150338494Y-107415463D01*
X150228180Y-107356498D01*
X150108482Y-107320188D01*
X149984000Y-107307928D01*
X148184000Y-107307928D01*
X148059518Y-107320188D01*
X147939820Y-107356498D01*
X147829506Y-107415463D01*
X147732815Y-107494815D01*
X147653463Y-107591506D01*
X147600120Y-107691303D01*
X147562505Y-107653688D01*
X147311095Y-107485701D01*
X147031743Y-107369989D01*
X146735184Y-107311000D01*
X146432816Y-107311000D01*
X146136257Y-107369989D01*
X145856905Y-107485701D01*
X145605495Y-107653688D01*
X145391688Y-107867495D01*
X145296262Y-108010310D01*
X145148080Y-107961525D01*
X144263605Y-108846000D01*
X145148080Y-109730475D01*
X145296262Y-109681690D01*
X145391688Y-109824505D01*
X145605495Y-110038312D01*
X145856905Y-110206299D01*
X146136257Y-110322011D01*
X146432816Y-110381000D01*
X146735184Y-110381000D01*
X147031743Y-110322011D01*
X147311095Y-110206299D01*
X147562505Y-110038312D01*
X147600120Y-110000697D01*
X147653463Y-110100494D01*
X147732815Y-110197185D01*
X147829506Y-110276537D01*
X147939820Y-110335502D01*
X148059518Y-110371812D01*
X148074000Y-110373238D01*
X148074001Y-112061344D01*
X145689106Y-114446239D01*
X145650567Y-114477867D01*
X145524353Y-114631660D01*
X145469723Y-114733867D01*
X145430568Y-114807121D01*
X145372815Y-114997506D01*
X145353314Y-115195500D01*
X145358200Y-115245108D01*
X145358201Y-118305744D01*
X139451945Y-124212000D01*
X139222493Y-124212000D01*
X139214608Y-124202392D01*
X138996101Y-124023068D01*
X138746808Y-123889818D01*
X138476309Y-123807764D01*
X138265492Y-123787000D01*
X137324508Y-123787000D01*
X137113691Y-123807764D01*
X136843192Y-123889818D01*
X136593899Y-124023068D01*
X136375392Y-124202392D01*
X136196068Y-124420899D01*
X136062818Y-124670192D01*
X135980764Y-124940691D01*
X135953057Y-125222000D01*
X135980764Y-125503309D01*
X136062818Y-125773808D01*
X136196068Y-126023101D01*
X136375392Y-126241608D01*
X136593899Y-126420932D01*
X136726858Y-126492000D01*
X136593899Y-126563068D01*
X136375392Y-126742392D01*
X136196068Y-126960899D01*
X136062818Y-127210192D01*
X135980764Y-127480691D01*
X135953057Y-127762000D01*
X135980764Y-128043309D01*
X136062818Y-128313808D01*
X136196068Y-128563101D01*
X136375392Y-128781608D01*
X136593899Y-128960932D01*
X136726858Y-129032000D01*
X136593899Y-129103068D01*
X136375392Y-129282392D01*
X136196068Y-129500899D01*
X136062818Y-129750192D01*
X135980764Y-130020691D01*
X135953057Y-130302000D01*
X135980764Y-130583309D01*
X136062818Y-130853808D01*
X136196068Y-131103101D01*
X136375392Y-131321608D01*
X136593899Y-131500932D01*
X136726858Y-131572000D01*
X136593899Y-131643068D01*
X136375392Y-131822392D01*
X136196068Y-132040899D01*
X136062818Y-132290192D01*
X135980764Y-132560691D01*
X135953057Y-132842000D01*
X135980764Y-133123309D01*
X136062818Y-133393808D01*
X136196068Y-133643101D01*
X136375392Y-133861608D01*
X136593899Y-134040932D01*
X136843192Y-134174182D01*
X137113691Y-134256236D01*
X137324508Y-134277000D01*
X138265492Y-134277000D01*
X138476309Y-134256236D01*
X138746808Y-134174182D01*
X138996101Y-134040932D01*
X139214608Y-133861608D01*
X139393932Y-133643101D01*
X139527182Y-133393808D01*
X139609236Y-133123309D01*
X139636943Y-132842000D01*
X139609236Y-132560691D01*
X139529379Y-132297434D01*
X142655711Y-135423766D01*
X142609506Y-135448463D01*
X142512815Y-135527815D01*
X142433463Y-135624506D01*
X142374498Y-135734820D01*
X142364130Y-135769000D01*
X142138308Y-135769000D01*
X142088700Y-135764114D01*
X141890705Y-135783615D01*
X141700320Y-135841368D01*
X141524860Y-135935153D01*
X141371067Y-136061367D01*
X141339444Y-136099900D01*
X132797906Y-144641439D01*
X132759367Y-144673067D01*
X132633153Y-144826860D01*
X132544748Y-144992256D01*
X132539368Y-145002321D01*
X132481615Y-145192706D01*
X132462114Y-145390700D01*
X132467000Y-145440308D01*
X132467001Y-151197314D01*
X132401201Y-151263114D01*
X132249629Y-151489957D01*
X132207000Y-151592873D01*
X132164371Y-151489957D01*
X132012799Y-151263114D01*
X131819886Y-151070201D01*
X131593043Y-150918629D01*
X131340989Y-150814225D01*
X131073411Y-150761000D01*
X130800589Y-150761000D01*
X130533011Y-150814225D01*
X130280957Y-150918629D01*
X130054114Y-151070201D01*
X129861201Y-151263114D01*
X129783445Y-151379483D01*
X129772812Y-151271518D01*
X129736502Y-151151820D01*
X129677537Y-151041506D01*
X129598185Y-150944815D01*
X129501494Y-150865463D01*
X129391180Y-150806498D01*
X129271482Y-150770188D01*
X129147000Y-150757928D01*
X127823107Y-150757928D01*
X127823107Y-110125703D01*
X127887320Y-110280727D01*
X128044363Y-110515759D01*
X128244241Y-110715637D01*
X128479273Y-110872680D01*
X128740426Y-110980853D01*
X129017665Y-111036000D01*
X129300335Y-111036000D01*
X129577574Y-110980853D01*
X129838727Y-110872680D01*
X130073759Y-110715637D01*
X130273637Y-110515759D01*
X130409000Y-110313173D01*
X130544363Y-110515759D01*
X130744241Y-110715637D01*
X130979273Y-110872680D01*
X131240426Y-110980853D01*
X131517665Y-111036000D01*
X131772543Y-111036000D01*
X131297490Y-111511053D01*
X131267536Y-111535636D01*
X131169438Y-111655168D01*
X131096546Y-111791541D01*
X131051659Y-111939514D01*
X131040300Y-112054840D01*
X131040300Y-112054847D01*
X131036503Y-112093400D01*
X131040300Y-112131953D01*
X131040301Y-123783928D01*
X128975000Y-123783928D01*
X128850518Y-123796188D01*
X128730820Y-123832498D01*
X128620506Y-123891463D01*
X128523815Y-123970815D01*
X128444463Y-124067506D01*
X128385498Y-124177820D01*
X128349188Y-124297518D01*
X128336928Y-124422000D01*
X128336928Y-126022000D01*
X128349188Y-126146482D01*
X128385498Y-126266180D01*
X128444463Y-126376494D01*
X128523815Y-126473185D01*
X128620506Y-126552537D01*
X128730820Y-126611502D01*
X128850518Y-126647812D01*
X128868482Y-126649581D01*
X128755392Y-126742392D01*
X128576068Y-126960899D01*
X128442818Y-127210192D01*
X128360764Y-127480691D01*
X128333057Y-127762000D01*
X128360764Y-128043309D01*
X128442818Y-128313808D01*
X128576068Y-128563101D01*
X128755392Y-128781608D01*
X128973899Y-128960932D01*
X129106858Y-129032000D01*
X128973899Y-129103068D01*
X128755392Y-129282392D01*
X128576068Y-129500899D01*
X128442818Y-129750192D01*
X128360764Y-130020691D01*
X128333057Y-130302000D01*
X128360764Y-130583309D01*
X128442818Y-130853808D01*
X128576068Y-131103101D01*
X128755392Y-131321608D01*
X128973899Y-131500932D01*
X129106858Y-131572000D01*
X128973899Y-131643068D01*
X128755392Y-131822392D01*
X128576068Y-132040899D01*
X128442818Y-132290192D01*
X128360764Y-132560691D01*
X128333057Y-132842000D01*
X128360764Y-133123309D01*
X128442818Y-133393808D01*
X128576068Y-133643101D01*
X128755392Y-133861608D01*
X128973899Y-134040932D01*
X129223192Y-134174182D01*
X129493691Y-134256236D01*
X129704508Y-134277000D01*
X130645492Y-134277000D01*
X130856309Y-134256236D01*
X131126808Y-134174182D01*
X131376101Y-134040932D01*
X131594608Y-133861608D01*
X131773932Y-133643101D01*
X131907182Y-133393808D01*
X131989236Y-133123309D01*
X132016943Y-132842000D01*
X131989236Y-132560691D01*
X131907182Y-132290192D01*
X131773932Y-132040899D01*
X131594608Y-131822392D01*
X131376101Y-131643068D01*
X131243142Y-131572000D01*
X131376101Y-131500932D01*
X131594608Y-131321608D01*
X131773932Y-131103101D01*
X131782538Y-131087000D01*
X131786747Y-131087000D01*
X131825300Y-131090797D01*
X131863853Y-131087000D01*
X131863861Y-131087000D01*
X131979187Y-131075641D01*
X132127160Y-131030754D01*
X132263533Y-130957862D01*
X132383064Y-130859764D01*
X132407647Y-130829810D01*
X134725110Y-128512347D01*
X134755064Y-128487764D01*
X134853162Y-128368233D01*
X134926054Y-128231860D01*
X134961558Y-128114820D01*
X134970942Y-128083887D01*
X134978760Y-128004506D01*
X134982300Y-127968561D01*
X134982300Y-127968556D01*
X134986097Y-127930000D01*
X134982300Y-127891444D01*
X134982300Y-116602003D01*
X139676000Y-116602003D01*
X139676000Y-117317998D01*
X139704867Y-117611088D01*
X139818943Y-117987147D01*
X140004193Y-118333725D01*
X140253498Y-118637503D01*
X140557276Y-118886807D01*
X140903854Y-119072057D01*
X141279913Y-119186133D01*
X141671000Y-119224652D01*
X142062088Y-119186133D01*
X142438147Y-119072057D01*
X142784725Y-118886807D01*
X143088503Y-118637503D01*
X143337807Y-118333725D01*
X143523057Y-117987147D01*
X143637133Y-117611087D01*
X143666000Y-117317997D01*
X143666000Y-116602002D01*
X143637133Y-116308912D01*
X143523057Y-115932853D01*
X143337807Y-115586275D01*
X143088503Y-115282497D01*
X142784725Y-115033193D01*
X142438146Y-114847943D01*
X142062087Y-114733867D01*
X141671000Y-114695348D01*
X141279912Y-114733867D01*
X140903853Y-114847943D01*
X140557275Y-115033193D01*
X140253497Y-115282497D01*
X140004193Y-115586275D01*
X139818943Y-115932854D01*
X139704867Y-116308913D01*
X139676000Y-116602003D01*
X134982300Y-116602003D01*
X134982300Y-116013957D01*
X141086177Y-109910080D01*
X143199525Y-109910080D01*
X143283208Y-110164261D01*
X143555775Y-110295158D01*
X143848642Y-110370365D01*
X144150553Y-110386991D01*
X144449907Y-110344397D01*
X144735199Y-110244222D01*
X144884792Y-110164261D01*
X144968475Y-109910080D01*
X144084000Y-109025605D01*
X143199525Y-109910080D01*
X141086177Y-109910080D01*
X142619763Y-108376494D01*
X142559635Y-108610642D01*
X142543009Y-108912553D01*
X142585603Y-109211907D01*
X142685778Y-109497199D01*
X142765739Y-109646792D01*
X143019920Y-109730475D01*
X143904395Y-108846000D01*
X143890253Y-108831858D01*
X144069858Y-108652253D01*
X144084000Y-108666395D01*
X144968475Y-107781920D01*
X144884792Y-107527739D01*
X144612225Y-107396842D01*
X144319358Y-107321635D01*
X144017447Y-107305009D01*
X143718093Y-107347603D01*
X143611078Y-107385179D01*
X149389000Y-101607258D01*
X149389000Y-101703998D01*
X149417867Y-101997088D01*
X149531943Y-102373147D01*
X149717193Y-102719725D01*
X149966498Y-103023503D01*
X150270276Y-103272807D01*
X150616854Y-103458057D01*
X150992913Y-103572133D01*
X151384000Y-103610652D01*
X151775088Y-103572133D01*
X152151147Y-103458057D01*
X152497725Y-103272807D01*
X152801503Y-103023503D01*
X153050807Y-102719725D01*
X153236057Y-102373147D01*
X153350133Y-101997087D01*
X153379000Y-101703997D01*
X153379000Y-100988002D01*
X153350133Y-100694912D01*
X153236057Y-100318853D01*
X153050807Y-99972275D01*
X152801503Y-99668497D01*
X152497725Y-99419193D01*
X152151146Y-99233943D01*
X151852813Y-99143445D01*
X153171858Y-97824400D01*
X154257939Y-97824400D01*
X154235147Y-97879426D01*
%TA.AperFunction,Conductor*%
D25*
G36*
X154235147Y-97879426D02*
G01*
X154180000Y-98156665D01*
X154180000Y-98439335D01*
X154235147Y-98716574D01*
X154343320Y-98977727D01*
X154500363Y-99212759D01*
X154700241Y-99412637D01*
X154935273Y-99569680D01*
X155196426Y-99677853D01*
X155473665Y-99733000D01*
X155756335Y-99733000D01*
X155909397Y-99702554D01*
X158842653Y-102635810D01*
X158867236Y-102665764D01*
X158986767Y-102763862D01*
X159092237Y-102820236D01*
X159123140Y-102836754D01*
X159271113Y-102881642D01*
X159346026Y-102889020D01*
X159386439Y-102893000D01*
X159386444Y-102893000D01*
X159425000Y-102896797D01*
X159463556Y-102893000D01*
X161672796Y-102893000D01*
X161708223Y-102946020D01*
X153872785Y-110781458D01*
X153842837Y-110806036D01*
X153818259Y-110835984D01*
X153818255Y-110835988D01*
X153788143Y-110872680D01*
X153744739Y-110925567D01*
X153706130Y-110997801D01*
X153671846Y-111061941D01*
X153626959Y-111209914D01*
X153611803Y-111363800D01*
X153615601Y-111402363D01*
X153615600Y-117354942D01*
X153183870Y-117786672D01*
X153237133Y-117611087D01*
X153266000Y-117317997D01*
X153266000Y-116602002D01*
X153237133Y-116308912D01*
X153123057Y-115932853D01*
X152937807Y-115586275D01*
X152688503Y-115282497D01*
X152384725Y-115033193D01*
X152038146Y-114847943D01*
X151662087Y-114733867D01*
X151271000Y-114695348D01*
X150879912Y-114733867D01*
X150503853Y-114847943D01*
X150157275Y-115033193D01*
X149853497Y-115282497D01*
X149604193Y-115586275D01*
X149418943Y-115932854D01*
X149304867Y-116308913D01*
X149276000Y-116602003D01*
X149276000Y-117317998D01*
X149304867Y-117611088D01*
X149418943Y-117987147D01*
X149604193Y-118333725D01*
X149853498Y-118637503D01*
X150157276Y-118886807D01*
X150503854Y-119072057D01*
X150879913Y-119186133D01*
X151271000Y-119224652D01*
X151662088Y-119186133D01*
X151837672Y-119132870D01*
X148443185Y-122527358D01*
X148413237Y-122551936D01*
X148388659Y-122581884D01*
X148388655Y-122581888D01*
X148355690Y-122622056D01*
X148315139Y-122671467D01*
X148276177Y-122744360D01*
X148242246Y-122807841D01*
X148207638Y-122921928D01*
X148071000Y-122921928D01*
X147946518Y-122934188D01*
X147826820Y-122970498D01*
X147716506Y-123029463D01*
X147619815Y-123108815D01*
X147540463Y-123205506D01*
X147487120Y-123305303D01*
X147449505Y-123267688D01*
X147198095Y-123099701D01*
X146918743Y-122983989D01*
X146622184Y-122925000D01*
X146319816Y-122925000D01*
X146023257Y-122983989D01*
X145743905Y-123099701D01*
X145492495Y-123267688D01*
X145278688Y-123481495D01*
X145183262Y-123624310D01*
X145035080Y-123575525D01*
X144150605Y-124460000D01*
X145035080Y-125344475D01*
X145183262Y-125295690D01*
X145278688Y-125438505D01*
X145492495Y-125652312D01*
X145735257Y-125814521D01*
X145742246Y-125837559D01*
X145770563Y-125890537D01*
X145815139Y-125973933D01*
X145842277Y-126007000D01*
X145888655Y-126063512D01*
X145888659Y-126063516D01*
X145913237Y-126093464D01*
X145943185Y-126118042D01*
X147669788Y-127844645D01*
X147592815Y-127907815D01*
X147579210Y-127924393D01*
X147523727Y-127887320D01*
X147262574Y-127779147D01*
X146985335Y-127724000D01*
X146702665Y-127724000D01*
X146425426Y-127779147D01*
X146164273Y-127887320D01*
X145929241Y-128044363D01*
X145729363Y-128244241D01*
X145572320Y-128479273D01*
X145464147Y-128740426D01*
X145409000Y-129017665D01*
X145409000Y-129300335D01*
X145464147Y-129577574D01*
X145572320Y-129838727D01*
X145729363Y-130073759D01*
X145929241Y-130273637D01*
X146059000Y-130360339D01*
X146059001Y-137924942D01*
X145134414Y-138849529D01*
X145067603Y-138662708D01*
X145000671Y-138537486D01*
X144756702Y-138465903D01*
X143943605Y-139279000D01*
X143957748Y-139293143D01*
X143778143Y-139472748D01*
X143764000Y-139458605D01*
X142950903Y-140271702D01*
X143022486Y-140515671D01*
X143277996Y-140636571D01*
X143333467Y-140650476D01*
X140266943Y-143717000D01*
X136875211Y-143717000D01*
X136856274Y-143698063D01*
X136701445Y-143594610D01*
X140946543Y-139349512D01*
X142323783Y-139349512D01*
X142365213Y-139629130D01*
X142460397Y-139895292D01*
X142527329Y-140020514D01*
X142771298Y-140092097D01*
X143584395Y-139279000D01*
X142771298Y-138465903D01*
X142527329Y-138537486D01*
X142406429Y-138792996D01*
X142337700Y-139067184D01*
X142323783Y-139349512D01*
X140946543Y-139349512D01*
X142408766Y-137887290D01*
X142433463Y-137933494D01*
X142512815Y-138030185D01*
X142609506Y-138109537D01*
X142719820Y-138168502D01*
X142839518Y-138204812D01*
X142964000Y-138217072D01*
X142971215Y-138217072D01*
X142950903Y-138286298D01*
X143764000Y-139099395D01*
X144577097Y-138286298D01*
X144556785Y-138217072D01*
X144564000Y-138217072D01*
X144688482Y-138204812D01*
X144808180Y-138168502D01*
X144918494Y-138109537D01*
X145015185Y-138030185D01*
X145094537Y-137933494D01*
X145153502Y-137823180D01*
X145189812Y-137703482D01*
X145202072Y-137579000D01*
X145202072Y-135979000D01*
X145189812Y-135854518D01*
X145153502Y-135734820D01*
X145094537Y-135624506D01*
X145015185Y-135527815D01*
X144918494Y-135448463D01*
X144808180Y-135389498D01*
X144774000Y-135379130D01*
X144774000Y-135153304D01*
X144778886Y-135103699D01*
X144760103Y-134913000D01*
X144759385Y-134905706D01*
X144701632Y-134715320D01*
X144607847Y-134539860D01*
X144481633Y-134386067D01*
X144443094Y-134354439D01*
X140880300Y-130791645D01*
X140880300Y-125640355D01*
X140996575Y-125524080D01*
X143086525Y-125524080D01*
X143170208Y-125778261D01*
X143442775Y-125909158D01*
X143735642Y-125984365D01*
X144037553Y-126000991D01*
X144336907Y-125958397D01*
X144622199Y-125858222D01*
X144771792Y-125778261D01*
X144855475Y-125524080D01*
X143971000Y-124639605D01*
X143086525Y-125524080D01*
X140996575Y-125524080D01*
X142498679Y-124021976D01*
X142446635Y-124224642D01*
X142430009Y-124526553D01*
X142472603Y-124825907D01*
X142572778Y-125111199D01*
X142652739Y-125260792D01*
X142906920Y-125344475D01*
X143791395Y-124460000D01*
X143777253Y-124445858D01*
X143956858Y-124266253D01*
X143971000Y-124280395D01*
X144855475Y-123395920D01*
X144771792Y-123141739D01*
X144499225Y-123010842D01*
X144206358Y-122935635D01*
X143904447Y-122919009D01*
X143605093Y-122961603D01*
X143534137Y-122986518D01*
X147047294Y-119473361D01*
X147085833Y-119441733D01*
X147212047Y-119287940D01*
X147305832Y-119112480D01*
X147363585Y-118922094D01*
X147378200Y-118773708D01*
X147378200Y-118773706D01*
X147383086Y-118724101D01*
X147378200Y-118674496D01*
X147378200Y-115613855D01*
X149763094Y-113228961D01*
X149801633Y-113197333D01*
X149927847Y-113043540D01*
X150021632Y-112868080D01*
X150079385Y-112677694D01*
X150094000Y-112529308D01*
X150094000Y-112529306D01*
X150098886Y-112479701D01*
X150094000Y-112430096D01*
X150094000Y-110373238D01*
X150108482Y-110371812D01*
X150228180Y-110335502D01*
X150338494Y-110276537D01*
X150435185Y-110197185D01*
X150514537Y-110100494D01*
X150573502Y-109990180D01*
X150609812Y-109870482D01*
X150622072Y-109746000D01*
X150622072Y-107946000D01*
X150609812Y-107821518D01*
X150573502Y-107701820D01*
X150514537Y-107591506D01*
X150435185Y-107494815D01*
X150338494Y-107415463D01*
X150228180Y-107356498D01*
X150108482Y-107320188D01*
X149984000Y-107307928D01*
X148184000Y-107307928D01*
X148059518Y-107320188D01*
X147939820Y-107356498D01*
X147829506Y-107415463D01*
X147732815Y-107494815D01*
X147653463Y-107591506D01*
X147600120Y-107691303D01*
X147562505Y-107653688D01*
X147311095Y-107485701D01*
X147031743Y-107369989D01*
X146735184Y-107311000D01*
X146432816Y-107311000D01*
X146136257Y-107369989D01*
X145856905Y-107485701D01*
X145605495Y-107653688D01*
X145391688Y-107867495D01*
X145296262Y-108010310D01*
X145148080Y-107961525D01*
X144263605Y-108846000D01*
X145148080Y-109730475D01*
X145296262Y-109681690D01*
X145391688Y-109824505D01*
X145605495Y-110038312D01*
X145856905Y-110206299D01*
X146136257Y-110322011D01*
X146432816Y-110381000D01*
X146735184Y-110381000D01*
X147031743Y-110322011D01*
X147311095Y-110206299D01*
X147562505Y-110038312D01*
X147600120Y-110000697D01*
X147653463Y-110100494D01*
X147732815Y-110197185D01*
X147829506Y-110276537D01*
X147939820Y-110335502D01*
X148059518Y-110371812D01*
X148074000Y-110373238D01*
X148074001Y-112061344D01*
X145689106Y-114446239D01*
X145650567Y-114477867D01*
X145524353Y-114631660D01*
X145469723Y-114733867D01*
X145430568Y-114807121D01*
X145372815Y-114997506D01*
X145353314Y-115195500D01*
X145358200Y-115245108D01*
X145358201Y-118305744D01*
X139451945Y-124212000D01*
X139222493Y-124212000D01*
X139214608Y-124202392D01*
X138996101Y-124023068D01*
X138746808Y-123889818D01*
X138476309Y-123807764D01*
X138265492Y-123787000D01*
X137324508Y-123787000D01*
X137113691Y-123807764D01*
X136843192Y-123889818D01*
X136593899Y-124023068D01*
X136375392Y-124202392D01*
X136196068Y-124420899D01*
X136062818Y-124670192D01*
X135980764Y-124940691D01*
X135953057Y-125222000D01*
X135980764Y-125503309D01*
X136062818Y-125773808D01*
X136196068Y-126023101D01*
X136375392Y-126241608D01*
X136593899Y-126420932D01*
X136726858Y-126492000D01*
X136593899Y-126563068D01*
X136375392Y-126742392D01*
X136196068Y-126960899D01*
X136062818Y-127210192D01*
X135980764Y-127480691D01*
X135953057Y-127762000D01*
X135980764Y-128043309D01*
X136062818Y-128313808D01*
X136196068Y-128563101D01*
X136375392Y-128781608D01*
X136593899Y-128960932D01*
X136726858Y-129032000D01*
X136593899Y-129103068D01*
X136375392Y-129282392D01*
X136196068Y-129500899D01*
X136062818Y-129750192D01*
X135980764Y-130020691D01*
X135953057Y-130302000D01*
X135980764Y-130583309D01*
X136062818Y-130853808D01*
X136196068Y-131103101D01*
X136375392Y-131321608D01*
X136593899Y-131500932D01*
X136726858Y-131572000D01*
X136593899Y-131643068D01*
X136375392Y-131822392D01*
X136196068Y-132040899D01*
X136062818Y-132290192D01*
X135980764Y-132560691D01*
X135953057Y-132842000D01*
X135980764Y-133123309D01*
X136062818Y-133393808D01*
X136196068Y-133643101D01*
X136375392Y-133861608D01*
X136593899Y-134040932D01*
X136843192Y-134174182D01*
X137113691Y-134256236D01*
X137324508Y-134277000D01*
X138265492Y-134277000D01*
X138476309Y-134256236D01*
X138746808Y-134174182D01*
X138996101Y-134040932D01*
X139214608Y-133861608D01*
X139393932Y-133643101D01*
X139527182Y-133393808D01*
X139609236Y-133123309D01*
X139636943Y-132842000D01*
X139609236Y-132560691D01*
X139529379Y-132297434D01*
X142655711Y-135423766D01*
X142609506Y-135448463D01*
X142512815Y-135527815D01*
X142433463Y-135624506D01*
X142374498Y-135734820D01*
X142364130Y-135769000D01*
X142138308Y-135769000D01*
X142088700Y-135764114D01*
X141890705Y-135783615D01*
X141700320Y-135841368D01*
X141524860Y-135935153D01*
X141371067Y-136061367D01*
X141339444Y-136099900D01*
X132797906Y-144641439D01*
X132759367Y-144673067D01*
X132633153Y-144826860D01*
X132544748Y-144992256D01*
X132539368Y-145002321D01*
X132481615Y-145192706D01*
X132462114Y-145390700D01*
X132467000Y-145440308D01*
X132467001Y-151197314D01*
X132401201Y-151263114D01*
X132249629Y-151489957D01*
X132207000Y-151592873D01*
X132164371Y-151489957D01*
X132012799Y-151263114D01*
X131819886Y-151070201D01*
X131593043Y-150918629D01*
X131340989Y-150814225D01*
X131073411Y-150761000D01*
X130800589Y-150761000D01*
X130533011Y-150814225D01*
X130280957Y-150918629D01*
X130054114Y-151070201D01*
X129861201Y-151263114D01*
X129783445Y-151379483D01*
X129772812Y-151271518D01*
X129736502Y-151151820D01*
X129677537Y-151041506D01*
X129598185Y-150944815D01*
X129501494Y-150865463D01*
X129391180Y-150806498D01*
X129271482Y-150770188D01*
X129147000Y-150757928D01*
X127823107Y-150757928D01*
X127823107Y-110125703D01*
X127887320Y-110280727D01*
X128044363Y-110515759D01*
X128244241Y-110715637D01*
X128479273Y-110872680D01*
X128740426Y-110980853D01*
X129017665Y-111036000D01*
X129300335Y-111036000D01*
X129577574Y-110980853D01*
X129838727Y-110872680D01*
X130073759Y-110715637D01*
X130273637Y-110515759D01*
X130409000Y-110313173D01*
X130544363Y-110515759D01*
X130744241Y-110715637D01*
X130979273Y-110872680D01*
X131240426Y-110980853D01*
X131517665Y-111036000D01*
X131772543Y-111036000D01*
X131297490Y-111511053D01*
X131267536Y-111535636D01*
X131169438Y-111655168D01*
X131096546Y-111791541D01*
X131051659Y-111939514D01*
X131040300Y-112054840D01*
X131040300Y-112054847D01*
X131036503Y-112093400D01*
X131040300Y-112131953D01*
X131040301Y-123783928D01*
X128975000Y-123783928D01*
X128850518Y-123796188D01*
X128730820Y-123832498D01*
X128620506Y-123891463D01*
X128523815Y-123970815D01*
X128444463Y-124067506D01*
X128385498Y-124177820D01*
X128349188Y-124297518D01*
X128336928Y-124422000D01*
X128336928Y-126022000D01*
X128349188Y-126146482D01*
X128385498Y-126266180D01*
X128444463Y-126376494D01*
X128523815Y-126473185D01*
X128620506Y-126552537D01*
X128730820Y-126611502D01*
X128850518Y-126647812D01*
X128868482Y-126649581D01*
X128755392Y-126742392D01*
X128576068Y-126960899D01*
X128442818Y-127210192D01*
X128360764Y-127480691D01*
X128333057Y-127762000D01*
X128360764Y-128043309D01*
X128442818Y-128313808D01*
X128576068Y-128563101D01*
X128755392Y-128781608D01*
X128973899Y-128960932D01*
X129106858Y-129032000D01*
X128973899Y-129103068D01*
X128755392Y-129282392D01*
X128576068Y-129500899D01*
X128442818Y-129750192D01*
X128360764Y-130020691D01*
X128333057Y-130302000D01*
X128360764Y-130583309D01*
X128442818Y-130853808D01*
X128576068Y-131103101D01*
X128755392Y-131321608D01*
X128973899Y-131500932D01*
X129106858Y-131572000D01*
X128973899Y-131643068D01*
X128755392Y-131822392D01*
X128576068Y-132040899D01*
X128442818Y-132290192D01*
X128360764Y-132560691D01*
X128333057Y-132842000D01*
X128360764Y-133123309D01*
X128442818Y-133393808D01*
X128576068Y-133643101D01*
X128755392Y-133861608D01*
X128973899Y-134040932D01*
X129223192Y-134174182D01*
X129493691Y-134256236D01*
X129704508Y-134277000D01*
X130645492Y-134277000D01*
X130856309Y-134256236D01*
X131126808Y-134174182D01*
X131376101Y-134040932D01*
X131594608Y-133861608D01*
X131773932Y-133643101D01*
X131907182Y-133393808D01*
X131989236Y-133123309D01*
X132016943Y-132842000D01*
X131989236Y-132560691D01*
X131907182Y-132290192D01*
X131773932Y-132040899D01*
X131594608Y-131822392D01*
X131376101Y-131643068D01*
X131243142Y-131572000D01*
X131376101Y-131500932D01*
X131594608Y-131321608D01*
X131773932Y-131103101D01*
X131782538Y-131087000D01*
X131786747Y-131087000D01*
X131825300Y-131090797D01*
X131863853Y-131087000D01*
X131863861Y-131087000D01*
X131979187Y-131075641D01*
X132127160Y-131030754D01*
X132263533Y-130957862D01*
X132383064Y-130859764D01*
X132407647Y-130829810D01*
X134725110Y-128512347D01*
X134755064Y-128487764D01*
X134853162Y-128368233D01*
X134926054Y-128231860D01*
X134961558Y-128114820D01*
X134970942Y-128083887D01*
X134978760Y-128004506D01*
X134982300Y-127968561D01*
X134982300Y-127968556D01*
X134986097Y-127930000D01*
X134982300Y-127891444D01*
X134982300Y-116602003D01*
X139676000Y-116602003D01*
X139676000Y-117317998D01*
X139704867Y-117611088D01*
X139818943Y-117987147D01*
X140004193Y-118333725D01*
X140253498Y-118637503D01*
X140557276Y-118886807D01*
X140903854Y-119072057D01*
X141279913Y-119186133D01*
X141671000Y-119224652D01*
X142062088Y-119186133D01*
X142438147Y-119072057D01*
X142784725Y-118886807D01*
X143088503Y-118637503D01*
X143337807Y-118333725D01*
X143523057Y-117987147D01*
X143637133Y-117611087D01*
X143666000Y-117317997D01*
X143666000Y-116602002D01*
X143637133Y-116308912D01*
X143523057Y-115932853D01*
X143337807Y-115586275D01*
X143088503Y-115282497D01*
X142784725Y-115033193D01*
X142438146Y-114847943D01*
X142062087Y-114733867D01*
X141671000Y-114695348D01*
X141279912Y-114733867D01*
X140903853Y-114847943D01*
X140557275Y-115033193D01*
X140253497Y-115282497D01*
X140004193Y-115586275D01*
X139818943Y-115932854D01*
X139704867Y-116308913D01*
X139676000Y-116602003D01*
X134982300Y-116602003D01*
X134982300Y-116013957D01*
X141086177Y-109910080D01*
X143199525Y-109910080D01*
X143283208Y-110164261D01*
X143555775Y-110295158D01*
X143848642Y-110370365D01*
X144150553Y-110386991D01*
X144449907Y-110344397D01*
X144735199Y-110244222D01*
X144884792Y-110164261D01*
X144968475Y-109910080D01*
X144084000Y-109025605D01*
X143199525Y-109910080D01*
X141086177Y-109910080D01*
X142619763Y-108376494D01*
X142559635Y-108610642D01*
X142543009Y-108912553D01*
X142585603Y-109211907D01*
X142685778Y-109497199D01*
X142765739Y-109646792D01*
X143019920Y-109730475D01*
X143904395Y-108846000D01*
X143890253Y-108831858D01*
X144069858Y-108652253D01*
X144084000Y-108666395D01*
X144968475Y-107781920D01*
X144884792Y-107527739D01*
X144612225Y-107396842D01*
X144319358Y-107321635D01*
X144017447Y-107305009D01*
X143718093Y-107347603D01*
X143611078Y-107385179D01*
X149389000Y-101607258D01*
X149389000Y-101703998D01*
X149417867Y-101997088D01*
X149531943Y-102373147D01*
X149717193Y-102719725D01*
X149966498Y-103023503D01*
X150270276Y-103272807D01*
X150616854Y-103458057D01*
X150992913Y-103572133D01*
X151384000Y-103610652D01*
X151775088Y-103572133D01*
X152151147Y-103458057D01*
X152497725Y-103272807D01*
X152801503Y-103023503D01*
X153050807Y-102719725D01*
X153236057Y-102373147D01*
X153350133Y-101997087D01*
X153379000Y-101703997D01*
X153379000Y-100988002D01*
X153350133Y-100694912D01*
X153236057Y-100318853D01*
X153050807Y-99972275D01*
X152801503Y-99668497D01*
X152497725Y-99419193D01*
X152151146Y-99233943D01*
X151852813Y-99143445D01*
X153171858Y-97824400D01*
X154257939Y-97824400D01*
X154235147Y-97879426D01*
G37*
%TD.AperFunction*%
D24*
X163586400Y-100958376D02*
X163470043Y-100880629D01*
X163217989Y-100776225D01*
X162950411Y-100723000D01*
X162677589Y-100723000D01*
X162410011Y-100776225D01*
X162157957Y-100880629D01*
X161931114Y-101032201D01*
X161738201Y-101225114D01*
X161672796Y-101323000D01*
X159750157Y-101323000D01*
X158160157Y-99733000D01*
X158256335Y-99733000D01*
X158533574Y-99677853D01*
X158794727Y-99569680D01*
X159029759Y-99412637D01*
X159229637Y-99212759D01*
X159386680Y-98977727D01*
X159494853Y-98716574D01*
X159550000Y-98439335D01*
X159550000Y-98156665D01*
X159494853Y-97879426D01*
X159386680Y-97618273D01*
X159229637Y-97383241D01*
X159029759Y-97183363D01*
X158794727Y-97026320D01*
X158533574Y-96918147D01*
X158256335Y-96863000D01*
X157973665Y-96863000D01*
X157820604Y-96893446D01*
X157438747Y-96511590D01*
X157414164Y-96481636D01*
X157294633Y-96383538D01*
X157158260Y-96310646D01*
X157010287Y-96265759D01*
X156894961Y-96254400D01*
X156894953Y-96254400D01*
X156856400Y-96250603D01*
X156817847Y-96254400D01*
X152885252Y-96254400D01*
X152846699Y-96250603D01*
X152808146Y-96254400D01*
X152808139Y-96254400D01*
X152707190Y-96264343D01*
X152692812Y-96265759D01*
X152658372Y-96276206D01*
X152544840Y-96310646D01*
X152408467Y-96383538D01*
X152379314Y-96407464D01*
X152318887Y-96457055D01*
X152318884Y-96457058D01*
X152288936Y-96481636D01*
X152264358Y-96511584D01*
X134767081Y-114008862D01*
X134864505Y-113863056D01*
X134942526Y-113674698D01*
X134982300Y-113474739D01*
X134982300Y-113447957D01*
X161065327Y-87364930D01*
X161078629Y-87397043D01*
X161230201Y-87623886D01*
X161423114Y-87816799D01*
X161649957Y-87968371D01*
X161902011Y-88072775D01*
X162169589Y-88126000D01*
X162442411Y-88126000D01*
X162709989Y-88072775D01*
X162962043Y-87968371D01*
X163188886Y-87816799D01*
X163381799Y-87623886D01*
X163533371Y-87397043D01*
X163586401Y-87269018D01*
X163586400Y-100958376D01*
%TA.AperFunction,Conductor*%
D25*
G36*
X163586400Y-100958376D02*
G01*
X163470043Y-100880629D01*
X163217989Y-100776225D01*
X162950411Y-100723000D01*
X162677589Y-100723000D01*
X162410011Y-100776225D01*
X162157957Y-100880629D01*
X161931114Y-101032201D01*
X161738201Y-101225114D01*
X161672796Y-101323000D01*
X159750157Y-101323000D01*
X158160157Y-99733000D01*
X158256335Y-99733000D01*
X158533574Y-99677853D01*
X158794727Y-99569680D01*
X159029759Y-99412637D01*
X159229637Y-99212759D01*
X159386680Y-98977727D01*
X159494853Y-98716574D01*
X159550000Y-98439335D01*
X159550000Y-98156665D01*
X159494853Y-97879426D01*
X159386680Y-97618273D01*
X159229637Y-97383241D01*
X159029759Y-97183363D01*
X158794727Y-97026320D01*
X158533574Y-96918147D01*
X158256335Y-96863000D01*
X157973665Y-96863000D01*
X157820604Y-96893446D01*
X157438747Y-96511590D01*
X157414164Y-96481636D01*
X157294633Y-96383538D01*
X157158260Y-96310646D01*
X157010287Y-96265759D01*
X156894961Y-96254400D01*
X156894953Y-96254400D01*
X156856400Y-96250603D01*
X156817847Y-96254400D01*
X152885252Y-96254400D01*
X152846699Y-96250603D01*
X152808146Y-96254400D01*
X152808139Y-96254400D01*
X152707190Y-96264343D01*
X152692812Y-96265759D01*
X152658372Y-96276206D01*
X152544840Y-96310646D01*
X152408467Y-96383538D01*
X152379314Y-96407464D01*
X152318887Y-96457055D01*
X152318884Y-96457058D01*
X152288936Y-96481636D01*
X152264358Y-96511584D01*
X134767081Y-114008862D01*
X134864505Y-113863056D01*
X134942526Y-113674698D01*
X134982300Y-113474739D01*
X134982300Y-113447957D01*
X161065327Y-87364930D01*
X161078629Y-87397043D01*
X161230201Y-87623886D01*
X161423114Y-87816799D01*
X161649957Y-87968371D01*
X161902011Y-88072775D01*
X162169589Y-88126000D01*
X162442411Y-88126000D01*
X162709989Y-88072775D01*
X162962043Y-87968371D01*
X163188886Y-87816799D01*
X163381799Y-87623886D01*
X163533371Y-87397043D01*
X163586401Y-87269018D01*
X163586400Y-100958376D01*
G37*
%TD.AperFunction*%
D24*
X158757842Y-76189000D02*
X158751816Y-76189000D01*
X158455257Y-76247989D01*
X158175905Y-76363701D01*
X157924495Y-76531688D01*
X157710688Y-76745495D01*
X157653000Y-76831831D01*
X157595312Y-76745495D01*
X157381505Y-76531688D01*
X157130095Y-76363701D01*
X156850743Y-76247989D01*
X156554184Y-76189000D01*
X156251816Y-76189000D01*
X155955257Y-76247989D01*
X155675905Y-76363701D01*
X155424495Y-76531688D01*
X155210688Y-76745495D01*
X155042701Y-76996905D01*
X154926989Y-77276257D01*
X154868000Y-77572816D01*
X154868000Y-77875184D01*
X154926989Y-78171743D01*
X155042701Y-78451095D01*
X155210688Y-78702505D01*
X155424495Y-78916312D01*
X155675905Y-79084299D01*
X155955257Y-79200011D01*
X156251816Y-79259000D01*
X156554184Y-79259000D01*
X156850743Y-79200011D01*
X157130095Y-79084299D01*
X157381505Y-78916312D01*
X157595312Y-78702505D01*
X157653000Y-78616169D01*
X157710688Y-78702505D01*
X157924495Y-78916312D01*
X158175905Y-79084299D01*
X158455257Y-79200011D01*
X158751816Y-79259000D01*
X159054184Y-79259000D01*
X159350743Y-79200011D01*
X159630095Y-79084299D01*
X159881505Y-78916312D01*
X159919120Y-78878697D01*
X159972463Y-78978494D01*
X160051815Y-79075185D01*
X160148506Y-79154537D01*
X160258820Y-79213502D01*
X160378518Y-79249812D01*
X160503000Y-79262072D01*
X160639638Y-79262072D01*
X160674246Y-79376160D01*
X160747138Y-79512533D01*
X160845236Y-79632064D01*
X160964767Y-79730162D01*
X161101140Y-79803054D01*
X161249113Y-79847941D01*
X161364439Y-79859300D01*
X161364440Y-79859300D01*
X161403000Y-79863098D01*
X161441561Y-79859300D01*
X161837343Y-79859300D01*
X162254042Y-80276000D01*
X162178998Y-80276000D01*
X162178998Y-80434748D01*
X162020250Y-80276000D01*
X161556000Y-80272928D01*
X161431518Y-80285188D01*
X161311820Y-80321498D01*
X161201506Y-80380463D01*
X161104815Y-80459815D01*
X161025463Y-80556506D01*
X160966498Y-80666820D01*
X160930188Y-80786518D01*
X160917928Y-80911000D01*
X160921000Y-81375250D01*
X161079750Y-81534000D01*
X162179000Y-81534000D01*
X162179000Y-81514000D01*
X162433000Y-81514000D01*
X162433000Y-81534000D01*
X162453000Y-81534000D01*
X162453000Y-81788000D01*
X162433000Y-81788000D01*
X162433000Y-81808000D01*
X162179000Y-81808000D01*
X162179000Y-81788000D01*
X161079750Y-81788000D01*
X160921000Y-81946750D01*
X160917928Y-82411000D01*
X160930188Y-82535482D01*
X160966498Y-82655180D01*
X161025463Y-82765494D01*
X161104815Y-82862185D01*
X161201506Y-82941537D01*
X161311820Y-83000502D01*
X161431518Y-83036812D01*
X161539483Y-83047445D01*
X161423114Y-83125201D01*
X161230201Y-83318114D01*
X161078629Y-83544957D01*
X160974225Y-83797011D01*
X160921000Y-84064589D01*
X160921000Y-84337411D01*
X160974225Y-84604989D01*
X161078629Y-84857043D01*
X161188487Y-85021456D01*
X147370515Y-98839428D01*
X147369000Y-98824044D01*
X147369000Y-94673608D01*
X147562505Y-94544312D01*
X147600120Y-94506697D01*
X147653463Y-94606494D01*
X147732815Y-94703185D01*
X147829506Y-94782537D01*
X147939820Y-94841502D01*
X148059518Y-94877812D01*
X148184000Y-94890072D01*
X149984000Y-94890072D01*
X150108482Y-94877812D01*
X150228180Y-94841502D01*
X150338494Y-94782537D01*
X150435185Y-94703185D01*
X150514537Y-94606494D01*
X150573502Y-94496180D01*
X150609812Y-94376482D01*
X150622072Y-94252000D01*
X150622072Y-92452000D01*
X150609812Y-92327518D01*
X150573502Y-92207820D01*
X150514537Y-92097506D01*
X150435185Y-92000815D01*
X150338494Y-91921463D01*
X150228180Y-91862498D01*
X150108482Y-91826188D01*
X149984000Y-91813928D01*
X148184000Y-91813928D01*
X148059518Y-91826188D01*
X147939820Y-91862498D01*
X147829506Y-91921463D01*
X147732815Y-92000815D01*
X147653463Y-92097506D01*
X147600120Y-92197303D01*
X147562505Y-92159688D01*
X147311095Y-91991701D01*
X147031743Y-91875989D01*
X146735184Y-91817000D01*
X146432816Y-91817000D01*
X146136257Y-91875989D01*
X145856905Y-91991701D01*
X145605495Y-92159688D01*
X145391688Y-92373495D01*
X145334000Y-92459831D01*
X145276312Y-92373495D01*
X145062505Y-92159688D01*
X144811095Y-91991701D01*
X144531743Y-91875989D01*
X144235184Y-91817000D01*
X143932816Y-91817000D01*
X143636257Y-91875989D01*
X143458908Y-91949450D01*
X140263657Y-88754200D01*
X147378147Y-88754200D01*
X147416700Y-88757997D01*
X147455253Y-88754200D01*
X147455261Y-88754200D01*
X147570587Y-88742841D01*
X147718560Y-88697954D01*
X147854933Y-88625062D01*
X147974464Y-88526964D01*
X147999047Y-88497010D01*
X149397958Y-87098100D01*
X149424739Y-87098100D01*
X149624698Y-87058326D01*
X149627169Y-87057302D01*
X149717193Y-87225725D01*
X149966498Y-87529503D01*
X150270276Y-87778807D01*
X150616854Y-87964057D01*
X150992913Y-88078133D01*
X151384000Y-88116652D01*
X151775088Y-88078133D01*
X152151147Y-87964057D01*
X152497725Y-87778807D01*
X152801503Y-87529503D01*
X153050807Y-87225725D01*
X153236057Y-86879147D01*
X153350133Y-86503087D01*
X153379000Y-86209997D01*
X153379000Y-85494002D01*
X153350133Y-85200912D01*
X153236057Y-84824853D01*
X153096200Y-84563200D01*
X154092154Y-84563200D01*
X154149795Y-84702356D01*
X154263063Y-84871874D01*
X154407226Y-85016037D01*
X154576744Y-85129305D01*
X154765102Y-85207326D01*
X154965061Y-85247100D01*
X155168939Y-85247100D01*
X155368898Y-85207326D01*
X155557256Y-85129305D01*
X155726774Y-85016037D01*
X155870937Y-84871874D01*
X155984205Y-84702356D01*
X156062226Y-84513998D01*
X156102000Y-84314039D01*
X156102000Y-84110161D01*
X156062226Y-83910202D01*
X155984205Y-83721844D01*
X155870937Y-83552326D01*
X155726774Y-83408163D01*
X155557256Y-83294895D01*
X155368898Y-83216874D01*
X155168939Y-83177100D01*
X155138060Y-83177100D01*
X155071333Y-83122338D01*
X154934960Y-83049446D01*
X154786987Y-83004559D01*
X154671661Y-82993200D01*
X154671653Y-82993200D01*
X154633100Y-82989403D01*
X154594547Y-82993200D01*
X138674655Y-82993200D01*
X138636100Y-82989403D01*
X138597544Y-82993200D01*
X138597539Y-82993200D01*
X138557126Y-82997180D01*
X138482213Y-83004558D01*
X138345600Y-83046000D01*
X138334240Y-83049446D01*
X138197867Y-83122338D01*
X138137659Y-83171750D01*
X138108287Y-83195855D01*
X138108284Y-83195858D01*
X138078336Y-83220436D01*
X138053758Y-83250384D01*
X133203190Y-88100953D01*
X133173236Y-88125536D01*
X133075138Y-88245068D01*
X133002246Y-88381441D01*
X132957359Y-88529414D01*
X132946000Y-88644740D01*
X132946000Y-88644747D01*
X132942203Y-88683300D01*
X132946000Y-88721853D01*
X132946001Y-93600795D01*
X132848114Y-93666201D01*
X132655201Y-93859114D01*
X132503629Y-94085957D01*
X132461000Y-94188873D01*
X132418371Y-94085957D01*
X132266799Y-93859114D01*
X132073886Y-93666201D01*
X131847043Y-93514629D01*
X131594989Y-93410225D01*
X131327411Y-93357000D01*
X131054589Y-93357000D01*
X130787011Y-93410225D01*
X130534957Y-93514629D01*
X130308114Y-93666201D01*
X130115201Y-93859114D01*
X130037445Y-93975483D01*
X130026812Y-93867518D01*
X129990502Y-93747820D01*
X129931537Y-93637506D01*
X129852185Y-93540815D01*
X129755494Y-93461463D01*
X129645180Y-93402498D01*
X129525482Y-93366188D01*
X129401000Y-93353928D01*
X128936750Y-93357000D01*
X128778000Y-93515750D01*
X128778000Y-94615000D01*
X128798000Y-94615000D01*
X128798000Y-94869000D01*
X128778000Y-94869000D01*
X128778000Y-95968250D01*
X128936750Y-96127000D01*
X129401000Y-96130072D01*
X129525482Y-96117812D01*
X129645180Y-96081502D01*
X129755494Y-96022537D01*
X129852185Y-95943185D01*
X129931537Y-95846494D01*
X129990502Y-95736180D01*
X130026812Y-95616482D01*
X130037445Y-95508517D01*
X130115201Y-95624886D01*
X130308114Y-95817799D01*
X130534957Y-95969371D01*
X130787011Y-96073775D01*
X131054589Y-96127000D01*
X131235842Y-96127000D01*
X128631185Y-98731658D01*
X128601237Y-98756236D01*
X128576659Y-98786184D01*
X128576655Y-98786188D01*
X128544137Y-98825812D01*
X128503139Y-98875767D01*
X128489566Y-98901161D01*
X128430246Y-99012141D01*
X128385359Y-99160114D01*
X128370203Y-99314000D01*
X128374001Y-99352563D01*
X128374000Y-108399661D01*
X128244241Y-108486363D01*
X128044363Y-108686241D01*
X127887320Y-108921273D01*
X127823107Y-109076297D01*
X127823107Y-96122400D01*
X127901000Y-96130072D01*
X128365250Y-96127000D01*
X128524000Y-95968250D01*
X128524000Y-94869000D01*
X128504000Y-94869000D01*
X128504000Y-94615000D01*
X128524000Y-94615000D01*
X128524000Y-93515750D01*
X128365250Y-93357000D01*
X127901000Y-93353928D01*
X127823107Y-93361600D01*
X127823107Y-82832264D01*
X128177967Y-83187125D01*
X128155000Y-83302589D01*
X128155000Y-83575411D01*
X128208225Y-83842989D01*
X128312629Y-84095043D01*
X128464201Y-84321886D01*
X128657114Y-84514799D01*
X128883957Y-84666371D01*
X128986873Y-84709000D01*
X128883957Y-84751629D01*
X128657114Y-84903201D01*
X128464201Y-85096114D01*
X128312629Y-85322957D01*
X128208225Y-85575011D01*
X128155000Y-85842589D01*
X128155000Y-86115411D01*
X128208225Y-86382989D01*
X128312629Y-86635043D01*
X128464201Y-86861886D01*
X128657114Y-87054799D01*
X128883957Y-87206371D01*
X129136011Y-87310775D01*
X129403589Y-87364000D01*
X129676411Y-87364000D01*
X129943989Y-87310775D01*
X130196043Y-87206371D01*
X130422886Y-87054799D01*
X130615799Y-86861886D01*
X130767371Y-86635043D01*
X130871775Y-86382989D01*
X130925000Y-86115411D01*
X130925000Y-85842589D01*
X130871775Y-85575011D01*
X130767371Y-85322957D01*
X130615799Y-85096114D01*
X130422886Y-84903201D01*
X130196043Y-84751629D01*
X130093127Y-84709000D01*
X130196043Y-84666371D01*
X130422886Y-84514799D01*
X130615799Y-84321886D01*
X130767371Y-84095043D01*
X130871775Y-83842989D01*
X130925000Y-83575411D01*
X130925000Y-83302589D01*
X130871775Y-83035011D01*
X130767371Y-82782957D01*
X130615799Y-82556114D01*
X130422886Y-82363201D01*
X130306517Y-82285445D01*
X130414482Y-82274812D01*
X130534180Y-82238502D01*
X130644494Y-82179537D01*
X130741185Y-82100185D01*
X130820537Y-82003494D01*
X130879502Y-81893180D01*
X130915812Y-81773482D01*
X130928072Y-81649000D01*
X130925000Y-81184750D01*
X130766250Y-81026000D01*
X129667000Y-81026000D01*
X129667000Y-81046000D01*
X129413000Y-81046000D01*
X129413000Y-81026000D01*
X129393000Y-81026000D01*
X129393000Y-80772000D01*
X129413000Y-80772000D01*
X129413000Y-80752000D01*
X129667000Y-80752000D01*
X129667000Y-80772000D01*
X130766250Y-80772000D01*
X130925000Y-80613250D01*
X130927181Y-80283600D01*
X141420347Y-80283600D01*
X141458900Y-80287397D01*
X141497453Y-80283600D01*
X141497461Y-80283600D01*
X141612787Y-80272241D01*
X141760760Y-80227354D01*
X141897133Y-80154462D01*
X142016664Y-80056364D01*
X142041247Y-80026410D01*
X143616086Y-78451571D01*
X143685295Y-78618656D01*
X143798563Y-78788174D01*
X143942726Y-78932337D01*
X144112244Y-79045605D01*
X144300602Y-79123626D01*
X144500561Y-79163400D01*
X144704439Y-79163400D01*
X144904398Y-79123626D01*
X145092756Y-79045605D01*
X145262274Y-78932337D01*
X145281211Y-78913400D01*
X147726047Y-78913400D01*
X147764600Y-78917197D01*
X147803153Y-78913400D01*
X147803161Y-78913400D01*
X147918487Y-78902041D01*
X148066460Y-78857154D01*
X148202833Y-78784262D01*
X148322364Y-78686164D01*
X148346947Y-78656210D01*
X150327603Y-76675554D01*
X150480665Y-76706000D01*
X150763335Y-76706000D01*
X151040574Y-76650853D01*
X151301727Y-76542680D01*
X151536759Y-76385637D01*
X151736637Y-76185759D01*
X151893680Y-75950727D01*
X152001853Y-75689574D01*
X152057000Y-75412335D01*
X152057000Y-75129665D01*
X152001853Y-74852426D01*
X151893680Y-74591273D01*
X151736637Y-74356241D01*
X151536759Y-74156363D01*
X151536665Y-74156300D01*
X156725143Y-74156300D01*
X158757842Y-76189000D01*
%TA.AperFunction,Conductor*%
D25*
G36*
X158757842Y-76189000D02*
G01*
X158751816Y-76189000D01*
X158455257Y-76247989D01*
X158175905Y-76363701D01*
X157924495Y-76531688D01*
X157710688Y-76745495D01*
X157653000Y-76831831D01*
X157595312Y-76745495D01*
X157381505Y-76531688D01*
X157130095Y-76363701D01*
X156850743Y-76247989D01*
X156554184Y-76189000D01*
X156251816Y-76189000D01*
X155955257Y-76247989D01*
X155675905Y-76363701D01*
X155424495Y-76531688D01*
X155210688Y-76745495D01*
X155042701Y-76996905D01*
X154926989Y-77276257D01*
X154868000Y-77572816D01*
X154868000Y-77875184D01*
X154926989Y-78171743D01*
X155042701Y-78451095D01*
X155210688Y-78702505D01*
X155424495Y-78916312D01*
X155675905Y-79084299D01*
X155955257Y-79200011D01*
X156251816Y-79259000D01*
X156554184Y-79259000D01*
X156850743Y-79200011D01*
X157130095Y-79084299D01*
X157381505Y-78916312D01*
X157595312Y-78702505D01*
X157653000Y-78616169D01*
X157710688Y-78702505D01*
X157924495Y-78916312D01*
X158175905Y-79084299D01*
X158455257Y-79200011D01*
X158751816Y-79259000D01*
X159054184Y-79259000D01*
X159350743Y-79200011D01*
X159630095Y-79084299D01*
X159881505Y-78916312D01*
X159919120Y-78878697D01*
X159972463Y-78978494D01*
X160051815Y-79075185D01*
X160148506Y-79154537D01*
X160258820Y-79213502D01*
X160378518Y-79249812D01*
X160503000Y-79262072D01*
X160639638Y-79262072D01*
X160674246Y-79376160D01*
X160747138Y-79512533D01*
X160845236Y-79632064D01*
X160964767Y-79730162D01*
X161101140Y-79803054D01*
X161249113Y-79847941D01*
X161364439Y-79859300D01*
X161364440Y-79859300D01*
X161403000Y-79863098D01*
X161441561Y-79859300D01*
X161837343Y-79859300D01*
X162254042Y-80276000D01*
X162178998Y-80276000D01*
X162178998Y-80434748D01*
X162020250Y-80276000D01*
X161556000Y-80272928D01*
X161431518Y-80285188D01*
X161311820Y-80321498D01*
X161201506Y-80380463D01*
X161104815Y-80459815D01*
X161025463Y-80556506D01*
X160966498Y-80666820D01*
X160930188Y-80786518D01*
X160917928Y-80911000D01*
X160921000Y-81375250D01*
X161079750Y-81534000D01*
X162179000Y-81534000D01*
X162179000Y-81514000D01*
X162433000Y-81514000D01*
X162433000Y-81534000D01*
X162453000Y-81534000D01*
X162453000Y-81788000D01*
X162433000Y-81788000D01*
X162433000Y-81808000D01*
X162179000Y-81808000D01*
X162179000Y-81788000D01*
X161079750Y-81788000D01*
X160921000Y-81946750D01*
X160917928Y-82411000D01*
X160930188Y-82535482D01*
X160966498Y-82655180D01*
X161025463Y-82765494D01*
X161104815Y-82862185D01*
X161201506Y-82941537D01*
X161311820Y-83000502D01*
X161431518Y-83036812D01*
X161539483Y-83047445D01*
X161423114Y-83125201D01*
X161230201Y-83318114D01*
X161078629Y-83544957D01*
X160974225Y-83797011D01*
X160921000Y-84064589D01*
X160921000Y-84337411D01*
X160974225Y-84604989D01*
X161078629Y-84857043D01*
X161188487Y-85021456D01*
X147370515Y-98839428D01*
X147369000Y-98824044D01*
X147369000Y-94673608D01*
X147562505Y-94544312D01*
X147600120Y-94506697D01*
X147653463Y-94606494D01*
X147732815Y-94703185D01*
X147829506Y-94782537D01*
X147939820Y-94841502D01*
X148059518Y-94877812D01*
X148184000Y-94890072D01*
X149984000Y-94890072D01*
X150108482Y-94877812D01*
X150228180Y-94841502D01*
X150338494Y-94782537D01*
X150435185Y-94703185D01*
X150514537Y-94606494D01*
X150573502Y-94496180D01*
X150609812Y-94376482D01*
X150622072Y-94252000D01*
X150622072Y-92452000D01*
X150609812Y-92327518D01*
X150573502Y-92207820D01*
X150514537Y-92097506D01*
X150435185Y-92000815D01*
X150338494Y-91921463D01*
X150228180Y-91862498D01*
X150108482Y-91826188D01*
X149984000Y-91813928D01*
X148184000Y-91813928D01*
X148059518Y-91826188D01*
X147939820Y-91862498D01*
X147829506Y-91921463D01*
X147732815Y-92000815D01*
X147653463Y-92097506D01*
X147600120Y-92197303D01*
X147562505Y-92159688D01*
X147311095Y-91991701D01*
X147031743Y-91875989D01*
X146735184Y-91817000D01*
X146432816Y-91817000D01*
X146136257Y-91875989D01*
X145856905Y-91991701D01*
X145605495Y-92159688D01*
X145391688Y-92373495D01*
X145334000Y-92459831D01*
X145276312Y-92373495D01*
X145062505Y-92159688D01*
X144811095Y-91991701D01*
X144531743Y-91875989D01*
X144235184Y-91817000D01*
X143932816Y-91817000D01*
X143636257Y-91875989D01*
X143458908Y-91949450D01*
X140263657Y-88754200D01*
X147378147Y-88754200D01*
X147416700Y-88757997D01*
X147455253Y-88754200D01*
X147455261Y-88754200D01*
X147570587Y-88742841D01*
X147718560Y-88697954D01*
X147854933Y-88625062D01*
X147974464Y-88526964D01*
X147999047Y-88497010D01*
X149397958Y-87098100D01*
X149424739Y-87098100D01*
X149624698Y-87058326D01*
X149627169Y-87057302D01*
X149717193Y-87225725D01*
X149966498Y-87529503D01*
X150270276Y-87778807D01*
X150616854Y-87964057D01*
X150992913Y-88078133D01*
X151384000Y-88116652D01*
X151775088Y-88078133D01*
X152151147Y-87964057D01*
X152497725Y-87778807D01*
X152801503Y-87529503D01*
X153050807Y-87225725D01*
X153236057Y-86879147D01*
X153350133Y-86503087D01*
X153379000Y-86209997D01*
X153379000Y-85494002D01*
X153350133Y-85200912D01*
X153236057Y-84824853D01*
X153096200Y-84563200D01*
X154092154Y-84563200D01*
X154149795Y-84702356D01*
X154263063Y-84871874D01*
X154407226Y-85016037D01*
X154576744Y-85129305D01*
X154765102Y-85207326D01*
X154965061Y-85247100D01*
X155168939Y-85247100D01*
X155368898Y-85207326D01*
X155557256Y-85129305D01*
X155726774Y-85016037D01*
X155870937Y-84871874D01*
X155984205Y-84702356D01*
X156062226Y-84513998D01*
X156102000Y-84314039D01*
X156102000Y-84110161D01*
X156062226Y-83910202D01*
X155984205Y-83721844D01*
X155870937Y-83552326D01*
X155726774Y-83408163D01*
X155557256Y-83294895D01*
X155368898Y-83216874D01*
X155168939Y-83177100D01*
X155138060Y-83177100D01*
X155071333Y-83122338D01*
X154934960Y-83049446D01*
X154786987Y-83004559D01*
X154671661Y-82993200D01*
X154671653Y-82993200D01*
X154633100Y-82989403D01*
X154594547Y-82993200D01*
X138674655Y-82993200D01*
X138636100Y-82989403D01*
X138597544Y-82993200D01*
X138597539Y-82993200D01*
X138557126Y-82997180D01*
X138482213Y-83004558D01*
X138345600Y-83046000D01*
X138334240Y-83049446D01*
X138197867Y-83122338D01*
X138137659Y-83171750D01*
X138108287Y-83195855D01*
X138108284Y-83195858D01*
X138078336Y-83220436D01*
X138053758Y-83250384D01*
X133203190Y-88100953D01*
X133173236Y-88125536D01*
X133075138Y-88245068D01*
X133002246Y-88381441D01*
X132957359Y-88529414D01*
X132946000Y-88644740D01*
X132946000Y-88644747D01*
X132942203Y-88683300D01*
X132946000Y-88721853D01*
X132946001Y-93600795D01*
X132848114Y-93666201D01*
X132655201Y-93859114D01*
X132503629Y-94085957D01*
X132461000Y-94188873D01*
X132418371Y-94085957D01*
X132266799Y-93859114D01*
X132073886Y-93666201D01*
X131847043Y-93514629D01*
X131594989Y-93410225D01*
X131327411Y-93357000D01*
X131054589Y-93357000D01*
X130787011Y-93410225D01*
X130534957Y-93514629D01*
X130308114Y-93666201D01*
X130115201Y-93859114D01*
X130037445Y-93975483D01*
X130026812Y-93867518D01*
X129990502Y-93747820D01*
X129931537Y-93637506D01*
X129852185Y-93540815D01*
X129755494Y-93461463D01*
X129645180Y-93402498D01*
X129525482Y-93366188D01*
X129401000Y-93353928D01*
X128936750Y-93357000D01*
X128778000Y-93515750D01*
X128778000Y-94615000D01*
X128798000Y-94615000D01*
X128798000Y-94869000D01*
X128778000Y-94869000D01*
X128778000Y-95968250D01*
X128936750Y-96127000D01*
X129401000Y-96130072D01*
X129525482Y-96117812D01*
X129645180Y-96081502D01*
X129755494Y-96022537D01*
X129852185Y-95943185D01*
X129931537Y-95846494D01*
X129990502Y-95736180D01*
X130026812Y-95616482D01*
X130037445Y-95508517D01*
X130115201Y-95624886D01*
X130308114Y-95817799D01*
X130534957Y-95969371D01*
X130787011Y-96073775D01*
X131054589Y-96127000D01*
X131235842Y-96127000D01*
X128631185Y-98731658D01*
X128601237Y-98756236D01*
X128576659Y-98786184D01*
X128576655Y-98786188D01*
X128544137Y-98825812D01*
X128503139Y-98875767D01*
X128489566Y-98901161D01*
X128430246Y-99012141D01*
X128385359Y-99160114D01*
X128370203Y-99314000D01*
X128374001Y-99352563D01*
X128374000Y-108399661D01*
X128244241Y-108486363D01*
X128044363Y-108686241D01*
X127887320Y-108921273D01*
X127823107Y-109076297D01*
X127823107Y-96122400D01*
X127901000Y-96130072D01*
X128365250Y-96127000D01*
X128524000Y-95968250D01*
X128524000Y-94869000D01*
X128504000Y-94869000D01*
X128504000Y-94615000D01*
X128524000Y-94615000D01*
X128524000Y-93515750D01*
X128365250Y-93357000D01*
X127901000Y-93353928D01*
X127823107Y-93361600D01*
X127823107Y-82832264D01*
X128177967Y-83187125D01*
X128155000Y-83302589D01*
X128155000Y-83575411D01*
X128208225Y-83842989D01*
X128312629Y-84095043D01*
X128464201Y-84321886D01*
X128657114Y-84514799D01*
X128883957Y-84666371D01*
X128986873Y-84709000D01*
X128883957Y-84751629D01*
X128657114Y-84903201D01*
X128464201Y-85096114D01*
X128312629Y-85322957D01*
X128208225Y-85575011D01*
X128155000Y-85842589D01*
X128155000Y-86115411D01*
X128208225Y-86382989D01*
X128312629Y-86635043D01*
X128464201Y-86861886D01*
X128657114Y-87054799D01*
X128883957Y-87206371D01*
X129136011Y-87310775D01*
X129403589Y-87364000D01*
X129676411Y-87364000D01*
X129943989Y-87310775D01*
X130196043Y-87206371D01*
X130422886Y-87054799D01*
X130615799Y-86861886D01*
X130767371Y-86635043D01*
X130871775Y-86382989D01*
X130925000Y-86115411D01*
X130925000Y-85842589D01*
X130871775Y-85575011D01*
X130767371Y-85322957D01*
X130615799Y-85096114D01*
X130422886Y-84903201D01*
X130196043Y-84751629D01*
X130093127Y-84709000D01*
X130196043Y-84666371D01*
X130422886Y-84514799D01*
X130615799Y-84321886D01*
X130767371Y-84095043D01*
X130871775Y-83842989D01*
X130925000Y-83575411D01*
X130925000Y-83302589D01*
X130871775Y-83035011D01*
X130767371Y-82782957D01*
X130615799Y-82556114D01*
X130422886Y-82363201D01*
X130306517Y-82285445D01*
X130414482Y-82274812D01*
X130534180Y-82238502D01*
X130644494Y-82179537D01*
X130741185Y-82100185D01*
X130820537Y-82003494D01*
X130879502Y-81893180D01*
X130915812Y-81773482D01*
X130928072Y-81649000D01*
X130925000Y-81184750D01*
X130766250Y-81026000D01*
X129667000Y-81026000D01*
X129667000Y-81046000D01*
X129413000Y-81046000D01*
X129413000Y-81026000D01*
X129393000Y-81026000D01*
X129393000Y-80772000D01*
X129413000Y-80772000D01*
X129413000Y-80752000D01*
X129667000Y-80752000D01*
X129667000Y-80772000D01*
X130766250Y-80772000D01*
X130925000Y-80613250D01*
X130927181Y-80283600D01*
X141420347Y-80283600D01*
X141458900Y-80287397D01*
X141497453Y-80283600D01*
X141497461Y-80283600D01*
X141612787Y-80272241D01*
X141760760Y-80227354D01*
X141897133Y-80154462D01*
X142016664Y-80056364D01*
X142041247Y-80026410D01*
X143616086Y-78451571D01*
X143685295Y-78618656D01*
X143798563Y-78788174D01*
X143942726Y-78932337D01*
X144112244Y-79045605D01*
X144300602Y-79123626D01*
X144500561Y-79163400D01*
X144704439Y-79163400D01*
X144904398Y-79123626D01*
X145092756Y-79045605D01*
X145262274Y-78932337D01*
X145281211Y-78913400D01*
X147726047Y-78913400D01*
X147764600Y-78917197D01*
X147803153Y-78913400D01*
X147803161Y-78913400D01*
X147918487Y-78902041D01*
X148066460Y-78857154D01*
X148202833Y-78784262D01*
X148322364Y-78686164D01*
X148346947Y-78656210D01*
X150327603Y-76675554D01*
X150480665Y-76706000D01*
X150763335Y-76706000D01*
X151040574Y-76650853D01*
X151301727Y-76542680D01*
X151536759Y-76385637D01*
X151736637Y-76185759D01*
X151893680Y-75950727D01*
X152001853Y-75689574D01*
X152057000Y-75412335D01*
X152057000Y-75129665D01*
X152001853Y-74852426D01*
X151893680Y-74591273D01*
X151736637Y-74356241D01*
X151536759Y-74156363D01*
X151536665Y-74156300D01*
X156725143Y-74156300D01*
X158757842Y-76189000D01*
G37*
%TD.AperFunction*%
D24*
X136532498Y-89817180D02*
X136591463Y-89927494D01*
X136670815Y-90024185D01*
X136767506Y-90103537D01*
X136877820Y-90162502D01*
X136997518Y-90198812D01*
X137122000Y-90211072D01*
X138722000Y-90211072D01*
X138846482Y-90198812D01*
X138966180Y-90162502D01*
X139076494Y-90103537D01*
X139173185Y-90024185D01*
X139236355Y-89947212D01*
X141166247Y-91877105D01*
X141144544Y-91886095D01*
X140975026Y-91999363D01*
X140830863Y-92143526D01*
X140717595Y-92313044D01*
X140639574Y-92501402D01*
X140599800Y-92701361D01*
X140599800Y-92728143D01*
X132393090Y-100934853D01*
X132363136Y-100959436D01*
X132265038Y-101078968D01*
X132192146Y-101215341D01*
X132147259Y-101363314D01*
X132135900Y-101478640D01*
X132135900Y-101478647D01*
X132132103Y-101517200D01*
X132135900Y-101555753D01*
X132135901Y-108245307D01*
X132077574Y-108221147D01*
X131800335Y-108166000D01*
X131517665Y-108166000D01*
X131240426Y-108221147D01*
X130979273Y-108329320D01*
X130744241Y-108486363D01*
X130544363Y-108686241D01*
X130409000Y-108888827D01*
X130273637Y-108686241D01*
X130073759Y-108486363D01*
X129944000Y-108399661D01*
X129944000Y-99639157D01*
X133479125Y-96104033D01*
X133594589Y-96127000D01*
X133867411Y-96127000D01*
X134134989Y-96073775D01*
X134387043Y-95969371D01*
X134613886Y-95817799D01*
X134806799Y-95624886D01*
X134958371Y-95398043D01*
X135062775Y-95145989D01*
X135116000Y-94878411D01*
X135116000Y-94605589D01*
X135062775Y-94338011D01*
X134958371Y-94085957D01*
X134806799Y-93859114D01*
X134613886Y-93666201D01*
X134516000Y-93600796D01*
X134516000Y-89893490D01*
X134742273Y-90044680D01*
X135003426Y-90152853D01*
X135280665Y-90208000D01*
X135563335Y-90208000D01*
X135840574Y-90152853D01*
X136101727Y-90044680D01*
X136336759Y-89887637D01*
X136503339Y-89721057D01*
X136532498Y-89817180D01*
%TA.AperFunction,Conductor*%
D25*
G36*
X136532498Y-89817180D02*
G01*
X136591463Y-89927494D01*
X136670815Y-90024185D01*
X136767506Y-90103537D01*
X136877820Y-90162502D01*
X136997518Y-90198812D01*
X137122000Y-90211072D01*
X138722000Y-90211072D01*
X138846482Y-90198812D01*
X138966180Y-90162502D01*
X139076494Y-90103537D01*
X139173185Y-90024185D01*
X139236355Y-89947212D01*
X141166247Y-91877105D01*
X141144544Y-91886095D01*
X140975026Y-91999363D01*
X140830863Y-92143526D01*
X140717595Y-92313044D01*
X140639574Y-92501402D01*
X140599800Y-92701361D01*
X140599800Y-92728143D01*
X132393090Y-100934853D01*
X132363136Y-100959436D01*
X132265038Y-101078968D01*
X132192146Y-101215341D01*
X132147259Y-101363314D01*
X132135900Y-101478640D01*
X132135900Y-101478647D01*
X132132103Y-101517200D01*
X132135900Y-101555753D01*
X132135901Y-108245307D01*
X132077574Y-108221147D01*
X131800335Y-108166000D01*
X131517665Y-108166000D01*
X131240426Y-108221147D01*
X130979273Y-108329320D01*
X130744241Y-108486363D01*
X130544363Y-108686241D01*
X130409000Y-108888827D01*
X130273637Y-108686241D01*
X130073759Y-108486363D01*
X129944000Y-108399661D01*
X129944000Y-99639157D01*
X133479125Y-96104033D01*
X133594589Y-96127000D01*
X133867411Y-96127000D01*
X134134989Y-96073775D01*
X134387043Y-95969371D01*
X134613886Y-95817799D01*
X134806799Y-95624886D01*
X134958371Y-95398043D01*
X135062775Y-95145989D01*
X135116000Y-94878411D01*
X135116000Y-94605589D01*
X135062775Y-94338011D01*
X134958371Y-94085957D01*
X134806799Y-93859114D01*
X134613886Y-93666201D01*
X134516000Y-93600796D01*
X134516000Y-89893490D01*
X134742273Y-90044680D01*
X135003426Y-90152853D01*
X135280665Y-90208000D01*
X135563335Y-90208000D01*
X135840574Y-90152853D01*
X136101727Y-90044680D01*
X136336759Y-89887637D01*
X136503339Y-89721057D01*
X136532498Y-89817180D01*
G37*
%TD.AperFunction*%
D24*
X142549000Y-93503184D02*
X142607989Y-93799743D01*
X142723701Y-94079095D01*
X142891688Y-94330505D01*
X143105495Y-94544312D01*
X143356905Y-94712299D01*
X143636257Y-94828011D01*
X143932816Y-94887000D01*
X144235184Y-94887000D01*
X144531743Y-94828011D01*
X144811095Y-94712299D01*
X145062505Y-94544312D01*
X145276312Y-94330505D01*
X145334000Y-94244169D01*
X145391688Y-94330505D01*
X145605495Y-94544312D01*
X145799000Y-94673608D01*
X145799001Y-98537442D01*
X143938843Y-100397600D01*
X143912061Y-100397600D01*
X143712102Y-100437374D01*
X143676485Y-100452127D01*
X143636057Y-100318853D01*
X143450807Y-99972275D01*
X143201503Y-99668497D01*
X142897725Y-99419193D01*
X142551146Y-99233943D01*
X142175087Y-99119867D01*
X141784000Y-99081348D01*
X141392912Y-99119867D01*
X141016853Y-99233943D01*
X140670275Y-99419193D01*
X140623500Y-99457580D01*
X140623500Y-96174857D01*
X141026457Y-95771900D01*
X141053239Y-95771900D01*
X141253198Y-95732126D01*
X141441556Y-95654105D01*
X141611074Y-95540837D01*
X141755237Y-95396674D01*
X141868505Y-95227156D01*
X141946526Y-95038798D01*
X141986300Y-94838839D01*
X141986300Y-94634961D01*
X141946526Y-94435002D01*
X141868505Y-94246644D01*
X141755237Y-94077126D01*
X141613184Y-93935073D01*
X141709957Y-93838300D01*
X141736739Y-93838300D01*
X141936698Y-93798526D01*
X142125056Y-93720505D01*
X142294574Y-93607237D01*
X142438737Y-93463074D01*
X142549000Y-93298053D01*
X142549000Y-93503184D01*
%TA.AperFunction,Conductor*%
D25*
G36*
X142549000Y-93503184D02*
G01*
X142607989Y-93799743D01*
X142723701Y-94079095D01*
X142891688Y-94330505D01*
X143105495Y-94544312D01*
X143356905Y-94712299D01*
X143636257Y-94828011D01*
X143932816Y-94887000D01*
X144235184Y-94887000D01*
X144531743Y-94828011D01*
X144811095Y-94712299D01*
X145062505Y-94544312D01*
X145276312Y-94330505D01*
X145334000Y-94244169D01*
X145391688Y-94330505D01*
X145605495Y-94544312D01*
X145799000Y-94673608D01*
X145799001Y-98537442D01*
X143938843Y-100397600D01*
X143912061Y-100397600D01*
X143712102Y-100437374D01*
X143676485Y-100452127D01*
X143636057Y-100318853D01*
X143450807Y-99972275D01*
X143201503Y-99668497D01*
X142897725Y-99419193D01*
X142551146Y-99233943D01*
X142175087Y-99119867D01*
X141784000Y-99081348D01*
X141392912Y-99119867D01*
X141016853Y-99233943D01*
X140670275Y-99419193D01*
X140623500Y-99457580D01*
X140623500Y-96174857D01*
X141026457Y-95771900D01*
X141053239Y-95771900D01*
X141253198Y-95732126D01*
X141441556Y-95654105D01*
X141611074Y-95540837D01*
X141755237Y-95396674D01*
X141868505Y-95227156D01*
X141946526Y-95038798D01*
X141986300Y-94838839D01*
X141986300Y-94634961D01*
X141946526Y-94435002D01*
X141868505Y-94246644D01*
X141755237Y-94077126D01*
X141613184Y-93935073D01*
X141709957Y-93838300D01*
X141736739Y-93838300D01*
X141936698Y-93798526D01*
X142125056Y-93720505D01*
X142294574Y-93607237D01*
X142438737Y-93463074D01*
X142549000Y-93298053D01*
X142549000Y-93503184D01*
G37*
%TD.AperFunction*%
D24*
X139931943Y-84824854D02*
X139817867Y-85200913D01*
X139789000Y-85494003D01*
X139789000Y-86209998D01*
X139817867Y-86503088D01*
X139908720Y-86802590D01*
X139892360Y-86793846D01*
X139744387Y-86748959D01*
X139629061Y-86737600D01*
X139629053Y-86737600D01*
X139590500Y-86733803D01*
X139551947Y-86737600D01*
X136786858Y-86737600D01*
X138961258Y-84563200D01*
X140071800Y-84563200D01*
X139931943Y-84824854D01*
%TA.AperFunction,Conductor*%
D25*
G36*
X139931943Y-84824854D02*
G01*
X139817867Y-85200913D01*
X139789000Y-85494003D01*
X139789000Y-86209998D01*
X139817867Y-86503088D01*
X139908720Y-86802590D01*
X139892360Y-86793846D01*
X139744387Y-86748959D01*
X139629061Y-86737600D01*
X139629053Y-86737600D01*
X139590500Y-86733803D01*
X139551947Y-86737600D01*
X136786858Y-86737600D01*
X138961258Y-84563200D01*
X140071800Y-84563200D01*
X139931943Y-84824854D01*
G37*
%TD.AperFunction*%
D24*
X164795008Y-64338104D02*
X164857247Y-64363908D01*
X164910997Y-64405174D01*
X164952174Y-64458816D01*
X164977939Y-64520972D01*
X164993108Y-64636182D01*
X164993108Y-68441947D01*
X164816725Y-68297193D01*
X164470146Y-68111943D01*
X164094087Y-67997867D01*
X163703000Y-67959348D01*
X163311912Y-67997867D01*
X162935853Y-68111943D01*
X162589275Y-68297193D01*
X162285497Y-68546497D01*
X162036193Y-68850275D01*
X161850943Y-69196854D01*
X161736867Y-69572913D01*
X161708000Y-69866003D01*
X161708000Y-70581998D01*
X161736867Y-70875088D01*
X161850943Y-71251147D01*
X162036193Y-71597725D01*
X162285498Y-71901503D01*
X162589276Y-72150807D01*
X162935854Y-72336057D01*
X163311913Y-72450133D01*
X163703000Y-72488652D01*
X164094088Y-72450133D01*
X164470147Y-72336057D01*
X164816725Y-72150807D01*
X164993108Y-72006053D01*
X164993108Y-77761651D01*
X164977850Y-77743059D01*
X164953745Y-77713687D01*
X164953742Y-77713684D01*
X164929164Y-77683736D01*
X164899216Y-77659158D01*
X159183045Y-71942988D01*
X159158464Y-71913036D01*
X159038933Y-71814938D01*
X158902560Y-71742046D01*
X158754587Y-71697159D01*
X158639261Y-71685800D01*
X158639253Y-71685800D01*
X158600700Y-71682003D01*
X158562147Y-71685800D01*
X155697526Y-71685800D01*
X155769807Y-71597725D01*
X155955057Y-71251147D01*
X156069133Y-70875087D01*
X156098000Y-70581997D01*
X156098000Y-69866002D01*
X156069133Y-69572912D01*
X155955057Y-69196853D01*
X155769807Y-68850275D01*
X155520503Y-68546497D01*
X155216725Y-68297193D01*
X154870146Y-68111943D01*
X154494087Y-67997867D01*
X154103000Y-67959348D01*
X153711912Y-67997867D01*
X153335853Y-68111943D01*
X152989275Y-68297193D01*
X152685497Y-68546497D01*
X152436193Y-68850275D01*
X152250943Y-69196854D01*
X152136867Y-69572913D01*
X152108000Y-69866003D01*
X152108000Y-70581998D01*
X152136867Y-70875088D01*
X152200363Y-71084406D01*
X150951742Y-69835785D01*
X151167574Y-69792853D01*
X151428727Y-69684680D01*
X151663759Y-69527637D01*
X151863637Y-69327759D01*
X152020680Y-69092727D01*
X152128853Y-68831574D01*
X152184000Y-68554335D01*
X152184000Y-68271665D01*
X152128853Y-67994426D01*
X152020680Y-67733273D01*
X151863637Y-67498241D01*
X151663759Y-67298363D01*
X151461173Y-67163000D01*
X151663759Y-67027637D01*
X151863637Y-66827759D01*
X152020680Y-66592727D01*
X152128853Y-66331574D01*
X152184000Y-66054335D01*
X152184000Y-65771665D01*
X152128853Y-65494426D01*
X152020680Y-65233273D01*
X151863637Y-64998241D01*
X151663759Y-64798363D01*
X151428727Y-64641320D01*
X151167574Y-64533147D01*
X150890335Y-64478000D01*
X150607665Y-64478000D01*
X150330426Y-64533147D01*
X150069273Y-64641320D01*
X149834241Y-64798363D01*
X149634363Y-64998241D01*
X149477320Y-65233273D01*
X149369147Y-65494426D01*
X149314000Y-65771665D01*
X149314000Y-66054335D01*
X149369147Y-66331574D01*
X149477320Y-66592727D01*
X149634363Y-66827759D01*
X149834241Y-67027637D01*
X150036827Y-67163000D01*
X149834241Y-67298363D01*
X149634363Y-67498241D01*
X149477320Y-67733273D01*
X149369147Y-67994426D01*
X149326215Y-68210258D01*
X147517147Y-66401190D01*
X147492564Y-66371236D01*
X147373033Y-66273138D01*
X147236660Y-66200246D01*
X147088687Y-66155359D01*
X146973361Y-66144000D01*
X146973353Y-66144000D01*
X146934800Y-66140203D01*
X146896247Y-66144000D01*
X145964072Y-66144000D01*
X145964072Y-66129000D01*
X145951812Y-66004518D01*
X145915502Y-65884820D01*
X145856537Y-65774506D01*
X145777185Y-65677815D01*
X145680494Y-65598463D01*
X145570180Y-65539498D01*
X145450482Y-65503188D01*
X145326000Y-65490928D01*
X143726000Y-65490928D01*
X143601518Y-65503188D01*
X143481820Y-65539498D01*
X143371506Y-65598463D01*
X143274815Y-65677815D01*
X143261210Y-65694393D01*
X143205727Y-65657320D01*
X142944574Y-65549147D01*
X142667335Y-65494000D01*
X142384665Y-65494000D01*
X142107426Y-65549147D01*
X141846273Y-65657320D01*
X141611241Y-65814363D01*
X141411363Y-66014241D01*
X141254320Y-66249273D01*
X141146147Y-66510426D01*
X141091000Y-66787665D01*
X141091000Y-67070335D01*
X141146147Y-67347574D01*
X141254320Y-67608727D01*
X141411363Y-67843759D01*
X141611241Y-68043637D01*
X141846273Y-68200680D01*
X142107426Y-68308853D01*
X142384665Y-68364000D01*
X142667335Y-68364000D01*
X142944574Y-68308853D01*
X143205727Y-68200680D01*
X143261210Y-68163607D01*
X143274815Y-68180185D01*
X143371506Y-68259537D01*
X143481820Y-68318502D01*
X143601518Y-68354812D01*
X143726000Y-68367072D01*
X145326000Y-68367072D01*
X145450482Y-68354812D01*
X145570180Y-68318502D01*
X145680494Y-68259537D01*
X145777185Y-68180185D01*
X145856537Y-68083494D01*
X145915502Y-67973180D01*
X145951812Y-67853482D01*
X145964072Y-67729000D01*
X145964072Y-67714000D01*
X146609643Y-67714000D01*
X150272959Y-71377316D01*
X150203426Y-71391147D01*
X149942273Y-71499320D01*
X149707241Y-71656363D01*
X149507363Y-71856241D01*
X149350320Y-72091273D01*
X149242147Y-72352426D01*
X149187000Y-72629665D01*
X149187000Y-72912335D01*
X149242147Y-73189574D01*
X149350320Y-73450727D01*
X149507363Y-73685759D01*
X149707241Y-73885637D01*
X149909827Y-74021000D01*
X149707241Y-74156363D01*
X149507363Y-74356241D01*
X149350320Y-74591273D01*
X149242147Y-74852426D01*
X149187000Y-75129665D01*
X149187000Y-75412335D01*
X149217446Y-75565397D01*
X147439443Y-77343400D01*
X145281211Y-77343400D01*
X145262274Y-77324463D01*
X145092756Y-77211195D01*
X144904398Y-77133174D01*
X144709654Y-77094437D01*
X144684226Y-76966602D01*
X144606205Y-76778244D01*
X144492937Y-76608726D01*
X144348774Y-76464563D01*
X144179256Y-76351295D01*
X143990898Y-76273274D01*
X143790939Y-76233500D01*
X143587061Y-76233500D01*
X143387102Y-76273274D01*
X143198744Y-76351295D01*
X143029226Y-76464563D01*
X142885063Y-76608726D01*
X142771795Y-76778244D01*
X142693774Y-76966602D01*
X142654000Y-77166561D01*
X142654000Y-77193343D01*
X141133743Y-78713600D01*
X137988247Y-78713600D01*
X137997072Y-78624000D01*
X137997072Y-76824000D01*
X137984812Y-76699518D01*
X137948502Y-76579820D01*
X137889537Y-76469506D01*
X137810185Y-76372815D01*
X137713494Y-76293463D01*
X137603180Y-76234498D01*
X137483482Y-76198188D01*
X137359000Y-76185928D01*
X135559000Y-76185928D01*
X135434518Y-76198188D01*
X135314820Y-76234498D01*
X135204506Y-76293463D01*
X135107815Y-76372815D01*
X135028463Y-76469506D01*
X134975120Y-76569303D01*
X134937505Y-76531688D01*
X134686095Y-76363701D01*
X134406743Y-76247989D01*
X134110184Y-76189000D01*
X133807816Y-76189000D01*
X133511257Y-76247989D01*
X133231905Y-76363701D01*
X132980495Y-76531688D01*
X132766688Y-76745495D01*
X132709000Y-76831831D01*
X132651312Y-76745495D01*
X132437505Y-76531688D01*
X132186095Y-76363701D01*
X131906743Y-76247989D01*
X131610184Y-76189000D01*
X131307816Y-76189000D01*
X131011257Y-76247989D01*
X130731905Y-76363701D01*
X130480495Y-76531688D01*
X130266688Y-76745495D01*
X130098701Y-76996905D01*
X129982989Y-77276257D01*
X129924000Y-77572816D01*
X129924000Y-77875184D01*
X129982989Y-78171743D01*
X130098701Y-78451095D01*
X130266688Y-78702505D01*
X130277783Y-78713600D01*
X128495652Y-78713600D01*
X128457099Y-78709803D01*
X128418546Y-78713600D01*
X128418539Y-78713600D01*
X128317590Y-78723543D01*
X128303212Y-78724959D01*
X128268772Y-78735406D01*
X128155240Y-78769846D01*
X128018867Y-78842738D01*
X127899336Y-78940836D01*
X127874755Y-78970788D01*
X127823107Y-79022436D01*
X127823107Y-71968478D01*
X128045276Y-72150807D01*
X128391854Y-72336057D01*
X128767913Y-72450133D01*
X129159000Y-72488652D01*
X129550088Y-72450133D01*
X129926147Y-72336057D01*
X130272725Y-72150807D01*
X130576503Y-71901503D01*
X130825807Y-71597725D01*
X131011057Y-71251147D01*
X131125133Y-70875087D01*
X131154000Y-70581997D01*
X131154000Y-69866003D01*
X136764000Y-69866003D01*
X136764000Y-70581998D01*
X136792867Y-70875088D01*
X136906943Y-71251147D01*
X137092193Y-71597725D01*
X137341498Y-71901503D01*
X137645276Y-72150807D01*
X137991854Y-72336057D01*
X138367913Y-72450133D01*
X138759000Y-72488652D01*
X139150088Y-72450133D01*
X139526147Y-72336057D01*
X139872725Y-72150807D01*
X140176503Y-71901503D01*
X140425807Y-71597725D01*
X140611057Y-71251147D01*
X140725133Y-70875087D01*
X140754000Y-70581997D01*
X140754000Y-69866002D01*
X140725133Y-69572912D01*
X140611057Y-69196853D01*
X140425807Y-68850275D01*
X140176503Y-68546497D01*
X139872725Y-68297193D01*
X139526146Y-68111943D01*
X139150087Y-67997867D01*
X138759000Y-67959348D01*
X138367912Y-67997867D01*
X137991853Y-68111943D01*
X137645275Y-68297193D01*
X137341497Y-68546497D01*
X137092193Y-68850275D01*
X136906943Y-69196854D01*
X136792867Y-69572913D01*
X136764000Y-69866003D01*
X131154000Y-69866003D01*
X131154000Y-69866002D01*
X131125133Y-69572912D01*
X131011057Y-69196853D01*
X130825807Y-68850275D01*
X130576503Y-68546497D01*
X130272725Y-68297193D01*
X129926146Y-68111943D01*
X129550087Y-67997867D01*
X129159000Y-67959348D01*
X128767912Y-67997867D01*
X128391853Y-68111943D01*
X128045275Y-68297193D01*
X127823107Y-68479521D01*
X127823107Y-64636138D01*
X127838263Y-64520939D01*
X127864006Y-64458836D01*
X127905191Y-64405190D01*
X127958968Y-64363905D01*
X128021193Y-64338105D01*
X128136174Y-64323000D01*
X164680036Y-64323000D01*
X164795008Y-64338104D01*
%TA.AperFunction,Conductor*%
D25*
G36*
X164795008Y-64338104D02*
G01*
X164857247Y-64363908D01*
X164910997Y-64405174D01*
X164952174Y-64458816D01*
X164977939Y-64520972D01*
X164993108Y-64636182D01*
X164993108Y-68441947D01*
X164816725Y-68297193D01*
X164470146Y-68111943D01*
X164094087Y-67997867D01*
X163703000Y-67959348D01*
X163311912Y-67997867D01*
X162935853Y-68111943D01*
X162589275Y-68297193D01*
X162285497Y-68546497D01*
X162036193Y-68850275D01*
X161850943Y-69196854D01*
X161736867Y-69572913D01*
X161708000Y-69866003D01*
X161708000Y-70581998D01*
X161736867Y-70875088D01*
X161850943Y-71251147D01*
X162036193Y-71597725D01*
X162285498Y-71901503D01*
X162589276Y-72150807D01*
X162935854Y-72336057D01*
X163311913Y-72450133D01*
X163703000Y-72488652D01*
X164094088Y-72450133D01*
X164470147Y-72336057D01*
X164816725Y-72150807D01*
X164993108Y-72006053D01*
X164993108Y-77761651D01*
X164977850Y-77743059D01*
X164953745Y-77713687D01*
X164953742Y-77713684D01*
X164929164Y-77683736D01*
X164899216Y-77659158D01*
X159183045Y-71942988D01*
X159158464Y-71913036D01*
X159038933Y-71814938D01*
X158902560Y-71742046D01*
X158754587Y-71697159D01*
X158639261Y-71685800D01*
X158639253Y-71685800D01*
X158600700Y-71682003D01*
X158562147Y-71685800D01*
X155697526Y-71685800D01*
X155769807Y-71597725D01*
X155955057Y-71251147D01*
X156069133Y-70875087D01*
X156098000Y-70581997D01*
X156098000Y-69866002D01*
X156069133Y-69572912D01*
X155955057Y-69196853D01*
X155769807Y-68850275D01*
X155520503Y-68546497D01*
X155216725Y-68297193D01*
X154870146Y-68111943D01*
X154494087Y-67997867D01*
X154103000Y-67959348D01*
X153711912Y-67997867D01*
X153335853Y-68111943D01*
X152989275Y-68297193D01*
X152685497Y-68546497D01*
X152436193Y-68850275D01*
X152250943Y-69196854D01*
X152136867Y-69572913D01*
X152108000Y-69866003D01*
X152108000Y-70581998D01*
X152136867Y-70875088D01*
X152200363Y-71084406D01*
X150951742Y-69835785D01*
X151167574Y-69792853D01*
X151428727Y-69684680D01*
X151663759Y-69527637D01*
X151863637Y-69327759D01*
X152020680Y-69092727D01*
X152128853Y-68831574D01*
X152184000Y-68554335D01*
X152184000Y-68271665D01*
X152128853Y-67994426D01*
X152020680Y-67733273D01*
X151863637Y-67498241D01*
X151663759Y-67298363D01*
X151461173Y-67163000D01*
X151663759Y-67027637D01*
X151863637Y-66827759D01*
X152020680Y-66592727D01*
X152128853Y-66331574D01*
X152184000Y-66054335D01*
X152184000Y-65771665D01*
X152128853Y-65494426D01*
X152020680Y-65233273D01*
X151863637Y-64998241D01*
X151663759Y-64798363D01*
X151428727Y-64641320D01*
X151167574Y-64533147D01*
X150890335Y-64478000D01*
X150607665Y-64478000D01*
X150330426Y-64533147D01*
X150069273Y-64641320D01*
X149834241Y-64798363D01*
X149634363Y-64998241D01*
X149477320Y-65233273D01*
X149369147Y-65494426D01*
X149314000Y-65771665D01*
X149314000Y-66054335D01*
X149369147Y-66331574D01*
X149477320Y-66592727D01*
X149634363Y-66827759D01*
X149834241Y-67027637D01*
X150036827Y-67163000D01*
X149834241Y-67298363D01*
X149634363Y-67498241D01*
X149477320Y-67733273D01*
X149369147Y-67994426D01*
X149326215Y-68210258D01*
X147517147Y-66401190D01*
X147492564Y-66371236D01*
X147373033Y-66273138D01*
X147236660Y-66200246D01*
X147088687Y-66155359D01*
X146973361Y-66144000D01*
X146973353Y-66144000D01*
X146934800Y-66140203D01*
X146896247Y-66144000D01*
X145964072Y-66144000D01*
X145964072Y-66129000D01*
X145951812Y-66004518D01*
X145915502Y-65884820D01*
X145856537Y-65774506D01*
X145777185Y-65677815D01*
X145680494Y-65598463D01*
X145570180Y-65539498D01*
X145450482Y-65503188D01*
X145326000Y-65490928D01*
X143726000Y-65490928D01*
X143601518Y-65503188D01*
X143481820Y-65539498D01*
X143371506Y-65598463D01*
X143274815Y-65677815D01*
X143261210Y-65694393D01*
X143205727Y-65657320D01*
X142944574Y-65549147D01*
X142667335Y-65494000D01*
X142384665Y-65494000D01*
X142107426Y-65549147D01*
X141846273Y-65657320D01*
X141611241Y-65814363D01*
X141411363Y-66014241D01*
X141254320Y-66249273D01*
X141146147Y-66510426D01*
X141091000Y-66787665D01*
X141091000Y-67070335D01*
X141146147Y-67347574D01*
X141254320Y-67608727D01*
X141411363Y-67843759D01*
X141611241Y-68043637D01*
X141846273Y-68200680D01*
X142107426Y-68308853D01*
X142384665Y-68364000D01*
X142667335Y-68364000D01*
X142944574Y-68308853D01*
X143205727Y-68200680D01*
X143261210Y-68163607D01*
X143274815Y-68180185D01*
X143371506Y-68259537D01*
X143481820Y-68318502D01*
X143601518Y-68354812D01*
X143726000Y-68367072D01*
X145326000Y-68367072D01*
X145450482Y-68354812D01*
X145570180Y-68318502D01*
X145680494Y-68259537D01*
X145777185Y-68180185D01*
X145856537Y-68083494D01*
X145915502Y-67973180D01*
X145951812Y-67853482D01*
X145964072Y-67729000D01*
X145964072Y-67714000D01*
X146609643Y-67714000D01*
X150272959Y-71377316D01*
X150203426Y-71391147D01*
X149942273Y-71499320D01*
X149707241Y-71656363D01*
X149507363Y-71856241D01*
X149350320Y-72091273D01*
X149242147Y-72352426D01*
X149187000Y-72629665D01*
X149187000Y-72912335D01*
X149242147Y-73189574D01*
X149350320Y-73450727D01*
X149507363Y-73685759D01*
X149707241Y-73885637D01*
X149909827Y-74021000D01*
X149707241Y-74156363D01*
X149507363Y-74356241D01*
X149350320Y-74591273D01*
X149242147Y-74852426D01*
X149187000Y-75129665D01*
X149187000Y-75412335D01*
X149217446Y-75565397D01*
X147439443Y-77343400D01*
X145281211Y-77343400D01*
X145262274Y-77324463D01*
X145092756Y-77211195D01*
X144904398Y-77133174D01*
X144709654Y-77094437D01*
X144684226Y-76966602D01*
X144606205Y-76778244D01*
X144492937Y-76608726D01*
X144348774Y-76464563D01*
X144179256Y-76351295D01*
X143990898Y-76273274D01*
X143790939Y-76233500D01*
X143587061Y-76233500D01*
X143387102Y-76273274D01*
X143198744Y-76351295D01*
X143029226Y-76464563D01*
X142885063Y-76608726D01*
X142771795Y-76778244D01*
X142693774Y-76966602D01*
X142654000Y-77166561D01*
X142654000Y-77193343D01*
X141133743Y-78713600D01*
X137988247Y-78713600D01*
X137997072Y-78624000D01*
X137997072Y-76824000D01*
X137984812Y-76699518D01*
X137948502Y-76579820D01*
X137889537Y-76469506D01*
X137810185Y-76372815D01*
X137713494Y-76293463D01*
X137603180Y-76234498D01*
X137483482Y-76198188D01*
X137359000Y-76185928D01*
X135559000Y-76185928D01*
X135434518Y-76198188D01*
X135314820Y-76234498D01*
X135204506Y-76293463D01*
X135107815Y-76372815D01*
X135028463Y-76469506D01*
X134975120Y-76569303D01*
X134937505Y-76531688D01*
X134686095Y-76363701D01*
X134406743Y-76247989D01*
X134110184Y-76189000D01*
X133807816Y-76189000D01*
X133511257Y-76247989D01*
X133231905Y-76363701D01*
X132980495Y-76531688D01*
X132766688Y-76745495D01*
X132709000Y-76831831D01*
X132651312Y-76745495D01*
X132437505Y-76531688D01*
X132186095Y-76363701D01*
X131906743Y-76247989D01*
X131610184Y-76189000D01*
X131307816Y-76189000D01*
X131011257Y-76247989D01*
X130731905Y-76363701D01*
X130480495Y-76531688D01*
X130266688Y-76745495D01*
X130098701Y-76996905D01*
X129982989Y-77276257D01*
X129924000Y-77572816D01*
X129924000Y-77875184D01*
X129982989Y-78171743D01*
X130098701Y-78451095D01*
X130266688Y-78702505D01*
X130277783Y-78713600D01*
X128495652Y-78713600D01*
X128457099Y-78709803D01*
X128418546Y-78713600D01*
X128418539Y-78713600D01*
X128317590Y-78723543D01*
X128303212Y-78724959D01*
X128268772Y-78735406D01*
X128155240Y-78769846D01*
X128018867Y-78842738D01*
X127899336Y-78940836D01*
X127874755Y-78970788D01*
X127823107Y-79022436D01*
X127823107Y-71968478D01*
X128045276Y-72150807D01*
X128391854Y-72336057D01*
X128767913Y-72450133D01*
X129159000Y-72488652D01*
X129550088Y-72450133D01*
X129926147Y-72336057D01*
X130272725Y-72150807D01*
X130576503Y-71901503D01*
X130825807Y-71597725D01*
X131011057Y-71251147D01*
X131125133Y-70875087D01*
X131154000Y-70581997D01*
X131154000Y-69866003D01*
X136764000Y-69866003D01*
X136764000Y-70581998D01*
X136792867Y-70875088D01*
X136906943Y-71251147D01*
X137092193Y-71597725D01*
X137341498Y-71901503D01*
X137645276Y-72150807D01*
X137991854Y-72336057D01*
X138367913Y-72450133D01*
X138759000Y-72488652D01*
X139150088Y-72450133D01*
X139526147Y-72336057D01*
X139872725Y-72150807D01*
X140176503Y-71901503D01*
X140425807Y-71597725D01*
X140611057Y-71251147D01*
X140725133Y-70875087D01*
X140754000Y-70581997D01*
X140754000Y-69866002D01*
X140725133Y-69572912D01*
X140611057Y-69196853D01*
X140425807Y-68850275D01*
X140176503Y-68546497D01*
X139872725Y-68297193D01*
X139526146Y-68111943D01*
X139150087Y-67997867D01*
X138759000Y-67959348D01*
X138367912Y-67997867D01*
X137991853Y-68111943D01*
X137645275Y-68297193D01*
X137341497Y-68546497D01*
X137092193Y-68850275D01*
X136906943Y-69196854D01*
X136792867Y-69572913D01*
X136764000Y-69866003D01*
X131154000Y-69866003D01*
X131154000Y-69866002D01*
X131125133Y-69572912D01*
X131011057Y-69196853D01*
X130825807Y-68850275D01*
X130576503Y-68546497D01*
X130272725Y-68297193D01*
X129926146Y-68111943D01*
X129550087Y-67997867D01*
X129159000Y-67959348D01*
X128767912Y-67997867D01*
X128391853Y-68111943D01*
X128045275Y-68297193D01*
X127823107Y-68479521D01*
X127823107Y-64636138D01*
X127838263Y-64520939D01*
X127864006Y-64458836D01*
X127905191Y-64405190D01*
X127958968Y-64363905D01*
X128021193Y-64338105D01*
X128136174Y-64323000D01*
X164680036Y-64323000D01*
X164795008Y-64338104D01*
G37*
%TD.AperFunction*%
%TD*%
M02*
