%TF.GenerationSoftware,KiCad,Pcbnew,(5.1.9)-1*%
%TF.CreationDate,2021-08-15T07:19:13+01:00*%
%TF.ProjectId,8x8_Kick_Drum,3878385f-4b69-4636-9b5f-4472756d2e6b,rev?*%
%TF.SameCoordinates,Original*%
%TF.FileFunction,Soldermask,Bot*%
%TF.FilePolarity,Negative*%
%FSLAX46Y46*%
G04 Gerber Fmt 4.6, Leading zero omitted, Abs format (unit mm)*
G04 Created by KiCad (PCBNEW (5.1.9)-1) date 2021-08-15 07:19:13*
%MOMM*%
%LPD*%
G01*
G04 APERTURE LIST*
%ADD10C,1.600000*%
%ADD11R,1.600000X1.600000*%
%ADD12O,3.100000X2.300000*%
%ADD13O,2.400000X1.600000*%
%ADD14R,2.400000X1.600000*%
%ADD15O,2.720000X3.240000*%
%ADD16C,1.800000*%
%ADD17R,1.800000X1.800000*%
%ADD18R,1.500000X1.500000*%
%ADD19C,1.500000*%
%ADD20C,1.700000*%
G04 APERTURE END LIST*
D10*
%TO.C,C17*%
X140113000Y-167894000D03*
D11*
X142113000Y-167894000D03*
%TD*%
D10*
%TO.C,C13*%
X146844000Y-129159000D03*
D11*
X148844000Y-129159000D03*
%TD*%
D10*
%TO.C,C12*%
X142526000Y-66929000D03*
D11*
X144526000Y-66929000D03*
%TD*%
D10*
%TO.C,C3*%
X144272000Y-148169000D03*
D11*
X144272000Y-145669000D03*
%TD*%
D10*
%TO.C,C2*%
X143764000Y-139279000D03*
D11*
X143764000Y-136779000D03*
%TD*%
%TO.C,J4*%
G36*
G01*
X133634000Y-165795000D02*
X133634000Y-167095000D01*
G75*
G02*
X132984000Y-167745000I-650000J0D01*
G01*
X131684000Y-167745000D01*
G75*
G02*
X131034000Y-167095000I0J650000D01*
G01*
X131034000Y-165795000D01*
G75*
G02*
X131684000Y-165145000I650000J0D01*
G01*
X132984000Y-165145000D01*
G75*
G02*
X133634000Y-165795000I0J-650000D01*
G01*
G37*
D12*
X132334000Y-169545000D03*
G36*
G01*
X133634000Y-157495000D02*
X133634000Y-158795000D01*
G75*
G02*
X132984000Y-159445000I-650000J0D01*
G01*
X131684000Y-159445000D01*
G75*
G02*
X131034000Y-158795000I0J650000D01*
G01*
X131034000Y-157495000D01*
G75*
G02*
X131684000Y-156845000I650000J0D01*
G01*
X132984000Y-156845000D01*
G75*
G02*
X133634000Y-157495000I0J-650000D01*
G01*
G37*
%TD*%
%TO.C,J3*%
G36*
G01*
X151414000Y-165798000D02*
X151414000Y-167098000D01*
G75*
G02*
X150764000Y-167748000I-650000J0D01*
G01*
X149464000Y-167748000D01*
G75*
G02*
X148814000Y-167098000I0J650000D01*
G01*
X148814000Y-165798000D01*
G75*
G02*
X149464000Y-165148000I650000J0D01*
G01*
X150764000Y-165148000D01*
G75*
G02*
X151414000Y-165798000I0J-650000D01*
G01*
G37*
X150114000Y-169548000D03*
G36*
G01*
X151414000Y-157498000D02*
X151414000Y-158798000D01*
G75*
G02*
X150764000Y-159448000I-650000J0D01*
G01*
X149464000Y-159448000D01*
G75*
G02*
X148814000Y-158798000I0J650000D01*
G01*
X148814000Y-157498000D01*
G75*
G02*
X149464000Y-156848000I650000J0D01*
G01*
X150764000Y-156848000D01*
G75*
G02*
X151414000Y-157498000I0J-650000D01*
G01*
G37*
%TD*%
%TO.C,J2*%
G36*
G01*
X161701000Y-165765000D02*
X161701000Y-167065000D01*
G75*
G02*
X161051000Y-167715000I-650000J0D01*
G01*
X159751000Y-167715000D01*
G75*
G02*
X159101000Y-167065000I0J650000D01*
G01*
X159101000Y-165765000D01*
G75*
G02*
X159751000Y-165115000I650000J0D01*
G01*
X161051000Y-165115000D01*
G75*
G02*
X161701000Y-165765000I0J-650000D01*
G01*
G37*
X160401000Y-169515000D03*
G36*
G01*
X161701000Y-157465000D02*
X161701000Y-158765000D01*
G75*
G02*
X161051000Y-159415000I-650000J0D01*
G01*
X159751000Y-159415000D01*
G75*
G02*
X159101000Y-158765000I0J650000D01*
G01*
X159101000Y-157465000D01*
G75*
G02*
X159751000Y-156815000I650000J0D01*
G01*
X161051000Y-156815000D01*
G75*
G02*
X161701000Y-157465000I0J-650000D01*
G01*
G37*
%TD*%
D13*
%TO.C,U1*%
X137795000Y-125222000D03*
X130175000Y-132842000D03*
X137795000Y-127762000D03*
X130175000Y-130302000D03*
X137795000Y-130302000D03*
X130175000Y-127762000D03*
X137795000Y-132842000D03*
D14*
X130175000Y-125222000D03*
%TD*%
D15*
%TO.C,RV5*%
X151384000Y-101346000D03*
X141784000Y-101346000D03*
D16*
X144084000Y-108846000D03*
X146584000Y-108846000D03*
D17*
X149084000Y-108846000D03*
%TD*%
D15*
%TO.C,RV3*%
X151271000Y-116960000D03*
X141671000Y-116960000D03*
D16*
X143971000Y-124460000D03*
X146471000Y-124460000D03*
D17*
X148971000Y-124460000D03*
%TD*%
D15*
%TO.C,RV4*%
X151384000Y-85852000D03*
X141784000Y-85852000D03*
D16*
X144084000Y-93352000D03*
X146584000Y-93352000D03*
D17*
X149084000Y-93352000D03*
%TD*%
D15*
%TO.C,RV2*%
X138759000Y-70224000D03*
X129159000Y-70224000D03*
D16*
X131459000Y-77724000D03*
X133959000Y-77724000D03*
D17*
X136459000Y-77724000D03*
%TD*%
D15*
%TO.C,RV1*%
X163703000Y-70224000D03*
X154103000Y-70224000D03*
D16*
X156403000Y-77724000D03*
X158903000Y-77724000D03*
D17*
X161403000Y-77724000D03*
%TD*%
D18*
%TO.C,Q6*%
X128397000Y-152146000D03*
D19*
X133477000Y-152146000D03*
X130937000Y-152146000D03*
%TD*%
D18*
%TO.C,Q5*%
X162306000Y-81661000D03*
D19*
X162306000Y-86741000D03*
X162306000Y-84201000D03*
%TD*%
D18*
%TO.C,Q4*%
X128651000Y-94742000D03*
D19*
X133731000Y-94742000D03*
X131191000Y-94742000D03*
%TD*%
D18*
%TO.C,Q3*%
X162814000Y-107188000D03*
D19*
X162814000Y-102108000D03*
X162814000Y-104648000D03*
%TD*%
D18*
%TO.C,Q2*%
X163576000Y-120396000D03*
D19*
X163576000Y-115316000D03*
X163576000Y-117856000D03*
%TD*%
D18*
%TO.C,Q1*%
X129540000Y-80899000D03*
D19*
X129540000Y-85979000D03*
X129540000Y-83439000D03*
%TD*%
D20*
%TO.C,J1*%
X159131000Y-136398000D03*
X159131000Y-138938000D03*
X159131000Y-141478000D03*
X159131000Y-144018000D03*
X159131000Y-146558000D03*
X161671000Y-136398000D03*
X161671000Y-138938000D03*
X161671000Y-141478000D03*
X161671000Y-144018000D03*
G36*
G01*
X162521000Y-145958000D02*
X162521000Y-147158000D01*
G75*
G02*
X162271000Y-147408000I-250000J0D01*
G01*
X161071000Y-147408000D01*
G75*
G02*
X160821000Y-147158000I0J250000D01*
G01*
X160821000Y-145958000D01*
G75*
G02*
X161071000Y-145708000I250000J0D01*
G01*
X162271000Y-145708000D01*
G75*
G02*
X162521000Y-145958000I0J-250000D01*
G01*
G37*
%TD*%
D10*
%TO.C,C18*%
X141692000Y-161925000D03*
X139192000Y-161925000D03*
%TD*%
%TO.C,C14*%
X135422000Y-88773000D03*
D11*
X137922000Y-88773000D03*
%TD*%
D10*
%TO.C,C10*%
X150622000Y-75271000D03*
X150622000Y-72771000D03*
%TD*%
%TO.C,C9*%
X150749000Y-68413000D03*
X150749000Y-65913000D03*
%TD*%
%TO.C,C8*%
X131659000Y-109601000D03*
X129159000Y-109601000D03*
%TD*%
%TO.C,C7*%
X155615000Y-98298000D03*
X158115000Y-98298000D03*
%TD*%
M02*
