%TF.GenerationSoftware,KiCad,Pcbnew,(5.1.9)-1*%
%TF.CreationDate,2021-08-15T07:19:13+01:00*%
%TF.ProjectId,8x8_Kick_Drum,3878385f-4b69-4636-9b5f-4472756d2e6b,rev?*%
%TF.SameCoordinates,Original*%
%TF.FileFunction,Other,User*%
%FSLAX46Y46*%
G04 Gerber Fmt 4.6, Leading zero omitted, Abs format (unit mm)*
G04 Created by KiCad (PCBNEW (5.1.9)-1) date 2021-08-15 07:19:13*
%MOMM*%
%LPD*%
G01*
G04 APERTURE LIST*
%ADD10C,0.050000*%
G04 APERTURE END LIST*
D10*
%TO.C,J4*%
X137334000Y-170645000D02*
X127334000Y-170645000D01*
X137334000Y-155815000D02*
X127334000Y-155815000D01*
X137334000Y-155815000D02*
X137334000Y-170645000D01*
X127334000Y-155815000D02*
X127334000Y-170645000D01*
%TO.C,J3*%
X155114000Y-170648000D02*
X145114000Y-170648000D01*
X155114000Y-155818000D02*
X145114000Y-155818000D01*
X155114000Y-155818000D02*
X155114000Y-170648000D01*
X145114000Y-155818000D02*
X145114000Y-170648000D01*
%TO.C,J2*%
X165401000Y-170615000D02*
X155401000Y-170615000D01*
X165401000Y-155785000D02*
X155401000Y-155785000D01*
X165401000Y-155785000D02*
X165401000Y-170615000D01*
X155401000Y-155785000D02*
X155401000Y-170615000D01*
%TO.C,RV5*%
X140174000Y-109996000D02*
X140174000Y-96246000D01*
X152994000Y-109996000D02*
X140174000Y-109996000D01*
X152994000Y-96246000D02*
X152994000Y-109996000D01*
X140174000Y-96246000D02*
X152994000Y-96246000D01*
%TO.C,RV3*%
X140061000Y-125610000D02*
X140061000Y-111860000D01*
X152881000Y-125610000D02*
X140061000Y-125610000D01*
X152881000Y-111860000D02*
X152881000Y-125610000D01*
X140061000Y-111860000D02*
X152881000Y-111860000D01*
%TO.C,RV4*%
X140174000Y-94502000D02*
X140174000Y-80752000D01*
X152994000Y-94502000D02*
X140174000Y-94502000D01*
X152994000Y-80752000D02*
X152994000Y-94502000D01*
X140174000Y-80752000D02*
X152994000Y-80752000D01*
%TO.C,RV2*%
X127549000Y-78874000D02*
X127549000Y-65124000D01*
X140369000Y-78874000D02*
X127549000Y-78874000D01*
X140369000Y-65124000D02*
X140369000Y-78874000D01*
X127549000Y-65124000D02*
X140369000Y-65124000D01*
%TO.C,RV1*%
X152493000Y-78874000D02*
X152493000Y-65124000D01*
X165313000Y-78874000D02*
X152493000Y-78874000D01*
X165313000Y-65124000D02*
X165313000Y-78874000D01*
X152493000Y-65124000D02*
X165313000Y-65124000D01*
%TD*%
M02*
