%TF.GenerationSoftware,KiCad,Pcbnew,(5.1.9)-1*%
%TF.CreationDate,2021-08-15T07:19:13+01:00*%
%TF.ProjectId,8x8_Kick_Drum,3878385f-4b69-4636-9b5f-4472756d2e6b,rev?*%
%TF.SameCoordinates,Original*%
%TF.FileFunction,Legend,Top*%
%TF.FilePolarity,Positive*%
%FSLAX46Y46*%
G04 Gerber Fmt 4.6, Leading zero omitted, Abs format (unit mm)*
G04 Created by KiCad (PCBNEW (5.1.9)-1) date 2021-08-15 07:19:13*
%MOMM*%
%LPD*%
G01*
G04 APERTURE LIST*
%ADD10C,0.300000*%
%ADD11C,0.100000*%
%ADD12C,0.120000*%
%ADD13C,0.150000*%
G04 APERTURE END LIST*
D10*
X138802000Y-109484857D02*
X138802000Y-108770571D01*
X139230571Y-109627714D02*
X137730571Y-109127714D01*
X139230571Y-108627714D01*
X138230571Y-108127714D02*
X139230571Y-108127714D01*
X138373428Y-108127714D02*
X138302000Y-108056285D01*
X138230571Y-107913428D01*
X138230571Y-107699142D01*
X138302000Y-107556285D01*
X138444857Y-107484857D01*
X139230571Y-107484857D01*
X139230571Y-106127714D02*
X137730571Y-106127714D01*
X139159142Y-106127714D02*
X139230571Y-106270571D01*
X139230571Y-106556285D01*
X139159142Y-106699142D01*
X139087714Y-106770571D01*
X138944857Y-106842000D01*
X138516285Y-106842000D01*
X138373428Y-106770571D01*
X138302000Y-106699142D01*
X138230571Y-106556285D01*
X138230571Y-106270571D01*
X138302000Y-106127714D01*
X138230571Y-105556285D02*
X139230571Y-105199142D01*
X138230571Y-104842000D02*
X139230571Y-105199142D01*
X139587714Y-105342000D01*
X139659142Y-105413428D01*
X139730571Y-105556285D01*
X137730571Y-104199142D02*
X138016285Y-104342000D01*
X139159142Y-103627714D02*
X139230571Y-103484857D01*
X139230571Y-103199142D01*
X139159142Y-103056285D01*
X139016285Y-102984857D01*
X138944857Y-102984857D01*
X138802000Y-103056285D01*
X138730571Y-103199142D01*
X138730571Y-103413428D01*
X138659142Y-103556285D01*
X138516285Y-103627714D01*
X138444857Y-103627714D01*
X138302000Y-103556285D01*
X138230571Y-103413428D01*
X138230571Y-103199142D01*
X138302000Y-103056285D01*
X138373428Y-100984857D02*
X138302000Y-101127714D01*
X138230571Y-101199142D01*
X138087714Y-101270571D01*
X138016285Y-101270571D01*
X137873428Y-101199142D01*
X137802000Y-101127714D01*
X137730571Y-100984857D01*
X137730571Y-100699142D01*
X137802000Y-100556285D01*
X137873428Y-100484857D01*
X138016285Y-100413428D01*
X138087714Y-100413428D01*
X138230571Y-100484857D01*
X138302000Y-100556285D01*
X138373428Y-100699142D01*
X138373428Y-100984857D01*
X138444857Y-101127714D01*
X138516285Y-101199142D01*
X138659142Y-101270571D01*
X138944857Y-101270571D01*
X139087714Y-101199142D01*
X139159142Y-101127714D01*
X139230571Y-100984857D01*
X139230571Y-100699142D01*
X139159142Y-100556285D01*
X139087714Y-100484857D01*
X138944857Y-100413428D01*
X138659142Y-100413428D01*
X138516285Y-100484857D01*
X138444857Y-100556285D01*
X138373428Y-100699142D01*
X137730571Y-99484857D02*
X137730571Y-99342000D01*
X137802000Y-99199142D01*
X137873428Y-99127714D01*
X138016285Y-99056285D01*
X138302000Y-98984857D01*
X138659142Y-98984857D01*
X138944857Y-99056285D01*
X139087714Y-99127714D01*
X139159142Y-99199142D01*
X139230571Y-99342000D01*
X139230571Y-99484857D01*
X139159142Y-99627714D01*
X139087714Y-99699142D01*
X138944857Y-99770571D01*
X138659142Y-99842000D01*
X138302000Y-99842000D01*
X138016285Y-99770571D01*
X137873428Y-99699142D01*
X137802000Y-99627714D01*
X137730571Y-99484857D01*
X138373428Y-98127714D02*
X138302000Y-98270571D01*
X138230571Y-98342000D01*
X138087714Y-98413428D01*
X138016285Y-98413428D01*
X137873428Y-98342000D01*
X137802000Y-98270571D01*
X137730571Y-98127714D01*
X137730571Y-97842000D01*
X137802000Y-97699142D01*
X137873428Y-97627714D01*
X138016285Y-97556285D01*
X138087714Y-97556285D01*
X138230571Y-97627714D01*
X138302000Y-97699142D01*
X138373428Y-97842000D01*
X138373428Y-98127714D01*
X138444857Y-98270571D01*
X138516285Y-98342000D01*
X138659142Y-98413428D01*
X138944857Y-98413428D01*
X139087714Y-98342000D01*
X139159142Y-98270571D01*
X139230571Y-98127714D01*
X139230571Y-97842000D01*
X139159142Y-97699142D01*
X139087714Y-97627714D01*
X138944857Y-97556285D01*
X138659142Y-97556285D01*
X138516285Y-97627714D01*
X138444857Y-97699142D01*
X138373428Y-97842000D01*
X138659142Y-96913428D02*
X138659142Y-95770571D01*
X138444857Y-94556285D02*
X138516285Y-94342000D01*
X138587714Y-94270571D01*
X138730571Y-94199142D01*
X138944857Y-94199142D01*
X139087714Y-94270571D01*
X139159142Y-94342000D01*
X139230571Y-94484857D01*
X139230571Y-95056285D01*
X137730571Y-95056285D01*
X137730571Y-94556285D01*
X137802000Y-94413428D01*
X137873428Y-94342000D01*
X138016285Y-94270571D01*
X138159142Y-94270571D01*
X138302000Y-94342000D01*
X138373428Y-94413428D01*
X138444857Y-94556285D01*
X138444857Y-95056285D01*
X139230571Y-93556285D02*
X137730571Y-93556285D01*
X137730571Y-93199142D01*
X137802000Y-92984857D01*
X137944857Y-92842000D01*
X138087714Y-92770571D01*
X138373428Y-92699142D01*
X138587714Y-92699142D01*
X138873428Y-92770571D01*
X139016285Y-92842000D01*
X139159142Y-92984857D01*
X139230571Y-93199142D01*
X139230571Y-93556285D01*
X141352000Y-108520571D02*
X141352000Y-107806285D01*
X141780571Y-108663428D02*
X140280571Y-108163428D01*
X141780571Y-107663428D01*
X140780571Y-106520571D02*
X141780571Y-106520571D01*
X140780571Y-107163428D02*
X141566285Y-107163428D01*
X141709142Y-107092000D01*
X141780571Y-106949142D01*
X141780571Y-106734857D01*
X141709142Y-106592000D01*
X141637714Y-106520571D01*
X140780571Y-105163428D02*
X141994857Y-105163428D01*
X142137714Y-105234857D01*
X142209142Y-105306285D01*
X142280571Y-105449142D01*
X142280571Y-105663428D01*
X142209142Y-105806285D01*
X141709142Y-105163428D02*
X141780571Y-105306285D01*
X141780571Y-105592000D01*
X141709142Y-105734857D01*
X141637714Y-105806285D01*
X141494857Y-105877714D01*
X141066285Y-105877714D01*
X140923428Y-105806285D01*
X140852000Y-105734857D01*
X140780571Y-105592000D01*
X140780571Y-105306285D01*
X140852000Y-105163428D01*
X140423428Y-98806285D02*
X140352000Y-98734857D01*
X140280571Y-98592000D01*
X140280571Y-98234857D01*
X140352000Y-98092000D01*
X140423428Y-98020571D01*
X140566285Y-97949142D01*
X140709142Y-97949142D01*
X140923428Y-98020571D01*
X141780571Y-98877714D01*
X141780571Y-97949142D01*
X140280571Y-97020571D02*
X140280571Y-96877714D01*
X140352000Y-96734857D01*
X140423428Y-96663428D01*
X140566285Y-96592000D01*
X140852000Y-96520571D01*
X141209142Y-96520571D01*
X141494857Y-96592000D01*
X141637714Y-96663428D01*
X141709142Y-96734857D01*
X141780571Y-96877714D01*
X141780571Y-97020571D01*
X141709142Y-97163428D01*
X141637714Y-97234857D01*
X141494857Y-97306285D01*
X141209142Y-97377714D01*
X140852000Y-97377714D01*
X140566285Y-97306285D01*
X140423428Y-97234857D01*
X140352000Y-97163428D01*
X140280571Y-97020571D01*
X140423428Y-95949142D02*
X140352000Y-95877714D01*
X140280571Y-95734857D01*
X140280571Y-95377714D01*
X140352000Y-95234857D01*
X140423428Y-95163428D01*
X140566285Y-95092000D01*
X140709142Y-95092000D01*
X140923428Y-95163428D01*
X141780571Y-96020571D01*
X141780571Y-95092000D01*
X141780571Y-93663428D02*
X141780571Y-94520571D01*
X141780571Y-94092000D02*
X140280571Y-94092000D01*
X140494857Y-94234857D01*
X140637714Y-94377714D01*
X140709142Y-94520571D01*
D11*
G36*
X164714778Y-155256774D02*
G01*
X156332778Y-155256774D01*
X156332778Y-152335774D01*
X164714778Y-152335774D01*
X164714778Y-155256774D01*
G37*
X164714778Y-155256774D02*
X156332778Y-155256774D01*
X156332778Y-152335774D01*
X164714778Y-152335774D01*
X164714778Y-155256774D01*
D12*
%TO.C,R26*%
X134853000Y-161425936D02*
X134853000Y-162880064D01*
X136673000Y-161425936D02*
X136673000Y-162880064D01*
%TO.C,R25*%
X144632000Y-158123936D02*
X144632000Y-159578064D01*
X146452000Y-158123936D02*
X146452000Y-159578064D01*
%TO.C,R24*%
X128249000Y-161477936D02*
X128249000Y-162932064D01*
X130069000Y-161477936D02*
X130069000Y-162932064D01*
%TO.C,R23*%
X140961064Y-155681000D02*
X139506936Y-155681000D01*
X140961064Y-157501000D02*
X139506936Y-157501000D01*
%TO.C,R22*%
X130564936Y-147595000D02*
X132019064Y-147595000D01*
X130564936Y-145775000D02*
X132019064Y-145775000D01*
%TO.C,R21*%
X142642000Y-129912064D02*
X142642000Y-128457936D01*
X140822000Y-129912064D02*
X140822000Y-128457936D01*
%TO.C,R20*%
X137659064Y-136377000D02*
X136204936Y-136377000D01*
X137659064Y-138197000D02*
X136204936Y-138197000D01*
%TO.C,R19*%
X135448064Y-73131000D02*
X133993936Y-73131000D01*
X135448064Y-74951000D02*
X133993936Y-74951000D01*
%TO.C,R18*%
X147412064Y-88371000D02*
X145957936Y-88371000D01*
X147412064Y-90191000D02*
X145957936Y-90191000D01*
%TO.C,R17*%
X158250936Y-74062000D02*
X159705064Y-74062000D01*
X158250936Y-72242000D02*
X159705064Y-72242000D01*
%TO.C,R16*%
X142713064Y-78719000D02*
X141258936Y-78719000D01*
X142713064Y-80539000D02*
X141258936Y-80539000D01*
%TO.C,R15*%
X147259064Y-83672000D02*
X145804936Y-83672000D01*
X147259064Y-85492000D02*
X145804936Y-85492000D01*
%TO.C,R14*%
X155889936Y-82190000D02*
X157344064Y-82190000D01*
X155889936Y-80370000D02*
X157344064Y-80370000D01*
%TO.C,R13*%
X131055064Y-112755000D02*
X129600936Y-112755000D01*
X131055064Y-114575000D02*
X129600936Y-114575000D01*
%TO.C,R12*%
X156091936Y-103526000D02*
X157546064Y-103526000D01*
X156091936Y-101706000D02*
X157546064Y-101706000D01*
%TO.C,R11*%
X157344064Y-85196000D02*
X155889936Y-85196000D01*
X157344064Y-87016000D02*
X155889936Y-87016000D01*
%TO.C,R10*%
X157292064Y-93324000D02*
X155837936Y-93324000D01*
X157292064Y-95144000D02*
X155837936Y-95144000D01*
%TO.C,R9*%
X129548936Y-105812000D02*
X131003064Y-105812000D01*
X129548936Y-103992000D02*
X131003064Y-103992000D01*
%TO.C,R8*%
X156143936Y-111908000D02*
X157598064Y-111908000D01*
X156143936Y-110088000D02*
X157598064Y-110088000D01*
%TO.C,R7*%
X157598064Y-105897000D02*
X156143936Y-105897000D01*
X157598064Y-107717000D02*
X156143936Y-107717000D01*
%TO.C,R6*%
X129473936Y-101367000D02*
X130928064Y-101367000D01*
X129473936Y-99547000D02*
X130928064Y-99547000D01*
%TO.C,R5*%
X156371936Y-124735000D02*
X157826064Y-124735000D01*
X156371936Y-122915000D02*
X157826064Y-122915000D01*
%TO.C,R4*%
X156143936Y-116226000D02*
X157598064Y-116226000D01*
X156143936Y-114406000D02*
X157598064Y-114406000D01*
%TO.C,R3*%
X141411936Y-75840000D02*
X142866064Y-75840000D01*
X141411936Y-74020000D02*
X142866064Y-74020000D01*
%TO.C,R2*%
X150021936Y-82190000D02*
X151476064Y-82190000D01*
X150021936Y-80370000D02*
X151476064Y-80370000D01*
%TO.C,R1*%
X147259064Y-119613000D02*
X145804936Y-119613000D01*
X147259064Y-121433000D02*
X145804936Y-121433000D01*
%TO.C,D5*%
X154156000Y-91678000D02*
X161456000Y-91678000D01*
X154156000Y-89678000D02*
X154156000Y-91678000D01*
X161456000Y-89678000D02*
X154156000Y-89678000D01*
%TO.C,D4*%
X136928000Y-116602000D02*
X129628000Y-116602000D01*
X136928000Y-118602000D02*
X136928000Y-116602000D01*
X129628000Y-118602000D02*
X136928000Y-118602000D01*
%TO.C,D3*%
X152924000Y-143151000D02*
X152924000Y-150451000D01*
X154924000Y-143151000D02*
X152924000Y-143151000D01*
X154924000Y-150451000D02*
X154924000Y-143151000D01*
%TO.C,D2*%
X154924000Y-140059000D02*
X154924000Y-132759000D01*
X152924000Y-140059000D02*
X154924000Y-140059000D01*
X152924000Y-132759000D02*
X152924000Y-140059000D01*
%TO.C,D1*%
X156022000Y-163052000D02*
X163322000Y-163052000D01*
X156022000Y-161052000D02*
X156022000Y-163052000D01*
X163322000Y-161052000D02*
X156022000Y-161052000D01*
%TO.C,C17*%
X143733000Y-167894000D02*
G75*
G03*
X143733000Y-167894000I-2620000J0D01*
G01*
X141113000Y-166854000D02*
X141113000Y-165314000D01*
X141113000Y-170474000D02*
X141113000Y-168934000D01*
X141073000Y-166854000D02*
X141073000Y-165314000D01*
X141073000Y-170474000D02*
X141073000Y-168934000D01*
X141033000Y-170473000D02*
X141033000Y-168934000D01*
X141033000Y-166854000D02*
X141033000Y-165315000D01*
X140993000Y-170472000D02*
X140993000Y-168934000D01*
X140993000Y-166854000D02*
X140993000Y-165316000D01*
X140953000Y-170470000D02*
X140953000Y-168934000D01*
X140953000Y-166854000D02*
X140953000Y-165318000D01*
X140913000Y-170467000D02*
X140913000Y-168934000D01*
X140913000Y-166854000D02*
X140913000Y-165321000D01*
X140873000Y-170463000D02*
X140873000Y-168934000D01*
X140873000Y-166854000D02*
X140873000Y-165325000D01*
X140833000Y-170459000D02*
X140833000Y-168934000D01*
X140833000Y-166854000D02*
X140833000Y-165329000D01*
X140793000Y-170455000D02*
X140793000Y-168934000D01*
X140793000Y-166854000D02*
X140793000Y-165333000D01*
X140753000Y-170450000D02*
X140753000Y-168934000D01*
X140753000Y-166854000D02*
X140753000Y-165338000D01*
X140713000Y-170444000D02*
X140713000Y-168934000D01*
X140713000Y-166854000D02*
X140713000Y-165344000D01*
X140673000Y-170437000D02*
X140673000Y-168934000D01*
X140673000Y-166854000D02*
X140673000Y-165351000D01*
X140633000Y-170430000D02*
X140633000Y-168934000D01*
X140633000Y-166854000D02*
X140633000Y-165358000D01*
X140593000Y-170422000D02*
X140593000Y-168934000D01*
X140593000Y-166854000D02*
X140593000Y-165366000D01*
X140553000Y-170414000D02*
X140553000Y-168934000D01*
X140553000Y-166854000D02*
X140553000Y-165374000D01*
X140513000Y-170405000D02*
X140513000Y-168934000D01*
X140513000Y-166854000D02*
X140513000Y-165383000D01*
X140473000Y-170395000D02*
X140473000Y-168934000D01*
X140473000Y-166854000D02*
X140473000Y-165393000D01*
X140433000Y-170385000D02*
X140433000Y-168934000D01*
X140433000Y-166854000D02*
X140433000Y-165403000D01*
X140392000Y-170374000D02*
X140392000Y-168934000D01*
X140392000Y-166854000D02*
X140392000Y-165414000D01*
X140352000Y-170362000D02*
X140352000Y-168934000D01*
X140352000Y-166854000D02*
X140352000Y-165426000D01*
X140312000Y-170349000D02*
X140312000Y-168934000D01*
X140312000Y-166854000D02*
X140312000Y-165439000D01*
X140272000Y-170336000D02*
X140272000Y-168934000D01*
X140272000Y-166854000D02*
X140272000Y-165452000D01*
X140232000Y-170322000D02*
X140232000Y-168934000D01*
X140232000Y-166854000D02*
X140232000Y-165466000D01*
X140192000Y-170308000D02*
X140192000Y-168934000D01*
X140192000Y-166854000D02*
X140192000Y-165480000D01*
X140152000Y-170292000D02*
X140152000Y-168934000D01*
X140152000Y-166854000D02*
X140152000Y-165496000D01*
X140112000Y-170276000D02*
X140112000Y-168934000D01*
X140112000Y-166854000D02*
X140112000Y-165512000D01*
X140072000Y-170259000D02*
X140072000Y-168934000D01*
X140072000Y-166854000D02*
X140072000Y-165529000D01*
X140032000Y-170242000D02*
X140032000Y-168934000D01*
X140032000Y-166854000D02*
X140032000Y-165546000D01*
X139992000Y-170223000D02*
X139992000Y-168934000D01*
X139992000Y-166854000D02*
X139992000Y-165565000D01*
X139952000Y-170204000D02*
X139952000Y-168934000D01*
X139952000Y-166854000D02*
X139952000Y-165584000D01*
X139912000Y-170184000D02*
X139912000Y-168934000D01*
X139912000Y-166854000D02*
X139912000Y-165604000D01*
X139872000Y-170162000D02*
X139872000Y-168934000D01*
X139872000Y-166854000D02*
X139872000Y-165626000D01*
X139832000Y-170141000D02*
X139832000Y-168934000D01*
X139832000Y-166854000D02*
X139832000Y-165647000D01*
X139792000Y-170118000D02*
X139792000Y-168934000D01*
X139792000Y-166854000D02*
X139792000Y-165670000D01*
X139752000Y-170094000D02*
X139752000Y-168934000D01*
X139752000Y-166854000D02*
X139752000Y-165694000D01*
X139712000Y-170069000D02*
X139712000Y-168934000D01*
X139712000Y-166854000D02*
X139712000Y-165719000D01*
X139672000Y-170043000D02*
X139672000Y-168934000D01*
X139672000Y-166854000D02*
X139672000Y-165745000D01*
X139632000Y-170016000D02*
X139632000Y-168934000D01*
X139632000Y-166854000D02*
X139632000Y-165772000D01*
X139592000Y-169989000D02*
X139592000Y-168934000D01*
X139592000Y-166854000D02*
X139592000Y-165799000D01*
X139552000Y-169959000D02*
X139552000Y-168934000D01*
X139552000Y-166854000D02*
X139552000Y-165829000D01*
X139512000Y-169929000D02*
X139512000Y-168934000D01*
X139512000Y-166854000D02*
X139512000Y-165859000D01*
X139472000Y-169898000D02*
X139472000Y-168934000D01*
X139472000Y-166854000D02*
X139472000Y-165890000D01*
X139432000Y-169865000D02*
X139432000Y-168934000D01*
X139432000Y-166854000D02*
X139432000Y-165923000D01*
X139392000Y-169831000D02*
X139392000Y-168934000D01*
X139392000Y-166854000D02*
X139392000Y-165957000D01*
X139352000Y-169795000D02*
X139352000Y-168934000D01*
X139352000Y-166854000D02*
X139352000Y-165993000D01*
X139312000Y-169758000D02*
X139312000Y-168934000D01*
X139312000Y-166854000D02*
X139312000Y-166030000D01*
X139272000Y-169720000D02*
X139272000Y-168934000D01*
X139272000Y-166854000D02*
X139272000Y-166068000D01*
X139232000Y-169679000D02*
X139232000Y-168934000D01*
X139232000Y-166854000D02*
X139232000Y-166109000D01*
X139192000Y-169637000D02*
X139192000Y-168934000D01*
X139192000Y-166854000D02*
X139192000Y-166151000D01*
X139152000Y-169593000D02*
X139152000Y-168934000D01*
X139152000Y-166854000D02*
X139152000Y-166195000D01*
X139112000Y-169547000D02*
X139112000Y-168934000D01*
X139112000Y-166854000D02*
X139112000Y-166241000D01*
X139072000Y-169499000D02*
X139072000Y-166289000D01*
X139032000Y-169448000D02*
X139032000Y-166340000D01*
X138992000Y-169394000D02*
X138992000Y-166394000D01*
X138952000Y-169337000D02*
X138952000Y-166451000D01*
X138912000Y-169277000D02*
X138912000Y-166511000D01*
X138872000Y-169213000D02*
X138872000Y-166575000D01*
X138832000Y-169145000D02*
X138832000Y-166643000D01*
X138792000Y-169072000D02*
X138792000Y-166716000D01*
X138752000Y-168992000D02*
X138752000Y-166796000D01*
X138712000Y-168905000D02*
X138712000Y-166883000D01*
X138672000Y-168809000D02*
X138672000Y-166979000D01*
X138632000Y-168699000D02*
X138632000Y-167089000D01*
X138592000Y-168571000D02*
X138592000Y-167217000D01*
X138552000Y-168412000D02*
X138552000Y-167376000D01*
X138512000Y-168178000D02*
X138512000Y-167610000D01*
X143917775Y-169369000D02*
X143417775Y-169369000D01*
X143667775Y-169619000D02*
X143667775Y-169119000D01*
%TO.C,C13*%
X150464000Y-129159000D02*
G75*
G03*
X150464000Y-129159000I-2620000J0D01*
G01*
X147844000Y-128119000D02*
X147844000Y-126579000D01*
X147844000Y-131739000D02*
X147844000Y-130199000D01*
X147804000Y-128119000D02*
X147804000Y-126579000D01*
X147804000Y-131739000D02*
X147804000Y-130199000D01*
X147764000Y-131738000D02*
X147764000Y-130199000D01*
X147764000Y-128119000D02*
X147764000Y-126580000D01*
X147724000Y-131737000D02*
X147724000Y-130199000D01*
X147724000Y-128119000D02*
X147724000Y-126581000D01*
X147684000Y-131735000D02*
X147684000Y-130199000D01*
X147684000Y-128119000D02*
X147684000Y-126583000D01*
X147644000Y-131732000D02*
X147644000Y-130199000D01*
X147644000Y-128119000D02*
X147644000Y-126586000D01*
X147604000Y-131728000D02*
X147604000Y-130199000D01*
X147604000Y-128119000D02*
X147604000Y-126590000D01*
X147564000Y-131724000D02*
X147564000Y-130199000D01*
X147564000Y-128119000D02*
X147564000Y-126594000D01*
X147524000Y-131720000D02*
X147524000Y-130199000D01*
X147524000Y-128119000D02*
X147524000Y-126598000D01*
X147484000Y-131715000D02*
X147484000Y-130199000D01*
X147484000Y-128119000D02*
X147484000Y-126603000D01*
X147444000Y-131709000D02*
X147444000Y-130199000D01*
X147444000Y-128119000D02*
X147444000Y-126609000D01*
X147404000Y-131702000D02*
X147404000Y-130199000D01*
X147404000Y-128119000D02*
X147404000Y-126616000D01*
X147364000Y-131695000D02*
X147364000Y-130199000D01*
X147364000Y-128119000D02*
X147364000Y-126623000D01*
X147324000Y-131687000D02*
X147324000Y-130199000D01*
X147324000Y-128119000D02*
X147324000Y-126631000D01*
X147284000Y-131679000D02*
X147284000Y-130199000D01*
X147284000Y-128119000D02*
X147284000Y-126639000D01*
X147244000Y-131670000D02*
X147244000Y-130199000D01*
X147244000Y-128119000D02*
X147244000Y-126648000D01*
X147204000Y-131660000D02*
X147204000Y-130199000D01*
X147204000Y-128119000D02*
X147204000Y-126658000D01*
X147164000Y-131650000D02*
X147164000Y-130199000D01*
X147164000Y-128119000D02*
X147164000Y-126668000D01*
X147123000Y-131639000D02*
X147123000Y-130199000D01*
X147123000Y-128119000D02*
X147123000Y-126679000D01*
X147083000Y-131627000D02*
X147083000Y-130199000D01*
X147083000Y-128119000D02*
X147083000Y-126691000D01*
X147043000Y-131614000D02*
X147043000Y-130199000D01*
X147043000Y-128119000D02*
X147043000Y-126704000D01*
X147003000Y-131601000D02*
X147003000Y-130199000D01*
X147003000Y-128119000D02*
X147003000Y-126717000D01*
X146963000Y-131587000D02*
X146963000Y-130199000D01*
X146963000Y-128119000D02*
X146963000Y-126731000D01*
X146923000Y-131573000D02*
X146923000Y-130199000D01*
X146923000Y-128119000D02*
X146923000Y-126745000D01*
X146883000Y-131557000D02*
X146883000Y-130199000D01*
X146883000Y-128119000D02*
X146883000Y-126761000D01*
X146843000Y-131541000D02*
X146843000Y-130199000D01*
X146843000Y-128119000D02*
X146843000Y-126777000D01*
X146803000Y-131524000D02*
X146803000Y-130199000D01*
X146803000Y-128119000D02*
X146803000Y-126794000D01*
X146763000Y-131507000D02*
X146763000Y-130199000D01*
X146763000Y-128119000D02*
X146763000Y-126811000D01*
X146723000Y-131488000D02*
X146723000Y-130199000D01*
X146723000Y-128119000D02*
X146723000Y-126830000D01*
X146683000Y-131469000D02*
X146683000Y-130199000D01*
X146683000Y-128119000D02*
X146683000Y-126849000D01*
X146643000Y-131449000D02*
X146643000Y-130199000D01*
X146643000Y-128119000D02*
X146643000Y-126869000D01*
X146603000Y-131427000D02*
X146603000Y-130199000D01*
X146603000Y-128119000D02*
X146603000Y-126891000D01*
X146563000Y-131406000D02*
X146563000Y-130199000D01*
X146563000Y-128119000D02*
X146563000Y-126912000D01*
X146523000Y-131383000D02*
X146523000Y-130199000D01*
X146523000Y-128119000D02*
X146523000Y-126935000D01*
X146483000Y-131359000D02*
X146483000Y-130199000D01*
X146483000Y-128119000D02*
X146483000Y-126959000D01*
X146443000Y-131334000D02*
X146443000Y-130199000D01*
X146443000Y-128119000D02*
X146443000Y-126984000D01*
X146403000Y-131308000D02*
X146403000Y-130199000D01*
X146403000Y-128119000D02*
X146403000Y-127010000D01*
X146363000Y-131281000D02*
X146363000Y-130199000D01*
X146363000Y-128119000D02*
X146363000Y-127037000D01*
X146323000Y-131254000D02*
X146323000Y-130199000D01*
X146323000Y-128119000D02*
X146323000Y-127064000D01*
X146283000Y-131224000D02*
X146283000Y-130199000D01*
X146283000Y-128119000D02*
X146283000Y-127094000D01*
X146243000Y-131194000D02*
X146243000Y-130199000D01*
X146243000Y-128119000D02*
X146243000Y-127124000D01*
X146203000Y-131163000D02*
X146203000Y-130199000D01*
X146203000Y-128119000D02*
X146203000Y-127155000D01*
X146163000Y-131130000D02*
X146163000Y-130199000D01*
X146163000Y-128119000D02*
X146163000Y-127188000D01*
X146123000Y-131096000D02*
X146123000Y-130199000D01*
X146123000Y-128119000D02*
X146123000Y-127222000D01*
X146083000Y-131060000D02*
X146083000Y-130199000D01*
X146083000Y-128119000D02*
X146083000Y-127258000D01*
X146043000Y-131023000D02*
X146043000Y-130199000D01*
X146043000Y-128119000D02*
X146043000Y-127295000D01*
X146003000Y-130985000D02*
X146003000Y-130199000D01*
X146003000Y-128119000D02*
X146003000Y-127333000D01*
X145963000Y-130944000D02*
X145963000Y-130199000D01*
X145963000Y-128119000D02*
X145963000Y-127374000D01*
X145923000Y-130902000D02*
X145923000Y-130199000D01*
X145923000Y-128119000D02*
X145923000Y-127416000D01*
X145883000Y-130858000D02*
X145883000Y-130199000D01*
X145883000Y-128119000D02*
X145883000Y-127460000D01*
X145843000Y-130812000D02*
X145843000Y-130199000D01*
X145843000Y-128119000D02*
X145843000Y-127506000D01*
X145803000Y-130764000D02*
X145803000Y-127554000D01*
X145763000Y-130713000D02*
X145763000Y-127605000D01*
X145723000Y-130659000D02*
X145723000Y-127659000D01*
X145683000Y-130602000D02*
X145683000Y-127716000D01*
X145643000Y-130542000D02*
X145643000Y-127776000D01*
X145603000Y-130478000D02*
X145603000Y-127840000D01*
X145563000Y-130410000D02*
X145563000Y-127908000D01*
X145523000Y-130337000D02*
X145523000Y-127981000D01*
X145483000Y-130257000D02*
X145483000Y-128061000D01*
X145443000Y-130170000D02*
X145443000Y-128148000D01*
X145403000Y-130074000D02*
X145403000Y-128244000D01*
X145363000Y-129964000D02*
X145363000Y-128354000D01*
X145323000Y-129836000D02*
X145323000Y-128482000D01*
X145283000Y-129677000D02*
X145283000Y-128641000D01*
X145243000Y-129443000D02*
X145243000Y-128875000D01*
X150648775Y-130634000D02*
X150148775Y-130634000D01*
X150398775Y-130884000D02*
X150398775Y-130384000D01*
%TO.C,C12*%
X146146000Y-66929000D02*
G75*
G03*
X146146000Y-66929000I-2620000J0D01*
G01*
X143526000Y-65889000D02*
X143526000Y-64349000D01*
X143526000Y-69509000D02*
X143526000Y-67969000D01*
X143486000Y-65889000D02*
X143486000Y-64349000D01*
X143486000Y-69509000D02*
X143486000Y-67969000D01*
X143446000Y-69508000D02*
X143446000Y-67969000D01*
X143446000Y-65889000D02*
X143446000Y-64350000D01*
X143406000Y-69507000D02*
X143406000Y-67969000D01*
X143406000Y-65889000D02*
X143406000Y-64351000D01*
X143366000Y-69505000D02*
X143366000Y-67969000D01*
X143366000Y-65889000D02*
X143366000Y-64353000D01*
X143326000Y-69502000D02*
X143326000Y-67969000D01*
X143326000Y-65889000D02*
X143326000Y-64356000D01*
X143286000Y-69498000D02*
X143286000Y-67969000D01*
X143286000Y-65889000D02*
X143286000Y-64360000D01*
X143246000Y-69494000D02*
X143246000Y-67969000D01*
X143246000Y-65889000D02*
X143246000Y-64364000D01*
X143206000Y-69490000D02*
X143206000Y-67969000D01*
X143206000Y-65889000D02*
X143206000Y-64368000D01*
X143166000Y-69485000D02*
X143166000Y-67969000D01*
X143166000Y-65889000D02*
X143166000Y-64373000D01*
X143126000Y-69479000D02*
X143126000Y-67969000D01*
X143126000Y-65889000D02*
X143126000Y-64379000D01*
X143086000Y-69472000D02*
X143086000Y-67969000D01*
X143086000Y-65889000D02*
X143086000Y-64386000D01*
X143046000Y-69465000D02*
X143046000Y-67969000D01*
X143046000Y-65889000D02*
X143046000Y-64393000D01*
X143006000Y-69457000D02*
X143006000Y-67969000D01*
X143006000Y-65889000D02*
X143006000Y-64401000D01*
X142966000Y-69449000D02*
X142966000Y-67969000D01*
X142966000Y-65889000D02*
X142966000Y-64409000D01*
X142926000Y-69440000D02*
X142926000Y-67969000D01*
X142926000Y-65889000D02*
X142926000Y-64418000D01*
X142886000Y-69430000D02*
X142886000Y-67969000D01*
X142886000Y-65889000D02*
X142886000Y-64428000D01*
X142846000Y-69420000D02*
X142846000Y-67969000D01*
X142846000Y-65889000D02*
X142846000Y-64438000D01*
X142805000Y-69409000D02*
X142805000Y-67969000D01*
X142805000Y-65889000D02*
X142805000Y-64449000D01*
X142765000Y-69397000D02*
X142765000Y-67969000D01*
X142765000Y-65889000D02*
X142765000Y-64461000D01*
X142725000Y-69384000D02*
X142725000Y-67969000D01*
X142725000Y-65889000D02*
X142725000Y-64474000D01*
X142685000Y-69371000D02*
X142685000Y-67969000D01*
X142685000Y-65889000D02*
X142685000Y-64487000D01*
X142645000Y-69357000D02*
X142645000Y-67969000D01*
X142645000Y-65889000D02*
X142645000Y-64501000D01*
X142605000Y-69343000D02*
X142605000Y-67969000D01*
X142605000Y-65889000D02*
X142605000Y-64515000D01*
X142565000Y-69327000D02*
X142565000Y-67969000D01*
X142565000Y-65889000D02*
X142565000Y-64531000D01*
X142525000Y-69311000D02*
X142525000Y-67969000D01*
X142525000Y-65889000D02*
X142525000Y-64547000D01*
X142485000Y-69294000D02*
X142485000Y-67969000D01*
X142485000Y-65889000D02*
X142485000Y-64564000D01*
X142445000Y-69277000D02*
X142445000Y-67969000D01*
X142445000Y-65889000D02*
X142445000Y-64581000D01*
X142405000Y-69258000D02*
X142405000Y-67969000D01*
X142405000Y-65889000D02*
X142405000Y-64600000D01*
X142365000Y-69239000D02*
X142365000Y-67969000D01*
X142365000Y-65889000D02*
X142365000Y-64619000D01*
X142325000Y-69219000D02*
X142325000Y-67969000D01*
X142325000Y-65889000D02*
X142325000Y-64639000D01*
X142285000Y-69197000D02*
X142285000Y-67969000D01*
X142285000Y-65889000D02*
X142285000Y-64661000D01*
X142245000Y-69176000D02*
X142245000Y-67969000D01*
X142245000Y-65889000D02*
X142245000Y-64682000D01*
X142205000Y-69153000D02*
X142205000Y-67969000D01*
X142205000Y-65889000D02*
X142205000Y-64705000D01*
X142165000Y-69129000D02*
X142165000Y-67969000D01*
X142165000Y-65889000D02*
X142165000Y-64729000D01*
X142125000Y-69104000D02*
X142125000Y-67969000D01*
X142125000Y-65889000D02*
X142125000Y-64754000D01*
X142085000Y-69078000D02*
X142085000Y-67969000D01*
X142085000Y-65889000D02*
X142085000Y-64780000D01*
X142045000Y-69051000D02*
X142045000Y-67969000D01*
X142045000Y-65889000D02*
X142045000Y-64807000D01*
X142005000Y-69024000D02*
X142005000Y-67969000D01*
X142005000Y-65889000D02*
X142005000Y-64834000D01*
X141965000Y-68994000D02*
X141965000Y-67969000D01*
X141965000Y-65889000D02*
X141965000Y-64864000D01*
X141925000Y-68964000D02*
X141925000Y-67969000D01*
X141925000Y-65889000D02*
X141925000Y-64894000D01*
X141885000Y-68933000D02*
X141885000Y-67969000D01*
X141885000Y-65889000D02*
X141885000Y-64925000D01*
X141845000Y-68900000D02*
X141845000Y-67969000D01*
X141845000Y-65889000D02*
X141845000Y-64958000D01*
X141805000Y-68866000D02*
X141805000Y-67969000D01*
X141805000Y-65889000D02*
X141805000Y-64992000D01*
X141765000Y-68830000D02*
X141765000Y-67969000D01*
X141765000Y-65889000D02*
X141765000Y-65028000D01*
X141725000Y-68793000D02*
X141725000Y-67969000D01*
X141725000Y-65889000D02*
X141725000Y-65065000D01*
X141685000Y-68755000D02*
X141685000Y-67969000D01*
X141685000Y-65889000D02*
X141685000Y-65103000D01*
X141645000Y-68714000D02*
X141645000Y-67969000D01*
X141645000Y-65889000D02*
X141645000Y-65144000D01*
X141605000Y-68672000D02*
X141605000Y-67969000D01*
X141605000Y-65889000D02*
X141605000Y-65186000D01*
X141565000Y-68628000D02*
X141565000Y-67969000D01*
X141565000Y-65889000D02*
X141565000Y-65230000D01*
X141525000Y-68582000D02*
X141525000Y-67969000D01*
X141525000Y-65889000D02*
X141525000Y-65276000D01*
X141485000Y-68534000D02*
X141485000Y-65324000D01*
X141445000Y-68483000D02*
X141445000Y-65375000D01*
X141405000Y-68429000D02*
X141405000Y-65429000D01*
X141365000Y-68372000D02*
X141365000Y-65486000D01*
X141325000Y-68312000D02*
X141325000Y-65546000D01*
X141285000Y-68248000D02*
X141285000Y-65610000D01*
X141245000Y-68180000D02*
X141245000Y-65678000D01*
X141205000Y-68107000D02*
X141205000Y-65751000D01*
X141165000Y-68027000D02*
X141165000Y-65831000D01*
X141125000Y-67940000D02*
X141125000Y-65918000D01*
X141085000Y-67844000D02*
X141085000Y-66014000D01*
X141045000Y-67734000D02*
X141045000Y-66124000D01*
X141005000Y-67606000D02*
X141005000Y-66252000D01*
X140965000Y-67447000D02*
X140965000Y-66411000D01*
X140925000Y-67213000D02*
X140925000Y-66645000D01*
X146330775Y-68404000D02*
X145830775Y-68404000D01*
X146080775Y-68654000D02*
X146080775Y-68154000D01*
%TO.C,C3*%
X147542000Y-146919000D02*
G75*
G03*
X147542000Y-146919000I-3270000J0D01*
G01*
X147502000Y-146919000D02*
X141042000Y-146919000D01*
X147502000Y-146959000D02*
X141042000Y-146959000D01*
X147502000Y-146999000D02*
X141042000Y-146999000D01*
X147500000Y-147039000D02*
X141044000Y-147039000D01*
X147499000Y-147079000D02*
X141045000Y-147079000D01*
X147496000Y-147119000D02*
X141048000Y-147119000D01*
X147494000Y-147159000D02*
X145312000Y-147159000D01*
X143232000Y-147159000D02*
X141050000Y-147159000D01*
X147490000Y-147199000D02*
X145312000Y-147199000D01*
X143232000Y-147199000D02*
X141054000Y-147199000D01*
X147487000Y-147239000D02*
X145312000Y-147239000D01*
X143232000Y-147239000D02*
X141057000Y-147239000D01*
X147483000Y-147279000D02*
X145312000Y-147279000D01*
X143232000Y-147279000D02*
X141061000Y-147279000D01*
X147478000Y-147319000D02*
X145312000Y-147319000D01*
X143232000Y-147319000D02*
X141066000Y-147319000D01*
X147473000Y-147359000D02*
X145312000Y-147359000D01*
X143232000Y-147359000D02*
X141071000Y-147359000D01*
X147467000Y-147399000D02*
X145312000Y-147399000D01*
X143232000Y-147399000D02*
X141077000Y-147399000D01*
X147461000Y-147439000D02*
X145312000Y-147439000D01*
X143232000Y-147439000D02*
X141083000Y-147439000D01*
X147454000Y-147479000D02*
X145312000Y-147479000D01*
X143232000Y-147479000D02*
X141090000Y-147479000D01*
X147447000Y-147519000D02*
X145312000Y-147519000D01*
X143232000Y-147519000D02*
X141097000Y-147519000D01*
X147439000Y-147559000D02*
X145312000Y-147559000D01*
X143232000Y-147559000D02*
X141105000Y-147559000D01*
X147431000Y-147599000D02*
X145312000Y-147599000D01*
X143232000Y-147599000D02*
X141113000Y-147599000D01*
X147422000Y-147640000D02*
X145312000Y-147640000D01*
X143232000Y-147640000D02*
X141122000Y-147640000D01*
X147413000Y-147680000D02*
X145312000Y-147680000D01*
X143232000Y-147680000D02*
X141131000Y-147680000D01*
X147403000Y-147720000D02*
X145312000Y-147720000D01*
X143232000Y-147720000D02*
X141141000Y-147720000D01*
X147393000Y-147760000D02*
X145312000Y-147760000D01*
X143232000Y-147760000D02*
X141151000Y-147760000D01*
X147382000Y-147800000D02*
X145312000Y-147800000D01*
X143232000Y-147800000D02*
X141162000Y-147800000D01*
X147370000Y-147840000D02*
X145312000Y-147840000D01*
X143232000Y-147840000D02*
X141174000Y-147840000D01*
X147358000Y-147880000D02*
X145312000Y-147880000D01*
X143232000Y-147880000D02*
X141186000Y-147880000D01*
X147346000Y-147920000D02*
X145312000Y-147920000D01*
X143232000Y-147920000D02*
X141198000Y-147920000D01*
X147333000Y-147960000D02*
X145312000Y-147960000D01*
X143232000Y-147960000D02*
X141211000Y-147960000D01*
X147319000Y-148000000D02*
X145312000Y-148000000D01*
X143232000Y-148000000D02*
X141225000Y-148000000D01*
X147305000Y-148040000D02*
X145312000Y-148040000D01*
X143232000Y-148040000D02*
X141239000Y-148040000D01*
X147290000Y-148080000D02*
X145312000Y-148080000D01*
X143232000Y-148080000D02*
X141254000Y-148080000D01*
X147274000Y-148120000D02*
X145312000Y-148120000D01*
X143232000Y-148120000D02*
X141270000Y-148120000D01*
X147258000Y-148160000D02*
X145312000Y-148160000D01*
X143232000Y-148160000D02*
X141286000Y-148160000D01*
X147242000Y-148200000D02*
X145312000Y-148200000D01*
X143232000Y-148200000D02*
X141302000Y-148200000D01*
X147224000Y-148240000D02*
X145312000Y-148240000D01*
X143232000Y-148240000D02*
X141320000Y-148240000D01*
X147206000Y-148280000D02*
X145312000Y-148280000D01*
X143232000Y-148280000D02*
X141338000Y-148280000D01*
X147188000Y-148320000D02*
X145312000Y-148320000D01*
X143232000Y-148320000D02*
X141356000Y-148320000D01*
X147168000Y-148360000D02*
X145312000Y-148360000D01*
X143232000Y-148360000D02*
X141376000Y-148360000D01*
X147148000Y-148400000D02*
X145312000Y-148400000D01*
X143232000Y-148400000D02*
X141396000Y-148400000D01*
X147128000Y-148440000D02*
X145312000Y-148440000D01*
X143232000Y-148440000D02*
X141416000Y-148440000D01*
X147106000Y-148480000D02*
X145312000Y-148480000D01*
X143232000Y-148480000D02*
X141438000Y-148480000D01*
X147084000Y-148520000D02*
X145312000Y-148520000D01*
X143232000Y-148520000D02*
X141460000Y-148520000D01*
X147062000Y-148560000D02*
X145312000Y-148560000D01*
X143232000Y-148560000D02*
X141482000Y-148560000D01*
X147038000Y-148600000D02*
X145312000Y-148600000D01*
X143232000Y-148600000D02*
X141506000Y-148600000D01*
X147014000Y-148640000D02*
X145312000Y-148640000D01*
X143232000Y-148640000D02*
X141530000Y-148640000D01*
X146988000Y-148680000D02*
X145312000Y-148680000D01*
X143232000Y-148680000D02*
X141556000Y-148680000D01*
X146962000Y-148720000D02*
X145312000Y-148720000D01*
X143232000Y-148720000D02*
X141582000Y-148720000D01*
X146936000Y-148760000D02*
X145312000Y-148760000D01*
X143232000Y-148760000D02*
X141608000Y-148760000D01*
X146908000Y-148800000D02*
X145312000Y-148800000D01*
X143232000Y-148800000D02*
X141636000Y-148800000D01*
X146879000Y-148840000D02*
X145312000Y-148840000D01*
X143232000Y-148840000D02*
X141665000Y-148840000D01*
X146850000Y-148880000D02*
X145312000Y-148880000D01*
X143232000Y-148880000D02*
X141694000Y-148880000D01*
X146820000Y-148920000D02*
X145312000Y-148920000D01*
X143232000Y-148920000D02*
X141724000Y-148920000D01*
X146788000Y-148960000D02*
X145312000Y-148960000D01*
X143232000Y-148960000D02*
X141756000Y-148960000D01*
X146756000Y-149000000D02*
X145312000Y-149000000D01*
X143232000Y-149000000D02*
X141788000Y-149000000D01*
X146722000Y-149040000D02*
X145312000Y-149040000D01*
X143232000Y-149040000D02*
X141822000Y-149040000D01*
X146688000Y-149080000D02*
X145312000Y-149080000D01*
X143232000Y-149080000D02*
X141856000Y-149080000D01*
X146652000Y-149120000D02*
X145312000Y-149120000D01*
X143232000Y-149120000D02*
X141892000Y-149120000D01*
X146615000Y-149160000D02*
X145312000Y-149160000D01*
X143232000Y-149160000D02*
X141929000Y-149160000D01*
X146577000Y-149200000D02*
X145312000Y-149200000D01*
X143232000Y-149200000D02*
X141967000Y-149200000D01*
X146537000Y-149240000D02*
X142007000Y-149240000D01*
X146496000Y-149280000D02*
X142048000Y-149280000D01*
X146454000Y-149320000D02*
X142090000Y-149320000D01*
X146409000Y-149360000D02*
X142135000Y-149360000D01*
X146364000Y-149400000D02*
X142180000Y-149400000D01*
X146316000Y-149440000D02*
X142228000Y-149440000D01*
X146267000Y-149480000D02*
X142277000Y-149480000D01*
X146216000Y-149520000D02*
X142328000Y-149520000D01*
X146162000Y-149560000D02*
X142382000Y-149560000D01*
X146106000Y-149600000D02*
X142438000Y-149600000D01*
X146048000Y-149640000D02*
X142496000Y-149640000D01*
X145986000Y-149680000D02*
X142558000Y-149680000D01*
X145922000Y-149720000D02*
X142622000Y-149720000D01*
X145853000Y-149760000D02*
X142691000Y-149760000D01*
X145781000Y-149800000D02*
X142763000Y-149800000D01*
X145704000Y-149840000D02*
X142840000Y-149840000D01*
X145622000Y-149880000D02*
X142922000Y-149880000D01*
X145534000Y-149920000D02*
X143010000Y-149920000D01*
X145437000Y-149960000D02*
X143107000Y-149960000D01*
X145331000Y-150000000D02*
X143213000Y-150000000D01*
X145212000Y-150040000D02*
X143332000Y-150040000D01*
X145074000Y-150080000D02*
X143470000Y-150080000D01*
X144905000Y-150120000D02*
X143639000Y-150120000D01*
X144674000Y-150160000D02*
X143870000Y-150160000D01*
X146111000Y-143418759D02*
X146111000Y-144048759D01*
X146426000Y-143733759D02*
X145796000Y-143733759D01*
%TO.C,C2*%
X147034000Y-138029000D02*
G75*
G03*
X147034000Y-138029000I-3270000J0D01*
G01*
X146994000Y-138029000D02*
X140534000Y-138029000D01*
X146994000Y-138069000D02*
X140534000Y-138069000D01*
X146994000Y-138109000D02*
X140534000Y-138109000D01*
X146992000Y-138149000D02*
X140536000Y-138149000D01*
X146991000Y-138189000D02*
X140537000Y-138189000D01*
X146988000Y-138229000D02*
X140540000Y-138229000D01*
X146986000Y-138269000D02*
X144804000Y-138269000D01*
X142724000Y-138269000D02*
X140542000Y-138269000D01*
X146982000Y-138309000D02*
X144804000Y-138309000D01*
X142724000Y-138309000D02*
X140546000Y-138309000D01*
X146979000Y-138349000D02*
X144804000Y-138349000D01*
X142724000Y-138349000D02*
X140549000Y-138349000D01*
X146975000Y-138389000D02*
X144804000Y-138389000D01*
X142724000Y-138389000D02*
X140553000Y-138389000D01*
X146970000Y-138429000D02*
X144804000Y-138429000D01*
X142724000Y-138429000D02*
X140558000Y-138429000D01*
X146965000Y-138469000D02*
X144804000Y-138469000D01*
X142724000Y-138469000D02*
X140563000Y-138469000D01*
X146959000Y-138509000D02*
X144804000Y-138509000D01*
X142724000Y-138509000D02*
X140569000Y-138509000D01*
X146953000Y-138549000D02*
X144804000Y-138549000D01*
X142724000Y-138549000D02*
X140575000Y-138549000D01*
X146946000Y-138589000D02*
X144804000Y-138589000D01*
X142724000Y-138589000D02*
X140582000Y-138589000D01*
X146939000Y-138629000D02*
X144804000Y-138629000D01*
X142724000Y-138629000D02*
X140589000Y-138629000D01*
X146931000Y-138669000D02*
X144804000Y-138669000D01*
X142724000Y-138669000D02*
X140597000Y-138669000D01*
X146923000Y-138709000D02*
X144804000Y-138709000D01*
X142724000Y-138709000D02*
X140605000Y-138709000D01*
X146914000Y-138750000D02*
X144804000Y-138750000D01*
X142724000Y-138750000D02*
X140614000Y-138750000D01*
X146905000Y-138790000D02*
X144804000Y-138790000D01*
X142724000Y-138790000D02*
X140623000Y-138790000D01*
X146895000Y-138830000D02*
X144804000Y-138830000D01*
X142724000Y-138830000D02*
X140633000Y-138830000D01*
X146885000Y-138870000D02*
X144804000Y-138870000D01*
X142724000Y-138870000D02*
X140643000Y-138870000D01*
X146874000Y-138910000D02*
X144804000Y-138910000D01*
X142724000Y-138910000D02*
X140654000Y-138910000D01*
X146862000Y-138950000D02*
X144804000Y-138950000D01*
X142724000Y-138950000D02*
X140666000Y-138950000D01*
X146850000Y-138990000D02*
X144804000Y-138990000D01*
X142724000Y-138990000D02*
X140678000Y-138990000D01*
X146838000Y-139030000D02*
X144804000Y-139030000D01*
X142724000Y-139030000D02*
X140690000Y-139030000D01*
X146825000Y-139070000D02*
X144804000Y-139070000D01*
X142724000Y-139070000D02*
X140703000Y-139070000D01*
X146811000Y-139110000D02*
X144804000Y-139110000D01*
X142724000Y-139110000D02*
X140717000Y-139110000D01*
X146797000Y-139150000D02*
X144804000Y-139150000D01*
X142724000Y-139150000D02*
X140731000Y-139150000D01*
X146782000Y-139190000D02*
X144804000Y-139190000D01*
X142724000Y-139190000D02*
X140746000Y-139190000D01*
X146766000Y-139230000D02*
X144804000Y-139230000D01*
X142724000Y-139230000D02*
X140762000Y-139230000D01*
X146750000Y-139270000D02*
X144804000Y-139270000D01*
X142724000Y-139270000D02*
X140778000Y-139270000D01*
X146734000Y-139310000D02*
X144804000Y-139310000D01*
X142724000Y-139310000D02*
X140794000Y-139310000D01*
X146716000Y-139350000D02*
X144804000Y-139350000D01*
X142724000Y-139350000D02*
X140812000Y-139350000D01*
X146698000Y-139390000D02*
X144804000Y-139390000D01*
X142724000Y-139390000D02*
X140830000Y-139390000D01*
X146680000Y-139430000D02*
X144804000Y-139430000D01*
X142724000Y-139430000D02*
X140848000Y-139430000D01*
X146660000Y-139470000D02*
X144804000Y-139470000D01*
X142724000Y-139470000D02*
X140868000Y-139470000D01*
X146640000Y-139510000D02*
X144804000Y-139510000D01*
X142724000Y-139510000D02*
X140888000Y-139510000D01*
X146620000Y-139550000D02*
X144804000Y-139550000D01*
X142724000Y-139550000D02*
X140908000Y-139550000D01*
X146598000Y-139590000D02*
X144804000Y-139590000D01*
X142724000Y-139590000D02*
X140930000Y-139590000D01*
X146576000Y-139630000D02*
X144804000Y-139630000D01*
X142724000Y-139630000D02*
X140952000Y-139630000D01*
X146554000Y-139670000D02*
X144804000Y-139670000D01*
X142724000Y-139670000D02*
X140974000Y-139670000D01*
X146530000Y-139710000D02*
X144804000Y-139710000D01*
X142724000Y-139710000D02*
X140998000Y-139710000D01*
X146506000Y-139750000D02*
X144804000Y-139750000D01*
X142724000Y-139750000D02*
X141022000Y-139750000D01*
X146480000Y-139790000D02*
X144804000Y-139790000D01*
X142724000Y-139790000D02*
X141048000Y-139790000D01*
X146454000Y-139830000D02*
X144804000Y-139830000D01*
X142724000Y-139830000D02*
X141074000Y-139830000D01*
X146428000Y-139870000D02*
X144804000Y-139870000D01*
X142724000Y-139870000D02*
X141100000Y-139870000D01*
X146400000Y-139910000D02*
X144804000Y-139910000D01*
X142724000Y-139910000D02*
X141128000Y-139910000D01*
X146371000Y-139950000D02*
X144804000Y-139950000D01*
X142724000Y-139950000D02*
X141157000Y-139950000D01*
X146342000Y-139990000D02*
X144804000Y-139990000D01*
X142724000Y-139990000D02*
X141186000Y-139990000D01*
X146312000Y-140030000D02*
X144804000Y-140030000D01*
X142724000Y-140030000D02*
X141216000Y-140030000D01*
X146280000Y-140070000D02*
X144804000Y-140070000D01*
X142724000Y-140070000D02*
X141248000Y-140070000D01*
X146248000Y-140110000D02*
X144804000Y-140110000D01*
X142724000Y-140110000D02*
X141280000Y-140110000D01*
X146214000Y-140150000D02*
X144804000Y-140150000D01*
X142724000Y-140150000D02*
X141314000Y-140150000D01*
X146180000Y-140190000D02*
X144804000Y-140190000D01*
X142724000Y-140190000D02*
X141348000Y-140190000D01*
X146144000Y-140230000D02*
X144804000Y-140230000D01*
X142724000Y-140230000D02*
X141384000Y-140230000D01*
X146107000Y-140270000D02*
X144804000Y-140270000D01*
X142724000Y-140270000D02*
X141421000Y-140270000D01*
X146069000Y-140310000D02*
X144804000Y-140310000D01*
X142724000Y-140310000D02*
X141459000Y-140310000D01*
X146029000Y-140350000D02*
X141499000Y-140350000D01*
X145988000Y-140390000D02*
X141540000Y-140390000D01*
X145946000Y-140430000D02*
X141582000Y-140430000D01*
X145901000Y-140470000D02*
X141627000Y-140470000D01*
X145856000Y-140510000D02*
X141672000Y-140510000D01*
X145808000Y-140550000D02*
X141720000Y-140550000D01*
X145759000Y-140590000D02*
X141769000Y-140590000D01*
X145708000Y-140630000D02*
X141820000Y-140630000D01*
X145654000Y-140670000D02*
X141874000Y-140670000D01*
X145598000Y-140710000D02*
X141930000Y-140710000D01*
X145540000Y-140750000D02*
X141988000Y-140750000D01*
X145478000Y-140790000D02*
X142050000Y-140790000D01*
X145414000Y-140830000D02*
X142114000Y-140830000D01*
X145345000Y-140870000D02*
X142183000Y-140870000D01*
X145273000Y-140910000D02*
X142255000Y-140910000D01*
X145196000Y-140950000D02*
X142332000Y-140950000D01*
X145114000Y-140990000D02*
X142414000Y-140990000D01*
X145026000Y-141030000D02*
X142502000Y-141030000D01*
X144929000Y-141070000D02*
X142599000Y-141070000D01*
X144823000Y-141110000D02*
X142705000Y-141110000D01*
X144704000Y-141150000D02*
X142824000Y-141150000D01*
X144566000Y-141190000D02*
X142962000Y-141190000D01*
X144397000Y-141230000D02*
X143131000Y-141230000D01*
X144166000Y-141270000D02*
X143362000Y-141270000D01*
X145603000Y-134528759D02*
X145603000Y-135158759D01*
X145918000Y-134843759D02*
X145288000Y-134843759D01*
%TO.C,U1*%
X132985000Y-123892000D02*
X131735000Y-123892000D01*
X131735000Y-123892000D02*
X131735000Y-134172000D01*
X131735000Y-134172000D02*
X136235000Y-134172000D01*
X136235000Y-134172000D02*
X136235000Y-123892000D01*
X136235000Y-123892000D02*
X134985000Y-123892000D01*
X134985000Y-123892000D02*
G75*
G02*
X132985000Y-123892000I-1000000J0D01*
G01*
%TO.C,Q6*%
X128997000Y-153846000D02*
X132847000Y-153846000D01*
X133239383Y-153258264D02*
G75*
G02*
X132847000Y-153846000I-2302383J1112264D01*
G01*
X133293400Y-151047193D02*
G75*
G03*
X130937000Y-149546000I-2356400J-1098807D01*
G01*
X128580600Y-151047193D02*
G75*
G02*
X130937000Y-149546000I2356400J-1098807D01*
G01*
X128614369Y-153268045D02*
G75*
G03*
X128997000Y-153846000I2322631J1122045D01*
G01*
%TO.C,Q5*%
X160606000Y-82261000D02*
X160606000Y-86111000D01*
X161193736Y-86503383D02*
G75*
G02*
X160606000Y-86111000I1112264J2302383D01*
G01*
X163404807Y-86557400D02*
G75*
G03*
X164906000Y-84201000I-1098807J2356400D01*
G01*
X163404807Y-81844600D02*
G75*
G02*
X164906000Y-84201000I-1098807J-2356400D01*
G01*
X161183955Y-81878369D02*
G75*
G03*
X160606000Y-82261000I1122045J-2322631D01*
G01*
%TO.C,Q4*%
X129251000Y-96442000D02*
X133101000Y-96442000D01*
X133493383Y-95854264D02*
G75*
G02*
X133101000Y-96442000I-2302383J1112264D01*
G01*
X133547400Y-93643193D02*
G75*
G03*
X131191000Y-92142000I-2356400J-1098807D01*
G01*
X128834600Y-93643193D02*
G75*
G02*
X131191000Y-92142000I2356400J-1098807D01*
G01*
X128868369Y-95864045D02*
G75*
G03*
X129251000Y-96442000I2322631J1122045D01*
G01*
%TO.C,Q3*%
X164514000Y-106588000D02*
X164514000Y-102738000D01*
X163926264Y-102345617D02*
G75*
G02*
X164514000Y-102738000I-1112264J-2302383D01*
G01*
X161715193Y-102291600D02*
G75*
G03*
X160214000Y-104648000I1098807J-2356400D01*
G01*
X161715193Y-107004400D02*
G75*
G02*
X160214000Y-104648000I1098807J2356400D01*
G01*
X163936045Y-106970631D02*
G75*
G03*
X164514000Y-106588000I-1122045J2322631D01*
G01*
%TO.C,Q2*%
X165276000Y-119796000D02*
X165276000Y-115946000D01*
X164688264Y-115553617D02*
G75*
G02*
X165276000Y-115946000I-1112264J-2302383D01*
G01*
X162477193Y-115499600D02*
G75*
G03*
X160976000Y-117856000I1098807J-2356400D01*
G01*
X162477193Y-120212400D02*
G75*
G02*
X160976000Y-117856000I1098807J2356400D01*
G01*
X164698045Y-120178631D02*
G75*
G03*
X165276000Y-119796000I-1122045J2322631D01*
G01*
%TO.C,Q1*%
X127840000Y-81499000D02*
X127840000Y-85349000D01*
X128427736Y-85741383D02*
G75*
G02*
X127840000Y-85349000I1112264J2302383D01*
G01*
X130638807Y-85795400D02*
G75*
G03*
X132140000Y-83439000I-1098807J2356400D01*
G01*
X130638807Y-81082600D02*
G75*
G02*
X132140000Y-83439000I-1098807J-2356400D01*
G01*
X128417955Y-81116369D02*
G75*
G03*
X127840000Y-81499000I1122045J-2322631D01*
G01*
%TO.C,C16*%
X131355252Y-138197000D02*
X129932748Y-138197000D01*
X131355252Y-136377000D02*
X129932748Y-136377000D01*
%TO.C,C15*%
X137579252Y-122449000D02*
X136156748Y-122449000D01*
X137579252Y-120629000D02*
X136156748Y-120629000D01*
%TO.C,J1*%
X164961000Y-151768000D02*
X155841000Y-151768000D01*
X155841000Y-151768000D02*
X155841000Y-131188000D01*
X155841000Y-131188000D02*
X164961000Y-131188000D01*
X164961000Y-131188000D02*
X164961000Y-151768000D01*
X164961000Y-143528000D02*
X163651000Y-143528000D01*
X163651000Y-143528000D02*
X163651000Y-150468000D01*
X163651000Y-150468000D02*
X157151000Y-150468000D01*
X157151000Y-150468000D02*
X157151000Y-132488000D01*
X157151000Y-132488000D02*
X163651000Y-132488000D01*
X163651000Y-132488000D02*
X163651000Y-139428000D01*
X163651000Y-139428000D02*
X163651000Y-139428000D01*
X163651000Y-139428000D02*
X164961000Y-139428000D01*
X165351000Y-146558000D02*
X166351000Y-147058000D01*
X166351000Y-147058000D02*
X166351000Y-146058000D01*
X166351000Y-146058000D02*
X165351000Y-146558000D01*
%TO.C,C18*%
X137822000Y-160555000D02*
X143062000Y-160555000D01*
X137822000Y-163295000D02*
X143062000Y-163295000D01*
X137822000Y-160555000D02*
X137822000Y-163295000D01*
X143062000Y-160555000D02*
X143062000Y-163295000D01*
%TO.C,C11*%
X134911252Y-67331000D02*
X133488748Y-67331000D01*
X134911252Y-65511000D02*
X133488748Y-65511000D01*
%TO.C,C14*%
X139942000Y-88773000D02*
G75*
G03*
X139942000Y-88773000I-3270000J0D01*
G01*
X136672000Y-92003000D02*
X136672000Y-85543000D01*
X136632000Y-92003000D02*
X136632000Y-85543000D01*
X136592000Y-92003000D02*
X136592000Y-85543000D01*
X136552000Y-92001000D02*
X136552000Y-85545000D01*
X136512000Y-92000000D02*
X136512000Y-85546000D01*
X136472000Y-91997000D02*
X136472000Y-85549000D01*
X136432000Y-91995000D02*
X136432000Y-89813000D01*
X136432000Y-87733000D02*
X136432000Y-85551000D01*
X136392000Y-91991000D02*
X136392000Y-89813000D01*
X136392000Y-87733000D02*
X136392000Y-85555000D01*
X136352000Y-91988000D02*
X136352000Y-89813000D01*
X136352000Y-87733000D02*
X136352000Y-85558000D01*
X136312000Y-91984000D02*
X136312000Y-89813000D01*
X136312000Y-87733000D02*
X136312000Y-85562000D01*
X136272000Y-91979000D02*
X136272000Y-89813000D01*
X136272000Y-87733000D02*
X136272000Y-85567000D01*
X136232000Y-91974000D02*
X136232000Y-89813000D01*
X136232000Y-87733000D02*
X136232000Y-85572000D01*
X136192000Y-91968000D02*
X136192000Y-89813000D01*
X136192000Y-87733000D02*
X136192000Y-85578000D01*
X136152000Y-91962000D02*
X136152000Y-89813000D01*
X136152000Y-87733000D02*
X136152000Y-85584000D01*
X136112000Y-91955000D02*
X136112000Y-89813000D01*
X136112000Y-87733000D02*
X136112000Y-85591000D01*
X136072000Y-91948000D02*
X136072000Y-89813000D01*
X136072000Y-87733000D02*
X136072000Y-85598000D01*
X136032000Y-91940000D02*
X136032000Y-89813000D01*
X136032000Y-87733000D02*
X136032000Y-85606000D01*
X135992000Y-91932000D02*
X135992000Y-89813000D01*
X135992000Y-87733000D02*
X135992000Y-85614000D01*
X135951000Y-91923000D02*
X135951000Y-89813000D01*
X135951000Y-87733000D02*
X135951000Y-85623000D01*
X135911000Y-91914000D02*
X135911000Y-89813000D01*
X135911000Y-87733000D02*
X135911000Y-85632000D01*
X135871000Y-91904000D02*
X135871000Y-89813000D01*
X135871000Y-87733000D02*
X135871000Y-85642000D01*
X135831000Y-91894000D02*
X135831000Y-89813000D01*
X135831000Y-87733000D02*
X135831000Y-85652000D01*
X135791000Y-91883000D02*
X135791000Y-89813000D01*
X135791000Y-87733000D02*
X135791000Y-85663000D01*
X135751000Y-91871000D02*
X135751000Y-89813000D01*
X135751000Y-87733000D02*
X135751000Y-85675000D01*
X135711000Y-91859000D02*
X135711000Y-89813000D01*
X135711000Y-87733000D02*
X135711000Y-85687000D01*
X135671000Y-91847000D02*
X135671000Y-89813000D01*
X135671000Y-87733000D02*
X135671000Y-85699000D01*
X135631000Y-91834000D02*
X135631000Y-89813000D01*
X135631000Y-87733000D02*
X135631000Y-85712000D01*
X135591000Y-91820000D02*
X135591000Y-89813000D01*
X135591000Y-87733000D02*
X135591000Y-85726000D01*
X135551000Y-91806000D02*
X135551000Y-89813000D01*
X135551000Y-87733000D02*
X135551000Y-85740000D01*
X135511000Y-91791000D02*
X135511000Y-89813000D01*
X135511000Y-87733000D02*
X135511000Y-85755000D01*
X135471000Y-91775000D02*
X135471000Y-89813000D01*
X135471000Y-87733000D02*
X135471000Y-85771000D01*
X135431000Y-91759000D02*
X135431000Y-89813000D01*
X135431000Y-87733000D02*
X135431000Y-85787000D01*
X135391000Y-91743000D02*
X135391000Y-89813000D01*
X135391000Y-87733000D02*
X135391000Y-85803000D01*
X135351000Y-91725000D02*
X135351000Y-89813000D01*
X135351000Y-87733000D02*
X135351000Y-85821000D01*
X135311000Y-91707000D02*
X135311000Y-89813000D01*
X135311000Y-87733000D02*
X135311000Y-85839000D01*
X135271000Y-91689000D02*
X135271000Y-89813000D01*
X135271000Y-87733000D02*
X135271000Y-85857000D01*
X135231000Y-91669000D02*
X135231000Y-89813000D01*
X135231000Y-87733000D02*
X135231000Y-85877000D01*
X135191000Y-91649000D02*
X135191000Y-89813000D01*
X135191000Y-87733000D02*
X135191000Y-85897000D01*
X135151000Y-91629000D02*
X135151000Y-89813000D01*
X135151000Y-87733000D02*
X135151000Y-85917000D01*
X135111000Y-91607000D02*
X135111000Y-89813000D01*
X135111000Y-87733000D02*
X135111000Y-85939000D01*
X135071000Y-91585000D02*
X135071000Y-89813000D01*
X135071000Y-87733000D02*
X135071000Y-85961000D01*
X135031000Y-91563000D02*
X135031000Y-89813000D01*
X135031000Y-87733000D02*
X135031000Y-85983000D01*
X134991000Y-91539000D02*
X134991000Y-89813000D01*
X134991000Y-87733000D02*
X134991000Y-86007000D01*
X134951000Y-91515000D02*
X134951000Y-89813000D01*
X134951000Y-87733000D02*
X134951000Y-86031000D01*
X134911000Y-91489000D02*
X134911000Y-89813000D01*
X134911000Y-87733000D02*
X134911000Y-86057000D01*
X134871000Y-91463000D02*
X134871000Y-89813000D01*
X134871000Y-87733000D02*
X134871000Y-86083000D01*
X134831000Y-91437000D02*
X134831000Y-89813000D01*
X134831000Y-87733000D02*
X134831000Y-86109000D01*
X134791000Y-91409000D02*
X134791000Y-89813000D01*
X134791000Y-87733000D02*
X134791000Y-86137000D01*
X134751000Y-91380000D02*
X134751000Y-89813000D01*
X134751000Y-87733000D02*
X134751000Y-86166000D01*
X134711000Y-91351000D02*
X134711000Y-89813000D01*
X134711000Y-87733000D02*
X134711000Y-86195000D01*
X134671000Y-91321000D02*
X134671000Y-89813000D01*
X134671000Y-87733000D02*
X134671000Y-86225000D01*
X134631000Y-91289000D02*
X134631000Y-89813000D01*
X134631000Y-87733000D02*
X134631000Y-86257000D01*
X134591000Y-91257000D02*
X134591000Y-89813000D01*
X134591000Y-87733000D02*
X134591000Y-86289000D01*
X134551000Y-91223000D02*
X134551000Y-89813000D01*
X134551000Y-87733000D02*
X134551000Y-86323000D01*
X134511000Y-91189000D02*
X134511000Y-89813000D01*
X134511000Y-87733000D02*
X134511000Y-86357000D01*
X134471000Y-91153000D02*
X134471000Y-89813000D01*
X134471000Y-87733000D02*
X134471000Y-86393000D01*
X134431000Y-91116000D02*
X134431000Y-89813000D01*
X134431000Y-87733000D02*
X134431000Y-86430000D01*
X134391000Y-91078000D02*
X134391000Y-89813000D01*
X134391000Y-87733000D02*
X134391000Y-86468000D01*
X134351000Y-91038000D02*
X134351000Y-86508000D01*
X134311000Y-90997000D02*
X134311000Y-86549000D01*
X134271000Y-90955000D02*
X134271000Y-86591000D01*
X134231000Y-90910000D02*
X134231000Y-86636000D01*
X134191000Y-90865000D02*
X134191000Y-86681000D01*
X134151000Y-90817000D02*
X134151000Y-86729000D01*
X134111000Y-90768000D02*
X134111000Y-86778000D01*
X134071000Y-90717000D02*
X134071000Y-86829000D01*
X134031000Y-90663000D02*
X134031000Y-86883000D01*
X133991000Y-90607000D02*
X133991000Y-86939000D01*
X133951000Y-90549000D02*
X133951000Y-86997000D01*
X133911000Y-90487000D02*
X133911000Y-87059000D01*
X133871000Y-90423000D02*
X133871000Y-87123000D01*
X133831000Y-90354000D02*
X133831000Y-87192000D01*
X133791000Y-90282000D02*
X133791000Y-87264000D01*
X133751000Y-90205000D02*
X133751000Y-87341000D01*
X133711000Y-90123000D02*
X133711000Y-87423000D01*
X133671000Y-90035000D02*
X133671000Y-87511000D01*
X133631000Y-89938000D02*
X133631000Y-87608000D01*
X133591000Y-89832000D02*
X133591000Y-87714000D01*
X133551000Y-89713000D02*
X133551000Y-87833000D01*
X133511000Y-89575000D02*
X133511000Y-87971000D01*
X133471000Y-89406000D02*
X133471000Y-88140000D01*
X133431000Y-89175000D02*
X133431000Y-88371000D01*
X140172241Y-90612000D02*
X139542241Y-90612000D01*
X139857241Y-90927000D02*
X139857241Y-90297000D01*
%TO.C,C10*%
X151992000Y-71401000D02*
X151992000Y-76641000D01*
X149252000Y-71401000D02*
X149252000Y-76641000D01*
X151992000Y-71401000D02*
X149252000Y-71401000D01*
X151992000Y-76641000D02*
X149252000Y-76641000D01*
%TO.C,C9*%
X152119000Y-64543000D02*
X152119000Y-69783000D01*
X149379000Y-64543000D02*
X149379000Y-69783000D01*
X152119000Y-64543000D02*
X149379000Y-64543000D01*
X152119000Y-69783000D02*
X149379000Y-69783000D01*
%TO.C,C8*%
X127789000Y-108231000D02*
X133029000Y-108231000D01*
X127789000Y-110971000D02*
X133029000Y-110971000D01*
X127789000Y-108231000D02*
X127789000Y-110971000D01*
X133029000Y-108231000D02*
X133029000Y-110971000D01*
%TO.C,C7*%
X159485000Y-99668000D02*
X154245000Y-99668000D01*
X159485000Y-96928000D02*
X154245000Y-96928000D01*
X159485000Y-99668000D02*
X159485000Y-96928000D01*
X154245000Y-99668000D02*
X154245000Y-96928000D01*
%TO.C,C6*%
X147807000Y-152437252D02*
X147807000Y-151014748D01*
X149627000Y-152437252D02*
X149627000Y-151014748D01*
%TO.C,C5*%
X148569000Y-142735252D02*
X148569000Y-141312748D01*
X150389000Y-142735252D02*
X150389000Y-141312748D01*
%TO.C,C4*%
X129463748Y-88498000D02*
X130886252Y-88498000D01*
X129463748Y-90318000D02*
X130886252Y-90318000D01*
%TO.C,C1*%
X157595252Y-120290000D02*
X156172748Y-120290000D01*
X157595252Y-118470000D02*
X156172748Y-118470000D01*
%TO.C,R26*%
D13*
X135375714Y-165461904D02*
X135109047Y-165080952D01*
X134918571Y-165461904D02*
X134918571Y-164661904D01*
X135223333Y-164661904D01*
X135299523Y-164700000D01*
X135337619Y-164738095D01*
X135375714Y-164814285D01*
X135375714Y-164928571D01*
X135337619Y-165004761D01*
X135299523Y-165042857D01*
X135223333Y-165080952D01*
X134918571Y-165080952D01*
X135680476Y-164738095D02*
X135718571Y-164700000D01*
X135794761Y-164661904D01*
X135985238Y-164661904D01*
X136061428Y-164700000D01*
X136099523Y-164738095D01*
X136137619Y-164814285D01*
X136137619Y-164890476D01*
X136099523Y-165004761D01*
X135642380Y-165461904D01*
X136137619Y-165461904D01*
X136823333Y-164661904D02*
X136670952Y-164661904D01*
X136594761Y-164700000D01*
X136556666Y-164738095D01*
X136480476Y-164852380D01*
X136442380Y-165004761D01*
X136442380Y-165309523D01*
X136480476Y-165385714D01*
X136518571Y-165423809D01*
X136594761Y-165461904D01*
X136747142Y-165461904D01*
X136823333Y-165423809D01*
X136861428Y-165385714D01*
X136899523Y-165309523D01*
X136899523Y-165119047D01*
X136861428Y-165042857D01*
X136823333Y-165004761D01*
X136747142Y-164966666D01*
X136594761Y-164966666D01*
X136518571Y-165004761D01*
X136480476Y-165042857D01*
X136442380Y-165119047D01*
X135718571Y-159492904D02*
X135261428Y-159492904D01*
X135490000Y-159492904D02*
X135490000Y-158692904D01*
X135413809Y-158807190D01*
X135337619Y-158883380D01*
X135261428Y-158921476D01*
X136061428Y-159492904D02*
X136061428Y-158692904D01*
X136518571Y-159492904D02*
X136175714Y-159035761D01*
X136518571Y-158692904D02*
X136061428Y-159150047D01*
%TO.C,R25*%
X145154714Y-162286904D02*
X144888047Y-161905952D01*
X144697571Y-162286904D02*
X144697571Y-161486904D01*
X145002333Y-161486904D01*
X145078523Y-161525000D01*
X145116619Y-161563095D01*
X145154714Y-161639285D01*
X145154714Y-161753571D01*
X145116619Y-161829761D01*
X145078523Y-161867857D01*
X145002333Y-161905952D01*
X144697571Y-161905952D01*
X145459476Y-161563095D02*
X145497571Y-161525000D01*
X145573761Y-161486904D01*
X145764238Y-161486904D01*
X145840428Y-161525000D01*
X145878523Y-161563095D01*
X145916619Y-161639285D01*
X145916619Y-161715476D01*
X145878523Y-161829761D01*
X145421380Y-162286904D01*
X145916619Y-162286904D01*
X146640428Y-161486904D02*
X146259476Y-161486904D01*
X146221380Y-161867857D01*
X146259476Y-161829761D01*
X146335666Y-161791666D01*
X146526142Y-161791666D01*
X146602333Y-161829761D01*
X146640428Y-161867857D01*
X146678523Y-161944047D01*
X146678523Y-162134523D01*
X146640428Y-162210714D01*
X146602333Y-162248809D01*
X146526142Y-162286904D01*
X146335666Y-162286904D01*
X146259476Y-162248809D01*
X146221380Y-162210714D01*
X144913428Y-155390904D02*
X144761047Y-155390904D01*
X144684857Y-155429000D01*
X144646761Y-155467095D01*
X144570571Y-155581380D01*
X144532476Y-155733761D01*
X144532476Y-156038523D01*
X144570571Y-156114714D01*
X144608666Y-156152809D01*
X144684857Y-156190904D01*
X144837238Y-156190904D01*
X144913428Y-156152809D01*
X144951523Y-156114714D01*
X144989619Y-156038523D01*
X144989619Y-155848047D01*
X144951523Y-155771857D01*
X144913428Y-155733761D01*
X144837238Y-155695666D01*
X144684857Y-155695666D01*
X144608666Y-155733761D01*
X144570571Y-155771857D01*
X144532476Y-155848047D01*
X145332476Y-156190904D02*
X145332476Y-155390904D01*
X145789619Y-156190904D02*
X145446761Y-155733761D01*
X145789619Y-155390904D02*
X145332476Y-155848047D01*
X146246761Y-155733761D02*
X146170571Y-155695666D01*
X146132476Y-155657571D01*
X146094380Y-155581380D01*
X146094380Y-155543285D01*
X146132476Y-155467095D01*
X146170571Y-155429000D01*
X146246761Y-155390904D01*
X146399142Y-155390904D01*
X146475333Y-155429000D01*
X146513428Y-155467095D01*
X146551523Y-155543285D01*
X146551523Y-155581380D01*
X146513428Y-155657571D01*
X146475333Y-155695666D01*
X146399142Y-155733761D01*
X146246761Y-155733761D01*
X146170571Y-155771857D01*
X146132476Y-155809952D01*
X146094380Y-155886142D01*
X146094380Y-156038523D01*
X146132476Y-156114714D01*
X146170571Y-156152809D01*
X146246761Y-156190904D01*
X146399142Y-156190904D01*
X146475333Y-156152809D01*
X146513428Y-156114714D01*
X146551523Y-156038523D01*
X146551523Y-155886142D01*
X146513428Y-155809952D01*
X146475333Y-155771857D01*
X146399142Y-155733761D01*
%TO.C,R24*%
X128644714Y-165487904D02*
X128378047Y-165106952D01*
X128187571Y-165487904D02*
X128187571Y-164687904D01*
X128492333Y-164687904D01*
X128568523Y-164726000D01*
X128606619Y-164764095D01*
X128644714Y-164840285D01*
X128644714Y-164954571D01*
X128606619Y-165030761D01*
X128568523Y-165068857D01*
X128492333Y-165106952D01*
X128187571Y-165106952D01*
X128949476Y-164764095D02*
X128987571Y-164726000D01*
X129063761Y-164687904D01*
X129254238Y-164687904D01*
X129330428Y-164726000D01*
X129368523Y-164764095D01*
X129406619Y-164840285D01*
X129406619Y-164916476D01*
X129368523Y-165030761D01*
X128911380Y-165487904D01*
X129406619Y-165487904D01*
X130092333Y-164954571D02*
X130092333Y-165487904D01*
X129901857Y-164649809D02*
X129711380Y-165221238D01*
X130206619Y-165221238D01*
X128225666Y-159645904D02*
X127768523Y-159645904D01*
X127997095Y-159645904D02*
X127997095Y-158845904D01*
X127920904Y-158960190D01*
X127844714Y-159036380D01*
X127768523Y-159074476D01*
X128720904Y-158845904D02*
X128797095Y-158845904D01*
X128873285Y-158884000D01*
X128911380Y-158922095D01*
X128949476Y-158998285D01*
X128987571Y-159150666D01*
X128987571Y-159341142D01*
X128949476Y-159493523D01*
X128911380Y-159569714D01*
X128873285Y-159607809D01*
X128797095Y-159645904D01*
X128720904Y-159645904D01*
X128644714Y-159607809D01*
X128606619Y-159569714D01*
X128568523Y-159493523D01*
X128530428Y-159341142D01*
X128530428Y-159150666D01*
X128568523Y-158998285D01*
X128606619Y-158922095D01*
X128644714Y-158884000D01*
X128720904Y-158845904D01*
X129482809Y-158845904D02*
X129559000Y-158845904D01*
X129635190Y-158884000D01*
X129673285Y-158922095D01*
X129711380Y-158998285D01*
X129749476Y-159150666D01*
X129749476Y-159341142D01*
X129711380Y-159493523D01*
X129673285Y-159569714D01*
X129635190Y-159607809D01*
X129559000Y-159645904D01*
X129482809Y-159645904D01*
X129406619Y-159607809D01*
X129368523Y-159569714D01*
X129330428Y-159493523D01*
X129292333Y-159341142D01*
X129292333Y-159150666D01*
X129330428Y-158998285D01*
X129368523Y-158922095D01*
X129406619Y-158884000D01*
X129482809Y-158845904D01*
X130092333Y-159645904D02*
X130092333Y-158845904D01*
X130549476Y-159645904D02*
X130206619Y-159188761D01*
X130549476Y-158845904D02*
X130092333Y-159303047D01*
%TO.C,R23*%
X141090714Y-158603904D02*
X140824047Y-158222952D01*
X140633571Y-158603904D02*
X140633571Y-157803904D01*
X140938333Y-157803904D01*
X141014523Y-157842000D01*
X141052619Y-157880095D01*
X141090714Y-157956285D01*
X141090714Y-158070571D01*
X141052619Y-158146761D01*
X141014523Y-158184857D01*
X140938333Y-158222952D01*
X140633571Y-158222952D01*
X141395476Y-157880095D02*
X141433571Y-157842000D01*
X141509761Y-157803904D01*
X141700238Y-157803904D01*
X141776428Y-157842000D01*
X141814523Y-157880095D01*
X141852619Y-157956285D01*
X141852619Y-158032476D01*
X141814523Y-158146761D01*
X141357380Y-158603904D01*
X141852619Y-158603904D01*
X142119285Y-157803904D02*
X142614523Y-157803904D01*
X142347857Y-158108666D01*
X142462142Y-158108666D01*
X142538333Y-158146761D01*
X142576428Y-158184857D01*
X142614523Y-158261047D01*
X142614523Y-158451523D01*
X142576428Y-158527714D01*
X142538333Y-158565809D01*
X142462142Y-158603904D01*
X142233571Y-158603904D01*
X142157380Y-158565809D01*
X142119285Y-158527714D01*
X138157666Y-155428904D02*
X137700523Y-155428904D01*
X137929095Y-155428904D02*
X137929095Y-154628904D01*
X137852904Y-154743190D01*
X137776714Y-154819380D01*
X137700523Y-154857476D01*
X138652904Y-154628904D02*
X138729095Y-154628904D01*
X138805285Y-154667000D01*
X138843380Y-154705095D01*
X138881476Y-154781285D01*
X138919571Y-154933666D01*
X138919571Y-155124142D01*
X138881476Y-155276523D01*
X138843380Y-155352714D01*
X138805285Y-155390809D01*
X138729095Y-155428904D01*
X138652904Y-155428904D01*
X138576714Y-155390809D01*
X138538619Y-155352714D01*
X138500523Y-155276523D01*
X138462428Y-155124142D01*
X138462428Y-154933666D01*
X138500523Y-154781285D01*
X138538619Y-154705095D01*
X138576714Y-154667000D01*
X138652904Y-154628904D01*
X139414809Y-154628904D02*
X139491000Y-154628904D01*
X139567190Y-154667000D01*
X139605285Y-154705095D01*
X139643380Y-154781285D01*
X139681476Y-154933666D01*
X139681476Y-155124142D01*
X139643380Y-155276523D01*
X139605285Y-155352714D01*
X139567190Y-155390809D01*
X139491000Y-155428904D01*
X139414809Y-155428904D01*
X139338619Y-155390809D01*
X139300523Y-155352714D01*
X139262428Y-155276523D01*
X139224333Y-155124142D01*
X139224333Y-154933666D01*
X139262428Y-154781285D01*
X139300523Y-154705095D01*
X139338619Y-154667000D01*
X139414809Y-154628904D01*
X140024333Y-155428904D02*
X140024333Y-154628904D01*
X140481476Y-155428904D02*
X140138619Y-154971761D01*
X140481476Y-154628904D02*
X140024333Y-155086047D01*
%TO.C,R22*%
X132327714Y-148697904D02*
X132061047Y-148316952D01*
X131870571Y-148697904D02*
X131870571Y-147897904D01*
X132175333Y-147897904D01*
X132251523Y-147936000D01*
X132289619Y-147974095D01*
X132327714Y-148050285D01*
X132327714Y-148164571D01*
X132289619Y-148240761D01*
X132251523Y-148278857D01*
X132175333Y-148316952D01*
X131870571Y-148316952D01*
X132632476Y-147974095D02*
X132670571Y-147936000D01*
X132746761Y-147897904D01*
X132937238Y-147897904D01*
X133013428Y-147936000D01*
X133051523Y-147974095D01*
X133089619Y-148050285D01*
X133089619Y-148126476D01*
X133051523Y-148240761D01*
X132594380Y-148697904D01*
X133089619Y-148697904D01*
X133394380Y-147974095D02*
X133432476Y-147936000D01*
X133508666Y-147897904D01*
X133699142Y-147897904D01*
X133775333Y-147936000D01*
X133813428Y-147974095D01*
X133851523Y-148050285D01*
X133851523Y-148126476D01*
X133813428Y-148240761D01*
X133356285Y-148697904D01*
X133851523Y-148697904D01*
X129063857Y-145065761D02*
X128987666Y-145027666D01*
X128949571Y-144989571D01*
X128911476Y-144913380D01*
X128911476Y-144875285D01*
X128949571Y-144799095D01*
X128987666Y-144761000D01*
X129063857Y-144722904D01*
X129216238Y-144722904D01*
X129292428Y-144761000D01*
X129330523Y-144799095D01*
X129368619Y-144875285D01*
X129368619Y-144913380D01*
X129330523Y-144989571D01*
X129292428Y-145027666D01*
X129216238Y-145065761D01*
X129063857Y-145065761D01*
X128987666Y-145103857D01*
X128949571Y-145141952D01*
X128911476Y-145218142D01*
X128911476Y-145370523D01*
X128949571Y-145446714D01*
X128987666Y-145484809D01*
X129063857Y-145522904D01*
X129216238Y-145522904D01*
X129292428Y-145484809D01*
X129330523Y-145446714D01*
X129368619Y-145370523D01*
X129368619Y-145218142D01*
X129330523Y-145141952D01*
X129292428Y-145103857D01*
X129216238Y-145065761D01*
X129673380Y-144799095D02*
X129711476Y-144761000D01*
X129787666Y-144722904D01*
X129978142Y-144722904D01*
X130054333Y-144761000D01*
X130092428Y-144799095D01*
X130130523Y-144875285D01*
X130130523Y-144951476D01*
X130092428Y-145065761D01*
X129635285Y-145522904D01*
X130130523Y-145522904D01*
X130473380Y-145522904D02*
X130473380Y-144722904D01*
X130930523Y-145522904D02*
X130587666Y-145065761D01*
X130930523Y-144722904D02*
X130473380Y-145180047D01*
%TO.C,R21*%
X143871904Y-128074285D02*
X143490952Y-128340952D01*
X143871904Y-128531428D02*
X143071904Y-128531428D01*
X143071904Y-128226666D01*
X143110000Y-128150476D01*
X143148095Y-128112380D01*
X143224285Y-128074285D01*
X143338571Y-128074285D01*
X143414761Y-128112380D01*
X143452857Y-128150476D01*
X143490952Y-128226666D01*
X143490952Y-128531428D01*
X143148095Y-127769523D02*
X143110000Y-127731428D01*
X143071904Y-127655238D01*
X143071904Y-127464761D01*
X143110000Y-127388571D01*
X143148095Y-127350476D01*
X143224285Y-127312380D01*
X143300476Y-127312380D01*
X143414761Y-127350476D01*
X143871904Y-127807619D01*
X143871904Y-127312380D01*
X143871904Y-126550476D02*
X143871904Y-127007619D01*
X143871904Y-126779047D02*
X143071904Y-126779047D01*
X143186190Y-126855238D01*
X143262380Y-126931428D01*
X143300476Y-127007619D01*
X140036571Y-131109571D02*
X140569904Y-131109571D01*
X139731809Y-131300047D02*
X140303238Y-131490523D01*
X140303238Y-130995285D01*
X139769904Y-130766714D02*
X139769904Y-130233380D01*
X140569904Y-130576238D01*
X140569904Y-129928619D02*
X139769904Y-129928619D01*
X140569904Y-129471476D02*
X140112761Y-129814333D01*
X139769904Y-129471476D02*
X140227047Y-129928619D01*
%TO.C,R20*%
X137788714Y-139426904D02*
X137522047Y-139045952D01*
X137331571Y-139426904D02*
X137331571Y-138626904D01*
X137636333Y-138626904D01*
X137712523Y-138665000D01*
X137750619Y-138703095D01*
X137788714Y-138779285D01*
X137788714Y-138893571D01*
X137750619Y-138969761D01*
X137712523Y-139007857D01*
X137636333Y-139045952D01*
X137331571Y-139045952D01*
X138093476Y-138703095D02*
X138131571Y-138665000D01*
X138207761Y-138626904D01*
X138398238Y-138626904D01*
X138474428Y-138665000D01*
X138512523Y-138703095D01*
X138550619Y-138779285D01*
X138550619Y-138855476D01*
X138512523Y-138969761D01*
X138055380Y-139426904D01*
X138550619Y-139426904D01*
X139045857Y-138626904D02*
X139122047Y-138626904D01*
X139198238Y-138665000D01*
X139236333Y-138703095D01*
X139274428Y-138779285D01*
X139312523Y-138931666D01*
X139312523Y-139122142D01*
X139274428Y-139274523D01*
X139236333Y-139350714D01*
X139198238Y-139388809D01*
X139122047Y-139426904D01*
X139045857Y-139426904D01*
X138969666Y-139388809D01*
X138931571Y-139350714D01*
X138893476Y-139274523D01*
X138855380Y-139122142D01*
X138855380Y-138931666D01*
X138893476Y-138779285D01*
X138931571Y-138703095D01*
X138969666Y-138665000D01*
X139045857Y-138626904D01*
X134626476Y-135274095D02*
X134664571Y-135236000D01*
X134740761Y-135197904D01*
X134931238Y-135197904D01*
X135007428Y-135236000D01*
X135045523Y-135274095D01*
X135083619Y-135350285D01*
X135083619Y-135426476D01*
X135045523Y-135540761D01*
X134588380Y-135997904D01*
X135083619Y-135997904D01*
X135388380Y-135274095D02*
X135426476Y-135236000D01*
X135502666Y-135197904D01*
X135693142Y-135197904D01*
X135769333Y-135236000D01*
X135807428Y-135274095D01*
X135845523Y-135350285D01*
X135845523Y-135426476D01*
X135807428Y-135540761D01*
X135350285Y-135997904D01*
X135845523Y-135997904D01*
X136188380Y-135997904D02*
X136188380Y-135197904D01*
X136645523Y-135997904D02*
X136302666Y-135540761D01*
X136645523Y-135197904D02*
X136188380Y-135655047D01*
%TO.C,R19*%
X134206714Y-76222904D02*
X133940047Y-75841952D01*
X133749571Y-76222904D02*
X133749571Y-75422904D01*
X134054333Y-75422904D01*
X134130523Y-75461000D01*
X134168619Y-75499095D01*
X134206714Y-75575285D01*
X134206714Y-75689571D01*
X134168619Y-75765761D01*
X134130523Y-75803857D01*
X134054333Y-75841952D01*
X133749571Y-75841952D01*
X134968619Y-76222904D02*
X134511476Y-76222904D01*
X134740047Y-76222904D02*
X134740047Y-75422904D01*
X134663857Y-75537190D01*
X134587666Y-75613380D01*
X134511476Y-75651476D01*
X135349571Y-76222904D02*
X135501952Y-76222904D01*
X135578142Y-76184809D01*
X135616238Y-76146714D01*
X135692428Y-76032428D01*
X135730523Y-75880047D01*
X135730523Y-75575285D01*
X135692428Y-75499095D01*
X135654333Y-75461000D01*
X135578142Y-75422904D01*
X135425761Y-75422904D01*
X135349571Y-75461000D01*
X135311476Y-75499095D01*
X135273380Y-75575285D01*
X135273380Y-75765761D01*
X135311476Y-75841952D01*
X135349571Y-75880047D01*
X135425761Y-75918142D01*
X135578142Y-75918142D01*
X135654333Y-75880047D01*
X135692428Y-75841952D01*
X135730523Y-75765761D01*
X134168619Y-72582904D02*
X133711476Y-72582904D01*
X133940047Y-72582904D02*
X133940047Y-71782904D01*
X133863857Y-71897190D01*
X133787666Y-71973380D01*
X133711476Y-72011476D01*
X134663857Y-71782904D02*
X134740047Y-71782904D01*
X134816238Y-71821000D01*
X134854333Y-71859095D01*
X134892428Y-71935285D01*
X134930523Y-72087666D01*
X134930523Y-72278142D01*
X134892428Y-72430523D01*
X134854333Y-72506714D01*
X134816238Y-72544809D01*
X134740047Y-72582904D01*
X134663857Y-72582904D01*
X134587666Y-72544809D01*
X134549571Y-72506714D01*
X134511476Y-72430523D01*
X134473380Y-72278142D01*
X134473380Y-72087666D01*
X134511476Y-71935285D01*
X134549571Y-71859095D01*
X134587666Y-71821000D01*
X134663857Y-71782904D01*
X135273380Y-72582904D02*
X135273380Y-71782904D01*
X135730523Y-72582904D02*
X135387666Y-72125761D01*
X135730523Y-71782904D02*
X135273380Y-72240047D01*
%TO.C,R18*%
X147694714Y-91293904D02*
X147428047Y-90912952D01*
X147237571Y-91293904D02*
X147237571Y-90493904D01*
X147542333Y-90493904D01*
X147618523Y-90532000D01*
X147656619Y-90570095D01*
X147694714Y-90646285D01*
X147694714Y-90760571D01*
X147656619Y-90836761D01*
X147618523Y-90874857D01*
X147542333Y-90912952D01*
X147237571Y-90912952D01*
X148456619Y-91293904D02*
X147999476Y-91293904D01*
X148228047Y-91293904D02*
X148228047Y-90493904D01*
X148151857Y-90608190D01*
X148075666Y-90684380D01*
X147999476Y-90722476D01*
X148913761Y-90836761D02*
X148837571Y-90798666D01*
X148799476Y-90760571D01*
X148761380Y-90684380D01*
X148761380Y-90646285D01*
X148799476Y-90570095D01*
X148837571Y-90532000D01*
X148913761Y-90493904D01*
X149066142Y-90493904D01*
X149142333Y-90532000D01*
X149180428Y-90570095D01*
X149218523Y-90646285D01*
X149218523Y-90684380D01*
X149180428Y-90760571D01*
X149142333Y-90798666D01*
X149066142Y-90836761D01*
X148913761Y-90836761D01*
X148837571Y-90874857D01*
X148799476Y-90912952D01*
X148761380Y-90989142D01*
X148761380Y-91141523D01*
X148799476Y-91217714D01*
X148837571Y-91255809D01*
X148913761Y-91293904D01*
X149066142Y-91293904D01*
X149142333Y-91255809D01*
X149180428Y-91217714D01*
X149218523Y-91141523D01*
X149218523Y-90989142D01*
X149180428Y-90912952D01*
X149142333Y-90874857D01*
X149066142Y-90836761D01*
X144532428Y-87458571D02*
X144532428Y-87991904D01*
X144341952Y-87153809D02*
X144151476Y-87725238D01*
X144646714Y-87725238D01*
X144875285Y-87191904D02*
X145408619Y-87191904D01*
X145065761Y-87991904D01*
X145713380Y-87991904D02*
X145713380Y-87191904D01*
X146170523Y-87991904D02*
X145827666Y-87534761D01*
X146170523Y-87191904D02*
X145713380Y-87649047D01*
%TO.C,R17*%
X159759714Y-75164904D02*
X159493047Y-74783952D01*
X159302571Y-75164904D02*
X159302571Y-74364904D01*
X159607333Y-74364904D01*
X159683523Y-74403000D01*
X159721619Y-74441095D01*
X159759714Y-74517285D01*
X159759714Y-74631571D01*
X159721619Y-74707761D01*
X159683523Y-74745857D01*
X159607333Y-74783952D01*
X159302571Y-74783952D01*
X160521619Y-75164904D02*
X160064476Y-75164904D01*
X160293047Y-75164904D02*
X160293047Y-74364904D01*
X160216857Y-74479190D01*
X160140666Y-74555380D01*
X160064476Y-74593476D01*
X160788285Y-74364904D02*
X161321619Y-74364904D01*
X160978761Y-75164904D01*
X156978476Y-71329571D02*
X156978476Y-71862904D01*
X156788000Y-71024809D02*
X156597523Y-71596238D01*
X157092761Y-71596238D01*
X157321333Y-71062904D02*
X157854666Y-71062904D01*
X157511809Y-71862904D01*
X158311809Y-71062904D02*
X158388000Y-71062904D01*
X158464190Y-71101000D01*
X158502285Y-71139095D01*
X158540380Y-71215285D01*
X158578476Y-71367666D01*
X158578476Y-71558142D01*
X158540380Y-71710523D01*
X158502285Y-71786714D01*
X158464190Y-71824809D01*
X158388000Y-71862904D01*
X158311809Y-71862904D01*
X158235619Y-71824809D01*
X158197523Y-71786714D01*
X158159428Y-71710523D01*
X158121333Y-71558142D01*
X158121333Y-71367666D01*
X158159428Y-71215285D01*
X158197523Y-71139095D01*
X158235619Y-71101000D01*
X158311809Y-71062904D01*
X158921333Y-71862904D02*
X158921333Y-71062904D01*
X159378476Y-71862904D02*
X159035619Y-71405761D01*
X159378476Y-71062904D02*
X158921333Y-71520047D01*
%TO.C,R16*%
X142868714Y-81810904D02*
X142602047Y-81429952D01*
X142411571Y-81810904D02*
X142411571Y-81010904D01*
X142716333Y-81010904D01*
X142792523Y-81049000D01*
X142830619Y-81087095D01*
X142868714Y-81163285D01*
X142868714Y-81277571D01*
X142830619Y-81353761D01*
X142792523Y-81391857D01*
X142716333Y-81429952D01*
X142411571Y-81429952D01*
X143630619Y-81810904D02*
X143173476Y-81810904D01*
X143402047Y-81810904D02*
X143402047Y-81010904D01*
X143325857Y-81125190D01*
X143249666Y-81201380D01*
X143173476Y-81239476D01*
X144316333Y-81010904D02*
X144163952Y-81010904D01*
X144087761Y-81049000D01*
X144049666Y-81087095D01*
X143973476Y-81201380D01*
X143935380Y-81353761D01*
X143935380Y-81658523D01*
X143973476Y-81734714D01*
X144011571Y-81772809D01*
X144087761Y-81810904D01*
X144240142Y-81810904D01*
X144316333Y-81772809D01*
X144354428Y-81734714D01*
X144392523Y-81658523D01*
X144392523Y-81468047D01*
X144354428Y-81391857D01*
X144316333Y-81353761D01*
X144240142Y-81315666D01*
X144087761Y-81315666D01*
X144011571Y-81353761D01*
X143973476Y-81391857D01*
X143935380Y-81468047D01*
X139579523Y-77489095D02*
X139617619Y-77451000D01*
X139693809Y-77412904D01*
X139884285Y-77412904D01*
X139960476Y-77451000D01*
X139998571Y-77489095D01*
X140036666Y-77565285D01*
X140036666Y-77641476D01*
X139998571Y-77755761D01*
X139541428Y-78212904D01*
X140036666Y-78212904D01*
X140341428Y-77489095D02*
X140379523Y-77451000D01*
X140455714Y-77412904D01*
X140646190Y-77412904D01*
X140722380Y-77451000D01*
X140760476Y-77489095D01*
X140798571Y-77565285D01*
X140798571Y-77641476D01*
X140760476Y-77755761D01*
X140303333Y-78212904D01*
X140798571Y-78212904D01*
X141293809Y-77412904D02*
X141370000Y-77412904D01*
X141446190Y-77451000D01*
X141484285Y-77489095D01*
X141522380Y-77565285D01*
X141560476Y-77717666D01*
X141560476Y-77908142D01*
X141522380Y-78060523D01*
X141484285Y-78136714D01*
X141446190Y-78174809D01*
X141370000Y-78212904D01*
X141293809Y-78212904D01*
X141217619Y-78174809D01*
X141179523Y-78136714D01*
X141141428Y-78060523D01*
X141103333Y-77908142D01*
X141103333Y-77717666D01*
X141141428Y-77565285D01*
X141179523Y-77489095D01*
X141217619Y-77451000D01*
X141293809Y-77412904D01*
X142360476Y-78212904D02*
X142093809Y-77831952D01*
X141903333Y-78212904D02*
X141903333Y-77412904D01*
X142208095Y-77412904D01*
X142284285Y-77451000D01*
X142322380Y-77489095D01*
X142360476Y-77565285D01*
X142360476Y-77679571D01*
X142322380Y-77755761D01*
X142284285Y-77793857D01*
X142208095Y-77831952D01*
X141903333Y-77831952D01*
%TO.C,R15*%
X147567714Y-86594904D02*
X147301047Y-86213952D01*
X147110571Y-86594904D02*
X147110571Y-85794904D01*
X147415333Y-85794904D01*
X147491523Y-85833000D01*
X147529619Y-85871095D01*
X147567714Y-85947285D01*
X147567714Y-86061571D01*
X147529619Y-86137761D01*
X147491523Y-86175857D01*
X147415333Y-86213952D01*
X147110571Y-86213952D01*
X148329619Y-86594904D02*
X147872476Y-86594904D01*
X148101047Y-86594904D02*
X148101047Y-85794904D01*
X148024857Y-85909190D01*
X147948666Y-85985380D01*
X147872476Y-86023476D01*
X149053428Y-85794904D02*
X148672476Y-85794904D01*
X148634380Y-86175857D01*
X148672476Y-86137761D01*
X148748666Y-86099666D01*
X148939142Y-86099666D01*
X149015333Y-86137761D01*
X149053428Y-86175857D01*
X149091523Y-86252047D01*
X149091523Y-86442523D01*
X149053428Y-86518714D01*
X149015333Y-86556809D01*
X148939142Y-86594904D01*
X148748666Y-86594904D01*
X148672476Y-86556809D01*
X148634380Y-86518714D01*
X144551428Y-83292904D02*
X144094285Y-83292904D01*
X144322857Y-83292904D02*
X144322857Y-82492904D01*
X144246666Y-82607190D01*
X144170476Y-82683380D01*
X144094285Y-82721476D01*
X144894285Y-83292904D02*
X144894285Y-82492904D01*
X145160952Y-83064333D01*
X145427619Y-82492904D01*
X145427619Y-83292904D01*
%TO.C,R14*%
X157652714Y-83292904D02*
X157386047Y-82911952D01*
X157195571Y-83292904D02*
X157195571Y-82492904D01*
X157500333Y-82492904D01*
X157576523Y-82531000D01*
X157614619Y-82569095D01*
X157652714Y-82645285D01*
X157652714Y-82759571D01*
X157614619Y-82835761D01*
X157576523Y-82873857D01*
X157500333Y-82911952D01*
X157195571Y-82911952D01*
X158414619Y-83292904D02*
X157957476Y-83292904D01*
X158186047Y-83292904D02*
X158186047Y-82492904D01*
X158109857Y-82607190D01*
X158033666Y-82683380D01*
X157957476Y-82721476D01*
X159100333Y-82759571D02*
X159100333Y-83292904D01*
X158909857Y-82454809D02*
X158719380Y-83026238D01*
X159214619Y-83026238D01*
X154490428Y-79457571D02*
X154490428Y-79990904D01*
X154299952Y-79152809D02*
X154109476Y-79724238D01*
X154604714Y-79724238D01*
X154833285Y-79190904D02*
X155366619Y-79190904D01*
X155023761Y-79990904D01*
X155671380Y-79990904D02*
X155671380Y-79190904D01*
X156128523Y-79990904D02*
X155785666Y-79533761D01*
X156128523Y-79190904D02*
X155671380Y-79648047D01*
%TO.C,R13*%
X131184714Y-115677904D02*
X130918047Y-115296952D01*
X130727571Y-115677904D02*
X130727571Y-114877904D01*
X131032333Y-114877904D01*
X131108523Y-114916000D01*
X131146619Y-114954095D01*
X131184714Y-115030285D01*
X131184714Y-115144571D01*
X131146619Y-115220761D01*
X131108523Y-115258857D01*
X131032333Y-115296952D01*
X130727571Y-115296952D01*
X131946619Y-115677904D02*
X131489476Y-115677904D01*
X131718047Y-115677904D02*
X131718047Y-114877904D01*
X131641857Y-114992190D01*
X131565666Y-115068380D01*
X131489476Y-115106476D01*
X132213285Y-114877904D02*
X132708523Y-114877904D01*
X132441857Y-115182666D01*
X132556142Y-115182666D01*
X132632333Y-115220761D01*
X132670428Y-115258857D01*
X132708523Y-115335047D01*
X132708523Y-115525523D01*
X132670428Y-115601714D01*
X132632333Y-115639809D01*
X132556142Y-115677904D01*
X132327571Y-115677904D01*
X132251380Y-115639809D01*
X132213285Y-115601714D01*
X128422428Y-112502904D02*
X127965285Y-112502904D01*
X128193857Y-112502904D02*
X128193857Y-111702904D01*
X128117666Y-111817190D01*
X128041476Y-111893380D01*
X127965285Y-111931476D01*
X128765285Y-112502904D02*
X128765285Y-111702904D01*
X129031952Y-112274333D01*
X129298619Y-111702904D01*
X129298619Y-112502904D01*
%TO.C,R12*%
X157727714Y-104628904D02*
X157461047Y-104247952D01*
X157270571Y-104628904D02*
X157270571Y-103828904D01*
X157575333Y-103828904D01*
X157651523Y-103867000D01*
X157689619Y-103905095D01*
X157727714Y-103981285D01*
X157727714Y-104095571D01*
X157689619Y-104171761D01*
X157651523Y-104209857D01*
X157575333Y-104247952D01*
X157270571Y-104247952D01*
X158489619Y-104628904D02*
X158032476Y-104628904D01*
X158261047Y-104628904D02*
X158261047Y-103828904D01*
X158184857Y-103943190D01*
X158108666Y-104019380D01*
X158032476Y-104057476D01*
X158794380Y-103905095D02*
X158832476Y-103867000D01*
X158908666Y-103828904D01*
X159099142Y-103828904D01*
X159175333Y-103867000D01*
X159213428Y-103905095D01*
X159251523Y-103981285D01*
X159251523Y-104057476D01*
X159213428Y-104171761D01*
X158756285Y-104628904D01*
X159251523Y-104628904D01*
X154819428Y-100793571D02*
X154819428Y-101326904D01*
X154628952Y-100488809D02*
X154438476Y-101060238D01*
X154933714Y-101060238D01*
X155238476Y-101326904D02*
X155238476Y-100526904D01*
X155695619Y-101326904D02*
X155352761Y-100869761D01*
X155695619Y-100526904D02*
X155238476Y-100984047D01*
X155962285Y-100526904D02*
X156495619Y-100526904D01*
X156152761Y-101326904D01*
%TO.C,R11*%
X157753714Y-88118904D02*
X157487047Y-87737952D01*
X157296571Y-88118904D02*
X157296571Y-87318904D01*
X157601333Y-87318904D01*
X157677523Y-87357000D01*
X157715619Y-87395095D01*
X157753714Y-87471285D01*
X157753714Y-87585571D01*
X157715619Y-87661761D01*
X157677523Y-87699857D01*
X157601333Y-87737952D01*
X157296571Y-87737952D01*
X158515619Y-88118904D02*
X158058476Y-88118904D01*
X158287047Y-88118904D02*
X158287047Y-87318904D01*
X158210857Y-87433190D01*
X158134666Y-87509380D01*
X158058476Y-87547476D01*
X159277523Y-88118904D02*
X158820380Y-88118904D01*
X159048952Y-88118904D02*
X159048952Y-87318904D01*
X158972761Y-87433190D01*
X158896571Y-87509380D01*
X158820380Y-87547476D01*
X154667666Y-84816904D02*
X154210523Y-84816904D01*
X154439095Y-84816904D02*
X154439095Y-84016904D01*
X154362904Y-84131190D01*
X154286714Y-84207380D01*
X154210523Y-84245476D01*
X155162904Y-84016904D02*
X155239095Y-84016904D01*
X155315285Y-84055000D01*
X155353380Y-84093095D01*
X155391476Y-84169285D01*
X155429571Y-84321666D01*
X155429571Y-84512142D01*
X155391476Y-84664523D01*
X155353380Y-84740714D01*
X155315285Y-84778809D01*
X155239095Y-84816904D01*
X155162904Y-84816904D01*
X155086714Y-84778809D01*
X155048619Y-84740714D01*
X155010523Y-84664523D01*
X154972428Y-84512142D01*
X154972428Y-84321666D01*
X155010523Y-84169285D01*
X155048619Y-84093095D01*
X155086714Y-84055000D01*
X155162904Y-84016904D01*
X155924809Y-84016904D02*
X156001000Y-84016904D01*
X156077190Y-84055000D01*
X156115285Y-84093095D01*
X156153380Y-84169285D01*
X156191476Y-84321666D01*
X156191476Y-84512142D01*
X156153380Y-84664523D01*
X156115285Y-84740714D01*
X156077190Y-84778809D01*
X156001000Y-84816904D01*
X155924809Y-84816904D01*
X155848619Y-84778809D01*
X155810523Y-84740714D01*
X155772428Y-84664523D01*
X155734333Y-84512142D01*
X155734333Y-84321666D01*
X155772428Y-84169285D01*
X155810523Y-84093095D01*
X155848619Y-84055000D01*
X155924809Y-84016904D01*
X156534333Y-84816904D02*
X156534333Y-84016904D01*
X156991476Y-84816904D02*
X156648619Y-84359761D01*
X156991476Y-84016904D02*
X156534333Y-84474047D01*
%TO.C,R10*%
X157421714Y-96246904D02*
X157155047Y-95865952D01*
X156964571Y-96246904D02*
X156964571Y-95446904D01*
X157269333Y-95446904D01*
X157345523Y-95485000D01*
X157383619Y-95523095D01*
X157421714Y-95599285D01*
X157421714Y-95713571D01*
X157383619Y-95789761D01*
X157345523Y-95827857D01*
X157269333Y-95865952D01*
X156964571Y-95865952D01*
X158183619Y-96246904D02*
X157726476Y-96246904D01*
X157955047Y-96246904D02*
X157955047Y-95446904D01*
X157878857Y-95561190D01*
X157802666Y-95637380D01*
X157726476Y-95675476D01*
X158678857Y-95446904D02*
X158755047Y-95446904D01*
X158831238Y-95485000D01*
X158869333Y-95523095D01*
X158907428Y-95599285D01*
X158945523Y-95751666D01*
X158945523Y-95942142D01*
X158907428Y-96094523D01*
X158869333Y-96170714D01*
X158831238Y-96208809D01*
X158755047Y-96246904D01*
X158678857Y-96246904D01*
X158602666Y-96208809D01*
X158564571Y-96170714D01*
X158526476Y-96094523D01*
X158488380Y-95942142D01*
X158488380Y-95751666D01*
X158526476Y-95599285D01*
X158564571Y-95523095D01*
X158602666Y-95485000D01*
X158678857Y-95446904D01*
X154589666Y-93071904D02*
X154132523Y-93071904D01*
X154361095Y-93071904D02*
X154361095Y-92271904D01*
X154284904Y-92386190D01*
X154208714Y-92462380D01*
X154132523Y-92500476D01*
X155084904Y-92271904D02*
X155161095Y-92271904D01*
X155237285Y-92310000D01*
X155275380Y-92348095D01*
X155313476Y-92424285D01*
X155351571Y-92576666D01*
X155351571Y-92767142D01*
X155313476Y-92919523D01*
X155275380Y-92995714D01*
X155237285Y-93033809D01*
X155161095Y-93071904D01*
X155084904Y-93071904D01*
X155008714Y-93033809D01*
X154970619Y-92995714D01*
X154932523Y-92919523D01*
X154894428Y-92767142D01*
X154894428Y-92576666D01*
X154932523Y-92424285D01*
X154970619Y-92348095D01*
X155008714Y-92310000D01*
X155084904Y-92271904D01*
X155846809Y-92271904D02*
X155923000Y-92271904D01*
X155999190Y-92310000D01*
X156037285Y-92348095D01*
X156075380Y-92424285D01*
X156113476Y-92576666D01*
X156113476Y-92767142D01*
X156075380Y-92919523D01*
X156037285Y-92995714D01*
X155999190Y-93033809D01*
X155923000Y-93071904D01*
X155846809Y-93071904D01*
X155770619Y-93033809D01*
X155732523Y-92995714D01*
X155694428Y-92919523D01*
X155656333Y-92767142D01*
X155656333Y-92576666D01*
X155694428Y-92424285D01*
X155732523Y-92348095D01*
X155770619Y-92310000D01*
X155846809Y-92271904D01*
X156456333Y-93071904D02*
X156456333Y-92271904D01*
X156913476Y-93071904D02*
X156570619Y-92614761D01*
X156913476Y-92271904D02*
X156456333Y-92729047D01*
%TO.C,R9*%
X131946666Y-106914904D02*
X131680000Y-106533952D01*
X131489523Y-106914904D02*
X131489523Y-106114904D01*
X131794285Y-106114904D01*
X131870476Y-106153000D01*
X131908571Y-106191095D01*
X131946666Y-106267285D01*
X131946666Y-106381571D01*
X131908571Y-106457761D01*
X131870476Y-106495857D01*
X131794285Y-106533952D01*
X131489523Y-106533952D01*
X132327619Y-106914904D02*
X132480000Y-106914904D01*
X132556190Y-106876809D01*
X132594285Y-106838714D01*
X132670476Y-106724428D01*
X132708571Y-106572047D01*
X132708571Y-106267285D01*
X132670476Y-106191095D01*
X132632380Y-106153000D01*
X132556190Y-106114904D01*
X132403809Y-106114904D01*
X132327619Y-106153000D01*
X132289523Y-106191095D01*
X132251428Y-106267285D01*
X132251428Y-106457761D01*
X132289523Y-106533952D01*
X132327619Y-106572047D01*
X132403809Y-106610142D01*
X132556190Y-106610142D01*
X132632380Y-106572047D01*
X132670476Y-106533952D01*
X132708571Y-106457761D01*
X127895476Y-102889095D02*
X127933571Y-102851000D01*
X128009761Y-102812904D01*
X128200238Y-102812904D01*
X128276428Y-102851000D01*
X128314523Y-102889095D01*
X128352619Y-102965285D01*
X128352619Y-103041476D01*
X128314523Y-103155761D01*
X127857380Y-103612904D01*
X128352619Y-103612904D01*
X128657380Y-102889095D02*
X128695476Y-102851000D01*
X128771666Y-102812904D01*
X128962142Y-102812904D01*
X129038333Y-102851000D01*
X129076428Y-102889095D01*
X129114523Y-102965285D01*
X129114523Y-103041476D01*
X129076428Y-103155761D01*
X128619285Y-103612904D01*
X129114523Y-103612904D01*
X129457380Y-103612904D02*
X129457380Y-102812904D01*
X129914523Y-103612904D02*
X129571666Y-103155761D01*
X129914523Y-102812904D02*
X129457380Y-103270047D01*
%TO.C,R8*%
X158541666Y-113010904D02*
X158275000Y-112629952D01*
X158084523Y-113010904D02*
X158084523Y-112210904D01*
X158389285Y-112210904D01*
X158465476Y-112249000D01*
X158503571Y-112287095D01*
X158541666Y-112363285D01*
X158541666Y-112477571D01*
X158503571Y-112553761D01*
X158465476Y-112591857D01*
X158389285Y-112629952D01*
X158084523Y-112629952D01*
X158998809Y-112553761D02*
X158922619Y-112515666D01*
X158884523Y-112477571D01*
X158846428Y-112401380D01*
X158846428Y-112363285D01*
X158884523Y-112287095D01*
X158922619Y-112249000D01*
X158998809Y-112210904D01*
X159151190Y-112210904D01*
X159227380Y-112249000D01*
X159265476Y-112287095D01*
X159303571Y-112363285D01*
X159303571Y-112401380D01*
X159265476Y-112477571D01*
X159227380Y-112515666D01*
X159151190Y-112553761D01*
X158998809Y-112553761D01*
X158922619Y-112591857D01*
X158884523Y-112629952D01*
X158846428Y-112706142D01*
X158846428Y-112858523D01*
X158884523Y-112934714D01*
X158922619Y-112972809D01*
X158998809Y-113010904D01*
X159151190Y-113010904D01*
X159227380Y-112972809D01*
X159265476Y-112934714D01*
X159303571Y-112858523D01*
X159303571Y-112706142D01*
X159265476Y-112629952D01*
X159227380Y-112591857D01*
X159151190Y-112553761D01*
X154820619Y-109835904D02*
X154363476Y-109835904D01*
X154592047Y-109835904D02*
X154592047Y-109035904D01*
X154515857Y-109150190D01*
X154439666Y-109226380D01*
X154363476Y-109264476D01*
X155315857Y-109035904D02*
X155392047Y-109035904D01*
X155468238Y-109074000D01*
X155506333Y-109112095D01*
X155544428Y-109188285D01*
X155582523Y-109340666D01*
X155582523Y-109531142D01*
X155544428Y-109683523D01*
X155506333Y-109759714D01*
X155468238Y-109797809D01*
X155392047Y-109835904D01*
X155315857Y-109835904D01*
X155239666Y-109797809D01*
X155201571Y-109759714D01*
X155163476Y-109683523D01*
X155125380Y-109531142D01*
X155125380Y-109340666D01*
X155163476Y-109188285D01*
X155201571Y-109112095D01*
X155239666Y-109074000D01*
X155315857Y-109035904D01*
X155925380Y-109835904D02*
X155925380Y-109035904D01*
X156382523Y-109835904D02*
X156039666Y-109378761D01*
X156382523Y-109035904D02*
X155925380Y-109493047D01*
%TO.C,R7*%
X158414666Y-108819904D02*
X158148000Y-108438952D01*
X157957523Y-108819904D02*
X157957523Y-108019904D01*
X158262285Y-108019904D01*
X158338476Y-108058000D01*
X158376571Y-108096095D01*
X158414666Y-108172285D01*
X158414666Y-108286571D01*
X158376571Y-108362761D01*
X158338476Y-108400857D01*
X158262285Y-108438952D01*
X157957523Y-108438952D01*
X158681333Y-108019904D02*
X159214666Y-108019904D01*
X158871809Y-108819904D01*
X154744428Y-105111571D02*
X154744428Y-105644904D01*
X154553952Y-104806809D02*
X154363476Y-105378238D01*
X154858714Y-105378238D01*
X155163476Y-105644904D02*
X155163476Y-104844904D01*
X155620619Y-105644904D02*
X155277761Y-105187761D01*
X155620619Y-104844904D02*
X155163476Y-105302047D01*
X155887285Y-104844904D02*
X156420619Y-104844904D01*
X156077761Y-105644904D01*
%TO.C,R6*%
X131845666Y-102469904D02*
X131579000Y-102088952D01*
X131388523Y-102469904D02*
X131388523Y-101669904D01*
X131693285Y-101669904D01*
X131769476Y-101708000D01*
X131807571Y-101746095D01*
X131845666Y-101822285D01*
X131845666Y-101936571D01*
X131807571Y-102012761D01*
X131769476Y-102050857D01*
X131693285Y-102088952D01*
X131388523Y-102088952D01*
X132531380Y-101669904D02*
X132379000Y-101669904D01*
X132302809Y-101708000D01*
X132264714Y-101746095D01*
X132188523Y-101860380D01*
X132150428Y-102012761D01*
X132150428Y-102317523D01*
X132188523Y-102393714D01*
X132226619Y-102431809D01*
X132302809Y-102469904D01*
X132455190Y-102469904D01*
X132531380Y-102431809D01*
X132569476Y-102393714D01*
X132607571Y-102317523D01*
X132607571Y-102127047D01*
X132569476Y-102050857D01*
X132531380Y-102012761D01*
X132455190Y-101974666D01*
X132302809Y-101974666D01*
X132226619Y-102012761D01*
X132188523Y-102050857D01*
X132150428Y-102127047D01*
X128321428Y-99167904D02*
X127864285Y-99167904D01*
X128092857Y-99167904D02*
X128092857Y-98367904D01*
X128016666Y-98482190D01*
X127940476Y-98558380D01*
X127864285Y-98596476D01*
X128664285Y-99167904D02*
X128664285Y-98367904D01*
X128930952Y-98939333D01*
X129197619Y-98367904D01*
X129197619Y-99167904D01*
%TO.C,R5*%
X155161666Y-122535904D02*
X154895000Y-122154952D01*
X154704523Y-122535904D02*
X154704523Y-121735904D01*
X155009285Y-121735904D01*
X155085476Y-121774000D01*
X155123571Y-121812095D01*
X155161666Y-121888285D01*
X155161666Y-122002571D01*
X155123571Y-122078761D01*
X155085476Y-122116857D01*
X155009285Y-122154952D01*
X154704523Y-122154952D01*
X155885476Y-121735904D02*
X155504523Y-121735904D01*
X155466428Y-122116857D01*
X155504523Y-122078761D01*
X155580714Y-122040666D01*
X155771190Y-122040666D01*
X155847380Y-122078761D01*
X155885476Y-122116857D01*
X155923571Y-122193047D01*
X155923571Y-122383523D01*
X155885476Y-122459714D01*
X155847380Y-122497809D01*
X155771190Y-122535904D01*
X155580714Y-122535904D01*
X155504523Y-122497809D01*
X155466428Y-122459714D01*
X157917619Y-125710904D02*
X157460476Y-125710904D01*
X157689047Y-125710904D02*
X157689047Y-124910904D01*
X157612857Y-125025190D01*
X157536666Y-125101380D01*
X157460476Y-125139476D01*
X158412857Y-124910904D02*
X158489047Y-124910904D01*
X158565238Y-124949000D01*
X158603333Y-124987095D01*
X158641428Y-125063285D01*
X158679523Y-125215666D01*
X158679523Y-125406142D01*
X158641428Y-125558523D01*
X158603333Y-125634714D01*
X158565238Y-125672809D01*
X158489047Y-125710904D01*
X158412857Y-125710904D01*
X158336666Y-125672809D01*
X158298571Y-125634714D01*
X158260476Y-125558523D01*
X158222380Y-125406142D01*
X158222380Y-125215666D01*
X158260476Y-125063285D01*
X158298571Y-124987095D01*
X158336666Y-124949000D01*
X158412857Y-124910904D01*
X159022380Y-125710904D02*
X159022380Y-124910904D01*
X159479523Y-125710904D02*
X159136666Y-125253761D01*
X159479523Y-124910904D02*
X159022380Y-125368047D01*
%TO.C,R4*%
X158541666Y-117328904D02*
X158275000Y-116947952D01*
X158084523Y-117328904D02*
X158084523Y-116528904D01*
X158389285Y-116528904D01*
X158465476Y-116567000D01*
X158503571Y-116605095D01*
X158541666Y-116681285D01*
X158541666Y-116795571D01*
X158503571Y-116871761D01*
X158465476Y-116909857D01*
X158389285Y-116947952D01*
X158084523Y-116947952D01*
X159227380Y-116795571D02*
X159227380Y-117328904D01*
X159036904Y-116490809D02*
X158846428Y-117062238D01*
X159341666Y-117062238D01*
X154490476Y-113430095D02*
X154528571Y-113392000D01*
X154604761Y-113353904D01*
X154795238Y-113353904D01*
X154871428Y-113392000D01*
X154909523Y-113430095D01*
X154947619Y-113506285D01*
X154947619Y-113582476D01*
X154909523Y-113696761D01*
X154452380Y-114153904D01*
X154947619Y-114153904D01*
X155252380Y-113430095D02*
X155290476Y-113392000D01*
X155366666Y-113353904D01*
X155557142Y-113353904D01*
X155633333Y-113392000D01*
X155671428Y-113430095D01*
X155709523Y-113506285D01*
X155709523Y-113582476D01*
X155671428Y-113696761D01*
X155214285Y-114153904D01*
X155709523Y-114153904D01*
X156052380Y-114153904D02*
X156052380Y-113353904D01*
X156509523Y-114153904D02*
X156166666Y-113696761D01*
X156509523Y-113353904D02*
X156052380Y-113811047D01*
%TO.C,R3*%
X143884666Y-76942904D02*
X143618000Y-76561952D01*
X143427523Y-76942904D02*
X143427523Y-76142904D01*
X143732285Y-76142904D01*
X143808476Y-76181000D01*
X143846571Y-76219095D01*
X143884666Y-76295285D01*
X143884666Y-76409571D01*
X143846571Y-76485761D01*
X143808476Y-76523857D01*
X143732285Y-76561952D01*
X143427523Y-76561952D01*
X144151333Y-76142904D02*
X144646571Y-76142904D01*
X144379904Y-76447666D01*
X144494190Y-76447666D01*
X144570380Y-76485761D01*
X144608476Y-76523857D01*
X144646571Y-76600047D01*
X144646571Y-76790523D01*
X144608476Y-76866714D01*
X144570380Y-76904809D01*
X144494190Y-76942904D01*
X144265619Y-76942904D01*
X144189428Y-76904809D01*
X144151333Y-76866714D01*
X139833476Y-72917095D02*
X139871571Y-72879000D01*
X139947761Y-72840904D01*
X140138238Y-72840904D01*
X140214428Y-72879000D01*
X140252523Y-72917095D01*
X140290619Y-72993285D01*
X140290619Y-73069476D01*
X140252523Y-73183761D01*
X139795380Y-73640904D01*
X140290619Y-73640904D01*
X140633476Y-73640904D02*
X140633476Y-72840904D01*
X141090619Y-73640904D02*
X140747761Y-73183761D01*
X141090619Y-72840904D02*
X140633476Y-73298047D01*
X141357285Y-72840904D02*
X141890619Y-72840904D01*
X141547761Y-73640904D01*
%TO.C,R2*%
X152393666Y-83292904D02*
X152127000Y-82911952D01*
X151936523Y-83292904D02*
X151936523Y-82492904D01*
X152241285Y-82492904D01*
X152317476Y-82531000D01*
X152355571Y-82569095D01*
X152393666Y-82645285D01*
X152393666Y-82759571D01*
X152355571Y-82835761D01*
X152317476Y-82873857D01*
X152241285Y-82911952D01*
X151936523Y-82911952D01*
X152698428Y-82569095D02*
X152736523Y-82531000D01*
X152812714Y-82492904D01*
X153003190Y-82492904D01*
X153079380Y-82531000D01*
X153117476Y-82569095D01*
X153155571Y-82645285D01*
X153155571Y-82721476D01*
X153117476Y-82835761D01*
X152660333Y-83292904D01*
X153155571Y-83292904D01*
X148621857Y-79533761D02*
X148545666Y-79495666D01*
X148507571Y-79457571D01*
X148469476Y-79381380D01*
X148469476Y-79343285D01*
X148507571Y-79267095D01*
X148545666Y-79229000D01*
X148621857Y-79190904D01*
X148774238Y-79190904D01*
X148850428Y-79229000D01*
X148888523Y-79267095D01*
X148926619Y-79343285D01*
X148926619Y-79381380D01*
X148888523Y-79457571D01*
X148850428Y-79495666D01*
X148774238Y-79533761D01*
X148621857Y-79533761D01*
X148545666Y-79571857D01*
X148507571Y-79609952D01*
X148469476Y-79686142D01*
X148469476Y-79838523D01*
X148507571Y-79914714D01*
X148545666Y-79952809D01*
X148621857Y-79990904D01*
X148774238Y-79990904D01*
X148850428Y-79952809D01*
X148888523Y-79914714D01*
X148926619Y-79838523D01*
X148926619Y-79686142D01*
X148888523Y-79609952D01*
X148850428Y-79571857D01*
X148774238Y-79533761D01*
X149269476Y-79990904D02*
X149269476Y-79190904D01*
X149726619Y-79990904D02*
X149383761Y-79533761D01*
X149726619Y-79190904D02*
X149269476Y-79648047D01*
X150031380Y-79267095D02*
X150069476Y-79229000D01*
X150145666Y-79190904D01*
X150336142Y-79190904D01*
X150412333Y-79229000D01*
X150450428Y-79267095D01*
X150488523Y-79343285D01*
X150488523Y-79419476D01*
X150450428Y-79533761D01*
X149993285Y-79990904D01*
X150488523Y-79990904D01*
%TO.C,R1*%
X148430666Y-122535904D02*
X148164000Y-122154952D01*
X147973523Y-122535904D02*
X147973523Y-121735904D01*
X148278285Y-121735904D01*
X148354476Y-121774000D01*
X148392571Y-121812095D01*
X148430666Y-121888285D01*
X148430666Y-122002571D01*
X148392571Y-122078761D01*
X148354476Y-122116857D01*
X148278285Y-122154952D01*
X147973523Y-122154952D01*
X149192571Y-122535904D02*
X148735428Y-122535904D01*
X148964000Y-122535904D02*
X148964000Y-121735904D01*
X148887809Y-121850190D01*
X148811619Y-121926380D01*
X148735428Y-121964476D01*
X144582666Y-119360904D02*
X144125523Y-119360904D01*
X144354095Y-119360904D02*
X144354095Y-118560904D01*
X144277904Y-118675190D01*
X144201714Y-118751380D01*
X144125523Y-118789476D01*
X145077904Y-118560904D02*
X145154095Y-118560904D01*
X145230285Y-118599000D01*
X145268380Y-118637095D01*
X145306476Y-118713285D01*
X145344571Y-118865666D01*
X145344571Y-119056142D01*
X145306476Y-119208523D01*
X145268380Y-119284714D01*
X145230285Y-119322809D01*
X145154095Y-119360904D01*
X145077904Y-119360904D01*
X145001714Y-119322809D01*
X144963619Y-119284714D01*
X144925523Y-119208523D01*
X144887428Y-119056142D01*
X144887428Y-118865666D01*
X144925523Y-118713285D01*
X144963619Y-118637095D01*
X145001714Y-118599000D01*
X145077904Y-118560904D01*
X145839809Y-118560904D02*
X145916000Y-118560904D01*
X145992190Y-118599000D01*
X146030285Y-118637095D01*
X146068380Y-118713285D01*
X146106476Y-118865666D01*
X146106476Y-119056142D01*
X146068380Y-119208523D01*
X146030285Y-119284714D01*
X145992190Y-119322809D01*
X145916000Y-119360904D01*
X145839809Y-119360904D01*
X145763619Y-119322809D01*
X145725523Y-119284714D01*
X145687428Y-119208523D01*
X145649333Y-119056142D01*
X145649333Y-118865666D01*
X145687428Y-118713285D01*
X145725523Y-118637095D01*
X145763619Y-118599000D01*
X145839809Y-118560904D01*
X146449333Y-119360904D02*
X146449333Y-118560904D01*
X146906476Y-119360904D02*
X146563619Y-118903761D01*
X146906476Y-118560904D02*
X146449333Y-119018047D01*
%TO.C,D5*%
X164318904Y-91268476D02*
X163518904Y-91268476D01*
X163518904Y-91078000D01*
X163557000Y-90963714D01*
X163633190Y-90887523D01*
X163709380Y-90849428D01*
X163861761Y-90811333D01*
X163976047Y-90811333D01*
X164128428Y-90849428D01*
X164204619Y-90887523D01*
X164280809Y-90963714D01*
X164318904Y-91078000D01*
X164318904Y-91268476D01*
X163518904Y-90087523D02*
X163518904Y-90468476D01*
X163899857Y-90506571D01*
X163861761Y-90468476D01*
X163823666Y-90392285D01*
X163823666Y-90201809D01*
X163861761Y-90125619D01*
X163899857Y-90087523D01*
X163976047Y-90049428D01*
X164166523Y-90049428D01*
X164242714Y-90087523D01*
X164280809Y-90125619D01*
X164318904Y-90201809D01*
X164318904Y-90392285D01*
X164280809Y-90468476D01*
X164242714Y-90506571D01*
X154495714Y-89388904D02*
X154038571Y-89388904D01*
X154267142Y-89388904D02*
X154267142Y-88588904D01*
X154190952Y-88703190D01*
X154114761Y-88779380D01*
X154038571Y-88817476D01*
X154838571Y-89388904D02*
X154838571Y-88588904D01*
X155295714Y-89388904D01*
X155295714Y-88588904D01*
X156019523Y-88855571D02*
X156019523Y-89388904D01*
X155829047Y-88550809D02*
X155638571Y-89122238D01*
X156133809Y-89122238D01*
X156857619Y-89388904D02*
X156400476Y-89388904D01*
X156629047Y-89388904D02*
X156629047Y-88588904D01*
X156552857Y-88703190D01*
X156476666Y-88779380D01*
X156400476Y-88817476D01*
X157543333Y-88855571D02*
X157543333Y-89388904D01*
X157352857Y-88550809D02*
X157162380Y-89122238D01*
X157657619Y-89122238D01*
X158076666Y-88931761D02*
X158000476Y-88893666D01*
X157962380Y-88855571D01*
X157924285Y-88779380D01*
X157924285Y-88741285D01*
X157962380Y-88665095D01*
X158000476Y-88627000D01*
X158076666Y-88588904D01*
X158229047Y-88588904D01*
X158305238Y-88627000D01*
X158343333Y-88665095D01*
X158381428Y-88741285D01*
X158381428Y-88779380D01*
X158343333Y-88855571D01*
X158305238Y-88893666D01*
X158229047Y-88931761D01*
X158076666Y-88931761D01*
X158000476Y-88969857D01*
X157962380Y-89007952D01*
X157924285Y-89084142D01*
X157924285Y-89236523D01*
X157962380Y-89312714D01*
X158000476Y-89350809D01*
X158076666Y-89388904D01*
X158229047Y-89388904D01*
X158305238Y-89350809D01*
X158343333Y-89312714D01*
X158381428Y-89236523D01*
X158381428Y-89084142D01*
X158343333Y-89007952D01*
X158305238Y-88969857D01*
X158229047Y-88931761D01*
%TO.C,D4*%
X127767523Y-119614904D02*
X127767523Y-118814904D01*
X127958000Y-118814904D01*
X128072285Y-118853000D01*
X128148476Y-118929190D01*
X128186571Y-119005380D01*
X128224666Y-119157761D01*
X128224666Y-119272047D01*
X128186571Y-119424428D01*
X128148476Y-119500619D01*
X128072285Y-119576809D01*
X127958000Y-119614904D01*
X127767523Y-119614904D01*
X128910380Y-119081571D02*
X128910380Y-119614904D01*
X128719904Y-118776809D02*
X128529428Y-119348238D01*
X129024666Y-119348238D01*
X133120714Y-116213904D02*
X132663571Y-116213904D01*
X132892142Y-116213904D02*
X132892142Y-115413904D01*
X132815952Y-115528190D01*
X132739761Y-115604380D01*
X132663571Y-115642476D01*
X133463571Y-116213904D02*
X133463571Y-115413904D01*
X133920714Y-116213904D01*
X133920714Y-115413904D01*
X134644523Y-115680571D02*
X134644523Y-116213904D01*
X134454047Y-115375809D02*
X134263571Y-115947238D01*
X134758809Y-115947238D01*
X135482619Y-116213904D02*
X135025476Y-116213904D01*
X135254047Y-116213904D02*
X135254047Y-115413904D01*
X135177857Y-115528190D01*
X135101666Y-115604380D01*
X135025476Y-115642476D01*
X136168333Y-115680571D02*
X136168333Y-116213904D01*
X135977857Y-115375809D02*
X135787380Y-115947238D01*
X136282619Y-115947238D01*
X136701666Y-115756761D02*
X136625476Y-115718666D01*
X136587380Y-115680571D01*
X136549285Y-115604380D01*
X136549285Y-115566285D01*
X136587380Y-115490095D01*
X136625476Y-115452000D01*
X136701666Y-115413904D01*
X136854047Y-115413904D01*
X136930238Y-115452000D01*
X136968333Y-115490095D01*
X137006428Y-115566285D01*
X137006428Y-115604380D01*
X136968333Y-115680571D01*
X136930238Y-115718666D01*
X136854047Y-115756761D01*
X136701666Y-115756761D01*
X136625476Y-115794857D01*
X136587380Y-115832952D01*
X136549285Y-115909142D01*
X136549285Y-116061523D01*
X136587380Y-116137714D01*
X136625476Y-116175809D01*
X136701666Y-116213904D01*
X136854047Y-116213904D01*
X136930238Y-116175809D01*
X136968333Y-116137714D01*
X137006428Y-116061523D01*
X137006428Y-115909142D01*
X136968333Y-115832952D01*
X136930238Y-115794857D01*
X136854047Y-115756761D01*
%TO.C,D3*%
X153333523Y-142982904D02*
X153333523Y-142182904D01*
X153524000Y-142182904D01*
X153638285Y-142221000D01*
X153714476Y-142297190D01*
X153752571Y-142373380D01*
X153790666Y-142525761D01*
X153790666Y-142640047D01*
X153752571Y-142792428D01*
X153714476Y-142868619D01*
X153638285Y-142944809D01*
X153524000Y-142982904D01*
X153333523Y-142982904D01*
X154057333Y-142182904D02*
X154552571Y-142182904D01*
X154285904Y-142487666D01*
X154400190Y-142487666D01*
X154476380Y-142525761D01*
X154514476Y-142563857D01*
X154552571Y-142640047D01*
X154552571Y-142830523D01*
X154514476Y-142906714D01*
X154476380Y-142944809D01*
X154400190Y-142982904D01*
X154171619Y-142982904D01*
X154095428Y-142944809D01*
X154057333Y-142906714D01*
X152088857Y-151974380D02*
X152126952Y-151860095D01*
X152165047Y-151822000D01*
X152241238Y-151783904D01*
X152355523Y-151783904D01*
X152431714Y-151822000D01*
X152469809Y-151860095D01*
X152507904Y-151936285D01*
X152507904Y-152241047D01*
X151707904Y-152241047D01*
X151707904Y-151974380D01*
X151746000Y-151898190D01*
X151784095Y-151860095D01*
X151860285Y-151822000D01*
X151936476Y-151822000D01*
X152012666Y-151860095D01*
X152050761Y-151898190D01*
X152088857Y-151974380D01*
X152088857Y-152241047D01*
X152279333Y-151479142D02*
X152279333Y-151098190D01*
X152507904Y-151555333D02*
X151707904Y-151288666D01*
X152507904Y-151022000D01*
X151707904Y-150869619D02*
X151707904Y-150412476D01*
X152507904Y-150641047D02*
X151707904Y-150641047D01*
X152050761Y-150031523D02*
X152012666Y-150107714D01*
X151974571Y-150145809D01*
X151898380Y-150183904D01*
X151860285Y-150183904D01*
X151784095Y-150145809D01*
X151746000Y-150107714D01*
X151707904Y-150031523D01*
X151707904Y-149879142D01*
X151746000Y-149802952D01*
X151784095Y-149764857D01*
X151860285Y-149726761D01*
X151898380Y-149726761D01*
X151974571Y-149764857D01*
X152012666Y-149802952D01*
X152050761Y-149879142D01*
X152050761Y-150031523D01*
X152088857Y-150107714D01*
X152126952Y-150145809D01*
X152203142Y-150183904D01*
X152355523Y-150183904D01*
X152431714Y-150145809D01*
X152469809Y-150107714D01*
X152507904Y-150031523D01*
X152507904Y-149879142D01*
X152469809Y-149802952D01*
X152431714Y-149764857D01*
X152355523Y-149726761D01*
X152203142Y-149726761D01*
X152126952Y-149764857D01*
X152088857Y-149802952D01*
X152050761Y-149879142D01*
X151707904Y-149002952D02*
X151707904Y-149383904D01*
X152088857Y-149422000D01*
X152050761Y-149383904D01*
X152012666Y-149307714D01*
X152012666Y-149117238D01*
X152050761Y-149041047D01*
X152088857Y-149002952D01*
X152165047Y-148964857D01*
X152355523Y-148964857D01*
X152431714Y-149002952D01*
X152469809Y-149041047D01*
X152507904Y-149117238D01*
X152507904Y-149307714D01*
X152469809Y-149383904D01*
X152431714Y-149422000D01*
%TO.C,D2*%
X153206523Y-130663904D02*
X153206523Y-129863904D01*
X153397000Y-129863904D01*
X153511285Y-129902000D01*
X153587476Y-129978190D01*
X153625571Y-130054380D01*
X153663666Y-130206761D01*
X153663666Y-130321047D01*
X153625571Y-130473428D01*
X153587476Y-130549619D01*
X153511285Y-130625809D01*
X153397000Y-130663904D01*
X153206523Y-130663904D01*
X153968428Y-129940095D02*
X154006523Y-129902000D01*
X154082714Y-129863904D01*
X154273190Y-129863904D01*
X154349380Y-129902000D01*
X154387476Y-129940095D01*
X154425571Y-130016285D01*
X154425571Y-130092476D01*
X154387476Y-130206761D01*
X153930333Y-130663904D01*
X154425571Y-130663904D01*
X152088857Y-139147380D02*
X152126952Y-139033095D01*
X152165047Y-138995000D01*
X152241238Y-138956904D01*
X152355523Y-138956904D01*
X152431714Y-138995000D01*
X152469809Y-139033095D01*
X152507904Y-139109285D01*
X152507904Y-139414047D01*
X151707904Y-139414047D01*
X151707904Y-139147380D01*
X151746000Y-139071190D01*
X151784095Y-139033095D01*
X151860285Y-138995000D01*
X151936476Y-138995000D01*
X152012666Y-139033095D01*
X152050761Y-139071190D01*
X152088857Y-139147380D01*
X152088857Y-139414047D01*
X152279333Y-138652142D02*
X152279333Y-138271190D01*
X152507904Y-138728333D02*
X151707904Y-138461666D01*
X152507904Y-138195000D01*
X151707904Y-138042619D02*
X151707904Y-137585476D01*
X152507904Y-137814047D02*
X151707904Y-137814047D01*
X152050761Y-137204523D02*
X152012666Y-137280714D01*
X151974571Y-137318809D01*
X151898380Y-137356904D01*
X151860285Y-137356904D01*
X151784095Y-137318809D01*
X151746000Y-137280714D01*
X151707904Y-137204523D01*
X151707904Y-137052142D01*
X151746000Y-136975952D01*
X151784095Y-136937857D01*
X151860285Y-136899761D01*
X151898380Y-136899761D01*
X151974571Y-136937857D01*
X152012666Y-136975952D01*
X152050761Y-137052142D01*
X152050761Y-137204523D01*
X152088857Y-137280714D01*
X152126952Y-137318809D01*
X152203142Y-137356904D01*
X152355523Y-137356904D01*
X152431714Y-137318809D01*
X152469809Y-137280714D01*
X152507904Y-137204523D01*
X152507904Y-137052142D01*
X152469809Y-136975952D01*
X152431714Y-136937857D01*
X152355523Y-136899761D01*
X152203142Y-136899761D01*
X152126952Y-136937857D01*
X152088857Y-136975952D01*
X152050761Y-137052142D01*
X151707904Y-136175952D02*
X151707904Y-136556904D01*
X152088857Y-136595000D01*
X152050761Y-136556904D01*
X152012666Y-136480714D01*
X152012666Y-136290238D01*
X152050761Y-136214047D01*
X152088857Y-136175952D01*
X152165047Y-136137857D01*
X152355523Y-136137857D01*
X152431714Y-136175952D01*
X152469809Y-136214047D01*
X152507904Y-136290238D01*
X152507904Y-136480714D01*
X152469809Y-136556904D01*
X152431714Y-136595000D01*
%TO.C,D1*%
X159981523Y-160663904D02*
X159981523Y-159863904D01*
X160172000Y-159863904D01*
X160286285Y-159902000D01*
X160362476Y-159978190D01*
X160400571Y-160054380D01*
X160438666Y-160206761D01*
X160438666Y-160321047D01*
X160400571Y-160473428D01*
X160362476Y-160549619D01*
X160286285Y-160625809D01*
X160172000Y-160663904D01*
X159981523Y-160663904D01*
X161200571Y-160663904D02*
X160743428Y-160663904D01*
X160972000Y-160663904D02*
X160972000Y-159863904D01*
X160895809Y-159978190D01*
X160819619Y-160054380D01*
X160743428Y-160092476D01*
X158857714Y-164163904D02*
X158400571Y-164163904D01*
X158629142Y-164163904D02*
X158629142Y-163363904D01*
X158552952Y-163478190D01*
X158476761Y-163554380D01*
X158400571Y-163592476D01*
X159200571Y-164163904D02*
X159200571Y-163363904D01*
X159657714Y-164163904D01*
X159657714Y-163363904D01*
X160381523Y-163630571D02*
X160381523Y-164163904D01*
X160191047Y-163325809D02*
X160000571Y-163897238D01*
X160495809Y-163897238D01*
X161219619Y-164163904D02*
X160762476Y-164163904D01*
X160991047Y-164163904D02*
X160991047Y-163363904D01*
X160914857Y-163478190D01*
X160838666Y-163554380D01*
X160762476Y-163592476D01*
X161905333Y-163630571D02*
X161905333Y-164163904D01*
X161714857Y-163325809D02*
X161524380Y-163897238D01*
X162019619Y-163897238D01*
X162438666Y-163706761D02*
X162362476Y-163668666D01*
X162324380Y-163630571D01*
X162286285Y-163554380D01*
X162286285Y-163516285D01*
X162324380Y-163440095D01*
X162362476Y-163402000D01*
X162438666Y-163363904D01*
X162591047Y-163363904D01*
X162667238Y-163402000D01*
X162705333Y-163440095D01*
X162743428Y-163516285D01*
X162743428Y-163554380D01*
X162705333Y-163630571D01*
X162667238Y-163668666D01*
X162591047Y-163706761D01*
X162438666Y-163706761D01*
X162362476Y-163744857D01*
X162324380Y-163782952D01*
X162286285Y-163859142D01*
X162286285Y-164011523D01*
X162324380Y-164087714D01*
X162362476Y-164125809D01*
X162438666Y-164163904D01*
X162591047Y-164163904D01*
X162667238Y-164125809D01*
X162705333Y-164087714D01*
X162743428Y-164011523D01*
X162743428Y-163859142D01*
X162705333Y-163782952D01*
X162667238Y-163744857D01*
X162591047Y-163706761D01*
%TO.C,C17*%
X143756142Y-170791142D02*
X143708523Y-170838761D01*
X143565666Y-170886380D01*
X143470428Y-170886380D01*
X143327571Y-170838761D01*
X143232333Y-170743523D01*
X143184714Y-170648285D01*
X143137095Y-170457809D01*
X143137095Y-170314952D01*
X143184714Y-170124476D01*
X143232333Y-170029238D01*
X143327571Y-169934000D01*
X143470428Y-169886380D01*
X143565666Y-169886380D01*
X143708523Y-169934000D01*
X143756142Y-169981619D01*
X144708523Y-170886380D02*
X144137095Y-170886380D01*
X144422809Y-170886380D02*
X144422809Y-169886380D01*
X144327571Y-170029238D01*
X144232333Y-170124476D01*
X144137095Y-170172095D01*
X145041857Y-169886380D02*
X145708523Y-169886380D01*
X145279952Y-170886380D01*
X137199761Y-170886380D02*
X136628333Y-170886380D01*
X136914047Y-170886380D02*
X136914047Y-169886380D01*
X136818809Y-170029238D01*
X136723571Y-170124476D01*
X136628333Y-170172095D01*
X138056904Y-170219714D02*
X138056904Y-170886380D01*
X137628333Y-170219714D02*
X137628333Y-170743523D01*
X137675952Y-170838761D01*
X137771190Y-170886380D01*
X137914047Y-170886380D01*
X138009285Y-170838761D01*
X138056904Y-170791142D01*
X138866428Y-170362571D02*
X138533095Y-170362571D01*
X138533095Y-170886380D02*
X138533095Y-169886380D01*
X139009285Y-169886380D01*
%TO.C,C13*%
X151376142Y-128627142D02*
X151328523Y-128674761D01*
X151185666Y-128722380D01*
X151090428Y-128722380D01*
X150947571Y-128674761D01*
X150852333Y-128579523D01*
X150804714Y-128484285D01*
X150757095Y-128293809D01*
X150757095Y-128150952D01*
X150804714Y-127960476D01*
X150852333Y-127865238D01*
X150947571Y-127770000D01*
X151090428Y-127722380D01*
X151185666Y-127722380D01*
X151328523Y-127770000D01*
X151376142Y-127817619D01*
X152328523Y-128722380D02*
X151757095Y-128722380D01*
X152042809Y-128722380D02*
X152042809Y-127722380D01*
X151947571Y-127865238D01*
X151852333Y-127960476D01*
X151757095Y-128008095D01*
X152661857Y-127722380D02*
X153280904Y-127722380D01*
X152947571Y-128103333D01*
X153090428Y-128103333D01*
X153185666Y-128150952D01*
X153233285Y-128198571D01*
X153280904Y-128293809D01*
X153280904Y-128531904D01*
X153233285Y-128627142D01*
X153185666Y-128674761D01*
X153090428Y-128722380D01*
X152804714Y-128722380D01*
X152709476Y-128674761D01*
X152661857Y-128627142D01*
X150153952Y-126325380D02*
X150249190Y-126325380D01*
X150344428Y-126373000D01*
X150392047Y-126420619D01*
X150439666Y-126515857D01*
X150487285Y-126706333D01*
X150487285Y-126944428D01*
X150439666Y-127134904D01*
X150392047Y-127230142D01*
X150344428Y-127277761D01*
X150249190Y-127325380D01*
X150153952Y-127325380D01*
X150058714Y-127277761D01*
X150011095Y-127230142D01*
X149963476Y-127134904D01*
X149915857Y-126944428D01*
X149915857Y-126706333D01*
X149963476Y-126515857D01*
X150011095Y-126420619D01*
X150058714Y-126373000D01*
X150153952Y-126325380D01*
X150915857Y-127230142D02*
X150963476Y-127277761D01*
X150915857Y-127325380D01*
X150868238Y-127277761D01*
X150915857Y-127230142D01*
X150915857Y-127325380D01*
X151820619Y-126658714D02*
X151820619Y-127325380D01*
X151582523Y-126277761D02*
X151344428Y-126992047D01*
X151963476Y-126992047D01*
X152249190Y-126325380D02*
X152915857Y-126325380D01*
X152487285Y-127325380D01*
X153725380Y-126658714D02*
X153725380Y-127325380D01*
X153296809Y-126658714D02*
X153296809Y-127182523D01*
X153344428Y-127277761D01*
X153439666Y-127325380D01*
X153582523Y-127325380D01*
X153677761Y-127277761D01*
X153725380Y-127230142D01*
X154534904Y-126801571D02*
X154201571Y-126801571D01*
X154201571Y-127325380D02*
X154201571Y-126325380D01*
X154677761Y-126325380D01*
%TO.C,C12*%
X139058714Y-65817714D02*
X139020619Y-65855809D01*
X138906333Y-65893904D01*
X138830142Y-65893904D01*
X138715857Y-65855809D01*
X138639666Y-65779619D01*
X138601571Y-65703428D01*
X138563476Y-65551047D01*
X138563476Y-65436761D01*
X138601571Y-65284380D01*
X138639666Y-65208190D01*
X138715857Y-65132000D01*
X138830142Y-65093904D01*
X138906333Y-65093904D01*
X139020619Y-65132000D01*
X139058714Y-65170095D01*
X139820619Y-65893904D02*
X139363476Y-65893904D01*
X139592047Y-65893904D02*
X139592047Y-65093904D01*
X139515857Y-65208190D01*
X139439666Y-65284380D01*
X139363476Y-65322476D01*
X140125380Y-65170095D02*
X140163476Y-65132000D01*
X140239666Y-65093904D01*
X140430142Y-65093904D01*
X140506333Y-65132000D01*
X140544428Y-65170095D01*
X140582523Y-65246285D01*
X140582523Y-65322476D01*
X140544428Y-65436761D01*
X140087285Y-65893904D01*
X140582523Y-65893904D01*
X137623761Y-63950904D02*
X137699952Y-63950904D01*
X137776142Y-63989000D01*
X137814238Y-64027095D01*
X137852333Y-64103285D01*
X137890428Y-64255666D01*
X137890428Y-64446142D01*
X137852333Y-64598523D01*
X137814238Y-64674714D01*
X137776142Y-64712809D01*
X137699952Y-64750904D01*
X137623761Y-64750904D01*
X137547571Y-64712809D01*
X137509476Y-64674714D01*
X137471380Y-64598523D01*
X137433285Y-64446142D01*
X137433285Y-64255666D01*
X137471380Y-64103285D01*
X137509476Y-64027095D01*
X137547571Y-63989000D01*
X137623761Y-63950904D01*
X138233285Y-64674714D02*
X138271380Y-64712809D01*
X138233285Y-64750904D01*
X138195190Y-64712809D01*
X138233285Y-64674714D01*
X138233285Y-64750904D01*
X138957095Y-64217571D02*
X138957095Y-64750904D01*
X138766619Y-63912809D02*
X138576142Y-64484238D01*
X139071380Y-64484238D01*
X139299952Y-63950904D02*
X139833285Y-63950904D01*
X139490428Y-64750904D01*
X140480904Y-64217571D02*
X140480904Y-64750904D01*
X140138047Y-64217571D02*
X140138047Y-64636619D01*
X140176142Y-64712809D01*
X140252333Y-64750904D01*
X140366619Y-64750904D01*
X140442809Y-64712809D01*
X140480904Y-64674714D01*
X141128523Y-64331857D02*
X140861857Y-64331857D01*
X140861857Y-64750904D02*
X140861857Y-63950904D01*
X141242809Y-63950904D01*
%TO.C,C3*%
X148296333Y-148185142D02*
X148248714Y-148232761D01*
X148105857Y-148280380D01*
X148010619Y-148280380D01*
X147867761Y-148232761D01*
X147772523Y-148137523D01*
X147724904Y-148042285D01*
X147677285Y-147851809D01*
X147677285Y-147708952D01*
X147724904Y-147518476D01*
X147772523Y-147423238D01*
X147867761Y-147328000D01*
X148010619Y-147280380D01*
X148105857Y-147280380D01*
X148248714Y-147328000D01*
X148296333Y-147375619D01*
X148629666Y-147280380D02*
X149248714Y-147280380D01*
X148915380Y-147661333D01*
X149058238Y-147661333D01*
X149153476Y-147708952D01*
X149201095Y-147756571D01*
X149248714Y-147851809D01*
X149248714Y-148089904D01*
X149201095Y-148185142D01*
X149153476Y-148232761D01*
X149058238Y-148280380D01*
X148772523Y-148280380D01*
X148677285Y-148232761D01*
X148629666Y-148185142D01*
X148185333Y-146216714D02*
X148185333Y-146883380D01*
X147947238Y-145835761D02*
X147709142Y-146550047D01*
X148328190Y-146550047D01*
X148613904Y-145883380D02*
X149280571Y-145883380D01*
X148852000Y-146883380D01*
X150090095Y-146216714D02*
X150090095Y-146883380D01*
X149661523Y-146216714D02*
X149661523Y-146740523D01*
X149709142Y-146835761D01*
X149804380Y-146883380D01*
X149947238Y-146883380D01*
X150042476Y-146835761D01*
X150090095Y-146788142D01*
X150899619Y-146359571D02*
X150566285Y-146359571D01*
X150566285Y-146883380D02*
X150566285Y-145883380D01*
X151042476Y-145883380D01*
%TO.C,C2*%
X147997333Y-138386142D02*
X147949714Y-138433761D01*
X147806857Y-138481380D01*
X147711619Y-138481380D01*
X147568761Y-138433761D01*
X147473523Y-138338523D01*
X147425904Y-138243285D01*
X147378285Y-138052809D01*
X147378285Y-137909952D01*
X147425904Y-137719476D01*
X147473523Y-137624238D01*
X147568761Y-137529000D01*
X147711619Y-137481380D01*
X147806857Y-137481380D01*
X147949714Y-137529000D01*
X147997333Y-137576619D01*
X148378285Y-137576619D02*
X148425904Y-137529000D01*
X148521142Y-137481380D01*
X148759238Y-137481380D01*
X148854476Y-137529000D01*
X148902095Y-137576619D01*
X148949714Y-137671857D01*
X148949714Y-137767095D01*
X148902095Y-137909952D01*
X148330666Y-138481380D01*
X148949714Y-138481380D01*
X147804333Y-136310714D02*
X147804333Y-136977380D01*
X147566238Y-135929761D02*
X147328142Y-136644047D01*
X147947190Y-136644047D01*
X148232904Y-135977380D02*
X148899571Y-135977380D01*
X148471000Y-136977380D01*
X149709095Y-136310714D02*
X149709095Y-136977380D01*
X149280523Y-136310714D02*
X149280523Y-136834523D01*
X149328142Y-136929761D01*
X149423380Y-136977380D01*
X149566238Y-136977380D01*
X149661476Y-136929761D01*
X149709095Y-136882142D01*
X150518619Y-136453571D02*
X150185285Y-136453571D01*
X150185285Y-136977380D02*
X150185285Y-135977380D01*
X150661476Y-135977380D01*
%TO.C,U1*%
X133223095Y-123150380D02*
X133223095Y-123959904D01*
X133270714Y-124055142D01*
X133318333Y-124102761D01*
X133413571Y-124150380D01*
X133604047Y-124150380D01*
X133699285Y-124102761D01*
X133746904Y-124055142D01*
X133794523Y-123959904D01*
X133794523Y-123150380D01*
X134794523Y-124150380D02*
X134223095Y-124150380D01*
X134508809Y-124150380D02*
X134508809Y-123150380D01*
X134413571Y-123293238D01*
X134318333Y-123388476D01*
X134223095Y-123436095D01*
X133437380Y-131278047D02*
X133437380Y-130706619D01*
X134437380Y-130992333D02*
X133437380Y-130992333D01*
X134437380Y-129897095D02*
X134437380Y-130373285D01*
X133437380Y-130373285D01*
X133437380Y-129373285D02*
X133437380Y-129278047D01*
X133485000Y-129182809D01*
X133532619Y-129135190D01*
X133627857Y-129087571D01*
X133818333Y-129039952D01*
X134056428Y-129039952D01*
X134246904Y-129087571D01*
X134342142Y-129135190D01*
X134389761Y-129182809D01*
X134437380Y-129278047D01*
X134437380Y-129373285D01*
X134389761Y-129468523D01*
X134342142Y-129516142D01*
X134246904Y-129563761D01*
X134056428Y-129611380D01*
X133818333Y-129611380D01*
X133627857Y-129563761D01*
X133532619Y-129516142D01*
X133485000Y-129468523D01*
X133437380Y-129373285D01*
X133437380Y-128706619D02*
X133437380Y-128039952D01*
X134437380Y-128468523D01*
X133532619Y-127706619D02*
X133485000Y-127659000D01*
X133437380Y-127563761D01*
X133437380Y-127325666D01*
X133485000Y-127230428D01*
X133532619Y-127182809D01*
X133627857Y-127135190D01*
X133723095Y-127135190D01*
X133865952Y-127182809D01*
X134437380Y-127754238D01*
X134437380Y-127135190D01*
%TO.C,Q6*%
X128193809Y-150425095D02*
X128117619Y-150387000D01*
X128041428Y-150310809D01*
X127927142Y-150196523D01*
X127850952Y-150158428D01*
X127774761Y-150158428D01*
X127812857Y-150348904D02*
X127736666Y-150310809D01*
X127660476Y-150234619D01*
X127622380Y-150082238D01*
X127622380Y-149815571D01*
X127660476Y-149663190D01*
X127736666Y-149587000D01*
X127812857Y-149548904D01*
X127965238Y-149548904D01*
X128041428Y-149587000D01*
X128117619Y-149663190D01*
X128155714Y-149815571D01*
X128155714Y-150082238D01*
X128117619Y-150234619D01*
X128041428Y-150310809D01*
X127965238Y-150348904D01*
X127812857Y-150348904D01*
X128841428Y-149548904D02*
X128689047Y-149548904D01*
X128612857Y-149587000D01*
X128574761Y-149625095D01*
X128498571Y-149739380D01*
X128460476Y-149891761D01*
X128460476Y-150196523D01*
X128498571Y-150272714D01*
X128536666Y-150310809D01*
X128612857Y-150348904D01*
X128765238Y-150348904D01*
X128841428Y-150310809D01*
X128879523Y-150272714D01*
X128917619Y-150196523D01*
X128917619Y-150006047D01*
X128879523Y-149929857D01*
X128841428Y-149891761D01*
X128765238Y-149853666D01*
X128612857Y-149853666D01*
X128536666Y-149891761D01*
X128498571Y-149929857D01*
X128460476Y-150006047D01*
X128765571Y-154197095D02*
X128803666Y-154159000D01*
X128879857Y-154120904D01*
X129070333Y-154120904D01*
X129146523Y-154159000D01*
X129184619Y-154197095D01*
X129222714Y-154273285D01*
X129222714Y-154349476D01*
X129184619Y-154463761D01*
X128727476Y-154920904D01*
X129222714Y-154920904D01*
X129565571Y-154920904D02*
X129565571Y-154120904D01*
X130022714Y-154920904D01*
X130022714Y-154120904D01*
X130327476Y-154120904D02*
X130822714Y-154120904D01*
X130556047Y-154425666D01*
X130670333Y-154425666D01*
X130746523Y-154463761D01*
X130784619Y-154501857D01*
X130822714Y-154578047D01*
X130822714Y-154768523D01*
X130784619Y-154844714D01*
X130746523Y-154882809D01*
X130670333Y-154920904D01*
X130441761Y-154920904D01*
X130365571Y-154882809D01*
X130327476Y-154844714D01*
X131203666Y-154920904D02*
X131356047Y-154920904D01*
X131432238Y-154882809D01*
X131470333Y-154844714D01*
X131546523Y-154730428D01*
X131584619Y-154578047D01*
X131584619Y-154273285D01*
X131546523Y-154197095D01*
X131508428Y-154159000D01*
X131432238Y-154120904D01*
X131279857Y-154120904D01*
X131203666Y-154159000D01*
X131165571Y-154197095D01*
X131127476Y-154273285D01*
X131127476Y-154463761D01*
X131165571Y-154539952D01*
X131203666Y-154578047D01*
X131279857Y-154616142D01*
X131432238Y-154616142D01*
X131508428Y-154578047D01*
X131546523Y-154539952D01*
X131584619Y-154463761D01*
X132079857Y-154120904D02*
X132156047Y-154120904D01*
X132232238Y-154159000D01*
X132270333Y-154197095D01*
X132308428Y-154273285D01*
X132346523Y-154425666D01*
X132346523Y-154616142D01*
X132308428Y-154768523D01*
X132270333Y-154844714D01*
X132232238Y-154882809D01*
X132156047Y-154920904D01*
X132079857Y-154920904D01*
X132003666Y-154882809D01*
X131965571Y-154844714D01*
X131927476Y-154768523D01*
X131889380Y-154616142D01*
X131889380Y-154425666D01*
X131927476Y-154273285D01*
X131965571Y-154197095D01*
X132003666Y-154159000D01*
X132079857Y-154120904D01*
X133032238Y-154387571D02*
X133032238Y-154920904D01*
X132841761Y-154082809D02*
X132651285Y-154654238D01*
X133146523Y-154654238D01*
%TO.C,Q5*%
X164261809Y-81972095D02*
X164185619Y-81934000D01*
X164109428Y-81857809D01*
X163995142Y-81743523D01*
X163918952Y-81705428D01*
X163842761Y-81705428D01*
X163880857Y-81895904D02*
X163804666Y-81857809D01*
X163728476Y-81781619D01*
X163690380Y-81629238D01*
X163690380Y-81362571D01*
X163728476Y-81210190D01*
X163804666Y-81134000D01*
X163880857Y-81095904D01*
X164033238Y-81095904D01*
X164109428Y-81134000D01*
X164185619Y-81210190D01*
X164223714Y-81362571D01*
X164223714Y-81629238D01*
X164185619Y-81781619D01*
X164109428Y-81857809D01*
X164033238Y-81895904D01*
X163880857Y-81895904D01*
X164947523Y-81095904D02*
X164566571Y-81095904D01*
X164528476Y-81476857D01*
X164566571Y-81438761D01*
X164642761Y-81400666D01*
X164833238Y-81400666D01*
X164909428Y-81438761D01*
X164947523Y-81476857D01*
X164985619Y-81553047D01*
X164985619Y-81743523D01*
X164947523Y-81819714D01*
X164909428Y-81857809D01*
X164833238Y-81895904D01*
X164642761Y-81895904D01*
X164566571Y-81857809D01*
X164528476Y-81819714D01*
X160769571Y-79521095D02*
X160807666Y-79483000D01*
X160883857Y-79444904D01*
X161074333Y-79444904D01*
X161150523Y-79483000D01*
X161188619Y-79521095D01*
X161226714Y-79597285D01*
X161226714Y-79673476D01*
X161188619Y-79787761D01*
X160731476Y-80244904D01*
X161226714Y-80244904D01*
X161569571Y-80244904D02*
X161569571Y-79444904D01*
X162026714Y-80244904D01*
X162026714Y-79444904D01*
X162331476Y-79444904D02*
X162826714Y-79444904D01*
X162560047Y-79749666D01*
X162674333Y-79749666D01*
X162750523Y-79787761D01*
X162788619Y-79825857D01*
X162826714Y-79902047D01*
X162826714Y-80092523D01*
X162788619Y-80168714D01*
X162750523Y-80206809D01*
X162674333Y-80244904D01*
X162445761Y-80244904D01*
X162369571Y-80206809D01*
X162331476Y-80168714D01*
X163207666Y-80244904D02*
X163360047Y-80244904D01*
X163436238Y-80206809D01*
X163474333Y-80168714D01*
X163550523Y-80054428D01*
X163588619Y-79902047D01*
X163588619Y-79597285D01*
X163550523Y-79521095D01*
X163512428Y-79483000D01*
X163436238Y-79444904D01*
X163283857Y-79444904D01*
X163207666Y-79483000D01*
X163169571Y-79521095D01*
X163131476Y-79597285D01*
X163131476Y-79787761D01*
X163169571Y-79863952D01*
X163207666Y-79902047D01*
X163283857Y-79940142D01*
X163436238Y-79940142D01*
X163512428Y-79902047D01*
X163550523Y-79863952D01*
X163588619Y-79787761D01*
X164083857Y-79444904D02*
X164160047Y-79444904D01*
X164236238Y-79483000D01*
X164274333Y-79521095D01*
X164312428Y-79597285D01*
X164350523Y-79749666D01*
X164350523Y-79940142D01*
X164312428Y-80092523D01*
X164274333Y-80168714D01*
X164236238Y-80206809D01*
X164160047Y-80244904D01*
X164083857Y-80244904D01*
X164007666Y-80206809D01*
X163969571Y-80168714D01*
X163931476Y-80092523D01*
X163893380Y-79940142D01*
X163893380Y-79749666D01*
X163931476Y-79597285D01*
X163969571Y-79521095D01*
X164007666Y-79483000D01*
X164083857Y-79444904D01*
X165036238Y-79711571D02*
X165036238Y-80244904D01*
X164845761Y-79406809D02*
X164655285Y-79978238D01*
X165150523Y-79978238D01*
%TO.C,Q4*%
X134016761Y-93257619D02*
X133921523Y-93210000D01*
X133826285Y-93114761D01*
X133683428Y-92971904D01*
X133588190Y-92924285D01*
X133492952Y-92924285D01*
X133540571Y-93162380D02*
X133445333Y-93114761D01*
X133350095Y-93019523D01*
X133302476Y-92829047D01*
X133302476Y-92495714D01*
X133350095Y-92305238D01*
X133445333Y-92210000D01*
X133540571Y-92162380D01*
X133731047Y-92162380D01*
X133826285Y-92210000D01*
X133921523Y-92305238D01*
X133969142Y-92495714D01*
X133969142Y-92829047D01*
X133921523Y-93019523D01*
X133826285Y-93114761D01*
X133731047Y-93162380D01*
X133540571Y-93162380D01*
X134826285Y-92495714D02*
X134826285Y-93162380D01*
X134588190Y-92114761D02*
X134350095Y-92829047D01*
X134969142Y-92829047D01*
X128476714Y-97079619D02*
X128524333Y-97032000D01*
X128619571Y-96984380D01*
X128857666Y-96984380D01*
X128952904Y-97032000D01*
X129000523Y-97079619D01*
X129048142Y-97174857D01*
X129048142Y-97270095D01*
X129000523Y-97412952D01*
X128429095Y-97984380D01*
X129048142Y-97984380D01*
X129476714Y-97984380D02*
X129476714Y-96984380D01*
X130048142Y-97984380D01*
X130048142Y-96984380D01*
X130429095Y-96984380D02*
X131048142Y-96984380D01*
X130714809Y-97365333D01*
X130857666Y-97365333D01*
X130952904Y-97412952D01*
X131000523Y-97460571D01*
X131048142Y-97555809D01*
X131048142Y-97793904D01*
X131000523Y-97889142D01*
X130952904Y-97936761D01*
X130857666Y-97984380D01*
X130571952Y-97984380D01*
X130476714Y-97936761D01*
X130429095Y-97889142D01*
X131524333Y-97984380D02*
X131714809Y-97984380D01*
X131810047Y-97936761D01*
X131857666Y-97889142D01*
X131952904Y-97746285D01*
X132000523Y-97555809D01*
X132000523Y-97174857D01*
X131952904Y-97079619D01*
X131905285Y-97032000D01*
X131810047Y-96984380D01*
X131619571Y-96984380D01*
X131524333Y-97032000D01*
X131476714Y-97079619D01*
X131429095Y-97174857D01*
X131429095Y-97412952D01*
X131476714Y-97508190D01*
X131524333Y-97555809D01*
X131619571Y-97603428D01*
X131810047Y-97603428D01*
X131905285Y-97555809D01*
X131952904Y-97508190D01*
X132000523Y-97412952D01*
X132619571Y-96984380D02*
X132714809Y-96984380D01*
X132810047Y-97032000D01*
X132857666Y-97079619D01*
X132905285Y-97174857D01*
X132952904Y-97365333D01*
X132952904Y-97603428D01*
X132905285Y-97793904D01*
X132857666Y-97889142D01*
X132810047Y-97936761D01*
X132714809Y-97984380D01*
X132619571Y-97984380D01*
X132524333Y-97936761D01*
X132476714Y-97889142D01*
X132429095Y-97793904D01*
X132381476Y-97603428D01*
X132381476Y-97365333D01*
X132429095Y-97174857D01*
X132476714Y-97079619D01*
X132524333Y-97032000D01*
X132619571Y-96984380D01*
X133810047Y-97317714D02*
X133810047Y-97984380D01*
X133571952Y-96936761D02*
X133333857Y-97651047D01*
X133952904Y-97651047D01*
%TO.C,Q3*%
X161329619Y-108172238D02*
X161282000Y-108267476D01*
X161186761Y-108362714D01*
X161043904Y-108505571D01*
X160996285Y-108600809D01*
X160996285Y-108696047D01*
X161234380Y-108648428D02*
X161186761Y-108743666D01*
X161091523Y-108838904D01*
X160901047Y-108886523D01*
X160567714Y-108886523D01*
X160377238Y-108838904D01*
X160282000Y-108743666D01*
X160234380Y-108648428D01*
X160234380Y-108457952D01*
X160282000Y-108362714D01*
X160377238Y-108267476D01*
X160567714Y-108219857D01*
X160901047Y-108219857D01*
X161091523Y-108267476D01*
X161186761Y-108362714D01*
X161234380Y-108457952D01*
X161234380Y-108648428D01*
X160234380Y-107886523D02*
X160234380Y-107267476D01*
X160615333Y-107600809D01*
X160615333Y-107457952D01*
X160662952Y-107362714D01*
X160710571Y-107315095D01*
X160805809Y-107267476D01*
X161043904Y-107267476D01*
X161139142Y-107315095D01*
X161186761Y-107362714D01*
X161234380Y-107457952D01*
X161234380Y-107743666D01*
X161186761Y-107838904D01*
X161139142Y-107886523D01*
X164738095Y-108724238D02*
X164700000Y-108686142D01*
X164661904Y-108609952D01*
X164661904Y-108419476D01*
X164700000Y-108343285D01*
X164738095Y-108305190D01*
X164814285Y-108267095D01*
X164890476Y-108267095D01*
X165004761Y-108305190D01*
X165461904Y-108762333D01*
X165461904Y-108267095D01*
X165461904Y-107924238D02*
X164661904Y-107924238D01*
X165461904Y-107467095D01*
X164661904Y-107467095D01*
X164661904Y-107162333D02*
X164661904Y-106667095D01*
X164966666Y-106933761D01*
X164966666Y-106819476D01*
X165004761Y-106743285D01*
X165042857Y-106705190D01*
X165119047Y-106667095D01*
X165309523Y-106667095D01*
X165385714Y-106705190D01*
X165423809Y-106743285D01*
X165461904Y-106819476D01*
X165461904Y-107048047D01*
X165423809Y-107124238D01*
X165385714Y-107162333D01*
X165461904Y-106286142D02*
X165461904Y-106133761D01*
X165423809Y-106057571D01*
X165385714Y-106019476D01*
X165271428Y-105943285D01*
X165119047Y-105905190D01*
X164814285Y-105905190D01*
X164738095Y-105943285D01*
X164700000Y-105981380D01*
X164661904Y-106057571D01*
X164661904Y-106209952D01*
X164700000Y-106286142D01*
X164738095Y-106324238D01*
X164814285Y-106362333D01*
X165004761Y-106362333D01*
X165080952Y-106324238D01*
X165119047Y-106286142D01*
X165157142Y-106209952D01*
X165157142Y-106057571D01*
X165119047Y-105981380D01*
X165080952Y-105943285D01*
X165004761Y-105905190D01*
X164661904Y-105409952D02*
X164661904Y-105333761D01*
X164700000Y-105257571D01*
X164738095Y-105219476D01*
X164814285Y-105181380D01*
X164966666Y-105143285D01*
X165157142Y-105143285D01*
X165309523Y-105181380D01*
X165385714Y-105219476D01*
X165423809Y-105257571D01*
X165461904Y-105333761D01*
X165461904Y-105409952D01*
X165423809Y-105486142D01*
X165385714Y-105524238D01*
X165309523Y-105562333D01*
X165157142Y-105600428D01*
X164966666Y-105600428D01*
X164814285Y-105562333D01*
X164738095Y-105524238D01*
X164700000Y-105486142D01*
X164661904Y-105409952D01*
X164661904Y-104457571D02*
X164661904Y-104609952D01*
X164700000Y-104686142D01*
X164738095Y-104724238D01*
X164852380Y-104800428D01*
X165004761Y-104838523D01*
X165309523Y-104838523D01*
X165385714Y-104800428D01*
X165423809Y-104762333D01*
X165461904Y-104686142D01*
X165461904Y-104533761D01*
X165423809Y-104457571D01*
X165385714Y-104419476D01*
X165309523Y-104381380D01*
X165119047Y-104381380D01*
X165042857Y-104419476D01*
X165004761Y-104457571D01*
X164966666Y-104533761D01*
X164966666Y-104686142D01*
X165004761Y-104762333D01*
X165042857Y-104800428D01*
X165119047Y-104838523D01*
X165461904Y-103429000D02*
X164661904Y-103429000D01*
X164661904Y-103124238D01*
X164700000Y-103048047D01*
X164738095Y-103009952D01*
X164814285Y-102971857D01*
X164928571Y-102971857D01*
X165004761Y-103009952D01*
X165042857Y-103048047D01*
X165080952Y-103124238D01*
X165080952Y-103429000D01*
X165461904Y-102629000D02*
X164661904Y-102629000D01*
X165461904Y-102171857D01*
X164661904Y-102171857D01*
X165461904Y-101790904D02*
X164661904Y-101790904D01*
X164661904Y-101486142D01*
X164700000Y-101409952D01*
X164738095Y-101371857D01*
X164814285Y-101333761D01*
X164928571Y-101333761D01*
X165004761Y-101371857D01*
X165042857Y-101409952D01*
X165080952Y-101486142D01*
X165080952Y-101790904D01*
%TO.C,Q2*%
X162091619Y-120872238D02*
X162044000Y-120967476D01*
X161948761Y-121062714D01*
X161805904Y-121205571D01*
X161758285Y-121300809D01*
X161758285Y-121396047D01*
X161996380Y-121348428D02*
X161948761Y-121443666D01*
X161853523Y-121538904D01*
X161663047Y-121586523D01*
X161329714Y-121586523D01*
X161139238Y-121538904D01*
X161044000Y-121443666D01*
X160996380Y-121348428D01*
X160996380Y-121157952D01*
X161044000Y-121062714D01*
X161139238Y-120967476D01*
X161329714Y-120919857D01*
X161663047Y-120919857D01*
X161853523Y-120967476D01*
X161948761Y-121062714D01*
X161996380Y-121157952D01*
X161996380Y-121348428D01*
X161091619Y-120538904D02*
X161044000Y-120491285D01*
X160996380Y-120396047D01*
X160996380Y-120157952D01*
X161044000Y-120062714D01*
X161091619Y-120015095D01*
X161186857Y-119967476D01*
X161282095Y-119967476D01*
X161424952Y-120015095D01*
X161996380Y-120586523D01*
X161996380Y-119967476D01*
X159785095Y-121043428D02*
X159747000Y-121005333D01*
X159708904Y-120929142D01*
X159708904Y-120738666D01*
X159747000Y-120662476D01*
X159785095Y-120624380D01*
X159861285Y-120586285D01*
X159937476Y-120586285D01*
X160051761Y-120624380D01*
X160508904Y-121081523D01*
X160508904Y-120586285D01*
X160508904Y-120243428D02*
X159708904Y-120243428D01*
X160508904Y-119786285D01*
X159708904Y-119786285D01*
X159708904Y-119481523D02*
X159708904Y-118986285D01*
X160013666Y-119252952D01*
X160013666Y-119138666D01*
X160051761Y-119062476D01*
X160089857Y-119024380D01*
X160166047Y-118986285D01*
X160356523Y-118986285D01*
X160432714Y-119024380D01*
X160470809Y-119062476D01*
X160508904Y-119138666D01*
X160508904Y-119367238D01*
X160470809Y-119443428D01*
X160432714Y-119481523D01*
X160508904Y-118605333D02*
X160508904Y-118452952D01*
X160470809Y-118376761D01*
X160432714Y-118338666D01*
X160318428Y-118262476D01*
X160166047Y-118224380D01*
X159861285Y-118224380D01*
X159785095Y-118262476D01*
X159747000Y-118300571D01*
X159708904Y-118376761D01*
X159708904Y-118529142D01*
X159747000Y-118605333D01*
X159785095Y-118643428D01*
X159861285Y-118681523D01*
X160051761Y-118681523D01*
X160127952Y-118643428D01*
X160166047Y-118605333D01*
X160204142Y-118529142D01*
X160204142Y-118376761D01*
X160166047Y-118300571D01*
X160127952Y-118262476D01*
X160051761Y-118224380D01*
X159708904Y-117729142D02*
X159708904Y-117652952D01*
X159747000Y-117576761D01*
X159785095Y-117538666D01*
X159861285Y-117500571D01*
X160013666Y-117462476D01*
X160204142Y-117462476D01*
X160356523Y-117500571D01*
X160432714Y-117538666D01*
X160470809Y-117576761D01*
X160508904Y-117652952D01*
X160508904Y-117729142D01*
X160470809Y-117805333D01*
X160432714Y-117843428D01*
X160356523Y-117881523D01*
X160204142Y-117919619D01*
X160013666Y-117919619D01*
X159861285Y-117881523D01*
X159785095Y-117843428D01*
X159747000Y-117805333D01*
X159708904Y-117729142D01*
X159975571Y-116776761D02*
X160508904Y-116776761D01*
X159670809Y-116967238D02*
X160242238Y-117157714D01*
X160242238Y-116662476D01*
%TO.C,Q1*%
X132010095Y-80848190D02*
X131972000Y-80924380D01*
X131895809Y-81000571D01*
X131781523Y-81114857D01*
X131743428Y-81191047D01*
X131743428Y-81267238D01*
X131933904Y-81229142D02*
X131895809Y-81305333D01*
X131819619Y-81381523D01*
X131667238Y-81419619D01*
X131400571Y-81419619D01*
X131248190Y-81381523D01*
X131172000Y-81305333D01*
X131133904Y-81229142D01*
X131133904Y-81076761D01*
X131172000Y-81000571D01*
X131248190Y-80924380D01*
X131400571Y-80886285D01*
X131667238Y-80886285D01*
X131819619Y-80924380D01*
X131895809Y-81000571D01*
X131933904Y-81076761D01*
X131933904Y-81229142D01*
X131933904Y-80124380D02*
X131933904Y-80581523D01*
X131933904Y-80352952D02*
X131133904Y-80352952D01*
X131248190Y-80429142D01*
X131324380Y-80505333D01*
X131362476Y-80581523D01*
X132389619Y-86280285D02*
X132342000Y-86232666D01*
X132294380Y-86137428D01*
X132294380Y-85899333D01*
X132342000Y-85804095D01*
X132389619Y-85756476D01*
X132484857Y-85708857D01*
X132580095Y-85708857D01*
X132722952Y-85756476D01*
X133294380Y-86327904D01*
X133294380Y-85708857D01*
X133294380Y-85280285D02*
X132294380Y-85280285D01*
X133294380Y-84708857D01*
X132294380Y-84708857D01*
X132294380Y-84327904D02*
X132294380Y-83708857D01*
X132675333Y-84042190D01*
X132675333Y-83899333D01*
X132722952Y-83804095D01*
X132770571Y-83756476D01*
X132865809Y-83708857D01*
X133103904Y-83708857D01*
X133199142Y-83756476D01*
X133246761Y-83804095D01*
X133294380Y-83899333D01*
X133294380Y-84185047D01*
X133246761Y-84280285D01*
X133199142Y-84327904D01*
X133294380Y-83232666D02*
X133294380Y-83042190D01*
X133246761Y-82946952D01*
X133199142Y-82899333D01*
X133056285Y-82804095D01*
X132865809Y-82756476D01*
X132484857Y-82756476D01*
X132389619Y-82804095D01*
X132342000Y-82851714D01*
X132294380Y-82946952D01*
X132294380Y-83137428D01*
X132342000Y-83232666D01*
X132389619Y-83280285D01*
X132484857Y-83327904D01*
X132722952Y-83327904D01*
X132818190Y-83280285D01*
X132865809Y-83232666D01*
X132913428Y-83137428D01*
X132913428Y-82946952D01*
X132865809Y-82851714D01*
X132818190Y-82804095D01*
X132722952Y-82756476D01*
X132294380Y-82137428D02*
X132294380Y-82042190D01*
X132342000Y-81946952D01*
X132389619Y-81899333D01*
X132484857Y-81851714D01*
X132675333Y-81804095D01*
X132913428Y-81804095D01*
X133103904Y-81851714D01*
X133199142Y-81899333D01*
X133246761Y-81946952D01*
X133294380Y-82042190D01*
X133294380Y-82137428D01*
X133246761Y-82232666D01*
X133199142Y-82280285D01*
X133103904Y-82327904D01*
X132913428Y-82375523D01*
X132675333Y-82375523D01*
X132484857Y-82327904D01*
X132389619Y-82280285D01*
X132342000Y-82232666D01*
X132294380Y-82137428D01*
X132627714Y-80946952D02*
X133294380Y-80946952D01*
X132246761Y-81185047D02*
X132961047Y-81423142D01*
X132961047Y-80804095D01*
%TO.C,C16*%
X131183142Y-139494142D02*
X131135523Y-139541761D01*
X130992666Y-139589380D01*
X130897428Y-139589380D01*
X130754571Y-139541761D01*
X130659333Y-139446523D01*
X130611714Y-139351285D01*
X130564095Y-139160809D01*
X130564095Y-139017952D01*
X130611714Y-138827476D01*
X130659333Y-138732238D01*
X130754571Y-138637000D01*
X130897428Y-138589380D01*
X130992666Y-138589380D01*
X131135523Y-138637000D01*
X131183142Y-138684619D01*
X132135523Y-139589380D02*
X131564095Y-139589380D01*
X131849809Y-139589380D02*
X131849809Y-138589380D01*
X131754571Y-138732238D01*
X131659333Y-138827476D01*
X131564095Y-138875095D01*
X132992666Y-138589380D02*
X132802190Y-138589380D01*
X132706952Y-138637000D01*
X132659333Y-138684619D01*
X132564095Y-138827476D01*
X132516476Y-139017952D01*
X132516476Y-139398904D01*
X132564095Y-139494142D01*
X132611714Y-139541761D01*
X132706952Y-139589380D01*
X132897428Y-139589380D01*
X132992666Y-139541761D01*
X133040285Y-139494142D01*
X133087904Y-139398904D01*
X133087904Y-139160809D01*
X133040285Y-139065571D01*
X132992666Y-139017952D01*
X132897428Y-138970333D01*
X132706952Y-138970333D01*
X132611714Y-139017952D01*
X132564095Y-139065571D01*
X132516476Y-139160809D01*
X128801952Y-135961380D02*
X128230523Y-135961380D01*
X128516238Y-135961380D02*
X128516238Y-134961380D01*
X128421000Y-135104238D01*
X128325761Y-135199476D01*
X128230523Y-135247095D01*
X129421000Y-134961380D02*
X129516238Y-134961380D01*
X129611476Y-135009000D01*
X129659095Y-135056619D01*
X129706714Y-135151857D01*
X129754333Y-135342333D01*
X129754333Y-135580428D01*
X129706714Y-135770904D01*
X129659095Y-135866142D01*
X129611476Y-135913761D01*
X129516238Y-135961380D01*
X129421000Y-135961380D01*
X129325761Y-135913761D01*
X129278142Y-135866142D01*
X129230523Y-135770904D01*
X129182904Y-135580428D01*
X129182904Y-135342333D01*
X129230523Y-135151857D01*
X129278142Y-135056619D01*
X129325761Y-135009000D01*
X129421000Y-134961380D01*
X130373380Y-134961380D02*
X130468619Y-134961380D01*
X130563857Y-135009000D01*
X130611476Y-135056619D01*
X130659095Y-135151857D01*
X130706714Y-135342333D01*
X130706714Y-135580428D01*
X130659095Y-135770904D01*
X130611476Y-135866142D01*
X130563857Y-135913761D01*
X130468619Y-135961380D01*
X130373380Y-135961380D01*
X130278142Y-135913761D01*
X130230523Y-135866142D01*
X130182904Y-135770904D01*
X130135285Y-135580428D01*
X130135285Y-135342333D01*
X130182904Y-135151857D01*
X130230523Y-135056619D01*
X130278142Y-135009000D01*
X130373380Y-134961380D01*
X131135285Y-135294714D02*
X131135285Y-135961380D01*
X131135285Y-135389952D02*
X131182904Y-135342333D01*
X131278142Y-135294714D01*
X131421000Y-135294714D01*
X131516238Y-135342333D01*
X131563857Y-135437571D01*
X131563857Y-135961380D01*
%TO.C,C15*%
X132199642Y-122531142D02*
X132152023Y-122578761D01*
X132009166Y-122626380D01*
X131913928Y-122626380D01*
X131771071Y-122578761D01*
X131675833Y-122483523D01*
X131628214Y-122388285D01*
X131580595Y-122197809D01*
X131580595Y-122054952D01*
X131628214Y-121864476D01*
X131675833Y-121769238D01*
X131771071Y-121674000D01*
X131913928Y-121626380D01*
X132009166Y-121626380D01*
X132152023Y-121674000D01*
X132199642Y-121721619D01*
X133152023Y-122626380D02*
X132580595Y-122626380D01*
X132866309Y-122626380D02*
X132866309Y-121626380D01*
X132771071Y-121769238D01*
X132675833Y-121864476D01*
X132580595Y-121912095D01*
X134056785Y-121626380D02*
X133580595Y-121626380D01*
X133532976Y-122102571D01*
X133580595Y-122054952D01*
X133675833Y-122007333D01*
X133913928Y-122007333D01*
X134009166Y-122054952D01*
X134056785Y-122102571D01*
X134104404Y-122197809D01*
X134104404Y-122435904D01*
X134056785Y-122531142D01*
X134009166Y-122578761D01*
X133913928Y-122626380D01*
X133675833Y-122626380D01*
X133580595Y-122578761D01*
X133532976Y-122531142D01*
X131342452Y-121229380D02*
X130771023Y-121229380D01*
X131056738Y-121229380D02*
X131056738Y-120229380D01*
X130961500Y-120372238D01*
X130866261Y-120467476D01*
X130771023Y-120515095D01*
X131961500Y-120229380D02*
X132056738Y-120229380D01*
X132151976Y-120277000D01*
X132199595Y-120324619D01*
X132247214Y-120419857D01*
X132294833Y-120610333D01*
X132294833Y-120848428D01*
X132247214Y-121038904D01*
X132199595Y-121134142D01*
X132151976Y-121181761D01*
X132056738Y-121229380D01*
X131961500Y-121229380D01*
X131866261Y-121181761D01*
X131818642Y-121134142D01*
X131771023Y-121038904D01*
X131723404Y-120848428D01*
X131723404Y-120610333D01*
X131771023Y-120419857D01*
X131818642Y-120324619D01*
X131866261Y-120277000D01*
X131961500Y-120229380D01*
X132913880Y-120229380D02*
X133009119Y-120229380D01*
X133104357Y-120277000D01*
X133151976Y-120324619D01*
X133199595Y-120419857D01*
X133247214Y-120610333D01*
X133247214Y-120848428D01*
X133199595Y-121038904D01*
X133151976Y-121134142D01*
X133104357Y-121181761D01*
X133009119Y-121229380D01*
X132913880Y-121229380D01*
X132818642Y-121181761D01*
X132771023Y-121134142D01*
X132723404Y-121038904D01*
X132675785Y-120848428D01*
X132675785Y-120610333D01*
X132723404Y-120419857D01*
X132771023Y-120324619D01*
X132818642Y-120277000D01*
X132913880Y-120229380D01*
X133675785Y-120562714D02*
X133675785Y-121229380D01*
X133675785Y-120657952D02*
X133723404Y-120610333D01*
X133818642Y-120562714D01*
X133961500Y-120562714D01*
X134056738Y-120610333D01*
X134104357Y-120705571D01*
X134104357Y-121229380D01*
%TO.C,J1*%
X160067666Y-152110380D02*
X160067666Y-152824666D01*
X160020047Y-152967523D01*
X159924809Y-153062761D01*
X159781952Y-153110380D01*
X159686714Y-153110380D01*
X161067666Y-153110380D02*
X160496238Y-153110380D01*
X160781952Y-153110380D02*
X160781952Y-152110380D01*
X160686714Y-152253238D01*
X160591476Y-152348476D01*
X160496238Y-152396095D01*
X157353380Y-130627380D02*
X157353380Y-129627380D01*
X157734333Y-129627380D01*
X157829571Y-129675000D01*
X157877190Y-129722619D01*
X157924809Y-129817857D01*
X157924809Y-129960714D01*
X157877190Y-130055952D01*
X157829571Y-130103571D01*
X157734333Y-130151190D01*
X157353380Y-130151190D01*
X158496238Y-130627380D02*
X158401000Y-130579761D01*
X158353380Y-130532142D01*
X158305761Y-130436904D01*
X158305761Y-130151190D01*
X158353380Y-130055952D01*
X158401000Y-130008333D01*
X158496238Y-129960714D01*
X158639095Y-129960714D01*
X158734333Y-130008333D01*
X158781952Y-130055952D01*
X158829571Y-130151190D01*
X158829571Y-130436904D01*
X158781952Y-130532142D01*
X158734333Y-130579761D01*
X158639095Y-130627380D01*
X158496238Y-130627380D01*
X159162904Y-129960714D02*
X159353380Y-130627380D01*
X159543857Y-130151190D01*
X159734333Y-130627380D01*
X159924809Y-129960714D01*
X160686714Y-130579761D02*
X160591476Y-130627380D01*
X160401000Y-130627380D01*
X160305761Y-130579761D01*
X160258142Y-130484523D01*
X160258142Y-130103571D01*
X160305761Y-130008333D01*
X160401000Y-129960714D01*
X160591476Y-129960714D01*
X160686714Y-130008333D01*
X160734333Y-130103571D01*
X160734333Y-130198809D01*
X160258142Y-130294047D01*
X161162904Y-130627380D02*
X161162904Y-129960714D01*
X161162904Y-130151190D02*
X161210523Y-130055952D01*
X161258142Y-130008333D01*
X161353380Y-129960714D01*
X161448619Y-129960714D01*
X162543857Y-130627380D02*
X162543857Y-129627380D01*
X163020047Y-129960714D02*
X163020047Y-130627380D01*
X163020047Y-130055952D02*
X163067666Y-130008333D01*
X163162904Y-129960714D01*
X163305761Y-129960714D01*
X163401000Y-130008333D01*
X163448619Y-130103571D01*
X163448619Y-130627380D01*
%TO.C,C18*%
X139438142Y-160123142D02*
X139390523Y-160170761D01*
X139247666Y-160218380D01*
X139152428Y-160218380D01*
X139009571Y-160170761D01*
X138914333Y-160075523D01*
X138866714Y-159980285D01*
X138819095Y-159789809D01*
X138819095Y-159646952D01*
X138866714Y-159456476D01*
X138914333Y-159361238D01*
X139009571Y-159266000D01*
X139152428Y-159218380D01*
X139247666Y-159218380D01*
X139390523Y-159266000D01*
X139438142Y-159313619D01*
X140390523Y-160218380D02*
X139819095Y-160218380D01*
X140104809Y-160218380D02*
X140104809Y-159218380D01*
X140009571Y-159361238D01*
X139914333Y-159456476D01*
X139819095Y-159504095D01*
X140961952Y-159646952D02*
X140866714Y-159599333D01*
X140819095Y-159551714D01*
X140771476Y-159456476D01*
X140771476Y-159408857D01*
X140819095Y-159313619D01*
X140866714Y-159266000D01*
X140961952Y-159218380D01*
X141152428Y-159218380D01*
X141247666Y-159266000D01*
X141295285Y-159313619D01*
X141342904Y-159408857D01*
X141342904Y-159456476D01*
X141295285Y-159551714D01*
X141247666Y-159599333D01*
X141152428Y-159646952D01*
X140961952Y-159646952D01*
X140866714Y-159694571D01*
X140819095Y-159742190D01*
X140771476Y-159837428D01*
X140771476Y-160027904D01*
X140819095Y-160123142D01*
X140866714Y-160170761D01*
X140961952Y-160218380D01*
X141152428Y-160218380D01*
X141247666Y-160170761D01*
X141295285Y-160123142D01*
X141342904Y-160027904D01*
X141342904Y-159837428D01*
X141295285Y-159742190D01*
X141247666Y-159694571D01*
X141152428Y-159646952D01*
X138322952Y-163631619D02*
X138370571Y-163584000D01*
X138465809Y-163536380D01*
X138703904Y-163536380D01*
X138799142Y-163584000D01*
X138846761Y-163631619D01*
X138894380Y-163726857D01*
X138894380Y-163822095D01*
X138846761Y-163964952D01*
X138275333Y-164536380D01*
X138894380Y-164536380D01*
X139275333Y-163631619D02*
X139322952Y-163584000D01*
X139418190Y-163536380D01*
X139656285Y-163536380D01*
X139751523Y-163584000D01*
X139799142Y-163631619D01*
X139846761Y-163726857D01*
X139846761Y-163822095D01*
X139799142Y-163964952D01*
X139227714Y-164536380D01*
X139846761Y-164536380D01*
X140465809Y-163536380D02*
X140561047Y-163536380D01*
X140656285Y-163584000D01*
X140703904Y-163631619D01*
X140751523Y-163726857D01*
X140799142Y-163917333D01*
X140799142Y-164155428D01*
X140751523Y-164345904D01*
X140703904Y-164441142D01*
X140656285Y-164488761D01*
X140561047Y-164536380D01*
X140465809Y-164536380D01*
X140370571Y-164488761D01*
X140322952Y-164441142D01*
X140275333Y-164345904D01*
X140227714Y-164155428D01*
X140227714Y-163917333D01*
X140275333Y-163726857D01*
X140322952Y-163631619D01*
X140370571Y-163584000D01*
X140465809Y-163536380D01*
X141227714Y-163869714D02*
X141227714Y-164869714D01*
X141227714Y-163917333D02*
X141322952Y-163869714D01*
X141513428Y-163869714D01*
X141608666Y-163917333D01*
X141656285Y-163964952D01*
X141703904Y-164060190D01*
X141703904Y-164345904D01*
X141656285Y-164441142D01*
X141608666Y-164488761D01*
X141513428Y-164536380D01*
X141322952Y-164536380D01*
X141227714Y-164488761D01*
X142465809Y-164012571D02*
X142132476Y-164012571D01*
X142132476Y-164536380D02*
X142132476Y-163536380D01*
X142608666Y-163536380D01*
%TO.C,C11*%
X133557142Y-68628142D02*
X133509523Y-68675761D01*
X133366666Y-68723380D01*
X133271428Y-68723380D01*
X133128571Y-68675761D01*
X133033333Y-68580523D01*
X132985714Y-68485285D01*
X132938095Y-68294809D01*
X132938095Y-68151952D01*
X132985714Y-67961476D01*
X133033333Y-67866238D01*
X133128571Y-67771000D01*
X133271428Y-67723380D01*
X133366666Y-67723380D01*
X133509523Y-67771000D01*
X133557142Y-67818619D01*
X134509523Y-68723380D02*
X133938095Y-68723380D01*
X134223809Y-68723380D02*
X134223809Y-67723380D01*
X134128571Y-67866238D01*
X134033333Y-67961476D01*
X133938095Y-68009095D01*
X135461904Y-68723380D02*
X134890476Y-68723380D01*
X135176190Y-68723380D02*
X135176190Y-67723380D01*
X135080952Y-67866238D01*
X134985714Y-67961476D01*
X134890476Y-68009095D01*
X133080952Y-65023380D02*
X132509523Y-65023380D01*
X132795238Y-65023380D02*
X132795238Y-64023380D01*
X132700000Y-64166238D01*
X132604761Y-64261476D01*
X132509523Y-64309095D01*
X133700000Y-64023380D02*
X133795238Y-64023380D01*
X133890476Y-64071000D01*
X133938095Y-64118619D01*
X133985714Y-64213857D01*
X134033333Y-64404333D01*
X134033333Y-64642428D01*
X133985714Y-64832904D01*
X133938095Y-64928142D01*
X133890476Y-64975761D01*
X133795238Y-65023380D01*
X133700000Y-65023380D01*
X133604761Y-64975761D01*
X133557142Y-64928142D01*
X133509523Y-64832904D01*
X133461904Y-64642428D01*
X133461904Y-64404333D01*
X133509523Y-64213857D01*
X133557142Y-64118619D01*
X133604761Y-64071000D01*
X133700000Y-64023380D01*
X134652380Y-64023380D02*
X134747619Y-64023380D01*
X134842857Y-64071000D01*
X134890476Y-64118619D01*
X134938095Y-64213857D01*
X134985714Y-64404333D01*
X134985714Y-64642428D01*
X134938095Y-64832904D01*
X134890476Y-64928142D01*
X134842857Y-64975761D01*
X134747619Y-65023380D01*
X134652380Y-65023380D01*
X134557142Y-64975761D01*
X134509523Y-64928142D01*
X134461904Y-64832904D01*
X134414285Y-64642428D01*
X134414285Y-64404333D01*
X134461904Y-64213857D01*
X134509523Y-64118619D01*
X134557142Y-64071000D01*
X134652380Y-64023380D01*
X135414285Y-64356714D02*
X135414285Y-65023380D01*
X135414285Y-64451952D02*
X135461904Y-64404333D01*
X135557142Y-64356714D01*
X135700000Y-64356714D01*
X135795238Y-64404333D01*
X135842857Y-64499571D01*
X135842857Y-65023380D01*
%TO.C,C14*%
X135882142Y-85193142D02*
X135834523Y-85240761D01*
X135691666Y-85288380D01*
X135596428Y-85288380D01*
X135453571Y-85240761D01*
X135358333Y-85145523D01*
X135310714Y-85050285D01*
X135263095Y-84859809D01*
X135263095Y-84716952D01*
X135310714Y-84526476D01*
X135358333Y-84431238D01*
X135453571Y-84336000D01*
X135596428Y-84288380D01*
X135691666Y-84288380D01*
X135834523Y-84336000D01*
X135882142Y-84383619D01*
X136834523Y-85288380D02*
X136263095Y-85288380D01*
X136548809Y-85288380D02*
X136548809Y-84288380D01*
X136453571Y-84431238D01*
X136358333Y-84526476D01*
X136263095Y-84574095D01*
X137691666Y-84621714D02*
X137691666Y-85288380D01*
X137453571Y-84240761D02*
X137215476Y-84955047D01*
X137834523Y-84955047D01*
X135088523Y-83145380D02*
X135707571Y-83145380D01*
X135374238Y-83526333D01*
X135517095Y-83526333D01*
X135612333Y-83573952D01*
X135659952Y-83621571D01*
X135707571Y-83716809D01*
X135707571Y-83954904D01*
X135659952Y-84050142D01*
X135612333Y-84097761D01*
X135517095Y-84145380D01*
X135231380Y-84145380D01*
X135136142Y-84097761D01*
X135088523Y-84050142D01*
X136040904Y-83145380D02*
X136659952Y-83145380D01*
X136326619Y-83526333D01*
X136469476Y-83526333D01*
X136564714Y-83573952D01*
X136612333Y-83621571D01*
X136659952Y-83716809D01*
X136659952Y-83954904D01*
X136612333Y-84050142D01*
X136564714Y-84097761D01*
X136469476Y-84145380D01*
X136183761Y-84145380D01*
X136088523Y-84097761D01*
X136040904Y-84050142D01*
X137517095Y-83478714D02*
X137517095Y-84145380D01*
X137088523Y-83478714D02*
X137088523Y-84002523D01*
X137136142Y-84097761D01*
X137231380Y-84145380D01*
X137374238Y-84145380D01*
X137469476Y-84097761D01*
X137517095Y-84050142D01*
X138326619Y-83621571D02*
X137993285Y-83621571D01*
X137993285Y-84145380D02*
X137993285Y-83145380D01*
X138469476Y-83145380D01*
%TO.C,C10*%
X153479142Y-74663857D02*
X153526761Y-74711476D01*
X153574380Y-74854333D01*
X153574380Y-74949571D01*
X153526761Y-75092428D01*
X153431523Y-75187666D01*
X153336285Y-75235285D01*
X153145809Y-75282904D01*
X153002952Y-75282904D01*
X152812476Y-75235285D01*
X152717238Y-75187666D01*
X152622000Y-75092428D01*
X152574380Y-74949571D01*
X152574380Y-74854333D01*
X152622000Y-74711476D01*
X152669619Y-74663857D01*
X153574380Y-73711476D02*
X153574380Y-74282904D01*
X153574380Y-73997190D02*
X152574380Y-73997190D01*
X152717238Y-74092428D01*
X152812476Y-74187666D01*
X152860095Y-74282904D01*
X152574380Y-73092428D02*
X152574380Y-72997190D01*
X152622000Y-72901952D01*
X152669619Y-72854333D01*
X152764857Y-72806714D01*
X152955333Y-72759095D01*
X153193428Y-72759095D01*
X153383904Y-72806714D01*
X153479142Y-72854333D01*
X153526761Y-72901952D01*
X153574380Y-72997190D01*
X153574380Y-73092428D01*
X153526761Y-73187666D01*
X153479142Y-73235285D01*
X153383904Y-73282904D01*
X153193428Y-73330523D01*
X152955333Y-73330523D01*
X152764857Y-73282904D01*
X152669619Y-73235285D01*
X152622000Y-73187666D01*
X152574380Y-73092428D01*
X148574380Y-75092428D02*
X148574380Y-75663857D01*
X148574380Y-75378142D02*
X147574380Y-75378142D01*
X147717238Y-75473380D01*
X147812476Y-75568619D01*
X147860095Y-75663857D01*
X147574380Y-74187666D02*
X147574380Y-74663857D01*
X148050571Y-74711476D01*
X148002952Y-74663857D01*
X147955333Y-74568619D01*
X147955333Y-74330523D01*
X148002952Y-74235285D01*
X148050571Y-74187666D01*
X148145809Y-74140047D01*
X148383904Y-74140047D01*
X148479142Y-74187666D01*
X148526761Y-74235285D01*
X148574380Y-74330523D01*
X148574380Y-74568619D01*
X148526761Y-74663857D01*
X148479142Y-74711476D01*
X147907714Y-73711476D02*
X148574380Y-73711476D01*
X148002952Y-73711476D02*
X147955333Y-73663857D01*
X147907714Y-73568619D01*
X147907714Y-73425761D01*
X147955333Y-73330523D01*
X148050571Y-73282904D01*
X148574380Y-73282904D01*
X148050571Y-72473380D02*
X148050571Y-72806714D01*
X148574380Y-72806714D02*
X147574380Y-72806714D01*
X147574380Y-72330523D01*
%TO.C,C9*%
X153606142Y-67329666D02*
X153653761Y-67377285D01*
X153701380Y-67520142D01*
X153701380Y-67615380D01*
X153653761Y-67758238D01*
X153558523Y-67853476D01*
X153463285Y-67901095D01*
X153272809Y-67948714D01*
X153129952Y-67948714D01*
X152939476Y-67901095D01*
X152844238Y-67853476D01*
X152749000Y-67758238D01*
X152701380Y-67615380D01*
X152701380Y-67520142D01*
X152749000Y-67377285D01*
X152796619Y-67329666D01*
X153701380Y-66853476D02*
X153701380Y-66663000D01*
X153653761Y-66567761D01*
X153606142Y-66520142D01*
X153463285Y-66424904D01*
X153272809Y-66377285D01*
X152891857Y-66377285D01*
X152796619Y-66424904D01*
X152749000Y-66472523D01*
X152701380Y-66567761D01*
X152701380Y-66758238D01*
X152749000Y-66853476D01*
X152796619Y-66901095D01*
X152891857Y-66948714D01*
X153129952Y-66948714D01*
X153225190Y-66901095D01*
X153272809Y-66853476D01*
X153320428Y-66758238D01*
X153320428Y-66567761D01*
X153272809Y-66472523D01*
X153225190Y-66424904D01*
X153129952Y-66377285D01*
X148701380Y-68234428D02*
X148701380Y-68805857D01*
X148701380Y-68520142D02*
X147701380Y-68520142D01*
X147844238Y-68615380D01*
X147939476Y-68710619D01*
X147987095Y-68805857D01*
X147701380Y-67329666D02*
X147701380Y-67805857D01*
X148177571Y-67853476D01*
X148129952Y-67805857D01*
X148082333Y-67710619D01*
X148082333Y-67472523D01*
X148129952Y-67377285D01*
X148177571Y-67329666D01*
X148272809Y-67282047D01*
X148510904Y-67282047D01*
X148606142Y-67329666D01*
X148653761Y-67377285D01*
X148701380Y-67472523D01*
X148701380Y-67710619D01*
X148653761Y-67805857D01*
X148606142Y-67853476D01*
X148034714Y-66853476D02*
X148701380Y-66853476D01*
X148129952Y-66853476D02*
X148082333Y-66805857D01*
X148034714Y-66710619D01*
X148034714Y-66567761D01*
X148082333Y-66472523D01*
X148177571Y-66424904D01*
X148701380Y-66424904D01*
X148177571Y-65615380D02*
X148177571Y-65948714D01*
X148701380Y-65948714D02*
X147701380Y-65948714D01*
X147701380Y-65472523D01*
%TO.C,C8*%
X134215142Y-109767666D02*
X134262761Y-109815285D01*
X134310380Y-109958142D01*
X134310380Y-110053380D01*
X134262761Y-110196238D01*
X134167523Y-110291476D01*
X134072285Y-110339095D01*
X133881809Y-110386714D01*
X133738952Y-110386714D01*
X133548476Y-110339095D01*
X133453238Y-110291476D01*
X133358000Y-110196238D01*
X133310380Y-110053380D01*
X133310380Y-109958142D01*
X133358000Y-109815285D01*
X133405619Y-109767666D01*
X133738952Y-109196238D02*
X133691333Y-109291476D01*
X133643714Y-109339095D01*
X133548476Y-109386714D01*
X133500857Y-109386714D01*
X133405619Y-109339095D01*
X133358000Y-109291476D01*
X133310380Y-109196238D01*
X133310380Y-109005761D01*
X133358000Y-108910523D01*
X133405619Y-108862904D01*
X133500857Y-108815285D01*
X133548476Y-108815285D01*
X133643714Y-108862904D01*
X133691333Y-108910523D01*
X133738952Y-109005761D01*
X133738952Y-109196238D01*
X133786571Y-109291476D01*
X133834190Y-109339095D01*
X133929428Y-109386714D01*
X134119904Y-109386714D01*
X134215142Y-109339095D01*
X134262761Y-109291476D01*
X134310380Y-109196238D01*
X134310380Y-109005761D01*
X134262761Y-108910523D01*
X134215142Y-108862904D01*
X134119904Y-108815285D01*
X133929428Y-108815285D01*
X133834190Y-108862904D01*
X133786571Y-108910523D01*
X133738952Y-109005761D01*
X127806619Y-107257904D02*
X128301857Y-107257904D01*
X128035190Y-107562666D01*
X128149476Y-107562666D01*
X128225666Y-107600761D01*
X128263761Y-107638857D01*
X128301857Y-107715047D01*
X128301857Y-107905523D01*
X128263761Y-107981714D01*
X128225666Y-108019809D01*
X128149476Y-108057904D01*
X127920904Y-108057904D01*
X127844714Y-108019809D01*
X127806619Y-107981714D01*
X128568523Y-107257904D02*
X129063761Y-107257904D01*
X128797095Y-107562666D01*
X128911380Y-107562666D01*
X128987571Y-107600761D01*
X129025666Y-107638857D01*
X129063761Y-107715047D01*
X129063761Y-107905523D01*
X129025666Y-107981714D01*
X128987571Y-108019809D01*
X128911380Y-108057904D01*
X128682809Y-108057904D01*
X128606619Y-108019809D01*
X128568523Y-107981714D01*
X129406619Y-107524571D02*
X129406619Y-108057904D01*
X129406619Y-107600761D02*
X129444714Y-107562666D01*
X129520904Y-107524571D01*
X129635190Y-107524571D01*
X129711380Y-107562666D01*
X129749476Y-107638857D01*
X129749476Y-108057904D01*
X130397095Y-107638857D02*
X130130428Y-107638857D01*
X130130428Y-108057904D02*
X130130428Y-107257904D01*
X130511380Y-107257904D01*
%TO.C,C7*%
X160488333Y-99671142D02*
X160440714Y-99718761D01*
X160297857Y-99766380D01*
X160202619Y-99766380D01*
X160059761Y-99718761D01*
X159964523Y-99623523D01*
X159916904Y-99528285D01*
X159869285Y-99337809D01*
X159869285Y-99194952D01*
X159916904Y-99004476D01*
X159964523Y-98909238D01*
X160059761Y-98814000D01*
X160202619Y-98766380D01*
X160297857Y-98766380D01*
X160440714Y-98814000D01*
X160488333Y-98861619D01*
X160821666Y-98766380D02*
X161488333Y-98766380D01*
X161059761Y-99766380D01*
X160432857Y-97770904D02*
X159975714Y-97770904D01*
X160204285Y-97770904D02*
X160204285Y-96970904D01*
X160128095Y-97085190D01*
X160051904Y-97161380D01*
X159975714Y-97199476D01*
X161156666Y-96970904D02*
X160775714Y-96970904D01*
X160737619Y-97351857D01*
X160775714Y-97313761D01*
X160851904Y-97275666D01*
X161042380Y-97275666D01*
X161118571Y-97313761D01*
X161156666Y-97351857D01*
X161194761Y-97428047D01*
X161194761Y-97618523D01*
X161156666Y-97694714D01*
X161118571Y-97732809D01*
X161042380Y-97770904D01*
X160851904Y-97770904D01*
X160775714Y-97732809D01*
X160737619Y-97694714D01*
X161537619Y-97237571D02*
X161537619Y-97770904D01*
X161537619Y-97313761D02*
X161575714Y-97275666D01*
X161651904Y-97237571D01*
X161766190Y-97237571D01*
X161842380Y-97275666D01*
X161880476Y-97351857D01*
X161880476Y-97770904D01*
X162528095Y-97351857D02*
X162261428Y-97351857D01*
X162261428Y-97770904D02*
X162261428Y-96970904D01*
X162642380Y-96970904D01*
%TO.C,C6*%
X147224142Y-151892666D02*
X147271761Y-151940285D01*
X147319380Y-152083142D01*
X147319380Y-152178380D01*
X147271761Y-152321238D01*
X147176523Y-152416476D01*
X147081285Y-152464095D01*
X146890809Y-152511714D01*
X146747952Y-152511714D01*
X146557476Y-152464095D01*
X146462238Y-152416476D01*
X146367000Y-152321238D01*
X146319380Y-152178380D01*
X146319380Y-152083142D01*
X146367000Y-151940285D01*
X146414619Y-151892666D01*
X146319380Y-151035523D02*
X146319380Y-151226000D01*
X146367000Y-151321238D01*
X146414619Y-151368857D01*
X146557476Y-151464095D01*
X146747952Y-151511714D01*
X147128904Y-151511714D01*
X147224142Y-151464095D01*
X147271761Y-151416476D01*
X147319380Y-151321238D01*
X147319380Y-151130761D01*
X147271761Y-151035523D01*
X147224142Y-150987904D01*
X147128904Y-150940285D01*
X146890809Y-150940285D01*
X146795571Y-150987904D01*
X146747952Y-151035523D01*
X146700333Y-151130761D01*
X146700333Y-151321238D01*
X146747952Y-151416476D01*
X146795571Y-151464095D01*
X146890809Y-151511714D01*
X151019380Y-152845047D02*
X151019380Y-153416476D01*
X151019380Y-153130761D02*
X150019380Y-153130761D01*
X150162238Y-153226000D01*
X150257476Y-153321238D01*
X150305095Y-153416476D01*
X150019380Y-152226000D02*
X150019380Y-152130761D01*
X150067000Y-152035523D01*
X150114619Y-151987904D01*
X150209857Y-151940285D01*
X150400333Y-151892666D01*
X150638428Y-151892666D01*
X150828904Y-151940285D01*
X150924142Y-151987904D01*
X150971761Y-152035523D01*
X151019380Y-152130761D01*
X151019380Y-152226000D01*
X150971761Y-152321238D01*
X150924142Y-152368857D01*
X150828904Y-152416476D01*
X150638428Y-152464095D01*
X150400333Y-152464095D01*
X150209857Y-152416476D01*
X150114619Y-152368857D01*
X150067000Y-152321238D01*
X150019380Y-152226000D01*
X150019380Y-151273619D02*
X150019380Y-151178380D01*
X150067000Y-151083142D01*
X150114619Y-151035523D01*
X150209857Y-150987904D01*
X150400333Y-150940285D01*
X150638428Y-150940285D01*
X150828904Y-150987904D01*
X150924142Y-151035523D01*
X150971761Y-151083142D01*
X151019380Y-151178380D01*
X151019380Y-151273619D01*
X150971761Y-151368857D01*
X150924142Y-151416476D01*
X150828904Y-151464095D01*
X150638428Y-151511714D01*
X150400333Y-151511714D01*
X150209857Y-151464095D01*
X150114619Y-151416476D01*
X150067000Y-151368857D01*
X150019380Y-151273619D01*
X150352714Y-150511714D02*
X151019380Y-150511714D01*
X150447952Y-150511714D02*
X150400333Y-150464095D01*
X150352714Y-150368857D01*
X150352714Y-150226000D01*
X150400333Y-150130761D01*
X150495571Y-150083142D01*
X151019380Y-150083142D01*
%TO.C,C5*%
X147986142Y-142190666D02*
X148033761Y-142238285D01*
X148081380Y-142381142D01*
X148081380Y-142476380D01*
X148033761Y-142619238D01*
X147938523Y-142714476D01*
X147843285Y-142762095D01*
X147652809Y-142809714D01*
X147509952Y-142809714D01*
X147319476Y-142762095D01*
X147224238Y-142714476D01*
X147129000Y-142619238D01*
X147081380Y-142476380D01*
X147081380Y-142381142D01*
X147129000Y-142238285D01*
X147176619Y-142190666D01*
X147081380Y-141285904D02*
X147081380Y-141762095D01*
X147557571Y-141809714D01*
X147509952Y-141762095D01*
X147462333Y-141666857D01*
X147462333Y-141428761D01*
X147509952Y-141333523D01*
X147557571Y-141285904D01*
X147652809Y-141238285D01*
X147890904Y-141238285D01*
X147986142Y-141285904D01*
X148033761Y-141333523D01*
X148081380Y-141428761D01*
X148081380Y-141666857D01*
X148033761Y-141762095D01*
X147986142Y-141809714D01*
X151781380Y-143143047D02*
X151781380Y-143714476D01*
X151781380Y-143428761D02*
X150781380Y-143428761D01*
X150924238Y-143524000D01*
X151019476Y-143619238D01*
X151067095Y-143714476D01*
X150781380Y-142524000D02*
X150781380Y-142428761D01*
X150829000Y-142333523D01*
X150876619Y-142285904D01*
X150971857Y-142238285D01*
X151162333Y-142190666D01*
X151400428Y-142190666D01*
X151590904Y-142238285D01*
X151686142Y-142285904D01*
X151733761Y-142333523D01*
X151781380Y-142428761D01*
X151781380Y-142524000D01*
X151733761Y-142619238D01*
X151686142Y-142666857D01*
X151590904Y-142714476D01*
X151400428Y-142762095D01*
X151162333Y-142762095D01*
X150971857Y-142714476D01*
X150876619Y-142666857D01*
X150829000Y-142619238D01*
X150781380Y-142524000D01*
X150781380Y-141571619D02*
X150781380Y-141476380D01*
X150829000Y-141381142D01*
X150876619Y-141333523D01*
X150971857Y-141285904D01*
X151162333Y-141238285D01*
X151400428Y-141238285D01*
X151590904Y-141285904D01*
X151686142Y-141333523D01*
X151733761Y-141381142D01*
X151781380Y-141476380D01*
X151781380Y-141571619D01*
X151733761Y-141666857D01*
X151686142Y-141714476D01*
X151590904Y-141762095D01*
X151400428Y-141809714D01*
X151162333Y-141809714D01*
X150971857Y-141762095D01*
X150876619Y-141714476D01*
X150829000Y-141666857D01*
X150781380Y-141571619D01*
X151114714Y-140809714D02*
X151781380Y-140809714D01*
X151209952Y-140809714D02*
X151162333Y-140762095D01*
X151114714Y-140666857D01*
X151114714Y-140524000D01*
X151162333Y-140428761D01*
X151257571Y-140381142D01*
X151781380Y-140381142D01*
%TO.C,C4*%
X131697833Y-91543142D02*
X131650214Y-91590761D01*
X131507357Y-91638380D01*
X131412119Y-91638380D01*
X131269261Y-91590761D01*
X131174023Y-91495523D01*
X131126404Y-91400285D01*
X131078785Y-91209809D01*
X131078785Y-91066952D01*
X131126404Y-90876476D01*
X131174023Y-90781238D01*
X131269261Y-90686000D01*
X131412119Y-90638380D01*
X131507357Y-90638380D01*
X131650214Y-90686000D01*
X131697833Y-90733619D01*
X132554976Y-90971714D02*
X132554976Y-91638380D01*
X132316880Y-90590761D02*
X132078785Y-91305047D01*
X132697833Y-91305047D01*
X128332452Y-88209380D02*
X127761023Y-88209380D01*
X128046738Y-88209380D02*
X128046738Y-87209380D01*
X127951500Y-87352238D01*
X127856261Y-87447476D01*
X127761023Y-87495095D01*
X128951500Y-87209380D02*
X129046738Y-87209380D01*
X129141976Y-87257000D01*
X129189595Y-87304619D01*
X129237214Y-87399857D01*
X129284833Y-87590333D01*
X129284833Y-87828428D01*
X129237214Y-88018904D01*
X129189595Y-88114142D01*
X129141976Y-88161761D01*
X129046738Y-88209380D01*
X128951500Y-88209380D01*
X128856261Y-88161761D01*
X128808642Y-88114142D01*
X128761023Y-88018904D01*
X128713404Y-87828428D01*
X128713404Y-87590333D01*
X128761023Y-87399857D01*
X128808642Y-87304619D01*
X128856261Y-87257000D01*
X128951500Y-87209380D01*
X129903880Y-87209380D02*
X129999119Y-87209380D01*
X130094357Y-87257000D01*
X130141976Y-87304619D01*
X130189595Y-87399857D01*
X130237214Y-87590333D01*
X130237214Y-87828428D01*
X130189595Y-88018904D01*
X130141976Y-88114142D01*
X130094357Y-88161761D01*
X129999119Y-88209380D01*
X129903880Y-88209380D01*
X129808642Y-88161761D01*
X129761023Y-88114142D01*
X129713404Y-88018904D01*
X129665785Y-87828428D01*
X129665785Y-87590333D01*
X129713404Y-87399857D01*
X129761023Y-87304619D01*
X129808642Y-87257000D01*
X129903880Y-87209380D01*
X130665785Y-87542714D02*
X130665785Y-88209380D01*
X130665785Y-87637952D02*
X130713404Y-87590333D01*
X130808642Y-87542714D01*
X130951500Y-87542714D01*
X131046738Y-87590333D01*
X131094357Y-87685571D01*
X131094357Y-88209380D01*
%TO.C,C1*%
X158694166Y-121443714D02*
X158656071Y-121481809D01*
X158541785Y-121519904D01*
X158465595Y-121519904D01*
X158351309Y-121481809D01*
X158275119Y-121405619D01*
X158237023Y-121329428D01*
X158198928Y-121177047D01*
X158198928Y-121062761D01*
X158237023Y-120910380D01*
X158275119Y-120834190D01*
X158351309Y-120758000D01*
X158465595Y-120719904D01*
X158541785Y-120719904D01*
X158656071Y-120758000D01*
X158694166Y-120796095D01*
X159456071Y-121519904D02*
X158998928Y-121519904D01*
X159227500Y-121519904D02*
X159227500Y-120719904D01*
X159151309Y-120834190D01*
X159075119Y-120910380D01*
X158998928Y-120948476D01*
X154884261Y-118090904D02*
X154427119Y-118090904D01*
X154655690Y-118090904D02*
X154655690Y-117290904D01*
X154579500Y-117405190D01*
X154503309Y-117481380D01*
X154427119Y-117519476D01*
X155379500Y-117290904D02*
X155455690Y-117290904D01*
X155531880Y-117329000D01*
X155569976Y-117367095D01*
X155608071Y-117443285D01*
X155646166Y-117595666D01*
X155646166Y-117786142D01*
X155608071Y-117938523D01*
X155569976Y-118014714D01*
X155531880Y-118052809D01*
X155455690Y-118090904D01*
X155379500Y-118090904D01*
X155303309Y-118052809D01*
X155265214Y-118014714D01*
X155227119Y-117938523D01*
X155189023Y-117786142D01*
X155189023Y-117595666D01*
X155227119Y-117443285D01*
X155265214Y-117367095D01*
X155303309Y-117329000D01*
X155379500Y-117290904D01*
X156141404Y-117290904D02*
X156217595Y-117290904D01*
X156293785Y-117329000D01*
X156331880Y-117367095D01*
X156369976Y-117443285D01*
X156408071Y-117595666D01*
X156408071Y-117786142D01*
X156369976Y-117938523D01*
X156331880Y-118014714D01*
X156293785Y-118052809D01*
X156217595Y-118090904D01*
X156141404Y-118090904D01*
X156065214Y-118052809D01*
X156027119Y-118014714D01*
X155989023Y-117938523D01*
X155950928Y-117786142D01*
X155950928Y-117595666D01*
X155989023Y-117443285D01*
X156027119Y-117367095D01*
X156065214Y-117329000D01*
X156141404Y-117290904D01*
X156750928Y-117557571D02*
X156750928Y-118090904D01*
X156750928Y-117633761D02*
X156789023Y-117595666D01*
X156865214Y-117557571D01*
X156979500Y-117557571D01*
X157055690Y-117595666D01*
X157093785Y-117671857D01*
X157093785Y-118090904D01*
%TD*%
M02*
