%TF.GenerationSoftware,KiCad,Pcbnew,(5.1.9)-1*%
%TF.CreationDate,2021-08-15T07:19:13+01:00*%
%TF.ProjectId,8x8_Kick_Drum,3878385f-4b69-4636-9b5f-4472756d2e6b,rev?*%
%TF.SameCoordinates,Original*%
%TF.FileFunction,Other,User*%
%FSLAX46Y46*%
G04 Gerber Fmt 4.6, Leading zero omitted, Abs format (unit mm)*
G04 Created by KiCad (PCBNEW (5.1.9)-1) date 2021-08-15 07:19:13*
%MOMM*%
%LPD*%
G01*
G04 APERTURE LIST*
%ADD10C,0.050000*%
G04 APERTURE END LIST*
D10*
%TO.C,R26*%
X134643000Y-164603000D02*
X134643000Y-159703000D01*
X136883000Y-164603000D02*
X134643000Y-164603000D01*
X136883000Y-159703000D02*
X136883000Y-164603000D01*
X134643000Y-159703000D02*
X136883000Y-159703000D01*
%TO.C,R25*%
X144422000Y-161301000D02*
X144422000Y-156401000D01*
X146662000Y-161301000D02*
X144422000Y-161301000D01*
X146662000Y-156401000D02*
X146662000Y-161301000D01*
X144422000Y-156401000D02*
X146662000Y-156401000D01*
%TO.C,R24*%
X128039000Y-164655000D02*
X128039000Y-159755000D01*
X130279000Y-164655000D02*
X128039000Y-164655000D01*
X130279000Y-159755000D02*
X130279000Y-164655000D01*
X128039000Y-159755000D02*
X130279000Y-159755000D01*
%TO.C,R23*%
X137784000Y-155471000D02*
X142684000Y-155471000D01*
X137784000Y-157711000D02*
X137784000Y-155471000D01*
X142684000Y-157711000D02*
X137784000Y-157711000D01*
X142684000Y-155471000D02*
X142684000Y-157711000D01*
%TO.C,R22*%
X133742000Y-147805000D02*
X128842000Y-147805000D01*
X133742000Y-145565000D02*
X133742000Y-147805000D01*
X128842000Y-145565000D02*
X133742000Y-145565000D01*
X128842000Y-147805000D02*
X128842000Y-145565000D01*
%TO.C,R21*%
X142852000Y-126735000D02*
X142852000Y-131635000D01*
X140612000Y-126735000D02*
X142852000Y-126735000D01*
X140612000Y-131635000D02*
X140612000Y-126735000D01*
X142852000Y-131635000D02*
X140612000Y-131635000D01*
%TO.C,R20*%
X134482000Y-136167000D02*
X139382000Y-136167000D01*
X134482000Y-138407000D02*
X134482000Y-136167000D01*
X139382000Y-138407000D02*
X134482000Y-138407000D01*
X139382000Y-136167000D02*
X139382000Y-138407000D01*
%TO.C,R19*%
X132271000Y-72921000D02*
X137171000Y-72921000D01*
X132271000Y-75161000D02*
X132271000Y-72921000D01*
X137171000Y-75161000D02*
X132271000Y-75161000D01*
X137171000Y-72921000D02*
X137171000Y-75161000D01*
%TO.C,R18*%
X144235000Y-88161000D02*
X149135000Y-88161000D01*
X144235000Y-90401000D02*
X144235000Y-88161000D01*
X149135000Y-90401000D02*
X144235000Y-90401000D01*
X149135000Y-88161000D02*
X149135000Y-90401000D01*
%TO.C,R17*%
X161428000Y-74272000D02*
X156528000Y-74272000D01*
X161428000Y-72032000D02*
X161428000Y-74272000D01*
X156528000Y-72032000D02*
X161428000Y-72032000D01*
X156528000Y-74272000D02*
X156528000Y-72032000D01*
%TO.C,R16*%
X139536000Y-78509000D02*
X144436000Y-78509000D01*
X139536000Y-80749000D02*
X139536000Y-78509000D01*
X144436000Y-80749000D02*
X139536000Y-80749000D01*
X144436000Y-78509000D02*
X144436000Y-80749000D01*
%TO.C,R15*%
X144082000Y-83462000D02*
X148982000Y-83462000D01*
X144082000Y-85702000D02*
X144082000Y-83462000D01*
X148982000Y-85702000D02*
X144082000Y-85702000D01*
X148982000Y-83462000D02*
X148982000Y-85702000D01*
%TO.C,R14*%
X159067000Y-82400000D02*
X154167000Y-82400000D01*
X159067000Y-80160000D02*
X159067000Y-82400000D01*
X154167000Y-80160000D02*
X159067000Y-80160000D01*
X154167000Y-82400000D02*
X154167000Y-80160000D01*
%TO.C,R13*%
X127878000Y-112545000D02*
X132778000Y-112545000D01*
X127878000Y-114785000D02*
X127878000Y-112545000D01*
X132778000Y-114785000D02*
X127878000Y-114785000D01*
X132778000Y-112545000D02*
X132778000Y-114785000D01*
%TO.C,R12*%
X159269000Y-103736000D02*
X154369000Y-103736000D01*
X159269000Y-101496000D02*
X159269000Y-103736000D01*
X154369000Y-101496000D02*
X159269000Y-101496000D01*
X154369000Y-103736000D02*
X154369000Y-101496000D01*
%TO.C,R11*%
X154167000Y-84986000D02*
X159067000Y-84986000D01*
X154167000Y-87226000D02*
X154167000Y-84986000D01*
X159067000Y-87226000D02*
X154167000Y-87226000D01*
X159067000Y-84986000D02*
X159067000Y-87226000D01*
%TO.C,R10*%
X154115000Y-93114000D02*
X159015000Y-93114000D01*
X154115000Y-95354000D02*
X154115000Y-93114000D01*
X159015000Y-95354000D02*
X154115000Y-95354000D01*
X159015000Y-93114000D02*
X159015000Y-95354000D01*
%TO.C,R9*%
X132726000Y-106022000D02*
X127826000Y-106022000D01*
X132726000Y-103782000D02*
X132726000Y-106022000D01*
X127826000Y-103782000D02*
X132726000Y-103782000D01*
X127826000Y-106022000D02*
X127826000Y-103782000D01*
%TO.C,R8*%
X159321000Y-112118000D02*
X154421000Y-112118000D01*
X159321000Y-109878000D02*
X159321000Y-112118000D01*
X154421000Y-109878000D02*
X159321000Y-109878000D01*
X154421000Y-112118000D02*
X154421000Y-109878000D01*
%TO.C,R7*%
X154421000Y-105687000D02*
X159321000Y-105687000D01*
X154421000Y-107927000D02*
X154421000Y-105687000D01*
X159321000Y-107927000D02*
X154421000Y-107927000D01*
X159321000Y-105687000D02*
X159321000Y-107927000D01*
%TO.C,R6*%
X132651000Y-101577000D02*
X127751000Y-101577000D01*
X132651000Y-99337000D02*
X132651000Y-101577000D01*
X127751000Y-99337000D02*
X132651000Y-99337000D01*
X127751000Y-101577000D02*
X127751000Y-99337000D01*
%TO.C,R5*%
X159549000Y-124945000D02*
X154649000Y-124945000D01*
X159549000Y-122705000D02*
X159549000Y-124945000D01*
X154649000Y-122705000D02*
X159549000Y-122705000D01*
X154649000Y-124945000D02*
X154649000Y-122705000D01*
%TO.C,R4*%
X159321000Y-116436000D02*
X154421000Y-116436000D01*
X159321000Y-114196000D02*
X159321000Y-116436000D01*
X154421000Y-114196000D02*
X159321000Y-114196000D01*
X154421000Y-116436000D02*
X154421000Y-114196000D01*
%TO.C,R3*%
X144589000Y-76050000D02*
X139689000Y-76050000D01*
X144589000Y-73810000D02*
X144589000Y-76050000D01*
X139689000Y-73810000D02*
X144589000Y-73810000D01*
X139689000Y-76050000D02*
X139689000Y-73810000D01*
%TO.C,R2*%
X153199000Y-82400000D02*
X148299000Y-82400000D01*
X153199000Y-80160000D02*
X153199000Y-82400000D01*
X148299000Y-80160000D02*
X153199000Y-80160000D01*
X148299000Y-82400000D02*
X148299000Y-80160000D01*
%TO.C,R1*%
X144082000Y-119403000D02*
X148982000Y-119403000D01*
X144082000Y-121643000D02*
X144082000Y-119403000D01*
X148982000Y-121643000D02*
X144082000Y-121643000D01*
X148982000Y-119403000D02*
X148982000Y-121643000D01*
%TO.C,D5*%
X154056000Y-91778000D02*
X154056000Y-89578000D01*
X163356000Y-91778000D02*
X154056000Y-91778000D01*
X163356000Y-89578000D02*
X163356000Y-91778000D01*
X154056000Y-89578000D02*
X163356000Y-89578000D01*
%TO.C,D4*%
X137028000Y-116502000D02*
X137028000Y-118702000D01*
X127728000Y-116502000D02*
X137028000Y-116502000D01*
X127728000Y-118702000D02*
X127728000Y-116502000D01*
X137028000Y-118702000D02*
X127728000Y-118702000D01*
%TO.C,D3*%
X152824000Y-143051000D02*
X155024000Y-143051000D01*
X152824000Y-152351000D02*
X152824000Y-143051000D01*
X155024000Y-152351000D02*
X152824000Y-152351000D01*
X155024000Y-143051000D02*
X155024000Y-152351000D01*
%TO.C,D2*%
X155024000Y-140159000D02*
X152824000Y-140159000D01*
X155024000Y-130859000D02*
X155024000Y-140159000D01*
X152824000Y-130859000D02*
X155024000Y-130859000D01*
X152824000Y-140159000D02*
X152824000Y-130859000D01*
%TO.C,D1*%
X155922000Y-163152000D02*
X155922000Y-160952000D01*
X165222000Y-163152000D02*
X155922000Y-163152000D01*
X165222000Y-160952000D02*
X165222000Y-163152000D01*
X155922000Y-160952000D02*
X165222000Y-160952000D01*
%TO.C,C17*%
X143863000Y-167894000D02*
G75*
G03*
X143863000Y-167894000I-2750000J0D01*
G01*
%TO.C,C13*%
X150594000Y-129159000D02*
G75*
G03*
X150594000Y-129159000I-2750000J0D01*
G01*
%TO.C,C12*%
X146276000Y-66929000D02*
G75*
G03*
X146276000Y-66929000I-2750000J0D01*
G01*
%TO.C,C3*%
X147672000Y-146919000D02*
G75*
G03*
X147672000Y-146919000I-3400000J0D01*
G01*
%TO.C,C2*%
X147164000Y-138029000D02*
G75*
G03*
X147164000Y-138029000I-3400000J0D01*
G01*
%TO.C,U1*%
X128725000Y-123672000D02*
X128725000Y-134372000D01*
X128725000Y-134372000D02*
X139275000Y-134372000D01*
X139275000Y-134372000D02*
X139275000Y-123672000D01*
X139275000Y-123672000D02*
X128725000Y-123672000D01*
%TO.C,Q6*%
X127397000Y-149396000D02*
X134497000Y-149396000D01*
X127397000Y-149396000D02*
X127397000Y-153996000D01*
X134497000Y-153996000D02*
X134497000Y-149396000D01*
X134497000Y-153996000D02*
X127397000Y-153996000D01*
%TO.C,Q5*%
X165056000Y-80661000D02*
X165056000Y-87761000D01*
X165056000Y-80661000D02*
X160456000Y-80661000D01*
X160456000Y-87761000D02*
X165056000Y-87761000D01*
X160456000Y-87761000D02*
X160456000Y-80661000D01*
%TO.C,Q4*%
X127651000Y-91992000D02*
X134751000Y-91992000D01*
X127651000Y-91992000D02*
X127651000Y-96592000D01*
X134751000Y-96592000D02*
X134751000Y-91992000D01*
X134751000Y-96592000D02*
X127651000Y-96592000D01*
%TO.C,Q3*%
X160064000Y-108188000D02*
X160064000Y-101088000D01*
X160064000Y-108188000D02*
X164664000Y-108188000D01*
X164664000Y-101088000D02*
X160064000Y-101088000D01*
X164664000Y-101088000D02*
X164664000Y-108188000D01*
%TO.C,Q2*%
X160826000Y-121396000D02*
X160826000Y-114296000D01*
X160826000Y-121396000D02*
X165426000Y-121396000D01*
X165426000Y-114296000D02*
X160826000Y-114296000D01*
X165426000Y-114296000D02*
X165426000Y-121396000D01*
%TO.C,Q1*%
X132290000Y-79899000D02*
X132290000Y-86999000D01*
X132290000Y-79899000D02*
X127690000Y-79899000D01*
X127690000Y-86999000D02*
X132290000Y-86999000D01*
X127690000Y-86999000D02*
X127690000Y-79899000D01*
%TO.C,C16*%
X133124000Y-136137000D02*
X133124000Y-138437000D01*
X133124000Y-138437000D02*
X128164000Y-138437000D01*
X128164000Y-138437000D02*
X128164000Y-136137000D01*
X128164000Y-136137000D02*
X133124000Y-136137000D01*
%TO.C,C15*%
X139348000Y-120389000D02*
X139348000Y-122689000D01*
X139348000Y-122689000D02*
X134388000Y-122689000D01*
X134388000Y-122689000D02*
X134388000Y-120389000D01*
X134388000Y-120389000D02*
X139348000Y-120389000D01*
%TO.C,J1*%
X165351000Y-152158000D02*
X165351000Y-130798000D01*
X165351000Y-130798000D02*
X155451000Y-130798000D01*
X155451000Y-130798000D02*
X155451000Y-152158000D01*
X155451000Y-152158000D02*
X165351000Y-152158000D01*
%TO.C,C18*%
X137692000Y-160425000D02*
X137692000Y-163425000D01*
X137692000Y-163425000D02*
X143192000Y-163425000D01*
X143192000Y-163425000D02*
X143192000Y-160425000D01*
X143192000Y-160425000D02*
X137692000Y-160425000D01*
%TO.C,C11*%
X136680000Y-65271000D02*
X136680000Y-67571000D01*
X136680000Y-67571000D02*
X131720000Y-67571000D01*
X131720000Y-67571000D02*
X131720000Y-65271000D01*
X131720000Y-65271000D02*
X136680000Y-65271000D01*
%TO.C,C14*%
X140072000Y-88773000D02*
G75*
G03*
X140072000Y-88773000I-3400000J0D01*
G01*
%TO.C,C10*%
X152122000Y-71271000D02*
X149122000Y-71271000D01*
X149122000Y-71271000D02*
X149122000Y-76771000D01*
X149122000Y-76771000D02*
X152122000Y-76771000D01*
X152122000Y-76771000D02*
X152122000Y-71271000D01*
%TO.C,C9*%
X152249000Y-64413000D02*
X149249000Y-64413000D01*
X149249000Y-64413000D02*
X149249000Y-69913000D01*
X149249000Y-69913000D02*
X152249000Y-69913000D01*
X152249000Y-69913000D02*
X152249000Y-64413000D01*
%TO.C,C8*%
X127659000Y-108101000D02*
X127659000Y-111101000D01*
X127659000Y-111101000D02*
X133159000Y-111101000D01*
X133159000Y-111101000D02*
X133159000Y-108101000D01*
X133159000Y-108101000D02*
X127659000Y-108101000D01*
%TO.C,C7*%
X159615000Y-99798000D02*
X159615000Y-96798000D01*
X159615000Y-96798000D02*
X154115000Y-96798000D01*
X154115000Y-96798000D02*
X154115000Y-99798000D01*
X154115000Y-99798000D02*
X159615000Y-99798000D01*
%TO.C,C6*%
X149867000Y-154206000D02*
X147567000Y-154206000D01*
X147567000Y-154206000D02*
X147567000Y-149246000D01*
X147567000Y-149246000D02*
X149867000Y-149246000D01*
X149867000Y-149246000D02*
X149867000Y-154206000D01*
%TO.C,C5*%
X150629000Y-144504000D02*
X148329000Y-144504000D01*
X148329000Y-144504000D02*
X148329000Y-139544000D01*
X148329000Y-139544000D02*
X150629000Y-139544000D01*
X150629000Y-139544000D02*
X150629000Y-144504000D01*
%TO.C,C4*%
X127695000Y-90558000D02*
X127695000Y-88258000D01*
X127695000Y-88258000D02*
X132655000Y-88258000D01*
X132655000Y-88258000D02*
X132655000Y-90558000D01*
X132655000Y-90558000D02*
X127695000Y-90558000D01*
%TO.C,C1*%
X159364000Y-118230000D02*
X159364000Y-120530000D01*
X159364000Y-120530000D02*
X154404000Y-120530000D01*
X154404000Y-120530000D02*
X154404000Y-118230000D01*
X154404000Y-118230000D02*
X159364000Y-118230000D01*
%TD*%
M02*
