%TF.GenerationSoftware,KiCad,Pcbnew,(5.1.9)-1*%
%TF.CreationDate,2021-08-15T07:19:13+01:00*%
%TF.ProjectId,8x8_Kick_Drum,3878385f-4b69-4636-9b5f-4472756d2e6b,rev?*%
%TF.SameCoordinates,Original*%
%TF.FileFunction,Profile,NP*%
%FSLAX46Y46*%
G04 Gerber Fmt 4.6, Leading zero omitted, Abs format (unit mm)*
G04 Created by KiCad (PCBNEW (5.1.9)-1) date 2021-08-15 07:19:13*
%MOMM*%
%LPD*%
G01*
G04 APERTURE LIST*
%TA.AperFunction,Profile*%
%ADD10C,0.200000*%
%TD*%
G04 APERTURE END LIST*
D10*
X127122181Y-171346819D02*
X127222082Y-171588000D01*
X127381000Y-171795107D02*
X127588107Y-171954025D01*
X127222082Y-171588000D02*
X127381000Y-171795107D01*
X127088107Y-171088000D02*
X127122181Y-171346819D01*
X127588107Y-171954025D02*
X127829288Y-172053926D01*
X128088107Y-63588000D02*
X127829288Y-63622000D01*
X165728107Y-64588000D02*
X165694007Y-64329000D01*
X165694007Y-171346819D02*
X165728107Y-171088000D01*
X165435207Y-171795107D02*
X165594107Y-171588000D01*
X165228107Y-171954025D02*
X165435207Y-171795107D01*
X164986907Y-172053926D02*
X165228107Y-171954025D01*
X164728107Y-63588000D02*
X128088107Y-63588000D01*
X165594107Y-171588000D02*
X165694007Y-171346819D01*
X164986907Y-63622000D02*
X164728107Y-63588000D01*
X165728107Y-171088000D02*
X165728107Y-64588000D01*
X127588107Y-63722000D02*
X127381000Y-63881000D01*
X127829288Y-172053926D02*
X128088107Y-172088000D01*
X165594107Y-64088000D02*
X165435207Y-63881000D01*
X164728107Y-172088000D02*
X164986907Y-172053926D01*
X165228107Y-63722000D02*
X164986907Y-63622000D01*
X127122181Y-64329000D02*
X127088107Y-64588000D01*
X128088107Y-172088000D02*
X164728107Y-172088000D01*
X127222082Y-64088000D02*
X127122181Y-64329000D01*
X165694007Y-64329000D02*
X165594107Y-64088000D01*
X127829288Y-63622000D02*
X127588107Y-63722000D01*
X165435207Y-63881000D02*
X165228107Y-63722000D01*
X127088107Y-64588000D02*
X127088107Y-171088000D01*
X127381000Y-63881000D02*
X127222082Y-64088000D01*
M02*
